<svg xmlns="http://www.w3.org/2000/svg" viewBox="0 0 348.59 122.14"><defs><style>.cls-1{fill:#fff;}.cls-2{fill:#39b6ed;}</style></defs><g id="Layer_2" data-name="Layer 2"><g id="Design"><path class="cls-1" d="M325.56,114.62c2,2,3.7,3.85,5.07,5.44l.9-.72c-1.39-1.61-3.13-3.48-5.12-5.5Zm-22-20.35c3.7,3.17,7.56,6.59,11.23,10l.81-.81c-3.68-3.39-7.55-6.82-11.26-10ZM285.77,80.51a63.22,63.22,0,0,1,6.12,4.26l.73-.88a65.77,65.77,0,0,0-6.25-4.35Zm-5.77-4a67.59,67.59,0,0,1,5.7,4l.74-.88c-1.88-1.45-3.82-2.79-5.8-4ZM254.12,66.24a90.29,90.29,0,0,1,13.42,4l.44-1a92.71,92.71,0,0,0-13.6-4.09Zm-28-3.16c4.84.14,9.54.43,14.11.92l.13-1.12c-4.61-.5-9.34-.79-14.2-.93Zm-28.27.55c4.81-.26,9.53-.46,14.15-.56l0-1.13c-4.64.11-9.37.31-14.18.56Zm-28.28,1.88,14.14-1-.08-1.12c-4.65.31-9.37.66-14.15,1Zm-28.31,1.7q7.16-.31,14.17-.76l-.08-1.12c-4.66.29-9.38.55-14.14.75Zm-28.37.42c4.76.09,9.5.09,14.19,0l0-1.13q-7,.12-14.15,0ZM91.6,66.57q3.56.3,7.09.51L98.76,66c-2.34-.14-4.7-.31-7.05-.51Zm-7-.78q3.42.46,7,.78l.11-1.13c-2.4-.2-4.72-.46-7-.76ZM57.34,58.66A102.19,102.19,0,0,0,70.71,63.1L71,62A99.91,99.91,0,0,1,57.8,57.62ZM33.65,43.91A76,76,0,0,0,44.83,52.3l.63-.95a74.8,74.8,0,0,1-11-8.26Zm-16-22.32a58.52,58.52,0,0,0,6.76,12l1-.64a57.54,57.54,0,0,1-6.63-11.78ZM14.79,1.4a22.41,22.41,0,0,0-.48,6.9l1.17-.08a21.68,21.68,0,0,1,.45-6.56ZM286.07,80l-.37.44,0,0,0,0ZM91.66,66l0-.57Z"/><path class="cls-2" d="M312.91,120.91c.38.41.75.82,1.1,1.23l1.36-1.08c-.37-.42-.75-.85-1.14-1.27Zm-4.72-4.7c.83.77,1.64,1.54,2.42,2.3l1.26-1.18c-.79-.78-1.62-1.57-2.47-2.35Zm-5.08-4.4c.87.72,1.73,1.44,2.57,2.17l1.17-1.26c-.85-.74-1.72-1.47-2.6-2.19Zm-5.3-4.16c.9.68,1.79,1.36,2.67,2.06l1.11-1.31c-.89-.7-1.79-1.4-2.69-2.08Zm-5.45-4c.91.64,1.82,1.3,2.74,2l1.06-1.35c-.92-.67-1.85-1.34-2.76-2Zm-5.59-3.82c.92.61,1.86,1.24,2.81,1.89l1-1.38-2.83-1.9Zm-5.69-3.66L283.94,98l1-1.41L282,94.77Zm-4.35-2.61,1.46.85.92-1.44-1.47-.86Zm-1.48-1.11c.47.34.93.69,1.39,1l1.1-1.32-1.42-1.07Zm-5.77-3.81c1,.59,2,1.2,2.94,1.84l1-1.4c-1-.65-2-1.28-3-1.88Zm-6.13-3.24c1,.5,2.08,1,3.11,1.55l.84-1.48c-1.05-.56-2.11-1.08-3.18-1.59Zm-6.43-2.67c1.1.4,2.18.82,3.25,1.27l.69-1.56c-1.09-.45-2.2-.88-3.31-1.29Zm-6.65-2.13c1.12.31,2.24.64,3.35,1l.55-1.61q-1.69-.54-3.42-1ZM243.45,79c1.16.24,2.3.5,3.43.77l.43-1.64c-1.15-.28-2.32-.54-3.49-.78Zm-6.91-1.2c1.16.16,2.32.35,3.46.55l.32-1.67c-1.17-.2-2.34-.39-3.52-.56Zm-7-.84c1.17.11,2.34.24,3.5.37l.21-1.68c-1.17-.13-2.35-.26-3.54-.37Zm-7-.52c1.19.06,2.36.14,3.53.22l.14-1.68c-1.18-.09-2.37-.17-3.57-.23Zm-7-.26c1.19,0,2.36.06,3.53.1l.07-1.69c-1.18,0-2.37-.08-3.56-.1Zm-7.06-.05h3.52l0-1.69H208.4Zm-7.07.13,3.53-.09,0-1.69-3.55.08Zm-7.07.25,3.54-.14-.07-1.69-3.55.14Zm-7.07.36,3.54-.19L190.65,75l-3.55.19Zm-7.07.43,3.55-.22-.11-1.69-3.55.22Zm-7.06.47,3.54-.24-.12-1.69-3.54.25Zm-7.06.5,3.53-.25-.12-1.69-3.54.26Zm-7.07.5,3.53-.25-.12-1.68-3.54.25Zm-7.07.49L155.4,79l-.12-1.69-3.53.24Zm-7.08.44,3.54-.21-.12-1.69-3.53.21Zm-7.08.4,3.53-.19-.1-1.69-3.53.19Zm-7.09.32,3.54-.15-.09-1.69c-1.17,0-2.35.11-3.53.15Zm-7.1.24,3.55-.1-.07-1.7-3.53.11Zm-7.1.15,3.55-.06,0-1.69-3.53.06Zm-7.1,0h3.55v-1.7c-1.18,0-2.35,0-3.53,0Zm-7.1-.1q1.77,0,3.54.06l0-1.69c-1.18,0-2.35,0-3.53-.06Zm-7.11-.24,3.55.14.06-1.69-3.53-.14ZM88,80.08q1.77.12,3.54.21l.1-1.68-3.52-.22Zm-5.32-.4,1.77.14.15-1.68L82.85,78Zm-1.78-.17,1.78.17L82.85,78l-1.74-.16Zm-7-.93c1.15.19,2.31.37,3.49.53l.24-1.68c-1.15-.15-2.3-.33-3.43-.52Zm-6.88-1.4c1.13.27,2.28.52,3.44.76l.36-1.66c-1.14-.23-2.26-.48-3.37-.74Zm-6.76-1.89c1.11.35,2.22.69,3.36,1l.49-1.62c-1.12-.31-2.21-.64-3.29-1Zm-6.6-2.39c1.07.44,2.17.86,3.28,1.26l.61-1.59Q56,72,54.39,71.34ZM47.33,70c1,.51,2.09,1,3.16,1.49L51.24,70c-1.05-.47-2.09-1-3.1-1.47ZM41.2,66.68c1,.6,2,1.17,3,1.74l.87-1.48c-1-.55-2-1.11-3-1.69Zm-5.83-3.8c.94.66,1.9,1.32,2.88,2l1-1.4c-1-.63-1.91-1.27-2.83-1.92Zm-5.51-4.24c.89.73,1.79,1.46,2.71,2.17l1.1-1.32c-.91-.7-1.79-1.41-2.66-2.13ZM24.72,54c.82.8,1.67,1.58,2.53,2.36l1.2-1.23c-.85-.77-1.67-1.54-2.48-2.32ZM20,49c.75.85,1.53,1.7,2.33,2.54l1.29-1.14c-.78-.83-1.54-1.66-2.29-2.5ZM15.6,43.68c.68.91,1.39,1.81,2.12,2.7l1.38-1.05c-.72-.87-1.41-1.76-2.08-2.65Zm-3.94-5.62c.62.95,1.25,1.9,1.92,2.85L15,40c-.65-.93-1.27-1.86-1.87-2.79ZM8.17,32.17c.54,1,1.1,2,1.69,3l1.53-.84c-.58-1-1.13-2-1.66-2.92ZM5.16,26c.45,1,.93,2.06,1.44,3.1l1.59-.72c-.5-1-1-2-1.41-3ZM2.7,19.67c.35,1,.74,2.12,1.16,3.21l1.64-.6c-.41-1.06-.79-2.1-1.13-3.13ZM.88,13.07c.23,1.08.5,2.19.82,3.33L3.4,16c-.31-1.11-.57-2.19-.79-3.23ZM0,6.27A33.43,33.43,0,0,0,.3,9.7L2,9.48a30.56,30.56,0,0,1-.28-3.26ZM.45,1.05A14.74,14.74,0,0,0,.13,2.8L1.88,3a12.75,12.75,0,0,1,.27-1.55Zm276.74,91.8-.55.66,0,0,.05,0Zm-194.42-14,.08-.85Z"/><path class="cls-2" d="M346.18,119.32c.32.57.58,1.09.79,1.56l1.62-.66q-.36-.81-.87-1.71Zm-4.1-6c.78,1,1.5,2,2.16,3l1.46-.94c-.67-1-1.42-2-2.2-3Zm-4.62-5.73c.79.94,1.58,1.89,2.35,2.84l1.39-1c-.78-1-1.58-1.92-2.37-2.87ZM332.6,102c.79.87,1.61,1.8,2.46,2.77l1.34-1.09c-.85-1-1.68-1.91-2.47-2.79Zm-3.76-4.07,1.27,1.34,1.3-1.13-1.27-1.36Zm-1.12-1.27,1.1,1.24,1.35-1.08c-.37-.43-.74-.85-1.13-1.28ZM323,92c.84.77,1.65,1.54,2.42,2.31l1.26-1.18c-.79-.78-1.62-1.57-2.47-2.35Zm-5.08-4.39c.88.72,1.73,1.44,2.57,2.16l1.18-1.25c-.85-.74-1.72-1.47-2.61-2.2Zm-5.29-4.16c.89.67,1.78,1.36,2.67,2l1.11-1.31q-1.35-1.05-2.7-2.07Zm-5.46-4c.91.64,1.83,1.3,2.74,2L311,80.06c-.93-.68-1.86-1.34-2.77-2Zm-5.59-3.82c.92.61,1.86,1.24,2.81,1.89l1-1.38c-1-.66-1.91-1.29-2.83-1.9ZM295.88,72l2.86,1.81,1-1.41c-1-.65-2-1.25-2.89-1.82Zm-4.34-2.62,1.45.86.92-1.44-1.47-.87Zm-1.48-1.1c.46.34.92.68,1.38,1l1.1-1.32c-.47-.36-.94-.72-1.42-1.07Zm-5.77-3.81c1,.59,2,1.2,2.94,1.84l1-1.4c-1-.65-2-1.28-3-1.88Zm-6.14-3.24c1.05.49,2.09,1,3.11,1.55l.85-1.49c-1.05-.55-2.11-1.08-3.19-1.58Zm-6.43-2.67c1.1.4,2.18.82,3.25,1.26l.7-1.55c-1.1-.45-2.2-.89-3.32-1.29Zm-6.65-2.14c1.13.32,2.24.65,3.35,1l.55-1.61c-1.12-.36-2.26-.7-3.41-1Zm-6.81-1.64c1.15.24,2.29.49,3.42.76l.43-1.64c-1.15-.27-2.31-.53-3.48-.77Zm-6.92-1.21c1.17.17,2.32.36,3.47.56l.31-1.67c-1.16-.2-2.33-.39-3.51-.56Zm-7-.83c1.18.11,2.34.23,3.5.37l.22-1.68c-1.18-.14-2.36-.26-3.55-.38Zm-7-.52c1.18.06,2.36.13,3.53.22l.13-1.69c-1.18-.08-2.37-.16-3.56-.22Zm-7-.26c1.19,0,2.36,0,3.53.1l.07-1.69c-1.18,0-2.36-.08-3.56-.11Zm-7.06-.05h3.53V50.18H223.2Zm-7.06.12,3.52-.08,0-1.69-3.54.08Zm-7.07.26,3.53-.14-.07-1.7-3.55.15Zm-7.08.36,3.55-.19-.1-1.69-3.55.19Zm-7.06.43,3.54-.23-.11-1.69-3.55.23Zm-7.06.47,3.53-.24-.12-1.69-3.54.24Zm-7.07.5,3.54-.25-.13-1.69-3.54.25Zm-7.07.5,3.54-.25-.13-1.69-3.53.25Zm-7.07.48c1.18-.08,2.36-.15,3.54-.24l-.13-1.68-3.53.23Zm-7.08.45,3.54-.22L163,53.53l-3.53.22Zm-7.08.39,3.54-.19L156,54l-3.53.18Zm-7.09.33L149,56l-.08-1.69-3.53.15Zm-7.1.24,3.55-.11-.06-1.69-3.54.11Zm-7.09.14,3.54,0,0-1.7q-1.77,0-3.54.06Zm-7.11,0h3.55V54.88h-3.53Zm-7.1-.09,3.55.06,0-1.69-3.53-.07Zm-7.1-.24,3.55.13.06-1.69L110,54.55Zm-7.1-.39,3.55.21.1-1.69c-1.18-.06-2.35-.13-3.53-.21Zm-5.32-.41,1.78.15.14-1.69-1.77-.14Zm-1.81-.16,1.81.16.15-1.68-1.79-.16Zm-7.1-.82q1.75.24,3.57.45l.21-1.68c-1.2-.14-2.38-.28-3.53-.44Zm-7-1.14c1.14.22,2.31.42,3.5.61l.3-1.66c-1.18-.19-2.34-.4-3.47-.61Zm-7-1.52q1.71.42,3.48.81L78.42,51c-1.17-.25-2.31-.52-3.43-.8Zm-6.86-1.94c1.11.36,2.25.7,3.42,1l.5-1.62c-1.15-.33-2.27-.66-3.36-1ZM61,47.42c1.08.44,2.19.87,3.34,1.29l.62-1.59c-1.13-.41-2.21-.83-3.27-1.26Zm-6.48-3c1,.55,2.1,1.07,3.21,1.59l.76-1.53c-1.08-.5-2.12-1-3.12-1.54Zm-6.12-3.65c1,.65,2,1.29,3,1.91l.93-1.44c-1-.6-2-1.23-2.92-1.86Zm-5.61-4.37c.86.77,1.77,1.53,2.73,2.27l1.11-1.31c-.93-.72-1.81-1.46-2.64-2.2Zm-4.92-5.12c.74.9,1.52,1.78,2.37,2.66l1.29-1.15c-.82-.85-1.57-1.7-2.28-2.56Zm-4-5.81c.56,1,1.18,2,1.87,3l1.46-.93c-.65-.95-1.25-1.91-1.79-2.86ZM31,19q.56,1.62,1.29,3.27l1.61-.68q-.7-1.56-1.23-3.12Zm-1.63-6.82c.16,1.13.37,2.28.65,3.44l1.71-.37c-.26-1.12-.47-2.22-.62-3.29Zm-.26-7C29,6.34,29,7.52,29,8.72l1.76-.06c0-1.15,0-2.27.05-3.34ZM29.86,0c-.14.56-.26,1.13-.37,1.72l1.73.3c.1-.56.22-1.11.35-1.63ZM329.49,97.37l-.67.54h0v0ZM292,68.62l-.55.66.05,0,.05,0ZM97.58,54.6l.07-.84Z"/></g></g></svg>