<svg xmlns="http://www.w3.org/2000/svg" viewBox="0 0 391.87 288.35"><defs><style>.cls-1{fill:#e6e6e6;}.cls-2,.cls-8{fill:#fff;}.cls-3{fill:#39b6ed;}.cls-4{fill:#ccc;}.cls-5{fill:#ffb8b8;}.cls-6{fill:#43b5e8;}.cls-7,.cls-8{opacity:0.5;}.cls-8{fill-rule:evenodd;}</style></defs><g id="Layer_2" data-name="Layer 2"><g id="Design"><path class="cls-1" d="M211.54,68.21H209.9V25a24.55,24.55,0,0,0-7.61-17.69A26.54,26.54,0,0,0,183.9,0H88.72A26.54,26.54,0,0,0,70.33,7.32,24.53,24.53,0,0,0,62.71,25V262a24.52,24.52,0,0,0,7.62,17.68A26.54,26.54,0,0,0,88.72,287H183.9a26.56,26.56,0,0,0,18.39-7.32A24.55,24.55,0,0,0,209.9,262V99h1.64Z"/><path class="cls-2" d="M185,6.5H172.52a8.53,8.53,0,0,1,.64,4.26,8.71,8.71,0,0,1-1.52,4,9.14,9.14,0,0,1-3.32,2.88A9.49,9.49,0,0,1,164,18.73H109.45a9.49,9.49,0,0,1-4.34-1.05,9,9,0,0,1-3.31-2.88,8.6,8.6,0,0,1-.89-8.3H89.31A19.86,19.86,0,0,0,75.57,12a18.33,18.33,0,0,0-5.68,13.21V261.85a18.31,18.31,0,0,0,5.68,13.2,19.86,19.86,0,0,0,13.74,5.47H185a19.82,19.82,0,0,0,13.73-5.47,18.32,18.32,0,0,0,5.69-13.2V25.18A18.32,18.32,0,0,0,198.68,12,19.82,19.82,0,0,0,185,6.5Z"/><path class="cls-3" d="M137.13,60.66a45.47,45.47,0,0,0-24.56,7.17A42.9,42.9,0,0,0,96.29,86.9a41,41,0,0,0-2.51,24.56,42,42,0,0,0,12.09,21.76,44.75,44.75,0,0,0,22.63,11.64A45.9,45.9,0,0,0,154,142.44a43.91,43.91,0,0,0,19.84-15.66,41.23,41.23,0,0,0-5.51-53.65A45.2,45.2,0,0,0,137.13,60.66Zm0,85.84a46.38,46.38,0,0,1-25-7.3A43.77,43.77,0,0,1,95.5,119.75a41.87,41.87,0,0,1-2.57-25,42.81,42.81,0,0,1,12.34-22.18,45.62,45.62,0,0,1,23.07-11.86,46.73,46.73,0,0,1,26,2.47,44.76,44.76,0,0,1,20.22,16,42,42,0,0,1-5.62,54.7A46,46,0,0,1,137.13,146.5Z"/><ellipse class="cls-3" cx="98.65" cy="184.46" rx="4.72" ry="4.54"/><path class="cls-4" d="M176.89,187.76H116.81a3.47,3.47,0,0,1-2.42-1,3.2,3.2,0,0,1,0-4.67,3.48,3.48,0,0,1,2.42-1h60.08a3.52,3.52,0,0,1,2.43,1,3.23,3.23,0,0,1,0,4.67A3.51,3.51,0,0,1,176.89,187.76Z"/><path class="cls-3" d="M158.26,187.8h-41.7a3.55,3.55,0,0,1-2.45-1,3.25,3.25,0,0,1,0-4.73,3.52,3.52,0,0,1,2.45-1h41.7a3.52,3.52,0,0,1,2.45,1,3.25,3.25,0,0,1,0,4.73A3.55,3.55,0,0,1,158.26,187.8Z"/><ellipse class="cls-3" cx="98.65" cy="204.27" rx="4.72" ry="4.54"/><path class="cls-4" d="M176.89,207.57H116.81a3.51,3.51,0,0,1-2.42-1,3.2,3.2,0,0,1,0-4.67,3.48,3.48,0,0,1,2.42-1h60.08a3.52,3.52,0,0,1,2.43,1,3.23,3.23,0,0,1,0,4.67A3.56,3.56,0,0,1,176.89,207.57Z"/><path class="cls-3" d="M98.65,228.62a4.54,4.54,0,1,0-4.72-4.54A4.63,4.63,0,0,0,98.65,228.62Z"/><path class="cls-4" d="M176.89,227.38H116.81a3.48,3.48,0,0,1-2.42-1,3.2,3.2,0,0,1,0-4.67,3.51,3.51,0,0,1,2.42-1h60.08a3.56,3.56,0,0,1,2.43,1,3.23,3.23,0,0,1,0,4.67A3.52,3.52,0,0,1,176.89,227.38Z"/><path class="cls-3" d="M144.53,207.61h-28a3.52,3.52,0,0,1-2.45-1,3.24,3.24,0,0,1,0-4.72,3.52,3.52,0,0,1,2.45-1h28a3.52,3.52,0,0,1,2.45,1,3.24,3.24,0,0,1,0,4.72A3.52,3.52,0,0,1,144.53,207.61Z"/><path class="cls-3" d="M169.42,227.42H116.56a3.52,3.52,0,0,1-2.45-1,3.24,3.24,0,0,1,0-4.72,3.52,3.52,0,0,1,2.45-1h52.86a3.52,3.52,0,0,1,2.45,1,3.24,3.24,0,0,1,0,4.72A3.52,3.52,0,0,1,169.42,227.42Z"/><path class="cls-3" d="M175.47,125.31H98.78a.47.47,0,0,1-.3-.12.4.4,0,0,1,0-.59.47.47,0,0,1,.3-.12h76.69a.47.47,0,0,1,.3.12.4.4,0,0,1,0,.59A.47.47,0,0,1,175.47,125.31Z"/><path class="cls-3" d="M391.4,287.9H.48a.46.46,0,0,1-.34-.16.64.64,0,0,1,0-.8.46.46,0,0,1,.34-.16H391.4a.44.44,0,0,1,.33.16.64.64,0,0,1,0,.8A.44.44,0,0,1,391.4,287.9Z"/><path class="cls-5" d="M82.65,192.14a4.23,4.23,0,0,0-2.8-2.25,4.37,4.37,0,0,0-1.87-.07,4.5,4.5,0,0,0-1.73.69l-12.47-8.58-.3,7.66,11.89,7A4.33,4.33,0,0,0,78,198.05a4.42,4.42,0,0,0,3-.59,4.18,4.18,0,0,0,1.85-2.37A4,4,0,0,0,82.65,192.14Z"/><polygon class="cls-5" points="10.59 275.37 15.58 276.96 24.33 259.19 16.95 256.85 10.59 275.37"/><path class="cls-3" d="M19.62,276.72,10,273.66l-2,5.83,15.7,5a6,6,0,0,0,.31-2.37,5.86,5.86,0,0,0-.67-2.31,6,6,0,0,0-1.53-1.89A6.57,6.57,0,0,0,19.62,276.72Z"/><polygon class="cls-5" points="43.54 279.79 48.8 279.79 51.3 260.27 43.54 260.27 43.54 279.79"/><path class="cls-3" d="M52.56,278.34H42.41v6.14H59a6,6,0,0,0-.49-2.35,6.19,6.19,0,0,0-1.38-2,6.58,6.58,0,0,0-4.52-1.8Z"/><path class="cls-3" d="M48.4,207.35l.27,1.14c3.63,15.44,4.92,37.9,3.83,53.69l-.83,12.2a1.64,1.64,0,0,1-.54,1.1,1.79,1.79,0,0,1-1.17.44H43.65a1.74,1.74,0,0,1-1.14-.42,1.58,1.58,0,0,1-.57-1l-4.89-40a1.67,1.67,0,0,0-.51-1,1.71,1.71,0,0,0-1-.46,1.74,1.74,0,0,0-1.11.27,1.65,1.65,0,0,0-.68.88L21,270.31a1.76,1.76,0,0,1-.58.8,1.86,1.86,0,0,1-1,.35l-9.63.59a1.72,1.72,0,0,1-.81-.14,1.65,1.65,0,0,1-.65-.48,1.69,1.69,0,0,1-.34-.73,1.63,1.63,0,0,1,0-.79l5.8-15.33c4.48-13.76,6.89-34.67,7.15-49.09A1.67,1.67,0,0,1,22.24,204a1.84,1.84,0,0,1,.7-.08l24,2.2a1.72,1.72,0,0,1,1,.4A1.66,1.66,0,0,1,48.4,207.35Z"/><ellipse class="cls-5" cx="34.38" cy="133.11" rx="10.54" ry="10.14"/><path class="cls-3" d="M41.3,210.67c2.1,0,4.19-.11,6.28-.32a2.63,2.63,0,0,0,1.72-.89,2.44,2.44,0,0,0,.58-1.79l-3.6-33.39c-.86-9.44-2.2-18.56-9-26.28a2.55,2.55,0,0,0-.83-.62,2.61,2.61,0,0,0-1-.26h-.25c-2.67-.1-3.9,0-4.25.32l-1.86,1.77c-11.37,8.08-11.84,59.28-9,58.28a37.77,37.77,0,0,1,7.46.29C31.15,210.16,37,210.67,41.3,210.67Z"/><path class="cls-3" d="M70.26,194.4l4.23-7.15L36,160.57a8.06,8.06,0,0,0-2.9-1.25,8.3,8.3,0,0,0-3.18,0A7.82,7.82,0,0,0,27,160.5a7.59,7.59,0,0,0-2.19,2.22,7.3,7.3,0,0,0-.87,5.92,7.56,7.56,0,0,0,1.46,2.72,7.79,7.79,0,0,0,2.47,1.93Z"/><path class="cls-3" d="M29.64,141.68a2.09,2.09,0,0,1-1.33.57,2.14,2.14,0,0,1-1.39-.4,18.1,18.1,0,0,1-6-6.66,10.43,10.43,0,0,1,.14-9.79c1.51-2.48,4.17-4.08,6.82-5.39a12.35,12.35,0,0,1,3.3-1.22,4.83,4.83,0,0,1,3.41.53,2.83,2.83,0,0,1,1.13,1.27,2.71,2.71,0,0,1,.2,1.66,11.18,11.18,0,0,1,4.73-3.06,6.39,6.39,0,0,1,3.62-.25,5.82,5.82,0,0,1,3.58,3.45,6.62,6.62,0,0,1,.55,3.77,4.49,4.49,0,0,1-.7,1.78,4.78,4.78,0,0,1-1.39,1.37,6.79,6.79,0,0,1-4.77.43,41.58,41.58,0,0,0-4.77-1.08,5.06,5.06,0,0,0-4.44,1.49,6.3,6.3,0,0,0-1,3.14L30.52,139a6.65,6.65,0,0,1-.65,2.38A1.33,1.33,0,0,1,29.64,141.68Z"/><path class="cls-5" d="M6.9,212.7a4.2,4.2,0,0,0,1.24-1.35,4.08,4.08,0,0,0,.54-1.72,4.16,4.16,0,0,0-.27-1.78,4.1,4.1,0,0,0-1-1.5L13.83,193,6,194.11,1,206.63a4.05,4.05,0,0,0,.13,5.54,4.38,4.38,0,0,0,2.77,1.31,4.44,4.44,0,0,0,3-.78Z"/><path class="cls-3" d="M2.58,198.49,10,202.55l27.75-37a7.56,7.56,0,0,0,1.29-2.79,7.18,7.18,0,0,0,0-3.06,7.34,7.34,0,0,0-1.25-2.81,7.62,7.62,0,0,0-2.31-2.1,7.89,7.89,0,0,0-3-1,7.93,7.93,0,0,0-6,1.6,7.36,7.36,0,0,0-2,2.37Z"/><path class="cls-2" d="M337.74,253.79a7.22,7.22,0,0,1-2.67,3.12,7.37,7.37,0,0,1-1.93.89,7.64,7.64,0,0,1-5.06-.24,7.34,7.34,0,0,1-3.24-2.57,7,7,0,0,1-.92-1.85,6.88,6.88,0,0,1,.25-4.87,7.13,7.13,0,0,1,2.66-3.12,7.37,7.37,0,0,1,1.93-.89,7.64,7.64,0,0,1,5.06.24,7.27,7.27,0,0,1,3.24,2.57,6.81,6.81,0,0,1,.92,1.85,6.7,6.7,0,0,1,.33,2.11A6.88,6.88,0,0,1,337.74,253.79Zm1.23-6a8.43,8.43,0,0,0-3.15-3.69,9,9,0,0,0-8.26-.77,8.69,8.69,0,0,0-3.83,3,8.21,8.21,0,0,0-1.48,4.69,8.06,8.06,0,0,0,.68,3.26,8.49,8.49,0,0,0,3.15,3.69,9,9,0,0,0,8.26.77,8.71,8.71,0,0,0,3.83-3,8.16,8.16,0,0,0,1.48-4.68A8.06,8.06,0,0,0,339,247.77Z"/><path class="cls-6" d="M247.3,282.64a5.42,5.42,0,1,1,5.63-5.42A5.53,5.53,0,0,1,247.3,282.64Zm0-15.84a10.42,10.42,0,1,0,10.81,10.42A10.62,10.62,0,0,0,247.3,266.8Z"/><path class="cls-6" d="M354.41,282.64a5.42,5.42,0,1,1,5.62-5.42A5.53,5.53,0,0,1,354.41,282.64Zm0-15.84a10.42,10.42,0,1,0,10.81,10.42A10.63,10.63,0,0,0,354.41,266.8Z"/><path class="cls-2" d="M247.3,267.53a9.7,9.7,0,1,0,10.06,9.69A9.89,9.89,0,0,0,247.3,267.53Zm0,20.82a11.14,11.14,0,1,1,11.56-11.13A11.36,11.36,0,0,1,247.3,288.35Z"/><path class="cls-2" d="M344.43,281h-86.7a.74.74,0,0,1-.75-.72.74.74,0,0,1,.75-.73h86.7a.74.74,0,0,1,.75.73A.74.74,0,0,1,344.43,281Z"/><path class="cls-2" d="M216.66,277.33h0Zm0,0Zm0,0Zm0,0h0ZM374.52,281c-4.13,0-9.42-.15-9.73-.16a.73.73,0,1,1,0-1.45h0c.11,0,10.42.3,13.52.08,2.81-.2,3.39-1.62,3.65-2.22a35.79,35.79,0,0,0,0-7.46,8.14,8.14,0,0,0-3.31-1,.72.72,0,0,1-.63-.7c-.42-18.47-4-37.13-5.89-42.38-1.71-4.76-7.55-5.11-7.8-5.13H297c-6.33,0-8.17,1.54-10.29,3.33l-.84.69c-2.52,2-28.55,21.21-29.66,22a.7.7,0,0,1-.29.13l-14.28,3.16c-8,1.77-20.54,6-21.54,7.62s-.93,5.28-.85,6.61a.71.71,0,0,1-.41.69,8.37,8.37,0,0,0-2.87,2.61,38.22,38.22,0,0,0,0,6.59c.15,2.62.69,3.29.78,3.38l.08.05c1.78,1.24,13.28,1.95,20.1,2.1a.73.73,0,1,1,0,1.45c-1.84,0-17.93-.46-20.88-2.33-.55-.27-1.36-1.23-1.55-4.57a43.58,43.58,0,0,1,0-6.86c.14-1.08,2.1-2.75,3.25-3.47-.05-1.35-.08-5.13,1.08-7,1.59-2.55,16.49-7,22.49-8.28l14.13-3.13c2-1.5,27.07-20,29.48-21.89l.81-.67c2.15-1.82,4.38-3.69,11.28-3.69h67.34c.33,0,7.13.41,9.18,6.1,1.78,5,5.45,22.92,5.95,42.22,1.52.28,3.55.85,3.9,1.93s.39,7.44,0,8.43c-.29.7-1.19,2.85-4.93,3.12C377.57,281,376.13,281,374.52,281Z"/><path class="cls-2" d="M247.3,272.52a4.7,4.7,0,1,0,4.88,4.69A4.8,4.8,0,0,0,247.3,272.52Zm0,10.84a6.15,6.15,0,1,1,6.38-6.15A6.27,6.27,0,0,1,247.3,283.36Z"/><path class="cls-2" d="M354.41,267.53a9.7,9.7,0,1,0,10.06,9.69A9.89,9.89,0,0,0,354.41,267.53Zm0,20.82A11.14,11.14,0,1,1,366,277.22,11.37,11.37,0,0,1,354.41,288.35Z"/><path class="cls-2" d="M354.41,272.52a4.7,4.7,0,1,0,4.87,4.69A4.8,4.8,0,0,0,354.41,272.52Zm0,10.84a6.15,6.15,0,1,1,6.38-6.15A6.27,6.27,0,0,1,354.41,283.36Z"/><path class="cls-2" d="M266.16,277.92a.75.75,0,0,1-.74-.59c-2.22-10.69-.77-24-.75-24.13a.75.75,0,0,1,1.49.15c0,.14-1.44,13.23.73,23.7a.72.72,0,0,1-.59.85Z"/><path class="cls-2" d="M289.11,230a1.16,1.16,0,0,0-.76.27l-26.08,20.36a1,1,0,0,0-.29,1.21,1.12,1.12,0,0,0,1.08.71h13.46a1.15,1.15,0,0,0,.81-.32l2.91-2.8a2.66,2.66,0,0,1,1.88-.75h21.77a1.14,1.14,0,0,0,1.15-1.11V231.1a1.13,1.13,0,0,0-1.15-1.1Zm-12.59,24H263.06a2.65,2.65,0,0,1-2.49-1.65,2.49,2.49,0,0,1,.73-2.82l26.08-20.36a2.71,2.71,0,0,1,1.73-.62h14.78a2.61,2.61,0,0,1,2.65,2.55v16.47a2.6,2.6,0,0,1-2.65,2.55H282.12a1.16,1.16,0,0,0-.81.33l-2.92,2.8A2.68,2.68,0,0,1,276.52,254Z"/><path class="cls-2" d="M309.08,275.76H337.2a15.84,15.84,0,0,1,6-12.13c.22-11.55-.9-30.49-1.4-38.16v-.1a2.31,2.31,0,0,0-.76-1.73,3,3,0,0,0-1.91-.55H311.88a3,3,0,0,0-2,.55,2.34,2.34,0,0,0-.76,1.73C308.92,228.62,308.11,262.44,309.08,275.76Zm28.86,1.45H308.38a.73.73,0,0,1-.74-.67c-1.06-12.88-.22-48,0-51.26a3.67,3.67,0,0,1,1.29-2.75,4.53,4.53,0,0,1,3-.88H339a4.49,4.49,0,0,1,3,.89,3.67,3.67,0,0,1,1.29,2.75v.1c.5,7.77,1.65,27.07,1.39,38.63a.72.72,0,0,1-.33.59,14.33,14.33,0,0,0-5.64,11.88A.74.74,0,0,1,337.94,277.21Z"/><path class="cls-2" d="M263.79,277.94a.73.73,0,1,1,0-1.45l74.15-.73h0a.73.73,0,1,1,0,1.45l-74.16.73Z"/><path class="cls-2" d="M374.87,252.33H344.46a.5.5,0,0,1-.51-.49v-.25a.5.5,0,0,1,.51-.48h30.41a.5.5,0,0,1,.51.48v.25A.5.5,0,0,1,374.87,252.33Z"/><path class="cls-2" d="M305.1,271.16H265.66a.56.56,0,0,1-.56-.54v-.27a.56.56,0,0,1,.56-.55H305.1a.56.56,0,0,1,.56.55v.27A.56.56,0,0,1,305.1,271.16Z"/><path class="cls-2" d="M375.29,252.81a.74.74,0,0,1-.74-.64c0-.21-2.7-21.12-3.54-24.09-.64-2.23-3.51-2.44-3.54-2.44s-7.28-.48-24.84.31a.75.75,0,0,1-.79-.68.74.74,0,0,1,.72-.76c17.67-.8,24.94-.32,25-.31s4,.28,4.89,3.5c.87,3.06,3.47,23.43,3.58,24.3a.73.73,0,0,1-.65.8Z"/><path class="cls-2" d="M261.8,250.79a.75.75,0,0,1-.63-.32c-2-2.9,2-5.83,2.21-6,.79-.66,20.42-16.91,22.12-18.14a5.16,5.16,0,0,1,3.46-1.16h19.39a.74.74,0,0,1,.75.73.73.73,0,0,1-.75.72H288.79a3.76,3.76,0,0,0-2.39.88c-1.66,1.2-21.88,17.94-22.08,18.11s-3.09,2.27-1.89,4a.72.72,0,0,1-.22,1A.77.77,0,0,1,261.8,250.79Z"/><path class="cls-2" d="M261.53,251.6a.73.73,0,0,1-.5-.19l-5.64-4.86a.7.7,0,0,1-.06-1,.78.78,0,0,1,1.06-.06l5.64,4.87a.71.71,0,0,1,.06,1A.77.77,0,0,1,261.53,251.6Z"/><path class="cls-2" d="M219,263.81l1.43.1a.92.92,0,0,0,1-.84l.3-3.62a.86.86,0,0,0-.24-.69,1,1,0,0,0-.7-.3h-1.36A17.19,17.19,0,0,0,219,263.81Zm1.5.82h-.12l-2.07-.14,0-.3a17.93,17.93,0,0,1,.53-6.19l.08-.26h1.93a1.72,1.72,0,0,1,1.25.53,1.59,1.59,0,0,1,.44,1.24l-.3,3.62A1.68,1.68,0,0,1,220.49,264.63Z"/><polygon class="cls-2" points="284.37 261.47 283.62 263.71 283.27 263.71 282.62 261.93 282 263.72 281.65 263.72 280.85 261.49 281.19 261.49 281.83 263.3 282.47 261.48 282.78 261.48 283.43 263.3 284.06 261.47 284.37 261.47"/><path class="cls-2" d="M286.81,262.88l-.51-1.1-.49,1.1Zm.12.25H285.7l-.25.56h-.34l1-2.24h.32l1.08,2.23h-.35Z"/><path class="cls-2" d="M288.43,263.43l.12-.25a1.24,1.24,0,0,0,.77.25c.4,0,.57-.15.57-.35,0-.54-1.41-.19-1.41-1,0-.35.27-.64.88-.65a1.42,1.42,0,0,1,.75.2l-.11.25a1.16,1.16,0,0,0-.64-.17c-.39,0-.56.16-.56.36,0,.54,1.41.19,1.42,1,0,.34-.28.64-.89.64A1.48,1.48,0,0,1,288.43,263.43Z"/><polygon class="cls-2" points="293.46 261.42 293.48 263.65 293.15 263.65 293.14 262.66 291.81 262.66 291.82 263.66 291.49 263.66 291.47 261.43 291.8 261.43 291.81 262.39 293.14 262.38 293.13 261.42 293.46 261.42"/><polygon class="cls-2" points="297.11 263.63 297.09 262 296.27 263.36 296.12 263.36 295.26 262.02 295.28 263.64 294.96 263.64 294.94 261.41 295.21 261.4 296.19 262.97 297.13 261.39 297.41 261.39 297.43 263.63 297.11 263.63"/><polygon class="cls-2" points="299.22 261.38 298.89 261.38 298.91 263.62 299.24 263.62 299.22 261.38"/><polygon class="cls-2" points="301.95 263.6 301.25 262.68 300.57 263.61 300.19 263.61 301.05 262.46 300.22 261.37 300.6 261.37 301.25 262.23 301.89 261.36 302.25 261.36 301.44 262.44 302.33 263.6 301.95 263.6"/><path class="cls-2" d="M303.24,263.49a.2.2,0,0,1-.14.05.19.19,0,0,1-.14-.05.19.19,0,0,1,0-.13.2.2,0,0,1,.33-.14.22.22,0,0,1,.06.14A.16.16,0,0,1,303.24,263.49Zm-.14-.37a.24.24,0,1,0,.25.24A.26.26,0,0,0,303.1,263.12Z"/><path class="cls-2" d="M303.08,263.34h0s0,0,0,0v0h0Zm0,0v.08H303v-.2h.12s0,0,0,.05v0l0,0,.06.09h-.05l0-.08Z"/><g class="cls-7"><path class="cls-8" d="M271.71,260.83a.51.51,0,0,1,.63.28l1.12,2.91a.46.46,0,0,1-.28.6.49.49,0,0,1-.62-.28l-1.13-2.91A.46.46,0,0,1,271.71,260.83Z"/><path class="cls-8" d="M274.26,260.82a.49.49,0,0,0-.62.28L272.57,264a.46.46,0,0,0,.29.6.49.49,0,0,0,.62-.28l1.08-2.93A.46.46,0,0,0,274.26,260.82Z"/><path class="cls-8" d="M277,261a1,1,0,0,0-1.23.57L274.8,264a.47.47,0,0,0,.3.6.49.49,0,0,0,.62-.29Z"/><path class="cls-8" d="M274,260.82a.48.48,0,0,1,.62.27L275.7,264a.46.46,0,0,1-.28.6.49.49,0,0,1-.63-.27l-1.13-2.91A.46.46,0,0,1,274,260.82Z"/></g><path class="cls-2" d="M270.22,264.17a4.15,4.15,0,0,0,1.57,1.8,4.38,4.38,0,0,0,1.12.51,4.43,4.43,0,0,0,1.27.18,4.35,4.35,0,0,0,1.66-.33,4.25,4.25,0,0,0,1.86-1.51,4,4,0,0,0,.53-1.07,4.16,4.16,0,0,0,.18-1.23,4.06,4.06,0,0,0-.35-1.6,4.25,4.25,0,0,0-1.56-1.8,4.61,4.61,0,0,0-1.13-.51,4.75,4.75,0,0,0-1.27-.17,4.35,4.35,0,0,0-1.66.33,4.23,4.23,0,0,0-1.86,1.5,3.88,3.88,0,0,0-.53,1.08,4.14,4.14,0,0,0-.18,1.22A4.06,4.06,0,0,0,270.22,264.17Zm-.74-3.48a4.83,4.83,0,0,1,1.8-2.15,5.17,5.17,0,0,1,2.81-.85,5.31,5.31,0,0,1,2,.37,5,5,0,0,1,2.24,1.75,4.69,4.69,0,0,1,.51,4.6,4.92,4.92,0,0,1-1.81,2.15,5.17,5.17,0,0,1-2.81.85,5.35,5.35,0,0,1-2-.37,5.17,5.17,0,0,1-2.24-1.75,4.74,4.74,0,0,1-.88-2.71A4.59,4.59,0,0,1,269.48,260.69Z"/><path class="cls-8" d="M335,248.33a.84.84,0,0,0-1.07.48l-1.9,5a.79.79,0,0,0,.5,1,.85.85,0,0,0,1.07-.48l1.9-5A.8.8,0,0,0,335,248.33Z"/><path class="cls-8" d="M330.55,248.33a.84.84,0,0,1,1.07.48l1.9,5a.79.79,0,0,1-.5,1,.85.85,0,0,1-1.07-.48l-1.9-5A.8.8,0,0,1,330.55,248.33Z"/><path class="cls-8" d="M325.91,248.6a1.69,1.69,0,0,1,2.14,1l1.62,4.27a.8.8,0,0,1-.5,1,.85.85,0,0,1-1.08-.48Z"/><path class="cls-8" d="M331.09,248.33a.85.85,0,0,0-1.07.48l-1.9,5a.8.8,0,0,0,.5,1,.84.84,0,0,0,1.07-.48l1.9-5A.79.79,0,0,0,331.09,248.33Z"/><path class="cls-3" d="M174.48,124.63H159.84l-.05-.15a3.29,3.29,0,0,1-.19-.88,4.52,4.52,0,1,1,7.15-5,3.91,3.91,0,0,1,3,1.94,3.54,3.54,0,0,1,1.33-.26,3.5,3.5,0,0,1,3.49,3.5,3.39,3.39,0,0,1-.06.64Zm-14.32-.45H174.1a2.23,2.23,0,0,0,0-.37,3.05,3.05,0,0,0-4.37-2.75l-.19.09-.1-.19a3.51,3.51,0,0,0-2.89-1.9h-.15l0-.14a4.08,4.08,0,1,0-6.42,4.4l.08.06v.1A2.85,2.85,0,0,0,160.16,124.18Z"/><path class="cls-3" d="M106.24,111.06a3.32,3.32,0,0,1-2.79-1.52h-.19a3.32,3.32,0,0,1-3-4.73,3.19,3.19,0,0,1-1.09-1.42,3.29,3.29,0,0,1,0-2.54,3.3,3.3,0,0,1,3.11-2,3.33,3.33,0,0,1,2-2.44,3.39,3.39,0,0,1,1.22-.23,3.33,3.33,0,0,1,2.9,1.71,3.31,3.31,0,0,1,2.49,5.65,3.18,3.18,0,0,1,.67,1.06,3.31,3.31,0,0,1-1.85,4.3,4.13,4.13,0,0,1-.5.15,3.32,3.32,0,0,1-1.81,1.78A3.47,3.47,0,0,1,106.24,111.06Zm-2.67-2a.21.21,0,0,1,.19.11,2.87,2.87,0,0,0,2.48,1.42,2.72,2.72,0,0,0,1.05-.2,2.84,2.84,0,0,0,1.61-1.63.2.2,0,0,1,.17-.14,3.24,3.24,0,0,0,.53-.16,2.87,2.87,0,0,0,1.61-3.72,3,3,0,0,0-.74-1.06.2.2,0,0,1-.07-.16.21.21,0,0,1,.08-.17,2.87,2.87,0,0,0-1.87-5h-.26a.22.22,0,0,1-.22-.12,2.88,2.88,0,0,0-2.57-1.59,2.77,2.77,0,0,0-1.06.2,2.88,2.88,0,0,0-1.78,2.28.22.22,0,0,1-.24.2,2.71,2.71,0,0,0-1.29.19A2.83,2.83,0,0,0,99.61,101a2.87,2.87,0,0,0,0,2.19,2.92,2.92,0,0,0,1.09,1.34.22.22,0,0,1,.08.29,2.85,2.85,0,0,0,2.51,4.24h.31Z"/><path class="cls-3" d="M106.17,109.22a.21.21,0,0,1-.13,0,.22.22,0,0,1-.05-.31l1.62-2.13a.22.22,0,0,1,.31,0,.23.23,0,0,1,0,.32l-1.61,2.13A.21.21,0,0,1,106.17,109.22Z"/><path class="cls-3" d="M106.17,107.39a.19.19,0,0,1-.14,0l-.85-.72a.21.21,0,0,1,0-.31.23.23,0,0,1,.32,0l.85.72a.22.22,0,0,1,0,.31A.19.19,0,0,1,106.17,107.39Z"/><path class="cls-3" d="M106.4,118.48V105.84a.23.23,0,1,0-.45,0v12.67A3.19,3.19,0,0,1,106.4,118.48Z"/><path class="cls-3" d="M157.26,95.18l-4.72-5.13V83.67h4.72ZM153,89.87,156.81,94V84.12H153Z"/><path class="cls-3" d="M166,112.8h-3.59v-1.18l-10.93-12-10.93,12v1.18H137l14.52-16.13Zm-3.14-.45H165l-13.51-15-13.51,15h2.13v-.9l.06-.07,11.32-12.44,11.38,12.51Z"/><path class="cls-3" d="M144.46,102,126.24,82.21,111,98.84l.3.34,15-16.31,17.2,18.71h-2.88v-1.15L126.24,85l-14.32,15.41v.68a1.08,1.08,0,0,1,0,.18v.29h0a3.11,3.11,0,0,1-.08.44h.55V100.6l13.87-14.93,13.87,14.93V102Z"/><path class="cls-3" d="M159.79,124.48a1.71,1.71,0,0,1-.09-.3H140.56V112.8h-.45v11.83h19.73Z"/><path class="cls-3" d="M162.47,115.58l.39,0v-2.8h-.44v-1.18h0v4Z"/><polygon class="cls-3" points="140.11 101.58 140.11 109.31 140.56 108.81 140.56 102.02 144.46 102.02 127.83 83.94 136.08 74.94 162.42 103.59 162.42 108.8 162.86 109.3 162.86 103.42 136.24 74.46 136.08 74.28 127.22 83.94 143.44 101.58 140.11 101.58"/><path class="cls-3" d="M166.91,105h-4.49v-1.42L136.08,74.94l-8.55,9.33-1.59-1.73,10.14-11.06Zm-4-.45h3L136.08,72.14l-9.54,10.4,1,1.07,8.55-9.33,26.78,29.14Z"/><path class="cls-3" d="M155.16,124.63h-7.87V110.24h7.87Zm-7.42-.45h7v-13.5h-7Z"/><path class="cls-3" d="M123.72,107.49h-6.63V96.78h6.63Zm-6.18-.45h5.73V97.23h-5.73Z"/><path class="cls-3" d="M135.45,107.49h-6.63V96.78h6.63Zm-6.18-.45H135V97.23h-5.73Z"/><path class="cls-3" d="M136.44,124.63H113.51V109.37h22.93ZM114,124.18h22V109.82H114Z"/><path class="cls-3" d="M136.21,124.63H113.73a.22.22,0,0,1-.22-.23.22.22,0,0,1,.22-.22h22.48a.23.23,0,1,1,0,.45Z"/><path class="cls-3" d="M136.21,120.93H113.73a.23.23,0,0,1-.22-.23.22.22,0,0,1,.22-.22h22.48a.22.22,0,0,1,.23.22A.23.23,0,0,1,136.21,120.93Z"/><path class="cls-3" d="M136.21,117.22H113.73a.22.22,0,0,1-.22-.22.22.22,0,0,1,.22-.23h22.48a.23.23,0,1,1,0,.45Z"/><path class="cls-3" d="M136.21,113.52H113.73a.22.22,0,0,1-.22-.22.22.22,0,0,1,.22-.23h22.48a.23.23,0,1,1,0,.45Z"/><path class="cls-3" d="M136.21,109.82H113.73a.22.22,0,0,1-.22-.23.22.22,0,0,1,.22-.22h22.48a.23.23,0,1,1,0,.45Z"/><path class="cls-3" d="M146.6,94.83h-7.7a.22.22,0,0,1-.22-.23V87.44a.22.22,0,0,1,.22-.23h7.7a.23.23,0,0,1,.23.23V94.6A.23.23,0,0,1,146.6,94.83Zm-7.47-.45h7.25V87.66h-7.25Z"/><path class="cls-3" d="M139.13,83.08h-6.37v-.23a3.19,3.19,0,1,1,6.37,0Zm-5.91-.45h5.45a2.73,2.73,0,0,0-5.45,0Z"/><rect class="cls-3" x="117.31" y="102.29" width="6.18" height="0.45"/><rect class="cls-3" x="129.05" y="102.29" width="6.18" height="0.45"/><rect class="cls-3" x="138.9" y="90.8" width="7.7" height="0.45"/><path class="cls-3" d="M157.64,82.07H151.9a.24.24,0,0,1-.2-.12.23.23,0,0,1,0-.23l.81-1.15a.21.21,0,0,1,.18-.09h4.12a.21.21,0,0,1,.18.09l.79,1.12a.2.2,0,0,1,.06.15A.22.22,0,0,1,157.64,82.07Zm-5.31-.45h4.87l-.49-.7h-3.89Z"/><path class="cls-3" d="M153.34,84.12a.22.22,0,0,1-.23-.22V81.84a.22.22,0,0,1,.23-.22.22.22,0,0,1,.22.22V83.9A.22.22,0,0,1,153.34,84.12Z"/><path class="cls-3" d="M156.23,84.12a.22.22,0,0,1-.22-.22V81.84a.22.22,0,0,1,.22-.22.22.22,0,0,1,.23.22V83.9A.22.22,0,0,1,156.23,84.12Z"/><path class="cls-3" d="M126.24,85l-14.32,15.41v22.4a2.2,2.2,0,0,1,.45.17V100.6l13.87-14.93,13.87,14.93v8.71l.45-.5v-8.38Z"/><path class="cls-3" d="M140.11,124.18H113.67a.41.41,0,0,0,0,.09.28.28,0,0,1,0,.13.22.22,0,0,1-.22.23h27V112.8h-.45Z"/><path class="cls-3" d="M113.54,124.63H100.43a.23.23,0,0,1-.22-.2,2.53,2.53,0,0,1,0-.28,2.91,2.91,0,0,1,2.91-2.91,2.61,2.61,0,0,1,.4,0,2.91,2.91,0,0,1,5.82.13v0a2.94,2.94,0,0,1,1.52,1.32h.3a2.91,2.91,0,0,1,2.57,1.54.28.28,0,0,1,0,.13A.22.22,0,0,1,113.54,124.63Zm-12.89-.45h12.48a2.44,2.44,0,0,0-2-1l-.39,0a.2.2,0,0,1-.23-.12,2.54,2.54,0,0,0-1.49-1.29.23.23,0,0,1-.16-.23,1,1,0,0,0,0-.17,2.47,2.47,0,1,0-4.93,0v.14a.19.19,0,0,1-.08.18.22.22,0,0,1-.19,0,2.79,2.79,0,0,0-.58-.07,2.47,2.47,0,0,0-2.46,2.47Z"/></g></g></svg>