<svg xmlns="http://www.w3.org/2000/svg" viewBox="0 0 27.16 27.16"><defs><style>.cls-1{fill:#bdbdbd;}.cls-2{fill:#fff;}.cls-3{fill:#3eb4e8;fill-rule:evenodd;opacity:0.5;}</style></defs><g id="Layer_2" data-name="Layer 2"><g id="Design"><path class="cls-1" d="M13.58,27.16A13.58,13.58,0,1,1,27.16,13.58,13.59,13.59,0,0,1,13.58,27.16Zm0-25.07A11.49,11.49,0,1,0,25.07,13.58,11.5,11.5,0,0,0,13.58,2.09Z"/><path class="cls-2" d="M13.58,1.1A12.48,12.48,0,1,0,26.06,13.58,12.5,12.5,0,0,0,13.58,1.1Z"/><path class="cls-3" d="M20.08,8.74h0a1.31,1.31,0,0,0-1.67.78l-3,8.15a1.3,1.3,0,1,0,2.45.89l3-8.14A1.31,1.31,0,0,0,20.08,8.74Z"/><path class="cls-3" d="M13.21,8.74h0a1.32,1.32,0,0,1,1.68.78l3,8.15a1.3,1.3,0,1,1-2.45.89l-3-8.14A1.31,1.31,0,0,1,13.21,8.74Z"/><path class="cls-3" d="M6,9.19H6a2.63,2.63,0,0,1,3.35,1.56l2.51,6.92a1.3,1.3,0,1,1-2.45.89Z"/><path class="cls-3" d="M14.06,8.74h0a1.31,1.31,0,0,0-1.67.78l-3,8.15a1.31,1.31,0,1,0,2.46.89l3-8.14A1.31,1.31,0,0,0,14.06,8.74Z"/></g></g></svg>