<svg xmlns="http://www.w3.org/2000/svg" viewBox="0 0 129.51 329.08"><defs><style>.cls-1{fill:none;}.cls-1,.cls-2,.cls-4{stroke:#003459;stroke-linecap:round;stroke-linejoin:round;stroke-width:1.28px;}.cls-2{fill:#f5a623;}.cls-3{fill:#003459;}.cls-4{fill:#fff;}</style></defs><g id="Layer_2" data-name="Layer 2"><g id="Design"><polyline class="cls-1" points="27.16 173 0.74 173 0.74 328.44 116.98 328.44 116.98 173 91.48 173"/><path class="cls-1" d="M58.33,320.14c-11.85,0-23.78,0-35.7.05"/><path class="cls-1" d="M95.65,320.19c-11.05-.07-22.34-.07-33.46-.05"/><path class="cls-1" d="M19,320.19c-6.09-.07-12.19-.07-18.28-.07.08-5.2.05-10.4,0-15.6,0-9.74-.21-19.54.21-29.33H117c-.21,14.91.21,30-.21,44.93-5.54,0-11.29,0-16.92.06"/><rect class="cls-1" x="13.71" y="271.53" width="90.31" height="3.61"/><path class="cls-1" d="M76.59,258.8c3.32-.51,8.52-2.5,11-5,1.43-1.42,5.71-18,5.24-23.2s-1.43-30.93-1.43-41.4S90,139.7,89,112.09s14.75-53.78,14.75-53.78a58.68,58.68,0,0,0,0-9.52c-.47-3.33-4.28-4.28-20.46-12.37S66.19,20.24,66.19,20.24H51.53s-1,8.09-17.14,16.18-20,9-20.46,12.37a58.68,58.68,0,0,0,0,9.52s15.7,26.18,14.75,53.78S26.3,178.72,26.3,189.2s-.95,36.17-1.43,41.4.05,18.7,8.89,25.7"/><polyline class="cls-1" points="66.94 265.15 94.79 265.15 94.79 271.53 22.93 271.53 22.93 265.15 53.36 265.15"/><path class="cls-1" d="M24.91,233.45c.22,1.45-3.89,27.71-2,31.7"/><path class="cls-1" d="M94.79,265.15s1.71-6.35-2-31.7"/><rect class="cls-1" x="53.13" y="15.4" width="11.42" height="4.84"/><rect class="cls-1" x="57.77" y="9.15" width="2.14" height="6.25"/><path class="cls-1" d="M60.45,9.15c0-1.11.1-3.1,1.16-3.66S64,5,64.09,3.53,62.44,1.29,61.26,1A11.07,11.07,0,0,0,56.75.78c-1.14.2-3.11.93-3.41,2.25-.19.86.67,1.41,1.33,1.74a4.64,4.64,0,0,1,2.69,4.38"/><line class="cls-1" x1="53.34" y1="3.03" x2="64.09" y2="3.03"/><path class="cls-2" d="M27,102.06s-2.21,10.7-5.89,35.51c-4.61,31.13-4.6,129.74-4.6,129.74s-.57,4.22,8.46,1c0,0,6.1-134.13,6.13-133.45,3.14,77.15,1.57,134.35,1.57,134.35s-.18,1.42,5.67.31c1.28-.24,2.44-1,3.73-1.15,2.67-.37,4.82,1.11,7.3,1.3,1.42.11,2.85-.41,4.26-.18,1.87.29,3.66,1.24,5.59,1.15,2.19-.09,4.34-1.8,6.54-1.16s4.27,1.44,6.73.71c.79-.23,1.52-.6,2.31-.82,2.65-.74,4.62.69,7.13.91a15.19,15.19,0,0,0,6.56-1.11c1.5-.61,2.64-1.4,4.17-.86,9,3.19,10.26-.3,10.26-.3s-1.31-103.89-6-128.52-5.66-37.46-5.66-37.46"/><path class="cls-2" d="M58.76,92.58H91.18l4.88-17.21c-5.43-9.08-12-24.05-13-34.41,0,0-6.14-1.45-6.31-.8-4.55,17.46-8.9,26.13-18.2,48,0,0-8.36-21.31-19.71-47.45-.46-1.07-6.3,1.13-6.3,1.13-1,10.36-5.75,24.44-11.18,33.52L27,92.58Z"/><polygon class="cls-2" points="91.18 92.58 91.18 102.06 58.76 102.06 26.95 102.06 26.95 92.58 91.18 92.58"/><polygon class="cls-2" points="82.72 35.36 83.09 40.96 76.78 40.16 78.73 33.4 82.72 35.36"/><polygon class="cls-2" points="32.93 36.25 32.57 41.85 38.87 40.72 36.93 34.29 32.93 36.25"/><path class="cls-3" d="M26,95.89c1.8-.13,3.6-.19,5.4-.24s3.6-.05,5.4-.08,3.6,0,5.4.08,3.61.11,5.41.24c-1.8.14-3.6.2-5.41.25s-3.6,0-5.4.07-3.6,0-5.4-.07S27.79,96,26,95.89Z"/><path class="cls-3" d="M27.43,98.55c2.11-.24,4.22-.4,6.33-.55s4.22-.25,6.33-.38,4.23-.19,6.35-.24,4.23-.09,6.34-.06c-2.1.24-4.21.4-6.32.55s-4.22.26-6.33.38-4.23.19-6.35.24S29.55,98.58,27.43,98.55Z"/><path class="cls-3" d="M68.72,95.93c1.87-.13,3.74-.19,5.62-.24s3.74,0,5.61-.08,3.74,0,5.61.08,3.75.11,5.62.24c-1.87.13-3.74.2-5.62.25s-3.74,0-5.61.07-3.74,0-5.61-.07S70.59,96.06,68.72,95.93Z"/><path class="cls-3" d="M72.34,97.86l-.15,0s0,0-.07-.06a.2.2,0,0,1,.08,0l.31,0,.6,0,1.21,0,2.42,0c1.61,0,3.22.11,4.82.18s3.22.2,4.82.35,3.2.31,4.8.55c-1.61,0-3.22,0-4.83-.06s-3.22-.14-4.82-.21l-4.81-.33-2.41-.18-1.2-.11-.6,0a1.5,1.5,0,0,0-.3,0C72.06,97.79,72.28,97.84,72.34,97.86Z"/><path class="cls-3" d="M34.19,43.49c-.15,2.23-.37,4.45-.6,6.67l-.75,6.64L32,63.43l-.92,6.63c0-2.24.24-4.46.43-6.69s.48-4.43.72-6.65.57-4.42.9-6.62S33.77,45.69,34.19,43.49Z"/><path class="cls-3" d="M35.72,44.1c.27,2.55.46,5.11.65,7.67s.31,5.13.47,7.69.25,5.13.33,7.69.16,5.14.16,7.71c-.27-2.56-.46-5.12-.65-7.68s-.31-5.12-.47-7.69-.25-5.12-.33-7.69S35.72,46.67,35.72,44.1Z"/><path class="cls-3" d="M37.33,43.49c.86,2.17,1.65,4.37,2.44,6.57s1.51,4.41,2.27,6.61,1.45,4.44,2.13,6.67,1.37,4.46,2,6.72c-.86-2.18-1.65-4.37-2.43-6.57s-1.52-4.41-2.28-6.62S40,52.44,39.3,50.21,37.94,45.75,37.33,43.49Z"/><path class="cls-3" d="M81.77,43.49c.41,2.2.76,4.4,1.09,6.61s.6,4.41.9,6.62.51,4.43.72,6.65.4,4.45.43,6.69L84,63.43l-.87-6.63-.75-6.64C82.14,47.94,81.92,45.72,81.77,43.49Z"/><path class="cls-3" d="M80.24,44.1c0,2.57-.08,5.13-.16,7.7s-.22,5.13-.33,7.69-.29,5.13-.47,7.69-.39,5.12-.65,7.68c0-2.57.07-5.14.16-7.71s.21-5.13.32-7.69.29-5.13.48-7.69S80,46.65,80.24,44.1Z"/><path class="cls-3" d="M78.63,43.49c-.61,2.26-1.29,4.49-2,6.72s-1.43,4.44-2.14,6.66S73,61.29,72.25,63.49s-1.58,4.39-2.44,6.57c.61-2.26,1.29-4.49,2-6.72s1.43-4.45,2.14-6.67,1.49-4.42,2.27-6.61S77.77,45.66,78.63,43.49Z"/><path class="cls-3" d="M30,102.06l-1.55,9.85c-.5,3.29-1,6.57-1.49,9.86s-.94,6.57-1.38,9.86-.82,6.6-1.2,9.9c.12-3.32.38-6.64.71-9.95s.78-6.61,1.24-9.91,1-6.57,1.64-9.84S29.26,105.3,30,102.06Z"/><path class="cls-3" d="M34.73,102.06c-.11,2-.29,4.1-.48,6.14s-.43,4.08-.65,6.12-.5,4.07-.79,6.1-.6,4.06-1,6.08c.11-2,.29-4.1.48-6.14s.43-4.08.65-6.12.5-4.07.8-6.1S34.36,104.08,34.73,102.06Z"/><path class="cls-3" d="M41.07,102.06c-.56,4.32-1,8.67-1.32,13s-.7,8.69-1,13c-.54,8.7-1,17.41-1.24,26.12s-.17,17.44-.19,26.16l0,26.16L37,193.47l-.17-13.08c-.08-8.73-.11-17.45,0-26.17s.75-17.44,1.39-26.14S39.76,110.69,41.07,102.06Z"/><path class="cls-3" d="M46.51,102.06c-.1,3.43-.26,6.86-.44,10.29l-.6,10.28-.76,10.27c-.27,3.42-.56,6.85-.92,10.26.09-3.43.26-6.86.43-10.29l.61-10.28.75-10.27C45.86,108.9,46.15,105.48,46.51,102.06Z"/><path class="cls-3" d="M87,102.06c.77,3.24,1.42,6.5,2,9.77s1.12,6.56,1.63,9.84.9,6.6,1.24,9.91.6,6.63.71,9.95c-.38-3.3-.76-6.6-1.2-9.9s-.87-6.58-1.38-9.86-1-6.57-1.49-9.86Z"/><path class="cls-3" d="M82.24,102.06c.37,2,.68,4,1,6.08s.53,4.07.8,6.1.46,4.08.65,6.12.37,4.09.48,6.14c-.38-2-.68-4-1-6.08s-.53-4.07-.8-6.1-.46-4.08-.65-6.12S82.35,104.11,82.24,102.06Z"/><path class="cls-3" d="M75.9,102.06c1.31,8.63,2.11,17.32,2.78,26s1.11,17.41,1.39,26.14.13,17.44.05,26.17l-.18,13.08-.3,13.08V180.39c0-8.72,0-17.45-.19-26.16s-.71-17.42-1.25-26.12c-.26-4.35-.59-8.7-1-13S76.47,106.38,75.9,102.06Z"/><path class="cls-3" d="M70.47,102.06c.36,3.42.64,6.84.92,10.26l.76,10.27.6,10.28c.18,3.43.34,6.86.44,10.29-.36-3.41-.65-6.84-.93-10.26l-.75-10.27-.61-10.28C70.73,108.92,70.56,105.49,70.47,102.06Z"/><path class="cls-3" d="M51.22,102.06c.05,2.55,0,5.11,0,7.66s-.1,5.1-.15,7.65-.17,5.1-.3,7.65-.26,5.09-.47,7.64c-.06-2.56,0-5.11,0-7.66s.1-5.1.15-7.65.18-5.1.3-7.65S51,104.61,51.22,102.06Z"/><path class="cls-3" d="M64.75,102.06q.93,8.84,1.59,17.69c.45,5.91.82,11.82,1.15,17.73s.56,11.83.66,17.76.13,11.85-.09,17.76c0-3,0-5.92-.13-8.88s-.15-5.91-.27-8.87q-.31-8.87-.81-17.73c-.28-5.92-.65-11.82-1-17.73Z"/><path class="cls-3" d="M56.84,102.06l0,7,0,7L56.79,130l-.27,27.88-.24-7-.11-7c-.06-4.65,0-9.3,0-13.95s.11-9.29.22-13.94S56.64,106.71,56.84,102.06Z"/><path class="cls-3" d="M61.16,102.06c.18,3.12.29,6.24.39,9.36l.22,9.37.08,9.36c0,3.13,0,6.25-.1,9.37-.18-3.12-.29-6.24-.39-9.36l-.22-9.37-.08-9.36C61.06,108.31,61.08,105.18,61.16,102.06Z"/><path class="cls-1" d="M16.5,255c-7.35,0-8.35,0-15.76,0"/><path class="cls-1" d="M116.92,255c-7.19,0-6.8,0-14,0"/><rect class="cls-1" x="58.86" y="109.29" width="2.89" height="100.13"/><path class="cls-4" d="M72.23,75.22v147.3a3,3,0,0,1-3,3H61.75V214.67H58.86v10.87H50.62a3,3,0,0,1-3-3V75.22a3,3,0,0,1,3-3H69.21A3,3,0,0,1,72.23,75.22Z"/><rect class="cls-4" x="58.86" y="214.67" width="2.89" height="38.88"/><polygon class="cls-1" points="69.81 74.86 69.81 222.88 61.75 222.88 61.75 214.67 58.86 214.67 58.86 222.88 50.01 222.88 50.01 74.86 69.81 74.86"/><rect class="cls-1" x="56.84" y="106.8" width="6.63" height="2.48"/><path class="cls-1" d="M63.47,106.8H56.84L56,85.1a2.88,2.88,0,0,1,2.88-3h2.69a2.89,2.89,0,0,1,2.88,3Z"/><rect class="cls-1" x="56.52" y="209.42" width="7.58" height="5.25"/><rect class="cls-4" x="56.52" y="253.55" width="7.58" height="13.76"/><rect class="cls-4" x="54.39" y="258.8" width="2.05" height="12.73"/><rect class="cls-4" x="64.25" y="258.8" width="2.05" height="12.73"/><rect class="cls-4" x="56.48" y="269.24" width="7.77" height="2.29"/><rect class="cls-1" x="11.74" y="297.5" width="17.89" height="5.07"/><rect class="cls-1" x="51.36" y="297.5" width="17.89" height="5.07"/><rect class="cls-1" x="88.4" y="297.5" width="17.89" height="5.07"/><path class="cls-1" d="M19,316.75a4.23,4.23,0,1,1,3.67-.18"/><path class="cls-1" d="M20.84,311.79h0a1.58,1.58,0,0,1,1.58,1.58v11.31a0,0,0,0,1,0,0H19.25a0,0,0,0,1,0,0V313.37a1.58,1.58,0,0,1,1.58-1.58Z"/><rect class="cls-1" x="12.49" y="324.68" width="17.14" height="3.76"/><path class="cls-1" d="M58.34,316.75a4.23,4.23,0,1,1,3.67-.18"/><path class="cls-1" d="M60.14,311.79h0a1.58,1.58,0,0,1,1.58,1.58v11.31a0,0,0,0,1,0,0H58.55a0,0,0,0,1,0,0V313.37a1.58,1.58,0,0,1,1.58-1.58Z"/><rect class="cls-1" x="51.79" y="324.68" width="17.14" height="3.76"/><path class="cls-1" d="M95.83,316.75a4.23,4.23,0,1,1,3.68-.18"/><path class="cls-1" d="M97.63,311.79h0a1.58,1.58,0,0,1,1.58,1.58v11.31a0,0,0,0,1,0,0H96a0,0,0,0,1,0,0V313.37A1.58,1.58,0,0,1,97.63,311.79Z"/><rect class="cls-1" x="89.28" y="324.68" width="17.14" height="3.76"/><rect class="cls-4" x="117.11" y="278.24" width="3.8" height="9.6"/><rect class="cls-4" x="121.05" y="280.23" width="3.8" height="5.61"/><rect class="cls-4" x="124.85" y="280.23" width="2.04" height="30.43"/><rect class="cls-4" x="124.4" y="310.58" width="2.94" height="4.23"/><circle class="cls-4" cx="125.82" cy="318.02" r="3.04"/><polyline class="cls-1" points="63.77 99.91 66.46 99.91 66.46 197.82 62.41 197.82"/><polyline class="cls-1" points="56.57 99.91 53.37 99.91 53.37 197.82 58.58 197.82"/></g></g></svg>