<svg xmlns="http://www.w3.org/2000/svg" viewBox="0 0 295.37 336.19"><defs><style>.cls-1,.cls-4{fill:none;stroke:#003459;stroke-linecap:round;stroke-linejoin:round;}.cls-1{stroke-width:1.48px;}.cls-2{fill:#003459;}.cls-3{fill:#f5a623;}.cls-4{stroke-width:0.74px;}</style></defs><g id="Layer_2" data-name="Layer 2"><g id="Design"><rect class="cls-1" x="112.19" y="203.83" width="71.47" height="118.24"/><path class="cls-1" d="M102,203.83h91.87a0,0,0,0,1,0,0V317.29a4.78,4.78,0,0,1-4.78,4.78h-82.3a4.78,4.78,0,0,1-4.78-4.78V203.83A0,0,0,0,1,102,203.83Z"/><path class="cls-1" d="M49.1,169.57H246.75a0,0,0,0,1,0,0v30.07a4.19,4.19,0,0,1-4.19,4.19H53.28a4.19,4.19,0,0,1-4.19-4.19V169.57A0,0,0,0,1,49.1,169.57Z"/><rect class="cls-1" x="0.74" y="163.94" width="293.88" height="5.54"/><path class="cls-1" d="M253.37,153.87h14.44a15.87,15.87,0,0,1,6.16,1.24l20.65,8.74H.74l23.43-8.94a15.75,15.75,0,0,1,5.64-1H41"/><line class="cls-1" x1="169.25" y1="153.87" x2="219.84" y2="153.87"/><line class="cls-1" x1="75.43" y1="153.87" x2="125.13" y2="153.87"/><polyline class="cls-1" points="75.43 142.95 75.43 158.86 41.9 158.86 41.9 142.95"/><polyline class="cls-1" points="169.25 139.13 169.25 158.86 125.13 158.86 125.13 139.13"/><path class="cls-1" d="M77,145.16a2,2,0,0,0,2.41-.89s3.66.91,6.32-1.32c4.56-3.82,4.12-8.82.88-12.94a93.21,93.21,0,0,0-19.41-18.53,16.82,16.82,0,0,0-16.52-1.06A23.45,23.45,0,0,0,45.73,114c-4.49,3.91-9,7.2-13.24,11.48-3.62,3.7-6.66,12.7-1.06,17,1.38,1.05,4.29,1.28,4.29,1.28,1,.84,1.86,2.59,3.25,2.47s1.25-2.68,2.63-3.79c4-3.24,10.18-2.69,15.1-2.72A88.3,88.3,0,0,1,72,140.6c1.94.3,3.7,2.17,4.95,3.91"/><path class="cls-1" d="M37.39,143s.61-5.74,21.86-5.49c18.14.21,19.21,5.49,19.21,5.49"/><path class="cls-2" d="M41.9,134.44c.45.7.84,1.33,1.27,1.9a13,13,0,0,0,1.35,1.59l-1.19.77a4.39,4.39,0,0,1-.11-2.06,4.27,4.27,0,0,1,.79-1.81c.12.66.18,1.26.29,1.83a8.2,8.2,0,0,0,.42,1.57.72.72,0,0,1-1.15.81l0,0a5.49,5.49,0,0,1-1.44-2.09A4,4,0,0,1,41.9,134.44Z"/><path class="cls-2" d="M39.18,136.62c.53.44.91.85,1.31,1.22s.76.74,1.14,1.11l.08.07a.71.71,0,0,1-.54,1.21,3.71,3.71,0,0,1-1.41-.33,1.43,1.43,0,0,1-.9-1.22,1.87,1.87,0,0,0,1.16.2c.36,0,.73-.06,1.13-.1l-.45,1.28a4.11,4.11,0,0,1-1.25-1.5A3.14,3.14,0,0,1,39.18,136.62Z"/><path class="cls-2" d="M47.47,134.84a1.52,1.52,0,0,1,.46.76,3.72,3.72,0,0,1,.17.87,5,5,0,0,1,0,.86l0,.82-.87-.68a8.22,8.22,0,0,0,.86-1.21,4.68,4.68,0,0,1,1.51-1.41,4.69,4.69,0,0,1-.3,2.05,3.36,3.36,0,0,1-.49,1,2.06,2.06,0,0,1-1.09.79l-.12,0a.6.6,0,0,1-.75-.4.65.65,0,0,1,0-.31c.07-.3.16-.54.23-.8l.22-.76a7.14,7.14,0,0,0,.18-.77A2.15,2.15,0,0,0,47.47,134.84Z"/><path class="cls-2" d="M71.09,136.41a2.25,2.25,0,0,1,.19,1.19,3.35,3.35,0,0,1-.36,1.15l-.32-1.05c-.1-.06-.19,0-.11-.06a1.72,1.72,0,0,0,.28-.2l.78-.66a7.47,7.47,0,0,1,1.89-1.18,7.34,7.34,0,0,1-1,2,8.14,8.14,0,0,1-.71.89,2.8,2.8,0,0,1-.56.45,1.34,1.34,0,0,1-1.15.07l-.11-.06a.63.63,0,0,1-.31-.84.56.56,0,0,1,.1-.15c.21-.23.4-.47.62-.73S70.8,136.71,71.09,136.41Z"/><path class="cls-2" d="M77.26,137.21a5.35,5.35,0,0,1-1,1.75l-.58.7a4.59,4.59,0,0,0-.41.53l-1.12-.84a4.2,4.2,0,0,1,.79-.37,6.49,6.49,0,0,1,.75-.23,6.86,6.86,0,0,1,1.59-.17,5.74,5.74,0,0,1-1.14,1.12c-.2.15-.4.32-.6.44l-.52.38a.72.72,0,0,1-1-.1.73.73,0,0,1-.11-.72h0a2.77,2.77,0,0,1,.71-1,7.83,7.83,0,0,1,.81-.64A7.23,7.23,0,0,1,77.26,137.21Z"/><path class="cls-2" d="M81.56,139.94A2.82,2.82,0,0,1,80,141.82a3.56,3.56,0,0,1-2.63.14L78,140.7A5.13,5.13,0,0,0,80.68,142a2.64,2.64,0,0,1-1.76.56,3.36,3.36,0,0,1-1.84-.69.72.72,0,0,1-.14-1,.7.7,0,0,1,.73-.26h.09a4.5,4.5,0,0,0,1.8.07A6.12,6.12,0,0,0,81.56,139.94Z"/><path class="cls-2" d="M34.2,139.94a6.12,6.12,0,0,0,2,.69,4.56,4.56,0,0,0,1.81-.07h.08a.72.72,0,0,1,.86.53.71.71,0,0,1-.27.74,3.33,3.33,0,0,1-1.83.69,2.65,2.65,0,0,1-1.77-.56,5.05,5.05,0,0,0,2.68-1.25l.68,1.26a3.56,3.56,0,0,1-2.63-.14A2.82,2.82,0,0,1,34.2,139.94Z"/><path class="cls-2" d="M49.48,121.12c1.87.94,3.66,2,5.49,2.86a39.79,39.79,0,0,0,5.61,2.29,28.75,28.75,0,0,0,2.91.72c.47.07,1,.19,1.44.23a1.8,1.8,0,0,0,1-.16s0,.12,0,0a1.58,1.58,0,0,0-.33-.45,5.22,5.22,0,0,0-1.13-.82c-.87-.48-1.84-.86-2.78-1.3h0a.11.11,0,0,1-.06-.15.12.12,0,0,1,.11-.07,1.82,1.82,0,0,1,.84.28,1.61,1.61,0,0,0-.81,0l0-.23a19.22,19.22,0,0,1,3.06.75,5.55,5.55,0,0,1,1.49.8,2.82,2.82,0,0,1,.65.74,1.31,1.31,0,0,1,.16.69,1.15,1.15,0,0,1-.33.71,2,2,0,0,1-1,.52,3.69,3.69,0,0,1-.93.11c-.61,0-1.08-.09-1.63-.16a22,22,0,0,1-3.11-.73A24.2,24.2,0,0,1,54.42,125,33.36,33.36,0,0,1,49.48,121.12Z"/><path class="cls-2" d="M52.05,127.89a11.65,11.65,0,0,1,3.23,0,16,16,0,0,1,3.14.68,16.44,16.44,0,0,1,2.95,1.28,11.58,11.58,0,0,1,2.6,1.92c-1.06-.24-2.06-.54-3.06-.85L58,130,55,129C54.05,128.66,53.05,128.32,52.05,127.89Z"/><polyline class="cls-1" points="253.32 142.95 253.32 158.86 219.79 158.86 219.79 142.95"/><path class="cls-1" d="M254.88,145.16a2,2,0,0,0,2.41-.89s3.66.91,6.32-1.32c4.56-3.82,4.12-8.82.88-12.94a93.21,93.21,0,0,0-19.41-18.53,16.82,16.82,0,0,0-16.52-1.06,23.45,23.45,0,0,0-4.94,3.59c-4.49,3.91-9.05,7.2-13.24,11.48-3.62,3.7-6.66,12.7-1.06,17,1.38,1.05,4.29,1.28,4.29,1.28,1,.84,1.86,2.59,3.25,2.47s1.25-2.68,2.63-3.79c4-3.24,10.18-2.69,15.1-2.72a88.3,88.3,0,0,1,15.34.91c1.94.3,3.7,2.17,4.95,3.91"/><path class="cls-1" d="M215.28,143s.61-5.74,21.86-5.49c18.14.21,19.21,5.49,19.21,5.49"/><path class="cls-2" d="M219.79,134.44c.45.7.84,1.33,1.27,1.9a12.25,12.25,0,0,0,1.36,1.59l-1.2.77a4.39,4.39,0,0,1-.11-2.06,4.27,4.27,0,0,1,.79-1.81c.12.66.18,1.26.29,1.83a8.2,8.2,0,0,0,.42,1.57.72.72,0,0,1-1.15.81l-.05,0a5.49,5.49,0,0,1-1.44-2.09A4,4,0,0,1,219.79,134.44Z"/><path class="cls-2" d="M217.07,136.62c.53.44.91.85,1.31,1.22s.76.74,1.14,1.11l.08.07a.71.71,0,0,1-.53,1.21,3.71,3.71,0,0,1-1.42-.33,1.43,1.43,0,0,1-.9-1.22,1.87,1.87,0,0,0,1.16.2c.36,0,.73-.06,1.13-.1l-.45,1.28a4.11,4.11,0,0,1-1.25-1.5A3.14,3.14,0,0,1,217.07,136.62Z"/><path class="cls-2" d="M225.36,134.84a1.52,1.52,0,0,1,.46.76,3.72,3.72,0,0,1,.17.87,5,5,0,0,1,0,.86l0,.82-.87-.68a8.22,8.22,0,0,0,.86-1.21,4.68,4.68,0,0,1,1.51-1.41,4.69,4.69,0,0,1-.3,2.05,3.36,3.36,0,0,1-.49,1,2.06,2.06,0,0,1-1.09.79l-.12,0a.6.6,0,0,1-.75-.4.65.65,0,0,1,0-.31c.07-.3.16-.54.23-.8l.23-.76c0-.26.14-.51.17-.77A2.15,2.15,0,0,0,225.36,134.84Z"/><path class="cls-2" d="M249,136.41a2.25,2.25,0,0,1,.19,1.19,3.35,3.35,0,0,1-.36,1.15l-.32-1.05c-.1-.06-.19,0-.11-.06a1.72,1.72,0,0,0,.28-.2l.78-.66a7.47,7.47,0,0,1,1.89-1.18,7.34,7.34,0,0,1-1,2,8.14,8.14,0,0,1-.71.89,2.8,2.8,0,0,1-.56.45,1.34,1.34,0,0,1-1.15.07l-.11-.06a.63.63,0,0,1-.31-.84.56.56,0,0,1,.1-.15c.21-.23.4-.47.62-.73S248.69,136.71,249,136.41Z"/><path class="cls-2" d="M255.15,137.21a5.35,5.35,0,0,1-1,1.75l-.58.7a4.59,4.59,0,0,0-.41.53l-1.12-.84a4.2,4.2,0,0,1,.79-.37,6.49,6.49,0,0,1,.75-.23,6.86,6.86,0,0,1,1.59-.17A5.74,5.74,0,0,1,254,139.7c-.2.15-.4.32-.6.44l-.52.38a.72.72,0,0,1-1-.1.73.73,0,0,1-.11-.72h0a2.77,2.77,0,0,1,.71-1,7.83,7.83,0,0,1,.81-.64A7.23,7.23,0,0,1,255.15,137.21Z"/><path class="cls-2" d="M259.45,139.94a2.82,2.82,0,0,1-1.61,1.88,3.56,3.56,0,0,1-2.63.14l.68-1.26a5.13,5.13,0,0,0,2.68,1.25,2.64,2.64,0,0,1-1.76.56,3.36,3.36,0,0,1-1.84-.69.72.72,0,0,1-.14-1,.71.71,0,0,1,.74-.26h.08a4.5,4.5,0,0,0,1.8.07A6.12,6.12,0,0,0,259.45,139.94Z"/><path class="cls-2" d="M212.09,139.94a6.12,6.12,0,0,0,2,.69,4.56,4.56,0,0,0,1.81-.07H216a.72.72,0,0,1,.86.53.71.71,0,0,1-.27.74,3.33,3.33,0,0,1-1.83.69A2.65,2.65,0,0,1,213,142a5.05,5.05,0,0,0,2.68-1.25l.68,1.26a3.56,3.56,0,0,1-2.63-.14A2.84,2.84,0,0,1,212.09,139.94Z"/><path class="cls-2" d="M227.37,121.12c1.87.94,3.66,2,5.49,2.86a39.79,39.79,0,0,0,5.61,2.29,28.75,28.75,0,0,0,2.91.72c.47.07,1,.19,1.44.23a1.8,1.8,0,0,0,1-.16s0,.12,0,0a1.58,1.58,0,0,0-.33-.45,5.22,5.22,0,0,0-1.13-.82c-.87-.48-1.84-.86-2.78-1.3h0a.11.11,0,0,1-.06-.15.12.12,0,0,1,.11-.07,1.82,1.82,0,0,1,.84.28,1.61,1.61,0,0,0-.81,0l0-.23a19,19,0,0,1,3.06.75,5.55,5.55,0,0,1,1.49.8,2.82,2.82,0,0,1,.65.74,1.31,1.31,0,0,1,.16.69,1.15,1.15,0,0,1-.33.71,2,2,0,0,1-1,.52,3.69,3.69,0,0,1-.93.11c-.61,0-1.08-.09-1.63-.16a22,22,0,0,1-3.11-.73,24.2,24.2,0,0,1-5.72-2.71A33.36,33.36,0,0,1,227.37,121.12Z"/><path class="cls-2" d="M229.94,127.89a11.65,11.65,0,0,1,3.23,0,16,16,0,0,1,3.14.68,16.44,16.44,0,0,1,2.95,1.28,11.58,11.58,0,0,1,2.6,1.92c-1.06-.24-2.06-.54-3.05-.85l-2.95-.94-2.94-1C231.94,128.66,230.94,128.32,229.94,127.89Z"/><path class="cls-1" d="M186.46,142.07c-2.8.88-5.58-.68-7-1.07-2.52-.71-5.74-1.24-8.32-1.72-8.35-1.55-14.44-1.46-22.89-1.54a176.29,176.29,0,0,0-24.63,1.39c-4,.51-7.09,1.78-11.47,2.94-2.06.54-3.49-.09-4.7.08-4.4.63-9.9.76-13.81-.14a6.25,6.25,0,0,1-4.48-3.41,6,6,0,0,1-.12-3.71c1-3.69,4.36-6.15,7.51-8.3l15-10.25c13.27-9.07,29.91-11.09,45.93-9.71,8.76.75,16.92,4.3,24.54,8.51,5.48,3,11.54,5.09,16.58,8.9,5.41,4.08,10.93,13.3,1.37,15.9C192.83,141.89,188.54,141.41,186.46,142.07Z"/><path class="cls-1" d="M109.84,140.2s16.17-5.76,38.67-5.76,35.15,5.76,35.15,5.76"/><path class="cls-2" d="M105.12,138.16l3.35.32c1.11.09,2.23.19,3.35.35l-.48,1.24c-1-.52-1.88-1.06-2.85-1.53s-1.95-.93-2.94-1.37-2-.82-3-1.2l-3.11-1.16a19.76,19.76,0,0,1,3.34.31,22,22,0,0,1,3.27.81,24.19,24.19,0,0,1,3.13,1.28,25,25,0,0,1,2.91,1.72l0,0a.68.68,0,0,1,.17.94.71.71,0,0,1-.7.27c-1.08-.24-2.18-.49-3.27-.79A15.79,15.79,0,0,1,105.12,138.16Z"/><path class="cls-2" d="M120,137.48a13.79,13.79,0,0,1-4.63-1.48,16.79,16.79,0,0,1-4-2.88l0,0a.72.72,0,0,1,0-1,.73.73,0,0,1,.79-.15c1.08.45,2.13.95,3.18,1.48.52.28,1,.55,1.54.85a3.33,3.33,0,0,1,1.39,1.16,4.42,4.42,0,0,0-1.62-.57c-.58-.14-1.14-.3-1.71-.46-1.12-.34-2.23-.71-3.32-1.13l.76-1.19a38.57,38.57,0,0,0,3.63,2.85C117.28,135.82,118.62,136.62,120,137.48Z"/><path class="cls-2" d="M129.71,135.48a6.88,6.88,0,0,1-2.52,0,9.6,9.6,0,0,1-2.39-.74,9.36,9.36,0,0,1-2.13-1.32A7.09,7.09,0,0,1,121,131.5c.83.27,1.56.59,2.28.9l2.14,1,2.13,1C128.25,134.69,129,135,129.71,135.48Z"/><path class="cls-2" d="M175.26,137.87a4.23,4.23,0,0,1,.55-1.67,5.72,5.72,0,0,1,1-1.35,5.92,5.92,0,0,1,1.37-1,4.29,4.29,0,0,1,1.69-.52,8.18,8.18,0,0,1-1,1.42c-.34.41-.69.8-1.06,1.17s-.77.7-1.19,1A8.09,8.09,0,0,1,175.26,137.87Z"/><path class="cls-2" d="M176.46,138a15.78,15.78,0,0,1,2.17-1.41,22.5,22.5,0,0,1,2.31-1.14c.78-.36,1.59-.64,2.39-.93s1.63-.52,2.47-.71l.07,0a.67.67,0,0,1,.8.51.65.65,0,0,1-.2.64,14.14,14.14,0,0,1-2.22,1.64,11.51,11.51,0,0,1-2.49,1.16l1.93-1.88q.94-.93,1.83-1.89l.67,1.14c-.79.29-1.6.53-2.39.81l-2.4.77c-.8.25-1.62.48-2.44.71S177.32,137.84,176.46,138Z"/><path class="cls-2" d="M182.49,139.45a17.78,17.78,0,0,1,2.28-1.19c.76-.34,1.52-.66,2.29-.95s1.55-.56,2.34-.81a17.24,17.24,0,0,1,2.5-.61,8.55,8.55,0,0,1-2,1.66,12.44,12.44,0,0,1-2.31,1.15,14,14,0,0,1-2.48.67A8.75,8.75,0,0,1,182.49,139.45Z"/><path class="cls-2" d="M162.65,118.39a30,30,0,0,1,6.42,1.3c2.09.65,4.12,1.4,6.15,2.12a55,55,0,0,0,6.11,1.87,24.55,24.55,0,0,0,6.27.68l-.36.74a6.61,6.61,0,0,0-1.9-2c-.77-.56-1.61-1.07-2.42-1.63a28,28,0,0,1,2.72,1.15,6.73,6.73,0,0,1,2.4,1.93.46.46,0,0,1-.1.65.39.39,0,0,1-.2.08h-.06a20.08,20.08,0,0,1-6.65-.24,39.34,39.34,0,0,1-6.31-1.91C170.64,121.58,166.82,119.66,162.65,118.39Z"/><path class="cls-2" d="M175.48,125.54a62.38,62.38,0,0,1,9.07,1.21,38.88,38.88,0,0,1,4.46,1.14c.73.25,1.46.5,2.17.81.37.15.7.31,1.07.49a1.84,1.84,0,0,1,1,1.09v.05a.41.41,0,0,1-.29.5l-.1,0a16.71,16.71,0,0,1-3.6-.34c1.19-.16,2.36-.33,3.51-.54l-.37.57c-.12-.28-1-.49-1.68-.71s-1.43-.42-2.16-.6c-1.44-.39-2.9-.72-4.37-1.08A65.55,65.55,0,0,1,175.48,125.54Z"/><path class="cls-2" d="M108.06,124.23a17.66,17.66,0,0,0-2.83,1.57,16.53,16.53,0,0,0-2.42,2.07l-.33-.83a20.56,20.56,0,0,0,6.71-2c2.22-.92,4.43-1.87,6.64-2.82,4.42-1.91,8.81-3.87,13.28-5.76a89.45,89.45,0,0,1-12.69,7.07c-2.2,1-4.44,2-6.7,2.83a18.39,18.39,0,0,1-7.23,1.61h0a.48.48,0,0,1-.45-.49.47.47,0,0,1,.17-.34,13.47,13.47,0,0,1,2.79-1.84A13.11,13.11,0,0,1,108.06,124.23Z"/><path class="cls-1" d="M26.6,153.76q-.26-4.53-.11-9.06a4.94,4.94,0,0,1,.5-2.44,5.26,5.26,0,0,1,2.58-1.83"/><path class="cls-1" d="M273.12,153.76c.18-3,.21-6,.12-9.06a5.06,5.06,0,0,0-.51-2.44c-.54-.92-4.77-3.26-5.75-3.68"/><line class="cls-1" x1="78.46" y1="120.92" x2="104.54" y2="120.92"/><line class="cls-1" x1="194.54" y1="120.92" x2="215.33" y2="120.92"/><line class="cls-1" x1="82.86" y1="125.54" x2="98.12" y2="125.54"/><line class="cls-1" x1="200.37" y1="125.54" x2="210.38" y2="125.54"/><path class="cls-1" d="M92.63,120.92l1.16-8.3a21.78,21.78,0,0,0,.07-5.53l-3.37-29s1.69,2.88,6-.2l3.36,29.21a21.78,21.78,0,0,1-.06,5.53l-1.16,8.3"/><line class="cls-1" x1="95.94" y1="77.88" x2="95.57" y2="73.68"/><line class="cls-1" x1="86.32" y1="50.29" x2="87.47" y2="77.88"/><line class="cls-1" x1="24.18" y1="51.98" x2="28" y2="79.57"/><path class="cls-1" d="M103.81,120.92V92.28a.51.51,0,0,1,.51-.51h11.12a.5.5,0,0,1,.5.51v21.39"/><polyline class="cls-1" points="115.94 92.28 120.99 92.28 122.35 105.45 115.94 105.45"/><path class="cls-1" d="M118.47,64.08l4,42.62a1.61,1.61,0,0,0,2.67-.37L121,62.82"/><polyline class="cls-1" points="125.35 103.98 129.11 103.98 129.11 93.42 124.25 93.42"/><polyline class="cls-1" points="29.57 169.57 26.09 172.36 26.09 176.77 48.53 176.77"/><line class="cls-1" x1="49.1" y1="173.17" x2="26.09" y2="173.17"/><rect class="cls-1" x="37.59" y="176.77" width="3.18" height="3.18"/><polyline class="cls-1" points="267.05 169.57 270.53 172.36 270.53 176.77 248.09 176.77"/><line class="cls-1" x1="247.52" y1="173.17" x2="270.53" y2="173.17"/><rect class="cls-1" x="255.85" y="176.77" width="3.18" height="3.18" transform="translate(514.87 356.73) rotate(-180)"/><path class="cls-1" d="M100.72,17.56c-2.31-1.94-1.11-5,1.43-5.91a5.54,5.54,0,0,1,7,2.87l5.82,3"/><path class="cls-1" d="M102.56,17.56V14.71a2.49,2.49,0,0,1,3.31,0v2.85"/><path class="cls-1" d="M99.49,14.44V12c0-2.28,3.66-3.1,5.57-2.88,2.15.24,4.28,1.54,4.92,3.32l9.71,5.13"/><path class="cls-1" d="M100.79,9.64l.44-4.56A3.6,3.6,0,0,1,104.15,4a6.06,6.06,0,0,1,3.41.81l.52,5.4"/><path class="cls-1" d="M101.52,4.71,102,1.85s.4-1.11,2.32-1.11c2.77,0,2.51,1.35,2.51,1.35l.35,2.57"/><path class="cls-1" d="M196.8,120.93l-1.15-8.3a21.78,21.78,0,0,1-.07-5.53l3.37-29s-1.7,2.89-6-.2l-3.37,29.21a21.78,21.78,0,0,0,.07,5.53l1,6.75"/><line class="cls-1" x1="193.5" y1="77.89" x2="193.86" y2="73.7"/><path class="cls-1" d="M147.4,59.94a101.08,101.08,0,0,1,27.76,4.78,85.84,85.84,0,0,1,25.56,13,1.91,1.91,0,0,0,2.42-.09c3.13-2.8,10.63-9.38,17.05-14.67,7.5-6.18,17.5-2.35,19.65-.29s16.23,14.56,20.64,16.91,9.56,0,9.56,0l4.41-28.09s-5.59,1.76-8.38.88S251.36,40.61,244,34.87s-16.32-2.5-18.55-1.62c-1.91.76-16.68,13.14-21.17,16.65a1.89,1.89,0,0,1-2.33,0c-23.3-17.81-57.83-21.78-85.6-13.8C106.23,39,95.9,43.46,87.47,49.9a1.89,1.89,0,0,1-2.32,0C80.65,46.38,65.88,34,64,33.24c-2.22-.88-11.19-4.12-18.54,1.62S26.16,51.48,23.37,52.36,15,51.48,15,51.48L19.4,79.57s5.14,2.35,9.55,0S47.44,64.71,49.59,62.65s12.16-5.88,19.66.3c6.42,5.29,13.91,11.86,17,14.66a1.89,1.89,0,0,0,2.41.1C105.35,65.05,126.52,59.29,147.4,59.94Z"/><path class="cls-1" d="M274.45,51.49l-2.06-2.21s-4.56,1.33-6.32,0S245.48,32.63,244,31.55a20.1,20.1,0,0,0-21.84.48,221.47,221.47,0,0,0-17.81,13.68,1.35,1.35,0,0,1-1.62,0c-4.26-3.06-26.2-16.82-55.35-16.16H142C112.9,28.91,91,42.66,86.69,45.73a1.34,1.34,0,0,1-1.61,0A223.42,223.42,0,0,0,67.27,32a20.13,20.13,0,0,0-21.84-.49C44,32.62,25.13,48,23.37,49.27s-6.33,0-6.33,0L15,51.48"/><line class="cls-1" x1="203.12" y1="50.3" x2="201.96" y2="77.89"/><line class="cls-1" x1="265.25" y1="51.99" x2="261.43" y2="79.58"/><path class="cls-1" d="M185.63,116.49V92.29a.51.51,0,0,0-.51-.51H174a.51.51,0,0,0-.51.51V110.5"/><polyline class="cls-1" points="173.49 92.29 168.44 92.29 167.09 105.46 173.49 105.46"/><path class="cls-1" d="M171,64.1l-4,42.61a1.61,1.61,0,0,1-2.67-.37l4.14-43.51"/><polyline class="cls-1" points="164.08 103.99 160.33 103.99 160.33 93.44 165.19 93.44"/><line class="cls-1" x1="159.72" y1="95.33" x2="129.71" y2="95.32"/><line class="cls-1" x1="159.72" y1="101.23" x2="129.71" y2="101.22"/><line class="cls-1" x1="165.19" y1="87.96" x2="124.25" y2="87.95"/><path class="cls-1" d="M272.39,49.28l-4.29-27.7A4.27,4.27,0,0,0,263.88,18H25.56a4.28,4.28,0,0,0-4.23,3.62L17,49.27"/><path class="cls-1" d="M188.72,17.57c2.3-1.93,1.11-5-1.43-5.91a5.53,5.53,0,0,0-7,2.87l-5.82,3"/><path class="cls-1" d="M186.88,17.57V14.72a2.49,2.49,0,0,0-3.31,0v2.85"/><path class="cls-1" d="M190,14.45V12c0-2.29-3.66-3.11-5.57-2.89-2.16.24-4.28,1.54-4.93,3.33l-9.7,5.12"/><path class="cls-1" d="M188.64,9.65l-.44-4.56A3.6,3.6,0,0,0,185.28,4a6,6,0,0,0-3.4.81l-.52,5.4"/><path class="cls-1" d="M187.91,4.72l-.48-2.86S187,.75,185.11.75c-2.77,0-2.51,1.35-2.51,1.35l-.35,2.57"/><path class="cls-1" d="M199.23,286a4.7,4.7,0,0,1-5,0"/><path class="cls-1" d="M198.78,268.37a3.5,3.5,0,0,0,1.5-1.12l.07,10.31"/><path class="cls-1" d="M193.86,268.48a6.54,6.54,0,0,0,3,.3"/><path class="cls-1" d="M194.54,245.6h3.83v5.59h-3.83"/><path class="cls-1" d="M194.54,255.74h3.83a16.59,16.59,0,0,1,.38,6.48"/><polyline class="cls-1" points="198.94 258.39 201.75 258.39 201.75 260.45 198.94 260.45"/><rect class="cls-1" x="201.75" y="253.98" width="4.26" height="8.97" rx="1.43"/><line class="cls-1" x1="200.28" y1="266.78" x2="198.94" y2="262.22"/><line class="cls-1" x1="197.35" y1="255.74" x2="196.46" y2="251.19"/><path class="cls-1" d="M196.3,266.39c-1.37,0-2-1.11-2-2.48a2.49,2.49,0,1,1,3.89,2"/><path class="cls-1" d="M193.86,301.92s2.81-4.12,5.08-12.79-3-25.22-3-25.22a.61.61,0,0,1,.47-.71.55.55,0,0,1,.66.41s5.55,17.58,3.28,26.25a55.08,55.08,0,0,1-6.09,14.56"/><path class="cls-1" d="M94.84,203.83v4a.58.58,0,0,0,.58.58H102"/><polyline class="cls-1" points="96 208.39 96 210.01 101.99 210.01"/><polyline class="cls-1" points="96 210.01 96 271.04 94.84 271.04 94.84 279.72 97.63 280.75 101.99 280.75"/><polyline class="cls-1" points="94.84 271.04 97.78 271.77 97.78 280.75"/><polyline class="cls-1" points="96 271.04 98.79 271.85 98.79 280.82"/><rect class="cls-1" x="98.41" y="282.17" width="3.58" height="6.91"/><rect class="cls-1" x="94.58" y="282.92" width="2.1" height="5.36"/><rect class="cls-1" x="96.67" y="282.58" width="1.74" height="6.03"/><path class="cls-1" d="M94.55,283.44H80.87v3.87s13.37-.15,13.51,0"/><path class="cls-1" d="M80.87,283.44s-2.6.55-2.7-.86c-.08-1.09,0-3.89,0-3.89A2.73,2.73,0,0,0,76,277.9a4.47,4.47,0,0,0-2,.63l-.06,4.91s-.09,2.89,2.2,2.94c2.8.06,4.76.15,4.76.15"/><path class="cls-1" d="M74.24,278.38s-.48-1.8,2-1.8H90.13v1.8H78.22"/><rect class="cls-1" x="90.13" y="275.67" width="4.71" height="3.38"/><rect class="cls-1" x="72.58" y="274.42" width="6.57" height="1.03"/><line class="cls-1" x1="76.11" y1="275.67" x2="76.11" y2="276.58"/><line class="cls-1" x1="78.71" y1="275.67" x2="78.71" y2="276.58"/><path class="cls-1" d="M195.62,328.83h-94.9A1.68,1.68,0,0,1,99,327.16l.84-9.59a1.68,1.68,0,0,1,1.67-1.68h92.9a1.68,1.68,0,0,1,1.68,1.68l1.17,9.59A1.68,1.68,0,0,1,195.62,328.83Z"/><path class="cls-1" d="M99,327.81v5.72a1.92,1.92,0,0,0,1.92,1.92h94.52a1.91,1.91,0,0,0,1.91-1.92v-5.72"/><circle class="cls-1" cx="106.6" cy="310.6" r="2.06"/><circle class="cls-1" cx="188.65" cy="310.6" r="2.06"/><path class="cls-3" d="M260.48,123.15c-1.21-3.19-5.65-7.16-8.6-9.45a32.89,32.89,0,0,0-14.52-6c-11.16-2-21,8.74-26.74,16.69-3,4.23,12.61-.88,13.41,5.37,1,7.64,2.29,20.75.29,24.06-1.88,3.11-9,1.21-13.7,1.21-17.15,0-14.38-24.64-11.79-25.27,1.68-.4,4.79.13,4.15-1.47a28.93,28.93,0,0,0-3.29-4.06c-13.67-12.14-31.36-17.37-49.59-18.83h-6.73c-18.23,1.46-35.91,6.69-49.59,18.83a28.93,28.93,0,0,0-3.29,4.06c-.64,1.6,2.48,1.07,4.15,1.47,2.59.63,5.36,25.27-11.78,25.27-4.67,0-11.83,1.9-13.71-1.21-2-3.31-.69-16.42.3-24.06.8-6.25,16.45-1.14,13.41-5.37-5.72-8-15.59-18.69-26.75-16.69a32.8,32.8,0,0,0-14.51,6c-3,2.29-7.4,6.26-8.6,9.45-1.12,3,8.82,2.5,10.46,5.19,1.42,2.32,1.93,5.64,2.85,8.28,1.26,3.62,1.52,7.73,2.36,10.56,1.12,3.74,2.39,9.15,3.36,11.23,1.71,3.65,6.33,3.48,9.94,3.51C74.09,162,77,201.77,77,210c0,4.25,3,5.68,11.67,5.68H206.26c8.62,0,11.67-1.43,11.67-5.68,0-8.24,1.45-48,13.57-48.09,3.61,0,8.23.14,9.95-3.51,1-2.08,2.24-7.49,3.35-11.23.84-2.83,1.11-6.94,2.37-10.56.91-2.64,1.42-6,2.84-8.28C251.65,125.65,261.59,126.11,260.48,123.15Z"/><path class="cls-1" d="M260.48,123.15c-1.21-3.19-5.65-7.16-8.6-9.45a32.89,32.89,0,0,0-14.52-6c-11.16-2-21,8.74-26.74,16.69-3,4.23,12.61-.88,13.41,5.37,1,7.64,2.29,20.75.29,24.06-1.88,3.11-9.22,2.68-13.94,1.87-16.89-2.92-14.14-25.3-11.55-25.93,1.68-.4,4.79.13,4.15-1.47a28.93,28.93,0,0,0-3.29-4.06c-13.67-12.14-31.36-17.37-49.59-18.83h-6.73c-18.23,1.46-35.91,6.69-49.59,18.83a28.93,28.93,0,0,0-3.29,4.06c-.64,1.6,2.48,1.07,4.15,1.47,2.59.63,5.36,25.27-11.78,25.27-4.67,0-11.83,1.9-13.71-1.21-2-3.31-.69-16.42.3-24.06.8-6.25,16.45-1.14,13.41-5.37-5.72-8-15.59-18.69-26.75-16.69a32.8,32.8,0,0,0-14.51,6c-3,2.29-7.4,6.26-8.6,9.45-1.12,3,8.82,2.5,10.46,5.19,1.42,2.32,1.93,5.64,2.85,8.28,1.26,3.62,1.52,7.73,2.36,10.56,1.12,3.74,2.39,9.15,3.36,11.23,1.71,3.65,6.33,3.48,9.94,3.51C74.09,162,77,201.77,77,210c0,4.25,3,5.68,11.67,5.68H206.26c8.62,0,11.67-1.43,11.67-5.68,0-8.24,1.45-48,13.57-48.09,3.61,0,8.23.14,9.95-3.51,1-2.08,2.24-7.49,3.35-11.23.84-2.83,1.11-6.94,2.37-10.56.91-2.64,1.42-6,2.84-8.28C251.65,125.65,261.59,126.11,260.48,123.15Z"/><path class="cls-2" d="M39,122a38.28,38.28,0,0,1,8.6-5.18,29.74,29.74,0,0,1,9.8-2.4,23.71,23.71,0,0,1,10,1.62,18.38,18.38,0,0,1,8,6,20.06,20.06,0,0,0-8.18-5.48,24,24,0,0,0-9.71-1.41,30.85,30.85,0,0,0-9.63,2.19A47.58,47.58,0,0,0,39,122Z"/><path class="cls-2" d="M97.4,127.89a80,80,0,0,1,23.21-13c1-.4,2.09-.77,3.16-1.08s2.13-.67,3.21-1c2.17-.51,4.32-1.11,6.53-1.44a77.32,77.32,0,0,1,13.32-1.26,79.26,79.26,0,0,1,13.32,1.26c2.21.32,4.36.93,6.54,1.42s4.3,1.2,6.38,2a82.37,82.37,0,0,1,23.39,12.67,77.07,77.07,0,0,0-11.34-7,85.38,85.38,0,0,0-12.24-5.18c-2.08-.77-4.23-1.3-6.35-1.93-2.17-.48-4.3-1.07-6.5-1.38a80,80,0,0,0-13.2-1.18,76.85,76.85,0,0,0-13.2,1.18c-2.19.32-4.33.91-6.48,1.4-1.07.29-2.13.63-3.19.94s-2.12.65-3.16,1a82.11,82.11,0,0,0-12.17,5.31A73.46,73.46,0,0,0,97.4,127.89Z"/><path class="cls-1" d="M76.3,155.68a55.63,55.63,0,0,1-15.41-.29"/><path class="cls-1" d="M212.09,156a63.58,63.58,0,0,0,16.47-.61"/><path class="cls-2" d="M107.05,130.83a45.45,45.45,0,0,0,2,8.19,35.84,35.84,0,0,0,3.66,7.52,27,27,0,0,0,5.53,6.19c2.15,1.71,4.61,3.31,7.36,3.41l-.18.45a39,39,0,0,1-5.76-7.59,48.68,48.68,0,0,0,6.12,7.22.25.25,0,0,1,0,.36.23.23,0,0,1-.18.08h0a9.13,9.13,0,0,1-4.2-1,20.88,20.88,0,0,1-3.59-2.34,24.65,24.65,0,0,1-5.68-6.37,31.29,31.29,0,0,1-3.53-7.74A36.45,36.45,0,0,1,107.05,130.83Z"/><path class="cls-2" d="M134.18,119.57a24.29,24.29,0,0,1,0-3.91,27,27,0,0,1,.6-3.88.31.31,0,0,1,.37-.23.31.31,0,0,1,.23.2h0c.53,1.46,1,2.93,1.48,4.42s.82,3,1.16,4.52a44.45,44.45,0,0,1,.79,4.59,36.17,36.17,0,0,1,.29,4.65c-.19-1.54-.46-3.06-.73-4.58s-.64-3-1-4.52-.79-3-1.21-4.46-.89-2.95-1.38-4.41l.6,0a28.08,28.08,0,0,0-.81,3.77A37.91,37.91,0,0,0,134.18,119.57Z"/><path class="cls-2" d="M156.11,122.66c-.25-1.82-.38-3.65-.51-5.47s-.16-3.66-.2-5.49h0a.35.35,0,0,1,.34-.35.37.37,0,0,1,.28.13c.69.83,1.36,1.69,2,2.55s1.31,1.73,1.93,2.63c-.79-.76-1.55-1.53-2.29-2.33s-1.48-1.58-2.19-2.4l.61-.24c.09,1.83.15,3.66.15,5.48S156.23,120.82,156.11,122.66Z"/><path class="cls-2" d="M104,141.14a15.19,15.19,0,0,1,1.32,3.73,17.33,17.33,0,0,1-.13,7.89,15,15,0,0,1-1.44,3.68,30.09,30.09,0,0,0,.88-3.79,26.21,26.21,0,0,0,.34-3.84,27.61,27.61,0,0,0-.21-3.85A34.4,34.4,0,0,0,104,141.14Z"/><path class="cls-2" d="M177.05,143.06a39.8,39.8,0,0,0-3.57,7l-.23-.39a4.18,4.18,0,0,0,2.59-.82,11.65,11.65,0,0,0,2.12-2,56.84,56.84,0,0,0,3.7-4.63,58,58,0,0,0,3.16-5c1-1.73,1.84-3.52,2.64-5.34a38.58,38.58,0,0,1-2.22,5.56,39,39,0,0,1-3,5.19,41.28,41.28,0,0,1-3.72,4.72,12.36,12.36,0,0,1-2.28,2,4.43,4.43,0,0,1-3,.84h0a.27.27,0,0,1-.24-.31.24.24,0,0,1,0-.08A29.47,29.47,0,0,1,177.05,143.06Z"/><path class="cls-2" d="M47.9,121.11c.13-1.62.36-3.22.63-4.8a.33.33,0,0,1,.59-.14h0a21.05,21.05,0,0,1,2.49,4.44,18.62,18.62,0,0,1,1.28,4.91A49.88,49.88,0,0,0,51,120.9a39,39,0,0,0-2.41-4.34l.59-.12C48.81,118,48.4,119.57,47.9,121.11Z"/><path class="cls-2" d="M62.64,124.64a23.85,23.85,0,0,1,.27-8.67v0a.33.33,0,0,1,.4-.26.36.36,0,0,1,.26.23,47.52,47.52,0,0,1,1.25,4.76,47,47,0,0,1-1.9-4.52l.66-.06C63.13,118.92,62.88,121.75,62.64,124.64Z"/><path class="cls-2" d="M253.29,122a48,48,0,0,0-8.82-4.65,30.85,30.85,0,0,0-9.63-2.19,24,24,0,0,0-9.71,1.41A20.12,20.12,0,0,0,217,122a18.35,18.35,0,0,1,8-6,23.65,23.65,0,0,1,10-1.62,29.74,29.74,0,0,1,9.79,2.4A38.34,38.34,0,0,1,253.29,122Z"/><path class="cls-2" d="M244.35,121.11c-.5-1.54-.92-3.1-1.29-4.67l.6.12a37.54,37.54,0,0,0-2.42,4.34,49.88,49.88,0,0,0-1.9,4.63,18.26,18.26,0,0,1,1.29-4.91,20.62,20.62,0,0,1,2.49-4.44h0a.31.31,0,0,1,.45-.07.32.32,0,0,1,.13.21C244,117.89,244.21,119.49,244.35,121.11Z"/><path class="cls-2" d="M229.6,124.64c-.24-2.89-.49-5.72-.95-8.55l.67.06c-.57,1.53-1.19,3-1.91,4.52a47.56,47.56,0,0,1,1.26-4.76.33.33,0,0,1,.42-.22.35.35,0,0,1,.24.25v0A23.63,23.63,0,0,1,229.6,124.64Z"/><line class="cls-4" x1="63.97" y1="162.34" x2="157.23" y2="162.34"/><path class="cls-4" d="M196.46,162h33.17"/></g></g></svg>