<svg xmlns="http://www.w3.org/2000/svg" viewBox="0 0 57.44 119.81"><defs><style>.cls-1{fill:#003459;}</style></defs><g id="Layer_2" data-name="Layer 2"><g id="Design"><path class="cls-1" d="M5.25,115.2c-1.14.35-2.28.67-3.43,1l-.41-1.41c1.13-.29,2.25-.6,3.36-1Zm6.67-2.42c-1.09.46-2.19.89-3.31,1.29l-.55-1.37q1.63-.6,3.24-1.26Zm6.4-3c-1,.55-2.1,1.08-3.16,1.58L14.47,110c1-.5,2.08-1,3.1-1.55ZM40.6,1.39l-1.2.92C39,1.85,38.62,1.4,38.21,1L39.38,0C39.79.46,40.2.92,40.6,1.39ZM24.39,106.2c-1,.64-2,1.25-3,1.85l-.81-1.25c1-.58,2-1.19,2.93-1.81ZM44.82,6.89l-1.29.8c-.64-.93-1.3-1.84-2-2.74l1.24-.86C43.48,5,44.16,5.94,44.82,6.89ZM30.08,102.11c-.92.72-1.85,1.42-2.8,2.1L26.35,103c.93-.66,1.85-1.35,2.75-2.06ZM48.46,12.76l-1.36.68q-.81-1.47-1.71-2.91l1.32-.74C47.32,10.76,47.9,11.76,48.46,12.76ZM35.36,97.54q-1.26,1.2-2.58,2.34l-1-1.08c.86-.75,1.71-1.52,2.53-2.3ZM51.5,18.93l-1.42.56c-.45-1-.92-2-1.42-3.06l1.4-.62Q50.81,17.36,51.5,18.93ZM40.18,92.54c-.76.87-1.54,1.72-2.35,2.55l-1.14-1c.79-.82,1.56-1.65,2.31-2.51Zm13.75-67.2-1.47.43c-.35-1.06-.72-2.12-1.11-3.17l1.44-.49C53.2,23.18,53.58,24.26,53.93,25.34ZM44.5,87.13c-.67.93-1.37,1.85-2.09,2.75L41.18,89c.71-.88,1.39-1.78,2-2.69Zm11.23-55.2-1.5.3c-.25-1.09-.52-2.17-.81-3.25l1.49-.36C55.21,29.71,55.48,30.82,55.73,31.93ZM48.27,81.36c-.58,1-1.18,2-1.81,2.93l-1.31-.78c.62-.94,1.21-1.9,1.78-2.87ZM56.9,38.64l-1.53.17c-.13-1.1-.3-2.2-.49-3.3l1.52-.24C56.59,36.39,56.76,37.52,56.9,38.64ZM51.45,75.27c-.48,1-1,2.07-1.51,3.08l-1.38-.65c.52-1,1-2,1.48-3Zm6-29.84-1.53,0c0-1.11-.09-2.23-.18-3.34l1.54-.1C57.33,43.16,57.39,44.3,57.42,45.43ZM54,68.91c-.36,1.08-.75,2.15-1.18,3.21l-1.44-.52c.42-1,.8-2.08,1.16-3.14Zm3.32-16.68-1.54-.1q.12-1.66.15-3.33l1.54,0Q57.41,50.54,57.29,52.23ZM55.82,62.34c-.25,1.11-.53,2.21-.84,3.31l-1.48-.38q.45-1.62.81-3.24Zm.78-4.1-.12.76L55,58.75l.12-.74c.14-.85.26-1.7.36-2.56l1.53.17C56.86,56.5,56.74,57.37,56.6,58.24Z"/><polygon class="cls-1" points="8.27 119.81 8.96 118.5 2.17 115.25 6.04 109.05 4.71 108.3 0 115.86 8.27 119.81"/></g></g></svg>