<svg xmlns="http://www.w3.org/2000/svg" viewBox="0 0 348.59 122.14"><defs><style>.cls-1{fill:#fff;}.cls-2{fill:#39b6ed;}.cls-3{fill:#003459;}</style></defs><g id="Layer_2" data-name="Layer 2"><g id="Design"><path class="cls-1" d="M23,114.62c-2,2-3.69,3.85-5.07,5.44l-.9-.72c1.4-1.61,3.14-3.48,5.12-5.5Zm22-20.35c-3.71,3.17-7.56,6.59-11.23,10l-.81-.81c3.68-3.39,7.55-6.82,11.26-10ZM62.82,80.51a63.22,63.22,0,0,0-6.12,4.26L56,83.88a67.24,67.24,0,0,1,6.25-4.34Zm5.76-4a67.59,67.59,0,0,0-5.7,4l-.73-.88q2.82-2.17,5.8-4ZM94.47,66.24a90.29,90.29,0,0,0-13.42,4l-.44-1a92.71,92.71,0,0,1,13.6-4.09Zm28-3.16c-4.83.14-9.53.43-14.1.92l-.13-1.12c4.6-.5,9.34-.79,14.2-.93Zm28.28.55c-4.81-.26-9.53-.46-14.15-.56l0-1.13c4.64.11,9.37.31,14.18.56ZM179,65.51l-14.14-1,.08-1.12c4.65.31,9.37.66,14.14,1Zm28.3,1.7q-7.16-.31-14.16-.76l.08-1.12c4.66.29,9.38.55,14.14.75Zm28.38.42c-4.76.09-9.5.09-14.19,0l0-1.13q7,.12,14.15,0ZM257,66.57q-3.54.3-7.08.51L249.83,66q3.51-.21,7-.51Zm7-.78c-2.28.31-4.62.57-7,.78l-.1-1.13c2.39-.2,4.72-.46,7-.76Zm27.23-7.13a100.88,100.88,0,0,1-13.38,4.43l-.3-1.08a99.91,99.91,0,0,0,13.22-4.39Zm23.69-14.75a76,76,0,0,1-11.18,8.39l-.63-.95a74.8,74.8,0,0,0,11-8.26Zm16-22.32a58.52,58.52,0,0,1-6.76,12l-1-.64a57.61,57.61,0,0,0,6.64-11.78ZM333.8,1.4a22.73,22.73,0,0,1,.48,6.9l-1.17-.08a21.68,21.68,0,0,0-.45-6.56ZM62.52,80l.36.44,0,0,0,0ZM256.93,66l-.05-.57Z"/><path class="cls-2" d="M35.67,120.9l-1.1,1.24-1.35-1.08c.37-.43.75-.85,1.14-1.28Zm4.73-4.69c-.84.77-1.64,1.53-2.42,2.3l-1.26-1.18c.79-.78,1.62-1.57,2.47-2.35Zm5.08-4.4c-.87.72-1.73,1.44-2.57,2.17l-1.18-1.26q1.27-1.11,2.61-2.19Zm5.3-4.16c-.9.68-1.79,1.36-2.68,2.06L47,108.4c.9-.71,1.8-1.4,2.7-2.08Zm5.45-4c-.91.64-1.82,1.3-2.74,2l-1.06-1.35c.92-.67,1.85-1.34,2.76-2Zm5.59-3.82c-.92.61-1.86,1.24-2.81,1.89l-1-1.38,2.83-1.9Zm5.69-3.66L64.65,98l-1-1.41,2.89-1.82Zm4.34-2.61-1.45.85L69.48,93,71,92.13Zm1.49-1.11c-.47.34-.93.69-1.39,1l-1.1-1.32c.47-.36.94-.72,1.42-1.07Zm5.76-3.81c-1,.59-2,1.2-2.94,1.84l-1-1.4c1-.65,2-1.28,3-1.88Zm6.14-3.24c-1,.5-2.09,1-3.11,1.55l-.85-1.48c1-.56,2.11-1.08,3.19-1.59Zm6.43-2.67c-1.1.4-2.18.82-3.25,1.27l-.69-1.56c1.09-.45,2.19-.88,3.31-1.29Zm6.65-2.14c-1.13.32-2.24.65-3.35,1L94.42,80c1.12-.36,2.26-.7,3.41-1ZM105.13,79c-1.15.24-2.29.49-3.42.77l-.43-1.64c1.15-.28,2.31-.54,3.49-.78Zm6.92-1.21c-1.17.17-2.32.36-3.47.56l-.31-1.67c1.16-.2,2.33-.39,3.52-.56Zm7-.83c-1.18.11-2.34.24-3.5.37l-.22-1.68c1.18-.14,2.36-.26,3.55-.38Zm7-.52c-1.18.06-2.36.14-3.52.22L122.41,75c1.18-.09,2.37-.17,3.56-.23Zm7.05-.26c-1.19,0-2.36.06-3.53.1l-.07-1.69c1.18,0,2.37-.08,3.56-.1Zm7.06-.05h-3.53V74.41h3.55Zm7.06.12-3.52-.08,0-1.69,3.54.08Zm7.08.26-3.54-.14.07-1.69,3.55.14Zm7.07.36-3.55-.19.1-1.69,3.55.19Zm7.06.43-3.54-.22.11-1.69,3.55.22Zm7.07.47L172,77.5l.12-1.69,3.54.25Zm7.06.5L179,78l.13-1.69,3.54.25Zm7.07.5-3.54-.25.13-1.68,3.54.24Zm7.07.49L193.19,79l.12-1.69,3.53.24Zm7.08.44-3.54-.22.12-1.68,3.53.21Zm7.08.4-3.54-.19.1-1.69,3.54.19Zm7.09.32-3.54-.15.08-1.69,3.53.15Zm7.1.24-3.55-.1.06-1.7,3.54.11Zm7.1.15-3.55-.06,0-1.69,3.53,0Zm7.1,0h-3.55v-1.7c1.17,0,2.35,0,3.53,0Zm7.1-.1c-1.18,0-2.37.05-3.55.06l0-1.69,3.53-.06Zm7.1-.24-3.54.14-.07-1.69,3.53-.14Zm7.1-.39c-1.18.08-2.37.15-3.55.21l-.1-1.69c1.18-.06,2.35-.13,3.53-.21Zm5.32-.4-1.78.14L264,78.14l1.77-.15Zm1.77-.17-1.77.17L265.74,78l1.74-.16Zm7-.93c-1.15.19-2.32.37-3.5.53l-.24-1.68c1.16-.16,2.3-.33,3.43-.52Zm6.88-1.4c-1.13.27-2.28.52-3.44.76l-.36-1.66c1.14-.23,2.26-.48,3.37-.75Zm6.75-1.89c-1.1.35-2.22.68-3.35,1l-.49-1.62c1.11-.31,2.21-.64,3.29-1Zm6.61-2.39c-1.08.44-2.17.86-3.28,1.26L291,72.57c1.09-.39,2.16-.8,3.22-1.23ZM301.26,70c-1,.52-2.09,1-3.17,1.5L297.35,70c1-.48,2.08-1,3.1-1.47Zm6.13-3.35c-1,.59-2,1.17-3,1.73l-.87-1.47c1-.55,2-1.11,3-1.69Zm5.83-3.8c-.94.66-1.9,1.32-2.88,2l-1-1.4c1-.63,1.9-1.27,2.83-1.93Zm5.5-4.24c-.88.73-1.78,1.46-2.7,2.17l-1.1-1.32c.9-.7,1.79-1.41,2.65-2.13ZM323.86,54c-.82.8-1.66,1.58-2.52,2.36l-1.2-1.23c.85-.77,1.67-1.54,2.47-2.32Zm4.77-5c-.75.85-1.53,1.7-2.33,2.54L325,50.41c.79-.83,1.55-1.66,2.29-2.5ZM333,43.68c-.68.9-1.39,1.81-2.13,2.7l-1.38-1.05c.72-.88,1.42-1.76,2.09-2.65Zm3.93-5.62c-.61.95-1.25,1.9-1.91,2.85L333.55,40c.65-.93,1.28-1.86,1.88-2.79Zm3.5-5.89c-.54,1-1.1,2-1.69,3l-1.53-.84c.58-1,1.13-2,1.66-2.92Zm3-6.14c-.45,1-.93,2.06-1.44,3.1l-1.59-.73c.51-1,1-2,1.42-3Zm2.47-6.36c-.35,1-.74,2.12-1.16,3.21l-1.65-.6c.42-1.06.79-2.1,1.14-3.13Zm1.81-6.6c-.22,1.07-.49,2.19-.81,3.33l-1.7-.44c.31-1.11.57-2.19.79-3.23Zm.89-6.8c0,1.08-.14,2.22-.3,3.43l-1.74-.22c.15-1.16.25-2.25.28-3.27Zm-.45-5.22a14.74,14.74,0,0,1,.32,1.75l-1.75.2a13.22,13.22,0,0,0-.28-1.56ZM71.4,92.85l.55.66,0,0-.05,0Zm194.41-14-.07-.84Z"/><path class="cls-2" d="M2.41,119.32a15.31,15.31,0,0,0-.79,1.56L0,120.22a17.31,17.31,0,0,1,.87-1.71Zm4.1-6c-.78,1-1.5,2-2.16,3l-1.46-.94c.67-1,1.41-2,2.2-3Zm4.62-5.73c-.8.94-1.58,1.89-2.35,2.84l-1.39-1c.78-1,1.57-1.92,2.37-2.87ZM16,102c-.78.87-1.61,1.8-2.45,2.77l-1.34-1.09c.84-1,1.67-1.91,2.47-2.79Zm3.76-4.07c-.39.41-.81.85-1.26,1.34l-1.31-1.13,1.28-1.36Zm1.13-1.27c-.38.42-.75.83-1.1,1.24l-1.35-1.08c.36-.43.74-.85,1.13-1.28ZM25.6,92c-.84.77-1.65,1.54-2.42,2.31L21.92,93.1c.79-.78,1.61-1.57,2.47-2.35Zm5.08-4.39q-1.32,1.08-2.58,2.16l-1.17-1.26q1.28-1.1,2.61-2.19ZM36,83.42c-.89.67-1.79,1.36-2.67,2l-1.11-1.31q1.34-1.05,2.7-2.07Zm5.46-4c-.91.64-1.83,1.3-2.75,2l-1.06-1.35c.93-.68,1.85-1.34,2.77-2ZM47,75.62l-2.8,1.89-1-1.38c1-.66,1.9-1.29,2.83-1.9ZM52.71,72c-.91.56-1.86,1.17-2.86,1.81l-1-1.41c1-.65,2-1.26,2.89-1.82Zm4.34-2.62-1.45.86-.93-1.44,1.47-.87Zm1.48-1.1c-.46.34-.92.68-1.38,1L56.05,68c.47-.36.94-.72,1.42-1.07Zm5.77-3.81c-1,.59-2,1.2-2.94,1.84l-1-1.4c1-.65,2-1.28,3-1.88Zm6.13-3.24c-1,.49-2.08,1-3.1,1.55l-.85-1.49c1-.55,2.11-1.08,3.18-1.58Zm6.43-2.67q-1.64.6-3.24,1.26l-.7-1.55c1.1-.45,2.2-.89,3.32-1.29Zm6.66-2.14c-1.13.32-2.25.65-3.35,1l-.56-1.6q1.69-.54,3.42-1Zm6.81-1.64c-1.15.24-2.29.49-3.43.76l-.42-1.64c1.15-.27,2.31-.53,3.48-.77Zm6.91-1.21c-1.16.17-2.31.36-3.46.55l-.31-1.66c1.16-.2,2.33-.39,3.51-.56Zm7-.83c-1.18.11-2.35.23-3.5.37l-.22-1.68c1.17-.14,2.35-.26,3.54-.38Zm7-.52c-1.18.06-2.36.13-3.53.22l-.13-1.69c1.18-.08,2.37-.16,3.56-.22Zm7-.26c-1.18,0-2.36,0-3.52.1l-.07-1.69c1.18,0,2.36-.08,3.56-.11Zm7.06-.05h-3.52V50.18h3.54Zm7.07.12-3.52-.08,0-1.69,3.54.08Zm7.07.26L136,52.11l.06-1.7,3.55.15Zm7.07.36L143,52.42l.09-1.69,3.56.19Zm7.07.43-3.54-.23.11-1.69,3.55.23Zm7.06.47-3.54-.24.13-1.69,3.54.24Zm7.07.5-3.54-.25.13-1.69,3.54.25Zm7.07.5-3.54-.25.13-1.69,3.53.25Zm7.07.48c-1.18-.08-2.36-.15-3.54-.24l.13-1.68,3.53.23Zm7.08.45-3.54-.22.11-1.69,3.53.22Zm7.08.39-3.54-.19.1-1.68,3.53.18Zm7.09.33L199.63,56l.08-1.69,3.53.15Zm7.09.24-3.54-.11.06-1.69,3.53.11Zm7.1.14-3.54,0,0-1.7,3.53.06Zm7.11,0h-3.55V54.88h3.54Zm7.1-.1-3.55.07,0-1.69,3.54-.07Zm7.1-.23-3.55.13-.06-1.69,3.53-.13Zm7.1-.39-3.55.21-.1-1.69,3.53-.21Zm5.32-.41-1.78.15-.14-1.69,1.76-.14Zm1.81-.16-1.81.16-.16-1.68,1.8-.16Zm7.1-.82q-1.75.24-3.57.45l-.21-1.68c1.2-.14,2.38-.28,3.53-.44Zm7-1.14c-1.15.22-2.31.42-3.51.61l-.29-1.66c1.18-.19,2.33-.4,3.46-.61Zm7-1.52q-1.69.42-3.48.81L270.17,51c1.17-.25,2.31-.52,3.43-.8Zm6.86-1.94c-1.11.36-2.25.7-3.41,1l-.5-1.62c1.15-.33,2.27-.66,3.36-1Zm6.74-2.44c-1.08.44-2.19.87-3.34,1.29l-.62-1.59q1.68-.61,3.27-1.26Zm6.47-3c-1,.55-2.09,1.07-3.2,1.59l-.76-1.53c1.08-.5,2.12-1,3.12-1.54Zm6.12-3.65c-1,.65-2,1.29-3,1.91l-.93-1.44c1-.6,2-1.23,2.92-1.86Zm5.62-4.37c-.87.77-1.78,1.53-2.73,2.27L302,37.34c.93-.73,1.81-1.46,2.64-2.2Zm4.91-5.12c-.73.9-1.52,1.78-2.36,2.66l-1.29-1.15c.81-.85,1.57-1.7,2.27-2.56Zm4-5.81c-.56,1-1.19,2-1.87,3l-1.46-.93c.65-.95,1.25-1.91,1.79-2.86ZM317.64,19q-.56,1.62-1.29,3.27l-1.61-.68q.7-1.56,1.23-3.12Zm1.63-6.82c-.16,1.13-.37,2.28-.65,3.44l-1.71-.38c.26-1.11.47-2.21.61-3.28Zm.25-7a31.38,31.38,0,0,1,.05,3.51l-1.75-.06c0-1.15,0-2.27-.05-3.34ZM318.73,0c.13.56.26,1.13.37,1.72l-1.74.3c-.1-.56-.21-1.11-.34-1.63ZM19.1,97.37l.67.54h0l0,0ZM56.6,68.62l.55.66,0,0-.05,0ZM251,54.6l-.08-.84Z"/><path class="cls-1" d="M259.11,46.28V50H216.17V46.28a3.13,3.13,0,0,1,3.13-3.13H256A3.13,3.13,0,0,1,259.11,46.28Z"/><path class="cls-1" d="M256.06,50.75l-1,14.56a6.46,6.46,0,0,1-6.46,6.45H226.7a6.47,6.47,0,0,1-6.46-6.48l-1-14.53Zm-7.28,4a.86.86,0,0,0-.07-.85,1.25,1.25,0,0,0-1.08-.48,2,2,0,0,0-1.82,1.06l-1.72,4.28a.88.88,0,0,0,.08.85,1.24,1.24,0,0,0,1.08.48A2,2,0,0,0,247.07,59Zm0,8.14a.84.84,0,0,0-.07-.84,1.26,1.26,0,0,0-1.08-.49,2,2,0,0,0-1.82,1.06l-1.72,4.28a.88.88,0,0,0,.08.85,1.25,1.25,0,0,0,1.08.49,2,2,0,0,0,1.82-1.07Zm-5.86-8.14a.88.88,0,0,0-.08-.85,1.24,1.24,0,0,0-1.08-.48,2,2,0,0,0-1.82,1.06l-1.71,4.28a.86.86,0,0,0,.07.85,1.25,1.25,0,0,0,1.08.48A2,2,0,0,0,241.21,59Zm0,8.14a.86.86,0,0,0-.08-.84,1.25,1.25,0,0,0-1.08-.49,2,2,0,0,0-1.82,1.06l-1.71,4.28a.86.86,0,0,0,.07.85,1.26,1.26,0,0,0,1.08.49,2,2,0,0,0,1.83-1.07Zm-5.87-8.14a.86.86,0,0,0-.07-.85,1.25,1.25,0,0,0-1.08-.48,2,2,0,0,0-1.82,1.06l-1.72,4.28a.88.88,0,0,0,.08.85,1.24,1.24,0,0,0,1.08.48A2,2,0,0,0,235.34,59Zm0,8.14A.84.84,0,0,0,237,62a1.26,1.26,0,0,0-1.08-.49,2,2,0,0,0-1.82,1.06l-1.72,4.28a.88.88,0,0,0,.08.85,1.25,1.25,0,0,0,1.08.49,2,2,0,0,0,1.82-1.07Zm-5.86-8.14a.88.88,0,0,0-.08-.85,1.24,1.24,0,0,0-1.08-.48,2,2,0,0,0-1.82,1.06l-1.71,4.28a.88.88,0,0,0,.07.85,1.25,1.25,0,0,0,1.08.48A2,2,0,0,0,229.48,59Zm0,8.14a.86.86,0,0,0-.08-.84,1.25,1.25,0,0,0-1.08-.49,2,2,0,0,0-1.82,1.06l-1.71,4.28a.88.88,0,0,0,.07.85,1.26,1.26,0,0,0,1.08.49,2,2,0,0,0,1.83-1.07Z"/><path class="cls-1" d="M254.6,40.9a2.37,2.37,0,0,1-.27,1.52h-2.41c-1.16-1.82-4.66-2.26-8.7-2.75-1.05-.13-2.14-.27-3.23-.43A25,25,0,0,1,235.64,38a30.77,30.77,0,0,0,5.73-1.62c4.29-1.62,6.53-.93,7.65,0l.81.65a37.51,37.51,0,0,0,4,2.91A1.53,1.53,0,0,1,254.6,40.9Z"/><path class="cls-1" d="M251,42.42H219.69c.41-1.27,1.86-4.88,5.37-5.7,2.78-.64,6.13.53,9.37,1.67A31.41,31.41,0,0,0,239.88,40c1.1.17,2.19.31,3.25.43C246.49,40.81,249.69,41.2,251,42.42Z"/><path class="cls-1" d="M246.39,58.75a1.35,1.35,0,0,1-1.14.6.61.61,0,0,1-.48-.16.18.18,0,0,1,0-.17l1.71-4.28a1.36,1.36,0,0,1,1.15-.6.58.58,0,0,1,.47.16.15.15,0,0,1,0,.17Z"/><path class="cls-1" d="M246.39,66.89a1.35,1.35,0,0,1-1.14.6.61.61,0,0,1-.48-.16s0-.06,0-.17l1.71-4.28a1.35,1.35,0,0,1,1.15-.59c.27,0,.42.08.47.16s.05.06,0,.16Z"/><path class="cls-3" d="M245.25,59.35a1.35,1.35,0,0,0,1.14-.6l1.71-4.28a.15.15,0,0,0,0-.17.58.58,0,0,0-.47-.16,1.36,1.36,0,0,0-1.15.6L244.77,59a.18.18,0,0,0,0,.17A.61.61,0,0,0,245.25,59.35Zm1.82-.33a2,2,0,0,1-1.82,1.06,1.24,1.24,0,0,1-1.08-.48.88.88,0,0,1-.08-.85l1.72-4.28a2,2,0,0,1,1.82-1.06,1.25,1.25,0,0,1,1.08.48.86.86,0,0,1,.07.85Z"/><path class="cls-3" d="M245.25,67.49a1.35,1.35,0,0,0,1.14-.6l1.71-4.28c.05-.1,0-.15,0-.16s-.2-.16-.47-.16a1.35,1.35,0,0,0-1.15.59l-1.71,4.28c0,.11,0,.15,0,.17A.61.61,0,0,0,245.25,67.49Zm1.82-.33a2,2,0,0,1-1.82,1.07,1.25,1.25,0,0,1-1.08-.49.88.88,0,0,1-.08-.85l1.72-4.28a2,2,0,0,1,1.82-1.06,1.26,1.26,0,0,1,1.08.49.84.84,0,0,1,.07.84Z"/><path class="cls-1" d="M238.91,59l1.71-4.28a1.32,1.32,0,0,1,1.14-.6.61.61,0,0,1,.48.16.18.18,0,0,1,0,.17l-1.71,4.28a1.36,1.36,0,0,1-1.15.6.58.58,0,0,1-.47-.16A.18.18,0,0,1,238.91,59Z"/><path class="cls-1" d="M238.91,67.16l1.71-4.28a1.33,1.33,0,0,1,1.14-.59.57.57,0,0,1,.48.16s0,.06,0,.16l-1.71,4.28a1.36,1.36,0,0,1-1.15.6.58.58,0,0,1-.47-.16S238.87,67.27,238.91,67.16Z"/><path class="cls-3" d="M239.38,60.08a1.25,1.25,0,0,1-1.08-.48.86.86,0,0,1-.07-.85l1.71-4.28a2,2,0,0,1,1.82-1.06,1.24,1.24,0,0,1,1.08.48.88.88,0,0,1,.08.85L241.21,59A2,2,0,0,1,239.38,60.08Zm-.47-.89a.58.58,0,0,0,.47.16,1.36,1.36,0,0,0,1.15-.6l1.71-4.28a.18.18,0,0,0,0-.17.61.61,0,0,0-.48-.16,1.32,1.32,0,0,0-1.14.6L238.91,59A.18.18,0,0,0,238.91,59.19Z"/><path class="cls-3" d="M239.38,68.23a1.26,1.26,0,0,1-1.08-.49.86.86,0,0,1-.07-.85l1.71-4.28a2,2,0,0,1,1.82-1.06,1.25,1.25,0,0,1,1.08.49.86.86,0,0,1,.08.84l-1.71,4.28A2,2,0,0,1,239.38,68.23Zm-.47-.9a.58.58,0,0,0,.47.16,1.36,1.36,0,0,0,1.15-.6l1.71-4.28c0-.1,0-.15,0-.16a.57.57,0,0,0-.48-.16,1.33,1.33,0,0,0-1.14.59l-1.71,4.28C238.87,67.27,238.9,67.31,238.91,67.33Z"/><path class="cls-1" d="M234.75,54.74a1.36,1.36,0,0,1,1.15-.6.58.58,0,0,1,.47.16.17.17,0,0,1,0,.17l-1.72,4.28a1.32,1.32,0,0,1-1.14.6.63.63,0,0,1-.48-.16.18.18,0,0,1,0-.17Z"/><path class="cls-1" d="M234.75,62.88a1.35,1.35,0,0,1,1.15-.59c.27,0,.42.08.47.16s0,.06,0,.16l-1.72,4.28a1.32,1.32,0,0,1-1.14.6.63.63,0,0,1-.48-.16s0-.06,0-.17Z"/><path class="cls-3" d="M235.34,59a2,2,0,0,1-1.82,1.06,1.24,1.24,0,0,1-1.08-.48.88.88,0,0,1-.08-.85l1.72-4.28a2,2,0,0,1,1.82-1.06,1.25,1.25,0,0,1,1.08.48.86.86,0,0,1,.07.85Zm-2.3.17a.63.63,0,0,0,.48.16,1.32,1.32,0,0,0,1.14-.6l1.72-4.28a.17.17,0,0,0,0-.17.58.58,0,0,0-.47-.16,1.36,1.36,0,0,0-1.15.6L233,59A.18.18,0,0,0,233,59.19Z"/><path class="cls-3" d="M233.52,68.23a1.25,1.25,0,0,1-1.08-.49.88.88,0,0,1-.08-.85l1.72-4.28a2,2,0,0,1,1.82-1.06A1.26,1.26,0,0,1,237,62a.84.84,0,0,1,.07.84l-1.71,4.28A2,2,0,0,1,233.52,68.23Zm-.48-.9a.63.63,0,0,0,.48.16,1.32,1.32,0,0,0,1.14-.6l1.72-4.28c0-.1,0-.15,0-.16s-.2-.16-.47-.16a1.35,1.35,0,0,0-1.15.59L233,67.16C233,67.27,233,67.31,233,67.33Z"/><path class="cls-1" d="M230.51,54.47l-1.71,4.28a1.36,1.36,0,0,1-1.15.6.58.58,0,0,1-.47-.16.18.18,0,0,1,0-.17l1.71-4.28a1.34,1.34,0,0,1,1.14-.6.61.61,0,0,1,.48.16A.18.18,0,0,1,230.51,54.47Z"/><path class="cls-1" d="M230.51,62.61l-1.71,4.28a1.36,1.36,0,0,1-1.15.6.58.58,0,0,1-.47-.16s0-.06,0-.17l1.71-4.28a1.33,1.33,0,0,1,1.14-.59.57.57,0,0,1,.48.16S230.55,62.51,230.51,62.61Z"/><path class="cls-3" d="M230,54.14a1.34,1.34,0,0,0-1.14.6L227.18,59a.18.18,0,0,0,0,.17.58.58,0,0,0,.47.16,1.36,1.36,0,0,0,1.15-.6l1.71-4.28a.18.18,0,0,0,0-.17A.61.61,0,0,0,230,54.14Zm-3.46,5.46a.88.88,0,0,1-.07-.85l1.71-4.28A2,2,0,0,1,230,53.41a1.24,1.24,0,0,1,1.08.48.88.88,0,0,1,.08.85L229.48,59a2,2,0,0,1-1.83,1.06A1.25,1.25,0,0,1,226.57,59.6Z"/><path class="cls-3" d="M230,62.29a1.33,1.33,0,0,0-1.14.59l-1.71,4.28c0,.11,0,.15,0,.17a.58.58,0,0,0,.47.16,1.36,1.36,0,0,0,1.15-.6l1.71-4.28c0-.1,0-.15,0-.16A.57.57,0,0,0,230,62.29Zm-3.46,5.45a.88.88,0,0,1-.07-.85l1.71-4.28A2,2,0,0,1,230,61.55a1.25,1.25,0,0,1,1.08.49.86.86,0,0,1,.08.84l-1.71,4.28a2,2,0,0,1-1.83,1.07A1.26,1.26,0,0,1,226.57,67.74Z"/><path class="cls-3" d="M235.64,38A25,25,0,0,0,240,39.24c1.09.16,2.18.3,3.23.43,4,.49,7.54.93,8.7,2.75h2.41a2.37,2.37,0,0,0,.27-1.52,1.53,1.53,0,0,0-.79-1,37.51,37.51,0,0,1-4-2.91l-.81-.65c-1.12-.88-3.36-1.57-7.65,0A30.77,30.77,0,0,1,235.64,38ZM256,43.15H219.3a3.13,3.13,0,0,0-3.13,3.13V50h42.94V46.28A3.13,3.13,0,0,0,256,43.15Zm-36.29-.73H251c-1.29-1.22-4.49-1.61-7.85-2-1.06-.12-2.15-.26-3.25-.43a31.41,31.41,0,0,1-5.45-1.57c-3.24-1.14-6.59-2.31-9.37-1.67C221.55,37.54,220.1,41.15,219.69,42.42Zm.55,22.86a6.47,6.47,0,0,0,6.46,6.48h21.88A6.46,6.46,0,0,0,255,65.31l1-14.56H219.22Zm-4.8-19a3.86,3.86,0,0,1,3.47-3.84c.32-1.13,1.8-5.46,6-6.43,2.82-.66,6.06.39,9.23,1.5a.23.23,0,0,1,.14,0,26.15,26.15,0,0,0,6.84-1.74c4.61-1.75,7.09-.94,8.36.05l.82.66a35.32,35.32,0,0,0,3.9,2.85,2.27,2.27,0,0,1,1.13,1.45,3,3,0,0,1-.18,1.68H256a3.86,3.86,0,0,1,3.86,3.86v4.11a.36.36,0,0,1-.36.36h-2.69l-1,14.59a7.18,7.18,0,0,1-7.19,7.15H226.7a7.19,7.19,0,0,1-7.19-7.18l-1-14.56H215.8a.36.36,0,0,1-.36-.36Z"/></g></g></svg>