<svg xmlns="http://www.w3.org/2000/svg" xmlns:xlink="http://www.w3.org/1999/xlink" viewBox="0 0 348.59 124.62"><defs><style>.cls-1,.cls-2,.cls-21,.cls-23{fill:none;}.cls-1,.cls-3{clip-rule:evenodd;}.cls-14,.cls-17,.cls-3,.cls-4{fill:#fff;}.cls-5{clip-path:url(#clip-path);}.cls-6{clip-path:url(#clip-path-2);}.cls-12,.cls-7{fill:#39b6ed;}.cls-17,.cls-7{opacity:0.5;}.cls-8{clip-path:url(#clip-path-3);}.cls-9{clip-path:url(#clip-path-5);}.cls-10{clip-path:url(#clip-path-7);}.cls-11{fill:#757575;}.cls-13{opacity:0.5;}.cls-14{fill-rule:evenodd;}.cls-15{clip-path:url(#clip-path-9);}.cls-16{clip-path:url(#clip-path-10);}.cls-18{clip-path:url(#clip-path-11);}.cls-19{clip-path:url(#clip-path-13);}.cls-20{clip-path:url(#clip-path-15);}.cls-21,.cls-23{stroke:#003459;}.cls-21{stroke-linecap:round;stroke-linejoin:round;stroke-width:0.94px;}.cls-22{fill:#003459;}.cls-23{stroke-miterlimit:10;stroke-width:0.47px;}</style><clipPath id="clip-path" transform="translate(0 2.48)"><path class="cls-1" d="M176,29.87h0a.3.3,0,0,0-.39.18L175,32a.3.3,0,0,0,.18.39.31.31,0,0,0,.39-.19l.69-1.89A.3.3,0,0,0,176,29.87Z"/></clipPath><clipPath id="clip-path-2" transform="translate(0 2.48)"><rect class="cls-2" x="163.66" y="15.77" width="36.52" height="30.44"/></clipPath><clipPath id="clip-path-3" transform="translate(0 2.48)"><path class="cls-1" d="M174.44,29.87h0a.3.3,0,0,1,.39.18l.69,1.9a.3.3,0,0,1-.18.39.31.31,0,0,1-.39-.19l-.69-1.89A.3.3,0,0,1,174.44,29.87Z"/></clipPath><clipPath id="clip-path-5" transform="translate(0 2.48)"><path class="cls-1" d="M172.75,30h0a.6.6,0,0,1,.78.36l.59,1.62a.3.3,0,0,1-.18.39.31.31,0,0,1-.39-.19Z"/></clipPath><clipPath id="clip-path-7" transform="translate(0 2.48)"><path class="cls-1" d="M174.64,29.87h0a.3.3,0,0,0-.39.18l-.69,1.9a.3.3,0,0,0,.18.39.31.31,0,0,0,.39-.19l.69-1.89A.3.3,0,0,0,174.64,29.87Z"/></clipPath><clipPath id="clip-path-9" transform="translate(0 2.48)"><path class="cls-3" d="M156.73,21.67h0a.52.52,0,0,0-.67.31l-1.18,3.26a.52.52,0,0,0,.31.67.54.54,0,0,0,.67-.32L157,22.34A.52.52,0,0,0,156.73,21.67Z"/></clipPath><clipPath id="clip-path-10" transform="translate(0 2.48)"><rect class="cls-4" x="135.52" y="-2.48" width="62.59" height="52.16"/></clipPath><clipPath id="clip-path-11" transform="translate(0 2.48)"><path class="cls-3" d="M154,21.67h0a.52.52,0,0,1,.67.31l1.18,3.26a.52.52,0,0,1-.31.67.54.54,0,0,1-.67-.32l-1.18-3.25A.52.52,0,0,1,154,21.67Z"/></clipPath><clipPath id="clip-path-13" transform="translate(0 2.48)"><path class="cls-3" d="M151.1,21.85h0a1,1,0,0,1,1.33.62l1,2.77a.52.52,0,0,1-.31.67.54.54,0,0,1-.67-.32Z"/></clipPath><clipPath id="clip-path-15" transform="translate(0 2.48)"><path class="cls-3" d="M154.33,21.67h0a.52.52,0,0,0-.67.31l-1.18,3.26a.52.52,0,0,0,.31.67.54.54,0,0,0,.67-.32l1.18-3.25A.52.52,0,0,0,154.33,21.67Z"/></clipPath></defs><g id="Layer_2" data-name="Layer 2"><g id="Design"><g class="cls-5"><g class="cls-6"><rect class="cls-7" x="174.13" y="30.64" width="2.93" height="0.91" transform="translate(86.31 187.94) rotate(-70)"/></g></g><g class="cls-8"><g class="cls-6"><rect class="cls-7" x="174.43" y="29.63" width="0.91" height="2.93" transform="translate(-0.09 64.17) rotate(-20)"/></g></g><g class="cls-9"><g class="cls-6"><rect class="cls-7" x="173.03" y="29.63" width="0.91" height="2.93" transform="translate(-0.17 63.69) rotate(-20)"/></g></g><g class="cls-10"><g class="cls-6"><rect class="cls-7" x="172.72" y="30.64" width="2.93" height="0.91" transform="translate(85.39 186.63) rotate(-70)"/></g></g><path class="cls-11" d="M180.93,30.34l-.48,1.44h-.22l-.4-1.15-.39,1.15h-.22l-.49-1.44H179l.39,1.17.4-1.17h.2l.39,1.18.4-1.18Z" transform="translate(0 2.48)"/><path class="cls-11" d="M182.52,31.42h-.77l-.16.36h-.21l.65-1.44h.21l.65,1.44h-.21Zm-.07-.16-.32-.71-.31.71Z" transform="translate(0 2.48)"/><path class="cls-11" d="M183.45,31.62l.08-.16a.79.79,0,0,0,.48.16c.25,0,.36-.09.36-.22,0-.35-.88-.13-.88-.67,0-.22.17-.41.55-.41a.81.81,0,0,1,.47.13l-.07.16a.77.77,0,0,0-.4-.12c-.24,0-.35.11-.35.23,0,.36.88.14.88.67,0,.22-.18.41-.56.41A.87.87,0,0,1,183.45,31.62Z" transform="translate(0 2.48)"/><path class="cls-11" d="M186.6,30.34v1.44h-.2v-.64h-.84v.64h-.2V30.34h.2V31h.84v-.62Z" transform="translate(0 2.48)"/><path class="cls-11" d="M188.87,31.78V30.73l-.53.88h-.09l-.53-.88v1.05h-.2V30.34h.17l.61,1,.59-1h.17v1.44Z" transform="translate(0 2.48)"/><path class="cls-11" d="M190,30.34h.2v1.44H190Z" transform="translate(0 2.48)"/><path class="cls-11" d="M191.89,31.78l-.44-.59-.43.59h-.23l.54-.74-.51-.7h.23l.41.55.4-.55h.23l-.51.69.54.75Z" transform="translate(0 2.48)"/><path class="cls-11" d="M192.61,31.48a.16.16,0,0,0-.16.15.15.15,0,0,0,.16.15.15.15,0,0,0,.15-.15A.15.15,0,0,0,192.61,31.48Zm.08.24a.11.11,0,0,1-.08,0,.12.12,0,0,1-.09,0,.13.13,0,0,1,0-.09.12.12,0,0,1,0-.08.1.1,0,0,1,.09,0,.09.09,0,0,1,.08,0,.12.12,0,0,1,0,.08A.13.13,0,0,1,192.69,31.72Z" transform="translate(0 2.48)"/><circle class="cls-2" cx="192.61" cy="34.11" r="0.15"/><circle class="cls-2" cx="192.61" cy="34.11" r="0.15"/><path class="cls-11" d="M192.59,31.64v.05h0v-.13h.08a0,0,0,0,1,0,0v0l0,0,0,.05h0l0-.05Zm0,0h0v0h0Z" transform="translate(0 2.48)"/><path class="cls-11" d="M177.44,29.76a3.15,3.15,0,0,0-2.91-1.93,3.11,3.11,0,0,0-1.23.25A3.14,3.14,0,0,0,171.36,31a3.11,3.11,0,0,0,.25,1.23,3.16,3.16,0,1,0,5.83-2.46ZM177,32a2.73,2.73,0,0,1-1,1.17,2.4,2.4,0,0,1-.7.34,2.66,2.66,0,0,1-3-1.06,2.52,2.52,0,0,1-.34-.7,2.63,2.63,0,0,1-.12-.8,2.58,2.58,0,0,1,.21-1,2.66,2.66,0,0,1,1-1.18,2.84,2.84,0,0,1,.7-.34,3,3,0,0,1,.8-.12,2.66,2.66,0,0,1,2.22,1.19,2.37,2.37,0,0,1,.33.7,2.56,2.56,0,0,1,.13.79A2.85,2.85,0,0,1,177,32Z" transform="translate(0 2.48)"/><polygon class="cls-12" points="152.5 44.53 135.28 6.34 154.22 6.34 172.89 44.53 152.5 44.53"/><g class="cls-13"><path class="cls-14" d="M156.73,21.67h0a.52.52,0,0,0-.67.31l-1.18,3.26a.52.52,0,0,0,.31.67.54.54,0,0,0,.67-.32L157,22.34A.52.52,0,0,0,156.73,21.67Z" transform="translate(0 2.48)"/><g class="cls-15"><rect class="cls-4" x="135.52" width="62.59" height="52.16"/><g class="cls-16"><rect class="cls-17" x="153.45" y="23.01" width="5.03" height="1.56" transform="translate(80.27 164.69) rotate(-70)"/></g></g></g><g class="cls-13"><path class="cls-14" d="M154,21.67h0a.52.52,0,0,1,.67.31l1.18,3.26a.52.52,0,0,1-.31.67.54.54,0,0,1-.67-.32l-1.18-3.25A.52.52,0,0,1,154,21.67Z" transform="translate(0 2.48)"/><g class="cls-18"><rect class="cls-4" x="135.52" width="62.59" height="52.16"/><g class="cls-16"><rect class="cls-17" x="153.98" y="21.27" width="1.56" height="5.03" transform="translate(1.2 56.84) rotate(-20)"/></g></g></g><g class="cls-13"><path class="cls-14" d="M151.1,21.85h0a1,1,0,0,1,1.33.62l1,2.77a.52.52,0,0,1-.31.67.54.54,0,0,1-.67-.32Z" transform="translate(0 2.48)"/><g class="cls-19"><rect class="cls-4" x="135.52" width="62.59" height="52.16"/><g class="cls-16"><rect class="cls-17" x="151.57" y="21.27" width="1.56" height="5.03" transform="translate(1.05 56.02) rotate(-20)"/></g></g></g><g class="cls-13"><path class="cls-14" d="M154.33,21.67h0a.52.52,0,0,0-.67.31l-1.18,3.26a.52.52,0,0,0,.31.67.54.54,0,0,0,.67-.32l1.18-3.25A.52.52,0,0,0,154.33,21.67Z" transform="translate(0 2.48)"/><g class="cls-20"><rect class="cls-4" x="135.52" width="62.59" height="52.16"/><g class="cls-16"><rect class="cls-17" x="151.04" y="23.01" width="5.03" height="1.56" transform="translate(78.69 162.43) rotate(-70)"/></g></g></g><path class="cls-4" d="M159.13,21.49a5.43,5.43,0,0,0-5-3.31,5.38,5.38,0,0,0-4.5,2.39,5.37,5.37,0,0,0-.93,3,5.27,5.27,0,0,0,.43,2.11,5.42,5.42,0,0,0,5,3.32,5.34,5.34,0,0,0,2.11-.43,5.43,5.43,0,0,0,3.31-5A5.34,5.34,0,0,0,159.13,21.49Zm-.76,3.9A4.65,4.65,0,0,1,155.5,28a4.71,4.71,0,0,1-1.36.2,4.61,4.61,0,0,1-1.79-.36,4.68,4.68,0,0,1-2-1.66,4.47,4.47,0,0,1-.78-2.57,4.59,4.59,0,0,1,2-3.8,4.44,4.44,0,0,1,1.2-.58,4.73,4.73,0,0,1,1.37-.21,4.6,4.6,0,0,1,1.78.36,4.52,4.52,0,0,1,2,1.67,4.3,4.3,0,0,1,.58,1.2,4.72,4.72,0,0,1,.21,1.36A4.61,4.61,0,0,1,158.37,25.39Z" transform="translate(0 2.48)"/><path class="cls-12" d="M199.54,40.55a6.74,6.74,0,1,0,6.74-6.74A6.73,6.73,0,0,0,199.54,40.55Zm3.23,0a3.51,3.51,0,1,1,3.51,3.51A3.51,3.51,0,0,1,202.77,40.55Z" transform="translate(0 2.48)"/><path class="cls-12" d="M132.78,40.55a6.74,6.74,0,1,0,6.74-6.74A6.73,6.73,0,0,0,132.78,40.55Zm3.23,0a3.51,3.51,0,1,1,3.51,3.51A3.51,3.51,0,0,1,136,40.55Z" transform="translate(0 2.48)"/><circle class="cls-21" cx="206.28" cy="43.03" r="6.74"/><line class="cls-21" x1="145.74" y1="45" x2="199.77" y2="45"/><path class="cls-21" d="M212.72,42.52s11.15-.26,12.8-1.45c0,0,.59-.2.73-2.57a30,30,0,0,0,0-4.36c-.07-.52-1.39-1.71-2.05-2,0,0,.2-3.23-.59-4.55s-9.11-4.09-13.72-5.15l-8.91-2S184.09,7.43,182.51,6.11s-2.6-2.71-7.24-2.71h-42S129.21,3.6,128,7s-3.43,15.44-3.69,27.58c0,0-2.25.34-2.45,1a23.15,23.15,0,0,0,0,5.13,2.72,2.72,0,0,0,2.68,1.74c2,.15,8.47,0,8.47,0" transform="translate(0 2.48)"/><circle class="cls-21" cx="206.28" cy="43.03" r="3.51"/><circle class="cls-21" cx="139.52" cy="43.03" r="6.74"/><circle class="cls-21" cx="139.52" cy="43.03" r="3.51"/><path class="cls-21" d="M195,25.06s.93,8.55-.46,15.48" transform="translate(0 2.48)"/><path class="cls-21" d="M171,22.55h13.57a1.15,1.15,0,0,1,.84.35l1.82,1.81a1.19,1.19,0,0,0,.84.35h8.38a1.19,1.19,0,0,0,.79-2.08L181,9.82a1.21,1.21,0,0,0-.79-.3H171a1.18,1.18,0,0,0-1.18,1.19V21.36A1.18,1.18,0,0,0,171,22.55Z" transform="translate(0 2.48)"/><path class="cls-21" d="M168.2,40.08c.66-8.38.13-31,0-33.12A2,2,0,0,0,166,5.05H149.11A2,2,0,0,0,146.93,7c-.13,2.11-1.05,16.68-.87,25a9.9,9.9,0,0,1,3.72,8.08Z" transform="translate(0 2.48)"/><line class="cls-21" x1="196" y1="43.03" x2="149.78" y2="42.56"/><rect class="cls-22" x="126.44" y="23.65" width="19.59" height="0.79" rx="0.32" transform="translate(272.48 50.57) rotate(180)"/><rect class="cls-22" x="169.9" y="35.76" width="25.28" height="0.88" rx="0.35" transform="translate(365.08 74.86) rotate(180)"/><path class="cls-21" d="M126.54,24.34s1.68-13.68,2.22-15.66c.49-1.78,2.63-1.92,2.63-1.92a152.18,152.18,0,0,1,15.54.2" transform="translate(0 2.48)"/><path class="cls-21" d="M168.22,7.36h12.12a2.66,2.66,0,0,1,1.85.66C183.24,8.81,196,19.76,196,19.76s2.27,1.7,1.27,3.22" transform="translate(0 2.48)"/><line class="cls-21" x1="200.92" y1="22.83" x2="197.41" y2="25.98"/><path class="cls-23" d="M223.82,28.18h-1a.83.83,0,0,0-.83.9l.19,2.33a.83.83,0,0,0,.88.76l1.1-.07A11.69,11.69,0,0,0,223.82,28.18Z" transform="translate(0 2.48)"/><path class="cls-4" d="M325.56,114.62c2,2,3.7,3.85,5.07,5.44l.9-.72c-1.39-1.61-3.13-3.48-5.12-5.5Zm-22-20.35c3.7,3.17,7.56,6.59,11.23,10l.81-.81c-3.68-3.39-7.55-6.82-11.26-10ZM285.77,80.51a63.22,63.22,0,0,1,6.12,4.26l.73-.88a65.77,65.77,0,0,0-6.25-4.35Zm-5.77-4a67.59,67.59,0,0,1,5.7,4l.74-.88c-1.88-1.45-3.82-2.79-5.8-4ZM254.12,66.24a90.29,90.29,0,0,1,13.42,4l.44-1a92.71,92.71,0,0,0-13.6-4.09Zm-28-3.16c4.84.14,9.54.43,14.11.92l.13-1.12c-4.61-.5-9.34-.79-14.2-.93Zm-28.27.55c4.81-.26,9.53-.46,14.15-.56l0-1.13c-4.64.11-9.37.31-14.18.56Zm-28.28,1.88,14.14-1-.08-1.12c-4.65.31-9.37.66-14.15,1Zm-28.31,1.7q7.16-.31,14.17-.76l-.08-1.12c-4.66.29-9.38.55-14.14.75Zm-28.37.42c4.76.09,9.5.09,14.19,0l0-1.13q-7,.12-14.15,0ZM91.6,66.57q3.56.3,7.09.51L98.76,66c-2.34-.14-4.7-.31-7.05-.51Zm-7-.78q3.42.46,7,.78l.11-1.13c-2.4-.2-4.72-.46-7-.76ZM57.34,58.66A102.19,102.19,0,0,0,70.71,63.1L71,62A99.91,99.91,0,0,1,57.8,57.62ZM33.65,43.91A76,76,0,0,0,44.83,52.3l.63-.95a74.8,74.8,0,0,1-11-8.26Zm-16-22.32a58.52,58.52,0,0,0,6.76,12l1-.64a57.54,57.54,0,0,1-6.63-11.78ZM14.79,1.4a22.41,22.41,0,0,0-.48,6.9l1.17-.08a21.68,21.68,0,0,1,.45-6.56ZM286.07,80l-.37.44,0,0,0,0ZM91.66,66l0-.57Z" transform="translate(0 2.48)"/><path class="cls-12" d="M312.91,120.91c.38.41.75.82,1.1,1.23l1.36-1.08c-.37-.42-.75-.85-1.14-1.27Zm-4.72-4.7c.83.77,1.64,1.53,2.42,2.3l1.26-1.18c-.79-.78-1.62-1.57-2.47-2.35Zm-5.08-4.4c.87.72,1.73,1.44,2.57,2.17l1.17-1.26c-.85-.74-1.72-1.47-2.6-2.19Zm-5.3-4.16c.9.68,1.79,1.36,2.67,2.06l1.11-1.31c-.89-.7-1.79-1.4-2.69-2.08Zm-5.45-4c.91.64,1.82,1.3,2.74,2l1.06-1.35c-.92-.67-1.85-1.34-2.76-2Zm-5.59-3.82c.92.61,1.86,1.24,2.81,1.89l1-1.38-2.83-1.9Zm-5.69-3.66L283.94,98l1-1.41L282,94.77Zm-4.35-2.61,1.46.85.92-1.44-1.47-.86Zm-1.48-1.11c.47.34.93.69,1.39,1l1.1-1.32-1.42-1.07Zm-5.77-3.81c1,.59,2,1.2,2.94,1.84l1-1.4c-1-.65-2-1.28-3-1.88Zm-6.13-3.24c1,.5,2.08,1,3.11,1.55l.84-1.48c-1.05-.56-2.11-1.08-3.18-1.59Zm-6.43-2.67c1.1.4,2.18.82,3.25,1.27l.69-1.56c-1.09-.45-2.2-.88-3.31-1.29Zm-6.65-2.13c1.12.31,2.24.64,3.35,1l.55-1.61q-1.69-.54-3.42-1ZM243.45,79c1.16.24,2.3.5,3.43.77l.43-1.64c-1.15-.28-2.32-.54-3.49-.78Zm-6.91-1.2c1.16.16,2.32.35,3.46.55l.32-1.67c-1.17-.2-2.34-.39-3.52-.56Zm-7-.84c1.17.11,2.34.24,3.5.37l.21-1.68c-1.17-.13-2.35-.26-3.54-.37Zm-7-.52c1.19.06,2.37.14,3.53.22l.14-1.68c-1.18-.09-2.37-.17-3.57-.23Zm-7-.26c1.19,0,2.36.06,3.53.1l.07-1.69c-1.18,0-2.37-.08-3.56-.1Zm-7.06-.05h3.52l0-1.69H208.4Zm-7.07.13,3.53-.09,0-1.69-3.55.08Zm-7.07.25,3.54-.14-.07-1.69-3.55.14Zm-7.07.36,3.54-.19L190.65,75l-3.55.19Zm-7.07.43,3.55-.22-.11-1.69-3.55.22Zm-7.06.47,3.54-.24-.12-1.69-3.54.25Zm-7.06.5,3.53-.25-.12-1.69-3.54.26Zm-7.07.5,3.53-.25-.12-1.68-3.54.25Zm-7.07.49L155.4,79l-.12-1.69-3.53.24Zm-7.08.44,3.54-.21-.12-1.69-3.53.21Zm-7.08.4,3.53-.19-.1-1.69-3.53.19Zm-7.09.32,3.54-.15-.09-1.69c-1.17,0-2.35.11-3.53.15Zm-7.1.24,3.55-.1-.07-1.7-3.53.11Zm-7.1.15,3.55-.06,0-1.69-3.53.06Zm-7.1,0h3.55v-1.7c-1.18,0-2.35,0-3.53,0Zm-7.1-.1q1.77,0,3.54.06l0-1.69c-1.18,0-2.35,0-3.53-.06Zm-7.11-.24,3.55.14.06-1.69-3.53-.14ZM88,80.08q1.77.12,3.54.21l.1-1.68-3.52-.22Zm-5.32-.4,1.77.14.15-1.68L82.85,78Zm-1.78-.17,1.78.17L82.85,78l-1.74-.16Zm-7-.93c1.15.19,2.31.37,3.49.53l.24-1.68c-1.15-.15-2.3-.33-3.43-.52Zm-6.88-1.4c1.13.27,2.28.52,3.44.76l.36-1.66c-1.14-.23-2.26-.48-3.37-.74Zm-6.76-1.89c1.11.35,2.22.69,3.36,1l.49-1.62c-1.12-.31-2.21-.64-3.29-1Zm-6.6-2.39c1.07.44,2.17.86,3.28,1.26l.61-1.59Q56,72,54.39,71.34ZM47.33,70c1,.52,2.09,1,3.16,1.5L51.24,70c-1.05-.47-2.09-1-3.1-1.47ZM41.2,66.68c1,.6,2,1.17,3,1.74l.87-1.48c-1-.55-2-1.11-3-1.69Zm-5.83-3.8c.94.66,1.9,1.32,2.88,2l1-1.4c-1-.63-1.91-1.27-2.83-1.92Zm-5.51-4.24c.89.73,1.79,1.46,2.71,2.17l1.1-1.32c-.91-.7-1.79-1.41-2.66-2.13ZM24.72,54c.82.8,1.67,1.58,2.53,2.36l1.2-1.23c-.85-.77-1.67-1.54-2.48-2.32ZM20,49c.75.85,1.53,1.7,2.33,2.54l1.29-1.14c-.78-.83-1.54-1.66-2.29-2.5ZM15.6,43.68c.68.91,1.39,1.81,2.12,2.7l1.38-1.05c-.72-.87-1.41-1.76-2.08-2.65Zm-3.94-5.62c.62.95,1.25,1.9,1.92,2.85L15,40c-.65-.93-1.27-1.86-1.87-2.79ZM8.17,32.17c.54,1,1.1,2,1.69,3l1.53-.84c-.58-1-1.13-2-1.66-2.92ZM5.16,26c.45,1,.93,2.06,1.44,3.1l1.59-.73q-.75-1.53-1.41-3ZM2.7,19.67c.35,1,.74,2.12,1.16,3.21l1.64-.6c-.41-1.06-.79-2.1-1.13-3.13ZM.88,13.07c.23,1.08.5,2.19.82,3.33L3.4,16c-.31-1.11-.57-2.19-.79-3.23ZM0,6.27A33.43,33.43,0,0,0,.3,9.7L2,9.48a30.56,30.56,0,0,1-.28-3.26ZM.45,1.05A14.74,14.74,0,0,0,.13,2.8L1.88,3a12.75,12.75,0,0,1,.27-1.55Zm276.74,91.8-.55.66,0,0,.05,0Zm-194.42-14,.08-.85Z" transform="translate(0 2.48)"/><path class="cls-12" d="M346.18,119.32c.32.56.58,1.09.79,1.56l1.62-.66q-.36-.81-.87-1.71Zm-4.1-6c.78,1,1.5,2,2.16,3l1.46-.94c-.67-1-1.42-2-2.2-3Zm-4.62-5.73c.79.94,1.58,1.89,2.35,2.84l1.39-1c-.78-1-1.58-1.92-2.37-2.87ZM332.6,102c.79.87,1.61,1.8,2.46,2.77l1.34-1.09c-.85-1-1.68-1.91-2.47-2.79Zm-3.76-4.07,1.27,1.34,1.3-1.13-1.27-1.36Zm-1.12-1.27,1.1,1.24,1.35-1.08c-.37-.43-.74-.85-1.13-1.28ZM323,92c.84.77,1.65,1.54,2.42,2.31l1.26-1.18c-.79-.78-1.62-1.57-2.47-2.35Zm-5.08-4.39c.88.72,1.73,1.44,2.57,2.16l1.18-1.25c-.85-.74-1.72-1.47-2.61-2.2Zm-5.29-4.16c.89.67,1.78,1.36,2.67,2l1.11-1.31q-1.35-1.05-2.7-2.07Zm-5.46-4c.91.64,1.83,1.3,2.74,2L311,80.06c-.93-.68-1.86-1.34-2.77-2Zm-5.59-3.82c.92.61,1.86,1.24,2.81,1.89l1-1.38c-1-.66-1.91-1.29-2.83-1.9ZM295.88,72l2.86,1.81,1-1.41c-1-.65-2-1.26-2.89-1.82Zm-4.34-2.62,1.45.86.92-1.44-1.47-.87Zm-1.48-1.1c.46.34.92.68,1.38,1l1.1-1.32c-.47-.36-.94-.72-1.42-1.07Zm-5.77-3.81c1,.59,2,1.2,2.94,1.84l1-1.4c-1-.65-2-1.28-3-1.88Zm-6.14-3.24c1.05.49,2.09,1,3.11,1.55l.85-1.49c-1.05-.55-2.11-1.08-3.19-1.58Zm-6.43-2.67c1.1.4,2.18.82,3.25,1.26l.7-1.55c-1.1-.45-2.2-.89-3.32-1.29Zm-6.65-2.14c1.13.32,2.24.65,3.35,1l.55-1.61c-1.12-.36-2.26-.7-3.41-1Zm-6.81-1.64c1.15.24,2.29.49,3.42.76l.43-1.64c-1.15-.27-2.31-.53-3.48-.77Zm-6.92-1.21c1.17.17,2.32.36,3.47.56l.31-1.67c-1.16-.2-2.33-.39-3.51-.56Zm-7-.83c1.18.11,2.34.23,3.5.37l.22-1.68c-1.18-.14-2.36-.26-3.55-.38Zm-7-.52c1.18.06,2.36.13,3.53.22l.13-1.69c-1.18-.08-2.37-.16-3.56-.22Zm-7-.26c1.19,0,2.36,0,3.53.1l.07-1.69c-1.18,0-2.36-.08-3.56-.11Zm-7.06-.05h3.53V50.18H223.2Zm-7.06.12,3.52-.08,0-1.69-3.54.08Zm-7.07.26,3.53-.14-.07-1.7-3.55.15Zm-7.08.36,3.55-.19-.1-1.69-3.55.19Zm-7.06.43,3.54-.23-.11-1.69-3.55.23Zm-7.06.47,3.53-.24-.12-1.69-3.54.24Zm-7.07.5,3.54-.25-.13-1.69-3.54.25Zm-7.07.5,3.54-.25-.13-1.69-3.53.25Zm-7.07.48c1.18-.08,2.36-.15,3.54-.24l-.13-1.68-3.53.23Zm-7.08.45,3.54-.22L163,53.53l-3.53.22Zm-7.08.39,3.54-.19L156,54l-3.53.18Zm-7.09.33L149,56l-.08-1.69-3.53.15Zm-7.1.24,3.55-.11-.06-1.69-3.54.11Zm-7.09.14,3.54,0,0-1.7q-1.77,0-3.54.06Zm-7.11,0h3.55V54.88h-3.53Zm-7.1-.09,3.55.06,0-1.69-3.53-.07Zm-7.1-.24,3.55.13.06-1.69L110,54.55Zm-7.1-.39,3.55.21.1-1.69c-1.18-.06-2.35-.13-3.53-.21Zm-5.32-.41,1.78.15.14-1.69-1.77-.14Zm-1.81-.16,1.81.16.15-1.68-1.79-.16Zm-7.1-.82q1.75.24,3.57.45l.21-1.68c-1.2-.14-2.38-.28-3.53-.44Zm-7-1.14c1.14.22,2.31.42,3.5.61l.3-1.66c-1.18-.19-2.34-.4-3.47-.61Zm-7-1.52q1.71.42,3.48.81L78.42,51c-1.17-.25-2.31-.52-3.43-.8Zm-6.86-1.94c1.11.36,2.25.7,3.42,1l.5-1.62c-1.15-.33-2.27-.66-3.36-1ZM61,47.42c1.08.44,2.19.87,3.34,1.29l.62-1.59c-1.13-.41-2.21-.83-3.27-1.26Zm-6.48-3c1,.55,2.1,1.07,3.21,1.59l.76-1.53c-1.08-.5-2.12-1-3.12-1.54Zm-6.12-3.65c1,.65,2,1.29,3,1.91l.93-1.44c-1-.6-2-1.23-2.92-1.86Zm-5.61-4.37c.86.77,1.77,1.53,2.73,2.27l1.11-1.31c-.93-.73-1.81-1.46-2.64-2.2Zm-4.92-5.12c.74.9,1.52,1.78,2.37,2.66l1.29-1.15c-.82-.85-1.57-1.7-2.28-2.56Zm-4-5.81c.56,1,1.18,2,1.87,3l1.46-.93c-.65-.95-1.25-1.91-1.79-2.86ZM31,19q.56,1.62,1.29,3.27l1.61-.68q-.7-1.56-1.23-3.12Zm-1.63-6.82c.16,1.13.37,2.28.65,3.44l1.71-.37c-.26-1.12-.47-2.22-.62-3.29Zm-.26-7C29,6.34,29,7.52,29,8.72l1.76-.06c0-1.15,0-2.27.05-3.34ZM29.86,0c-.14.56-.26,1.13-.37,1.72l1.73.3c.1-.56.22-1.11.35-1.63ZM329.49,97.37l-.67.54h0v0ZM292,68.62l-.55.66.05,0,.05,0ZM97.58,54.6l.07-.84Z" transform="translate(0 2.48)"/></g></g></svg>