<svg xmlns="http://www.w3.org/2000/svg" viewBox="0 0 348.59 122.14"><defs><style>.cls-1,.cls-4{fill:#fff;}.cls-2{fill:#39b6ed;}.cls-3,.cls-6{fill:#43b5e8;}.cls-4,.cls-6{fill-rule:evenodd;opacity:0.5;}.cls-5{opacity:0.5;}</style></defs><g id="Layer_2" data-name="Layer 2"><g id="Design"><path class="cls-1" d="M325.56,114.62c2,2,3.7,3.85,5.07,5.44l.9-.72c-1.39-1.61-3.13-3.48-5.12-5.5Zm-22-20.35c3.7,3.17,7.56,6.59,11.23,10l.81-.81c-3.68-3.39-7.55-6.82-11.26-10ZM285.77,80.51a63.22,63.22,0,0,1,6.12,4.26l.73-.89a67.24,67.24,0,0,0-6.25-4.34Zm-5.77-4a67.59,67.59,0,0,1,5.7,4l.74-.88c-1.88-1.45-3.82-2.79-5.8-4ZM254.12,66.24a90.29,90.29,0,0,1,13.42,4l.44-1a92.71,92.71,0,0,0-13.6-4.09Zm-28-3.16c4.84.14,9.54.43,14.11.92l.13-1.12c-4.61-.5-9.34-.79-14.2-.93Zm-28.27.55c4.81-.26,9.53-.46,14.15-.56l0-1.13c-4.64.11-9.37.31-14.18.56Zm-28.28,1.88,14.14-1-.08-1.12c-4.65.31-9.37.66-14.15,1Zm-28.31,1.7q7.16-.31,14.17-.76l-.08-1.12c-4.66.29-9.38.55-14.14.75Zm-28.37.42c4.76.09,9.5.09,14.19,0l0-1.13q-7,.12-14.15,0ZM91.6,66.57q3.56.3,7.09.51L98.76,66c-2.34-.14-4.7-.31-7.05-.51Zm-7-.78q3.42.46,7,.78l.11-1.13c-2.4-.2-4.72-.46-7-.76ZM57.34,58.66a100.72,100.72,0,0,0,13.37,4.43L71,62A99.91,99.91,0,0,1,57.8,57.62ZM33.65,43.91A76,76,0,0,0,44.83,52.3l.63-.95a74.8,74.8,0,0,1-11-8.26Zm-16-22.32a58.52,58.52,0,0,0,6.76,12l1-.64a57.54,57.54,0,0,1-6.63-11.78ZM14.79,1.4a22.41,22.41,0,0,0-.48,6.9l1.17-.08a21.68,21.68,0,0,1,.45-6.56ZM286.07,80l-.37.44,0,0,0,0ZM91.66,66l0-.57Z"/><path class="cls-2" d="M312.91,120.9c.38.42.75.83,1.1,1.24l1.36-1.08-1.14-1.28Zm-4.72-4.69c.83.77,1.64,1.53,2.42,2.3l1.26-1.18c-.79-.78-1.62-1.57-2.47-2.35Zm-5.08-4.4c.87.72,1.73,1.44,2.57,2.17l1.17-1.26c-.85-.74-1.72-1.47-2.6-2.19Zm-5.3-4.16c.9.68,1.79,1.36,2.67,2.06l1.11-1.31c-.89-.71-1.79-1.4-2.69-2.08Zm-5.45-4c.91.64,1.82,1.3,2.74,2l1.06-1.35c-.92-.67-1.85-1.34-2.76-2Zm-5.59-3.82c.92.61,1.86,1.24,2.81,1.89l1-1.38-2.83-1.9Zm-5.69-3.66L283.94,98l1-1.41L282,94.77Zm-4.35-2.61,1.46.85.92-1.44-1.47-.86Zm-1.48-1.11c.47.34.93.69,1.39,1l1.1-1.32-1.42-1.07Zm-5.77-3.81c1,.59,2,1.2,2.94,1.84l1-1.4c-1-.65-2-1.28-3-1.88Zm-6.13-3.24c1,.5,2.08,1,3.11,1.55l.84-1.48c-1.05-.56-2.11-1.08-3.18-1.59Zm-6.43-2.67c1.1.4,2.18.82,3.25,1.27l.69-1.56c-1.09-.45-2.2-.88-3.31-1.29Zm-6.65-2.14c1.12.32,2.24.65,3.35,1l.55-1.61q-1.69-.54-3.42-1ZM243.45,79c1.16.24,2.3.49,3.43.77l.43-1.64c-1.15-.28-2.32-.54-3.49-.78Zm-6.91-1.21c1.16.17,2.32.36,3.46.56l.32-1.67c-1.17-.2-2.34-.39-3.52-.56Zm-7-.83c1.17.11,2.34.24,3.5.37l.21-1.68c-1.17-.14-2.35-.26-3.54-.38Zm-7-.52c1.19.06,2.36.14,3.53.22l.14-1.68c-1.18-.09-2.37-.17-3.57-.23Zm-7-.26c1.19,0,2.36.06,3.53.1l.07-1.69c-1.18,0-2.37-.08-3.56-.1Zm-7.06-.05h3.52l0-1.69H208.4Zm-7.07.12,3.53-.08,0-1.69-3.55.08Zm-7.07.26,3.54-.14-.07-1.69-3.55.14Zm-7.07.36,3.54-.19L190.65,75l-3.55.19Zm-7.07.43,3.55-.22-.11-1.69-3.55.22Zm-7.06.47,3.54-.24-.12-1.69-3.54.25Zm-7.06.5,3.53-.25-.12-1.69-3.54.25Zm-7.07.5,3.53-.25-.12-1.68-3.54.24Zm-7.07.49L155.4,79l-.12-1.69-3.53.24Zm-7.08.44,3.54-.22-.12-1.68-3.53.21Zm-7.08.4,3.53-.19-.1-1.69-3.53.19Zm-7.09.32,3.54-.15-.09-1.69-3.53.15Zm-7.1.24,3.55-.1-.07-1.7-3.53.11Zm-7.1.15,3.55-.06,0-1.69-3.53,0Zm-7.1,0h3.55v-1.7c-1.18,0-2.35,0-3.53,0Zm-7.1-.1q1.77,0,3.54.06l0-1.69c-1.18,0-2.35,0-3.53-.06Zm-7.11-.24,3.55.14.06-1.69-3.53-.14ZM88,80.08q1.77.12,3.54.21l.1-1.69-3.52-.21Zm-5.32-.4,1.77.14.15-1.68L82.85,78Zm-1.78-.17,1.78.17L82.85,78l-1.74-.16Zm-7-.93c1.15.19,2.31.37,3.49.53l.24-1.68c-1.15-.16-2.3-.33-3.43-.52Zm-6.88-1.4c1.13.27,2.28.52,3.44.76l.36-1.66c-1.14-.23-2.26-.48-3.37-.75Zm-6.76-1.89c1.11.35,2.22.68,3.36,1l.49-1.62c-1.12-.31-2.21-.64-3.29-1Zm-6.6-2.39c1.07.44,2.17.86,3.28,1.26l.61-1.59Q56,72,54.39,71.34ZM47.33,70c1,.52,2.09,1,3.16,1.5L51.24,70c-1.05-.48-2.09-1-3.1-1.47ZM41.2,66.68q1.48.88,3,1.74l.87-1.48c-1-.55-2-1.11-3-1.69Zm-5.83-3.8c.94.66,1.9,1.32,2.88,2l1-1.4c-1-.63-1.91-1.27-2.83-1.92Zm-5.51-4.24c.89.73,1.79,1.46,2.71,2.17l1.1-1.32c-.91-.7-1.79-1.41-2.66-2.13ZM24.72,54c.82.8,1.67,1.58,2.53,2.36l1.2-1.23c-.85-.77-1.67-1.54-2.48-2.32ZM20,49c.75.85,1.53,1.7,2.33,2.54l1.29-1.14c-.78-.83-1.54-1.66-2.29-2.5ZM15.6,43.68c.68.9,1.39,1.81,2.12,2.7l1.38-1.05c-.72-.87-1.41-1.76-2.08-2.65Zm-3.94-5.62c.62.95,1.25,1.9,1.92,2.85L15,40c-.65-.93-1.27-1.86-1.87-2.79ZM8.17,32.17c.54,1,1.1,2,1.69,3l1.53-.84c-.58-1-1.13-2-1.66-2.92ZM5.16,26c.45,1,.93,2.06,1.44,3.1l1.59-.73q-.75-1.53-1.41-3ZM2.7,19.67c.35,1,.74,2.12,1.16,3.21l1.64-.6c-.41-1.06-.79-2.1-1.13-3.13ZM.88,13.07c.23,1.07.5,2.19.82,3.33L3.4,16c-.31-1.11-.57-2.19-.79-3.23ZM0,6.27A33.43,33.43,0,0,0,.3,9.7L2,9.48a30.56,30.56,0,0,1-.28-3.26ZM.45,1.05A14.74,14.74,0,0,0,.13,2.8L1.88,3a13.28,13.28,0,0,1,.27-1.56Zm276.74,91.8-.55.66,0,0,.05,0Zm-194.42-14,.08-.84Z"/><path class="cls-2" d="M346.18,119.32c.32.56.58,1.09.79,1.56l1.62-.66q-.36-.81-.87-1.71Zm-4.1-6c.78,1,1.5,2,2.16,3l1.46-.94c-.67-1-1.42-2-2.2-3Zm-4.62-5.73c.79.94,1.58,1.89,2.35,2.84l1.39-1c-.78-1-1.58-1.92-2.37-2.87ZM332.6,102c.79.87,1.61,1.8,2.46,2.77l1.34-1.09c-.85-1-1.68-1.91-2.47-2.79Zm-3.76-4.07,1.27,1.34,1.3-1.13-1.27-1.36Zm-1.12-1.27,1.1,1.24,1.35-1.08c-.37-.43-.74-.85-1.13-1.28ZM323,92c.84.77,1.65,1.54,2.42,2.31l1.26-1.18c-.79-.78-1.62-1.57-2.47-2.35Zm-5.08-4.39c.88.72,1.73,1.44,2.57,2.16l1.18-1.25c-.85-.74-1.72-1.47-2.61-2.2Zm-5.29-4.16c.89.67,1.78,1.36,2.67,2l1.11-1.31q-1.35-1.05-2.7-2.07Zm-5.46-4c.91.64,1.83,1.3,2.74,2L311,80.06c-.93-.68-1.86-1.34-2.77-2Zm-5.59-3.82c.92.61,1.86,1.24,2.81,1.89l1-1.38c-1-.66-1.91-1.29-2.83-1.9ZM295.88,72l2.86,1.81,1-1.41-2.89-1.82Zm-4.34-2.62,1.45.86.92-1.44-1.47-.87Zm-1.48-1.1c.46.34.92.68,1.38,1l1.1-1.32c-.47-.36-.94-.72-1.42-1.07Zm-5.77-3.81c1,.59,2,1.2,2.94,1.84l1-1.4c-1-.65-2-1.28-3-1.88Zm-6.14-3.24c1.05.49,2.09,1,3.11,1.55l.85-1.48c-1.05-.56-2.11-1.09-3.19-1.59Zm-6.43-2.67c1.1.4,2.18.82,3.25,1.26l.7-1.55c-1.1-.45-2.2-.89-3.32-1.29Zm-6.65-2.14c1.13.32,2.24.65,3.35,1l.55-1.6c-1.12-.36-2.26-.7-3.41-1Zm-6.81-1.64c1.15.24,2.29.49,3.42.76l.43-1.64c-1.15-.27-2.31-.53-3.48-.77Zm-6.92-1.21c1.17.17,2.32.36,3.47.56l.31-1.67c-1.16-.2-2.33-.39-3.51-.56Zm-7-.83c1.18.11,2.34.23,3.5.37l.22-1.68c-1.18-.14-2.36-.26-3.55-.38Zm-7-.52c1.18.06,2.36.13,3.53.22l.13-1.69c-1.18-.08-2.37-.16-3.56-.22Zm-7-.26c1.19,0,2.36,0,3.53.1l.07-1.69c-1.18,0-2.36-.08-3.56-.11Zm-7.06-.05h3.53V50.18H223.2Zm-7.06.12,3.52-.08,0-1.69-3.54.08Zm-7.07.26,3.53-.14-.07-1.69-3.55.14Zm-7.08.36,3.55-.19-.1-1.69-3.55.19Zm-7.06.43,3.54-.23-.11-1.69-3.55.23Zm-7.06.47,3.53-.24-.12-1.69-3.54.24Zm-7.07.5,3.54-.25-.13-1.69-3.54.25Zm-7.07.5,3.54-.25-.13-1.69-3.53.25Zm-7.07.48c1.18-.08,2.36-.15,3.54-.24l-.13-1.68-3.53.23Zm-7.08.45,3.54-.22L163,53.53l-3.53.22Zm-7.08.39,3.54-.19L156,54l-3.53.18Zm-7.09.33L149,56l-.08-1.69-3.53.15Zm-7.1.24,3.55-.11-.06-1.69-3.54.11Zm-7.09.14,3.54,0,0-1.7q-1.77,0-3.54.06Zm-7.11,0h3.55V54.88h-3.53Zm-7.1-.09,3.55.06,0-1.69-3.53-.07Zm-7.1-.24,3.55.13.06-1.69L110,54.55Zm-7.1-.39,3.55.21.1-1.69c-1.18-.06-2.35-.13-3.53-.21Zm-5.32-.41,1.78.15.14-1.69-1.77-.14Zm-1.81-.16,1.81.16.15-1.68-1.79-.16Zm-7.1-.82q1.75.24,3.57.45l.21-1.68c-1.2-.14-2.38-.28-3.53-.44Zm-7-1.14c1.14.22,2.31.42,3.5.61l.3-1.66c-1.18-.19-2.34-.4-3.47-.61Zm-7-1.52q1.71.42,3.48.81L78.42,51c-1.17-.25-2.31-.52-3.43-.8Zm-6.86-1.94c1.11.36,2.25.7,3.42,1l.5-1.62c-1.15-.33-2.27-.66-3.36-1ZM61,47.42c1.08.44,2.19.87,3.34,1.29l.62-1.59c-1.13-.41-2.21-.83-3.27-1.26Zm-6.48-3c1,.55,2.1,1.07,3.21,1.59l.76-1.53c-1.08-.5-2.12-1-3.12-1.54Zm-6.12-3.65c1,.65,2,1.29,3,1.91l.93-1.44c-1-.6-2-1.23-2.92-1.86Zm-5.61-4.37c.86.77,1.77,1.53,2.73,2.27l1.11-1.31c-.93-.73-1.81-1.46-2.64-2.2Zm-4.92-5.12c.74.9,1.52,1.78,2.37,2.66l1.29-1.15c-.82-.85-1.57-1.7-2.28-2.56Zm-4-5.81c.56,1,1.18,2,1.87,3l1.46-.93c-.65-.95-1.25-1.91-1.79-2.86ZM31,19q.56,1.62,1.29,3.27l1.61-.68q-.7-1.56-1.23-3.12Zm-1.63-6.82c.16,1.13.37,2.28.65,3.44l1.71-.38c-.26-1.11-.47-2.21-.62-3.28Zm-.26-7C29,6.34,29,7.52,29,8.72l1.76-.06c0-1.15,0-2.27.05-3.34ZM29.86,0c-.14.56-.26,1.13-.37,1.72l1.73.3c.1-.56.22-1.11.35-1.63ZM329.49,97.37l-.67.54h0v0ZM292,68.62l-.55.66.05,0,.05,0ZM97.58,54.6l.07-.84Z"/><polygon class="cls-1" points="183.85 30.56 183.51 31.7 183.34 31.7 182.98 30.83 182.71 31.73 182.53 31.74 182.09 30.64 182.26 30.63 182.61 31.53 182.9 30.6 183.05 30.6 183.41 31.5 183.69 30.57 183.85 30.56"/><path class="cls-1" d="M185.09,31.22l-.27-.54-.23.56Zm.07.13-.62,0-.11.29h-.17l.47-1.14h.16l.58,1.09h-.17Z"/><path class="cls-1" d="M185.91,31.47l.06-.13a.6.6,0,0,0,.39.11c.2,0,.28-.09.28-.18,0-.28-.71-.07-.73-.49,0-.17.12-.32.43-.34a.76.76,0,0,1,.38.08l-.05.13a.64.64,0,0,0-.32-.07c-.2,0-.28.09-.28.19,0,.27.71.07.73.48,0,.17-.13.32-.44.34A.85.85,0,0,1,185.91,31.47Z"/><polygon class="cls-1" points="188.39 30.37 188.44 31.48 188.28 31.49 188.25 30.99 187.59 31.02 187.61 31.52 187.44 31.53 187.39 30.41 187.56 30.4 187.58 30.88 188.25 30.85 188.22 30.37 188.39 30.37"/><polygon class="cls-1" points="190.25 31.41 190.22 30.59 189.83 31.29 189.75 31.29 189.3 30.64 189.34 31.44 189.18 31.45 189.13 30.33 189.26 30.33 189.78 31.09 190.22 30.29 190.36 30.28 190.41 31.4 190.25 31.41"/><polygon class="cls-1" points="191.26 30.24 191.1 30.25 191.15 31.37 191.32 31.36 191.26 30.24"/><polygon class="cls-1" points="192.67 31.3 192.3 30.85 191.98 31.33 191.79 31.34 192.2 30.75 191.76 30.22 191.95 30.21 192.3 30.63 192.6 30.18 192.78 30.18 192.4 30.73 192.86 31.29 192.67 31.3"/><path class="cls-1" d="M193.31,31.22a.07.07,0,0,1-.06,0l-.07,0a.16.16,0,0,1,0-.07.11.11,0,0,1,0-.07.15.15,0,0,1,.07,0,.09.09,0,0,1,.07,0,.07.07,0,0,1,0,.06A.09.09,0,0,1,193.31,31.22Zm-.07-.18a.12.12,0,0,0-.12.12.11.11,0,0,0,.13.11.1.1,0,0,0,.11-.12A.12.12,0,0,0,193.24,31Z"/><path class="cls-1" d="M193.23,31.15h0a0,0,0,0,0,0,0h0Zm0,0v0h0v-.1h.06v0s0,0,0,0a0,0,0,0,1,0,0l0,0h0l0,0Z"/><polygon class="cls-3" points="161.51 40.58 146.34 11.74 161.5 11.08 177.83 39.88 161.51 40.58"/><path class="cls-4" d="M160,24.9a.44.44,0,0,1,.55.22l1.06,2.47a.4.4,0,0,1-.22.53.44.44,0,0,1-.55-.22l-1.06-2.47A.4.4,0,0,1,160,24.9Z"/><path class="cls-4" d="M162.2,24.81a.43.43,0,0,0-.53.26l-.83,2.55a.41.41,0,0,0,.28.51.42.42,0,0,0,.52-.27l.83-2.55A.39.39,0,0,0,162.2,24.81Z"/><path class="cls-4" d="M164.52,24.85a.84.84,0,0,0-1.05.52l-.7,2.17a.39.39,0,0,0,.27.5.43.43,0,0,0,.53-.26Z"/><path class="cls-4" d="M161.93,24.82a.41.41,0,0,1,.54.22l1.07,2.47a.39.39,0,0,1-.23.52.41.41,0,0,1-.54-.22l-1.07-2.46A.4.4,0,0,1,161.93,24.82Z"/><path class="cls-1" d="M158.83,27.83a3.68,3.68,0,0,0,1.4,1.5,4.28,4.28,0,0,0,1,.4,3.61,3.61,0,0,0,1.1.11,3.7,3.7,0,0,0,1.41-.34,3.6,3.6,0,0,0,1.56-1.35,3.24,3.24,0,0,0,.42-.95,3.67,3.67,0,0,0,.12-1.06,3.43,3.43,0,0,0-.36-1.36,3.68,3.68,0,0,0-1.4-1.5,3.55,3.55,0,0,0-1-.4,3.91,3.91,0,0,0-1.1-.12,4.11,4.11,0,0,0-1.41.34A3.62,3.62,0,0,0,159,24.46a3.3,3.3,0,0,0-.42.94,3.75,3.75,0,0,0-.12,1.06A3.52,3.52,0,0,0,158.83,27.83Zm-.76-3a4.25,4.25,0,0,1,1.49-1.91,4.47,4.47,0,0,1,4.1-.56,4.27,4.27,0,0,1,2,1.43,4.07,4.07,0,0,1,.85,2.3,4.12,4.12,0,0,1-.26,1.65,4.36,4.36,0,0,1-1.49,1.91,4.45,4.45,0,0,1-2.39.82,4.61,4.61,0,0,1-1.71-.26,4.39,4.39,0,0,1-2-1.43,4.09,4.09,0,0,1-.59-3.95Z"/><path class="cls-3" d="M204.64,40.27a2.71,2.71,0,1,0-2.94-2.59A2.78,2.78,0,0,0,204.64,40.27Zm-.37-7.91a5.21,5.21,0,1,1-5.16,5.44A5.34,5.34,0,0,1,204.27,32.36Z"/><path class="cls-3" d="M151.18,42.59A2.71,2.71,0,1,0,148.25,40,2.76,2.76,0,0,0,151.18,42.59Zm-.37-7.91a5.34,5.34,0,0,1,5.64,5,5.4,5.4,0,1,1-5.64-5Z"/><path class="cls-1" d="M204.28,32.73a4.84,4.84,0,1,1-4.79,5.05A4.91,4.91,0,0,1,204.28,32.73Zm.49,10.39a5.65,5.65,0,0,0,5.51-5.81,5.78,5.78,0,1,0-5.51,5.81Z"/><path class="cls-1" d="M156.12,41.54l43.27-1.87a.37.37,0,0,0,.36-.38.38.38,0,0,0-.39-.35l-43.27,1.88a.36.36,0,1,0,0,.72Z"/><path class="cls-1" d="M219.8,37Zm0,0h0Zm0,0Zm0,0ZM141.1,42.2c2.06-.09,4.7-.28,4.86-.3a.35.35,0,0,0,.34-.38.37.37,0,0,0-.39-.34h0c-.05,0-5.19.38-6.74.34s-1.73-.74-1.87-1a17.69,17.69,0,0,1-.17-3.72,4.13,4.13,0,0,1,1.63-.58.36.36,0,0,0,.3-.36c-.22-9.24,1.13-18.62,1.95-21.28.74-2.42,3.65-2.72,3.77-2.73l33.59-1.46c3.16-.14,4.11.59,5.22,1.44l.43.33c1.31,1,14.74,10,15.32,10.35a.35.35,0,0,0,.14.06l7.21,1.27c4,.7,10.39,2.55,10.93,3.33a7.62,7.62,0,0,1,.57,3.28.37.37,0,0,0,.23.34A4.33,4.33,0,0,1,219.9,32a20.13,20.13,0,0,1,.15,3.29c0,1.31-.27,1.65-.31,1.7l0,0c-.86.66-6.58,1.26-10,1.48a.38.38,0,0,0-.35.39.37.37,0,0,0,.4.34c.92-.06,8.94-.62,10.37-1.62.26-.14.64-.64.66-2.31a21.6,21.6,0,0,0-.16-3.43c-.1-.54-1.12-1.32-1.71-1.66a7.39,7.39,0,0,0-.7-3.47c-.85-1.24-8.39-3.12-11.42-3.65l-7.12-1.25c-1.05-.7-14-9.38-15.23-10.29l-.41-.32c-1.12-.85-2.28-1.74-5.72-1.59l-33.61,1.46c-.16,0-3.55.35-4.44,3.24-.77,2.52-2.18,11.56-2,21.2-.76.17-1.76.5-1.9,1a15.93,15.93,0,0,0,.2,4.2,2.54,2.54,0,0,0,2.53,1.46C139.58,42.25,140.3,42.23,141.1,42.2Z"/><path class="cls-1" d="M204.4,35.22a2.35,2.35,0,1,1-2.32,2.45A2.4,2.4,0,0,1,204.4,35.22Zm.25,5.41a3.07,3.07,0,1,0-3.32-2.93A3.12,3.12,0,0,0,204.65,40.63Z"/><path class="cls-1" d="M150.83,35.05A4.84,4.84,0,1,1,146,40.1,5,5,0,0,1,150.83,35.05Zm.49,10.39a5.66,5.66,0,0,0,5.51-5.81,5.78,5.78,0,1,0-5.51,5.81Z"/><path class="cls-1" d="M151,37.54a2.4,2.4,0,0,1,2.54,2.24,2.37,2.37,0,0,1-2.32,2.44,2.34,2.34,0,1,1-.22-4.68ZM151.2,43A3.07,3.07,0,1,0,147.87,40,3.12,3.12,0,0,0,151.2,43Z"/><path class="cls-1" d="M195.12,38.32a.37.37,0,0,0,.35-.31A45.56,45.56,0,0,0,195.28,26a.37.37,0,0,0-.74.11,44.89,44.89,0,0,1,.19,11.84.36.36,0,0,0,.31.41Z"/><path class="cls-1" d="M182.54,14.9a.6.6,0,0,1,.39.12l13.49,9.6a.52.52,0,0,1,.17.59.54.54,0,0,1-.52.38l-6.72.3a.61.61,0,0,1-.41-.15l-1.52-1.33a1.37,1.37,0,0,0-.95-.34l-10.87.47A.56.56,0,0,1,175,24l-.38-8.22a.55.55,0,0,1,.54-.58Zm6.85,11.71,6.71-.29a1.31,1.31,0,0,0,1.2-.88,1.22,1.22,0,0,0-.42-1.39l-13.5-9.6a1.29,1.29,0,0,0-.88-.27l-7.37.32a1.29,1.29,0,0,0-1.26,1.33l.38,8.22a1.31,1.31,0,0,0,1.38,1.22l10.87-.48a.61.61,0,0,1,.41.15l1.52,1.34A1.44,1.44,0,0,0,189.39,26.61Z"/><path class="cls-1" d="M173.64,38.17l-14,.61a7.94,7.94,0,0,0-3.26-5.92c-.38-5.76-.27-15.24-.2-19.08v0a1.17,1.17,0,0,1,.34-.88,1.55,1.55,0,0,1,.95-.32L171,12a1.49,1.49,0,0,1,1,.23,1.18,1.18,0,0,1,.42.84C172.62,14.64,173.81,31.5,173.64,38.17Zm-14.37,1.35L174,38.88a.36.36,0,0,0,.36-.35c.23-6.45-1-23.93-1.2-25.58a1.87,1.87,0,0,0-.7-1.35,2.23,2.23,0,0,0-1.53-.37l-13.51.58a2.25,2.25,0,0,0-1.46.51,1.86,1.86,0,0,0-.58,1.4v0c-.07,3.89-.19,13.54.21,19.31a.34.34,0,0,0,.18.28,7.19,7.19,0,0,1,3.09,5.81A.38.38,0,0,0,159.27,39.52Z"/><path class="cls-1" d="M196.3,38.28a.38.38,0,0,0,.36-.37.37.37,0,0,0-.39-.35l-37,1.24h0a.36.36,0,0,0-.36.37.37.37,0,0,0,.39.35l37-1.24Z"/><path class="cls-1" d="M140.26,27.9l15.18-.66a.24.24,0,0,0,.24-.25v-.12a.26.26,0,0,0-.27-.24l-15.18.66a.25.25,0,0,0-.24.26v.12A.24.24,0,0,0,140.26,27.9Z"/><path class="cls-1" d="M175.52,35.79l19.68-.86a.27.27,0,0,0,.27-.28v-.13a.28.28,0,0,0-.3-.26l-19.68.85a.29.29,0,0,0-.27.29v.13A.28.28,0,0,0,175.52,35.79Z"/><path class="cls-1" d="M140.1,28.19a.36.36,0,0,0,.36-.33c0-.1.85-10.6,1.2-12.1.27-1.13,1.7-1.29,1.71-1.29s3.62-.4,12.41-.39a.36.36,0,1,0,0-.72,123.12,123.12,0,0,0-12.49.39,2.73,2.73,0,0,0-2.36,1.85c-.36,1.55-1.19,11.77-1.22,12.21a.36.36,0,0,0,.34.38Z"/><path class="cls-1" d="M196.66,24.69a.37.37,0,0,0,.3-.18c.92-1.49-1.15-2.86-1.24-2.92-.41-.31-10.59-8-11.46-8.58a2.58,2.58,0,0,0-1.76-.5l-9.68.42a.37.37,0,0,0-.35.38.36.36,0,0,0,.39.34l9.7-.42h.06a1.94,1.94,0,0,1,1.22.39c.85.56,11.33,8.48,11.44,8.56s1.59,1.07,1,2a.35.35,0,0,0,.13.5A.38.38,0,0,0,196.66,24.69Z"/><path class="cls-1" d="M196.81,25.08a.35.35,0,0,0,.25-.1l2.7-2.55a.35.35,0,0,0,0-.51.4.4,0,0,0-.53,0l-2.7,2.55a.36.36,0,0,0,0,.52A.36.36,0,0,0,196.81,25.08Z"/><path class="cls-1" d="M218.33,30.26l-.72.08a.46.46,0,0,1-.52-.4l-.24-1.8a.42.42,0,0,1,.11-.35.44.44,0,0,1,.34-.16l.68,0A8.67,8.67,0,0,1,218.33,30.26Zm-.73.44h.05l1-.12v-.15a9.13,9.13,0,0,0-.41-3.08l0-.13-1,.05a.84.84,0,0,0-.61.29.8.8,0,0,0-.19.63l.23,1.8A.85.85,0,0,0,217.6,30.7Z"/><g class="cls-5"><path class="cls-6" d="M177.51,30.48a.25.25,0,0,1,.32.13l.61,1.43a.21.21,0,0,1-.13.3.23.23,0,0,1-.31-.12l-.62-1.43A.24.24,0,0,1,177.51,30.48Z"/><path class="cls-6" d="M178.78,30.42a.25.25,0,0,0-.3.16L178,32.06a.23.23,0,0,0,.16.29.24.24,0,0,0,.3-.15l.48-1.48A.24.24,0,0,0,178.78,30.42Z"/><path class="cls-6" d="M180.13,30.45a.49.49,0,0,0-.61.3L179.11,32a.23.23,0,0,0,.16.29.25.25,0,0,0,.31-.15Z"/><path class="cls-6" d="M178.63,30.43a.24.24,0,0,1,.31.13l.62,1.43a.24.24,0,0,1-.13.31.26.26,0,0,1-.32-.13l-.62-1.43A.24.24,0,0,1,178.63,30.43Z"/></g><path class="cls-1" d="M176.83,32.18a2.12,2.12,0,0,0,.81.87,2.35,2.35,0,0,0,.57.23,2.29,2.29,0,0,0,.64.07,2.41,2.41,0,0,0,.82-.2,2.12,2.12,0,0,0,.91-.79,1.8,1.8,0,0,0,.24-.55,2,2,0,0,0,.07-.61,2.1,2.1,0,0,0-.21-.79,2.06,2.06,0,0,0-.81-.87,2,2,0,0,0-.57-.24,2.28,2.28,0,0,0-.64-.06,2,2,0,0,0-.82.2,2,2,0,0,0-1,2.74Zm-.44-1.73a2.42,2.42,0,0,1,.86-1.11,2.55,2.55,0,0,1,1.39-.47,2.51,2.51,0,0,1,1,.14,2.61,2.61,0,0,1,1.15.83,2.44,2.44,0,0,1,.5,1.34,2.37,2.37,0,0,1-.16,1,2.44,2.44,0,0,1-.86,1.1,2.55,2.55,0,0,1-1.39.48,2.7,2.7,0,0,1-1-.15,2.46,2.46,0,0,1-1.15-.83,2.36,2.36,0,0,1-.49-1.34A2.31,2.31,0,0,1,176.39,30.45Z"/></g></g></svg>