<svg xmlns="http://www.w3.org/2000/svg" viewBox="0 0 250.58 269.29"><defs><style>.cls-1,.cls-2,.cls-3,.cls-4,.cls-5,.cls-6,.cls-7,.cls-8{fill:none;stroke:#003459;stroke-linecap:round;stroke-linejoin:round;}.cls-1{stroke-width:1.22px;}.cls-2{stroke-width:0.61px;}.cls-3{stroke-width:0.32px;}.cls-4{stroke-width:0.51px;}.cls-5{stroke-width:0.21px;}.cls-6{stroke-width:0.45px;}.cls-7{stroke-width:1.02px;}.cls-8{stroke-width:1.06px;}.cls-9{fill:#be8b1f;}</style></defs><g id="Layer_2" data-name="Layer 2"><g id="Design"><rect class="cls-1" x="74.63" y="134.55" width="68.44" height="67.58"/><line class="cls-1" x1="112.92" y1="251.58" x2="133.93" y2="251.58"/><polyline class="cls-1" points="141.13 251.58 141.13 202.12 77.52 202.12 77.52 251.58"/><path class="cls-1" d="M.61,108.64H250a0,0,0,0,1,0,0v2.74A17.58,17.58,0,0,1,232.4,129H18.19A17.58,17.58,0,0,1,.61,111.38v-2.74a0,0,0,0,1,0,0Z"/><path class="cls-1" d="M46.93,92.38,31.69,105.25a5.21,5.21,0,0,0-1.81,3.39"/><path class="cls-1" d="M211,92.41l14.91,12.84a5.21,5.21,0,0,1,1.81,3.39"/><path class="cls-1" d="M227.67,78.23s.79,5.26,0,7.43-1.16,5.81-5.69,6.72-174.66,0-175,0c-2.29,0-5.11.34-7.66,0-3.72-.53-5.73-3-6.63-6.5-.64-2.51-1.5-7.15.86-9.09l77.25,1.15Z"/><rect class="cls-1" x="79.94" y="99.63" width="63.13" height="2.72"/><rect class="cls-1" x="86.65" y="102.35" width="50.29" height="6.29"/><line class="cls-1" x1="78.01" y1="128.96" x2="78.01" y2="133.68"/><line class="cls-1" x1="143.07" y1="128.96" x2="143.07" y2="133.68"/><line class="cls-1" x1="91.31" y1="128.96" x2="91.31" y2="133.68"/><line class="cls-1" x1="132.31" y1="128.96" x2="132.31" y2="133.68"/><polyline class="cls-1" points="55.76 92.78 55.76 99.63 67.85 99.63 67.85 92.48"/><polyline class="cls-1" points="56.24 99.63 56.97 102.35 66.4 102.35 67.85 99.63"/><line class="cls-1" x1="56.97" y1="102.35" x2="56.97" y2="108.64"/><line class="cls-1" x1="66.16" y1="102.35" x2="66.16" y2="108.64"/><path class="cls-1" d="M57,129v18.62a10.94,10.94,0,0,0,4.83.85c3.27,0,4.36-.85,4.36-.85V129"/><path class="cls-1" d="M57,147.28l-.73.66v1.94a12.32,12.32,0,0,0,5.32,1.33,15.37,15.37,0,0,0,5.26-1v-2.05l-.66-.61"/><path class="cls-1" d="M57,150.48c.08,1,.55,3.33-.37,3.82-.76.4-2.78.16-3.63.16-1.81,0-1.63,1.46-1.63,3.64,0,2.57-.07,4.83,1.8,4.83,2.44,0,8.41.34,10.36-1.29,3-2.5,2.44-7.35,2.29-11"/><path class="cls-1" d="M68.68,225.56c2.14,2.64,5.92,1.58,8.84,1.72"/><path class="cls-1" d="M67.51,222.83a9.69,9.69,0,0,0,.38,1.19"/><path class="cls-1" d="M66.91,220.44c.07.32.1.43.17.74"/><path class="cls-1" d="M66.33,217c.12.6.21,1.21.31,1.81"/><path class="cls-1" d="M66,214.05l.18,1.51"/><path class="cls-1" d="M65.73,211.3c0,.45.09.9.13,1.35"/><path class="cls-1" d="M65.66,208.73c0,.29,0,.58,0,.86"/><path class="cls-1" d="M65.67,205.83c0,.36,0,.73,0,1.09"/><path class="cls-1" d="M65.73,202.69c0,.46,0,.92,0,1.38"/><path class="cls-1" d="M65.88,199.84c0,.46,0,.91-.08,1.37"/><path class="cls-1" d="M66.09,197.18c0,.32-.06.64-.08,1"/><path class="cls-1" d="M66.35,194.67c0,.21,0,.42-.08.63"/><path class="cls-1" d="M66.83,191.79c-.09.44-.18.88-.25,1.31"/><path class="cls-1" d="M67.54,188.45c-.16.63-.3,1.27-.43,1.91"/><path class="cls-1" d="M68.23,185.6c-.12.44-.23.87-.34,1.31"/><path class="cls-1" d="M69.1,182.8,68.71,184"/><path class="cls-1" d="M74.63,179.51H70.45a10.69,10.69,0,0,0-.72,1.57"/><path class="cls-2" d="M67.93,181.47h6.7a0,0,0,0,1,0,0v1a0,0,0,0,1,0,0h-6.7a.49.49,0,0,1-.49-.49v0A.49.49,0,0,1,67.93,181.47Z"/><path class="cls-2" d="M67.31,184.33h7.32a0,0,0,0,1,0,0v1a0,0,0,0,1,0,0H67.31a.49.49,0,0,1-.49-.49v0A.49.49,0,0,1,67.31,184.33Z"/><path class="cls-2" d="M66.4,187.19h8.23a0,0,0,0,1,0,0v1a0,0,0,0,1,0,0H66.4a.49.49,0,0,1-.49-.49v0A.49.49,0,0,1,66.4,187.19Z"/><path class="cls-2" d="M74.55,191.55l-8.61,0a.49.49,0,0,1-.49-.49h0a.49.49,0,0,1,.49-.49h8.61Z"/><path class="cls-2" d="M65.45,193.36h8.72a0,0,0,0,1,0,0v1a0,0,0,0,1,0,0H65.45a.49.49,0,0,1-.49-.49v0a.49.49,0,0,1,.49-.49Z"/><path class="cls-2" d="M64.83,195.76h9.74a0,0,0,0,1,0,0v1a0,0,0,0,1,0,0H64.83a.49.49,0,0,1-.49-.49v0A.49.49,0,0,1,64.83,195.76Z"/><path class="cls-2" d="M64.83,198.62h9.74a0,0,0,0,1,0,0v1a0,0,0,0,1,0,0H64.83a.49.49,0,0,1-.49-.49v0A.49.49,0,0,1,64.83,198.62Z"/><path class="cls-2" d="M64.71,201.47h10a0,0,0,0,1,0,0v1a0,0,0,0,1,0,0h-10a.49.49,0,0,1-.49-.49v0a.49.49,0,0,1,.49-.49Z"/><path class="cls-2" d="M64.46,204.33H77.4a0,0,0,0,1,0,0v1a0,0,0,0,1,0,0H64.46a.49.49,0,0,1-.49-.49v0A.49.49,0,0,1,64.46,204.33Z"/><path class="cls-2" d="M64.71,207.19H77.4a0,0,0,0,1,0,0v1a0,0,0,0,1,0,0H64.71a.49.49,0,0,1-.49-.49v0a.49.49,0,0,1,.49-.49Z"/><path class="cls-2" d="M64.71,210H77.4a0,0,0,0,1,0,0v1a0,0,0,0,1,0,0H64.71a.49.49,0,0,1-.49-.49v0a.49.49,0,0,1,.49-.49Z"/><path class="cls-2" d="M65.16,212.9H77.4a0,0,0,0,1,0,0v1a0,0,0,0,1,0,0H65.16a.49.49,0,0,1-.49-.49v0A.49.49,0,0,1,65.16,212.9Z"/><path class="cls-2" d="M65.47,215.76H77.08a0,0,0,0,1,0,0v1a0,0,0,0,1,0,0H65.47a.49.49,0,0,1-.49-.49v0A.49.49,0,0,1,65.47,215.76Z"/><path class="cls-2" d="M65.73,219H77.1a0,0,0,0,1,0,0v1a0,0,0,0,1,0,0H65.73a.49.49,0,0,1-.49-.49v0A.49.49,0,0,1,65.73,219Z"/><path class="cls-2" d="M66.15,221.48H77.52a0,0,0,0,1,0,0v1a0,0,0,0,1,0,0H66.15a.49.49,0,0,1-.49-.49v0A.49.49,0,0,1,66.15,221.48Z"/><path class="cls-2" d="M66.4,224.33H77.52a0,0,0,0,1,0,0v1a0,0,0,0,1,0,0H66.4a.49.49,0,0,1-.49-.49v0a.49.49,0,0,1,.49-.49Z"/><path class="cls-1" d="M52,154.11s-6.61-1.85-9.44,1.37c-1.85,2.12-3,5.09-4.25,7.58q-2.12,4.17-4.05,8.43-3.87,8.5-7,17.33A169.72,169.72,0,0,0,21,210.56c-.1.47-.2.94-.26,1.42a7.77,7.77,0,0,1,3.49-.3,31.41,31.41,0,0,1,4.89,1"/><path class="cls-1" d="M51.8,162.17s-2.17,0-4.35,4.84c-2,4.34-10.64,26.35-10.64,26.35"/><path class="cls-1" d="M33.58,218.76l-3.7-3s-2.66-12.12.32-18.58l4.11-3.33,11.29-.49s-2.58,4.65-2.34,13,.81,10.92,1.69,12.38C45,218.76,33.3,218.48,33.58,218.76Z"/><path class="cls-2" d="M33.71,194.34a44.77,44.77,0,0,0-1.82,12.85c0,7.39,1.69,11.57,1.69,11.57"/><polyline class="cls-1" points="59.75 199.59 51.8 199.59 51.8 194.34 63.81 194.34 63.81 199.59 63.33 199.59"/><rect class="cls-1" x="50.76" y="192.45" width="14.08" height="1.89"/><path class="cls-1" d="M63.81,192.45H52l.48-4.82a1.38,1.38,0,0,1,1.37-1.38H62a1.37,1.37,0,0,1,1.37,1.38Z"/><path class="cls-1" d="M45.6,193.36c.4-.07,5.16,0,5.16,0"/><line class="cls-1" x1="44.95" y1="218.76" x2="66.58" y2="218.76"/><path class="cls-1" d="M20.69,212l-.77,2.82s3.59-1.91,10,1"/><path class="cls-1" d="M19.92,214.8l-.69,3.41a6.74,6.74,0,0,1,5.67-1.47,13.47,13.47,0,0,1,5.78,2l.46-2"/><path class="cls-1" d="M19.23,218.21a10.3,10.3,0,0,0,.44,6.12,6.8,6.8,0,0,0,3,3"/><path class="cls-1" d="M28.5,223.48c.28-4.72,2.64-4.43,2.64-4.43H32.8a10.13,10.13,0,0,0-1.69,4.43"/><path class="cls-1" d="M33.71,223.4H24.39S22.7,225,22.7,228.77s1.45,4.75,1.45,4.75h9.56"/><path class="cls-2" d="M31.89,223.4a10.9,10.9,0,0,0-1.24,5.45,16.19,16.19,0,0,0,.61,4"/><path class="cls-2" d="M27.3,223.4a11,11,0,0,0-1.25,5.45,16.39,16.39,0,0,0,.62,4"/><line class="cls-2" x1="32.8" y1="220.71" x2="66.97" y2="220.71"/><line class="cls-2" x1="38.34" y1="220.71" x2="38.99" y2="219.04"/><path class="cls-2" d="M34.47,220.71l-.76,4.11h2l-.56,3.64-1.94.39a4.43,4.43,0,0,0,.45,2.82l.77,2.5,1.28,1.05H46"/><path class="cls-2" d="M33.71,228.76c.08,0,.6-3.94.6-3.94"/><path class="cls-2" d="M35.52,225.15A1.8,1.8,0,0,0,34,226.59a1.94,1.94,0,0,0,.78,1.88"/><path class="cls-2" d="M69.45,226.32a11,11,0,0,1-3.13-.15l-.16,3.32a9.32,9.32,0,0,0,1,4.92"/><line class="cls-2" x1="66.16" y1="229.49" x2="77.08" y2="229.49"/><line class="cls-2" x1="35.84" y1="226.47" x2="66.33" y2="226.47"/><line class="cls-2" x1="33.34" y1="230.64" x2="66.16" y2="230.64"/><path class="cls-2" d="M46,234.57H72.36s.06,2.36,0,3.15c0,.54-.24,1.65-1,1.93H45a3.83,3.83,0,0,0,1.25-2.54C46.2,236.5,46,234.57,46,234.57Z"/><path class="cls-2" d="M67.94,234.57a3.72,3.72,0,0,1,0-1.89h2.92"/><path class="cls-2" d="M70.47,229.49a3.45,3.45,0,0,0,.27,2.53,1,1,0,0,1,.06.85,2.77,2.77,0,0,0-.11,1.54"/><path class="cls-2" d="M72.36,234.57a2.29,2.29,0,0,1,1.54-.76h3.2"/><path class="cls-2" d="M72.36,235.6a2.28,2.28,0,0,1,1.54-.77h3.2"/><path class="cls-2" d="M77.1,236.06H75.23a2.28,2.28,0,0,0-1.54.77H72.61"/><line class="cls-2" x1="46.11" y1="237.82" x2="71.96" y2="237.82"/><path class="cls-2" d="M21.57,209.45a15.83,15.83,0,0,1,7.5.94"/><path class="cls-2" d="M21.62,210.47a15.83,15.83,0,0,1,7.5.94"/><path class="cls-2" d="M21.57,208.3a15.83,15.83,0,0,1,7.5.94"/><path class="cls-2" d="M21.57,207a15.83,15.83,0,0,1,7.5.94"/><path class="cls-2" d="M22.16,205.67a16.1,16.1,0,0,1,6.91,1"/><path class="cls-2" d="M22.51,204.36a15.79,15.79,0,0,1,6.56,1"/><path class="cls-2" d="M22.74,203.05a15.89,15.89,0,0,1,6.33,1"/><path class="cls-2" d="M23.09,201.75a15.67,15.67,0,0,1,6,1"/><path class="cls-2" d="M23.46,200.52a13.81,13.81,0,0,1,5.61,1"/><path class="cls-2" d="M23.85,199.16a12.06,12.06,0,0,1,5.22,1"/><path class="cls-2" d="M24.18,198.06a10.38,10.38,0,0,1,4.89.84"/><path class="cls-2" d="M24.35,196.91a13.43,13.43,0,0,1,5.53,1"/><path class="cls-2" d="M24.93,195.77a13.51,13.51,0,0,1,5.52.95"/><path class="cls-2" d="M25.62,194.63a16,16,0,0,1,6,1.2"/><path class="cls-2" d="M26.08,193.39a14.7,14.7,0,0,1,6.72,1.69"/><path class="cls-2" d="M26.08,192.14c2.3-.22,5.62.87,7.63,2"/><path class="cls-2" d="M26.85,191c2.31-.22,6.58,1.34,8.59,2.42"/><path class="cls-2" d="M27.06,189.92c2.31-.22,7.93,1.58,9.66,3.18"/><path class="cls-2" d="M27.69,188.93c2.31-.22,7.92,1.58,9.65,3.18"/><path class="cls-2" d="M28,188c2.31-.22,7.92,1.58,9.66,3.18"/><path class="cls-2" d="M28,186.82c2.31-.22,7.92,1.58,9.66,3.18"/><path class="cls-2" d="M28.62,185.91c2.3-.22,7.92,1.58,9.65,3.18"/><path class="cls-2" d="M29.26,185c2.31-.22,7.92,1.58,9.65,3.18"/><path class="cls-2" d="M29.44,183.89c2.31-.22,7.92,1.58,9.65,3.18"/><path class="cls-2" d="M29.92,182.87c2.3-.21,7.92,1.59,9.65,3.19"/><path class="cls-2" d="M30.27,181.93c2.31-.21,7.92,1.59,9.65,3.19"/><path class="cls-2" d="M30.81,181.07c2.31-.22,7.92,1.58,9.66,3.18"/><path class="cls-2" d="M31.15,180.06c2.3-.22,7.92,1.58,9.65,3.18"/><path class="cls-2" d="M31.5,179.12c2.31-.22,7.92,1.59,9.65,3.19"/><path class="cls-2" d="M31.89,178.15c2.31-.22,7.92,1.58,9.66,3.18"/><path class="cls-2" d="M32.36,177.29c2.31-.22,7.92,1.58,9.66,3.18"/><path class="cls-2" d="M32.8,176.37c2.31-.22,7.92,1.58,9.65,3.18"/><path class="cls-2" d="M33,175.33c2.31-.22,7.92,1.58,9.65,3.18"/><path class="cls-2" d="M33,174.36c2.31-.22,7.92,1.58,9.65,3.18"/><path class="cls-2" d="M33.44,173.5c2.31-.21,7.92,1.59,9.66,3.19"/><path class="cls-2" d="M33.89,172.68c2.31-.22,7.92,1.58,9.66,3.18"/><path class="cls-2" d="M34.42,172c2.31-.22,7.92,1.58,9.65,3.18"/><path class="cls-2" d="M34.74,171.08c2.31-.22,7.92,1.58,9.66,3.18"/><path class="cls-2" d="M35.1,170.38c2.3-.22,7.92,1.58,9.65,3.18"/><path class="cls-2" d="M35.1,169.48c2.3-.22,7.92,1.58,9.65,3.18"/><path class="cls-2" d="M35.64,168.63c2.31-.22,7.92,1.58,9.65,3.18"/><path class="cls-2" d="M36.16,167.8c2.31-.22,7.92,1.58,9.66,3.18"/><path class="cls-2" d="M36.69,167a18.93,18.93,0,0,1,9.44,3"/><path class="cls-2" d="M37.21,166.13A17.84,17.84,0,0,1,46.48,169"/><path class="cls-2" d="M37.73,165.3a19.32,19.32,0,0,1,9.13,2.79"/><path class="cls-2" d="M38,164.46c3.29-.14,6.45,1.31,9.25,2.9"/><path class="cls-2" d="M38.5,163.63a18,18,0,0,1,9.21,2.86"/><path class="cls-2" d="M39,162.8a18.22,18.22,0,0,1,9.17,2.82"/><path class="cls-2" d="M39.3,162a18.38,18.38,0,0,1,9.17,2.82"/><path class="cls-2" d="M39.57,161.1a18.41,18.41,0,0,1,9.17,2.82"/><path class="cls-2" d="M39.85,160.26A15.57,15.57,0,0,1,49,163.08"/><path class="cls-2" d="M40.12,159.41c3.43-.26,7.59.85,9.67,3.39"/><path class="cls-2" d="M40.8,158.26a16.94,16.94,0,0,1,6.42,1.25,7.6,7.6,0,0,1,3.34,2.66"/><path class="cls-2" d="M41.58,157.23a17.88,17.88,0,0,1,5.28.87c1.88.78,3.7,1.63,4.36,3.85"/><path class="cls-2" d="M42.29,156.29a12.91,12.91,0,0,1,5.09.75c2.15.94,3.72,2.89,3.69,3.6"/><path class="cls-2" d="M43.1,155.29a11,11,0,0,1,4.61.67,5.2,5.2,0,0,1,3.21,3.63"/><path class="cls-2" d="M44.75,154.23a6.93,6.93,0,0,1,4.66,1.64,4.25,4.25,0,0,1,1.51,2.93"/><path class="cls-2" d="M49,153.87a6.86,6.86,0,0,1,2,3.36"/><rect class="cls-2" x="44.57" y="204.07" width="17.6" height="0.75" rx="0.24"/><rect class="cls-2" x="44.57" y="209.64" width="17.6" height="0.75" rx="0.24"/><circle class="cls-2" cx="54.14" cy="207.36" r="1.53"/><circle class="cls-3" cx="54.14" cy="207.36" r="0.81"/><circle class="cls-2" cx="61.48" cy="199.95" r="1.53"/><circle class="cls-3" cx="61.48" cy="199.95" r="0.81"/><circle class="cls-2" cx="47.53" cy="215.4" r="1.53"/><circle class="cls-3" cx="47.53" cy="215.4" r="0.81"/><circle class="cls-2" cx="47.53" cy="200.19" r="1.53"/><circle class="cls-3" cx="47.53" cy="200.19" r="0.81"/><circle class="cls-2" cx="61.8" cy="215.4" r="1.53"/><circle class="cls-3" cx="61.8" cy="215.4" r="0.81"/><path class="cls-1" d="M136,251.66h5.19c0,2.69,0,5.38,0,8.07"/><path class="cls-1" d="M77.52,259.73c-.07-2.77-.07-5.33-.07-8.07,11.16,0,22.09,0,33.24-.08"/><polygon class="cls-1" points="98.41 263.52 83.73 263.52 86.31 258.36 97.44 258.36 98.41 263.52"/><polyline class="cls-1" points="83.33 263.52 83.33 265.45 98.41 265.45 98.41 263.52"/><polyline class="cls-1" points="84.46 265.45 84.94 267.18 97.28 267.18 97.68 265.93"/><polygon class="cls-1" points="116.06 263.52 130.73 263.52 128.15 258.36 117.03 258.36 116.06 263.52"/><polyline class="cls-1" points="131.14 263.52 131.14 265.45 116.06 265.45 116.06 263.52"/><polyline class="cls-1" points="130.01 265.45 129.53 267.18 117.19 267.18 116.79 265.93"/><path class="cls-1" d="M136,259.72c1.67.17,3.5-.38,5.15.36.18,0,.55.55.73.91a5.62,5.62,0,0,1,.55,1.65c.92,2,1.83,4,2.65,6-.6,0-.31-.79,0,0h-72c.16-.37.32-.73.49-1.09a11.74,11.74,0,0,1-.49,1.09c1.23-2.93,2.52-5.86,4-8.79,2.93-.55,5.68,0,8.55-.16"/><path class="cls-1" d="M128.84,259.73c1.65,0,3.31,0,5,0"/><path class="cls-1" d="M112.9,259.72c1.29,0,2.58,0,3.87,0"/><path class="cls-1" d="M97.69,259.73q6.51,0,13,0"/><polygon class="cls-2" points="128.81 243.2 134.22 248.68 134.22 266.32 136.88 266.32 137.26 264.97 135.57 264.97 135.57 248.36 129.02 241.83 117.78 241.83 111.23 248.36 111.23 264.97 109.54 264.97 109.92 266.32 112.58 266.32 112.58 248.68 117.98 243.2 128.81 243.2"/><circle class="cls-2" cx="83.33" cy="243.28" r="1.33"/><circle class="cls-2" cx="137.71" cy="243.28" r="1.33"/><polyline class="cls-2" points="77.1 243.84 71.03 253.28 77.4 253.28"/><polyline class="cls-2" points="71.03 253.28 71.03 259.16 77.52 259.16"/><ellipse class="cls-2" cx="74.85" cy="250.86" rx="1.22" ry="0.73"/><polyline class="cls-2" points="142.59 202.49 142.59 252.95 141.16 252.95"/><path class="cls-2" d="M144.2,225.62h4.32a.85.85,0,0,1,.84.84V253h-6.77"/><path class="cls-2" d="M149.36,253v5.91a1.43,1.43,0,0,1-1.44,1.43h-6.38"/><line class="cls-2" x1="144.44" y1="202.48" x2="144.44" y2="221.75"/><path class="cls-2" d="M142.59,223.93a34.26,34.26,0,0,0,5.47-7c1.27-2.15,3.24-5,3.56-7.53"/><path class="cls-2" d="M142.59,224.66a13.6,13.6,0,0,0,7.66-8.19c1.71-4.67,1.59-9.48,1.32-14.36-.36-6.63-1.2-13.23-2.07-19.81-1-7.7-1.15-16.59-5.87-23.19"/><path class="cls-2" d="M143.07,226.27c4.43-1.61,7.51-5.66,8.86-9.34,1.7-4.67,1.77-9.94,1.5-14.82-.37-6.63-1.21-13.23-2.08-19.81-1-7.7-1.11-19.24-8.28-25.85"/><polyline class="cls-2" points="143.07 202.49 145.33 202.49 145.33 196.84 146.29 196.12 146.29 189.26 145.09 187.57 145.41 186.2 145.41 185.15 144.44 183.94 144.44 160.74"/><path class="cls-2" d="M146.29,196.76V184.67a2.1,2.1,0,0,1,1.46-.65"/><line class="cls-2" x1="155.53" y1="196.76" x2="155.53" y2="184.67"/><path class="cls-2" d="M151.05,200.39c-4.67.4-4.76-1.21-4.76-1.21v-2.42H147s.24.81,4,.65"/><path class="cls-2" d="M153.55,200.39c2.82,0,2.7-1.21,2.7-1.21v-2.42h-.72s0,.65-2.34.65"/><path class="cls-2" d="M147,200c.12.06,0,10.8,0,10.8s.28,2.5,1.65,2.5H150"/><path class="cls-2" d="M149.4,182.85h-.89l-.56.2v1.42a5.55,5.55,0,0,0,1.85.15"/><path class="cls-2" d="M146.29,184.67s.73.64,3.51.64"/><line class="cls-2" x1="148.51" y1="182.85" x2="148.51" y2="181.61"/><path class="cls-2" d="M148.51,176.16h0a.76.76,0,0,0-.76.77v4.54h1.64"/><path class="cls-2" d="M150.66,176.16h2.12s.77.34.77.77v4.54h-2.14"/><polyline class="cls-2" points="153.19 181.61 153.19 182.85 151.38 182.85"/><path class="cls-2" d="M153.19,182.85s.68,0,.68.57v1.05a5,5,0,0,1-2.14.2"/><path class="cls-2" d="M151.75,185.31s3.34,0,3.74-.62S154,184,154,184"/><path class="cls-2" d="M155.2,200.19v9.23s-.19,2.83-.76,3.4a1.54,1.54,0,0,1-1.25.47"/><rect class="cls-2" x="87.08" y="146.26" width="8.83" height="12.01"/><rect class="cls-4" x="87.83" y="147.28" width="7.32" height="9.96"/><circle class="cls-4" cx="91.49" cy="152.26" r="3.01"/><circle class="cls-5" cx="91.49" cy="152.26" r="1.25"/><rect class="cls-2" x="102.68" y="146.26" width="8.83" height="12.01"/><rect class="cls-4" x="103.43" y="147.28" width="7.32" height="9.96"/><circle class="cls-4" cx="107.09" cy="152.26" r="3.01"/><circle class="cls-5" cx="107.09" cy="152.26" r="1.25"/><rect class="cls-2" x="118.28" y="146.26" width="8.83" height="12.01"/><rect class="cls-4" x="119.03" y="147.28" width="7.32" height="9.96"/><circle class="cls-4" cx="122.69" cy="152.26" r="3.01"/><circle class="cls-5" cx="122.69" cy="152.26" r="1.25"/><rect class="cls-5" x="115.92" y="161" width="10.04" height="17.41" rx="1.09"/><rect class="cls-2" x="115.92" y="161" width="10.04" height="17.41" rx="1.09"/><rect class="cls-2" x="117.05" y="165.86" width="7.78" height="9.76" rx="0.72"/><rect class="cls-2" x="118.28" y="167" width="5.14" height="3.39" rx="1.02"/><rect class="cls-2" x="118.28" y="170.74" width="5.14" height="3.39" rx="1.02"/><line class="cls-2" x1="120.85" y1="167.72" x2="120.85" y2="169.54"/><circle class="cls-2" cx="120.85" cy="172.45" r="0.86"/><circle class="cls-2" cx="120.94" cy="162.6" r="0.51"/><circle class="cls-2" cx="120.94" cy="177.23" r="0.51"/><circle class="cls-2" cx="107.09" cy="169.29" r="2.6"/><rect class="cls-2" x="95.42" y="166.39" width="4.66" height="5.8"/><rect class="cls-6" x="96.02" y="167.13" width="3.46" height="4.31"/><circle class="cls-6" cx="97.75" cy="168.38" r="0.43"/><path class="cls-6" d="M91.79,131s4.17,1.76,5.53,1.33,2.64-1.51,2.76-2.6"/><path class="cls-6" d="M98.18,134.16s4.2-1.15,4.5-5.2"/><path class="cls-6" d="M103.43,129.38a17.34,17.34,0,0,0,.6,5.78c1.47,5.1,7.46,7.12,12.25,6.19s7.55-4.45,10.58-7.89l-1.81-.06c-.19,0-.88,1-1,1.11-.57.59-1.44,1.58-2,2.16-3.32,3.29-9,4.81-13.29,2.36-3.13-1.78-4-5.64-3.81-9,0-.22,0-.43.07-.65"/><path class="cls-6" d="M109.27,129.38s.66,3.57,2.54,4.78"/><path class="cls-6" d="M113.06,129.38s.66,3.57,2.54,4.78"/><line class="cls-6" x1="115.92" y1="128.96" x2="115.92" y2="134.16"/><line class="cls-6" x1="118.7" y1="128.96" x2="118.7" y2="134.16"/><line class="cls-6" x1="120.43" y1="128.96" x2="120.43" y2="134.16"/><line class="cls-6" x1="122.69" y1="128.96" x2="122.69" y2="134.16"/><rect class="cls-2" x="106.12" y="132.35" width="2.72" height="1.81"/><path class="cls-1" d="M229.5,45.59c.65,7.63-6.2,12.23-12.27,13.2-14.94,2.37-30.16,2.05-45.26,1.29-33.62-1.68-67.06-1.65-100.65-.37C64,60,56.56,60.23,49.18,60c-4.35-.15-9.16-.19-13.3-1.79C27.58,55,23.29,45.26,25.33,36.48l.39-1.56"/><path class="cls-1" d="M167.74,24.67c1.8.17,4.14.34,5.94.52,14.7,1.47,32.46,2.42,46.91,8.66a15.07,15.07,0,0,1,7.48,6.78"/><path class="cls-1" d="M75,20.63c5,.05,9.46.13,14.48.24,25.4.54,50.89,1.35,76.22,3.57"/><path class="cls-1" d="M72.88,20.62c-2.52,0-4.58,0-7.1-.05-7.86,0-16.3-.61-24,.69-.34,0-.68.12-1,.19a19.09,19.09,0,0,0-12.64,8.79"/><path class="cls-1" d="M167.74,17c15.23,1.89,36.38,4.85,46.08,7.38,11.55,3,14.14,8.75,15.35,17"/><path class="cls-1" d="M75.11,10.9c22.83.64,68.47,3.32,79.58,4.64,2.73.33,6.4.76,10.63,1.28"/><path class="cls-1" d="M25.62,31.65C27,24.56,30.21,18.19,37.49,15c9-3.94,19.63-4.24,29.21-4.24,1.73,0,3.7,0,6.17.1"/><path class="cls-1" d="M74.7,77.39V62.62a.41.41,0,0,1,.41-.42h9.15a.41.41,0,0,1,.41.42V77.54"/><polyline class="cls-1" points="84.67 62.62 88.75 62.62 89.94 73.45 84.67 73.45"/><path class="cls-1" d="M88.72,59.9,90,74.47a1.32,1.32,0,0,0,2.19-.3L91,59.36"/><polyline class="cls-1" points="92.41 72.24 95.5 72.24 95.5 63.56 91.51 63.56"/><path class="cls-1" d="M142,78V62.63a.42.42,0,0,0-.42-.42h-9.14a.42.42,0,0,0-.42.42v15"/><polyline class="cls-1" points="132 62.63 128.43 62.63 126.73 73.46 132 73.46"/><path class="cls-1" d="M129.07,58.82l-2.43,15.66a1.32,1.32,0,0,1-2.2-.3l2.42-15.56"/><polyline class="cls-1" points="124.26 72.25 121.17 72.25 121.17 63.57 125.17 63.57"/><line class="cls-1" x1="120.68" y1="65.13" x2="96" y2="65.12"/><line class="cls-1" x1="120.68" y1="70.11" x2="96" y2="70.1"/><line class="cls-2" x1="30.91" y1="106.95" x2="56.19" y2="106.95"/><line class="cls-2" x1="67.05" y1="106.95" x2="86.65" y2="106.95"/><line class="cls-2" x1="136.95" y1="106.95" x2="227.56" y2="106.95"/><polyline class="cls-1" points="106.29 12.1 106.29 4 110.38 4 110.38 12.1"/><rect class="cls-1" x="101.52" y="0.61" width="13.63" height="3.39" rx="1.69"/><path class="cls-1" d="M235.62,52.83c-.94-9.43-10.94-14.47-18.85-16.54-27-7-55.76-6.66-83.51-7.74-29.75-1.16-59.52-1.48-89.28-1.8C29.87,26.6,19.08,32.11,18,47c0,0-.32,2.6.23,3.51a.75.75,0,0,0,1.27.11C20.14,34.39,29.87,28.52,44,28.67c29.76.33,59.53.65,89.28,1.8,27.75,1.08,56.47.7,83.51,7.75,7.91,2.06,18,7.73,17.18,17.39,0,0-.08,1,1.14,0S235.62,52.83,235.62,52.83Z"/><path class="cls-7" d="M73.23,26.75V10.25a.59.59,0,0,1,.59-.59h.28a.59.59,0,0,1,.6.59v16.5"/><path class="cls-7" d="M166,29.17V12.67a.6.6,0,0,1,.59-.59h.29a.6.6,0,0,1,.59.59v16.5"/><path class="cls-1" d="M186.12,129c.06.3,2.06,4.11,2.06,4.11l3.08-1.21L191,129"/><polyline class="cls-1" points="143.07 133.07 146.29 133.07 146.29 129.26"/><polyline class="cls-1" points="146.29 133.07 146.29 134.1 148.57 134.1 148.57 128.96"/><polyline class="cls-1" points="148.94 130.41 153.23 130.41 153.23 134.82 152.15 134.82"/><path class="cls-1" d="M153.52,134l1.31-.31v-2.21l-1.31-.51"/><path class="cls-1" d="M155.22,131.53h1.7a5.68,5.68,0,0,1,.78,2.5v1.76h-1.24l-.52-1.86-1.11-.21"/><path class="cls-2" d="M143.07,137.66s-.48-.36,3.22-1.39,2.89-2.54,3.1-3.2a1.71,1.71,0,0,1,2.34-.56,1.06,1.06,0,0,1,.38,1.15s.27,2.73-3.54,4.37-5.52,2.23-5.52,2.23"/><path class="cls-2" d="M143.07,144.74a19.62,19.62,0,0,0,5.24-1.39c1.33-.57,3.24-2.24,3.15-3.57a1.57,1.57,0,0,0-1.2-1.21c-.8-.13-.89.74-1.3,1.24-1.21,1.48-4,2.32-5.91,2.45"/><path class="cls-2" d="M148.57,140.22a2,2,0,0,1,1-2.7,2.26,2.26,0,0,1,3.17,2.74,1.83,1.83,0,0,1-2.08,1.32"/><path class="cls-1" d="M152.46,138a9.45,9.45,0,0,1,0-2.7"/><path class="cls-1" d="M157,131.83l1-.13a2,2,0,0,0,.81-.23,1.39,1.39,0,0,0,.59-1.08,4.14,4.14,0,0,0-.14-1.26"/><path class="cls-2" d="M159.64,129.56s12.94,11.91,15.36,13.55,11,3.48,13.18-3.27a20.59,20.59,0,0,0,1.15-6.77"/><path class="cls-2" d="M160.73,129s7.8,7.56,13.42,11.79,10.22,2.72,12,.42a13.59,13.59,0,0,0,2.24-7.86"/><line class="cls-2" x1="163.27" y1="129.13" x2="166.25" y2="134.1"/><path class="cls-2" d="M164.76,129.13a55.8,55.8,0,0,0,5.07,8.12"/><path class="cls-2" d="M185.1,143.69a7.76,7.76,0,0,0,4.47-5.13,13.83,13.83,0,0,0,.71-6.31"/><rect class="cls-1" x="81.76" y="92.72" width="6.96" height="1.77"/><polyline class="cls-1" points="81.92 94.49 81.92 96.67 88.48 96.67 88.48 94.49"/><line class="cls-1" x1="81.92" y1="96.67" x2="81.92" y2="98.85"/><line class="cls-1" x1="88.48" y1="96.67" x2="88.48" y2="99.63"/><polygon class="cls-8" points="141.13 94.37 135.86 94.37 133.76 92.6 142.59 92.6 141.13 94.37"/><polyline class="cls-8" points="135.98 94.37 135.98 96.55 140.96 96.55 140.96 94.37"/><line class="cls-8" x1="135.98" y1="96.55" x2="135.98" y2="98.72"/><line class="cls-8" x1="140.96" y1="96.55" x2="140.96" y2="99.51"/><rect class="cls-8" x="97.79" y="92.78" width="4.5" height="1.71"/><polyline class="cls-8" points="98.09 94.79 98.09 96.19 101.99 96.19 101.99 94.49"/><line class="cls-8" x1="98.77" y1="96.55" x2="98.77" y2="97.63"/><line class="cls-8" x1="101.31" y1="96.55" x2="101.31" y2="97.63"/><polyline class="cls-8" points="97.92 99.51 97.92 98.15 102.17 98.15 102.17 99.63"/><rect class="cls-8" x="109.26" y="92.78" width="4.5" height="1.71"/><polyline class="cls-8" points="109.56 94.79 109.56 96.19 113.45 96.19 113.45 94.49"/><line class="cls-8" x1="110.24" y1="96.55" x2="110.24" y2="97.63"/><line class="cls-8" x1="112.78" y1="96.55" x2="112.78" y2="97.63"/><polyline class="cls-8" points="109.38 99.51 109.38 98.15 113.63 98.15 113.63 99.63"/><rect class="cls-8" x="120.72" y="92.78" width="4.5" height="1.71"/><polyline class="cls-8" points="121.02 94.79 121.02 96.19 124.92 96.19 124.92 94.49"/><line class="cls-8" x1="121.7" y1="96.55" x2="121.7" y2="97.63"/><line class="cls-8" x1="124.24" y1="96.55" x2="124.24" y2="97.63"/><polyline class="cls-8" points="120.85 99.51 120.85 98.15 125.09 98.15 125.09 99.63"/><path class="cls-9" d="M211.88,77.75A2.78,2.78,0,0,0,209.1,75L85.2,74.89a13.43,13.43,0,0,0-2.15-.09c-3.74,0-33.38-.52-33.38-.52s-3.19-.17-3.33,1.39L42.63,99.2S85.58,111,96.92,111H142A17.63,17.63,0,0,1,146.81,123v21.67h23.3L168.92,121c-.35-7.45-3.85-13.29-11.25-14.18-2.43-.29-7.49-.47-10.86-.47-22.33,0-36.53-11.15-41.56-13.73S87.5,77.75,87.5,77.75Z"/><path class="cls-1" d="M211.88,77.75c0-1.53-.16-2.78-1.69-2.78L83.05,74.8c-3.74,0-33.38-.52-33.38-.52s-3.19-.17-3.33,1.39L42.63,99.2S85.58,111,96.92,111H142A17.63,17.63,0,0,1,146.81,123v21.67h23.3L168.92,121c-.35-7.45-3.85-13.29-11.25-14.18-2.43-.29-7.49-.47-10.86-.47-22.33,0-36.53-11.15-41.56-13.73S87.5,77.75,87.5,77.75Z"/><line class="cls-1" x1="47.13" y1="99.75" x2="51.22" y2="74.98"/><line class="cls-1" x1="43.61" y1="95.46" x2="47.61" y2="96.33"/><line class="cls-1" x1="43.61" y1="93.16" x2="48.03" y2="94.11"/><line class="cls-1" x1="45.09" y1="84.17" x2="49.09" y2="85.04"/><line class="cls-1" x1="45.61" y1="81.87" x2="49.52" y2="82.83"/><circle class="cls-2" cx="48.76" cy="76.63" r="0.75"/><path class="cls-2" d="M109,106.29c9.5.6,25.13.26,35.55.26"/><path class="cls-1" d="M69.36,74.61c6.93,2,15.84,3.15,21.57,6.38"/><path class="cls-1" d="M77,74.73c5,1.07,8.52.92,10.81,3.28"/></g></g></svg>