<svg width="24" height="24" xmlns="http://www.w3.org/2000/svg">
    <path fill="currentColor" d="M7 3h6V1c0-.55228475.4477153-1 1-1s1 .44771525 1 1v2h3c1.1045695 0 2 .8954305 2 2v12c0 1.1045695-.8954305 2-2 2H2c-1.1045695 0-2-.8954305-2-2V5c0-1.1045695.8954305-2 2-2h3V1c0-.55228475.44771525-1 1-1s1 .44771525 1 1v2zm0 2v1c0 .55228475-.44771525 1-1 1s-1-.44771525-1-1V5H2v12h16V5h-3v1c0 .55228475-.4477153 1-1 1s-1-.44771525-1-1V5H7zm-1 6c-.55228475 0-1-.4477153-1-1 0-.55228475.44771525-1 1-1s1 .44771525 1 1c0 .5522847-.44771525 1-1 1zm0 4c-.55228475 0-1-.4477153-1-1s.44771525-1 1-1 1 .4477153 1 1-.44771525 1-1 1zm4-4c-.55228475 0-1-.4477153-1-1 0-.55228475.44771525-1 1-1 .5522847 0 1 .44771525 1 1 0 .5522847-.4477153 1-1 1zm0 4c-.55228475 0-1-.4477153-1-1s.44771525-1 1-1c.5522847 0 1 .4477153 1 1s-.4477153 1-1 1zm4-4c-.5522847 0-1-.4477153-1-1 0-.55228475.4477153-1 1-1s1 .44771525 1 1c0 .5522847-.4477153 1-1 1zm0 4c-.5522847 0-1-.4477153-1-1s.4477153-1 1-1 1 .4477153 1 1-.4477153 1-1 1z"/>
</svg>
