<svg viewBox="0 0 384 384" fill="none" xmlns="http://www.w3.org/2000/svg">
    <path d="M148.797 53.42c-2.28-.2606-4.573-.3951-6.868-.4029-10.657.3729-20.345 3.2475-28.717 10.1876-4.368 3.7662-8.098 8.2137-11.047 13.1704-1.804 2.8867-3.5062 5.8275-5.3585 8.6781-2.7303 4.1797-3.007 8.7503-2.3094 13.4892.2556 2.1026.6575 4.1846 1.2028 6.2306.0471.165.0358.341-.0322.499-.0679.158-.1883.288-.3406.367 1.9725 3.777 5.2619 6.272 8.5399 8.774.468.358.958.685 1.467.98.451.247.914.728.668 1.203-.295.71-.842.157-1.275 0-.235-.078-.481-.114-.728-.174 1.843 2.278 4.375 3.897 7.217 4.612 0-1.641-.764-3.115-1.011-4.684-.072-.421-.138-.92.355-1.089.656-.246.86.355.981.824.644 2.803 1.527 5.545 2.64 8.197.3.734.379 1.678 1.281 2.081.505-.77.042-1.462-.157-2.183-.776-2.941-1.738-5.816-2.303-8.829-.235-1.269-.259-2.513-.391-3.776-.161-.882-.029-1.792.376-2.591.405-.8 1.061-1.444 1.867-1.836.788-.445 1.612-1.022 1.432-2.183-1.805.09-1.805.09-3.861 2.051-.602-1.353.186-2.081 1.058-2.718.581-.359 1.228-.597 1.902-.701.675-.103 1.364-.069 2.025.099 1.155.048 1.57-.926 2.135-1.593 2.171-2.7277 3.971-5.7307 5.352-8.931.371-.86.575-1.7824.602-2.7183.138-2.0567.168-2.0507 2.219-1.744.169-.0059.336-.0301.499-.0722-1.563-1.3351-3.133-2.616-4.685-3.9211-.469-.3668-1.124-.6014-.98-1.3471.662-.4991 1.113 0 1.57.3428 1.311.9382 2.616 1.8944 3.927 2.8686 5.107 3.908 11.323 6.0938 17.753 6.2425 1.87.0123 3.733.2281 5.557.6435 1.01.2766 2.177.3969 2.766 1.4614-.026.1102-.078.2127-.15.2995-.073.0868-.165.1554-.269.2004-.104.045-.217.0651-.33.0587-.113-.0064-.223-.0392-.321-.0956-2.179-.7587-4.471-1.1449-6.778-1.1426-3.473-.2159-6.919-.7453-10.296-1.5817-.228 1.0765.794 1.2028 1.323 1.5396.529.3368 1.444.1864 1.444 1.1667.723-.1748 1.459-.2954 2.201-.3608.763 0 1.684-.1263 1.96.9802 3.007 1.5697 6.459.6375 9.622 1.5095.993.2767 2.268.1083 2.61 1.5155.425-.0707.861-.0156 1.254.1586.393.1743.727.4599.96.8217 1.399 1.4402 2.922 2.7542 4.552 3.9272.187-.06.283-.072.343-.132.032-.024.058-.055.077-.091.019-.035.029-.074.031-.114V58.1049c-1.431-.7217-2.905-1.3772-4.3-2.159-2.864-1.5124-6.026-2.3748-9.261-2.5259zm-27.093 37.166c-1.376 2.8396-3.054 5.5231-5.003 8.0045-2.37 3.0555-5.359 5.4905-8.029 8.2455-.107.133-.245.236-.403.3-.158.065-.33.087-.499.066-.059-.018-.114-.046-.163-.084-.055-.039-.103-.088-.14-.146-.036-.058-.06-.122-.072-.189-.011-.067-.009-.136.007-.203.016-.066.045-.128.085-.183.323-.496.7-.954 1.125-1.366 1.69-1.689 3.44-3.319 5.106-5.027 2.772-3.0126 5.087-6.4169 6.868-10.1036.246-.5051.246-1.6418 1.202-1.1306.8.421.199 1.2269-.084 1.8162zm5.671-22.0711c1.774-.2522 3.58-.1685 5.323.2466 2.369.6375 4.775 1.1667 7.162 1.8042.391.1082.842.3127.674.872-.127.415-.343.7939-.872.7578-.53-.0361-1.011-.1865-1.51-.1865-5.86.0015-11.704.606-17.44 1.8042-3.711.932-7.294 2.3155-10.669 4.1195-.655.3067-1.257 1.1006-1.96.1203-1.137.1925-1.907 1.0344-2.887 1.5697-.361.1924-.728.5352-1.137.1924-.161-.1452-.258-.3484-.269-.5649-.011-.2165.064-.4286.209-.5898 2.652-4.1255 5.533-8.0406 10.302-9.935 7.798-3.1283 16.385-3.7155 24.537-1.6778 2.107.3418 4.025 1.4201 5.412 3.043-8.253-3.3572-17.409-3.7817-25.938-1.2028l.499.9803c2.823-.6358 5.683-1.0878 8.564-1.3532z" fill="#FFD184"/>
    <path d="M146.926 132.335c-3.093 1.153-6.331 1.872-9.622 2.135-4.478.505-8.999.505-13.477 0-4.414-.5-7.271-2.923-9.46-6.513-.836-1.366-1.088-3.044-2.357-4.15-.46.817-.582 1.782-.343 2.688.337 2.935-.698 5.455-2.117 7.896-.932 1.6-2.357 2.869-3.073 4.607 3.897 1.696 7.908 1.389 11.943.716.981-.169 1.961-.499 2.947-.728.061-.031.126-.053.193-.066.138-.035.281-.042.422-.021.14.021.275.07.397.144.121.074.227.171.31.287.084.115.143.245.176.384-2.301 1.03-4.767 1.641-7.283 1.804-3.559.209-7.128-.198-10.548-1.203-.038.083-.066.17-.085.259-.05.204-.059.415-.028.623.032.207.105.406.214.586.109.179.252.335.421.459.17.124.362.213.566.262 6.259 2.552 13.226 2.765 19.629.602.56-.145 1.203-.205 1.287-.981-1.166-.312-2.153.313-3.133.668-.391.168-.824.403-1.13 0-.307-.403 0-.794.288-1.083 1.047-.938 2.111-1.882 3.188-2.772.228-.18.745-.217.842.066.096.283-.097.656-.157.98l.169.157c3.506-.361 6.681-1.774 9.892-3.091.921-.373 1.805-1.017 3.104-.253-1.616 1.118-3.382 2.003-5.244 2.628-1.961.746-3.922 1.407-5.888 2.111.047.325.077.652.09.98.108 2.111.547 2.496 2.64 1.913 2.688-.746 5.365-1.546 7.999-2.46 2.002-.698 4.161-1.522 5.412-3.169.985-1.131 2.253-1.978 3.675-2.454.776-.367.745.433 1.13.601.133-.841.048-1.702-.246-2.501-.89-.65-2.418-.542-2.743-2.111z" fill="#FFD184"/>
    <path d="M162.334 55.6692c.308.7962.342 1.6722.096 2.4898v45.489c-.002.04-.013.079-.031.114-.019.036-.045.066-.077.091-.06.06-.156.072-.343.126-1.63-1.17-3.153-2.483-4.552-3.921-.232-.3613-.565-.647-.957-.8222-.392-.1752-.826-.2322-1.25-.1641 1.04 2.2613 3.007 3.6503 4.901 5.0453.87.578 1.568 1.381 2.018 2.323.45.943.636 1.99.538 3.03-.199 5.599 0 11.216 0 16.839-.157 2.202-.157 4.413 0 6.615.138 1.008-.03 2.035-.481 2.947.637.361.559.986.559 1.575v31.405c-.019.169-.053.336-.102.499.054.848.138 1.702.138 2.556.169 38.062.06 76.124.475 114.186.078 11.012.078 22.023.078 33.035 0 .932-.132 1.804-.132 2.808l.042 4.114c.042 2.087.127 4.18.127 6.266 0 3.278 0 3.278 3.163 3.104 7.006-.764 14.024-1.51 21.049-2.286 2.531-.324 5.051-.661 7.583-.98.421-.054.902-.102.842-.722-.06-.619-.565-.409-.98-.409-4.649.469-9.214 1.011-13.946 1.45-4.733.439-9.418 1.335-14.199 1.335-2.472.511-2.472.511-2.52-1.804v-1.287l-.499-168.39c-.06-14.834-.117-29.669-.169-44.503-.06-19.9501-.12-39.9063-.18-59.8685 0-11.2259-.026-22.472-.078-33.738H162.4c.024 8.4475.036 16.8971.036 25.3486.125 2.0343.091 4.0752-.102 6.1041z" fill="#2F5977"/>
    <path d="M158.642 132.972c-1.835.469-2.55 2.129-3.795 3.314-1.153-.518-2.249-1.153-3.272-1.895-.652-.155-1.335-.109-1.96.133.288.8.373 1.66.246 2.501.097.313.109.734.319.909.367.318.571-.085.692-.391.192-.487-.199-1.203.601-1.636.907.415 1.724 1.003 2.406 1.732-.376.868-.939 1.642-1.648 2.267-2.965 3.067-5.87 6.176-8.943 9.117-14.975 14.38-31.381 27.021-48.1413 39.205-1.1895.828-2.4221 1.593-3.6925 2.291-.5077.31-1.0622.535-1.6418.668-6.5131 1.311-13.0322 2.676-19.7317 2.616-1.1126 0-2.2672.042-3.3197.102-1.0524.06-1.4974.716-1.4974 1.696-.0947.728.0747 1.465.4774 2.079.4028.613 1.0122 1.062 1.7176 1.265.5966.114 1.1685.332 1.69.643-1.7819 2.275-3.8729 4.289-6.2124 5.984-1.5396 1.071-3.0731 2.149-4.6007 3.236-.6014.445-1.4072.817-1.1005 1.804.1265.42.3734.793.7101 1.075.3367.281.7484.457 1.1843.506 1.4563.174 2.9303-.118 4.2097-.836.9201-.433 1.6238-.763 1.8403-.884 1.3186-.783 2.5824-1.655 3.7827-2.61.7347-.579 1.5083-1.108 2.3154-1.581-1.6144 1.883-3.4293 3.585-5.4125 5.075-.0782.109-.7819.903-1.6779 1.961-1.2028 1.377-.7698 2.694.9863 2.899 1.7008.301 3.4526-.049 4.9073-.981.6014-.396 1.5757-.667 2.6642-1.25l1.0644-.939c.1195-.114.246-.22.3789-.318l.1804-.157c-.0628.049-.1231.101-.1804.157l-.3789.318c-.4714.489-.8018 1.096-.9562 1.756 0 .067-.1142 1.203.4932 1.6.7914.413 1.7124.501 2.5679.247.2875-.06.5678-.151.8359-.271 1.1441-.564 2.1486-1.376 2.9408-2.375 1.2432-1.575 2.626-3.034 4.1316-4.36.5533.228-2.7844 4.564-2.7844 4.955.1684 2.123 1.4313 2.821 3.2956 1.75 1.4211-.633 2.5478-1.783 3.1513-3.217.872-2.821 2.8145-3.723 5.5929-3.928 2.8884-.277 5.7308-.913 8.4611-1.894 2.454-.806 4.553-1.984 5.413-4.643-.322-.069-.658-.032-.957.105-.3.138-.546.369-.703.659-1.134 1.389-2.701 2.357-4.45 2.749-3.1815.896-6.3207 1.876-9.6705 1.876-.9256.146-1.7984.527-2.5353 1.106-.7369.579-1.3133 1.337-1.6744 2.201-.3671.661-.7791 1.296-1.2329 1.901-.6976 1.118-1.4914 2.027-2.9468 2.027-.6014-1.594.9141-2.057 1.5335-3.037.7337-1.432 1.4795-2.857 2.1891-4.294.1114-.189.157-.41.1298-.627-.0272-.218-.1257-.42-.2801-.576-.3729-.325-.7818-.12-1.1667.06-2.2134 1.115-4.0836 2.809-5.4126 4.901-.7366.864-1.5259 1.682-2.3634 2.448-.4748.642-1.1366 1.121-1.8944 1.371-.4953.126-1.0143.126-1.5095 0-.0065-.387.0736-.772.2345-1.124.2978-.51.7094-.945 1.2028-1.269.6423-.54 1.1647-1.208 1.5336-1.961 1.1186-2.111 3.1753-3.518 5.0396-5.479-2.3454-.234-3.5181 1.005-4.7209 2.123-1.4794 1.371-2.7664 3.007-4.6367 3.921-1.4024 1.217-2.9694 2.229-4.6548 3.007-.5977.34-1.2729.521-1.9605.524-.421-.03-.866 0-1.0885-.476-.085-.194-.0997-.412-.0415-.616.0581-.204.1855-.382.3602-.502 1.8042-1.666 3.2234-3.687 5.2742-5.07l7.4572-5.412c-3.3658.106-6.6395 1.125-9.4719 2.946-1.6674 1.583-3.5628 2.907-5.623 3.928-1.287.667-2.7243 1.329-4.5706.348 3.5483-2.736 7.1626-4.943 10.1094-8.046.9803-1.804 2.7424-2.087 4.5105-2.406 1.6208-.095 3.1848-.631 4.5224-1.551h-4.9013c-1.6238.138-3.1152-.53-4.6909-.716-.3866-.119-.7297-.349-.9862-.662-.18-.182-.3049-.411-.3602-.661-.0553-.25-.0389-.511.0474-.752.1504-.469.6375-.469 1.0525-.469 1.4971-.169 3.0047-.228 4.5104-.174 5.9177-.139 11.673-1.414 17.4404-2.466.8309-.173 1.6288-.477 2.3634-.902 2.4058-1.317 4.7168-2.8 6.916-4.438 12.3287-9.051 24.3027-18.487 35.8787-28.458 2.316-1.997 7.055-3.134 10.17-.896 3.283 2.345 6.29 4.733 6.669 9.135 0 .12.229.228.349.355 1.492-.295.078-1.961 1.155-2.454-.199-.144-.499-.247-.602-.433-1.599-4.294-4.907-6.916-8.774-9.021-1.723-.174-3.46-.174-5.184 0 7.349-7.259 15.029-13.706 20.105-22.438z" fill="#2F5977"/>
    <path d="M73.8153 213.041l.3789-.318c-.1329.098-.2594.204-.3789.318zM313.728 355.505h-1.533l-12.804.06c-67.169.145-134.333.56-201.4659.451-.8539 0-1.6959-.102-2.5499-.102-1.2749.042-2.5499.15-3.7887.108-1.3662.17-2.7533.005-4.0414-.481 2.3033-1.251 4.1616-2.237 6.0139-3.217 1.8622-.894 3.6696-1.898 5.4125-3.007-.6014-.806-1.0764-.433-1.5094-.247-5.1299 2.243-12.527 6.501-13.7298 7.963l6.8679.186c.9442 0 1.8342-.078 2.8205-.078l220.1873-.054c.602 0 1.293.144 1.371-.77.079-.914-.703-.812-1.251-.812zm-226.4114.541c-.0602 0-.2286-.102-.1684-.15.0601-.048.1203-.126.1804-.126.0586.012.1103.047.1443.096v.066c.0041-.016.0041-.032 0-.048-.0541.054-.1022.168-.1323.162h-.024z" fill="#2F5977"/>
    <path d="M87.4849 355.848c.0041.016.0041.032 0 .048v-.048zM156.639 317.575c-1.077-.078-2.159-.078-3.236-.078-2.405.157-2.405.157-2.483-2.063V203.485c.029-.24-.039-.481-.187-.672-.149-.19-.367-.314-.607-.344-.282.955-.356 1.96-.217 2.947V315.23c0 3.344 0 3.344 3.176 3.53l3.494-.054c.337 0 .697-.09.697-.511.003-.084-.012-.167-.043-.245-.031-.077-.079-.147-.139-.206-.06-.058-.131-.103-.209-.132-.079-.029-.163-.042-.246-.037zM156.867 52.2354c-1.238-.433-2.483-.8479-3.728-1.2689-2.918-.5458-5.863-.9313-8.823-1.1547-17.314-1.4433-31.591 4.2098-42.199 18.2883-1.275 1.702-2.448 3.4941-3.5726 5.2923-1.9064 3.0069-3.7527 6.0921-5.5929 9.1532-.425.7368-.8066 1.4978-1.1427 2.2792-1.6297 3.7106-1.2809 7.6377-.7337 11.5588.9803 6.6574 3.5543 12.3944 8.8345 16.7604.9024.746 1.7084 1.624 2.5624 2.436h.072c.059-.015.12-.019.18-.011s.118.029.171.059c.052.031.098.072.135.12.037.049.064.104.079.163.194-.007.386.047.548.155.162.108.286.264.354.446.244.048.485.108.722.181.433.114.944.661 1.281 0 .24-.506-.181-.909-.668-1.203-.487-.295-1.004-.632-1.473-.986-3.278-2.502-6.5735-4.992-8.54-8.769-2.568-4.775-3.3738-9.9648-3.4821-15.2751.0074-2.5742.7502-5.0927 2.141-7.2588 2.0527-3.4279 4.1396-6.8358 6.2601-10.2237 2.553-4.248 5.716-8.0979 9.388-11.4264 8.901-7.77 19.377-11.1438 31.074-10.8251 5.671.1865 11.342.848 16.683 3.1333.194.0817.405.1146.614.0957.21-.0189.412-.0889.588-.204-.162-.9502-.938-1.2509-1.732-1.5155zM356.511 354.573c-1.497-1.119-3.007-2.177-4.552-3.272l-39.83-28.409c-.265.541-.415.992.246 1.455.662.463 1.438.794 1.835 1.582.312.105.613.238.902.397l38.693 27.664c.373.264.98.379.776 1.365h-10.079c-1.708 0-3.531-.06-5.124.054-1.594.114-3.278-.451-4.775.806 7.692.337 15.383.337 23.081.337.391-1.089-.505-1.492-1.173-1.979zM157.866 124.342c-.29.176-.557.388-.794.632-8.143 7.096-17.928 8.78-28.265 8.563-2.037.032-4.071-.17-6.062-.601-1.261-.203-2.442-.746-3.416-1.57-.26-.031-.504-.142-.698-.317-.194-.176-.328-.408-.385-.663-.42-.245-.761-.606-.98-1.04-.364-.15-.679-.398-.909-.717-.231-.319-.368-.695-.396-1.087l-.139-.542c-.076-.032-.143-.083-.195-.148-.051-.066-.085-.143-.099-.225l-.084-.204c-.908-.403-.963-1.347-1.287-2.081-1.112-2.65-1.996-5.39-2.64-8.191-.103-.475-.307-1.07-.981-.83-.493.169-.427.668-.355 1.095.277 1.569 1.029 3.007 1.029 4.679.109.092.181.22.204.36.187.208.326.454.41.721.083.266.107.548.071.825.081.295.136.597.163.902 1.263 1.107 1.515 2.785 2.351 4.15 2.189 3.572 5.046 6.014 9.46 6.513 4.478.505 8.999.505 13.477 0 3.291-.263 6.529-.982 9.623-2.135 3.768-1.394 7.268-3.429 10.343-6.014.602-.481 1.306-.86 1.42-1.726-.076-.155-.206-.276-.366-.341-.16-.064-.338-.067-.5-.008zM154.414 167.221c-.01.179.019.357.084.524-.007-.177-.036-.353-.084-.524zM155.081 167.937c-.324.126-.499 0-.601-.174 0 .944-.866 1.347-1.546 1.852-3.692 2.732-7.637 5.104-11.781 7.084-5.364 2.598-10.687 5.281-15.786 8.36-.788.469-1.805.481-2.406 1.275l-16.881 11.228c0 .067-.015.134-.043.195-.028.061-.068.115-.119.159.06.411.275.784.601 1.041 11.112-8.178 22.97-15.292 35.416-21.247 4.237-2.005 8.265-4.422 12.028-7.217.289-.367.701-.617 1.16-.704.482-1.088 2.346-1.202 2.087-2.977-1.04-.132-1.569.891-2.129 1.125zM150.535 45.1871c.884.0421.433-1.4253.433-2.1951V24.2045h-1.011v18.6852c.031.7939-.541 2.2974.578 2.2974zM157.162 322.837h-8.943c-.763.009-1.511.216-2.171.602-9.093 4.811-18.182 9.646-27.267 14.505-.463.247-1.202.313-1.07 1.299 1.016.211 1.738-.511 2.508-.914 8.058-4.252 16.129-8.467 24.115-12.827 2.054-1.166 4.395-1.731 6.754-1.63 2.352.198 4.719.15 7.06-.145.103-.944-.499-.872-.986-.89zM121.391 139.07c-.986.223-1.966.56-2.946.728-4.036.674-8.017.95-11.944-.722-1.392-.026-2.749-.443-3.915-1.203 1.829-1.999 3.471-4.161 4.907-6.458.606-.923 1.057-1.939 1.335-3.007.04-.169.018-.345-.061-.499-.08-.153-.211-.273-.372-.337-.433-.223-.601.15-.727.439-.402 1.218-.969 2.375-1.684 3.44-1.374 2.117-2.989 4.069-4.811 5.815-.993.908-.872 1.257.372 1.738 1.234.314 2.424.781 3.543 1.389 3.423 1.003 6.993 1.409 10.554 1.203 2.514-.164 4.978-.775 7.277-1.804-.012-.069-.034-.136-.066-.199-.06-.132-.145-.251-.251-.349-.107-.099-.232-.174-.369-.223-.136-.049-.281-.07-.426-.061-.144.008-.286.046-.416.11zM137.022 137.134c-3.206 1.311-6.387 2.724-9.893 3.091-.079.156-.253.271-.373.156-.12-.114 0-.258.21-.312.054-.349.301-.602.157-.987-.145-.385-.602-.24-.848-.066-1.077.89-2.135 1.804-3.188 2.779-.282.282-.601.685-.282 1.076.318.391.733.138 1.124 0 1.023-.355 1.985-.962 3.133-.668l1.931-.601c1.967-.704 3.927-1.359 5.888-2.105 1.863-.627 3.628-1.514 5.244-2.634-1.317-.716-2.177-.102-3.103.271zM86.7392 232.051c-2.8687-.601-5.9358-.288-8.7563-1.377-.062-.018-.127-.024-.1912-.016-.0641.007-.1261.028-.1823.06-.0561.032-.1052.075-.1444.126-.0391.052-.0675.11-.0835.173v.06c-.0229.077-.0303.157-.0218.236.0085.08.0328.157.0715.227.0386.07.0908.132.1535.181.0628.05.1347.086.2118.108.8599.373 1.732.667 2.61.98 1.8643 0 3.7346-.144 5.5448.601-.0902.686-.2165 1.354-.2405 2.033-.0241.68.5051.77 1.0644.77.3909-.764 0-1.726.6014-2.448.7818-.992.4811-1.479-.6374-1.714zM102.231 332.195c-5.0396.553-10.0853 1.203-15.143 1.672-4.8111.457-9.5741 1.125-14.4334 1.203-5.9625.7-11.97.941-17.9696.722-3.7466.114-7.4947-.175-11.1798-.86-7.0062-1.269-12.2263-4.92-15.0348-11.643-.8687-1.747-1.4766-3.611-1.8042-5.533-1.2967-4.038-1.6457-8.321-1.0199-12.516.6257-4.194 2.2095-8.188 4.6283-11.672 8.4595-12.898 16.8028-25.888 25.0299-38.97 2.8987-4.631 5.9477-9.146 9.1472-13.544 1.2794-1.717 2.6866-3.335 4.2097-4.841l.0421-.036c.0575-.059.1022-.129.1314-.206.0292-.078.0422-.16.0382-.242-.0039-.083-.0247-.163-.0612-.237-.0364-.074-.0876-.14-.1505-.193-.3067-.319-.6375-.174-.8901.06-1.5123 1.378-2.8842 2.903-4.0954 4.553-3.0992 4.189-6.036 8.487-8.8104 12.893-8.4476 13.424-17.0194 26.772-25.7155 40.047-.9313 1.431-1.7631 2.924-2.4898 4.468-4.0534 8.456-3.043 16.918.1443 25.337 2.9469 7.818 8.7743 12.16 16.9112 13.562 5.3081.863 10.6893 1.193 16.0631.986 11.6129-.349 23.1596-1.504 34.6943-2.773 3.2175-.348 6.4769-.409 9.6219-1.257-.066-1.431-1.076-1.058-1.864-.98z" fill="#2F5977"/>
    <path d="M75.7278 276.831c-9.941 1.606-17.5005 10.344-17.3501 20.153.1263 11.378 9.941 20.628 22.6965 20.447 3.079-.078 6.0983-.866 8.8224-2.303.6555-.355 1.3171-.746 1.9666-1.161.0898-.047.169-.113.2327-.192.0637-.079.1105-.171.1375-.269.027-.098.0338-.2.0197-.301-.014-.101-.0485-.197-.1013-.284-.2525-.355-.439-.337-.89-.091-.4511.247-.8841.518-1.3471.758-2.8833 1.608-6.1129 2.494-9.4129 2.581-3.3.088-6.5722-.624-9.537-2.076-4.1284-1.864-7.456-5.14-9.3842-9.239-1.9282-4.099-2.3303-8.751-1.1341-13.12 2.8746-9.953 13.3449-15.835 23.8692-13.369 13.2306 3.091 19.7793 17.632 12.3827 28.999-.3549.541-1.1367 1.203-.3549 1.738.7819.535 1.1126-.493 1.4374-.98 1.8209-2.656 2.9461-5.727 3.2731-8.93.327-3.204-.156-6.438-1.4028-9.407-3.7467-9.388-13.6215-14.626-23.9234-12.954zM125.018 279.441c-5.677-4.438-11.138-9.237-16.472-14.145-5.683-5.208-10.7471-10.951-14.3374-17.819-1.0163-1.966-2.2913-3.789-3.4279-5.695-.3849-.656-.7878-1.125-1.6118-.656 1.2028 3.007 3.2536 5.527 4.751 8.372 2.5193 4.62 5.707 8.843 9.4601 12.533.601.601 1.142 1.245 1.702 1.87 6.777 6.206 13.754 12.16 20.844 18.042 3.25 2.556 5.494 6.176 6.339 10.224 1.202 2.604 1.323 5.412 1.666 8.196.905 6.083.47 12.29-1.275 18.187-.725 2.515-2.107 4.792-4.005 6.595-1.897 1.803-4.241 3.068-6.79 3.664-1.558.433-3.134.806-4.721 1.143-.147.011-.29.05-.422.117-.131.066-.248.158-.344.27-.095.112-.168.241-.213.381-.045.14-.062.288-.05.435 1.937.246 3.681-.542 5.479-.981 6.868-1.671 10.945-6.056 12.755-12.863 1.997-7.452 1.426-14.861.139-22.288-1.015-6.225-4.409-11.812-9.466-15.582zM85.1274 218.165c-.5312.288-1.1487.374-1.7381.241-2.3207-.666-4.6755-1.206-7.0543-1.618-.3975.822-1.0487 1.495-1.8574 1.92-.8088.424-1.7324.578-2.635.438-1.2689-.151-2.5258-.433-3.7827-.602-.7638-.12-1.5877-.228-2.0508.602-.1353.316-.1755.664-.1157 1.003.0598.339.2171.652.4525.903.7116 1.071 1.5407 2.06 2.4717 2.947 1.1971 1.084 2.2738 2.293 3.2115 3.608.6013.944 1.293 2.003.7457 3.091-.7157 1.444-.3248 2.123 1.0705 2.664 1.0126.456 1.9949.976 2.9408 1.558 1.0133.319 2.0709.475 3.1332.463.8781-.108.7999-.601.4511-1.203-1.5464.024-3.0715-.362-4.4203-1.118-1.2028-.602-2.4055-1.203-1.732-3.007.0822-.424.067-.86-.0445-1.277-.1115-.417-.3163-.803-.599-1.129-.7958-1.299-1.7448-2.499-2.8265-3.572-1.1392-.999-2.1493-2.137-3.007-3.386-.0781-.204-.2946-.481-.2225-.601.1744-.319.5112-.235.8119-.097 1.2689.151 2.5258.337 3.8008.421.5925.111 1.2023.085 1.7835-.074.5813-.16 1.1188-.449 1.5723-.846 1.293-1.317 2.6882-1.245 4.2097-.775l2.9408.89c.4438.156.9149.22 1.3844.188.4695-.032.9275-.16 1.3459-.375.3609-.192.8059-.349.7337-.89-.0721-.541-.5653-.553-.9742-.367zM93.6552 220.992c0-.307-.3308-.553-.7939-1.287-.6382 1.925-.6487 4.004-.03 5.936.6675 2.014.6855 2.014-.8901 3.367-.2586.217-.5413.403-.8059.602-.0194.006-.0363.019-.0481.036-.0793.08-.1238.188-.1238.301 0 .112.0445.22.1238.3.1674.174.3912.283.6315.307 1.5395-.247 3.482-2.682 2.9408-3.927-.7335-1.785-1.076-3.707-1.0043-5.635zM311.726 24c-.213.0232-.418.093-.602.2045h.602V24zM310.878 24.836v293.972c.601.03.848-.186.848-.397V24.2045h-.602c-.099.0682-.176.165-.22.2777-.044.1126-.053.2359-.026.3538zM304.178 318.886c-2.038.199-4.077.409-6.104.638l-21.295 2.369c-4.486.499-9.021.686-13.471 1.317-9.189 1.305-18.445 2.069-27.664 3.218-6.928.86-13.886 1.473-20.838 2.207-.475-.013-.945.096-1.366.316-.421.22-.779.544-1.04.941 1.37.163 2.755.143 4.12-.06l17.001-1.925 15.239-1.654 17.007-1.906c5.209-.601 10.435-1.317 15.703-1.726 5.767-.463 11.48-1.522 17.26-1.907 1.864-.114 3.728-.39 5.593-.601.367-.042.739-.246.739-.601.018-.493-.445-.662-.884-.626zM194.1 183.501c-2.701-3.729-6.862-3.747-9.569-.06-2.131 2.928-3.029 6.575-2.501 10.157.078.842-.169 2.604 1.058 2.406 1.227-.198.481-1.69.385-2.67-.445-3.159.36-6.368 2.243-8.943 2.406-3.175 5.593-2.929 7.56.523 1.559 2.887 1.911 6.273.98 9.418-.794 3.194-2.123 6.014-6.014 6.243-.172-.011-.34.047-.471.159-.13.112-.211.271-.227.442-.013.106-.002.214.032.316.035.102.092.194.167.27.075.077.167.135.268.171.101.036.209.049.315.037.985.075 1.972-.107 2.865-.529.893-.422 1.661-1.069 2.229-1.877 1.935-2.501 2.905-5.616 2.73-8.774.173-2.593-.551-5.166-2.05-7.289zM107.427 76.0143l.469-.6314c1.197-1.732 2.734-3.202 4.518-4.3208 1.783-1.1187 3.776-1.8625 5.856-2.1863 8.529-2.5789 17.685-2.1544 25.938 1.2028-1.387-1.6229-3.305-2.7012-5.412-3.043-8.144-2.0344-16.721-1.4494-24.513 1.6718-4.769 1.8944-7.656 5.8095-10.302 9.929-.145.1621-.221.3753-.209.5928.011.2175.108.4217.269.5679.409.3428.776 0 1.137-.1985.92-.5292 1.744-1.3711 2.887-1.5696 2.94-2.592 6.573-3.8249 10.223-5.0337 4.476-1.3448 9.083-2.2038 13.742-2.5619.559 0 1.203.0962 1.54-.9803-1.71-.3127-3.463-.3127-5.172 0-4.813.5655-9.526 1.7793-14.013 3.6084-.664.3866-1.441.535-2.201.421 0 .3728-.222.4811-.559.4811-.223.5412-.704.6014-1.203.4811l-2.105 1.4794c-.016.0457-.043.0868-.078.1193-.036.0326-.079.0557-.126.0672-.094.198-.262.3515-.468.4279-.205.0764-.432.0696-.633-.019v.006c.002-.1192.045-.2343.12-.3269.075-.0926.179-.1575.295-.1843zM151.323 93.4908c-1.824-.4174-3.687-.6352-5.557-.6495-6.424-.1457-12.637-2.3273-17.741-6.2305-1.311-.9682-2.616-1.9244-3.927-2.8626-.463-.3488-.914-.848-1.57-.3488-.108.7698.547.9923.98 1.3471 1.552 1.3471 3.122 2.6281 4.685 3.9271.382.0445.749.1761 1.072.3846.323.2085.594.4884.792.8182.131-.024.265.0025.377.0739.112.0714.192.1826.225.311.124-.0233.253-.0068.367.0472.115.0539.209.1427.27.2535.135.032.258.1007.355.1984.221-.0415.449-.0114.651.086.203.0974.369.2569.474.4553.191-.0212.384.0116.557.0945.173.0829.32.2126.423.3746.391-.0143.78.058 1.14.2119.36.1539.681.3855.941.6781h.12c3.385.8419 6.839 1.3753 10.32 1.5937 2.302.0052 4.587.3975 6.76 1.1607.062.0358.128.0621.198.0782.187.0417.384.0084.547-.0928.163-.1012.279-.2622.325-.4485-.613-1.0704-1.816-1.1847-2.784-1.4613zM121.764 88.7699c-.962-.5112-.962.6013-1.203 1.1306-1.79 3.6811-4.114 7.0776-6.898 10.0793-1.665 1.7082-3.409 3.3382-5.099 5.0272-.428.41-.808.869-1.131 1.366-.038.056-.065.119-.078.186-.023.133.005.27.081.382.075.112.19.19.322.219.164.018.331-.006.483-.07.153-.064.287-.166.389-.296 2.67-2.755 5.665-5.19 8.028-8.2455 1.954-2.4785 3.632-5.1625 5.004-8.0045.289-.5473.884-1.3532.102-1.7741zM113.459 104.286c-.872.637-1.636 1.365-1.058 2.718 2.08-1.937 2.08-1.936 3.867-2.051l.222.078h.229l.601-.384c0-.313.096-.644.096-.981-.667-.168-1.362-.2-2.041-.093-.68.106-1.332.349-1.916.713zM140.931 95.0305c-.742.0684-1.477.189-2.202.3608-.811.4571-1.804.6976-2.086 2.604 1.996-2.2071 4.149-2.0688 6.29-1.9605-.264-1.1126-1.203-1.0344-2.002-1.0043zM151.389 112.459c-.499-.343-.86.288-1.275.499-.895 1.922-2.291 3.567-4.041 4.763-4.073 2.955-8.835 4.819-13.832 5.412-3.037.48-6.148.025-8.919-1.305-.451.078-1.101-.132-1.245.469-.144.602.487.746.83 1.053 1.38.403 2.787.71 4.21.92 9.568.686 17.663-2.285 23.875-9.815.085-.229.186-.452.301-.667.252-.457.595-.987.096-1.329zM144.13 103.528c-1.936-.409.204-1.293-.247-1.852h.061c-1.005-.199-1.805.601-2.839.529-.902-.048-1.383.818-1.443 1.804-.042.342.032.688.209.984.178.295.449.522.771.646.34.172.725.232 1.101.171.376-.06.723-.238.992-.508.409-.421.673-.968 1.203-1.257.138-.084.487-.457.192-.517zM119.281 109.307c-.927-.294-2.454.277-2.484 1.203-.03.926-1.053.806-1.161 1.804.878.169 1.678-.282 2.532.073.15.073.31.124.475.15.391.059.789-.04 1.107-.275.318-.234.53-.585.589-.976.03-.074.052-.15.066-.229.042-.188.046-.383.011-.574-.034-.19-.105-.372-.209-.534-.105-.163-.241-.303-.399-.413-.159-.11-.338-.188-.527-.229zM143.944 101.339c-.211.108-.199.228 0 .337l-.043-.042.253-.295c-.078 0-.006-.108-.21 0z" fill="#2F5977"/>
    <path d="M359.073 357.014c-.457-.186-.962-.3-1.443-.451-7.692.031-15.384 0-23.081-.33 1.503-1.257 3.085-.692 4.811-.806 1.726-.114 3.428-.06 5.124-.06h10.109c.204-.951-.403-1.101-.776-1.365l-38.693-27.664c-.29-.162-.594-.296-.908-.403h-28.067c-1.528.048-3.067 0-4.589.156-7.169.776-14.331 1.63-21.494 2.405-5.232.602-10.47 1.071-15.702 1.654-7.163.782-14.325 1.636-21.494 2.406-5.316.601-10.638 1.088-15.955 1.678-6.819.764-13.603 1.618-20.447 2.405-5.533.602-11.12 1.095-16.683 1.726-3.199.355-3.199.421-3.295-2.796v-.259c-3.182.181-3.151.181-3.212-3.067 0-2.093-.126-4.21-.126-6.272-3.326 0-6.657.096-9.983 0-1.785-.053-3.551.377-5.112 1.245-9.41 4.971-18.823 9.929-28.241 14.872-4.986 2.61-10.049 5.094-14.957 7.818-2.688 1.479-5.4123 2.857-8.1366 4.288-.7157.373-1.6839.601-1.4193 1.804.8539.03 1.6959.096 2.5499.096 67.163.109 134.327-.3 201.466-.451l12.81-.06c.547 0 .962-.03 1.533 0 .572.03 1.329 0 1.263.818-.066.818-.782.764-1.371.764l-220.1934.06c-.9382 0-1.8042.078-2.8145.078-.433.602-1.1367.716-1.708 1.089-.2762.119-.4993.336-.6277.608-.1283.272-.1532.582-.0699.871.0894.288.2748.538.5253.706.2505.168.5511.246.8519.22h2.0507c13.7956-.264 27.6036-.168 41.4116-.355 47.246-.649 94.509.247 141.76-.559 27.213-.469 54.432-.096 81.657-.096h2.045c.601 0 1.263 0 1.419-.764.085-.183.132-.381.138-.583.006-.201-.028-.402-.102-.59-.074-.187-.185-.358-.326-.502-.142-.144-.311-.257-.498-.334zM105.936 197.898c-.537-.099-1.092-.022-1.582.219-.49.242-.889.636-1.137 1.123-2.279 3.975-5.9293 6.104-10.2233 7.361-.7938.234-1.6959.366-1.9064 1.413 3.3498 0 6.489-1.01 9.6707-1.87 1.749-.397 3.317-1.364 4.456-2.749.159-.3.415-.538.726-.675.311-.138.659-.167.988-.083.114-1.25-.035-2.51-.439-3.698-.308-.265-.506-.637-.553-1.041zM132.282 292.167c-1.551.601-1.136 1.936-1.136 3.055.054 4.209-.451 8.299-2.64 12.027-.283.428-.511.888-.68 1.372-1.539 5.045-5.593 7.86-9.754 10.223-6.014 3.464-12.63 5.9-19.0465 8.516-3.8308 1.552-7.6557 3.32-11.9556 3.272-.4214.023-.8241.181-1.1487.451-.7245.589-1.5596 1.027-2.4561 1.288-.8966.262-1.8364.341-2.764.233-1.9906-.108-3.8489.481-5.8094.668-.5206-.027-1.0328.138-1.4396.464-.4068.326-.6799.79-.7675 1.304 4.8111-.054 9.6222-.722 14.4334-1.161 5.0517-.493 10.0973-1.119 15.143-1.666.788-.054 1.804-.415 1.864.98 1.708-.342 3.404-.787 5.13-.98 2.298-.276 4.499-1.269 6.874-1.07-.015-.294.088-.582.285-.801.197-.219.473-.35.768-.366 1.593-.331 3.163-.704 4.72-1.137 2.552-.596 4.898-1.863 6.796-3.67 1.898-1.807 3.279-4.088 3.999-6.607 1.746-5.895 2.182-12.1 1.275-18.18-.366-2.785-.463-5.611-1.69-8.215zM93.9197 249.516c-1.4975-2.845-3.5603-5.359-4.751-8.372-.1418-1.884-1.0032-3.641-2.4056-4.907-.5593 0-1.0825-.096-1.0644-.776.018-.679.1503-1.341.2405-2.026-1.8042-.746-3.6805-.602-5.5448-.602v1.323c.3488.572.4089 1.083-.4631 1.203-1.0623.012-2.1198-.144-3.1332-.463.1249.85-.0913 1.714-.6014 2.405-.6014.818-1.2509 1.594-1.9064 2.376-1.5216 1.804-1.3953 2.688.439 4.132 2.6975 2.031 5.2833 4.208 7.7459 6.519 2.3478 2.323 4.8255 4.512 7.4212 6.555 2.5138 1.9 5.1238 3.608 7.4212 5.749.846.898 1.9478 1.514 3.1564 1.765 1.208.251 2.464.124 3.597-.364.321-.082.65-.128.98-.138-.559-.601-1.112-1.263-1.701-1.87-3.7402-3.685-6.9175-7.9-9.4303-12.509zM27.4721 316.523c-.4992.228-.2646.992-.8239 1.203.3276 1.922.9355 3.786 1.8042 5.532 2.8325 6.736 8.0526 10.374 15.0348 11.643 3.6851.686 7.4332.974 11.1798.86.2646-.775 1.2389-.373 1.8042-1.148-12.551-1.486-21.6681-8.366-28.9991-18.09zM82.1146 222.128c-1.3171-.324-2.3274.656-3.007 1.895-.3571.479-.5352 1.068-.5034 1.664.0319.597.2717 1.163.6778 1.601.6625.894 1.5206 1.624 2.5089 2.135.9882.511 2.0802.789 3.1923.812 1.43-.138 2.8413-.428 4.2098-.866 1.6237-.746 1.8462-1.804.7096-3.229-2.0086-2.472-4.9134-3.296-7.788-4.012zM107.878 75.4009l.409.5353 2.093-1.4915c.331-.3368.673-.6495 1.203-.4811 0-.3668.228-.4811.559-.4811 1.804-2.0147 4.264-2.7183 6.615-3.6084l-.535-.9501c-2.073.3216-4.059 1.0616-5.838 2.1751-1.778 1.1135-3.311 2.5771-4.506 4.3018zM158.738 124.679c-.114.86-.842 1.245-1.413 1.726-3.084 2.588-6.591 4.623-10.368 6.014.27 1.491 1.804 1.383 2.676 2.111.625-.242 1.308-.288 1.96-.133.231-.303.528-.55.869-.72.341-.17.717-.259 1.098-.26 4.101-.03 5.966-2.58 6.946-6.11.541-1.9.361-2.177-1.768-2.628zM58.4377 210.479c1.8403 1.011 3.2836.313 4.5706-.354 2.0627-1.017 3.9587-2.341 5.623-3.927l-.0902-3.795c-2.9047 3.097-6.5551 5.31-10.1034 8.076zM70.646 208.645c-2.0568 1.383-3.4941 3.404-5.3043 5.07-.1758.12-.3043.297-.3636.501-.0593.204-.0455.422.0389.618.2285.475.6675.475 1.0945.475.6957 0 1.3795-.18 1.9846-.524 1.6835-.778 3.2485-1.79 4.6487-3.007-.4811-1.142-.8479-2.465-2.0988-3.133zM67.7593 195.21c-.415 0-.9021 0-1.0524.469-.0856.242-.1017.502-.0464.752s.1797.479.3591.662c.2564.311.5997.539.9863.655 1.5756.187 3.0671.854 4.6908.716.0907-1.165-.0672-2.335-.463-3.434-1.4939-.051-2.9895.009-4.4744.18zM77.0388 211.183c-1.0434.96-1.9717 2.038-2.7664 3.212-.0898.219-.1583.447-.2045.679v.451c.6493.183 1.3416.136 1.9605-.132.3488-.162.3729-.283 1.4374-1.203.441-.357.862-.73 1.2629-1.118.3853-.423.7334-.877 1.0404-1.36-.9201-.126-1.744-.667-2.7303-.529zM84.2856 212.218c-.6014.95-2.153 1.443-1.5637 3.007 1.4855.03 2.2793-.903 2.9469-2.021-.0852-.297-.2684-.556-.5195-.735-.2512-.179-.5557-.267-.8637-.251zM87.3406 355.698c-.0601 0-.2285.084-.1744.132.0542.048.1083.144.1624.144.0541 0 .1203-.126.1804-.126-.0721 0-.1323-.15-.1684-.15zM119.533 186.28c-4.18 1.9-8.293 3.951-12.521 5.707-3.368 1.407-3.68 1.966-1.401 4.967.144.205.325.391.487.602l16.839-11.264c-1.119-1.317-2.273-.536-3.404-.012zM151.299 110.005c-.101.037-.199.079-.295.126-.491.258-.86.699-1.026 1.227-.167.529-.118 1.101.136 1.594.415-.217.764-.824 1.275-.499.511.324.156.872-.09 1.305-.115.217-.216.442-.301.673.429.044.863.002 1.275-.123.413-.125.797-.33 1.13-.604.403-.428.663-.97.746-1.551.083-.581-.016-1.174-.282-1.697-.307-.365-.733-.611-1.202-.693-.47-.083-.954.003-1.366.242zM121.927 120.205c-.545.046-1.066.245-1.504.572-.438.327-.775.771-.974 1.28-.265.764-.241 1.612.716 1.882.956.271 2.147.83 2.754-.655-.343-.301-.992-.409-.83-1.047.162-.637.794-.397 1.245-.475.09-1.01-.355-1.726-1.407-1.557z" fill="#DFDFE0"/>
    <path d="M107.433 76.0144l.68.0842c.047-.0115.09-.0346.126-.0672.035-.0325.062-.0735.078-.1193l-.409-.5292-.475.6315z" fill="#DFDFE0"/>
    <path d="M89.1447 290.85c-.9742 3.891-1.8884 7.745-2.8686 11.673-.1383.499 0 1.256-.9803 1.413-.2466-.866-.4991-1.738-.7337-2.61-.9803-3.536-2.0628-7.049-2.9468-10.603.0034-.052.0034-.104 0-.156-.0457-.254-.1409-.496-.2802-.713-.1393-.216-.3199-.404-.5316-.55-.2117-.147-.4502-.251-.702-.306-.2519-.054-.512-.059-.7655-.013-1.4734 0-1.6779.854-1.9665 1.889-1.2028 4.504-2.5018 9.02-3.7647 13.519-.2313-.078-.4334-.225-.5795-.42-.1461-.196-.2292-.431-.2384-.675-.866-3.889-1.7421-7.796-2.6281-11.721-.1263-.601-.2767-1.154-.433-1.738-.3308-1.203-1.2569-.95-2.0989-.776-.8419.175-.5292.945-.4149 1.474.3067 1.257.6615 2.484.9862 3.722 1.1186 4.288 2.2072 8.576 3.3438 12.852.3608 1.534.9021 1.804 2.3274 1.6 1.2028-.138 1.2028-1.071 1.4132-1.852 1.2028-4.21 2.3515-8.492 3.5302-12.756.1504-.523 0-1.251.9803-1.305.2405.8.4811 1.618.7096 2.406 1.1066 4.023 2.2252 8.046 3.3137 12.082.2405.902.5593 1.479 1.6899 1.479.4246.025.8427-.114 1.1666-.39.324-.276.5287-.666.5714-1.089.5172-2.063 1.1306-4.102 1.6899-6.165 1.0665-3.925 2.1249-7.85 3.1754-11.775-2.4357-.457-2.4657-.457-2.9649 1.504zM139.812 70.5658c-2.406-.6014-4.811-1.1367-7.169-1.8042-1.74-.4154-3.544-.499-5.316-.2466-2.872.2599-5.724.7018-8.54 1.3231-2.375.9141-4.859 1.6718-6.615 3.6083.76.1126 1.536-.0357 2.201-.4209 4.487-1.829 9.2-3.0428 14.013-3.6084 1.709-.3127 3.462-.3127 5.172 0-.337 1.0825-.981.9863-1.54.9863-4.66.3552-9.267 1.2142-13.742 2.5619-3.608 1.1366-7.253 2.4056-10.193 4.9916.703 1.0223 1.305.1864 1.93-.0963 3.376-1.8033 6.958-3.1887 10.669-4.1255 5.736-1.1955 11.58-1.8 17.44-1.8042.506.0351 1.01.0973 1.51.1865.517.036.745-.3428.872-.7578.15-.4811-.301-.6856-.692-.7938zM162.226 135.847c-.298.146-.574.334-.818.559-5.491 6.694-11.39 13.043-17.663 19.01 3.867 2.081 7.175 4.697 8.811 9.021.078.186.384.289.601.433.427.794.872 1.582 1.311 2.375 0 .47-.03.969.667.698.698-.271 1.089-1.239 2.123-1.112.253 1.768-1.611 1.858-2.092 2.946.03.92 0 1.847.09 2.767.078 1.136.601 1.521 1.63 1.136.619-.256 1.196-.607 1.707-1.04 1.39-1.089 2.749-2.213 4.108-3.332.049-.165.083-.334.102-.505v-31.375c-.018-.601.06-1.22-.577-1.581zM110.41 74.4207c.224.0899.474.09.698.0004.224-.0896.405-.262.505-.4815-.529-.1624-.872.1804-1.203.4811z" fill="#39B6ED"/>
    <path d="M111.595 73.9516c.336 0 .601-.1082.559-.4811-.331-.012-.559.1203-.559.4811z" fill="#39B6ED"/>
    <path d="M162.851 171.894c0-.854-.09-1.708-.138-2.556-1.365 1.119-2.718 2.249-4.108 3.338-.513.431-1.089.782-1.707 1.04-1.041.385-1.552 0-1.63-1.136-.09-.927-.09-1.847-.09-2.767-.458.09-.87.339-1.161.704.42.76.645 1.612.654 2.48.01.868-.197 1.725-.6 2.493-.556 1.122-.848 2.356-.854 3.609v135.385c-.108 1.022-.018 2.055.265 3.043 1.076 0 2.159.078 3.235.078.16 0 .313.064.425.176.113.113.176.266.176.426 0 .421-.36.505-.697.505l-3.494.06v.764c.102 2.339.102 2.339 2.447 2.339h7.602c0-.944.12-1.876.186-2.778 0-11.012.043-22.023-.078-33.035-.373-38.044-.264-76.106-.433-114.168zM156.898 52.2353c.751.2646 1.569.5593 1.732 1.5396 1.112.854 2.104 1.8042 3.608 1.8042.192-2.0331.222-4.0783.09-6.1162 0-8.4195-.022-16.839-.066-25.2584h-9.069c0 8.9166-.01 17.8372-.03 26.7619 1.251.421 2.496.8359 3.735 1.2689zM111.877 122.959c.036-.276.012-.557-.071-.823-.083-.266-.223-.51-.41-.717-.192.62-.547 1.293.481 1.54zM115.961 127.505c.028.393.165.769.396 1.088.23.319.545.567.909.717.03-.951-.006-1.805-1.305-1.805zM118.228 130.338c.055.257.189.49.383.667.194.177.439.289.7.319-.042-.643-.325-1.064-1.083-.986zM115.528 126.591c.015.082.049.159.101.224.051.065.118.116.194.149.186-.373.198-.571-.295-.373zM126.756 140.333c.138.126.294.036.373-.162l-.163-.157c-.21.061-.349.187-.21.319zM133.804 91.849c.164.38.472.6794.857.8327.384.1533.813.148 1.194-.0148-.259-.2935-.581-.5259-.94-.6808-.36-.1549-.749-.2285-1.141-.2153.012.0301.018.0541.03.0782zM128.181 88.6615c.265.9502 1.071 1.0705 1.864 1.2028-.198-.3295-.469-.6091-.792-.8176-.323-.2085-.69-.3402-1.072-.3852zM132.716 91.2836c.071.1871.213.3387.396.4219.182.0832.39.0916.578.0231-.107-.155-.255-.2783-.426-.3566-.171-.0783-.361-.1089-.548-.0884zM131.657 90.7725c-.002.026-.002.0522 0 .0782.08.1899.231.3406.422.4195.19.0788.404.0793.594.0014-.105-.1704-.256-.3076-.436-.3959-.18-.0883-.381-.1241-.58-.1032zM130.641 90.2733c.084.3608.295.457.637.3007-.061-.1108-.155-.1996-.27-.2535-.114-.054-.243-.0705-.367-.0472zM117.248 104.677l-.529.354c.372.187.499-.012.529-.354zM130.039 89.9004c-.002.018-.002.0362 0 .0542.018.0614.047.1187.087.1685.04.0499.089.0912.145.1215.056.0303.118.049.181.0549.064.006.128-.0009.189-.0202-.032-.1288-.112-.2404-.224-.3111-.113-.0706-.248-.095-.378-.0678zM107 76.5255c.201.0927.431.1024.639.0269.208-.0754.378-.2298.474-.4298l-.686-.1083c-.116.0282-.221.0931-.298.1851-.077.0921-.122.2064-.129.3261z" fill="#BCBCBC"/>
    <path d="M106.958 76.5916l.054-.0602-.012-.03-.042.0902z" fill="#BCBCBC"/>
</svg>
