<svg viewBox="0 0 282 282" fill="none" xmlns="http://www.w3.org/2000/svg">
    <path d="M114.329 43.3561c-.145.5825-.773.6657-1.256.9154-1.256.6658-1.304 1.9141-.048 2.3302 1.208.3745 1.691 1.1235 2.27 1.8725 2.802 3.5369 5.652 7.0738 8.357 10.6524 1.353 1.7892 2.657 3.6201 3.816 5.5342 2.415 3.9114 4.637 7.9477 7.101 11.8591 3.72 5.8671 5.99 12.2336 9.081 18.3504 2.512 5.0349 3.334 10.4447 4.976 15.6457 1.497 4.744 3.14 9.487 4.541 14.272.821 2.705 1.449 5.41 1.883 8.156.435 2.83 1.401 5.576 1.836 8.406.29 1.997.338 3.994.58 5.95.29 2.33.628 4.66.724 7.032.097 2.538.628 5.118 1.111 7.615.194.874.29 1.706.29 2.538 0 4.536-.048 9.03.048 13.565.049 3.454-.096 6.866-1.014 10.237-2.174 7.781-3.671 15.687-6.859 23.218-.87 2.039-2.174 3.662-4.203 4.91-.724.458-1.401.999-2.125 1.498-3.092 2.289-7.005 2.913-10.772 3.537-6.183.999-12.366 1.998-18.501 3.163-4.976.957-9.999 1.623-15.071 1.165-5.3624-.499-10.7243-.749-16.1344-.874-2.7051-.042-5.3619-.915-7.9704-1.581-3.8161-.957-7.6805-1.748-11.545-2.622-.5313-.124-1.2559-.083-1.2076-.79.0483-.708.6763-.957 1.4009-.957 3.1881 0 6.3279-.042 9.5161 0 1.2559 0 2.4636-.042 3.6712-.375 2.5602-.707 5.2653-.457 7.8738-.832 1.3525-.208 2.8016-.208 4.1542-.499 5.9898-1.373 12.2692-1.914 18.0662-3.912 5.072-1.706 10.144-3.495 14.588-6.408 2.754-1.831 5.604-3.537 8.019-5.742 2.898-2.705 5.217-5.701 5.7-9.571.193-1.539.918-3.037 1.352-4.577 1.111-4.244 1.933-8.53 2.657-12.816 1.401-8.405 1.015-16.852.773-25.299-.097-3.828-.676-7.657-1.208-11.485-.628-4.244-1.4-8.447-2.125-12.691-.821-4.744-1.932-9.404-3.092-14.065-1.932-7.656-4.057-15.3124-6.424-22.8856-3.092-9.8617-6.521-19.6819-10.724-29.2524-1.208-2.7463-3.091-5.2429-5.024-7.6564-1.062-1.3315-2.995-2.2053-4.782-2.9127-.918-.3745-2.174-.4161-2.463-1.5812.144-.0417.338-.0833.483-.0833.676-.0416 1.4-.0416 1.304-.8738-.048-.6658-.676-.6658-1.304-.7074h-2.464v-2.7879c.918-.1664 1.787.0416 2.657.1248.628.0833 1.352.2913 1.497-.5825.097-.8738-.724-.7906-1.304-.9155-.773-.1664-1.594-.2496-2.415-.3745 0-1.8308.241-3.7033-.049-5.4926-.386-2.455 1.015-3.6617 3.334-4.4523.386-.1249.772-.2081 1.159-.3329.435.6657.386 1.4564 1.014 2.0389.387 2.7047.918 5.3678.435 8.0725-.048.3329-.338.7074.145.957.435.2081.966.1665 1.401-.0832.386-.2496.773-.5409 1.111-.8738 2.753-2.4134 5.99-4.2443 9.226-6.0752 1.787-.9986 2.898-.7074 4.299.9987-.821.3745-1.594.749-2.415 1.0819-1.063.4577-2.125.8738-3.14 1.3315-.386.1665-.676.4993-.531.8738.193.541.724.541 1.256.3745.531-.1664 1.062-.3745 1.594-.5825 1.884-.749 3.768-1.498 5.652-2.2054 2.125-.0832 3.767 1.0819 5.651 1.5812.773.2081.725.7074.338 1.2067-.338.4161-.724.7906-1.111 1.1651-.676.6242-1.256 1.3316-1.352 2.247-.918.0416-1.787.0832-2.705.0832-2.464.0417-4.927.0417-7.439.0417-1.111 0-1.063.4161-.58 1.0402-1.111.7074-2.415.541-3.623.6658-.869-.4577-1.691-.9154-2.56-1.2899-1.063-.541-1.304.0832-1.401.7906zM194.949 213.627c-3.478.458-6.956.417-10.144-1.165-2.753-1.331-5.072-3.204-7.535-4.91-.58-.416-.677-.957-.58-1.539-5.362-3.579-8.115-8.406-8.936-14.106-.773-5.285.241-10.237 3.236-14.939-.918-.416-.966-1.165-.821-1.872.29-1.623.338-3.246.628-4.869.724-4.494 1.594-8.988 2.367-13.482.434-2.455.773-4.951 3.768-6.324.724-.333 1.352-.874 1.883-1.374 1.546-1.373 3.285-1.747 5.362-1.165-.048-.624-.193-1.331 1.015-1.248.386.042.821.042 1.207 0 .918-.125.773-.583.387-1.04-.532-.666-1.304-.749-2.174-.832-.435-.042-.676-.333-.725-.708-.048-.291.097-.666.435-.707 2.319-.25 2.464-1.914 2.899-3.371-1.111-1.248-2.512-.832-3.768-.374-1.304.499-2.657 1.165-3.43 2.33-.338.583-.869.999-1.594 1.29.29 1.123-.193 1.581-1.546 1.498-1.207-.042-2.463-.167-3.719.125-.483.125-1.015.249-1.015.79 0 .625.677.5 1.111.5 1.305 0 2.657-.042 3.961-.042.532 0 .966.125 1.015.707 0 .541-.387.708-.966.708-1.063 0-2.126.041-3.237.083-.918 1.748-2.56 3.079-3.864 4.577-1.836 2.164-3.72 4.286-4.396 6.991-.145.541-.242 1.165-1.159 1.165.338 5.201.869 10.444 1.159 15.646.628 11.318-.048 22.511-4.203 33.33-1.207 3.204-1.787 6.574-3.767 9.529-.483.749-.049 1.04.676 1.248 3.719 1.04 7.487 1.914 11.4 2.289 3.816.374 7.632.333 11.448.374.87-.208 1.739-.374 2.657-.458 2.705-.208 5.41-.54 8.115-.915.822-.125 1.788-.25 2.367-1.04 1.401-1.789 3.478-3.079 5.121-4.702.579-.541 1.497-.832 1.787-1.665-2.125-.749-4.251-.624-6.425-.333z" fill="#E0E0E0"/>
    <path d="M129.11 35.8253c-1.884.749-3.768 1.498-5.652 2.2054-.531.2081-1.063.4577-1.594.5826-.483.1248-1.015.1248-1.256-.3745-.145-.3745.145-.7074.531-.8739 1.015-.4577 2.077-.8738 3.14-1.3315.821-.3329 1.594-.749 2.415-1.0819 1.546-.4161 2.995-.9987 4.493-1.7893-3.237-1.4147-17.922-4.7436-20.433-4.6604.145.7074.241 1.3732.386 2.0806.145.749-.097 1.2899-1.063 1.3731-.579-.5825-.579-1.3731-1.014-2.0389.193-1.2899-.435-2.4967-.531-3.745-.339 0-.532-.0416-.628 0-4.445 2.0806-8.9852 4.0779-13.5742 5.9088-.9661.3744-.628.8322-.2415 1.3731 1.4008 1.7061 2.85 3.3705 4.1542 5.1181 1.0627 1.4564 2.2225 2.3719 4.3955 1.7477.628-.1664 1.305-.1248 1.981-.1665.821.1249 1.594.2081 2.415.3745.58.1249 1.449.0417 1.304.9155-.096.8738-.821.6658-1.497.5825-.87-.0832-1.787-.2912-2.657-.1248-4.2025-.3329-8.55 1.1651-9.8542 3.4953 3.3331-.0832 6.6182-.2497 9.8542-.749h2.464c.579 0 1.207 0 1.304.7074.048.8322-.628.8322-1.304.8738-.145 0-.338.0833-.483.0833-3.092-.2497-6.135.5825-9.2267.4161-2.7534-.1665-4.5407.7906-6.328 2.5798-14.9263 15.188-27.3891 31.7075-36.9535 49.8914-6.5695 12.5244-11.545 25.4654-15.8924 38.6564-3.3814 10.278-6.7145 20.556-8.8399 31.125-2.0288 10.07-3.3814 20.14-2.7534 30.376.2415 4.036 1.2559 7.989 3.2364 11.651 2.3187 4.244 5.9899 7.407 10.6755 9.903 5.4585 2.913 11.4 3.828 17.5831 4.411 8.9365.832 17.9213 1.373 26.906 1.789.2416 0 .5314 0 .7246.042.5797.125 1.5458-.291 1.5458.624.0483.915-.7729.915-1.5941.874-11.6899-.666-23.4763-1.04-35.0696-2.788-8.5017-1.29-15.3611-5.077-20.3365-11.11-3.3331-4.036-4.6373-8.863-5.217-13.773-.8695-7.241-.1449-14.481.7729-21.68 1.9805-15.312 6.8111-30.084 11.6899-44.856 5.0237-15.23 11.4966-29.918 19.7085-44.0659 8.1636-14.1061 18.5009-26.8806 30.0942-38.9477 1.2076-1.2483 2.6085-2.4134 3.9127-3.6202.7246-.6657 1.2077-1.2899 1.3526-2.3302.2898-1.9973 2.3669-2.9959 4.2991-3.8282.4831-.208 1.1594-.1664 1.5458-.6241-.0483-.749-.7729-1.2067-1.2559-1.7893-1.6907-2.0389-3.2848-4.1195-4.7339-6.3248-.4831-.7074-.5797-1.0819.3864-1.4564 5.0721-1.9973 9.9024-4.4524 14.8294-6.6994 1.933-.8738 2.319-.7489 2.899 1.1235.241.749.676 1.0819 1.497 1.2068 6.135.957 12.076 2.663 18.163 3.953 1.401.2913 2.608.9154 4.009 1.1651.966.1664 1.16 1.1651 2.077 1.4564 1.546.5409 2.899 1.3731 4.493 1.8724 1.159.3745 1.256.7074.386 1.5396-.676.6658-1.401 1.2068-2.125 1.8309-.773.6658-1.305.2497-1.932-.2496.386-.3745.724-.7074 1.014-1.0403.241-.2497.531-.541.966-1.0403-1.787-.8322-3.381-1.5812-5.072-2.3718-.483-.2081-.966-.0416-1.449.1248-1.015.5826-2.029 1.0403-3.043 1.498z" fill="#305A77"/>
    <path d="M184.129 147.926c-.048-.624-.193-1.332 1.015-1.249.386.042.821.042 1.207 0 .918-.124.773-.582.387-1.04-.531-.666-1.304-.749-2.174-.832-.435-.042-.676-.333-.724-.707-.049-.292.096-.666.434-.708 2.319-.25 2.464-1.914 2.899-3.37.773-.375.966-1.124 1.352-1.748.242-.333.193-.666-.145-.957-2.222-2.33-5.168-2.83-8.212-1.29-1.932.957-3.864 1.956-6.038 2.455-1.594.375-3.236.291-5.168.375 2.028 2.704 3.671 5.284 7.97 4.452.483-.083 1.014 0 1.497 0 .29 1.123-.193 1.581-1.545 1.498-1.208-.042-2.464-.167-3.72.125-.483.125-1.014.249-1.014.79 0 .624.676.5 1.111.5 1.304 0 2.657-.042 3.961-.042.531 0 .966.125 1.014.707 0 .541-.386.708-.966.708-1.063 0-2.125.041-3.236.083-.387 0-.822.042-1.208-.042-1.836-.249-3.14.333-4.154 1.665-.918 1.165-2.029 2.247-3.14 3.287-1.208 1.124-1.836 2.247-1.449 3.828.29 1.332.386 2.663.579 3.995.339 5.201.87 10.444 1.16 15.646.628 11.318-.049 22.511-4.203 33.33-1.207 3.204-1.787 6.574-3.768 9.529-.483.749-.048 1.04.677 1.248 3.719 1.04 7.487 1.914 11.4 2.289 3.816.374 7.632.333 11.448.374 0 1.082-.676 1.373-1.884 1.415-7.149.125-14.153-.333-20.916-2.538-1.594-.5-2.947-.583-4.347.457-1.112.833-2.561 1.29-3.962 1.79-8.211 2.704-16.713 4.41-25.505 4.91-3.912.249-7.825.333-11.738.416-.531 0-1.497.416-1.594-.458-.145-1.082.87-.957 1.739-.999 1.932-.041 3.816-.124 5.748-.166 10.241-.25 20.192-1.706 29.805-4.827.531-.166 1.062-.374 1.642-.541 3.623-1.04 5.748-3.453 6.908-6.325 3.284-7.906 6.135-15.937 6.618-24.384.193-2.704.241-5.451.338-8.155 0-.333-.338-11.152-.773-16.228-1.063-12.317-2.56-24.592-5.265-36.701-3.913-17.477-10.241-34.2459-18.888-50.4326-3.236-6.0751-6.714-12.0255-10.385-17.8926-.628-1.0403-.628-1.0403-.049-2.2886 19.129 28.5866 31.109 58.9628 34.587 91.6268.918.25 1.063-.249 1.401-.541 2.028-1.623 3.043-4.119 5.893-5.118.869-.291.821-1.664.145-2.413-1.304-1.498-2.705-2.913-4.01-4.411-.338-.375-.869-.791-.579-1.332.29-.54.966-.582 1.546-.499 4.637.624 8.598-.79 12.511-2.871 2.367-1.248 4.927-1.04 7.245.541.725.499 1.45.915 2.319 1.248 1.304.5 1.353.791.676 1.998-.917 1.539-1.739 3.079-2.415 4.702-.435.998-.724 1.872.048 2.871.194.291.242.666.29 1.04.193 1.082-.338 1.623-1.594 1.581-1.014.042-1.932-.041-2.802-.374zM113.362 140.061c-.193 10.694-3.864 20.306-11.738 28.629-5.5069 5.825-12.4145 10.069-21.1095 11.484-11.4966 1.914-21.0128-1.415-28.5484-8.988-5.4102-5.451-8.3085-11.9-9.2746-18.933-1.7873-13.107 1.9322-24.925 11.6899-35.161 5.2652-5.534 11.8831-9.404 20.0949-10.985 8.695-1.664 16.7137-.166 23.8145 4.494 7.4872 4.91 11.6902 11.651 13.7672 19.391.966 3.328 1.401 6.657 1.304 10.069zm-69.2697 6.2c-.1449 3.163.3382 6.325 1.1594 9.404 1.9805 7.49 5.9898 13.982 13.1873 18.725 6.6661 4.369 14.2501 5.701 22.4136 4.161 7.9704-1.539 14.3467-5.367 19.3224-10.777 10.047-10.943 13.429-23.385 10.24-36.992-1.739-7.448-5.748-13.898-12.8487-18.683-7.1009-4.744-15.0713-6.158-23.7662-4.244-7.439 1.664-13.3806 5.367-18.2111 10.402-7.7288 8.114-11.3034 17.56-11.4967 28.004zM189.539 247.208c-3.14-1.373-6.087-2.746-9.082-3.953-1.256-.499-1.787-1.165-1.787-2.289.048-1.373-.048-2.746.048-4.077.145-2.039 1.015-2.414 2.995-1.415 4.444 2.247 8.937 4.494 13.381 6.699.869.416 1.642.957 2.705 1.082.725.083 1.063.624.773 1.124-.821 1.456-.435 2.954-.435 4.452 0 1.373-.628 2.288-1.932 2.996-2.56 1.373-5.072 2.746-7.584 4.161-.483.25-1.014.499-1.449.832-1.594 1.207-1.546 1.207-3.382.291-9.081-4.494-18.211-8.988-27.244-13.565-1.739-.874-3.284-1.165-5.12-.416-.87.375-1.884.624-2.802.916.049.166 0 .416.097.457 2.029.833 2.463 2.206 2.174 4.037-.194 1.331 0 2.704-.049 4.077-.048 1.166-.579 1.415-1.739.833-3.091-1.54-6.183-3.121-9.226-4.702-.628-.292-.966-.666-.918-1.374.145-1.914.193-3.869.097-5.783-.049-1.041.338-1.79 1.401-2.289 4.395-1.997 8.839-4.036 13.235-6.034.87-.416 1.498-.124 2.271.292 9.516 4.868 19.08 9.695 28.596 14.522 2.416 1.165 2.416 1.165 4.976-.874zm-4.734 8.281c.096-1.29.096-2.622.29-3.953.145-1.207-.435-1.79-1.594-2.372-8.695-4.369-17.39-8.78-26.037-13.149-.483-.25-.918-.666-1.787-.458-.049 1.207-.049 2.455-.193 3.745-.145 1.456.434 2.372 1.98 3.121 8.55 4.161 17.004 8.447 25.554 12.649.434.209.869.625 1.787.417zm10.917-11.319c-5.121-2.538-9.951-5.076-15.265-7.614 0 1.581.049 2.704 0 3.869-.048.833.339 1.332 1.208 1.665 3.043 1.29 6.135 2.621 9.178 3.953.58.25 1.063.291 1.642-.042.966-.582 1.981-1.123 3.237-1.831zm-54.15-3.828c2.753 2.705 5.7 3.163 9.081 1.498.58-.291 1.256-.416 1.884-.582.821-.208 1.208-.708 1.208-1.415v-5.035c-4.106 1.873-8.116 3.703-12.173 5.534zm7.245 11.277c.628-1.581.387-3.121.242-4.619-.097-.999-1.497-1.207-2.367-1.748-1.353-.832-2.753-1.581-4.203-2.288-.531-.25-.966-.874-1.787-.458 0 1.248.048 2.538 0 3.828-.048.791.29 1.332 1.111 1.748 2.271 1.082 4.541 2.288 7.004 3.537zm37.872 3.662c3.188-1.748 6.086-3.329 9.033-4.911.435-.249.676-.582.676-1.081v-3.704c-3.285 1.789-6.231 3.329-9.13 4.91-.386.208-.579.5-.579.874v3.912zM199.877 162.946c-.386-.541-.724-1.082-1.014-1.664-1.739-2.456-3.43-4.952-5.266-7.324-.434-.541-.676-1.872-1.739-1.373-1.69.79 0 1.623.435 2.247 3.575 4.952 6.908 9.986 9.468 15.354 5.41 11.36 8.164 23.136 7.97 35.453-.048 4.41-1.304 8.488-4.299 12.15-1.207 1.456-2.705 2.538-4.734 2.996-1.062.25-2.125.416-3.14.666-.579.125-1.497 0-1.159.957.29.915 1.063.499 1.643.416 1.159-.167 2.27-.375 3.381-.666.724-.166 1.449-.333 2.174-.041 3.574 1.373 7.39 1.622 11.206 1.789 4.396.125 8.84.125 13.236.083 1.304 0 1.884-.416 1.642-1.54-6.569.125-13.139.292-19.66-.374-1.69-.167-3.381-.416-5.168-1.165 2.56-2.913 4.83-5.826 5.844-9.238.145-.998.387-1.955.484-2.954.772-6.699-.097-13.316-1.305-19.89-.676-3.745-2.029-7.407-2.995-11.069-1.642-3.911-3.284-7.864-5.265-11.651-.821-.915-1.546-2.912-1.739-3.162zM233.981 139.145c.869-1.081.773-1.373-.58-1.955-3.188-1.415-6.618-1.831-10.192-1.79-1.498 0-3.043.167-4.348.874-2.85 1.54-5.941 2.164-9.226 2.414-1.063.083-2.367.083-2.753 1.082-.339.915.821 1.456 1.449 2.08 1.787 1.831 3.623 3.662 5.507 5.534-1.111.708-1.788 1.415-2.464 2.123-2.512 2.538-4.589 5.367-6.521 8.28.048.125.096.25.145.375.145.582.338 1.04.579 1.539 1.884-2.663 3.672-5.368 5.845-7.906 1.111-1.29 2.174-2.288 4.251-1.706.29.083.676.042.966.083 1.498-.249 2.995-.582 4.541-.457.435-.375.435-.791.193-1.249-.869.333-1.787.333-2.705.208-1.256.375-2.512.708-4.106.292 1.208-1.79 2.995-2.331 5.121-2.289.338-.042.627-.083.966-.083 1.159-.042 1.304-.416.579-1.165-1.69.333-3.526.166-5.072.998-.483.292-.918.167-1.304-.249-1.836-1.914-3.72-3.787-5.845-5.909 1.159-.166 1.981-.333 2.85-.416 2.512-.25 4.879-.832 7.004-2.039 1.015-.541 2.126-.832 3.285-.957 3.092-.291 6.135.125 9.033 1.04.966.291 1.256.708.387 1.373-1.111 1.873-2.947 3.412-3.865 5.41-.386.79-1.401.874-2.174 1.414.628.999 2.561.666 2.512 2.081-.724.458-1.835-.208-2.463.624.579 1.082 1.787.375 2.657.666.772.25 1.69.707 2.318-.042.58-.707-.386-1.29-.724-1.914-.58-.957-.677-1.664.048-2.746 1.352-1.873 2.657-3.787 4.106-5.618zM253.012 193.905c-.483 2.58-1.063 4.785-2.077 6.907-.966 2.081-2.367 3.953-4.202 5.535-4.058 3.453-9.613 3.911-14.347 1.206-4.058-2.33-6.57-5.7-8.164-9.529-2.85-6.699-3.14-13.44-.241-20.181.966-2.247 2.415-4.244 4.347-5.95 4.058-3.496 9.806-3.953 14.588-1.165.145.083.242.166.435.249.773.292 1.304 1.457 2.27.791.725-.499-.096-1.332-.386-1.956-1.787-3.953-3.864-7.781-6.135-11.526-.241-.374-.434-.791-.676-1.165-.435-.583-.435-1.124.29-1.456.869-.375.966.374 1.159.749 3.188 5.201 6.038 10.527 8.357 16.061 4.106 9.945 7.487 20.057 8.985 30.584.531 3.62.773 7.282.29 10.944-.435 3.204-1.788 5.992-5.362 7.531-.628.292-1.546 1.082-2.126.25-.579-.874.532-1.165 1.256-1.498 3.478-1.539 4.396-4.327 4.638-7.365.338-4.952-.194-9.903-1.305-14.772-.338-1.331-.29-2.829-1.594-4.244zm-6.666-20.556c.048.042.097.083.145.125h.097c-.049-.042-.145-.042-.242-.125.242-.541.097-.999-.386-1.415-.677-.208-.918-.041-.58.541.193.416.58.666.966.874zm-22.558 13.191c-.049 5.992 1.304 10.902 4.637 15.396 1.159 1.581 2.657 2.954 4.396 4.078 4.444 2.746 9.564 2.288 13.235-1.249 1.401-1.331 2.56-2.829 3.237-4.535 3.526-8.406 2.56-16.478-2.802-24.135-1.159-1.664-2.802-3.037-4.686-4.119-4.106-2.372-8.791-1.997-12.269.999-1.594 1.373-2.802 2.996-3.671 4.827-1.45 2.995-2.174 6.158-2.077 8.738z" fill="#305A77"/>
    <path d="M236.976 222.409c-6.569.124-13.139.291-19.66-.375-1.691-.166-3.381-.416-5.169-1.165 2.56-2.913 4.831-5.826 5.845-9.238 1.111-.208 2.174-.582 3.382-.041 2.85 1.248 6.086 1.29 9.129 1.747 3.333.5 6.666.957 10.048 1.207 2.318.167 4.637.25 6.907.541 1.546.167 2.899.583 3.865 1.665.531.582.579 1.123-.387 1.539-2.946 1.165-5.845 2.372-8.791 3.537-.483.208-1.16.208-1.691.166-1.208-.083-2.319.167-3.478.417z" fill="#E0E0E0"/>
    <path d="M176.642 206.013c-5.362-3.578-8.115-8.405-8.936-14.106-.773-5.284.241-10.236 3.236-14.938 1.256-1.789 2.754-3.412 4.686-4.702 5.555-3.828 12.414-3.787 17.824.125 4.058 2.954 6.28 6.782 7.343 11.193 1.497 6.366.531 12.442-3.623 17.934-2.56 3.371-5.99 5.701-10.772 6.367-3.575.582-6.715-.416-9.758-1.873zm23.042-17.809c.048-1.332-.242-3.204-.773-4.994-1.208-4.077-3.381-7.614-7.391-10.153-4.202-2.663-9.709-2.704-13.96-.083-1.932 1.165-3.575 2.622-4.686 4.369-4.927 7.698-4.927 15.438.145 23.094 1.063 1.623 2.609 2.955 4.396 4.078 4.348 2.746 9.854 2.705 14.154-.041 1.835-1.166 3.333-2.58 4.492-4.245 2.512-3.537 3.623-7.365 3.623-12.025z" fill="#305A77"/>
    <path d="M216.687 150.172c.049.582-.193 1.081-.628 1.581-1.545 1.914-2.946 3.953-4.54 5.867-2.174 2.58-3.961 5.368-5.99 8.031-.193.25-.532.333-.821.374 1.98 3.829 3.623 7.74 5.265 11.651.821-.249 1.401-.749 1.642-1.456.725-2.205 1.884-4.244 2.56-6.45 1.595-4.868 2.899-9.778 4.879-14.563.725-1.79 1.739-3.537 2.126-5.452-1.498-.166-2.995.167-4.493.417zM231.71 139.311c-1.111 1.873-2.946 3.412-3.864 5.41-.387.79-1.401.873-2.174 1.414.628.999 2.56.666 2.512 2.081-.725.458-1.836-.208-2.464.624-1.449.166-2.85-.291-4.251-.333-.869.333-1.787.333-2.705.208-.048-.79 1.063-1.165 1.015-1.956.338-.041.628-.083.966-.083 1.159-.041 1.304-.416.58-1.165 0-3.079 2.222-5.076 4.733-6.824.967-.666 2.271-.666 3.527-.208.676.25 1.207.915 2.125.832z" fill="#E0E0E0"/>
    <path d="M121.912 43.1495c-.434-.6242-.531-1.0403.58-1.0403 2.464 0 4.927 0 7.439-.0416.918 0 1.787-.0416 2.705-.0832.773.1664 1.594.3329 2.319.4993.096.7074-.387.8322-.87.8738-3.816.2497-7.584.3329-11.4.2497-.241 0-.531-.2913-.773-.4577zM114.328 43.3574c.096-.7074.29-1.3315 1.352-.8738.87.3745 1.691.8738 2.561 1.2899.869 1.2483 1.256 2.6215 1.352 4.0363-.966.208-1.352-.4161-1.449-.8739-.483-1.7892-2.029-2.7463-3.816-3.5785z" fill="#305A77"/>
    <path d="M110.077 31.9552c.966-.1248 1.208-.6241 1.063-1.3731-.145-.7074-.242-1.3732-.387-2.0806 2.512-.0832 17.197 3.2457 20.433 4.6604-1.497.7906-2.946 1.3732-4.492 1.7893-1.401-1.6644-2.512-1.9973-4.299-.957-3.237 1.8308-6.521 3.6617-9.226 6.0751-.339.2913-.725.6242-1.111.8739-.435.2496-.967.3329-1.401.0832-.435-.2081-.194-.5826-.145-.9571.483-2.7463-.049-5.4094-.435-8.1141zM104.619 40.1948c-.677.0416-1.353-.0416-1.981.1664-2.174.6242-3.333-.3328-4.3957-1.7476-1.3042-1.7477-2.7534-3.4121-4.1542-5.1181-.4348-.4994-.7246-.9571.2415-1.3732 4.589-1.8309 9.0814-3.8698 13.5734-5.9087.145-.0416.338 0 .628 0 .145 1.2483.725 2.455.532 3.7449-.387.1249-.773.2081-1.16.3329-2.367.7906-3.719 1.9973-3.333 4.4524.29 1.7476.049 3.6201.049 5.451zM104.184 44.7303c-3.237.4993-6.5216.6658-9.8547.749 1.3043-2.3718 5.6518-3.8698 9.8547-3.4953v2.7463zM178.478 143.306c-.483 0-1.014-.083-1.498 0-4.299.833-5.941-1.747-7.97-4.452 1.932-.042 3.575 0 5.169-.374 2.174-.5 4.106-1.457 6.038-2.455 3.043-1.54 6.038-1.041 8.212 1.289.29.333.338.625.145.958-.387.624-.58 1.373-1.353 1.747-1.111-1.248-2.512-.832-3.768-.374-1.304.499-2.656 1.165-3.429 2.33-.338.582-.87 1.04-1.546 1.331zM164.663 160.409c-.193-1.332-.241-2.705-.58-3.995-.386-1.581.242-2.746 1.45-3.828 1.111-1.04 2.222-2.122 3.139-3.287 1.063-1.332 2.367-1.914 4.155-1.665.386.042.821.042 1.207.042-.917 1.748-2.56 3.079-3.864 4.577-1.836 2.164-3.72 4.286-4.396 6.991-.096.499-.241 1.165-1.111 1.165zM44.0925 146.26c.1933-10.444 3.7679-19.889 11.545-28.004 4.8305-5.035 10.7721-8.738 18.2111-10.402 8.6949-1.956 16.7136-.5 23.7662 4.244 7.1012 4.744 11.1102 11.235 12.8492 18.683 3.188 13.649-.193 26.09-10.241 36.992-4.9752 5.41-11.3515 9.279-19.3218 10.777-8.1636 1.54-15.7476.209-22.4137-4.161-7.2458-4.743-11.2068-11.235-13.1873-18.724-.8695-3.08-1.3526-6.242-1.2077-9.405zm11.3518-15.479c-.2415.5.0483.957.1932 1.457 1.4975 4.826 2.9466 9.695 4.4441 14.522 1.2076 3.953 2.4636 7.864 3.6229 11.859.2898.999.7246 1.539 1.9805 1.373.3381-.042.6763 0 1.0144 0 1.8839 0 1.9322 0 2.4636-1.664 2.3186-7.157 4.589-14.356 6.9076-21.555.1933-.666.2899-1.373.9178-1.914 1.0627.416.9661 1.332 1.1594 2.039 1.594 4.827 3.0915 9.654 4.6373 14.481.7728 2.413 1.4974 4.826 2.3186 7.24.1449.458.0966 1.123.8212 1.248 1.1593.208 2.367.25 3.478 0 .8212-.208.6763-1.082.8695-1.664 2.8017-8.78 5.6034-17.56 8.3568-26.298.0966-.375.5313-.791 0-1.249-.2415 0-.5797-.083-.9178-.083-3.1399.042-2.7534-.416-3.5263 2.414-1.8839 6.824-3.8644 13.648-5.7966 20.472-.1449.583-.0483 1.332-1.1594 1.498-1.6423-7.407-4.2508-14.605-6.6178-21.804-.9661-2.954-.1449-2.497-3.961-2.538-2.0771 0-2.0771 0-2.6568 1.789-1.5458 4.744-3.0915 9.529-4.6373 14.273-.9178 2.871-1.8356 5.783-2.7534 8.696-.7729-.416-.8212-1.04-.9661-1.581-1.7873-6.783-3.5746-13.523-5.4102-20.306-.8212-3.121-.8695-3.121-4.5407-2.746-.0966-.042-.1932 0-.2415.041z" fill="#fff"/>
    <path d="M184.806 255.489c-.869.208-1.304-.208-1.787-.416-8.502-4.203-17.003-8.447-25.553-12.65-1.498-.749-2.126-1.664-1.981-3.121.145-1.248.145-2.538.193-3.745.87-.208 1.305.208 1.788.458 8.695 4.369 17.341 8.822 26.036 13.149 1.16.583 1.739 1.165 1.594 2.372-.193 1.331-.241 2.663-.29 3.953zM195.722 244.171c-1.208.666-2.271 1.248-3.285 1.873-.531.332-1.063.291-1.642.041-3.044-1.331-6.087-2.663-9.178-3.953-.87-.374-1.256-.832-1.208-1.664.048-1.124 0-2.289 0-3.87 5.314 2.497 10.192 5.035 15.313 7.573z" fill="#E0E0E0"/>
    <path d="M141.573 240.342c4.058-1.831 8.067-3.662 12.125-5.492v5.035c0 .707-.387 1.206-1.208 1.414-.628.167-1.304.292-1.884.583-3.333 1.623-6.279 1.207-9.033-1.54zM148.818 251.619c-2.464-1.248-4.734-2.455-7.053-3.579-.821-.416-1.159-.915-1.111-1.747.048-1.29 0-2.58 0-3.828.869-.375 1.304.208 1.787.457 1.401.749 2.85 1.498 4.203 2.289.869.499 2.27.707 2.367 1.747.193 1.498.434 3.08-.193 4.661zM186.69 255.281v-3.87c0-.375.193-.708.579-.874 2.899-1.581 5.845-3.162 9.13-4.91v3.703c0 .458-.242.833-.676 1.082-2.899 1.54-5.845 3.163-9.033 4.869zM231.71 139.312c-.917.042-1.449-.624-2.173-.873-1.256-.458-2.56-.458-3.527.208-2.511 1.747-4.782 3.745-4.733 6.824-1.691.333-3.527.166-5.073.998-.483.292-.917.167-1.304-.249-1.835-1.914-3.719-3.787-5.845-5.909 1.16-.166 1.981-.333 2.85-.416 2.512-.25 4.879-.832 7.005-2.039 1.014-.541 2.125-.832 3.284-.957 3.092-.291 6.135.125 9.033 1.04 1.015.333 1.305.708.483 1.373zM216.688 150.173c-.338 0-.677.042-.966-.083-2.078-.583-3.14.416-4.251 1.706-2.126 2.538-3.913 5.243-5.845 7.906.193.374.435.79.773 1.207.628.873.145 2.247-.725 2.746-.725.416-1.497.291-2.077-.125-.048.832.338 1.623 1.111 2.455.338-.041.628-.125.821-.374 2.029-2.663 3.816-5.451 5.99-8.031 1.594-1.914 2.995-3.912 4.541-5.867.386-.458.676-.957.628-1.54zM202.582 163.737c.821-.333 1.353-1.29.725-1.872-.338-.292-.58-.583-.773-.833-.338.292-.628.625-.966.916-.677.624-1.063 1.165-1.063 1.748.58.249 1.353.332 2.077.041zM219.682 146.718c.048.791-1.063 1.165-1.015 1.956-1.256.374-2.512.707-4.106.291 1.208-1.789 2.995-2.289 5.121-2.247zM223.787 186.539c-.096-2.579.628-5.7 2.078-8.738.869-1.831 2.077-3.412 3.671-4.827 3.478-2.996 8.163-3.37 12.269-.998 1.884 1.082 3.478 2.455 4.686 4.119 5.41 7.657 6.328 15.687 2.802 24.134-.725 1.706-1.836 3.204-3.237 4.536-3.671 3.537-8.791 3.995-13.235 1.248-1.788-1.123-3.237-2.455-4.396-4.078-3.333-4.493-4.734-9.445-4.638-15.396zm19.371 7.241c-.29-.708-.531-1.082-.58-1.498-.483-2.622-1.642-5.077-2.318-7.657-.194-.749-.483-1.456-1.739-1.498-1.16 0-1.643.458-1.884 1.332-.242.749-.532 1.498-.773 2.247-.725 2.247-1.449 4.536-2.222 6.907-.58-.582-.58-1.082-.725-1.539-.628-2.58-1.352-5.16-2.029-7.74-.193-.832-.773-1.29-1.739-1.123-1.111.208-.773.915-.579 1.539.434 1.373.869 2.747 1.304 4.12.676 2.288 1.352 4.577 2.029 6.865.193.708.579 1.166 1.449 1.207.869.042 1.401-.333 1.594-1.082.29-.957.676-1.914.966-2.871.725-2.288 1.449-4.577 2.222-6.907.676.208.628.624.725.957.966 2.954 1.884 5.909 2.85 8.863.338 1.04 1.787 1.415 2.463.749.29-.291.435-.749.58-1.165.918-2.83 1.787-5.659 2.657-8.489.29-.915.531-1.789.821-2.705.145-.416.241-.873-.387-1.081-.579-.167-1.159-.125-1.594.291-.386.333-.338.79-.483 1.207-.821 2.996-1.69 5.908-2.608 9.071z" fill="#fff"/>
    <path d="M238.665 171.933c.483.416.628.916.338 1.457l.048-.042c-.434-.208-.772-.499-.917-.915.145-.167.338-.333.531-.5z" fill="#E0E0E0"/>
    <path d="M238.666 171.933c-.193.167-.387.375-.58.541-.29-.582-.048-.749.58-.541z" fill="#fff"/>
    <path d="M239.004 173.39c.097.042.193.042.29.084h-.097c-.048-.042-.096-.084-.193-.084 0 0 .048-.041 0 0z" fill="#E0E0E0"/>
    <path d="M199.683 188.205c-.048 4.619-1.111 8.488-3.574 11.984-1.16 1.664-2.705 3.079-4.493 4.244-4.347 2.746-9.806 2.746-14.153.042-1.787-1.124-3.285-2.414-4.396-4.078-5.072-7.657-5.12-15.396-.145-23.094 1.159-1.79 2.802-3.204 4.686-4.369 4.251-2.622 9.757-2.58 13.96.083 4.009 2.538 6.183 6.117 7.391 10.153.483 1.872.773 3.703.724 5.035zm-14.443-2.497c.386 1.082.628 1.664.773 2.289.821 2.704 1.691 5.367 2.463 8.072.194.666.58.999 1.353.999.725 0 1.304-.167 1.642-.791.194-.416.338-.79.483-1.207.967-3.162 1.933-6.366 2.85-9.528.242-.791.967-1.873-.434-2.164-1.256-.25-1.449.915-1.788 1.706-.096.208-.048.416-.145.624-.628 2.205-1.255 4.452-1.883 6.658-.097.333.096.915-.773.915-.725-2.33-1.449-4.66-2.222-6.99-.242-.749-.532-1.498-.822-2.247-.193-.541-.676-.749-1.352-.791-.725 0-1.353.125-1.594.791-.29.749-.532 1.498-.821 2.247-.966 2.579-1.45 5.243-2.705 7.864-.822-3.162-1.643-6.158-2.464-9.154-.097-.416-.242-.833-.483-1.207-.242-.416-.725-.583-1.256-.458-.483.125-.58.458-.58.832 0 .292-.048.583.049.874l3.333 10.986c.193.624.483.998 1.352 1.04.918.041 1.401-.333 1.643-1.04.241-.666.483-1.374.724-2.039.918-2.622 1.739-5.202 2.657-8.281z" fill="#fff"/>
    <path d="M55.4443 130.781c.0483-.042.1449-.083.1933-.125 3.6712-.375 3.7195-.375 4.5406 2.746 1.8356 6.783 3.6229 13.524 5.4102 20.306.145.541.1933 1.165.9661 1.582.9178-2.913 1.8356-5.826 2.7534-8.697 1.5458-4.744 3.0916-9.529 4.6373-14.273.5797-1.747.5797-1.789 2.6568-1.789 3.8161.042 2.995-.458 3.9611 2.538 2.3669 7.241 5.0237 14.398 6.6178 21.804 1.1593-.166 1.0144-.915 1.1593-1.498l5.7966-20.472c.7729-2.788.3865-2.33 3.5263-2.413.3382 0 .628.041.9178.083.5314.499.1449.874 0 1.248-2.7534 8.78-5.5551 17.56-8.3568 26.298-.1932.583-.0483 1.498-.8695 1.665-1.111.249-2.3186.208-3.478 0-.7245-.125-.6762-.791-.8212-1.249-.7728-2.413-1.5457-4.827-2.3186-7.24-1.5458-4.827-3.0432-9.695-4.6373-14.481-.2415-.707-.0966-1.622-1.1593-2.039-.628.541-.6763 1.249-.9178 1.915-2.3187 7.198-4.589 14.355-6.9077 21.554-.5313 1.664-.5313 1.664-2.4635 1.664-.3382 0-.6763-.041-1.0145 0-1.2559.167-1.6906-.374-1.9805-1.373-1.1593-3.953-2.4152-7.906-3.6229-11.859-1.4974-4.827-2.9466-9.695-4.4441-14.522-.0966-.416-.4347-.874-.1449-1.373zM243.158 193.781c.918-3.204 1.788-6.075 2.609-8.988.097-.416.097-.874.483-1.207.435-.416 1.014-.458 1.594-.291.628.208.531.624.387 1.082-.29.915-.532 1.789-.822 2.704-.869 2.83-1.787 5.659-2.656 8.489-.145.416-.29.874-.58 1.165-.676.666-2.077.291-2.464-.749-1.014-2.954-1.932-5.909-2.85-8.863-.096-.333-.048-.707-.724-.957-.725 2.33-1.449 4.619-2.222 6.907-.29.957-.677 1.914-.966 2.871-.242.749-.725 1.082-1.594 1.082-.918-.041-1.256-.499-1.45-1.206-.628-2.289-1.304-4.578-2.028-6.866-.435-1.373-.87-2.746-1.305-4.12-.193-.624-.483-1.331.58-1.539.966-.208 1.546.291 1.739 1.123.676 2.58 1.352 5.16 2.029 7.74.145.499.145.999.724 1.539.773-2.371 1.498-4.618 2.222-6.907.242-.749.532-1.498.773-2.247.242-.874.677-1.331 1.884-1.331 1.256 0 1.546.707 1.739 1.498.676 2.579 1.884 5.034 2.319 7.656.048.333.29.749.579 1.415zM185.24 185.707c-.966 3.08-1.787 5.66-2.608 8.281-.242.707-.435 1.373-.725 2.039-.242.707-.773 1.04-1.642 1.04-.822-.041-1.16-.416-1.353-1.04-1.111-3.662-2.222-7.324-3.333-10.985-.097-.292-.048-.583-.048-.874 0-.375.096-.707.579-.832.532-.125 1.015.041 1.256.457.242.375.387.791.483 1.207.821 2.996 1.594 5.992 2.464 9.154 1.256-2.621 1.739-5.326 2.705-7.864.29-.749.531-1.498.821-2.247.242-.624.87-.791 1.594-.791.676 0 1.111.25 1.353.791.29.749.579 1.498.821 2.247.725 2.33 1.497 4.66 2.222 6.991.869.041.676-.541.773-.916.628-2.205 1.256-4.452 1.884-6.658.048-.208.048-.416.145-.624.338-.79.531-1.997 1.787-1.706 1.401.292.676 1.373.435 2.164-.966 3.204-1.932 6.366-2.85 9.529-.145.416-.29.832-.483 1.207-.29.624-.918.79-1.643.79-.773 0-1.159-.291-1.352-.998-.773-2.705-1.643-5.41-2.464-8.073-.193-.582-.435-1.207-.821-2.289z" fill="#39B6ED"/>
</svg>
