<svg viewBox="0 0 384 384" fill="none" xmlns="http://www.w3.org/2000/svg">
    <path d="M330.302 133.892c-1-7.5-15.809-8.674-26.5-7.5-7.75.851-14.971 0-18.5 7.5-8 17-7 98-4.5 98s49.5.5 54.5 0-4-90.5-5-98zM201 178c-14.5 7.5-19-.5-25-7.5l24-15.5 7 7c2.833 2.833 5.6 10-6 16zM266 152c-3 1-5 2-6 5.5l4 6.5 8-1 6.5-6.5-2.5-2-4-1.5v-3l-6 2zM167.5 233.5l-5.5 1v4.5l4 2.5-2.5 15-10.5 42-2 13.5 11 5 21.5-2 1.5-7-13-68v-5.5l-4.5-1zM63 227c0 14.912-12.3122 27-27.5 27S8 241.912 8 227s12.3122-27 27.5-27S63 212.088 63 227z" fill="#fff"/>
    <path d="M243.867 313.83c3.837-2.624 7.81-5.041 11.904-7.241 1.108-.494 2.327-.681 3.532-.542h92.633c.987 0 2.057.363 2.969-.425 1.136.603 2.191 1.347 3.141 2.215 6.37 4.457 12.685 8.983 19.021 13.488.432.315 1.18.48.988 1.371-.538.278-1.153.369-1.749.261l-22.8.301h-2.057c-.61 0-.891.419-1.124.906-.153.212-.363.377-.606.474-.243.097-.509.123-.766.074h-20.955c-.258-.026-.513-.076-.761-.151 0-.425.15-.953-.446-1.035-.683-.075-1.37-.103-2.057-.082-7.084.096-14.174.219-21.257.288l-74.14.582c-1.028.13-2.072.056-3.072-.219 0-.686.816-1.193.686-1.982 5.988 1.047 12.12.942 18.068-.308 2.352-.302 2.743-.83 2.442-3.045-.108-1.067-.497-2.085-1.129-2.952-.631-.866-1.482-1.549-2.465-1.978zM381.778 324.067c0-1.529-1.289-2.132-2.324-2.866-5.932-4.21-11.897-8.393-17.829-12.617-1.038-.599-1.981-1.35-2.798-2.228.844-.298 1.751-.369 2.63-.206.88.162 1.701.552 2.383 1.131 6.062 4.498 12.226 8.818 18.391 13.2.288.206.59.371.857.576.402.265.694.667.82 1.132.127.465.079.96-.134 1.392-.35.912-1.248.582-1.996.486zM183.024 173.992c.132-.48.224-.971.274-1.467 0-.473.179-1.077-.445-1.289-.624-.213-.803.137-1.05.5-.253.34-.601.597-1 .74-.398.142-.831.164-1.242.062.124-.912-.83-1.371-.932-2.16 2.105-1.371 4.642-2.057 6.356-4.073l1.276-.37c.17 2.046.083 4.106-.261 6.13-.597 2.174-.542 2.181-2.976 1.927zM192.494 163.233c.079-.032.162-.055.247-.068 2.742.288 4.697-.474 4.998-3.6.07-.351.234-.677.476-.94.242-.264.552-.456.896-.555l3.271-1.481c.219 1.289-.686 2.475-.405 3.764-1.577.46-1.844 1.591-1.508 3.017-.083.556-.336 1.029-.954 1.043h-5.677c-.301-.077-.58-.224-.813-.429-.234-.205-.416-.462-.531-.751zM220.601 324.287c-.216.117-.446.205-.685.261-.343 0-.686 0-.686-.494s.308-.309.555-.336l.734-.11c.061.221.088.45.082.679zM190.43 163.124c.174-.131.386-.201.603-.201.218 0 .429.07.604.201-.163.155-.379.243-.604.243-.225 0-.441-.088-.603-.243zM180.665 174.877c-.233 0-.439-.151-.37-.425.068-.275.233-.11.37-.179v.604zM214.471 230.282c6.357-1.379 12.623-3.151 18.761-5.307.624-.219 1.372-.651 1.481.555-5.405 2.023-10.979 3.563-16.656 4.602-1.189.148-2.389.198-3.586.15zM167.239 234.506c-.17.214-.417.352-.688.384-.271.032-.544-.044-.759-.212-.06-.052-.115-.11-.165-.172.519-.199 1.093-.199 1.612 0z" fill="#C1E8F4"/>
    <path d="M227.39 313.72c0-6.398-.748-12.741-1.262-19.097-.624-7.735-1.207-15.463-1.481-23.218-.286-7.236-1.031-14.446-2.229-21.587-.226-1.44-.432-2.893-.583-4.347-.082-.816-.349-1.371-1.248-1.234.458-.384 1.005-.648 1.59-.768.586-.12 1.192-.092 1.764.082.101.036.208.051.316.045.107-.005.212-.032.309-.079.097-.046.183-.112.255-.192.071-.08.126-.173.162-.275.072-.214.056-.449-.044-.652s-.277-.358-.491-.431c-.069-.02-.141-.034-.213-.041-.677-.13-1.369-.171-2.057-.124-1.966.285-3.902.744-5.787 1.372-1.481.343-2.558.761-2.462 2.654-.097.952-.359 1.88-.775 2.742-1.94 5.623-3.949 11.232-5.815 16.883-2.062 5.759-3.697 11.663-4.889 17.664-1.639 9.504-3.202 19.015-4.889 28.525-.1.926-.494 1.794-1.125 2.478-.631.684-1.465 1.147-2.379 1.321-2.743.857-5.3.329-7.934-.144.343-3.058 1.077-6.048 1.468-9.12 1.07-8.461 2.489-16.896 4.155-25.248 2.38-11.835 5.15-23.595 7.687-35.389 1.022-4.711 2.325-9.374 3.031-14.154 3.984-.452 8.002-.356 11.973-1.035 1.204.049 2.41-.001 3.606-.151 5.668-1.04 11.233-2.58 16.629-4.601 1.494 5.48 2.312 11.122 2.434 16.8.295 7.145-.343 14.29-.315 21.442 0 3.107.219 6.206.26 9.305.11 6.981.124 13.961.247 20.942.089 5.596.323 11.198.46 16.793 0 1.859-.179 2.188-1.886 2.407-2.795.527-5.648.673-8.482.432z" fill="#39B6ED"/>
    <path d="M180.734 317.416c2.057-1.09 4.073-.686 6.288-.233 3.389.8 6.95.402 10.08-1.125.505-.208.945-.55 1.272-.988.327-.438.529-.957.586-1.501 1.838-9.833 3.428-19.693 5.122-29.561 1.036-5.593 2.513-11.096 4.416-16.457 2.284-6.789 4.629-13.584 6.967-20.373.885-2.571 1.193-2.742 4.169-2.811-.418.391-.987.514-1.22 1.221-3.429 11.019-7.715 21.737-10.663 32.914-1.207 4.594-1.783 9.291-2.62 13.954-1.227 6.679-2.297 13.392-3.483 20.092-.213 1.001-.213 2.036 0 3.037.221 1.097.327 2.214.315 3.333 0 3.298-1.021 4.423-4.375 4.8-.219-1.125 1.591-1.289 1.063-2.812-2.002.35-3.709 1.79-5.897 1.9-2.049.224-4.115.261-6.171.11-2.133-.302-4.334-.11-6.412-.844-.021-1.57.168-3.136.563-4.656zM187.7 164.632c-.301.638-1.008.844-1.44 1.372l-1.275.37c-.686-.912-1.632-.686-2.53-.521-.48-1.791-.233-3.698.685-5.308.288-.521.528-1.227-.178-1.563-.706-.336-1.056.363-1.371.857-.857 1.59-1.211 3.402-1.015 5.198.109 2.544.082 2.544-2.421 3.291-1.083-2.148-1.865-4.434-2.324-6.795-.136-.678-.114-1.378.063-2.046.177-.668.505-1.286.958-1.808 1.252-1.654 2.745-3.11 4.43-4.32 3.204-2.635 6.79-4.766 10.636-6.322 1.882.296 3.638 1.128 5.06 2.396 1.422 1.268 2.448 2.919 2.955 4.756-.343-.069-.68-.165-1.007-.288-3.696-1.852-7.351-1.221-10.972.247-.556.228-1.086.513-1.584.85-.15.083-.263.219-.318.381-.054.163-.046.34.023.497.08.154.209.278.366.352.158.074.335.095.505.059.493-.14.975-.319 1.44-.535 2.305-.993 4.83-1.367 7.323-1.083.538-.013 1.071.089 1.566.3.494.21.938.524 1.301.92-.357.427-.835.736-1.372.885-3.201 1.503-6.245 3.323-9.085 5.431-1.056.727-1.289 1.405-.419 2.427zM202.615 156.28c.198-.426.274-.898.218-1.365-.056-.466-.241-.908-.534-1.275-1.69-3.206-4.176-5.924-7.22-7.892.781-.171 1.592-.148 2.363.065.771.214 1.478.613 2.06 1.162 2.177 1.672 3.951 3.811 5.19 6.261.885 1.549.446 2.16-2.077 3.044zM241.899 310.484c-.555.548-1.083 1.131-1.968 1.021-.685-.747-.473-1.646-.5-2.489-.604-19.68-.898-39.394-.624-59.047.32-7.751-.348-15.512-1.989-23.095-.118-.68-.189-1.367-.212-2.057.338-.044.663-.162.951-.346.288-.184.532-.428.715-.717 1.33 3.167 2.098 6.541 2.27 9.971.675 6.867.819 13.777.432 20.667-.396 7.151-.345 14.319.151 21.463v2.057c.027 10.841.507 21.71.774 32.572zM245.054 321.722c.213-1.878-.158-3.777-1.063-5.437-.24-.46-.611-.988-1.193-.686-.583.302-.432.871-.192 1.371.042.08.078.162.109.247 1.022 3.196 1.036 3.285-2.187 3.628-3.352.296-6.721.341-10.08.137-.776-.062-1.528-.296-2.201-.686-.113-.037-.212-.109-.281-.206-.096-1.44-.206-2.893-.302-4.347 1.873-.242 3.761-.354 5.65-.336 2.931-.205 5.761-1.149 8.229-2.743.322 1.372 1.371 1.159 2.359 1.186.967.425 1.807 1.096 2.434 1.947.627.851 1.019 1.851 1.138 2.901.295 2.195-.123 2.723-2.42 3.024zM193.035 161.128c.275-.775 1.008-.912 1.605-1.2.384-.185.884-.24.967.384.054.205.026.423-.079.606-.106.184-.279.319-.484.375h-.034c-.323.108-.665.149-1.004.121-.34-.029-.67-.126-.971-.286z" fill="#39B6ED"/>
    <path opacity=".503" fill-rule="evenodd" clip-rule="evenodd" d="M51.6112 213.187c-.3824-.139-.7885-.202-1.195-.184-.4065.018-.8056.115-1.1743.288-.3688.172-.7001.415-.9749.715-.2749.3-.4879.651-.627 1.033l-7.4196 20.382c-.1452.384-.2128.792-.1989 1.202.0139.41.1092.813.2801 1.186.171.373.4143.708.7158.986.3015.279.6553.494 1.0408.634.3854.141.7949.203 1.2047.184.4098-.019.8117-.12 1.1823-.295.3707-.176.7028-.423.9771-.729.2743-.305.4852-.661.6207-1.048l7.4182-20.382c.2811-.772.2439-1.624-.1033-2.369-.3472-.744-.9759-1.321-1.748-1.602l.0013-.001z" fill="#39B6ED"/>
    <path opacity=".503" fill-rule="evenodd" clip-rule="evenodd" d="M34.6365 213.187c.3824-.139.7884-.202 1.195-.184.4065.018.8055.115 1.1743.288.3688.172.7.415.9749.715.2749.3.4879.651.627 1.033l7.4183 20.382c.1452.384.2128.792.1989 1.202-.014.41-.1092.813-.2801 1.186-.171.373-.4143.708-.7158.986-.3016.279-.6553.494-1.0408.634-.3855.141-.7949.203-1.2047.184-.4098-.019-.8117-.12-1.1824-.295-.3707-.176-.7028-.423-.977-.729-.2743-.305-.4853-.661-.6207-1.048l-7.4195-20.382c-.2811-.772-.2439-1.624.1033-2.369.3471-.744.9759-1.321 1.748-1.602l.0013-.001zm-17.784 1.061c1.5444-.562 3.2489-.488 4.7383.207 1.4895.695 2.6421 1.953 3.2042 3.497l6.3583 17.469c.1452.384.2128.792.1989 1.202-.0139.41-.1092.813-.2801 1.186-.171.373-.4143.708-.7158.986-.3015.279-.6553.494-1.0408.634-.3854.141-.7949.203-1.2047.184-.4098-.019-.8117-.12-1.1823-.295-.3707-.176-.7028-.423-.9771-.729-.2743-.305-.4852-.661-.6207-1.048l-8.4782-23.293z" fill="#39B6ED"/>
    <path opacity=".503" fill-rule="evenodd" clip-rule="evenodd" d="M36.7386 213.187c-.3824-.139-.7884-.202-1.195-.184-.4065.018-.8055.115-1.1743.288-.3688.172-.7.415-.9749.715-.2748.3-.4879.651-.627 1.033l-7.4195 20.382c-.1453.384-.2129.792-.199 1.202.014.41.1092.813.2802 1.186.1709.373.4142.708.7157.986.3016.279.6553.494 1.0408.634.3855.141.795.203 1.2047.184.4098-.019.8117-.12 1.1824-.295.3707-.176.7028-.423.9771-.729.2742-.305.4852-.661.6206-1.048l7.4183-20.382c.281-.772.2439-1.624-.1033-2.369-.3472-.744-.976-1.321-1.7481-1.602l.0013-.001z" fill="#39B6ED"/>
    <path d="M245.054 321.722c-5.949 1.251-12.081 1.355-18.069.309-.853-.907-1.518-1.974-1.958-3.139-.44-1.165-.646-2.405-.606-3.65-.192-11.753-1.769-23.41-2.435-35.115-.377-6.796-.486-13.584-1.261-20.38-.371-3.085-.761-6.171-1.145-9.25 0-.569-.323-1.289.637-1.371.96-.083.912.61 1.008 1.22 1.028 6.651 1.681 13.354 1.955 20.078.356 11.575 1.59 23.095 2.434 34.601.178 2.407.274 4.8.377 7.241 0 1.001.261 1.721 1.495 1.454 2.832.24 5.684.088 8.475-.453 1.715-.212 1.948-.541 1.893-2.4-.137-5.595-.37-11.197-.466-16.793-.117-6.98-.131-13.961-.24-20.948 0-3.093-.247-6.172-.261-9.305 0-7.146.61-14.291.315-21.436-.122-5.678-.94-11.32-2.434-16.8-.11-1.207-.857-.775-1.481-.555-6.138 2.155-12.404 3.927-18.761 5.307-3.964.686-7.982.583-11.966 1.036-1.659-.371-1.563.932-1.762 1.885-2.188 9.676-4.252 19.358-6.535 29.006-4.08 16.965-6.631 34.162-9.415 51.346-.219 1.372.124 1.769 1.372 1.673 2.633.474 5.245 1.002 7.933.144.914-.174 1.748-.637 2.379-1.321.631-.684 1.026-1.552 1.125-2.477 1.687-9.511 3.244-19.022 4.889-28.526 1.193-6.001 2.827-11.905 4.89-17.664 1.865-5.65 3.874-11.26 5.814-16.882.413-.864.675-1.791.775-2.743-.096-1.893.981-2.311 2.462-2.654 1.883-.632 3.821-1.091 5.787-1.371.689-.048 1.38-.006 2.058.123.226.018.436.124.584.296.148.173.221.397.204.623-.007.07-.021.139-.041.206-.068.205-.213.376-.406.475-.192.099-.416.118-.623.053-.571-.174-1.178-.202-1.763-.082-.586.119-1.132.383-1.59.767l-.994.213c-2.976 0-3.285.247-4.169 2.818-2.338 6.789-4.684 13.584-6.967 20.373-1.904 5.36-3.381 10.863-4.416 16.457-1.687 9.86-3.285 19.728-5.122 29.561-.057.543-.26 1.06-.587 1.497-.327.437-.767.778-1.272.985-3.127 1.535-6.69 1.935-10.08 1.132-2.146-.453-4.224-.857-6.288.226-.76.344-1.385.932-1.774 1.671-.388.739-.519 1.587-.372 2.409.172 1.056.905.734 1.529.686 2.057.733 4.279.541 6.412.843 2.056.151 4.122.115 6.171-.11 2.188-.109 3.895-1.549 5.897-1.899.528 1.515-1.282 1.68-1.076 2.811-5.718 1.176-11.608 1.239-17.349.186-3.271-.487-3.71-1.139-3.038-4.389.221-.918.582-1.797 1.07-2.606 1.16-.746 2.418-1.327 3.737-1.728.583-.13 1.166-.404 1.125-1.179-.137-2.921.384-5.829-.178-8.777-.864-4.574-1.612-9.182-2.106-13.811-1.796-16.054-4.683-31.967-8.64-47.629-.541-2.215-.541-2.215-2.9-1.859-1.036-.069-2.077.021-3.086.268-2.516.192-4.457-.686-5.342-3.106-.113-.527-.429-.988-.879-1.284-.45-.296-.999-.404-1.527-.3h-.09c-.683.08-1.369.126-2.057.137-1.892.068-2.132-.316-1.227-2.057 1.076-2.058 2.215-4.115 3.25-6.172.501-.987 1.056-1.028 1.79-.336.431.449.889.87 1.371 1.262 1.372 1.083 2.057.967 2.743-.624.954-2.502 2.191-4.885 3.689-7.104 1.57-2.362 2.742-4.966 3.47-7.708 1.749-5.43 3.429-10.861 5.225-16.299 1.336-4.447 3.595-8.562 6.631-12.075.638-.686 1.166-1.886 2.517-1.235.08.242.084.503.013.748-.071.245-.214.462-.411.624-3.874 3.476-5.801 8.153-7.42 12.85-2.208 6.535-4.292 13.138-6.411 19.714-.339.969-.8 1.891-1.371 2.743-2.336 3.204-4.042 6.822-5.027 10.663 2.599.391 5.438-.329 7.296 2.283 4.889-7.145 7.632-15.085 12.117-22.038 1.186.733.898 1.59.411 2.475-.98 1.817-1.975 3.641-2.921 5.431-2.555 5.378-5.389 10.619-8.489 15.703-.939.939-.192 2.057-.343 3.058.018 1.293.25 2.575.686 3.792 3.031 12.021 5.444 24.191 7.227 36.459.912 6.995 1.872 13.989 2.812 20.976.05 1.067.348 2.107.871 3.038.536-2.542.925-5.113 1.165-7.7.179-.762.371-1.509.508-2.27.781-4.505 1.474-9.031 2.359-13.516 3.168-15.826 6.918-31.542 10.395-47.273.318-.897.464-1.846.432-2.797-.816-4.526-1.886-9.004-5.122-12.522-1.523-1.645-2.935-3.387-4.334-5.136l-5.321-9.757c-.247-.46-.48-.919-.686-1.372-.082-.106-.14-.229-.169-.36-.029-.131-.029-.267.001-.398.029-.131.087-.254.17-.36.082-.106.187-.192.307-.253.637-.322.843.11 1.063.494.473.822.925 1.652 1.371 2.496 2.551 5.012 5.095 9.997 9.195 14.016 1.797 1.769 2.572 4.258 3.504 6.548.393 1.056.711 2.137.954 3.237.685 2.578.685 2.455 3.428 2.427 9.73-.089 19.022-2.496 28.053-5.732 2.119-.748 2.187-.823 1.467-2.928-.885-2.355-1.944-4.64-3.168-6.837-2.914-5.796-5.034-11.959-6.302-18.322-.137-.686-.459-1.372 0-1.989 1.372-.123 1.482.981 1.674 1.865.626 2.958 1.409 5.881 2.345 8.757.78 2.471 1.762 4.875 2.935 7.186 2.26 4.279 4.15 8.743 5.65 13.344.029.69.102 1.377.219 2.057 1.642 7.583 2.308 15.344 1.982 23.095-.267 19.68 0 39.394.631 59.047 0 .843-.178 1.742.5 2.489.885.11 1.372-.473 1.968-1.022.638-.226 1.262-.5 1.914-.72.127-.026.259-.007.374.053.115.06.205.157.256.277.036.055.059.116.071.181.011.065.009.131-.006.194-.015.064-.042.125-.08.178-.038.053-.087.098-.142.132-.912.652-1.852 1.262-2.743 1.872-2.466 1.598-5.298 2.542-8.229 2.743-1.889-.012-3.776.102-5.65.343-.651-.274-1.563-.528-1.55.446 0 1.495 0 3.168 1.852 3.901l.281.192c.67.397 1.424.632 2.201.686 3.359.205 6.728.159 10.08-.137 3.216-.343 3.202-.439 2.187-3.627-.034-.083-.068-.165-.109-.247-.247-.501-.35-1.07.192-1.372.541-.301.946.22 1.193.686.864 1.663 1.199 3.551.96 5.41zm-74.716-86.304c-.384-.382-.857-.662-1.376-.817-.52-.154-1.069-.177-1.6-.067-.521-.199-1.097-.199-1.618 0-.423.006-.844.042-1.262.109-2.742.624-3.243 2.119-1.721 4.416.267.535.708.962 1.25 1.211.543.25 1.154.306 1.733.161 1.381.072 2.765-.045 4.114-.35 1.564-.247 1.859-.686 1.667-2.297.006-.468-.109-.93-.332-1.342-.223-.412-.548-.759-.944-1.01l.089-.014zm-13.378.453c2.496.13 4.471-.748 4.615-2.174.123-1.186-.96-1.81-1.995-2.585-1.058 1.499-1.976 3.092-2.743 4.759h.123zM134.544 170.077c-1.856-.349-3.742-.512-5.63-.487H0v1.303h128.379c2.687-.061 5.367.288 7.948 1.035 3.936 1.221 5.636 3.504 5.774 7.591v111.717c.077 1.157.012 2.32-.192 3.462.067 1.351-.311 2.687-1.077 3.802-.765 1.115-1.876 1.948-3.161 2.37-2.391.989-4.955 1.492-7.543 1.481-3.71.041-7.399.069-11.054.123-.109.734.185 1.166.96 1.152 4.999-.15 10.025.487 14.942-.569 1.531-.259 3.006-.779 4.361-1.536 1.193-.647 2.198-1.591 2.918-2.741.721-1.15 1.133-2.466 1.196-3.821V180.945c-.034-6.788-2.249-9.511-8.907-10.868z" fill="#275372"/>
    <path d="M21.8743 249.057c-1.5284-.685-2.9905-1.509-4.368-2.461-5.839-4.06-9.82637-10.273-11.08528-17.272-1.25891-6.999.31374-14.212 4.37208-20.052 8.5989-12.775 26.5989-16.292 40.0457-7.824 5.6313 3.512 9.7413 9.008 11.5186 15.402 1.7773 6.395 1.0927 13.223-1.9186 19.138-5.4171 10.505-14.4 15.339-25.9954 15.853-4.3419-.007-8.6305-.956-12.5691-2.784zm-9.9429-38.324c-3.52297 5.217-4.93115 11.579-3.93933 17.796.99182 6.217 4.30953 11.825 9.28103 15.687 13.2 10.69 33.8126 6.343 41.5817-8.763 2.8079-5.478 3.4958-11.799 1.9319-17.752-1.564-5.954-5.2698-11.121-10.4073-14.511-4.5384-3.09-9.9179-4.709-15.408-4.636-9.6.24-17.6297 3.991-23.04 12.179zM354.72 58.9978c-.343 1.3431-.433 2.7381-.267 4.1143V230.694c.212 1.428.1 2.886-.33 4.265-.857 0-.857-.802-.87-1.474V63.1189c.143-1.3747.067-2.7635-.227-4.1143.268-1.1588.199-2.0571-.953-2.1051H259.2c-.342.0274-.686.0274-1.029 0-1.193-.1646-1.748.3771-1.68 2.1257.09 2.1737 0 4.3748 0 6.5691 0 .6857-.205 1.2-.685 1.2343-.48.0343-.686-.5417-.686-1.1794v-8.6469c0-1.4674.624-2.0571 1.653-1.9954h95.177c2.379 0 2.379 0 2.743 3.3737-.002.2061.007.4121.027.6172zM243.353 182.564c-.074-.018-.152-.012-.222.017-.071.03-.13.081-.169.147-.199-.057-.411-.048-.605.025-.193.073-.359.206-.471.38l-15.01 4.285c-1.372-.096-2.784 1.262-4.074-.192.206-.932 1.015-.822 1.632-1.001 5.212-1.504 10.437-2.994 15.676-4.471 1.655-.48 3.163-1.366 4.388-2.578 5.226-4.896 10.581-9.662 15.847-14.51.686-.596 1.879-1.09 1.591-2.146-.516-1.38-1.433-2.574-2.633-3.428-.37-.316-.843 0-1.193.24-.953.603-1.893 1.213-2.805 1.851-3.312 2.338-6.692 4.587-9.915 7.063-4.889 3.88-10.765 6.316-16.965 7.035-7.456.921-14.823 2.458-22.025 4.595-.775.226-1.618.774-2.448.075-.088-.258-.071-.541.047-.787.117-.246.327-.436.584-.53l.158-.041c.637-.199 1.371-.171 1.885-.685 3.6-.837 7.173-1.79 10.869-2.51 4.985-.994 9.998-1.824 15.01-2.743 2.816-.468 5.493-1.554 7.838-3.182 3.833-2.633 7.639-5.321 11.479-7.947 2.308-1.338 4.447-2.95 6.37-4.8.507-.097.971-.351 1.326-.726.354-.376.582-.854.649-1.366.082-.699.397-1.35.895-1.848.497-.498 1.149-.813 1.848-.894 2.522-.472 4.922-1.449 7.056-2.874.994-.624 2.105-1.371 3.209-.096-.576 1.372 0 3.045-1.09 4.307.761.336 1.621.37 2.406.096l2.743.253c1.372 2.106 1.372 2.64-.137 4.554-1.837 2.188-4.162 3.914-6.788 5.04-.979.291-1.86.846-2.544 1.604-1.142.045-2.274.236-3.367.569-1.262-.939-2.147-.26-3.113.611-6.028 5.547-12.089 10.957-17.932 16.608zm26.983-31.639c-1.577 1.053-3.317 1.839-5.15 2.324-.994.022-1.943.422-2.652 1.119-.71.697-1.127 1.638-1.167 2.632-.118.382-.137.788-.054 1.179.083.392.264.755.527 1.057.932.903 1.679 1.979 2.201 3.168.425 1.179 1.173 1.206 2.023.939 3.757-1.074 7.135-3.187 9.744-6.096.364-.432.953-.912.583-1.563-.37-.652-1.056-.474-1.646-.515-1.117.069-2.239 0-3.339-.205-1.372-.446-1.701-1.166-.995-2.51.188-.294.394-.576.618-.844.404-.301 1.248-.473.733-1.179-.315-.439-.884 0-1.268.281-.057.068-.11.139-.158.213zM70.8206 323.581l-.4594-.371c-4.2604-3.548-6.9375-8.643-7.4428-14.164-.5054-5.521 1.2024-11.018 4.7479-15.28 9.3051-11.465 28.2171-11.836 38.0367-.748 3.517 3.777 5.49 8.735 5.531 13.895.04 5.16-1.855 10.148-5.312 13.98-2.277 2.593-5.072 4.679-8.2059 6.125-3.1335 1.445-6.5353 2.218-9.9858 2.268-6.1285.122-12.108-1.895-16.9097-5.705zm-4.608-8.75c3.5383 7.419 9.4971 11.342 17.568 12.343 8.0708 1.001 15.0857-1.18 20.5714-7.241 6.905-7.543 6.795-18.11 0-25.811-9.8743-11.19-29.4103-9.6-37.1109 3.141-1.6694 2.587-2.6441 5.561-2.8303 8.634-.1861 3.074.4226 6.144 1.7675 8.913l.0343.021zM159.868 306.438l-1.063.685c-1.968 1.235-3.936 1.742-5.829-.164-1.79 3.428-1.001 6.048 2.215 7.728 2.157 1.089 4.551 1.626 6.967 1.563 3.605.02 7.205-.273 10.759-.877 1.241-.206 1.81.144 1.824 1.371-4.152.816-8.373 1.22-12.604 1.207-2.171.034-4.328-.357-6.349-1.152-4.464-1.783-5.946-4.43-5.054-9.161 1.028-5.349 2.071-10.686 3.127-16.012 3.044-14.941 7.309-29.671 11.355-44.393.093-.195.208-.379.343-.548 1.07.493 1.083 1.371.974 2.338-.1.091-.17.208-.203.339-.033.13-.027.268.018.395-2.812 9.332-5.246 18.761-7.667 28.189-.164.4-.164.849 0 1.248.701.573 1.485 1.035 2.325 1.372.955 1.539 1.596 3.252 1.886 5.04.625 4.083.754 8.228.384 12.343-.179 3.126-1.376 6.107-3.408 8.489zm1.275-20.716c-.233-2.023-.734-3.874-2.921-4.635-.491.53-.784 1.213-.83 1.934-.446 2.009-.926 4.073-1.371 6.041-.885 4.279-1.763 8.571-2.592 12.877-.48 2.38.747 4.224 2.743 4.334 3.298-.583 4.402-3.202 4.998-5.918 1.06-4.82 1.06-9.812 0-14.633h-.027zM350.304 324.095c.233-.487.514-.905 1.125-.905h2.057l22.8-.302c.595.109 1.21.017 1.748-.26.192-.823-.555-.988-.987-1.372-6.336-4.505-12.651-9.031-19.022-13.488-.949-.868-2.004-1.612-3.14-2.215-.913-.26-1.869-.337-2.812-.226h-94.807c-1.466-.057-2.918.31-4.182 1.056-.145.103-.323.146-.498.12-.175-.025-.333-.118-.442-.257-.219-.322 0-.652.247-.898 1.178-.956 2.667-1.444 4.183-1.372 27.886.055 55.771.055 83.657 0h12.96c1.11-.03 2.208.242 3.175.789.683.71 1.521 1.255 2.448 1.591.816.878 1.759 1.629 2.797 2.228 5.925 4.224 11.891 8.407 17.829 12.617 1.035.734 2.256 1.372 2.325 2.867l-29.178.246c-.768.077-1.543.002-2.283-.219zM226.286 324.013c.999.278 2.043.352 3.072.219l74.139-.583c7.077-.068 14.167-.192 21.257-.288.687-.02 1.374.007 2.057.082.597.083.474.611.446 1.036-4.388.363-8.791.206-13.186.24-28.658.274-57.314.503-85.968.686-3.712 0-7.42.045-11.122.137-.595-.017-1.167-.226-1.632-.597 2.012-1.495 4.297-2.582 6.726-3.202.261 1.371-1.076 1.193-1.494 1.831l-.734.109c-.247 0-.542 0-.556.336-.013.336.336.535.686.494.239-.056.47-.143.686-.26 1.878.084 3.759.003 5.623-.24zM187.701 164.632c-.871-1.022-.638-1.769.418-2.53 2.842-2.11 5.888-3.929 9.093-5.431.536-.149 1.014-.457 1.371-.885-.363-.396-.807-.71-1.301-.92-.494-.211-1.028-.313-1.565-.3-2.494-.283-5.019.09-7.324 1.083-.464.219-.946.398-1.44.535-.17.037-.348.017-.505-.057-.158-.075-.286-.199-.366-.354-.07-.155-.081-.331-.029-.493.052-.163.163-.3.31-.385.498-.343 1.031-.63 1.591-.857 3.607-1.468 7.262-2.057 10.972-.247.327.123.665.219 1.008.288-.513-1.834-1.544-3.481-2.969-4.744-1.426-1.262-3.185-2.086-5.068-2.374-.827-.256-1.697-.343-2.559-.255-.861.089-1.696.35-2.453.77-4.412 2.182-8.405 5.125-11.795 8.694-.989.926-1.678 2.127-1.98 3.448-.302 1.32-.202 2.701.287 3.965.205.576.377 1.159.596 1.728.075.131.121.276.135.426.015.15-.003.302-.052.444-.048.143-.127.274-.23.384-.103.11-.228.197-.367.255-.686.274-.816-.426-1.008-.844-2.057-4.457-1.495-8.084 2.057-11.588 2.729-2.653 5.736-5.003 8.969-7.008 1.658-1.191 3.579-1.962 5.599-2.249 2.021-.286 4.08-.079 6.004.603 3.027 1.965 5.501 4.673 7.186 7.865.293.367.478.809.533 1.275.056.466-.019.939-.218 1.365-.096.098-.188.201-.274.309l-3.271 1.481c-.344.099-.654.291-.896.554-.242.264-.406.589-.475.941-.302 3.126-2.256 3.888-4.999 3.6-.085.013-.168.036-.247.068l-.857-.068c-.174-.131-.386-.201-.604-.201-.217 0-.429.07-.603.201l-2.674 1.508zm5.335-3.504c.299.162.629.262.969.293.339.03.681-.009 1.005-.115.208-.047.388-.175.501-.355.113-.18.15-.397.103-.605v-.034c-.083-.624-.583-.569-.967-.384-.597.288-1.33.425-1.605 1.2h-.006zM53.8011 301.981H0v1.645h51.696c1.056-.054 2.2697.378 3.1474-.685-.0419-.254-.1672-.486-.356-.66-.1889-.173-.4304-.279-.6863-.3z" fill="#275372"/>
    <path d="M200.578 184.141c-.555 1.707-2.057 1.981-3.476 2.057-1.332.129-2.674-.087-3.898-.628-1.224-.54-2.288-1.387-3.09-2.458-.009-.391-.171-.763-.452-1.035-.281-.272-.658-.422-1.049-.419-2.236-.206-4.332-1.175-5.939-2.742-1.851-1.495-3.558-3.155-5.3-4.711.583-1.036 1.508-1.187 2.187-1.66.411.102.844.08 1.242-.063.399-.142.747-.4 1.001-.739.246-.37.596-.686 1.049-.501.452.186.459.816.445 1.29-.05.495-.142.986-.274 1.467-.761.391-1.584.096-2.359.281-.137.069-.343.096-.37.178-.027.083.137.371.37.425 4.423 5.294 9.847 6.48 16.3 4.074 3.14-.947 6.108-2.392 8.791-4.279 4.073-3.319 4.601-7.365 1.371-11.493-.912-1.159-1.934-2.215-2.894-3.312-.274-.329-.61-.685-.192-1.104.126-.179.318-.302.534-.34.216-.039.438.01.618.135.082.054.152.124.206.205 2.057 2.215 4.279 4.279 5.136 7.337.487 1.487.539 3.082.152 4.598-.388 1.515-1.199 2.889-2.339 3.96-.542.542-1.084 1.083-1.619 1.646-4.533 2.826-9.577 4.737-14.846 5.623.615 1.188 1.671 2.087 2.942 2.504 1.271.417 2.655.318 3.854-.276.651-.404 1.262-.973 1.899-.02z" fill="#275372"/>
    <path d="M194.421 175.699c-1.612-.198-2.894-.335-4.17-.527-.119-.024-.233-.072-.333-.142-.101-.069-.186-.159-.249-.263-.179-.37.109-.624.342-.898.556-.624 1.207-.446 1.9-.33 2.55.378 5.156-.032 7.467-1.175 2.311-1.144 4.218-2.966 5.465-5.222.35-.686.515-1.721 1.454-1.372.94.35.686 1.372.247 2.057-1.3 2.138-3.065 3.956-5.164 5.319-2.099 1.363-4.477 2.235-6.959 2.553zM256.457 115.46v34.971c0 1.207-.247 2.256-.61 2.414-.542 0-.686-1.296-.734-2.743-.048-1.447 0-2.818 0-4.252V82.6618c0-1.1657.137-3.7166.802-3.5794.666.1371.597 2.3726.597 3.936-.037 10.8297-.055 21.6436-.055 32.4416zM184.985 166.319c-1.714 1.995-4.251 2.743-6.356 4.073-.843.138-1.646.459-2.352.939-.597.268-.995 0-1.214-.575-.08-.177-.087-.378-.021-.56.067-.182.202-.331.377-.414l.124-.041c.988-.261 1.897-.76 2.647-1.454 2.503-.748 2.53-.748 2.42-3.292-.196-1.795.158-3.607 1.015-5.197.302-.494.638-1.187 1.372-.857.733.329.466 1.042.178 1.563-.919 1.61-1.165 3.517-.686 5.307.864-.164 1.831-.404 2.496.508zM191.191 169.466c-.175.004-.349-.031-.509-.1-.161-.07-.304-.173-.422-.303-.117-.131-.204-.284-.257-.451-.052-.167-.068-.343-.046-.517 0-.912.829-1.995 1.707-1.899.357-.001.699.138.955.387.256.248.406.586.416.943.014.098.014.197 0 .295-.008.225-.062.445-.156.65-.095.204-.229.388-.394.54-.166.152-.36.27-.572.347-.211.077-.436.112-.66.102l-.062.006zM200.427 163.37c-.336-1.371-.068-2.557 1.509-3.017.912.247 1.591.686 1.371 1.763-.219 1.076-1.152 1.426-2.88 1.254zM298.032 127.425c-.155.068-.319.109-.487.124-3.723-.35-6.48 1.371-8.914 3.984-.7.751-1.591 1.299-2.579 1.584-.761-.268-1.714-.556-.562-1.482 6.466-5.197 11.74-11.657 18.014-17.074.555-.487 1.275-.898 1.495-1.831-1.015-.912-1.749-2.173-3.518-2.057-1.124.069-1.591-.857-1.646-1.934-.039-.65.085-1.299.36-1.89.276-.59.694-1.102 1.217-1.49 1.072-.954 2.419-1.543 3.846-1.685 1.428-.142 2.864.172 4.102.896.148.206.316.396.501.569 3.791 3.168 3.586 5.438 1.172 8.359-.83 1.001-.48 1.694.363 2.359.889.535 1.653 1.252 2.243 2.105.938 1.549 2.187 2.887 3.668 3.929 4.271 3.441 8.814 6.53 13.584 9.237.521 1.28.907 2.611 1.152 3.97 1.455 7.375 2.503 14.824 3.141 22.313.734 8.003 1.234 16.019 1.7 24 .892 15.703 1.749 31.406 1.235 47.136.003 1.04-.181 2.071-.542 3.045-1.144.603-2.416.925-3.71.939-.775 0-1.371-.219-1.549-1.049.39-.802 1.138-.596 1.803-.685 2.174-.234 2.229-.234 2.284-2.503.109-4.999.246-9.998.246-14.942 0-9.669-.685-19.317-1.193-28.958.049-3.278-.206-6.554-.761-9.785-.096-6.123-.72-12.226-1.282-18.308-.641-7.134-1.65-14.229-3.024-21.258-.07-.944-.411-1.848-.983-2.602-.572-.754-1.35-1.327-2.24-1.649-.419-.116-.807-.322-1.138-.603-2.393-2.229-5.273-2.592-8.387-2.551-3.428 0-6.898-.165-10.347-.288-.843 0-1.742.219-2.476-.446 0-1.371.94-1.207 1.811-1.193 3.545.068 7.076.158 10.622.212.541 0 1.193.302 1.755-.569-4.306-2.907-7.461-6.953-10.773-10.868.768-1.056 1.557-2.057 2.263-3.148.266-.293.453-.648.544-1.033.091-.385.083-.787-.023-1.168-.344-.89-.893-1.687-1.602-2.326-.708-.64-1.557-1.104-2.478-1.356-.842-.233-1.731-.237-2.575-.01-.844.227-1.612.675-2.225 1.299-.843.789-1.056 2.057-.445 2.229.877.233 1.152-.542 1.481-1.139.035-.077.079-.151.13-.219 1.241-1.673 2.434-1.879 4.204-.72 1.769 1.159 2.372 2.633 1.439 4.347-.699 1.095-1.583 2.06-2.612 2.853-3.73 3.38-7.365 6.809-10.793 10.45-.377.398-1.015.72-.761 1.591h1.975c1.055-.069 1.275.501 1.275 1.289zm7.796-19.358c-.291.013-.566.14-.764.355-.198.215-.303.499-.292.791.004.032.004.064 0 .096 0 .85.357 1.529 1.372 1.556.734 0 1.056-.528 1.056-1.193.017-.195-.006-.392-.066-.579-.06-.186-.157-.359-.284-.508-.128-.149-.284-.27-.459-.358-.176-.088-.367-.14-.563-.153v-.007zM301.029 230.33l17.725-.219c.995 0 2.133-.274 2.551 1.097-.459 1.104-1.44.761-2.249.761-4.148 0-8.29.096-12.446 0-6.795 0-13.584.494-20.448.686-1.124 0-2.221.288-3.353.343-2.228.123-3.202-.514-3.778-2.743-.392-1.503-.622-3.043-.686-4.594-.267-11.232-.295-22.464.11-33.703.274-7.495.885-14.942 1.454-22.464.624-8.263 1.371-16.505 2.091-24.768 0-.597.274-1.193.274-1.776 0-1.55.858-1.673 2.058-1.372-.686 7.742-1.776 15.429-2.243 23.184-.637 11.13-1.831 22.197-2.057 33.354-.192 9.058-.233 18.116.096 27.168.081 1.364.235 2.724.46 4.073.003.471.194.922.529 1.254.335.331.789.517 1.26.515.105.007.211.007.316 0 6.061-.254 12.164-.508 18.336-.796zM354.123 302.392h-81.792c-.816-.802-.953-1.508.391-1.769.773-.075 1.552-.075 2.325 0h74.743c3.394 0 3.257.233 3.257-3.216v-38.475c.013-.771.068-1.54.164-2.304.025-.174.111-.334.243-.45.132-.115.302-.18.477-.181.432 0 .569.315.569.685v41.733c-.068 1.31.748 2.736-.377 3.977zM261.257 302.378l-2.743.131c-3.655-.652-3.271.082-3.271-3.991V180.575c0-1.132 0-2.242.103-3.374l1.159.137v122.345c0 1.022.651 1.063 1.426.899.936.025 1.87.098 2.798.219 1.07.22.885.898.528 1.577zM95.3692 297.716c1.8248 1.162 3.3032 2.794 4.2804 4.724.9774 1.931 1.4174 4.088 1.2744 6.247-.343 1.07-.686 2.146-1.0359 3.202-.1577.467-.336 1.118-.9874.899-.2641-.101-.4786-.3-.5978-.556-.1191-.257-.1334-.549-.0399-.816.096-.404.3222-.802.432-1.207.5437-1.743.5743-3.607.0879-5.367-.4864-1.761-1.4691-3.345-2.8308-4.562-2.4244-2.216-5.6058-3.419-8.89-3.362-3.2842.058-6.4217 1.371-8.7671 3.671-.0875.079-.1699.164-.2469.253-.8572.908-1.5272 1.976-1.9715 3.143-.4443 1.167-.6543 2.41-.618 3.658.0363 1.249.3181 2.477.8295 3.616.5114 1.14 1.2423 2.167 2.1509 3.023 1.6051 1.596 3.613 2.725 5.8097 3.269 2.1967.543 4.4997.48 6.6634-.183.6508-.216 1.3123-.399 1.9817-.548.2183-.017.4347.05.6063.186.1715.135.2856.331.3194.547.0823.343-.2194.686-.5691.775-.8961.341-1.812.627-2.7429.857-1.8092.458-3.6924.546-5.5364.259-1.8441-.288-3.6111-.945-5.195-1.932-4.0731-2.468-6.3703-6.014-5.9726-10.971.3977-4.958 3.3395-8.229 7.7555-10.163 3.3154-1.323 6.9712-1.532 10.416-.596 1.1782.559 2.3128 1.205 3.3942 1.934z" fill="#275372"/>
    <path d="M304.635 123.53c-1.592.36-3.223.519-4.854.474-.174.02-.349-.018-.498-.109-.149-.091-.264-.229-.325-.392-.064-.161-.071-.34-.02-.506.051-.165.157-.309.301-.406 2.291-1.831 4.435-3.84 6.411-6.007.569-.569 1.187-.734 1.797-.116 2.03 1.988 4.043 3.997 6.041 6.027.176.129.303.314.358.526.055.211.035.434-.056.633-.302.542-.775.555-1.372.432-.761-.165-1.522-.274-2.283-.391.206-.894.076-1.832-.366-2.637-.441-.804-1.163-1.418-2.027-1.724-1.111-1.509-1.139-1.536-2.174-.535s-2.023 2.057-3.038 3.099c.686.624 1.427.316 2.057.556l.048 1.076z" fill="#275372"/>
    <path d="M185.719 185.32c1.886.11 2.983-1.371 4.395-2.201.802 1.071 1.866 1.918 3.09 2.458 1.224.54 2.566.757 3.898.628 1.44-.083 2.921-.357 3.476-2.058.647-.132 1.234-.472 1.671-.966.438-.495.703-1.118.757-1.776.026-.304.126-.596.293-.85.166-.255.393-.465.66-.611.83.686 1.673.144 2.448-.082 7.194-2.156 14.554-3.715 22.004-4.663 6.2-.719 12.076-3.156 16.965-7.035 3.223-2.476 6.603-4.725 9.915-7.063.912-.638 1.852-1.248 2.805-1.852.35-.212.823-.555 1.193-.24 1.2.855 2.118 2.049 2.633 3.429.288 1.056-.932 1.55-1.591 2.146-5.266 4.848-10.621 9.6-15.846 14.51-1.226 1.211-2.734 2.098-4.389 2.578-5.239 1.486-10.464 2.976-15.675 4.471-.618.178-1.427.068-1.632 1.001 1.371 1.454 2.742.096 4.073.192-.027 1.456.115 2.911.425 4.334 1.032 5.579 2.605 11.045 4.697 16.32 1.275 3.099 2.825 6.075 4.306 9.079.951 2.109 1.613 4.337 1.968 6.624-.183.288-.427.533-.715.716-.288.184-.612.302-.951.346-1.502-4.598-3.394-9.06-5.657-13.337-1.173-2.31-2.152-4.714-2.928-7.186-.941-2.877-1.726-5.802-2.352-8.763-.192-.885-.288-1.982-1.673-1.866-.487.686-.165 1.372 0 1.989 1.267 6.363 3.387 12.526 6.301 18.322 1.208 2.185 2.254 4.457 3.127 6.796.72 2.105.652 2.187-1.467 2.935-9.072 3.229-18.322 5.636-28.053 5.732-2.743 0-2.743.144-3.428-2.434-.239-1.101-.558-2.182-.953-3.237-.933-2.29-1.708-4.8-3.504-6.541-4.074-4.08-6.645-9.011-9.196-14.023-.432-.844-.884-1.667-1.371-2.496-.22-.384-.569-.686-1.063-.494-.494.192-.528.802-.309 1.371.189.476.419.935.686 1.372l5.321 9.751c-.386.013-.758.141-1.07.369-.312.227-.548.543-.678.906-1.982 3.696-4.074 7.365-6.021 11.061-1.611 3.031-3.038 6.171-4.752 9.127-.344.776-.921 1.427-1.65 1.863-.73.436-1.576.635-2.423.571 3.098-5.085 5.931-10.326 8.489-15.703.946-1.851 1.941-3.669 2.921-5.438.487-.884.775-1.735-.411-2.468-4.478 6.98-7.228 14.941-12.117 22.032-1.913-2.613-4.697-1.893-7.296-2.284.988-3.839 2.693-7.457 5.026-10.663.573-.851 1.034-1.773 1.372-2.742 2.119-6.576 4.203-13.18 6.411-19.715 1.619-4.752 3.552-9.373 7.42-12.85.204-.161.354-.381.43-.629.076-.249.074-.515-.005-.763zM169.255 241.953c2.359-.356 2.359-.356 2.907 1.859 3.954 15.662 6.839 31.575 8.633 47.629.494 4.629 1.241 9.237 2.112 13.817.556 2.949 0 5.85.172 8.771 0 .775-.542 1.049-1.125 1.186-1.319.398-2.577.977-3.737 1.721l-3.477-.158c0-1.241-.582-1.59-1.824-1.371-3.552.624-7.152.933-10.758.926-2.416.062-4.81-.475-6.967-1.564-3.216-1.68-4.005-4.333-2.215-7.728 1.892 1.907 3.86 1.372 5.828.165l1.063-.686c.281.377.611.652 1.07.329.712-.475 1.353-1.047 1.906-1.7 1.449-2.151 2.214-4.689 2.195-7.283.466-4.789.165-9.623-.892-14.317-.466-1.715-1.268-2.743-3.099-2.839-.839-.339-1.622-.801-2.325-1.372 1.372-.555 1.454-1.872 1.687-3.003 1.008-4.93 2.537-9.723 3.751-14.619.816-3.312 1.79-6.583 2.743-9.875.247-.843.308-1.495-.583-1.94-.045-.127-.051-.265-.018-.395.033-.131.104-.248.203-.339.256.033.515-.028.73-.17.215-.142.372-.357.443-.605.873-2.046 1.405-4.221 1.577-6.439zM63.2023 293.615H0v8.318h53.8011c.2685.021.5212.135.7141.323.1929.188.3139.437.3419.705 4.512-.082 4.5258-.068 6.7955-3.956.7265-1.275 1.5422-2.496 2.4411-3.655.8297-1.097.5349-1.646-.8914-1.735zM118.965 301.151c-.748-1.708 0-3.244.233-5.026.233-1.783 1.371-2.51 3.298-2.51h7.989c1.621.123 3.252.068 4.861-.165 1.121-.257 2.283-.28 3.412-.065 1.13.215 2.203.662 3.151 1.313.058 1.337-.32 2.656-1.077 3.759-.757 1.104-1.852 1.931-3.12 2.358-2.39.992-4.955 1.496-7.543 1.481-3.71.069-7.399.151-11.095.151.039-.435.002-.874-.109-1.296zM334.807 174.63c.556 3.231.808 6.507.754 9.785.521 9.641 1.186 19.289 1.2 28.958 0 4.999-.137 9.997-.247 14.941 0 2.27-.109 2.27-2.283 2.503-.686.069-1.372-.137-1.804.686-3.706-.379-7.434-.492-11.156-.336-.418-1.372-1.557-1.104-2.551-1.104l-17.726.219c1.421-1.347 3.26-2.168 5.212-2.324 6.252-.545 12.398-1.957 18.26-4.197 1.674-.555 3.218-1.443 4.539-2.611 1.321-1.168 2.392-2.591 3.148-4.184.715-1.844 1.062-3.81 1.022-5.788v-34.422c-.103-.945-.048-1.9.164-2.826.809-.466.933.583 1.468.7zM331.721 130.36l-.72.761c-4.77-2.706-9.313-5.795-13.584-9.236-1.481-1.043-2.73-2.381-3.668-3.929-.59-.853-1.354-1.571-2.243-2.106-.843-.685-1.193-1.371-.363-2.358 2.414-2.963 2.619-5.191-1.173-8.359-.184-.174-.352-.364-.5-.569 1.044-.116 2.097.105 3.006.63.909.526 1.627 1.328 2.047 2.291.456.891.64 1.896.529 2.891-.111.995-.512 1.935-1.153 2.704-1.117 1.522-1.076 1.564.282 2.949 4.971 5.16 10.55 9.698 16.614 13.515.326.252.635.525.926.816z" fill="#C1E8F4"/>
    <path d="M243.353 182.563c5.842-5.65 11.904-11.06 17.931-16.505.967-.871 1.852-1.549 3.114-.61-1.582 1.704-3.285 3.293-5.095 4.752-.361.226-.67.527-.907.881-.236.355-.395.756-.465 1.176-1.571.618-2.971 1.606-4.08 2.88-1.844 1.783-3.675 3.559-5.43 5.438-.611.73-1.394 1.294-2.28 1.642-.886.347-1.844.467-2.788.346zM267.765 164.879c.682-.761 1.563-1.317 2.544-1.605 2.624-1.128 4.949-2.853 6.788-5.04 1.495-1.913 1.495-2.448.137-4.553.338-.034.678-.034 1.015 0 2.626.467 3.374 2.325 1.742 4.444-1.648 2.217-3.883 3.929-6.453 4.944-1.899.679-3.504 2.338-5.773 1.81zM274.478 153.428c-.786.274-1.646.24-2.407-.096 1.09-1.269.514-2.908 1.09-4.307 2.441.789 2.647 1.481 1.317 4.403zM256.457 177.414l-1.159-.137c0-.432.261-.816.748-.686.487.13.85.281.411.823zM241.886 183.133c.112-.174.277-.307.471-.38.194-.073.406-.082.605-.025-.137.706-.37 1.166-1.076.405zM186.165 315.229c-1.248.096-1.591-.316-1.372-1.674 2.784-17.184 5.431-34.381 9.415-51.346 2.283-9.648 4.347-19.33 6.535-29.005.199-.947.103-2.256 1.762-1.886-.686 4.8-2.009 9.442-3.031 14.153-2.537 11.794-5.307 23.554-7.687 35.39-1.673 8.352-3.085 16.786-4.155 25.248-.398 3.072-1.118 6.061-1.467 9.12zM173.136 239.615c2.462.233 2.393.247 2.921 2.64.83 3.675 1.81 7.317 2.633 10.971.914 4.005 1.744 8.026 2.489 12.062.652 3.429 1.372 6.905 1.715 10.382.445 3.737 1.467 7.419 1.371 11.204.082 1.024.254 2.038.514 3.031.384 1.676.57 3.39.556 5.109-.014.214.023.429.107.627.085.198.215.373.38.511-.241 2.589-.63 5.163-1.166 7.708-.519-.935-.817-1.977-.871-3.045-.933-6.981-1.899-13.982-2.811-20.976-1.781-12.269-4.193-24.439-7.228-36.459-.409-1.213-.615-2.485-.61-3.765zM165.627 240.472c1.556-1.377 2.876-2.998 3.909-4.8.096-.165.453-.206.686-.288.386.272.696.638.899 1.065.203.426.292.898.26 1.369.185 1.605-.11 2.057-1.674 2.297-1.338.301-2.71.421-4.08.357zM156.837 235.844c.726-1.663 1.602-3.256 2.619-4.759 1.035.775 2.119 1.371 1.995 2.585-.144 1.426-2.118 2.304-4.614 2.174zM227.657 315.647c.096 1.454.206 2.907.302 4.347-1.797-.733-1.824-2.407-1.852-3.895-.075-1.021.864-.706 1.55-.452zM180.734 317.416c-.418 1.526-.626 3.102-.617 4.683-.624.069-1.372.398-1.53-.685-.131-.81.008-1.64.396-2.363.388-.723 1.003-1.297 1.751-1.635zM227.911 320.036c.069.096.168.168.281.205l-.281-.205zM271.029 151.631l-.686-.686c.049-.067.101-.131.157-.192.384-.308.954-.72 1.269-.281.459.686-.336.857-.74 1.159zM66.2262 314.9c1.3234-.364 2.5303-.899 3.7783.466 3.559 3.62 7.8229 6.472 12.528 8.379.3723.109.6964.341.9184.659.222.318.3286.703.3022 1.09v1.81c-7.9612-1.193-14.0023-5.054-17.5269-12.404zM156.226 306.273c-2.057-.11-3.25-1.954-2.743-4.334.823-4.306 1.708-8.598 2.592-12.877.405-2.057.885-4.073 1.372-6.041.045-.721.338-1.404.829-1.934 2.188.761 2.743 2.612 2.922 4.635-.246.177-.448.407-.592.673-.144.266-.225.561-.238.863-.837 3.566-1.634 7.143-2.393 10.732-.665 2.756-1.221 5.513-1.749 8.283zM298.032 127.425c0-.788-.233-1.371-1.179-1.371h-1.996c-.254-.871.384-1.193.761-1.591 3.442-3.666 7.079-7.143 10.896-10.416 1.031-.789 1.913-1.755 2.606-2.853.939-1.714.48-3.085-1.44-4.347-1.92-1.262-2.955-.953-4.197.72-.051.07-.097.143-.137.219-.322.597-.596 1.372-1.474 1.139-.617-.165-.398-1.44.446-2.229.612-.624 1.38-1.072 2.224-1.299.844-.227 1.733-.223 2.576.01.926.248 1.781.711 2.496 1.35.715.64 1.269 1.439 1.618 2.332.098.39.093.799-.012 1.187-.106.387-.31.742-.591 1.028-.686 1.07-1.495 2.057-2.27 3.148 3.319 3.888 6.466 7.933 10.772 10.868-.555.871-1.206.583-1.748.569-3.545 0-7.077-.144-10.622-.212-.871 0-1.81-.11-1.81 1.193-2.345-.178-4.608.747-6.919.555zm12.13-3.737c.761.124 1.523.233 2.284.398.242.105.514.119.766.04.252-.08.467-.247.605-.472.091-.199.111-.422.056-.633-.055-.212-.181-.397-.358-.526-2.011-2.03-4.025-4.039-6.041-6.027-.61-.618-1.227-.453-1.796.116-1.977 2.167-4.12 4.176-6.412 6.007-.144.097-.25.241-.301.406-.051.166-.044.345.02.506.062.163.176.301.325.392.149.091.325.129.498.109 1.632.045 3.263-.114 4.855-.474 1.007.206 2.044.206 3.051 0 .815-.265 1.701-.208 2.476.158h-.028z" fill="#C1E8F4"/>
    <path d="M305.829 108.068c.195.013.386.066.56.154.175.088.331.21.459.358.127.149.224.321.285.508.06.186.083.382.067.577 0 .686-.322 1.207-1.056 1.193-.967 0-1.371-.685-1.371-1.556-.035-.291.046-.584.226-.815.179-.231.443-.382.734-.419h.096zM94.1554 294.266c5.4377.624 9.2026 3.216 10.8686 8.544 1.118 3.429-.459 5.719-4.073 5.843.143-2.159-.297-4.317-1.2741-6.247-.9772-1.93-2.4557-3.562-4.2804-4.725-1.0927-.675-2.2186-1.296-3.3737-1.858.1372-1.392 1.1315-1.694 2.1326-1.557zM307.783 119.334c-1.371.775-1.762 2.441-3.175 3.12-.61-.24-1.371 0-2.057-.556 1.015-1.049 1.995-2.105 3.038-3.099 1.042-.994 1.083-.974 2.194.535z" fill="#C1E8F4"/>
</svg>
