<svg viewBox="0 0 285 285" xmlns="http://www.w3.org/2000/svg">
  <style>
    .st1{fill:#2f5976}.st2{fill:#e0e1e0}.st3{fill:#42b6e8}.st4{fill:#fff}.st5{fill:#20a54b}
  </style>
    <path d="M257.5 199.2c.8 0 1 .4.8 1.2-.9 3.4-1.8 6.7-2.7 10.1-2.7 10.3-5.4 20.6-8.2 30.9-.1.4-.2.8-.3 1.1-.2.7-.5 1.1-1.3.8-.4-.1-.8-.2-1.2-.2-15.3-3.5-30.6-7.1-45.9-10.6-9-2.1-17.9-4.1-26.9-6.2l-1.1-.3c-.3-.1-.6-.3-.5-.6.4-1 .1-2.3 1.3-2.9 1.6.1 3.1.7 4.7 1.1l28.5 7.5 39.4 10.3c1.5.4 1.7.3 2.1-1.2.9-3.2 1.8-6.5 2.7-9.7.1-.4.5-.9-.3-1.1-.6-.2-.8.3-.9.7-.1.4-.3.8-.4 1.1-.7 2.6-1.5 5.2-2.2 7.8-.4 1.3-.4 1.4-1.8 1-5-1.3-10-2.5-14.9-3.8L183.1 224c-3.8-1-7.6-1.9-11.3-3.1.2-.7.3-1.3.4-2 .8-3.1 1-6.3 2-9.4.5-1.6.5-1.7 2.2-1.2 2.3.7 4.5 1.4 6.7 2.2 1.2.4 1.5.3 2.2-.8.2-.4.4-.7.5-1 1.2-2.5 2.4-5.1 3.7-7.6 2.5-4.9 5.1-9.8 7.2-14.9.5-1.2.8-1.3 2-1 11.2 2.6 22.4 5.3 33.5 7.9l24 5.6c0 .6-.1 1.1-.4 1.6-.8 3-1.7 6-2.5 9.1-.2.5-.4 1.1.3 1.3.8.3.7-.6.8-.9.6-2.1 1.1-4.1 1.7-6.2.5-1.5.7-3.1 1.4-4.4z" fill="#f0565c"/>
    <path class="st1" d="M171.8 220.9c3.7 1.2 7.6 2.1 11.3 3.1 15.2 4 30.3 8 45.5 11.9 5 1.3 9.9 2.6 14.9 3.8 1.4.4 1.4.4 1.8-1 .7-2.6 1.5-5.2 2.2-7.8.1-.4.3-.8.4-1.1.1-.5.3-.9.9-.7.7.2.4.7.3 1.1-.9 3.2-1.8 6.5-2.7 9.7-.5 1.6-.6 1.6-2.1 1.2l-39.4-10.3-28.5-7.5c-1.6-.4-3-1-4.7-1.1-1-.6-2.2-.9-3.3-1-2.8-.4-5.6-1.1-8.4-1.6-.6-.1-1.1-.2-1.6-.4-.3-.1-.6-.2-.5-.5.1-.4.3-.7.7-.6.5.1 1 .1 1.5.3 1.8.4 3.7.8 5.5 1.2 1.6.4 1.8.3 2.2-1.3 1.1-4.2 2.1-8.3 3.2-12.5.2-.6.4-1.3.6-1.9-1.5-.6-2.9-1.2-4.4-1.8-8.6-3.4-17.3-6.8-25.9-10.2-.6-.3-1.1-.5-.8-1.2.7-1.6 1.4-3.1 2.1-4.7 0-.1.1-.2.2-.2.1-.1.2-.1.2-.1h.3c.1 0 .2.1.3.1.5.3.1.6 0 .9-.4 1-.9 2-1.3 3-.5 1.2-.5 1.2.7 1.7l.6.3c12.6 5 25.2 10 37.7 14.9 2.2.9 1.8 1.2 2.8-1.2 9.7-20.4 19.2-40.9 29.5-61 .2-.6.5-1.1.9-1.6.2-.4.5-.2.7.1.5.8-.1 1.3-.4 1.8-4.1 8.2-8.1 16.4-12.2 24.6-.3.7-.8 1.3-.8 2-1.5 2.6-2.7 5.4-4 8.1-1 2.1-1 2.1 1.3 2.2 1.4.4 2.8.6 4.3.7l3.5.8c1.6.4 1.6.3 2-1.2.1-.1.1-.2.1-.3 2.7-9.4 5.5-18.7 8.2-28.1.5-1.8.7-1.8 2.5-1.5 7.9 1.6 15.7 3.2 23.5 4.7l.8.2c.3.1.5.3.4.6-.1.3-.3.5-.6.5-.4-.1-.9-.1-1.3-.3-5.1-1.1-10.3-2.1-15.4-3.1l-7.5-1.5c-.8-.2-1.3 0-1.4.9-.1.3-.2.5-.3.8l-7.8 26.7c-.7 2.3-.7 2.3 1.9 2.7.8.2 1.5.5 2.2.6 1 .3 1.1.1 1.4-.9l3.3-13.8c.4-1.5.5-1.6 2.1-1.3 3.9.9 7.9 1.7 11.8 2.5l11.6 2.6c.4.1 1.1.1 1 .7-.1.7-.8.3-1.3.4-.1 0-.2-.1-.3-.1-4.9-1.1-9.8-2.2-14.7-3.2-2.4-.5-4.7-1.1-7.1-1.6-1.6-.4-1.9-.2-2.3 1.2-1.1 4.2-2.1 8.3-3.1 12.5-.3 1.4-.1 1.6 1.5 1.8.3.1.6.2 1 .3 5.1 1.3 10.3 2.6 15.4 3.9 5.8 1.5 11.6 3 17.5 4.6 1.2.3 1.2.3 1.5-.9.6-2.4 1.2-4.7 1.7-7.1.5-2.2 1.2-4.2 1.4-6.4.1-.3.3-.5.4-.8.4-1.2.2-1.3-1.1-1.6-.6-.1-1.1-.3-1.6-.4-.1 0-.2 0-.2-.1-.1 0-.1-.1-.2-.2 0-.1-.1-.2-.1-.2v-.3c.1-.5.5-.4.8-.3.7.2 1.3.3 1.9.4.7.1 1.1 0 1.3-.9.4-1.7.9-3.4 1.2-5.1.5-2.3 1.3-4.5 1.5-6.9.5-.7.5-1.4.6-2.2-.6-.3-1.1-.4-1.8-.5l-5.3-1.1c-.3-.1-.7-.1-.7-.6.1-.5.3-.7.8-.6l7.4 1.5c.1 0 .3.1.4.1l.3.3c.1.1.1.3.1.4s0 .3-.1.4c-.3.8-.4 1.6-.5 2.4-.3.2-.3.6-.4.9-1.2 5.1-2.4 10.3-3.6 15.4-1 4.2-2 8.5-3 12.7-.5 2.1-.5 2.1 1.6 2.5.8.2 1.2 0 1.3-.8.1-.3.1-.6.3-1 7.8-28.4 15.5-56.9 23.3-85.3.7-2.4 1.3-4.8 2-7.2.2-.7.2-1.2-.7-1.3-.2 0-.4 0-.7-.1-13.1-2.8-26.1-5.6-39.3-8.1-13.1-2.5-26.4-4.3-39.7-5.4-2.4-.2-2.4-.2-2.8 2.3-.5.7-.5 1.5-.7 2.2-.4 1.3-.3 1.3 1.2 1.5 1.8.4 3.7.8 5.5 1.2 9.8 2.4 19.2 5.8 28.8 8.9 1.3.4 1.5.9.9 2.1-1.1 2.2-2.3 4.3-3.4 6.4l-6 11.4-1.5 2.7c-.3 0-.7.1-1-.2 0-.7.5-1.1.7-1.6l9.7-18.3c.6-1.2.9-1.2-.6-1.7-6.9-2.3-13.8-4.6-20.8-6.6-4.2-1.2-8.5-2.5-12.9-3-1.4-.1-2.7-.5-4-.4-.8-.3-1.4-.2-1.5.8-.4 1.9-1.1 3.8-1.3 5.7-.1.2-.2.4-.2.6-1.4 5.6-2.8 11.2-4.2 16.9-.8 3.1-1.3 6.2-2.6 9.2-.1.3-.5.9.3 1.1 1.1-2.1 2.9-3.8 5.2-4.6 1.7-.5 3.5-.6 5.2-.3 2.4.5 4.6 2 5.9 4.1 1.4 2.1 1.8 4.6 1.3 7.1s-2 4.6-4.1 5.9c-2.1 1.4-4.6 1.8-7.1 1.3-1.9-.4-3.7-1.4-5.1-2.8l-1.8-2.7c-.2-.9-.4-1.8-.7-2.6v-1.7c-.3.6-.7 1-.6 1.6-.1.3-.2.6-.3 1-1.6 5.8-3.1 11.6-4.7 17.5-1 3.6-2 7.3-3 10.9-.1.4-.1.8-.7.7-.6-.1-.5-.5-.4-.9l.6-2.1c6-22.1 12-44.3 17.2-66.6 1.5-6.5 3-13.1 4.4-19.7.3-1.4.3-1.5-1.2-1.7-2.4-.4-4.8-.7-7.2-1-7.3-1-14.5-1.8-21.8-2.6-5.8-.6-11.5-1.2-17.3-1.8-1.7-.2-1.7-.2-2.1 1.6-2.4 11.5-4.7 23-7.1 34.4-3.9 18.8-8.2 37.5-13.1 56-.7 2.7-1.7 5.4-2.1 8.2-.6 1.7-1.1 3.5-1.5 5.3-.5 1.5-.5 1.5.8 1.8l42.5 11.3c1.3.4 1.3.4 1.7-1 .4-1.5.8-2.9 1.2-4.3.1-.3.2-.7.7-.6.1 0 .2 0 .2.1s.1.1.2.2c0 .1.1.2.1.2v.2c-.6 2-1.1 3.9-1.6 5.9-.2.6-.7.7-1.2.7-.5-.1-1-.2-1.5-.4l-24.3-6.5c-6.1-1.6-12.2-3.2-18.2-4.8-2.3-.6-2.3-.6-1.9-2.9l.3-.8c.3-1.2.3-1.3-1-1.5-1.4-.2-2.7-.3-4.2-.4 0 .2.1.5.2.7.1.2.2.4.4.5l4.2 8.8c1.2 2.4 2.4 4.8 3.5 7.3.3.6.6 1.1-.1 1.6-1.7.4-3.4 1.1-5 1.6-.6.2-1.3.5-1.8-.4.3-.3.7-.5 1.2-.6l3.6-1.2c1.2-.4 1.2-.5.7-1.6-2.4-5-4.9-10-7.4-15-.1-.5-.4-.9-.8-1.2-.8-3-1-3.1-3.4-2.2l-.3.3c.5.9.8 1.9 1.5 2.7.1.6.3 1.2.7 1.7 1.8 3.5 3.5 7.1 5.3 10.6.4.7.6 1.2-.3 1.6-.6.1-1.2.2-1.7.6-2.6 1-5.1 2.1-7.7 3.1-.4.2-.7.3-1.1.4h-.2c-.1 0-.1 0-.2-.1-.1 0-.1-.1-.2-.1 0-.1-.1-.1-.1-.2-.1-.3-.1-.6.3-.7.5-.2 1-.4 1.5-.7 2.8-1.1 5.6-2.3 8.4-3.3 0-.5-.2-1-.5-1.4-2.1-4.2-4.2-8.5-6.3-12.7-.8-1.5-.7-1.3-2.1-.8-3.7 1.3-7.5 2.7-11.2 4-.5.2-1.1.7-1.4-.2-.2-.7.6-.7 1-.9 8.3-3 16.6-6.1 25.1-8.3.5-.1.9-.3 1.3-.6.3-.3.6-.8.7-1.2 2.4-8.9 4.7-17.8 6.7-26.8 1.1-4.7 2.3-9.3 3.1-14 .5-.7.1-1.3-.2-1.9-1.4-4.1-2.9-8.1-4.3-12.2-.2-.6-.7-1.3.2-1.6s.7.7.9 1.1c1.2 3.2 2.3 6.3 3.4 9.5.2.6.2 1.2.9 1.7l1.5-7.2c0-.1-.1-.2-.2-.3.6-.4.5-1.1.6-1.6.8-3.4 1.5-6.9 2.2-10.4l3.2-15.6c.3-1.4.3-1.4-1.2-1.4h-.4c-5.8-.2-11.7-.3-17.5-.4-.4 0-.9-.2-1.3.2.4 1.2.6 2.5 1.4 3.6-.1.5 0 1 .3 1.4.4 1.2.8 2.5 1.3 3.7.2.6.1 1-.5 1.1-.6-.3-.6-.9-.8-1.4-3.5-10-6.8-20.1-9.8-30.3-1.4-4.8-2.7-9.6-4.1-14.4-.4-1.5-.4-1.5-1.9-1.1-2.7.7-5.3 1.5-7.9 2.5-16 6.4-31.8 13-47.3 20.3-7.3 3.4-14.4 7.2-21.6 10.9-1.2.6-1.2.7-.9 1.9l1.4 5.3c3.7 14.8 8 29.4 13.2 43.8.4 1.1.8 2.1 1.2 3.1.3.7.2 1.1-.6 1.3-.6.2-1.2.6-1.6 1.1-7.9 6.5-15.5 13.3-23.2 20.1-1.8 1.6-1.6 1.1-.3 3 6.9 10.1 13.9 20 20.5 30.4.2.3.4.7.8.9.5-.1.9-.4 1.2-.8 1.2-1 1.1-1.1 1.9.3.1.2.2.4.4.6 4.5 7.5 8.9 15 13.4 22.5.7 1.1.7 1.1 1.7.4 2.1-1.4 4.2-2.7 6.3-4 7.5-4.7 15.5-8.4 23.7-11.9 1.9-.8 3.8-1.6 5.6-2.4.5-.2.9-.2 1.1.3s-.4.6-.7.7c-2.2 1-4.4 1.9-6.5 2.8-10.1 4.3-19.8 9.3-28.9 15.5-.4.2-.8.6-1.2.9-.7.2-1.1.2-1.5-.6-2.5-4.3-5-8.6-7.6-12.8-1.8-3-3.5-6.1-5.5-9.1-.5-.8-.8-1.7-1.5-2.3-1.6 1-1.6 1-.7 2.5.2.3.4.6.7.9.2.6.5 1.1.8 1.6l7.3 12.1c2.2 3.8 4.4 7.6 6.6 11.3.6 1 .7 1 1.5.4.2-.1.3-.3.5-.4 5-4.2 10.4-7.7 16.2-10.5 7.9-3.9 15.9-7.4 24.2-10.5.5-.2 1.1-.4 1.6-.6h.4c.1 0 .1.1.1.1s.1.1.1.2c.1.1.1.2 0 .3 0 .1-.1.2-.2.3-.4.3-.8.5-1.3.7-4.4 1.6-8.6 3.4-12.9 5.2-1.9.8-1.9.8-1.8 2.8 0 .2.1.4.1.5-.1 1.2-.3 2.4-.4 3.6-.1 1.1-.1 1.1 1.2 1.2 6.6.6 13.2 1.3 19.8 1.9 11 1.1 22.1 2.4 33.1 3.9.2.3.5.5.4.9-.2.5-.6.3-.9.3-.3 0-.7-.1-1-.2-5.5-.8-11.1-1.6-16.7-2.2-5.8-.7-11.6-1.3-17.4-1.9-2.7-.3-5.5-.8-8.2-.8-3.2-.3-6.4-.6-9.7-1-1.6-.2-1.7-.3-1.7-1.8.1-1.1.1-2.2.1-3.3.2-.5.3-1 .3-1.5.1-1.2-.1-1.3-1.2-.8-2.7 1.3-5.3 2.5-7.9 3.8-5.1 2.5-9.9 5.6-14.3 9.2-1.1.9-2.1 2-3.5 2.5-1-1-1.6-2.3-2.3-3.4-5.1-8.8-10.1-17.5-15.5-26.1-6.9-11-14.4-21.6-21.8-32.3-1.5-2.1-1.5-2.1.5-3.7 8-7.1 16-14.2 24.3-21 .8-.6.9-1.1.5-1.9-6.4-16.7-11-33.9-15.4-51.2-.4-1.6-.3-1.7 1.4-2.6 16.8-9.1 34.2-17 51.9-24.3 6.4-2.7 12.7-5.4 19.2-7.8 2.3-.8 4.7-1.5 7.2-2.1 1.5-.4 1.5-.4 1.9 1.1 3.2 11.4 6.5 22.9 10.3 34.1.2.4.3.8.4 1.3 0 .2.2.5.4.6.2.2.4.2.7.2h.5c6.3.2 12.7.3 19.1.5.9 0 1.2-.3 1.3-1.1.8-4.2 1.9-8.4 2.5-12.7.2-1 .7-.9 1.4-.9 3.6.4 7.2.7 10.7 1.1 7.7.8 15.3 1.6 22.9 2.5 5.1.6 10.3 1.4 15.5 2.1 1.6.2 1.6.3 1.2 1.9-.8 3.4-1.5 6.8-2.3 10.2-.2.8-.1 1.1.7 1.3 1.7.5 3.4.8 5.2 1 20.3 1.5 40.3 5.3 60.2 9.5 6.8 1.5 13.7 2.9 20.6 4.3l.8.2c.8.3.9.6.4 1.1s-.6 1.2-.8 1.8c-5.1 18.7-10.3 37.5-15.4 56.2-3.3 12-6.6 24.1-9.9 36.2-.4 1.5-1 2.9-1.1 4.5-.7 1.4-.9 2.9-1.3 4.4-.6 2.1-1.1 4.1-1.7 6.2-.1.4-.1 1.2-.8.9-.7-.2-.4-.8-.3-1.3.8-3 1.7-6 2.5-9.1.2-.5.3-1.1.4-1.6.1-.3.2-.5.4-.8.4-.8.2-1.3-.7-1.4-.3-.1-.6-.1-1-.3-8.9-2.3-17.7-4.7-26.6-6.9-10-2.5-20-5.1-30.2-6.6-2-.3-2-.4-2.8 1.5l-10.5 22.2-.6 1.5c-.4 1-.5 1-1.4.6l-9.1-3.6c-.4-.2-.8-.5-1.3-.3-1.1 4.1-2.2 8.3-3.2 12.5-.8 3.6-1.8 3.6 2.6 4.3zm24.3-129c.7.1 1.6.6 1.8-.6.3-1.3.8-2.6.8-3.9.5-1.4.5-1.4-.8-1.8-.5-.2-1.1-.3-1.7-.4-.4 1.9-.8 3.6-1.2 5.4-.2 1.2-.2 1.2 1.1 1.3zm-5.6 32.8c-1 .5-1.9 1.3-2.6 2.2s-1.2 1.9-1.5 3-.3 2.3-.1 3.4c.2 1.1.7 2.2 1.3 3.1 1.7 2.7 4.2 3.8 7.3 3.6 3.2-.2 5.5-1.8 6.9-4.7.8-1.6 1-3.4.6-5.2-.4-1.7-1.3-3.3-2.6-4.5-1.3-1.1-2.9-1.9-4.6-2s-3.2.2-4.7 1.1zm-65.3 39.6c-2.9.6-5.4 1.4-7.9 2.2-.3.1-.6.3-.4.6.3.6.4 1.3 1.3 1.3 1.7.1 3.3.3 4.9.4.6.1.9-.2 1-.8.3-1.1.7-2.3 1.1-3.7z"/>
    <path class="st2" d="M170.7 206c-1.1 4.2-2.1 8.3-3.2 12.5-.4 1.5-.6 1.6-2.2 1.3-1.8-.4-3.7-.8-5.5-1.2l-1.5-.3c-.4-.1-.6.3-.7.6-.1.4.3.5.5.5.6.1 1.1.3 1.6.4 2.8.5 5.6 1.3 8.4 1.6-.3 1.6-1.1 2.4-2.5 1.6-2-1.1-4.2-.8-6.3-1.1-2.2-.3-4.4-.7-6.7-.9-1.9-.2-3.7-.4-5.5-.8-.7-.2-1.4-.3-2.1-.5-2.5-.8-5.2-.9-7.8-1.3-2.5-.3-4.9-.5-7.4-.9-2.3-.4-4.6-.5-6.9-.8l-7-.9c-1.1-.2-2.2-.3-3.3-.3-3.1-.2-6.2-.6-9.4-.8-2-.2-4-.3-6.1-.5-1.9-.2-3.7-.4-5.6-.4-1-.1-1.8-.4-2.8-.4h-.3c-.1 0-.2-.1-.2-.1-.1-.1-.1-.1-.1-.2v-.3c0-.4.3-.6.7-.6.8-.1 1.5-.4 2.3-.4 1.8.1 3.5.1 5.3 0 .5 0 1.1.2 1.6-.3 2.8 0 5.5.5 8.2.8 5.8.6 11.6 1.3 17.4 1.9 5.6.6 11.2 1.4 16.7 2.2l1 .2c.3 0 .7.2.9-.3.2-.4-.3-.6-.4-.9 1.2-.5 2.4.2 3.6.2 2.6-.2 5.1.5 7.8.4.2 0 .3 0 .5.1 2.7.4 5.3.5 8.1.6 1.3.1 1.3 0 1.3-1.3s-.1-2.6.1-3.8c.4-2.2.4-4.4.6-6.5.2-1.4.2-1.5 1.5-1.1.6.2 1.2.5 1.8.8 1.2.2 2.4.6 3.6 1.2z"/>
    <path class="st3" d="M60.3 218.7c1.4-.5 2.4-1.6 3.5-2.5 4.4-3.6 9.2-6.7 14.3-9.2 2.6-1.3 5.2-2.6 7.9-3.8 1.1-.5 1.2-.4 1.2.8 0 .5 0 1-.3 1.5-6.2 3-12.5 6-18.2 10.1-2 1.4-4 2.7-6 4-1.2.8-1.2.8-2.1-.4-.1-.1-.2-.3-.3-.5z"/>
    <path class="st4" d="M171.8 220.9c-4.3-.7-3.5-.7-2.7-3.8 1.1-4.2 2.1-8.4 3.2-12.5.5-.2.9.1 1.3.3l9.1 3.6c1 .4 1.1.4 1.4-.6.2-.5.4-1.1.6-1.5l10.5-22.2c.9-1.8.9-1.8 2.8-1.5 10.2 1.6 20.2 4.1 30.2 6.6 8.9 2.3 17.7 4.6 26.6 6.9.3.1.6.2 1 .3.9.2 1.1.6.7 1.4-.1.3-.2.5-.4.8l-24-5.6c-11.2-2.6-22.3-5.3-33.5-7.9-1.3-.3-1.6-.2-2 1-2 5.1-4.7 10-7.1 14.9-1.3 2.5-2.5 5.1-3.7 7.6-.1.4-.3.7-.5 1-.7 1.1-1 1.2-2.2.8-2.3-.7-4.5-1.5-6.7-2.2-1.7-.5-1.7-.4-2.2 1.2-1 3.1-1.2 6.3-2 9.4-.2.7-.3 1.4-.4 2zm-35.9-100.2c-.9 4.7-2.1 9.4-3.1 14-2.1 9-4.4 17.9-6.7 26.8-.1.5-.3.9-.6 1.2-.3.3-.8.6-1.3.6-8.6 2.2-16.8 5.3-25.1 8.3-.4.2-1.2.1-1 .9.3.9.9.4 1.4.2 3.7-1.3 7.5-2.7 11.2-4 1.5-.5 1.4-.7 2.1.8 2.1 4.2 4.2 8.5 6.3 12.7.3.4.4.9.5 1.4l-8.4 3.3c-.5.2-1 .4-1.5.7-.3.2-.4.4-.3.7 0 .1 0 .1.1.2 0 .1.1.1.2.1s.1.1.2.1h.2c.4-.1.7-.3 1.1-.4 2.6-1 5.1-2.1 7.7-3.1.5-.3 1.1-.5 1.7-.6.1.3.2.6.4.9.6.8.1 1.2-.6 1.5l-1.1.5-4.2 1.5c-11.5 3.9-22.7 8.3-33.4 13.9-5.2 2.8-10.6 5.2-15.2 9.1-.6.5-1.3.9-1.9 1.4-1.9 1.4-1.9 1.4-3.2-.6.3-.4.7-.7 1.2-.9 9.1-6.2 18.8-11.2 28.9-15.5 2.2-1 4.4-1.9 6.5-2.8.3-.2.9-.2.7-.7-.3-.5-.7-.5-1.1-.3-1.9.8-3.8 1.6-5.6 2.4-8.1 3.5-16.2 7.2-23.7 11.9-2.1 1.3-4.2 2.7-6.3 4-1.1.7-1.1.7-1.7-.4-4.5-7.5-8.9-15-13.4-22.5-.1-.2-.2-.4-.4-.6-.8-1.3-.8-1.3-1.9-.3-.3.4-.7.6-1.2.8-.4-.2-.6-.6-.8-.9-6.6-10.3-13.6-20.2-20.5-30.3-1.3-1.9-1.5-1.4.3-3 7.6-6.8 15.3-13.6 23.2-20.1.5-.4.9-.9 1.6-1.1.7-.2.8-.6.6-1.3-.4-1-.8-2.1-1.2-3.1-5.3-14.3-9.5-29-13.2-43.8L32 79c-.3-1.3-.3-1.3.9-1.9 7.2-3.7 14.3-7.5 21.6-10.9C69.9 59 85.8 52.3 101.7 46c2.6-1 5.2-1.8 7.9-2.5 1.5-.4 1.5-.4 1.9 1.1 1.4 4.8 2.7 9.6 4.1 14.4 3 10.2 6.3 20.2 9.8 30.3.2.5.3 1.1.8 1.4 0 .3 0 .7.1 1 .7 3.3 1.6 6.5 1.8 9.9.1.7.3 1.4.1 2-.3.7-1.1.4-1.6.6-8.5 2.8-17.2 5.3-25.6 8.5-6.3 2.4-12.6 5.1-18.6 8.1-1 .5-1.9 1.1-2.9 1.6-.2.1-.4.3-.5.5s-.1.5 0 .7c0 .1.1.2.2.3.1.1.2.2.3.2.1 0 .2.1.4.1.1 0 .3 0 .4-.1.4-.2.8-.3 1.1-.4 3.1-1.4 6.3-2.7 9.4-4 5.9-2.6 12-4.9 18.2-7 3.3-1.2 6.7-2.2 10.1-3.2 2.7-.8 5.5-1.6 8.3-2.3 1.1-.3 1.2-.2 1.5.7.3 1-.6.9-.9 1-2.5.5-4.8 1.6-7.2 2.5-.7.3-1.3.7-1.9 1.1-.1 0-.2.1-.2.2-.1.1-.1.2-.2.3s0 .2 0 .3c0 .1 0 .2.1.3.1.2.2.3.4.4.2.1.4.1.6.1.4-.1.8-.2 1.1-.4 2.8-1.3 5.8-2.3 8.9-3 1-.2 1.4.1 1.8.8 1.6 2.7 2.9 5.6 4 8.5 0 .1-.1.2 0 .3 0 .1 0 .2.1.3.1.1.1.2.2.2 0-.2.1-.1.2-.1zm-74.4 55c-1.1.3-2.1.6-3.2.8-4.4 1.1-8.8 2.1-13.2 3.1-.1-.2-.3-.4-.4-.7-1.4-4.1-2.9-8.1-4.3-12.2-.1-.1-.1-.2-.1-.3v-.2c0-.1 0-.2.1-.2 0-.1.1-.1.1-.2.1-.1.1-.1.2-.1 1.2-.4 2.4-.8 3.7-1.3.5 2.8 1 5.3 1.5 8 .2 1.1.3 1.2 1.4 1l.5-.2 22.1-5.9 12.9-3.5c1.4-.4 1.5-.6 1.2-2 0-.1-.1-.2-.1-.3-1.2-5.3-2.5-10.5-3.7-15.8-.2-.8-.6-1-1.3-.8l-7.2 1.5c-5.2 1.1-10.3 2.7-15.3 4.2-1.1.4-1.1.4-1.6-.8-1.1-2.8-2.2-5.5-3.3-8.3-.3-.7-.6-1.5-.9-2.2-.1-.2-.3-.4-.5-.4-.1 0-.3.1-.4.2-.1.1-.1.3-.1.4 0 .4.2.9.4 1.3 1.2 3 2.4 6 3.6 9.1.5 1.4.5 1.4-.9 1.8-.3.1-.7.2-1 .3l-7.4 2.4c-1.7.6-1.8.8-1.5 2.5.3 1.8.7 3.6 1 5.4.2.7-.1 1-.7 1.3-1.1.4-2.2.8-3.3 1.1-1.4.5-1.4.5-.9 1.9l4.5 13c.5 1.4.5 1.4 2.1 1.1l13.4-3.2c.6-.2 1.2-.3 1.9-.2.2.7.3 1.3.5 1.9.6 2.5 1.1 5.1 1.6 7.6.3 1.3.4 1.3 1.4.7.3-.2.5-.4.9-.5 3.8-1.8 7.6-3.5 11.4-5.2 1-.5 2-.9 3-1.3.3-.1.6-.2.4-.6-.2-.4-.4-.6-.8-.5-.4.1-.7.3-1.1.5-4.2 1.8-8.4 3.7-12.5 5.7-.4.1-.7.3-1.1.5-.5.2-.8.1-.9-.4-.5-2.5-1.2-4.9-1.5-7.5 3-.8 6-1.5 9-2.2 2.2-.5 4.4-1 6.6-1.4.5-.1 1-.2.9-.9-.2-2-.6-3.9-1.1-5.8 0-.2-.2-.4-.3-.5-.2-.1-.4-.2-.5-.1-.4 0-.8.1-1.2.2l-14.2 3.9c-.8.2-1 .7-.9 1.5.4.8 1.1 1.7 1.1 2.8zm43.1-2.2c-1.9.1-3.8.6-5.6 1.3-6 2.4-12 4.9-17.9 7.7-.8.4-1.6.8-2.4 1.1-3.8 1.4-7.5 3.2-11 5.3-1.2.7-1.4 1.3-1.1 2.6.4 1.2.7 1.4 1.7.7 1.3-.8 2.5-1.7 3.8-2.4 1.8-1.1 3.8-1.9 5.5-3 3.3-2 6.9-3.5 10.4-5.1 4.5-2.1 9.1-3.9 13.5-6.2 1.1-.4 2.1-1.2 3.1-2zM67.4 105c-.9 0-1.9.1-2.7.5-2.9 1-5 2.9-5.6 6-.6 2.9.5 5.3 2.8 7.2 1.6 1.3 3.7 2 5.8 2s4.1-.7 5.8-2c.8-.6 1.5-1.5 2-2.4.5-.9.8-2 .8-3.1s-.1-2.1-.6-3.1c-.4-1-1-1.9-1.8-2.6-.9-.8-1.9-1.4-3-1.9s-2.3-.7-3.5-.6zm44.3-13.2c0-.4-.2-.6-.5-.5-.4.1-.9.2-1.3.4-10.6 4.2-21.2 8.5-31.8 12.6-.3.1-.6.2-.9.4l-.3.3c-.1.1-.1.3 0 .4 0 .1.1.1.1.2.1 0 .1.1.2.1h.2c.1 0 .1 0 .2-.1.4-.1.8-.3 1.3-.5 10.5-4.2 20.9-8.3 31.4-12.5l1.1-.5c.1 0 .2-.1.3-.2-.1.1 0 0 0-.1zm-11.3 9.9c-.1-.3-.3-.5-.6-.4-.4.1-.8.2-1.1.4-5.8 2.1-11.7 4.3-17.5 6.4l-.8.3c-.4.2-.6.4-.5.7.1.4.5.4.8.3s.6-.2 1-.3l17.4-6.3c.4-.1.7-.3 1.1-.5.1-.2.2-.3.2-.6z"/>
    <path class="st4" d="M170.7 206c-1.2-.5-2.4-1-3.5-1.4-.6-.3-1.2-.6-1.8-.8-1.3-.4-1.3-.3-1.5 1.1-.3 2.2-.3 4.4-.6 6.5-.1 1.3-.1 2.5-.1 3.8-.1 1.3-.1 1.4-1.3 1.3-2.7-.2-5.4-.2-8.1-.6-.2 0-.4-.1-.5-.1-2.6.2-5.1-.5-7.8-.4-1.2.1-2.4-.7-3.6-.2-11-1.6-22.1-2.8-33.1-3.9-6.6-.7-13.2-1.4-19.8-1.9-1.2-.1-1.3-.1-1.2-1.2.1-1.2.2-2.4.4-3.6 3.7-1.7 7.6-3.2 11.5-4.7 6-2.3 12.1-4.5 18.1-6.7 2.6-1 5.3-1.9 7.9-2.9 1.1-.4 1.1-.4.7-1.6l-.2-.5c.7-.5.4-1 .1-1.6-1.2-2.4-2.4-4.8-3.5-7.3l-4.2-8.8c.6.1 1.5-.3 1.8.4.6 1.1 1.6 1 2.5 1-.4 2.3-.4 2.3 1.9 2.9 6.1 1.6 12.2 3.2 18.2 4.8 8.1 2.2 16.2 4.3 24.3 6.5.5.2 1 .3 1.5.4.5.1 1.1-.1 1.2-.7.6-2 1.1-3.9 1.6-5.9v-.2s0-.2-.1-.2-.1-.1-.2-.2c-.1 0-.1-.1-.2-.1-.5-.1-.6.3-.7.6-.4 1.5-.8 2.9-1.2 4.3-.4 1.3-.4 1.3-1.7 1-14.2-3.8-28.4-7.6-42.6-11.3-1.3-.4-1.3-.4-.8-1.8 1 .1 1.5-.4 1.8-1.4.2-1 .3-2.1.3-3.1 0-.5-.2-.8-.6-.9.4-2.8 1.4-5.4 2.1-8.2 5-18.5 9.2-37.2 13.1-56 2.4-11.5 4.7-23 7.1-34.4.4-1.8.4-1.8 2.1-1.6 5.8.6 11.5 1.1 17.3 1.8 7.3.8 14.5 1.6 21.8 2.6 2.4.4 4.8.7 7.2 1 1.5.2 1.5.3 1.2 1.7-1.5 6.6-2.9 13.1-4.4 19.7-5.2 22.3-11.2 44.5-17.2 66.6l-.6 2.1c-.1.4-.2.8.4.9s.6-.3.7-.7c1-3.6 2-7.3 3-10.9 1.6-5.8 3.1-11.6 4.7-17.5.1-.3.2-.6.3-1h.6c.2.9.4 1.8.7 2.6-.7-.1-.9.3-1 .9-.4 1.4-.9 2.7-1.2 4.1-.8 3-1.5 6.1-2.5 9.1-1.1 3.1-2 6.3-2.9 9.5-1.2 4.2-2.1 8.6-3.1 12.8-1 4.1-2.3 8.2-3.5 12.2-.5 1.5-.8 3.1-1.2 4.6-.2.7-.5 1-1.3.7-2-.7-4-1.2-6-1.8-2.8-.8-5.5-1.8-8.4-2.4-2-.4-4-.9-5.9-1.6-5.4-1.9-10.9-3.5-16.4-5.1-.8-.3-1.7-.5-2.6-.5-.5 0-1 .2-1.3.6-.4.3-.6.8-.6 1.3-.1 1 .9.8 1.4 1.1.2.1.3.1.5.1 7.5 1.9 15.1 3.8 22.4 6.3 5.7 1.9 11.5 3.6 17 6 1.6.7 3.3 1 4.9 1.4.5.2.7.1.8-.5.1-.3.2-.7.3-1 1.4-6.4 2.5-12.9 3.7-19.4.7-3.8 1.3-7.6 2.2-11.3.7-3.2 1.7-6.4 2.5-9.6 1.1-4.5 1.9-9.2 3.3-13.6.2-.5.2-1 .8-1.2 1.4 1.4 3.2 2.4 5.1 2.8 2.4.5 5 .1 7.1-1.3 2.1-1.4 3.6-3.5 4.1-5.9.5-2.4.1-5-1.3-7.1s-3.5-3.6-5.9-4.1c-1.7-.3-3.5-.3-5.2.3.6-3.9 1.6-7.7 2.3-11.6.7-3.9 1.3-7.9 1.8-11.8.1-.9-.6-1.9.6-2.6.3-.2.1-1.2.1-1.8h1.3c1.1-.1 2-.4 2.3-1.5 4.4.5 8.7 1.8 12.9 3 7 2 13.9 4.4 20.8 6.6 1.5.5 1.2.6.6 1.7-3.2 6.1-6.5 12.2-9.7 18.3-.3.5-.7 1-.7 1.6.3.3.7.2 1 .2.1.7-.3 1.2-.6 1.7-1 1.7-1.9 3.3-2.8 5-1.8 3.3-3.5 6.7-5.2 10.1-.3.6-.5 1.1-1.2 1.2-.2-.3-.4-.5-.7-.1-.3.5-.6 1.1-.9 1.6-10.2 20.1-19.8 40.6-29.5 61-1.1 2.3-.7 2-2.8 1.2-12.6-5-25.2-9.9-37.7-14.9l-.6-.3c-1.2-.5-1.2-.5-.7-1.7.5-1 .9-2 1.3-3 .1-.3.5-.6 0-.9-.1-.1-.2-.1-.3-.1h-.3c-.1 0-.2.1-.3.2-.1.1-.1.2-.1.3-.7 1.6-1.4 3.1-2.1 4.7-.3.7.2.9.8 1.2 8.6 3.4 17.3 6.8 25.9 10.2 1.4.6 2.9 1.2 4.4 1.8-.2.6-.5 1.3-.7 2zm2.3-93.6c-.1-.5-.1-1.1-.2-1.7-.8-4-3-6.9-7-8.1-3.8-1.1-7.1-.1-9.8 2.9-1.7 1.9-2.6 4.4-2.7 7 0 2.6.9 5 2.6 7 1.6 1.8 3.8 3 6.2 3.2 2.4.3 4.8-.4 6.7-1.9 2.9-2 4.1-4.9 4.2-8.4zm10.2-32.6c.2 0 .4.1.5.1.4 0 .9.1.9-.5.1-.6-.4-.6-.8-.7l-2.8-.3c-8.4-.9-16.7-1.7-25-2.5-.6-.1-1.7-.6-1.8.5-.1.8 1 .6 1.6.7 4.2.5 8.4.9 12.5 1.3 5 .5 10 .9 14.9 1.4zm-13.3 66.1h.4c.4 0 .7-.1.8-.5.1-.4-.3-.6-.7-.6l-1.5-.3-25.8-3.8c-.6-.1-1.6-.6-1.7.2-.2 1 1 .8 1.6.9l19.1 2.9 7.8 1.2zm54-36.9c.4.1.8.1.9-.3.2-.4-.2-.6-.5-.7-.4-.1-.6-.2-1-.3-7.6-2.3-15.3-4.1-23-6-.3-.1-.5-.1-.8-.2h-.2c-.1 0-.1 0-.2.1-.1 0-.1.1-.1.1 0 .1-.1.1-.1.2-.1.3.2.5.5.6l1.1.3c7.7 1.9 15.3 3.7 22.9 6 .2.1.4.1.5.2zm-44.1-25.8c.2 0 .5.1.8.1s.8 0 .8-.4c.1-.5-.3-.6-.7-.7-.3-.1-.6-.1-.8-.1-4.8-.5-9.5-1-14.3-1.5-.3 0-.5-.1-.8-.1h-.2c-.1 0-.1.1-.2.1s-.1.1-.1.2v.2c-.1.3.2.5.5.6l.8.2c4.6.4 9.4.9 14.2 1.4zm26.7 24c-.4-.1-.7-.1-.8.3-.1.4.2.6.5.7.3.1.5.2.8.2 4.3 1.2 8.7 2.5 13 3.7.3.1.6.2 1 .2h.2c.1 0 .1 0 .2-.1.1 0 .1-.1.1-.1s.1-.1.1-.2 0-.2-.1-.3c-.1-.1-.1-.2-.2-.2l-.8-.3-13.5-3.8c-.2 0-.4 0-.5-.1zm-39.8 43c.3-.1.9.2 1-.4s-.5-.6-.9-.7c-.2-.1-.3-.1-.5-.1-4.1-.6-8.2-1.2-12.2-1.7-.2 0-.4-.1-.5-.1-.4 0-.7.1-.7.5 0 .1.1.3.1.4.1.1.2.2.4.2.8.2 1.5.3 2.3.4 3.6.5 7.3 1 11 1.5zm-1.5 4.6c.5 0 .9 0 .9-.5.1-.5-.3-.6-.7-.6l-.7-.2c-2.7-.5-5.4-.9-8.1-1.4-.2 0-.3-.1-.5-.1-.1 0-.3 0-.4.1l-.3.3c-.1.3.1.5.4.6.3.1.5.2.8.2l6.5 1.1c.8.3 1.4.5 2.1.5z"/>
    <path class="st4" d="M226.1 122.3l6-11.4c1.1-2.2 2.3-4.3 3.4-6.4.7-1.3.5-1.7-.9-2.1-9.6-3.1-19-6.5-28.8-8.9-1.8-.5-3.7-.8-5.5-1.2v-2.8c0-.4-.1-.8-.6-.9.4-2.5.4-2.5 2.8-2.3 13.3 1.1 26.6 3 39.7 5.5 13.1 2.5 26.2 5.3 39.3 8.1.2.1.4.1.7.1.9.1.9.6.7 1.3-.7 2.4-1.3 4.8-2 7.2-7.8 28.4-15.5 56.9-23.3 85.3-.1.3-.2.6-.3 1-.2.8-.5 1-1.3.8-2.1-.5-2.1-.5-1.6-2.5 1-4.2 2-8.5 3-12.7.1 0 .3.1.4 0 .1 0 .3-.1.4-.2l.3-.3c.1-.1.1-.3.1-.4 1.1-4.3 2-8.7 3.4-12.9.1-.5.2-1.1.2-1.7.1-.8-.4-.8-.9-.9.1-.8.2-1.6.5-2.4 0-.1.1-.3.1-.4 0-.1-.1-.3-.1-.4s-.2-.2-.3-.3c-.1-.1-.3-.1-.4-.1l-7.4-1.5h-.3c-.1 0-.2 0-.3.1l-.2.2c0 .1-.1.2-.1.3-.1.5.4.5.7.6l5.3 1.1c.6.1 1.2.2 1.8.5-.2.8-.2 1.5-.6 2.2l-26.3-5.3c-4.3-.9-8.6-1.7-12.8-2.6-1.2-.3-1.2-.2-1.5.9-.1.3-.2.5-.3.8l-7.6 26.6c-2.5-.4-2.5-.4-1.9-2.7l7.8-26.7c.1-.3.2-.5.3-.8.1-.9.6-1.1 1.4-.9 2.5.6 5 1 7.5 1.5 5.1 1.1 10.3 2.1 15.4 3.1.4.1.9.2 1.3.3.4.1.5-.2.6-.5.2-.4-.1-.5-.4-.6l-.8-.2c-7.9-1.6-15.7-3.2-23.5-4.7-1.8-.4-2-.3-2.5 1.5-2.7 9.4-5.5 18.7-8.2 28.1-.1.1-.1.2-.1.3-.5 1.6-.5 1.6-2 1.2-1.2-.3-2.4-.5-3.5-.8.1-.3.1-.5.3-.8 1.8-3.7 3.1-7.6 4-11.7.1-.6.4-1.2.6-1.7 2.7-5.6 5.6-11.1 8.3-16.8 2.4-5.2 5-10.4 7.6-15.6l.3-.6c3.5-7.4 7-14.8 11.1-21.8.4-.6.9-1.2.6-1.9-.2 0-.5 0-.7.1-.2.1-.4.2-.6.4-1 .9-2 1.9-2.9 3-1.6 2.1-3 4.3-4.4 6.5-.2.4-.4.8-1 .8z"/>
    <path class="st5" d="M211.8 184.2l7.6-26.6c.1-.3.1-.5.3-.8.4-1.1.4-1.1 1.5-.9 4.3.9 8.6 1.7 12.8 2.6l26.3 5.3c-.2 2.4-1 4.6-1.5 6.9-.3 1.7-.9 3.4-1.2 5.1-.2.9-.6 1-1.3.9s-1.3-.3-1.9-.4c-.3-.1-.7-.2-.8.3v.3c0 .1 0 .2.1.2 0 .1.1.1.2.2.1 0 .2.1.2.1.5.2 1.1.3 1.6.4 1.3.3 1.4.5 1.1 1.6-.1.3-.2.5-.4.8-.2-.1-.4-.2-.7-.2-10.5-2.3-20.9-4.5-31.4-6.7-1.3-.3-2.6-.4-3.9-.5-.9 4.4-1.7 8.8-2.5 13.1-1.6-.2-1.9-.4-1.5-1.8 1-4.2 2-8.4 3.1-12.5.4-1.5.7-1.6 2.3-1.2 2.4.5 4.7 1.1 7.1 1.6 4.9 1.1 9.8 2.2 14.7 3.2.1 0 .2.1.3.1.5-.1 1.2.4 1.3-.4.1-.6-.6-.6-1-.7-3.9-.9-7.7-1.8-11.6-2.6-3.9-.8-7.9-1.7-11.8-2.5-1.6-.4-1.7-.3-2.1 1.3l-3.3 13.8c-.3 1-.4 1.1-1.4.9-.7-.4-1.5-.7-2.2-.9z"/>
    <path class="st4" d="M218 185.6c.8-4.3 1.6-8.7 2.5-13.1 1.3.1 2.6.2 3.9.5 10.5 2.3 20.9 4.5 31.4 6.7.2.1.4.1.7.2-.3 2.2-.9 4.3-1.4 6.4l-1.7 7.1c-.3 1.2-.3 1.2-1.5.9-5.8-1.5-11.6-3.1-17.5-4.6l-15.4-3.9c-.4.1-.7 0-1-.2zm14.1-5.2c-.3-.1-.7 0-.8.4s.2.6.6.7c.3.1.5.2.8.2l15.1 3.5c.6.1 1.4.6 1.5-.3.2-.7-.8-.7-1.3-.8-3.6-.9-7.2-1.7-10.8-2.5-1.6-.3-3.3-.7-5.1-1.2zm13.9 7.9c.4 0 .7.1.9-.3.2-.5-.3-.7-.7-.8l-7.6-1.8c-.2-.1-.3-.1-.5 0s-.3.2-.4.3c-.2.5.3.7.6.8 2.7.6 5.2 1.2 7.7 1.8z"/>
    <path class="st2" d="M187.5 138.2c-.6.2-.6.7-.8 1.2-1.4 4.5-2.2 9.1-3.3 13.6-.8 3.2-1.8 6.3-2.5 9.6-.9 3.8-1.4 7.6-2.2 11.3-1.3 6.4-2.4 12.9-3.7 19.4-.1.3-.2.7-.3 1-.1.5-.3.6-.8.5-1.7-.5-3.3-.7-4.9-1.4-5.5-2.4-11.3-4.1-17-6-7.4-2.5-14.9-4.4-22.4-6.3-.2-.1-.4 0-.5-.1-.5-.3-1.5-.1-1.4-1.1 0-.5.3-1 .6-1.3.4-.3.8-.5 1.3-.6.9 0 1.7.2 2.6.5 5.5 1.7 11 3.2 16.4 5.1 1.9.6 3.9 1.2 5.9 1.6 2.8.6 5.6 1.6 8.4 2.4 2 .6 4 1.1 6 1.8.9.3 1.1-.1 1.3-.7.4-1.6.8-3.1 1.2-4.6 1.2-4.1 2.5-8.1 3.5-12.2 1-4.3 1.9-8.6 3.1-12.8.9-3.2 1.8-6.3 2.9-9.5 1-3 1.7-6 2.5-9.1.4-1.4.8-2.7 1.2-4.1.2-.5.4-.9 1-.9.7.9 1.3 1.8 1.9 2.7zm-51.6-17.5c-.6-.1-.7-.6-.9-1.1-1.1-2.9-2.4-5.8-4-8.5-.5-.8-.8-1.1-1.8-.8-3.1.7-6.1 1.7-8.9 3-.4.2-.7.3-1.1.4-.2 0-.4 0-.6-.1-.2-.1-.3-.2-.4-.4-.1-.2-.1-.4 0-.6.1-.2.2-.3.4-.4.6-.4 1.2-.8 1.9-1.1 2.4-1 4.6-2 7.2-2.5.4-.1 1.3 0 .9-1-.3-.9-.4-1-1.5-.7-2.8.8-5.5 1.5-8.3 2.3-3.4 1-6.7 2-10.1 3.2-6.1 2.1-12.2 4.3-18.2 7-3.1 1.4-6.3 2.7-9.4 4-.4.2-.7.3-1.1.4-.1.1-.2.1-.4.1-.1 0-.3 0-.4-.1s-.2-.1-.3-.2c-.1-.1-.2-.2-.2-.3-.3-.5 0-1 .5-1.3 1-.6 1.9-1.1 2.9-1.6 6.1-3 12.3-5.7 18.6-8.1 8.4-3.1 17.1-5.6 25.6-8.5.6-.2 1.4.2 1.6-.6.3-.6 0-1.3-.1-2-.3-3.4-1.2-6.6-1.8-9.9 0-.3-.1-.7-.1-1 .6-.2.8-.5.5-1.1-.5-1.2-.9-2.5-1.3-3.7-.2-.5-.5-.9-.3-1.4.9-1.2 1.5-1.2 2.4-.2.6.8 1.2 1.6 1.6 2.5 2.4 4.8 4.5 9.7 6.3 14.7 1.1 2.8 2 5.6 2.7 8.5.1.1.2.2.2.3-.5 2.4-1 4.7-1.5 7.2-.7-.5-.7-1.2-.9-1.7-1.2-3.2-2.2-6.3-3.4-9.5-.2-.5-.1-1.4-.9-1.1-.8.3-.4 1-.2 1.6 1.4 4.1 2.9 8.1 4.3 12.2.5.8.9 1.4.5 2.1zm90.2 1.6c.6 0 .8-.5 1.1-.9 1.4-2.2 2.9-4.4 4.4-6.5.9-1.1 1.8-2.1 2.9-3 .2-.2.4-.3.6-.4.2-.1.5-.1.7-.1.3.8-.3 1.4-.6 1.9-4.1 7.1-7.6 14.5-11.1 21.8l-.3.6c-2.5 5.2-5.2 10.4-7.6 15.6-2.6 5.6-5.5 11.2-8.3 16.8-.3.5-.5 1.1-.6 1.7-.9 4-2.3 7.9-4 11.7-.1.3-.2.5-.3.8-1.4-.1-2.9-.3-4.3-.7.4-1 .3-2.1.5-3.1.6-2.1 1.3-4.2 2.1-6.2.2-.4.5-.7 0-1 .2-.7.4-1.4.8-2 4.1-8.2 8.1-16.4 12.2-24.6.3-.6.9-1.1.4-1.8.7-.1 1-.7 1.2-1.2 1.7-3.4 3.5-6.7 5.2-10.1.9-1.7 1.9-3.3 2.8-5 .4-.5.6-1.1.6-1.7.6-.8 1.1-1.7 1.6-2.6z"/>
    <path class="st3" d="M126.4 188.3l.2.5c.4 1.1.4 1.2-.7 1.6-2.6 1-5.3 2-7.9 2.9-6 2.2-12.1 4.4-18.1 6.7-3.9 1.5-7.7 3-11.5 4.7 0-.2-.1-.4-.1-.5 0-2 0-2 1.8-2.8 4.3-1.8 8.6-3.6 12.9-5.2.5-.2.9-.4 1.3-.7.2-.1.2-.4.2-.6 0-.1-.1-.1-.1-.1l-.1-.1h-.4c-.5.2-1.1.4-1.6.6-8.2 3.2-16.3 6.5-24.2 10.5-5.7 2.7-11.1 6.2-16.1 10.4-.2.1-.3.3-.5.4-.9.6-1 .6-1.5-.4-2.2-3.8-4.4-7.6-6.6-11.3-2.4-4-4.8-8.1-7.3-12.1-.4-.5-.6-1-.8-1.6.4-.5.7-1 1.4-1 2 2.9 3.6 6 5.5 9.1 2.6 4.2 5.1 8.5 7.6 12.8.4.7.9.8 1.5.6 1.3 2 1.3 2 3.2.6.7-.5 1.3-.9 1.9-1.4 4.6-3.8 10-6.3 15.2-9.1 10.7-5.6 22-10 33.4-13.9l4.2-1.5 1.1-.5c.7-.3 1.1-.7.6-1.5-.2-.3-.3-.6-.4-.9.9-.4.6-1 .3-1.6-1.8-3.5-3.6-7-5.3-10.6-.3-.5-.5-1.1-.7-1.7.6-.4 1.4-.7 2.1-.9.4.3.7.7.8 1.2 2.5 5 4.9 10 7.4 15 .6 1.2.6 1.2-.7 1.6l-3.6 1.2c-.4.1-.8.3-1.2.6.5.9 1.2.6 1.8.4 1.6-.3 3.2-1 5-1.4z"/>
    <path class="st4" d="M138.1 109.9c-.7-2.9-1.8-5.7-2.7-8.5-1.8-5-3.9-9.9-6.3-14.7-.4-.9-1-1.7-1.6-2.5-.9-1.1-1.5-1-2.4.2-.8-1.1-1-2.4-1.4-3.6.5-.4.9-.2 1.3-.2 5.8.1 11.7.3 17.5.4h.4c1.4.1 1.4.1 1.2 1.4L140.9 98c-.7 3.5-1.5 6.9-2.2 10.4-.2.4-.1 1-.6 1.5zm52.4 14.8c1.5-.9 3.2-1.3 4.9-1.1 1.7.2 3.3.9 4.6 2.1 1.3 1.2 2.2 2.8 2.6 4.5.4 1.7.1 3.6-.6 5.2-1.4 2.8-3.7 4.5-6.9 4.7-3.1.2-5.6-1-7.3-3.6.2-1.7.9-3.3 1.2-4.9.2-.9.2-1.9.9-2.6.4 1.9.2 3.9.4 5.8.1.5.1.9.7 1s.7-.3.9-.6c.7-1.3 1.3-2.6 2-3.8.2-.3.2-.8.8-.7.1 1.7.3 3.4.4 5.1.1.4 0 .8.5.9.5.1.8-.3 1-.7.7-1.3 1.3-2.6 1.9-3.8.3-.6.6-1.1.8-1.6 0-.1.1-.1.1-.2v-.2c0-.1 0-.1-.1-.2 0-.1-.1-.1-.2-.1-.1-.1-.3-.1-.4 0-.1 0-.2.1-.3.3-.2.5-.4.9-.7 1.4-.6 1-.9 2.2-1.7 3.2-.3-.5-.4-1.1-.4-1.7-.1-1.1-.1-2.1-.2-3.1 0-.2-.1-.4-.2-.6-.1-.2-.4-.3-.6-.3-.5-.1-.7.3-.9.6-.4.7-.7 1.4-1.1 2.1-.5.8-.7 1.7-1.5 2.3-.2-1.5-.2-3-.2-4.5 0-.6 0-1.3-.9-1.4 0-1.4.6-2.4.5-3.5z"/>
    <path class="st2" d="M196.1 95.1c0 .6.2 1.6-.1 1.8-1.2.8-.5 1.8-.6 2.6-.5 4-1.1 7.9-1.8 11.8-.8 3.9-1.8 7.7-2.3 11.6-2.2.9-4.1 2.5-5.2 4.6-.8-.3-.4-.9-.3-1.1 1.3-2.9 1.8-6.1 2.6-9.2 1.5-5.6 2.8-11.2 4.2-16.9.1-.2.2-.4.2-.6.2-.1.4-.2.6-.4s.2-.4.2-.7c.1-.9.7-1.7.9-2.5.3-.7.8-1.2 1.6-1zm-5.6 29.6c.2 1.1-.5 2.1-.4 3.2-.3.3-.2.7-.3 1-.7.7-.7 1.7-.9 2.6-.4 1.7-1.1 3.2-1.2 4.9-.7-.9-1.1-2-1.3-3.1-.2-1.1-.2-2.3.1-3.4.3-1.1.8-2.1 1.5-3 .6-.9 1.5-1.7 2.5-2.2z"/>
    <path class="st4" d="M125.2 164.3c-.4 1.4-.8 2.5-1.1 3.6-.2.6-.4.9-1 .8-1.7-.2-3.3-.3-4.9-.4-.9-.1-1.1-.7-1.3-1.3-.2-.4.2-.5.4-.6 2.5-.7 5-1.5 7.9-2.1z"/>
    <path class="st5" d="M261.5 164.1c.5.1 1 .1.9.9 0 .6-.1 1.1-.2 1.7-1.5 4.2-2.4 8.6-3.4 12.9-.2.8-.6 1-1.3.9 1.2-5.1 2.4-10.3 3.6-15.4.1-.5.1-.8.4-1z"/>
    <path class="st4" d="M196.1 91.9c-1.3-.2-1.3-.2-1.1-1.3.4-1.8.8-3.5 1.2-5.4.6 0 1.2.1 1.7.4 1.3.4 1.3.4.8 1.8-.2 0-.4 0-.6.1s-.3.3-.4.5c-.6 1.4-1.5 2.5-1.6 3.9zm5.3 79.5c.5.4.1.7 0 1-.9 2-1.6 4.1-2.1 6.2-.3 1-.1 2.1-.5 3.1-2.3-.1-2.4-.2-1.3-2.2 1.3-2.7 2.4-5.5 3.9-8.1z"/>
    <path class="st2" d="M123 172.1c-1 0-1.9.2-2.5-1-.4-.6-1.2-.3-1.8-.4-.3-.3-.5-.8-.6-1.2 1.5.1 2.8.2 4.2.4 1.3.2 1.3.3 1 1.5-.1.2-.2.4-.3.7z"/>
    <path class="st4" d="M116.8 169.9c-.8.1-1.5.4-2.1.9-.8-.8-1.1-1.8-1.5-2.7.2-.2.2-.3.3-.3 2.3-.9 2.5-.8 3.3 2.1z"/>
    <path class="st2" d="M196.1 91.9c.1-1.5 1-2.6 1.6-3.9.1-.2.2-.4.4-.5.2-.1.4-.2.6-.1-.1 1.4-.6 2.6-.8 3.9-.2 1.3-1.1.7-1.8.6zm-70.3 74.9c.5.1.6.4.6.9 0 1-.1 2.1-.3 3.1-.3 1-.8 1.4-1.8 1.4.4-1.9.9-3.7 1.5-5.4z"/>
    <path class="st4" d="M196.1 95.1h-.5c-.2 0-.3.1-.5.2-.1.1-.3.2-.3.4-.1.1-.1.3-.2.5-.3.9-.8 1.6-.9 2.5 0 .2-.1.5-.2.7-.1.2-.4.3-.6.4.2-2 1-3.8 1.3-5.7.2-1 .7-1.1 1.5-.8-.1.5.3 1.1.4 1.8z"/>
    <path class="st2" d="M196.1 95.1c-.1-.7-.5-1.3-.4-1.9 1.4-.1 2.7.3 4 .4-.4 1.1-1.3 1.5-2.3 1.5h-1.3z"/>
    <path class="st4" d="M46.7 190.3c-.6.2-1 .5-1.4 1-.3-.2-.5-.5-.7-.9-1-1.5-1-1.5.7-2.5.7.7 1 1.6 1.4 2.4z"/>
    <path class="st2" d="M199.8 88.8c.5.1.6.4.6.9v2.8c-1.5-.2-1.6-.2-1.2-1.5.1-.8.3-1.5.6-2.2zm-14.7 44.1h-.6c-.1-.6.3-1.1.6-1.6v1.6z"/>
    <path class="st1" d="M62.4 178c.3 2.5 1 5 1.5 7.5.1.5.4.7.9.4.4-.1.7-.3 1.1-.5 4.1-2 8.3-3.9 12.5-5.7l1.1-.5c.4-.2.6.2.8.5.2.4-.2.5-.4.6-1 .5-2.1.9-3 1.3-3.8 1.8-7.7 3.5-11.4 5.2-.3.2-.6.3-.9.5-1.1.7-1.1.7-1.4-.7-.6-2.5-1.1-5.1-1.6-7.6-.2-.7-.3-1.3-.5-1.9-.7-.2-1.3.1-1.9.2l-13.4 3.2c-1.5.4-1.6.4-2.1-1.1l-4.5-13c-.5-1.4-.5-1.4.9-1.9 1.1-.4 2.2-.8 3.3-1.1.7-.2.9-.6.7-1.3-.4-1.8-.7-3.6-1-5.4-.3-1.7-.3-1.9 1.5-2.5l7.4-2.4c.3-.1.7-.2 1-.3 1.4-.5 1.4-.5.9-1.8-1.2-3-2.4-6-3.6-9.1-.2-.4-.3-.8-.4-1.3 0-.1.1-.3.2-.4.1-.1.2-.2.3-.2.3-.1.4.2.5.4.3.7.6 1.5.9 2.2 1.1 2.8 2.2 5.5 3.3 8.3.4 1.1.5 1.1 1.6.8 5.1-1.6 10.1-3.1 15.3-4.2l7.2-1.5c.7-.2 1.1 0 1.3.8 1.2 5.3 2.4 10.5 3.7 15.8 0 .1.1.2.1.3.3 1.4.2 1.6-1.2 2L69.9 167l-22.1 5.9-.5.2c-1.1.3-1.2.2-1.4-1-.5-2.6-1-5.2-1.5-8-1.4.5-2.6.9-3.7 1.3-.4.2-.5.4-.4.8.1.1.1.2.1.3 1.4 4.1 2.8 8.1 4.3 12.2.1.2.2.4.4.7 4.4-1.1 8.8-2.1 13.2-3.1 1.1-.3 2.1-.6 3.2-.8 2.7-.6 5.5-1.2 8.2-1.9 2.1-.5 4.1-1 6.1-1.4.8-.2 1.4-.4 1.2-1.4v-.5c0-.1.1-.2.1-.3.1-.1.2-.1.3-.2h.2c.1 0 .1 0 .2.1l.1.1s.1.1.1.2c.2.7.3 1.3.4 2 .1.5-.2.7-.7.8-1 .2-1.9.4-2.9.7l-11.4 2.7c-1.4.3-1.3.4-1 1.6zm20.5-15.7c-.4-1.5-.6-2.7-.9-3.8-.9-3.8-1.8-7.5-2.7-11.3-.3-1.2-.3-1.2-1.5-.9-1.2.3-2.4.5-3.6.7-10 2-19.7 5.4-29.4 8.6-.7.3-1 .6-.8 1.3.6 2.7 1 5.4 1.5 8.2l1.2 6.3c.1.7.4.9 1 .7.2-.1.4-.2.7-.2l32.9-8.8c.3-.1.7-.2 1-.3.5-.1.7-.4.6-.5z"/>
    <path class="st3" d="M62.4 178c-.4-1.3-.4-1.3.9-1.6l11.4-2.7c1-.2 1.9-.5 2.9-.7.5-.1.8-.3.7-.8-.1-.7-.3-1.3-.4-2 0-.1 0-.1-.1-.2l-.1-.1s-.1 0-.2-.1h-.2c-.3.1-.4.2-.4.5v.5c.2 1-.4 1.2-1.2 1.4-2.1.5-4.1 1-6.1 1.4-2.7.6-5.5 1.3-8.2 1.9.1-1.1-.7-2-.7-3.1-.1-.8.1-1.2.9-1.5 4.7-1.3 9.5-2.6 14.2-3.9.4-.1.8-.2 1.2-.2.2 0 .4 0 .6.1.2.1.3.3.3.5.5 1.9.9 3.9 1.1 5.8.1.7-.4.8-.9.9-2.2.5-4.4.9-6.6 1.4-3.1 1.1-6.1 1.8-9.1 2.5z"/>
    <path class="st2" d="M104.6 173.5c-.9.9-2 1.6-3.1 2.1-4.4 2.3-9 4.1-13.5 6.2-3.5 1.6-7 3.1-10.4 5.1-1.8 1.1-3.7 1.9-5.5 3-1.3.8-2.5 1.6-3.8 2.4-1.1.7-1.4.5-1.7-.7-.4-1.3-.2-1.9 1.1-2.6 3.5-2.1 7.2-3.9 11-5.3.8-.3 1.6-.8 2.4-1.1 5.8-2.8 11.8-5.3 17.9-7.7 1.7-.8 3.6-1.3 5.6-1.4z"/>
    <path class="st1" d="M67.4 105c2.4-.1 4.7.8 6.4 2.4.8.7 1.4 1.6 1.8 2.6.4 1 .6 2 .6 3.1s-.3 2.1-.8 3.1c-.5.9-1.2 1.8-2 2.4-1.6 1.3-3.7 2-5.8 2s-4.1-.7-5.8-2c-2.3-1.9-3.4-4.2-2.8-7.2.6-3.1 2.7-5 5.6-6 .9-.3 1.9-.4 2.8-.4zm.1 14.4c1.8 0 3.5-.5 4.9-1.6.7-.5 1.3-1.1 1.7-1.9.4-.7.7-1.6.8-2.4.1-.9 0-1.7-.3-2.5s-.7-1.6-1.3-2.2c-2.9-3.3-8.7-3.4-11.7-.2-.6.6-1.1 1.4-1.4 2.2-.3.8-.4 1.7-.3 2.6.1.9.3 1.7.8 2.5s1 1.4 1.7 1.9c1.6 1 3.4 1.6 5.1 1.6zm44.2-27.6c0 .1-.1.2-.1.3-.1.1-.2.2-.3.2l-1.1.5c-10.5 4.2-20.9 8.3-31.4 12.5-.4.2-.8.3-1.3.5-.1 0-.1 0-.2.1h-.2c-.1 0-.1-.1-.2-.1s-.1-.1-.1-.2c-.2-.3.1-.6.3-.7s.6-.3.9-.4c10.6-4.2 21.2-8.5 31.8-12.6.4-.2.8-.3 1.3-.4.4-.2.6 0 .6.3zm-11.3 9.9c0 .1 0 .2-.1.3-.1.1-.1.2-.2.2-.3.2-.7.3-1.1.5L81.6 109c-.3.1-.6.2-1 .3-.4.1-.7.1-.8-.3-.1-.4.2-.6.5-.7l.8-.3c5.8-2.2 11.7-4.3 17.5-6.4.4-.1.7-.3 1.1-.4h.2c.1 0 .1 0 .2.1.1 0 .1.1.1.2s.2.1.2.2zm72.6 10.7c-.1 3.6-1.4 6.4-4.1 8.5-1.9 1.5-4.3 2.1-6.7 1.9-2.4-.3-4.6-1.4-6.1-3.2-1.7-1.9-2.6-4.4-2.6-7 0-2.6 1-5 2.7-7 2.6-2.9 5.9-4 9.8-2.9 4 1.2 6.2 4.1 7 8.1v1.6zm-1.1.1c0-5.1-4-9.3-9-9.1-4.1.2-7.5 3.2-8.2 7.6-.9 5.6 3.3 10.8 8.8 10.6 4.7-.2 8.4-4.2 8.4-9.1zm11.3-32.7c-4.9-.5-9.9-1-14.8-1.5-4.2-.4-8.4-.8-12.5-1.3-.6-.1-1.7.2-1.6-.7.1-1.1 1.2-.5 1.8-.5 8.4.8 16.7 1.7 25 2.5l2.8.3c.4.1.9.1.8.7-.1.6-.6.5-.9.5-.2.1-.4 0-.6 0zm-13.3 66.1l-7.8-1.2c-6.4-1-12.7-1.9-19.1-2.9-.6-.1-1.8.2-1.6-.9.2-.8 1.1-.3 1.7-.2l25.8 3.8c.5.1 1 .1 1.5.3.4.1.7.2.7.6-.1.4-.4.5-.8.5h-.4zm54-36.9c-.2-.1-.4-.1-.6-.2-7.6-2.3-15.2-4.1-22.9-6-.4-.1-.7-.2-1.1-.3-.3-.1-.5-.3-.5-.6 0-.1 0-.1.1-.2l.1-.1s.1-.1.2-.1h.2l.8.2c7.7 1.9 15.4 3.7 23 6 .3.1.7.2 1 .3.3.1.6.3.5.7 0 .4-.4.3-.8.3zm-44.1-25.8c-4.8-.5-9.6-1-14.4-1.4-.3 0-.5-.1-.8-.2-.1 0-.3-.1-.4-.2-.1-.1-.1-.2-.1-.4 0-.1.1-.3.2-.3.1-.1.2-.1.4-.2.3 0 .5 0 .8.1 4.8.5 9.5 1 14.3 1.5.3.1.6.1.8.1.4.1.8.2.7.7-.1.4-.5.4-.8.4-.2-.1-.5-.1-.7-.1zm26.7 24l.5.2 13.5 3.8c.3.1.5.2.8.3.1 0 .2.1.2.2.1.1.1.2.1.3 0 .1 0 .1-.1.2 0 .1-.1.1-.1.1-.1 0-.1.1-.2.1h-.2c-.3 0-.6-.1-1-.2-4.3-1.2-8.7-2.5-13-3.7-.3 0-.5-.1-.8-.2-.3-.2-.6-.3-.5-.7 0-.1.1-.2.1-.2l.2-.2c.1-.1.2-.1.3-.1 0 0 .1 0 .2.1zm-39.8 43c-3.7-.5-7.4-1-11-1.6-.8-.1-1.5-.2-2.3-.4-.3-.1-.6-.2-.5-.6.1-.4.4-.5.7-.5.2 0 .3 0 .5.1 4.1.6 8.2 1.2 12.2 1.7.2 0 .3 0 .5.1.4.1 1 .1.9.7-.1.7-.7.4-1 .5zm-1.5 4.6c-.6-.1-1.3-.2-2-.4l-6.5-1.1c-.3 0-.5-.1-.8-.2-.1 0-.1 0-.2-.1-.1 0-.1-.1-.1-.1 0-.1-.1-.1-.1-.2v-.2c0-.1.1-.2.3-.3.1-.1.3-.1.4-.1.2 0 .4.1.5.1 2.7.5 5.4.9 8.1 1.4l.7.2c.4.1.7.2.7.6s-.5.4-1 .4zm66.9 25.6c1.8.4 3.5.8 5.2 1.2 3.6.8 7.2 1.6 10.8 2.5.5.1 1.4.1 1.3.8-.2.9-1 .4-1.5.3l-15.1-3.5c-.3 0-.5-.1-.8-.2-.3-.1-.7-.3-.6-.7 0-.4.4-.4.7-.4zm13.9 7.9c-2.5-.6-5-1.2-7.6-1.8-.4-.1-.8-.3-.6-.8.1-.4.5-.4.9-.3l7.6 1.8c.4.1.8.3.7.8-.3.5-.6.3-1 .3z"/>
    <path class="st3" d="M189.9 128.9c.1-.4-.1-.8.3-1 .9.1.9.8.9 1.4 0 1.5 0 3 .2 4.5.8-.7 1.1-1.5 1.5-2.3.4-.7.7-1.4 1.1-2.1.2-.4.4-.7.9-.6.2 0 .4.1.6.3.1.2.2.4.2.6.1 1.1.1 2.1.2 3.1.1.6-.1 1.1.4 1.7.8-1 1.1-2.2 1.7-3.2.3-.5.5-.9.7-1.4 0-.1.1-.1.1-.2.1 0 .1-.1.2-.1h.2c.1 0 .1 0 .2.1.3.2.3.4.2.7-.3.6-.6 1.1-.8 1.6-.7 1.3-1.3 2.6-1.9 3.8-.2.4-.5.8-1 .7-.6-.2-.5-.6-.5-.9-.1-1.7-.3-3.4-.4-5.1-.6-.1-.6.4-.8.7-.7 1.3-1.3 2.6-2 3.8-.2.4-.3.8-.9.6s-.7-.5-.7-1c-.4-1.8-.2-3.8-.6-5.7z"/>
    <path class="st4" d="M82.9 162.3c.1.1-.2.4-.6.5-.3.1-.7.2-1 .3l-32.9 8.8c-.2.1-.4.2-.7.2-.6.2-.9 0-1-.7l-1.2-6.3-1.5-8.2c-.2-.8.1-1.1.8-1.3 9.7-3.1 19.3-6.5 29.4-8.6 1.2-.3 2.4-.5 3.6-.7 1.2-.2 1.2-.2 1.5.9.9 3.8 1.8 7.5 2.7 11.3.3 1.2.5 2.4.9 3.8zM62.5 151c-1.2 0-2.4.4-3.5.9-3.9 2-5 6.9-2.2 10.1 1.4 1.5 3.3 2.5 5.3 2.6 2.1.1 4.1-.5 5.6-1.9.7-.6 1.3-1.3 1.7-2.2.4-.8.6-1.8.6-2.7s-.2-1.8-.6-2.7c-.4-.8-1-1.6-1.7-2.2-1.4-1.3-3.1-1.9-5.2-1.9zm5-31.6c-1.8 0-3.5-.6-4.9-1.7-.7-.5-1.3-1.2-1.7-1.9-.4-.8-.7-1.6-.8-2.5-.1-.9 0-1.7.3-2.6.3-.8.8-1.6 1.4-2.2 3-3.2 8.8-3.2 11.7.2 2.4 2.8 2 6.7-1 9.1-1.4 1-3.2 1.6-5 1.6zm-1.1-4.4c-.1.1-.2.1-.3.1-.5-.8-1-1.6-1.5-2.3-.3-.5-.6-1-.9-1.4 0-.1-.1-.1-.1-.2-.1 0-.1-.1-.2-.1h-.2c-.1 0-.1 0-.2.1-.3.2-.2.4-.1.6 1 1.5 1.9 3 2.9 4.4.2.3.5.5.8.4.4-.2.4-.4.4-.7 0-.8-.1-1.6-.1-2.3-.1-.7-.1-1.4.1-2.1.5.4.9.9 1.2 1.5.5.7.9 1.4 1.4 2.1 0 .1.1.1.2.2s.1.1.2.1h.2c.1 0 .2 0 .2-.1.3-.2.3-.4.3-.7l-.3-4.5c-.1-.5.2-1.2-.5-1.2s-.4.8-.4 1.3c.1 1.2.2 2.3.3 3.7-.5-.4-.9-.9-1.2-1.5-.5-.7-.9-1.4-1.4-2.1-.2-.3-.4-.6-.8-.4-.2 0-.3.2-.5.3-.1.2-.1.4-.1.5.1.6.1 1.2.1 1.8.4.9.5 1.7.5 2.5 0 .1 0 0 0 0zm105.5-2.5c0 4.9-3.7 9-8.3 9.1-5.5.2-9.7-4.9-8.8-10.6.7-4.4 4.1-7.5 8.2-7.6 4.8-.2 8.9 3.9 8.9 9.1zm-11.6 2.3c-.2-.1-.3-.1-.4-.1V111c0-.5 0-1-.1-1.5 0-.1 0-.1-.1-.2 0-.1-.1-.1-.1-.2-.1 0-.1-.1-.2-.1h-.2c-.3 0-.4.3-.4.5 0 2.2.1 4.3.3 6.4.1.4.2.7.6.8.5.2.7-.2.9-.6.4-.9.9-1.7 1.3-2.5.4-.7.6-1.4 1.3-2.1.3.7.5 1.5.4 2.3.1 1 .1 2 .1 3v.2c0 .1.1.2.1.2l.2.2c.1.1.2.1.2.1.2 0 .3 0 .5-.1.1-.1.3-.2.3-.4l.6-1.2c.8-1.5 1.6-3.1 2.3-4.6.2-.3.3-.6-.1-.7-.1 0-.1-.1-.2-.1h-.2c-.1 0-.1.1-.2.1s-.1.1-.1.2c-.2.3-.3.6-.5.9l-1.4 2.9c-.2.3-.2.8-.8.8-.1-1.6-.3-3.2-.4-4.8 0-.2-.1-.4-.2-.5-.1-.2-.3-.3-.5-.3-.5-.2-.7.1-.9.5-.2.3-.4.7-.5 1.1-.3 1.2-.9 2.4-1.6 3.5z"/>
    <path class="st1" d="M62.5 151c1.9 0 3.8.6 5.3 1.9.7.6 1.3 1.3 1.7 2.2.4.8.6 1.8.6 2.7s-.2 1.8-.6 2.7c-.4.8-1 1.6-1.7 2.2-1.6 1.3-3.6 2-5.6 1.9-2.1-.1-4-1.1-5.3-2.6-2.8-3.2-1.7-8.1 2.2-10.1 1-.6 2.2-.9 3.4-.9zm-.1 12.4c3.1.1 5.7-1.8 6.3-4.3.8-3.2-1.4-6.1-4.9-6.8-3.4-.6-6.8 1.6-7.3 4.7-.5 3 1.7 5.8 5.1 6.4h.8z"/>
    <path class="st3" d="M66.4 115.1c-.1-.8-.1-1.6-.1-2.4-.1-.6-.1-1.2-.1-1.8v-.3c0-.1.1-.2.1-.3l.2-.2c.1-.1.2-.1.3-.1.4-.1.6.2.8.4.5.7.9 1.4 1.4 2.1.3.6.7 1.1 1.2 1.5-.1-1.4-.3-2.5-.3-3.7 0-.5-.4-1.2.4-1.3.7-.1.5.8.5 1.2l.3 4.5c0 .3 0 .6-.3.7-.1.1-.3.1-.5 0-.2 0-.3-.2-.4-.3-.5-.7-.9-1.4-1.4-2.1-.3-.6-.7-1.1-1.2-1.5-.1.7-.1 1.4-.1 2.1 0 .8.1 1.6.1 2.3 0 .3 0 .6-.4.7s-.6-.1-.8-.4c-1-1.5-1.9-3-2.9-4.4-.1-.2-.2-.4.1-.6.1 0 .1-.1.2-.1h.2c.1 0 .1.1.2.1s.1.1.1.2c.3.5.6 1 .9 1.4.5.8 1 1.6 1.5 2.3-.2 0-.1 0 0 0zm93.9-.3c.8-1.1 1.2-2.3 1.9-3.5.2-.3.4-.7.5-1.1.2-.4.5-.6.9-.5.5.1.6.4.7.9.1 1.6.3 3.2.4 4.8.6.1.6-.4.8-.8l1.4-2.9c.2-.3.3-.6.5-.9l.3-.3h.4c.4.2.3.4.1.7-.8 1.5-1.5 3.1-2.3 4.6l-.6 1.2c-.1.2-.2.3-.3.3-.1.1-.3.1-.5.1-.1 0-.2 0-.2-.1s-.1-.1-.2-.2-.1-.1-.1-.2v-.2c-.1-1-.1-2-.1-3 0-.8-.1-1.6-.4-2.3-.7.6-.9 1.4-1.3 2.1-.5.8-.9 1.7-1.3 2.5-.2.4-.4.7-.9.6-.2 0-.3-.1-.4-.3-.1-.1-.2-.3-.1-.5-.2-2.1-.3-4.3-.3-6.4 0-.2.1-.5.4-.5.3 0 .6.2.6.5.1.5.1 1 .1 1.5v3.8c-.3.1-.1.1 0 .1z"/>
    <path class="st4" d="M62.4 163.4c-.3 0-.5 0-.8-.1-3.4-.6-5.6-3.4-5.1-6.4.5-3.1 3.9-5.3 7.3-4.7 3.5.7 5.7 3.6 4.9 6.8-.6 2.6-3.2 4.4-6.3 4.4zm0-6.3c.8.5.9 1 1.1 1.5s.5.9.7 1.3c.2.3.4.6.8.5.1-.1.2-.1.3-.3.1-.1.1-.3.1-.4.1-1 .1-2 .1-3 .1-.3 0-.6 0-.9-.1-.3-.2-.6-.4-.9-.5 1.4-.1 2.6-.4 3.7-.5 0-.6-.3-.7-.5-.4-.7-.7-1.4-1.1-2.1-.2-.3-.3-.5-.7-.4-.1 0-.3.1-.3.2-.1.1-.1.2-.2.4 0 .4 0 .8-.1 1.2-.1.7.2 1.4-.5 2.1-.5-1.1-.9-1.9-1.4-2.8-.1-.3-.3-.5-.6-.3-.2.2-.1.4 0 .6.6 1.2 1.2 2.4 1.8 3.5.2.3.4.6.8.5.4-.1.4-.5.5-.8.1-1 .1-1.9.2-3.1z"/>
    <path class="st3" d="M62.4 157.1c-.1 1.2-.1 2.2-.2 3.1 0 .3-.1.7-.5.8-.4.1-.6-.2-.8-.5-.6-1.2-1.2-2.4-1.8-3.5-.1-.2-.2-.5 0-.6.4-.2.5.1.6.3.5.9.9 1.8 1.4 2.8.7-.8.5-1.5.5-2.1 0-.4.1-.8.1-1.2 0-.1.1-.3.1-.4.1-.1.2-.2.4-.2.4-.1.5.2.7.4.4.7.7 1.4 1.1 2.1.1.2.2.6.7.5.3-1.1-.1-2.3.4-3.7.3.5.5 1.2.4 1.8 0 1-.1 2-.1 3 0 .3-.1.6-.4.7-.4.2-.6-.2-.8-.5-.3-.5-.5-.9-.7-1.3-.2-.7-.6-1.2-1.1-1.5z"/>
    <path class="st4" d="M37.1 182.4l-34 15.4 9.3 20.5 34-15.4-9.3-20.5zM10.3 132L3 153.2l35.3 12.2 7.3-21.2c.1-.1-35.3-12.2-35.3-12.2z"/>
    <path d="M39.9 185.2l-34 15.4 9.3 20.4 34-15.4-9.3-20.4z" fill="#f5a722"/>
    <path class="st3" d="M13.1 134.8L5.8 156l35.3 12.2 7.3-21.2-35.3-12.2z"/>
    <path d="M37.1 182.4l-34 15.4 9.3 20.5 34-15.4-9.3-20.5zM10.3 132L3 153.2l35.3 12.2 7.3-21.2c.1-.1-35.3-12.2-35.3-12.2z" fill="none" stroke="#103559" stroke-width="4.4062" stroke-miterlimit="10"/>
</svg>
