<svg viewBox="0 0 384 384" fill="none" xmlns="http://www.w3.org/2000/svg">
    <path d="M289.289 221.206c-.226.055-.624.055-.624.165-.288 1.244-1.138.964-1.988.793-3.149-.7-6.377-.985-9.6-.848-4.594.171-9.237.055-13.831.171-2.743.055-5.383-.622-8.16-.684-1.371 0-2.208-1.368-2.544-2.736-.602-2.431-1.01-4.905-1.221-7.4-.321-2.743-1.188-5.394-2.55-7.797-.336-.684-1.413-.965-2.154-1.416-.281-.171-.624-.281-.685-.623.685-.335 1.193.062 1.7.288 9.801 4.628 19.605 9.242 29.411 13.843 3.737 1.751 7.364 3.563 11.163 5.205.48.246 1.083.356 1.083 1.039z" fill="#DDDEDE"/>
    <path d="M208.087 144.152c-1.817.061-3.573-.561-5.383-.732-1.419-.116-2.777-.397-4.196-.397-49.015 0-98.01-.018-146.9832-.054-2.6057 0-5.328-.513-7.9337-.171-5.2115.622-10.4846-.171-15.696.684-2.2698.342-4.4229 1.128-6.6858 1.244.336-.902 1.1863-.957 1.9269-1.19 3.111-.787 6.3082-1.184 9.5177-1.183h7.7623c-3.1749 0-6.288-.116-9.4629 0-3.1551.004-6.2902.5-9.2914 1.471-4.1143 1.409-7.0286 3.953-8.0503 8.31-.2804 1.087-.3936 2.21-.336 3.331v111.97c.0085.799.1028 1.595.2812 2.373.1714.739.5142 1.471.1165 2.264-.7891-1.082-1.19-2.397-1.1383-3.734-.1097-2.736-.0548-5.472-.0548-8.208V153.707c0-.903-.4526-1.751-.336-2.599.2858-2.375 1.2187-4.627 2.6971-6.51 1.4785-1.884 3.4461-3.327 5.6892-4.174 2.8868-1.128 5.8903-.964 8.8388-1.299 4.8249-.502 9.688-.52 14.5166-.055 2.6767.234 5.3638.327 8.0503.281 3.2297-.117 6.3429.731 9.5177 1.019 4.2514.335 8.3314 1.368 12.6926 1.368 40.7995-.117 81.5995-.055 122.3935-.117 3.761-.06 7.521.219 11.232.835.189.001.375.055.536.155.161.1.291.243.376.412-.173.118-.368.199-.573.238-.206.039-.417.035-.621-.012-7.309-1.525-14.729-.903-22.155-.903-44.594-.054-89.2091-.054-133.8445 0 49.4125 0 98.8255.018 148.2375.055 2.35-.029 4.693.256 6.967.848.487.116 1.166.171 1.392.903z" fill="#DDDEDF"/>
    <path d="M105.6 293.193c-.576-.223-1.203-.28-1.81-.164H21.2572c-4.5326 0-8.9554-.397-13.14512-2.209-4.8-2.148-7.481148-5.876-7.878862-11.135-.171429-2.052-.054858-4.104-.054858-6.046V142.681c-.05519-2.028.232253-4.051.85029-5.984 1.81028-5.034 5.89028-7.407 10.76575-8.591 5.4857-1.368 11.1634-.964 16.7725-1.019.4526 0 .96 0 .9052.623-.0549.506-.5623.396-.9052.396-3.7988.055-7.5428-.061-11.3348.164-3.4119.115-6.7493 1.026-9.74403 2.661-2.41119 1.254-4.28293 3.34-5.26628 5.868-1.07657 2.996-.96 6.156-.96 9.33 0 42.104.01828 84.211.05486 126.32-.07502 2.625.0764 5.252.45257 7.851.79543 4.638 3.51771 7.804 7.87885 9.576 3.22973 1.299 6.57603 1.525 9.97033 1.805 3.1748.288 6.4045.288 9.6.342 25.1588.055 50.2628 0 75.4286 0h1.241c.514 0 1.022.226.85.849-.171.622-.589.718-1.138.321z" fill="#204D6D"/>
    <path d="M140.654 220.174c.372.094.755.13 1.138.109.789-.055 1.077.342 1.077 1.074v44.71c0 1.867-.062 1.867-1.927 1.867H94.5329c-1.248 0-2.0572-.232-1.8172-1.696.1166-.793-.2262-1.135-1.0148-1.074-.5692 0-1.1383.165-1.6457-.171.5691-.793 1.4743-.622 2.208-.513 1.7313.173 3.4724.231 5.2114.171h39.8944c2.743 0 2.743 0 2.743-2.824v-39.396c.089-.677-.137-1.505.542-2.257zm-59.4378 0c.3726.083.7507.14 1.1315.171.7954-.062 1.0765.335 1.0765 1.073v44.704c0 1.867-.0548 1.867-1.9268 1.867H35.0882c-1.2411 0-2.0571-.226-1.8102-1.696.1097-.794-.2812-1.129-1.0766-1.074-.5692 0-1.1315.171-1.6457-.171.5691-.793 1.4743-.568 2.2148-.506 1.6926.17 3.3947.227 5.0949.171h40.6834c1.9886 0 2.1531-.116 2.1531-2.209v-40.299c.0618-.595-.0548-1.409.5143-2.031z" fill="#38B6EE"/>
    <path d="M200.099 220.625c.281 0 .562.055.85.055 1.131-.171 1.412.396 1.303 1.416-.055.56 0 1.128 0 1.696 0 14.363 0 28.651.055 43.007 0 1.245-.398 1.587-1.584 1.587-15.47-.062-30.94 0-46.355 0-2.057 0-2.057 0-2.153-1.984 0-.28-.11-.561-.11-.848.508-.561 1.242-.335 1.866-.335h44.372c.177.022.356.004.524-.053.168-.058.321-.153.447-.278.126-.126.221-.278.278-.446.058-.168.076-.346.054-.522v-40.354c-.058-.795-.003-1.594.165-2.373.05-.209.148-.404.288-.568z" fill="#1BA548"/>
    <path d="M143.205 307.324c-2.778.287-5.438-.623-8.229-.732-1.131-.055-2.325-.452-3.429-.342-3.428.171-6.912-.848-10.368-.561-.85.055-1.138-.458-1.138-1.245.047-1.644-.047-3.289-.281-4.918 0 1.471-.055 2.88 0 4.35.055 1.3-.569 1.751-1.755 1.813-3.285.109-6.576.164-9.861.28-2.379.11-4.8.055-7.138.397-3.0038.451-6.0072.787-9.0655 1.012-.288 0-.5691-.054-.8503-.054.0549-.507.4526-.561.8503-.623 3.6275-.506 7.248-1.012 10.9375-1.183 3.229-.116 3.428-.287 3.428-3.42v-3.563c-.116 1.867.055 3.419-.171 5.034-.024.45-.219.875-.545 1.189-.325.313-.758.492-1.211.5-2.55.342-5.1562.458-7.707.739-7.7957.94-15.5332 2.31-23.1772 4.103-.9051.226-1.7554.732-2.7428.11.288-.452.7405-.506 1.1931-.623 2.2629-.506 4.5326-1.073 6.7406-1.525 1.0465-.248 2.1066-.435 3.1748-.561 2.832-.342 5.6092-.903 8.4412-1.368 3.9085-.684 7.9337-.684 11.7873-1.525.281-.045.566-.064.85-.055 2.325-.054 2.325-.054 2.325-2.489v-3.673c0-.684 0-1.368.795-1.58.508-.171.391-.506.336-.903-.054-.684-.054-1.368-.054-2.093 0-.506.336-.793.624-1.19.182-.302.455-.54.779-.681.324-.14.685-.177 1.031-.105 2.894.171 5.726-.226 8.612.28 1.53.281 3.004-.28 4.478-.28h73.927c.378-.042.759-.023 1.131.054.508.171.96.452.343 1.074-.222-.174-.479-.299-.753-.367-.274-.069-.559-.079-.838-.029h-73.152c-1.645 0-1.755.116-1.755 1.75v9.049c0 1.464.171 1.58 1.584 1.635 6.585.141 13.154.708 19.666 1.696.453 0 1.015-.055 1.187.623z" fill="#DDDEDE"/>
    <path d="M208.087 144.152c-3.105-.967-6.35-1.406-9.6-1.3H51.0583c-.5143 0-1.4195.288-1.4743-.335 0-.909.96-.513 1.4743-.513 49.1247 0 98.2677.021 147.4287.062 3.393-.039 6.778.321 10.087 1.074 3.428 1.128 6.459 2.653 8.16 5.991.502.803.812 1.712.905 2.654.514 1.805.398 3.727.398 5.595v110.055c0 .568.171 1.129-.165 1.642-.569.054-.514-.452-.624-.739V155.006c0-.567.165-1.128-.171-1.641-1.077-5.144-4.286-7.914-8.99-9.213z" fill="#275372"/>
    <path d="M81.2163 220.174c0 14.016-.0183 28.033-.0549 42.049 0 3.502.1097 2.996-3.0651 2.996h-43.2c-1.4743 0-2.8938-.451-4.368-.116-.5623-.397-.3978-1.012-.3978-1.525 0-15.143 0-30.238-.0548-45.381 0-1.299.4526-1.587 1.6457-1.587 15.7714.055 31.5429 0 47.3691 0 2.0572 0 2.0572 0 2.0572 1.977.0137.568.0686 1.074.0686 1.587z" fill="#124B71"/>
    <path d="M140.654 220.174c0 10.943-.018 21.886-.055 32.83 0 3.502-.055 6.949 0 10.457 0 1.245-.343 1.751-1.7 1.751-15.017-.054-30.089 0-45.1066 0-1.2411 0-2.4891-.396-3.792-.116-.5691-.39-.3977-1.012-.3977-1.525 0-15.143-.0183-30.27-.0548-45.381 0-1.299.3908-1.587 1.6388-1.587 15.8123.055 31.5433 0 47.3763 0 2.057 0 2.057 0 2.057 1.977-.048.575.034 1.081.034 1.594z" fill="#114B71"/>
    <path d="M28.2925 279.35H183.326c.562 0 1.7-.513 1.7.56 0 .849-1.076.513-1.646.513H33.1062c-2.2027.114-4.411-.058-6.5691-.513.5623-.56 1.1863-.28 1.8103-.225.8503.116 1.7554 0 2.6057.061-.6857 0-1.3714 0-2.0983-.061-.2263.116-.624.225-.5623-.335z" fill="#416782"/>
    <path d="M143.205 307.324c-3.751-.669-7.534-1.139-11.335-1.409-3.429-.288-6.857-.568-10.286-.513-.96 0-1.371-.397-1.371-1.368v-10.738c0-.849.343-1.191 1.193-1.129h74.215c.569 0 1.419-.397 1.529.732-.507.066-1.018.105-1.529.116h-72.878c-1.193 0-1.7.226-1.646 1.525.117 2.88.062 5.766 0 8.591 0 1.074.343 1.409 1.372 1.409 9.673.187 19.311 1.229 28.8 3.112 7.083 1.409 14.16 2.825 20.681 6.101 3.121 1.473 5.944 3.504 8.331 5.991.572.556 1.018 1.226 1.31 1.966.292.741.423 1.535.384 2.329-.11 1.642-.905 2.599-2.544 2.825-4.306.568-8.612.794-12.98 1.019-4.019.226-8.099.342-12.124.513-.569-.909 0-1.19.734-1.245 4.985-.225 9.915-.738 14.907-.848 2.743-.054 5.548-.513 8.325-.684 2.153-.171 2.894-1.696 1.817-3.618-.871-1.394-2.008-2.605-3.346-3.563-2.435-1.922-5.267-3.276-8.044-4.692-3.97-2.052-8.228-2.934-12.466-4.008-3.291-.848-6.576-1.245-9.861-2.093-1.021-.116-2.153.171-3.174-.342l-.014.021z" fill="#194365"/>
    <path d="M106.971 292.632c-.015.23-.079.454-.186.657-.108.204-.257.383-.438.526-.397 0-.85 0-.85-.622.398-.055 1.077.171 1.022-.561-.062-.568-.624-.397-1.077-.451H29.8217c-4.6491 0-9.3531.109-13.9954-.397-2.5449-.241-5.034-.89-7.37146-1.922-5.04-2.373-7.30971-6.559-7.474286-11.983-.061715-2.093 0-4.24 0-6.333V143.7c0-2.373.054856-4.691 1.186286-6.839.11657 1.299-.50743 2.544-.624 3.844-.17143 2.147-.17143 4.302-.17143 6.443 0 41.201-.01829 82.405-.05486 123.611-.02202 2.353.66868 4.659 1.98172 6.614 2.38628 3.899 5.67086 6.84 9.35313 9.439 1.0766.731 1.8103 1.86 3.0034 2.537 1.248.794 2.7429.964 4.1143 1.471 3.9086 1.368 7.8789.964 11.8423 1.073 4.1143.062 8.1052 0 12.1852 0h61.2544c.7-.054 1.66-.451 1.92.739z" fill="#DBDDDF"/>
    <path d="M143.205 307.323c3.869.482 7.71 1.167 11.506 2.052 5.891 1.3 11.726 2.77 17.109 5.595 2.807 1.354 5.342 3.208 7.481 5.472.422.454.801.946 1.131 1.47 1.372 2.264.343 4.07-2.262 4.295-7.543.623-15.134 1.136-22.725 1.3-.686 0-1.413-.055-1.131 1.019-.741-.226-.851-1.245-1.701-1.416 1.419-.28 2.777.288 4.114-.054-.397-.397-1.076.116-1.584-.452 1.658-.783 3.41-1.353 5.212-1.696 3.682-.793 7.426-1.696 9.86-5.027.295-.521.411-1.125.329-1.718-.082-.593-.356-1.143-.781-1.565-.686-.684-1.591-.958-2.325-1.58-.452-.397-1.248-.622-.795-1.525.288-.452-.281-.342-.453-.397-2.408-.951-4.889-1.706-7.419-2.257-2.099-.513-4.197-1.19-6.35-1.532-2.551-.39-5.102-1.129-7.707-1.3-.604-.116-1.166-.116-1.509-.684z" fill="#DDDEDE"/>
    <path d="M309.943 55.7709c4.8 1.9767 9.408 4.2953 14.105 6.4976 18.192 8.4811 36.267 17.099 54.459 25.5527 4.869 2.257 5.891 5.1433 5.322 10.3961-.453 4.4667-2.661 8.3647-4.533 12.3797-6.062 12.94-12.178 25.826-18.302 38.773-.109.226-.109.452-.226.684-.398.561-.398 1.368-1.022 1.806-.336.226-.685.622-1.131.28-.446-.342-.226-.731 0-1.128.967-1.922 1.927-3.844 2.777-5.821 5.328-11.244 10.656-22.57 15.977-33.801 1.817-3.837 3.97-7.626 4.876-11.8116.507-2.4281.795-5.0271-.508-7.4004-.441-.8278-1.109-1.5133-1.927-1.9767-3.12-1.8125-6.459-3.1667-9.6-4.6919-9.408-4.521-18.925-8.9325-28.388-13.3372l-31.111-14.5819c-.562-.2873-1.248-.4583-1.584-1.0739-.288-1.0259.274-.9165.816-.7455z" fill="#0A2A51"/>
    <path d="M299.993 103.19c-1.015-.397-2.092-.958-3.168.171.562.225 1.371-.171 1.639.567.121.598.103 1.216-.055 1.806-.453 4.637-3.909 6.046-7.481 6.723-1.005.176-1.978.501-2.887.965-3.004 1.47-6.007.684-8.956.054-1.926-.396-2.262-2.653-.85-4.575-.562-.055-1.022-.055-1.529-.117.117-.731.795-.684 1.303-.848 2.153-.732 4.423-1.128 6.631-1.922 2.496-.684 4.93-1.58 7.426-2.373l5.266-1.525c1.529-.397 2.208-.11 2.661 1.074z" fill="#DDDEDE"/>
    <path d="M289.289 221.206c-5.485-2.605-10.937-5.204-16.457-7.803-8.613-4.068-17.207-8.119-25.783-12.154-.345-.164-.706-.295-1.076-.39-1.584-.794-3.23-1.525-4.759-2.435-.953-.527-1.758-1.284-2.342-2.202-.583-.917-.926-1.966-.998-3.051-.459-4.466.789-8.536 2.661-12.489 2.66-5.656 5.328-11.306 7.934-16.962 1.186-2.599 2.153-5.253 3.339-7.852 2.215-4.576 4.306-9.213 6.521-13.734 1.865-3.789 3.909-7.523 6.117-11.08.517-.727 1.23-1.294 2.057-1.635 1.755-.684 3.428-1.586 5.383-1.757.164 0 .281.116.397.171.055.451-.288.622-.569.848-1.645.903-3.572 1.128-5.101 2.373-.624.513-.96 1.129-1.53 1.587-2.66 4.788-5.327 9.575-7.652 14.582-5.547 11.976-11.273 23.849-16.828 35.832-1.329 2.65-2.032 5.567-2.057 8.529-.049 1.425.336 2.831 1.105 4.033.769 1.201 1.885 2.142 3.202 2.697l55.584 26.114c.509.228 1.001.491 1.474.786.281.171.624.397.398.794-.227.397-.57.226-.906.055-1.755-.849-3.517-1.635-5.211-2.483-1.694-.848-3.264-1.642-4.903-2.374z" fill="#092A51"/>
    <path d="M212.571 128.106H40.3063c-.3977 0-.9668.11-.912-.567.0617-.513.4526-.513.8503-.513H209.143c1.922-.056 3.844.116 5.726.513-.398.506-.967.335-1.475.28-1.824-.149-3.656-.185-5.485-.109H41.664c-.5652.118-1.1544.015-1.6457-.288.3977.452.7954.288 1.0766.288 56.7223 0 113.4631.018 170.2221.054.397-.054 1.021-.451 1.254.342z" fill="#3E6581"/>
    <path d="M266.62 129.474c-1.303.561-1.982 1.635-2.606 2.825-5.438 9.719-9.97 19.835-14.674 29.896-.227.513-.515.964-.796 1.47-.226-.903.343-1.58.741-2.202.905-1.368.843-2.77.617-4.241-.508-3.502.116-6.949.171-10.457.055-5.705 4.423-8.42 8.277-11.47 1.265-.947 2.457-1.987 3.566-3.112.342-.39.74-.903 1.419-.452.679.452.734-.28.85-.561.557-.925 1.447-1.603 2.489-1.894.117.054.117.109.062.171-.035.021-.076.031-.116.027z" fill="#DDDEDE"/>
    <path d="M13.2207 270.171c-.3833-.87-.5413-1.823-.4595-2.77V154.329c-.0518-.89.1055-1.78.4595-2.599.6171.506.0548 1.183.1645 1.806 0 .116.288-.055.0618-.055-.0618 0-.1166-.055-.0618-.116 0-.281 0-.561.4526-.452 0 37.819-.0183 75.648-.0548 113.489 0 1.019.0548 2.052.0548 3.112-.5623.11-.3908-.28-.3908-.793-.1715.568.2674 1.074-.2263 1.45z" fill="#2F5977"/>
    <path d="M206.105 292.913c-.795-.732-.116-.958.453-1.074.563-.077 1.133-.095 1.701-.055.507 0 .96.055 1.131-.739.117-.561.686-.786 1.248-1.012 2.942-1.245 5.945-2.373 8.839-3.844 2.208-1.135 3.963-2.996 5.664-4.787.605-.718.963-1.609 1.022-2.545.151-1.067.673-2.047 1.474-2.77.507-.451.734-.28.795.342-.046.894.049 1.789.281 2.654V139.857c-.008-.284.01-.568.055-.848.453.061.569.451.624.848.055.567.055 1.135.055 1.696v138.248c-.788 6.785-5.554 10.341-11.897 11.757-3.036.638-6.134.941-9.237.903-.795.055-1.584-.171-2.208.452z" fill="#DEE0E0"/>
    <path d="M265.145 132.579c.624-1.634 2.057-2.482 3.518-3.16.98-.413 1.983-.771 3.003-1.073 2.153-1.074 4.533-1.019 6.857-1.471 4.588-.793 8.839-2.489 13.084-4.24 1.988-.849 3.346-2.374 4.765-3.899.391-.397.618-.964 1.303-.91.905 1.416.734 2.832-.569 4.302-2.069 2.413-4.736 4.243-7.735 5.308-3.608 1.352-7.35 2.319-11.163 2.886-1.372.226-2.551.623-3.175 2.052-.165.342-.336.848-.905.684-.055-.786.795-1.368.686-2.257-1.413.226-1.303 1.635-2.058 2.319.015-.1-.005-.201-.054-.288-.343-.622.96-1.183.164-1.634-.562-.342-1.241.109-1.865.225-1.414.33-2.884.349-4.306.055-.871-.198-.809 1.047-1.55 1.101z" fill="#DDDEDE"/>
    <path d="M51.2369 326.201c4.1142.225 8.2765.451 12.4114.738 2.7428.226 5.4377.281 8.2286.397 23.856.903 47.7121.616 71.5681.506.569 0 1.591-.451 1.646.452 0 .731-1.022.396-1.591.396-13.084.226-26.119.452-39.209.226-10.0873-.116-20.1741-.226-30.261-.568-7.7006-.225-15.4697-.506-23.1154-1.368l-.7955-.171c.7955-.684 1.7006.055 2.6058-.171-.576-.212-1.296.527-1.488-.437z" fill="#244F6F"/>
    <path d="M200.044 220.967c0 .451.054.958.054 1.409v41.318c0 1.86 0 1.86-1.872 1.86H153.6c-.51.009-1.021-.009-1.529-.054-.124-.063-.259-.1-.398-.11-.452 0-.905.164-1.412-.171.562-.793 1.474-.506 2.098-.793.842-.122 1.694-.159 2.544-.11h42.274c.967 0 1.372-.451 1.372-1.368v-39.156c-.056-.795.001-1.595.171-2.374.24-.738.638-1.299 1.324-.451z" fill="#044656"/>
    <path d="M152.043 264.768c-.452.396-.96.171-1.529.28.281.397.796.055 1.077.342-.281.055-.563.055-.851.109-1.302.171-1.81-.28-1.81-1.696.055-15.047.055-30.094 0-45.141 0-1.299.336-1.696 1.639-1.696 15.758.055 31.511.073 47.259.055 2.099 0 2.099 0 2.099 2.093 0 .506.055 1.019.055 1.525-.055.109-.055.225-.11.28-.129-.127-.302-.199-.484-.199-.181 0-.354.072-.483.199-.157-.086-.277-.227-.336-.397-.453-2.257-.453-2.257-2.777-2.257h-43.008c-2.441 0-2.441 0-2.441 2.374v41.188c0 1.019-.227 2.147 1.193 2.489.206.103.382.259.507.452z" fill="#1E4B6C"/>
    <path d="M228.939 139.631c-.054-.226-.171-.397-.226-.623-1.076-5.471-4.8-8.248-9.805-9.773-2.078-.563-4.196-.961-6.336-1.19-.57-.506-1.248-.281-1.873-.281H39.7715c.2019-.127.4273-.212.6628-.251.2356-.039.4765-.03.7086.026H211.941c.96 0 1.981 0 2.948-.055 3.361.209 6.615 1.258 9.463 3.05 1.385.877 2.57 2.035 3.477 3.398.907 1.364 1.517 2.902 1.789 4.516.092.597.131 1.201.117 1.805-.027.073-.073.138-.133.187-.061.049-.133.082-.21.094-.507-.11-.117-.677-.453-.903z" fill="#18385C"/>
    <path d="M51.2367 326.201c.4594.622 1.1931.061 1.9268.622h-3.1062c-1.4743-.055-2.0983-.848-2.3246-2.202-.4526-2.736 1.248-4.186 3.0034-5.595 4.5874-3.673 9.8606-5.991 15.4697-7.578 1.5292-.452 3.0583-.903 4.5874-1.3l10.656-2.202c7.0557-1.4 14.1881-2.382 21.3598-2.941 2.949-.226 3.004-.281 3.004-3.16v-3.789c0-.342.055-.732.452-.732.398 0 .453.39.453.732 0 1.976 0 3.953-.055 5.937-.055 1.012-.398 1.696-1.701 1.751-4.244.225-8.4408.684-12.6373 1.299-.3909.055-.8435-.055-1.2412.226-10.2857 1.58-20.4548 3.337-30.1714 7.12-4.4708 1.751-8.6674 4.104-11.8971 7.858-.1324.183-.2429.38-.3292.589-.2263.909-.3977 1.757.2812 2.544.576.821 1.4194.821 2.2697.821z" fill="#163C60"/>
    <path d="M229.276 140.479h.288c.336 0 .397.171.397.451v134.911c.037 1.968-.096 3.936-.397 5.882-.247.976-.549 1.937-.905 2.879-1.818 3.961-5.157 5.992-9.127 7.12-4.361 1.307-8.915 1.471-13.427 1.19.055-.957.851-.683 1.413-.731 4.08-.117 8.105-.288 12.014-1.532 4.423-1.409 7.707-4.008 9.065-8.646.171-.56-.055-1.244.452-1.751.211-1.251.307-2.52.288-3.789 0-44.425.019-88.866.055-133.323-.116-.91-.507-1.758-.116-2.661z" fill="#183C60"/>
    <path d="M284.811 106.356c-2.379 1.02-4.93 1.416-7.426 2.203-.218.073-.427.169-.624.287-7.872 2.086-15.696 4.295-23.629 5.991-2.742.662-5.446 1.473-8.099 2.429-.456.183-.869.461-1.21.814-.342.354-.604.776-.771 1.237-2.668 5.315-5.486 10.574-8.558 15.731-.569 1.013-1.248 1.922-1.927 2.935-.85-.849-.288-1.526.11-2.203 3.4-5.344 6.467-10.892 9.181-16.613.363-.779.89-1.47 1.546-2.026.656-.556 1.424-.964 2.253-1.196 5.891-1.921 12.014-3.166 18.076-4.582 2.155-.474 4.275-1.098 6.342-1.867 1.252-.466 2.542-.825 3.854-1.074 1.817-.39 3.518-1.238 5.328-1.58.398-.055.796-.28 1.186-.335.124-.066.259-.106.398-.116.516-.237 1.101-.279 1.646-.117.226-.109-.226.623.343.288.562-.486 1.241-.828 1.981-.206z" fill="#0F3257"/>
    <path d="M309.943 55.7709c-.398 0-.905-.0547-.624.6225-.139.0965-.298.1617-.464.1913-.167.0295-.339.0225-.503-.0204-4.114-.8481-6.857 1.1286-9.12 4.2406-2.263 3.112-3.799 6.8395-5.437 10.3414-4.115 8.6452-8.229 17.352-12.302 25.9904-.789 1.3679-1.303 2.8793-2.057 4.3503-.179.432-.451.819-.796 1.135-.128.137-.301.223-.487.243-.186.02-.373-.027-.528-.134-.118-.117-.19-.273-.202-.439-.011-.167.039-.331.141-.463.397-.848.795-1.697 1.248-2.49 2.434-4.5209 4.477-9.3223 6.74-13.9596 3.799-7.7423 7.145-15.731 11.225-23.3434 1.026-2.016 2.473-3.7887 4.245-5.1981 2.75-2.1134 5.774-2.3118 8.921-1.067z" fill="#0B2B51"/>
    <path d="M297.675 117.888c-4.114 5.766-10.601 7.175-16.889 8.926-3.003.793-6.062 1.073-9.12 1.586l.562-.567c.624-.281 1.372-.171 1.982-.397-.686.226-1.371.116-1.982.397-2.057 0-3.792 1.073-5.664 1.696v-.253c3.23-1.813 6.858-2.148 10.423-2.599 5.515-.755 10.829-2.579 15.641-5.369 3.854-2.148 5.664-5.882 6.974-9.897.734-2.257.686-4.631.686-6.949.038-.208.032-.421-.018-.626-.05-.205-.142-.397-.27-.564-.734-1.183-1.81-.841-2.887-.561-1.668.581-3.372 1.052-5.102 1.409.172-.506-.733-.335-.562-.903 2.278-1.189 4.789-1.866 7.358-1.983 1.248-.055 2.057.731 2.489 1.921.48 1.38.598 2.858.343 4.296-.398 2.879-.905 5.766-2.435 8.31-.514.684-.85 1.409-1.419 2.052 0 .013-.055.013-.11.075z" fill="#1B4466"/>
    <path d="M325.44 221.993c-.967.622-2.098.287-3.12.622-.562.171-1.131.226-2.098.452 1.927.342 3.463-.281 4.992-.171.452.061.96-.164 1.303.287-.343.397-.851.335-1.303.397-4.462.276-8.896.898-13.262 1.86-2.16.479-4.254 1.221-6.233 2.209-.411.135-.781.37-1.077.684-1.248 1.129-2.55 2.257-2.098 4.179.453 1.922 2.098 2.941 4.025 3.338 5.281 1.025 10.667 1.404 16.039 1.129.686 0 1.413-.171 2.057.396-.281.171-.569.281-1.076.568h1.981c-.785.277-1.603.447-2.434.506-5.464.189-10.934-.19-16.32-1.129-1.393-.271-2.685-.917-3.737-1.867-2.743-2.318-1.817-7.345 1.701-8.932 4.697-2.148 9.744-3.16 14.845-3.728 1.907-.287 3.833-.909 5.815-.8z" fill="#254C6D"/>
    <path d="M258.912 257.545c2.325-2.373 4.025-5.198 5.836-7.913 1.81-2.716 4.114-3.728 7.2-3.844 4.532-.171 9.01-.452 13.542-.848 4.704-.397 9.12-1.751 13.543-3.42.227-.055.453-.226.686-.28.398-.11.795-.055.905.396.11.452-.281.506-.562.623-2.441.848-4.876 1.751-7.372 2.373-5.609 1.409-11.389 1.58-17.108 1.806-1.927.061-3.854.396-5.781.567-1.584.11-2.496 1.3-3.346 2.428-1.755 2.319-3.429 4.692-5.157 7.066-.496.742-1.155 1.362-1.926 1.812-.067.053-.144.092-.226.114-.082.023-.167.029-.252.018-.084-.011-.165-.038-.239-.081-.073-.042-.137-.099-.189-.167-.288-.479.446-.335.446-.65z" fill="#173C5F"/>
    <path d="M229.564 281.723c-.288-1.368.226-2.736.226-4.069V142.401c0-.622.226-1.3-.226-1.922v-2.052c.624 1.409.562 2.934.562 4.405V278.05c.016 1.247-.174 2.488-.562 3.673z" fill="#416782"/>
    <path d="M359.383 157.503c-2.668-.842-2.667-.842-4.478 2.209-.343-.116-.226-.623-.74-.739-1.132-.335-1.584-1.074-1.077-2.052 1.303-2.66 2.057-5.54 3.854-7.913.85-1.135 1.303-2.544 2.441-3.42.789-.622 1.077-.506 1.303.623.281-.397.281-1.074 1.015-.849-1.015 2.203-2.057 4.405-3.059 6.724 1.475 0 1.42-1.409 2.154-1.977-.024.488-.171.962-.429 1.377-.258.416-.618.759-1.046.996-1.303.903-1.412 2.545-2.263 3.673.563.842 1.927.274 2.325 1.348z" fill="#DEDFDF"/>
    <path d="M217.659 268.947c.398-.452.234-1.013.234-1.471V154.781c0-1.02-.46-2.052-.234-3.051.399 1.004.574 2.082.515 3.16v112.648c.099 1.067-.098 2.142-.569 3.105-.211-.236-.323-.543-.313-.859.01-.316.142-.616.367-.837z" fill="#436984"/>
    <path d="M217.042 153.214c.618.732.282 1.635.336 2.428v112.744c.117.28.172.561-.281.506V168.261c0-5.006-.055-10.033-.055-15.047z" fill="#436984"/>
    <path d="M13.8994 152.913c-.3429.171-.2263.568-.624.965v-2.148c1.0217-4.692 4.3063-7.065 8.5577-8.426 2.5643-.828 5.2388-1.266 7.9337-1.3 3.6823-.055 7.3646-.055 10.9714-.055.3978 0 1.0149-.109 1.0766.397.0617.506-.624.397-1.0217.397-4.1143.055-8.2286-.171-12.2949.226-2.496.225-5.0468.506-7.3714 1.696-3.9428 1.409-6.1508 4.35-7.2274 8.248z" fill="#183D60"/>
    <path d="M217.097 268.947c.115-.157.209-.327.281-.507.117.171.172.397.282.568.009.546-.01 1.091-.055 1.635-1.077 5.198-4.931 7.523-9.6 8.761-4.931 1.368-9.978 1.019-15.018 1.074-.397 0-.85 0-.85-.506s.453-.513.85-.513c2.743 0 5.555 0 8.332-.055 3.249-.054 6.452-.786 9.401-2.147 1.682-.732 3.15-1.879 4.266-3.333 1.116-1.454 1.842-3.166 2.111-4.977z" fill="#1F4163"/>
    <path d="M258.912 257.545c-.109.171-.281.342-.226.451.117.342.514.226.686.117.686-.513 1.248-1.074 1.927-1.587-.287.683-.778 1.262-1.406 1.658-.628.395-1.363.587-2.105.551-8.044-.061-16.094 0-24.137 0h-.851c-.119.007-.237-.029-.332-.102-.094-.073-.159-.178-.182-.295-.013-.071-.011-.144.006-.214.016-.07.047-.137.09-.195.043-.058.097-.107.16-.144.062-.036.132-.06.203-.069.376-.046.754-.064 1.132-.055h23.177c.556 0 1.234-.061 1.858-.116z" fill="#2B5674"/>
    <path d="M278.805 99.2911c.054.7319-.515 1.2999-.741 1.9219-.165.451-.85.958-.226 1.3.624.342.912-.452 1.138-.958.624-1.368 1.241-2.7358 1.927-4.0695.1-.1962.212-.3858.336-.5677.164.1316.277.3169.319.5232.041.2064.008.4206-.093.6053-1.186 1.9219-1.248 4.1857-1.865 6.2787-.288 1.074-.624 2.148-1.817 2.736.967-.506 1.817-1.3 2.948-.452-2.893 1.129-6.006 1.642-9.01 2.429-.569.17-1.193.287-1.755.396.98-.698 2.137-1.108 3.339-1.183.514.026 1.025-.092 1.475-.342.281-.171.966-.226.226-.732-.336-.287-.11-.568.055-.848 1.309-1.922 2.057-4.104 3.065-6.217.226-.2464.274-.7046.679-.8209z" fill="#DDDEDE"/>
    <path d="M350.654 178.363c-3.485-.207-6.981-.019-10.423.561-.062-.786.617-.786 1.131-.903.508-.063 1.018-.1 1.53-.109.164.01.329-.013.485-.068.155-.055.298-.14.419-.251.122-.111.22-.246.288-.395.069-.15.106-.312.11-.476.191-1.353.828-2.604 1.811-3.557.226-.232.569-.684.795-.567.905.451 1.474-.342 2.208-.513-.336 1.415-1.131 2.544-1.7 3.789-.391.903-.282 1.19.74 1.074 3.964-.507 7.879-1.02 11.445-3.051.159-.081.33-.137.507-.164-1.138 1.368-2.839 1.751-4.423 2.202-2.743.848-5.554 1.136-8.441 1.587.453.623.905.335 1.413.281.747-.007 1.597-.404 2.105.56z" fill="#DBDCDD"/>
    <path d="M13.2207 270.171c.0549-.513.0549-.964.1097-1.47.3977.17.1166.731.5692.848 1.3714 5.594 5.4377 8.084 10.7108 9.212 1.2412.281 2.4892.397 3.7372.623.96.684 2.0983.055 3.0583.622h-4.8001c-4.0251-.451-7.824-1.525-10.7657-4.521-.9091-1.008-1.6374-2.165-2.1531-3.419-.209-.618-.365-1.251-.4663-1.895z" fill="#13355A"/>
    <path d="M48.9735 325.414c-.9669-.739-.7406-1.641-.2812-2.544-.1928.855-.0939 1.751.2812 2.544z" fill="#244F6F"/>
    <path d="M29.3691 208.02c-.3978-.397-.2263-.903-.2263-1.368 0-17.243 0-34.533-.0617-51.776 0-1.238.3977-1.463 1.5291-1.463H196.868c1.187 0 1.584.28 1.584 1.58-.054 17.235-.054 34.416 0 51.659 0 1.368-.452 1.58-1.7 1.58-55.36-.055-110.7201-.073-166.0801-.055-.3977 0-.9051.226-1.3028-.171.3947-.332.896-.512 1.4125-.506H151.543c.991-.073 1.988.022 2.948.28.165.055 0-.335 0-.109.11.848-2.269-.964-3.175-2.373.508-.623 1.132-.342 1.701-.233 1.846.368 3.727.539 5.609.513h24.686c1.465-.011 2.925-.162 4.361-.451 1.032-.14 2.011-.541 2.844-1.164.833-.624 1.492-1.45 1.915-2.4.32-.463.479-1.018.452-1.58v-20.279c-.006-.322-.043-.643-.109-.958 0-.396 0-.738.397-.964.11.055.336.055.391.171.741 1.867 2.27 3.42 2.27 5.65-.055 6.333.055 12.605-.055 18.938-.062 2.825-1.193 4.521-3.291 5.198 1.26-.152 2.531-.191 3.799-.116 1.021 0 1.474-.451 1.419-1.47v-49.929c-.062-1.69-.171-1.806-1.872-1.861H32.9965c-3.2297 0-3.0652-.225-3.0652 3.106v48.157c-.0548.698.1166 1.662-.5622 2.394z" fill="#E4E3E2"/>
    <path d="M80.2287 217.971c.5075 1.409-.1097 2.736-.0548 4.179.0548 13.509 0 27.017 0 40.47 0 .787.2263 1.58-1.1314 1.58-15.3052-.055-30.5418-.055-45.8469-.055-.2602-.566-.3575-1.194-.2812-1.812v-39.355c0-2.941.1715-3.05 3.12-3.05H77.863c.9669 0 1.7006-.226 1.8103-1.3.0911-.283.2907-.519.5554-.657z" fill="#39B5EC"/>
    <path d="M80.2284 217.971c-.2811 2.374-.2811 2.374-2.832 2.374-14.1668 0-28.2788 0-42.4388-.062-1.3714 0-1.6457.397-1.6457 1.696.0548 13.57.0548 27.071 0 40.641-.0304.511-.0876 1.02-.1715 1.525-2.1531.11-2.0982.11-2.0982-2.051 0-14.364 0-28.651-.0549-43.008 0-1.368.4526-1.641 1.7006-1.641 15.2983.054 30.6583 0 45.9428.054.6034.007 1.2275-.212 1.5977.472z" fill="#FBFCFC"/>
    <path d="M139.639 217.971c.508 1.409-.116 2.736-.062 4.179.062 13.509 0 27.017 0 40.47 0 .787.227 1.58-1.131 1.58-15.298-.055-30.542-.055-45.84-.055-.2657-.565-.3655-1.193-.288-1.812v-39.902c.0617-2.203.3429-2.483 2.5509-2.483h40.2921c.563 0 1.132-.055 1.701 0 1.186.055 2.153-.116 2.318-1.587.111-.172.271-.308.459-.39z" fill="#39B5EC"/>
    <path d="M139.639 217.971c-.288 2.374-.288 2.374-2.839 2.374-14.167 0-28.272 0-42.4389-.062-1.3715 0-1.6457.397-1.6457 1.696.0617 13.57.0617 27.071 0 40.641-.0281.511-.083 1.02-.1646 1.525-2.1532.11-2.1532.11-2.1532-1.867 0-14.411.0001-28.767-.0617-43.178 0-1.368.4526-1.642 1.7006-1.642 15.2985.055 30.6585 0 45.9425.055.693-.007 1.317-.226 1.66.458z" fill="#FBFCFD"/>
    <path fill-rule="evenodd" clip-rule="evenodd" d="M353.486 190.285c.611-.657 1.006-1.486 1.131-2.373.029-.05.054-.101.076-.153.584-1.226.548-2.522.511-3.869-.008-.28-.015-.563-.018-.848 0-1.984-1.248-3.222-2.886-4.07-.532-.282-1.082-.528-1.646-.738-1.931-.44-3.918-.574-5.89-.397-1.448.077-2.888.267-4.307.567-.258.056-.517.107-.775.157-1.338.263-2.67.524-3.819 1.423-.323.417-.348.717.023.906.124-.017.249-.032.375-.044.337-.089.691-.195 1.043-.302.299-.09.597-.18.883-.259.856-.244 1.726-.434 2.606-.567 2.689-.506 5.43-.676 8.16-.506 2.777.225 5.157 1.921 5.328 4.295-.014 1.265-.108 2.528-.281 3.782-1.138 2.736-3.12 4.637-5.445 6.334-4.114 3.05-8.667 3.563-13.481 2.092-1.471-.443-2.902-.969-4.362-1.506-.227-.084-.456-.167-.685-.251-.481-.131-.923-.38-1.282-.726-.36-.345-.626-.776-.775-1.251-.795-2.599-.74-5.082 1.303-7.229.281-.288.508-.568.734-.849.236-.249.484-.485.743-.707-.073-.131-.263-.235-.654-.291-4.272 2.257-5.095 8.474-1.529 11.586.216.129.376.333.45.573.073.241.055.499-.052.727-1.032 2.696-2.706 5.102-4.876 7.01-.585.557-1.328.921-2.127 1.044-.8.122-1.618-.003-2.344-.36-.873-.341-1.746-.754-2.617-1.166-.545-.258-1.09-.516-1.634-.756-3.77-1.725-7.53-3.456-11.289-5.185-5.225-2.405-10.447-4.808-15.687-7.194-1.952-.896-3.898-1.798-5.842-2.699h-.001l-.001-.001h-.001c-3.581-1.66-7.157-3.318-10.756-4.926-3.628-1.615-7.193-3.283-10.766-5.034-2.832-1.355-3.799-3.728-2.948-6.669.771-2.664 1.936-5.144 3.096-7.616.294-.626.587-1.25.874-1.877 2.118-4.664 4.272-9.312 6.423-13.951v-.001c2.048-4.417 4.092-8.826 6.098-13.236.069-.181.147-.363.227-.549.118-.276.24-.56.342-.866.007-.023.015-.046.023-.068v-.001c.107-.319.228-.678-.194-.889-.176-.085-.376-.103-.564-.052-.188.052-.351.17-.458.333-.453.656-.798 1.381-1.022 2.147-.16.482-.348.955-.562 1.416-.73 1.586-1.459 3.171-2.188 4.755-4.022 8.743-8.032 17.459-12.095 26.215-.497 1.108-.912 2.251-1.242 3.419-1.206 4.651.213 7.353 4.8 9.439 18.039 8.289 36.096 16.561 54.172 24.814l1.927.848c4.025 1.867 6.459 1.3 9.236-2.202 1.324-1.825 2.426-3.799 3.285-5.882.281-.678.617-.787 1.303-.507 3.698 1.639 7.799 2.15 11.787 1.471 4.478-.739 7.481-3.447 10.142-6.73z" fill="#23496A"/>
    <path d="M336.261 180.846c-2.2.775-4.294 1.82-6.233 3.112-.227-.28.966-.684-.055-.964 1.7-1.58 3.792-2.257 6.007-2.825-.288.513-.117.677.281.677z" fill="#4A6D87"/>
    <path d="M1.76897 280.649c.06171-1.299-.56228-2.996 0-4.746v4.746z" fill="#FDFDFD"/>
    <path d="M341.588 168.98c9.861-21.477 19.74-42.935 29.637-64.375.657-1.41 1.152-2.89 1.474-4.411.508-2.9342-.398-5.0271-3.12-6.3882-4.587-2.257-9.291-4.35-13.94-6.4976-14.729-6.778-29.486-13.4534-44.14-20.2861-2.434-1.1354-4.306-.7387-6.171 1.0122-2.057 1.9219-3.285 4.3568-4.416 6.8396-4.252 9.1582-8.448 18.3711-12.693 27.5291-.121.194-.254.382-.397.561-.117.055-.172.116-.172.226 0 .451-.686.848-.171 1.299.343.287.795 0 1.193-.164.905-.342 1.865-.513 2.743-.848 0 .39 1.371-.513.617.616-2.357.945-4.779 1.72-7.248 2.318-.766-.053-1.532.103-2.215.452-.11.061-.391.225-.391-.11 0-.171.165-.28.281-.451.453-.903 1.42-.848 2.153-1.019.381-.056.739-.212 1.038-.452.299-.241.528-.557.663-.916.352-.905.789-1.775 1.303-2.599 4.251-9.1038 8.441-18.262 12.692-27.3586.828-1.9918 1.934-3.8569 3.285-5.5401 2.606-3.1051 5.102-3.7275 8.729-2.0518 13.262 6.1009 26.517 12.147 39.772 18.2548 5.485 2.5443 10.875 5.1433 16.457 7.5235 5.273 2.2571 6.295 5.6495 4.477 10.6832-1.872 5.144-4.416 9.945-6.685 14.917L342.72 169.15c-.323.826-.787 1.59-1.372 2.258-.569.225-.74 0-.514-.507.24-.731.528-1.272.754-1.921z" fill="#08284F"/>
    <path d="M229.276 140.479c.459 2.825.288 5.595.288 8.42v126.778c.037 1.527-.155 3.051-.569 4.521.054-2.093.054-4.104.054-6.217V144.378c0-1.58-.054-3.16-.054-4.788.281.267.226.629.281.889z" fill="#416782"/>
    <path fill-rule="evenodd" clip-rule="evenodd" d="M324.603 221.075c.482.032 1.016.068.837.918-.646.156-1.317.235-2 .317-1.058.126-2.145.255-3.211.675.742.74 1.616.615 2.428.499.118-.017.234-.034.349-.048 1.051-.171 2.123-.171 3.175 0 .679.281 1.357.506 2.098.732 1.755.54 3.285 1.724 3.682 3.42.734 3.05-.281 6.559-3.511 7.968-1.156.507-2.35.924-3.572 1.245-.222.06-.432.154-.624.28-.081.049-.186.084-.292.12-.264.088-.541.181-.497.503.042.427.34.374.631.321.095-.017.19-.034.274-.034.363.046.732.006 1.077-.116 4.251-.342 7.303-2.88 7.989-7.066.644-3.727-.151-6.443-4.8-7.968-.376-.114-.779-.228-1.174-.34-.197-.056-.393-.111-.582-.166-.336-.062-.569-.171-.507-.568.055-.354.334-.348.593-.343.031.001.062.001.092.001.457.033.93.049 1.412.064.414.014.834.027 1.256.053 4.018.225 7.927 0 11.499-2.374.97-.623 1.747-1.503 2.243-2.542.497-1.038.695-2.194.571-3.338-.124-1.144-.564-2.231-1.272-3.139-.707-.909-1.654-1.603-2.735-2.006-1.57-.739-3.257-1.202-4.985-1.368-.857 0-1.083-.342-.686-1.129.508-.998 1.022-2.038 1.475-3.05.041-.096.105-.195.17-.295.203-.313.412-.636-.061-.895-.474-.211-.751.272-.97.654-.015.027-.03.053-.045.078-.587 1.112-1.118 2.254-1.59 3.42-.113.398-.361.744-.7.981-.34.237-.752.349-1.166.318-1.712.025-3.405.368-4.992 1.012l-.06.028c-3.162 1.455-6.362 2.927-8.168 6.128-1.132 2.038-.734 3.775 1.193 5.143 1.418 1.013 3.069 1.655 4.8 1.867.106.023.229.032.356.04zm18.647-6.635c.105-1.008-.164-2.019-.757-2.843-3.401-3.899-7.817-4.07-12.514-3.399.076.508.43.693.77.871.15.078.297.155.417.257 2.043 1.724 2.989 3.331 1.988 5.144-1.001 1.812-2.53 3.166-4.8 3.221-.279 0-.565-.006-.854-.012-.591-.012-1.199-.025-1.806.012-.708.083-1.425-.02-2.082-.297-.656-.276-1.229-.719-1.662-1.283-1.077-1.19-1.077-1.696 0-2.886.8-.744 1.652-1.429 2.55-2.052.227-.171.624-.513.343-.794-.281-.28-.624-.109-.905.055-.233.156-.462.311-.688.465-.602.409-1.191.809-1.808 1.177-1.028.695-1.864 1.635-2.434 2.736-.809 1.244-.453 2.202.562 3.105 1 .853 2.168 1.489 3.429 1.867 2.041.649 4.098.769 6.18.891.639.037 1.281.075 1.925.128 4.135.335 7.817-.739 10.82-3.734.75-.685 1.221-1.62 1.326-2.629z" fill="#103156"/>
    <path d="M311.897 225.16c-.288.567-.967.451-1.529.848 1.07-.017 2.136.116 3.168.397 2.949.957 3.854 2.653 2.777 5.54-.249.899-.67 1.742-1.241 2.482-1.419 1.471-1.646 1.587-5.102 1.922 2.743.342 5.157.848 7.591.739 2.435-.11 4.985 0 7.481 0-.116.109-.226.164-.342.28-3.909.11-7.818.335-11.658-.171-2.208-.28-4.361-.622-6.576-.957-.41-.084-.808-.217-1.186-.397-1.7-.848-3.284-1.922-3.058-4.104.107-.984.495-1.918 1.117-2.69s1.453-1.35 2.394-1.666c1.911-1.089 3.997-1.841 6.164-2.223zm30.597-13.563c-1.36-1.208-2.91-2.183-4.588-2.886-2.551-.903-5.047-.452-7.652-.397 1.185.508 2.177 1.38 2.832 2.489.572.706.865 1.596.823 2.502-.042.906-.415 1.766-1.05 2.416-1.81 2.148-4.114 2.373-6.74 2.428-.935.069-1.873-.091-2.732-.465-.859-.374-1.614-.952-2.198-1.683-.181-.165-.325-.366-.423-.589-.099-.224-.15-.466-.15-.71 0-.244.051-.486.15-.71.098-.223.242-.424.423-.59.96-1.128 2.324-1.805 3.682-2.995-1.584.342-2.263 1.586-3.511 1.696 2.243-2.032 4.977-3.446 7.934-4.104 3.511-.732 6.967-.732 10.285.965 1.199.588 2.209 1.501 2.915 2.633z" fill="#DDDEDE"/>
    <path d="M198.96 220.68c.062.116.062.226.116.342 0 .561-.054 1.128-.054 1.696v40.237c0 1.416-.398 1.867-1.818 1.867-14.448-.054-28.841-.054-43.289 0-.624 0-1.248.055-1.81.055-.062-.054-.062-.054-.062-.109-.211-.479-.289-1.006-.226-1.525V223.45c0-2.996.117-3.105 3.12-3.105h41.479c.788-.103 1.755-.342 2.544.335z" fill="#1BA349"/>
    <path d="M198.96 220.68c-3.113 0-6.226.055-9.346.055h-35.925c-1.193 0-1.529.342-1.529 1.532.055 13.617.055 27.296.055 40.914.086.517.027 1.047-.171 1.532-2.058.055-2.058.055-2.058-1.983 0-14.411 0-28.768-.054-43.179 0-1.244.336-1.58 1.584-1.58 15.188.055 30.37 0 45.558 0 2.099 0 2.099 0 1.982 2.052-.065.213-.098.434-.096.657z" fill="#F8FAFA"/>
    <path d="M287.589 101.268c-.12.293-.216.595-.288.903-.624 1.983-1.639 3.508-3.964 3.679-.281 0-.569.281-.85.39-.569.116-1.077.287-1.646.397 1.077-1.012 2.496-1.3 3.799-1.696.297-.055.577-.174.823-.349.245-.175.449-.401.597-.664.452-.909.569-2.01 1.529-2.66z" fill="#DDDEDE"/>
    <path fill-rule="evenodd" clip-rule="evenodd" d="M292.574 202.781c-1.077-3.68-4.306-5.657-8.784-5.657l-1.145-.027c-3.401.061-5.952 1.696-7.255 4.692-1.303 2.996-1.358 6.217.85 9.042 2.099 2.736 4.814 3.365 8.105 3.42 5.623.054 10.211-4.802 8.229-11.47zm-17.116 2.824c0 4.378 3.683 7.797 8.277 7.797 4.759 0 8.38-3.33 8.386-7.626-.054-4.384-3.744-7.804-8.502-7.804-4.478 0-8.161 3.448-8.161 7.633z" fill="#113157"/>
    <path fill-rule="evenodd" clip-rule="evenodd" d="M359.881 157.727c-.166-.07-.334-.141-.498-.224l-.02-.01c-2.361-1.12-2.706-1.283-4.122 1.036-.209.367-.397.746-.562 1.135-.98 1.926-1.885 3.906-2.791 5.888-1.034 2.261-2.068 4.523-3.216 6.71-.235.675-.562 1.306-.886 1.93-.3.577-.597 1.148-.814 1.743-.398 1.019-.055 1.471 1.076 1.3.359-.064.721-.132 1.086-.2.96-.179 1.933-.36 2.878-.484 2.815-.335 5.523-1.281 7.933-2.77 4.135-2.654 4.65-6.723 4.197-11.135-.315-2.312-1.687-3.728-3.744-4.685-.168-.088-.342-.161-.517-.234zm1.882 2.491h-.001c1.998 1.7 1.771 3.968 1.549 6.189l-.02.199c-.514 4.241-3.284 6.559-7.138 7.797l-.067.017c-1.678.883-3.492 1.219-5.337 1.561-.522.096-1.045.193-1.569.303-.624.116-.905-.055-.563-.793 2.016-4.111 3.976-8.251 5.929-12.378.705-1.489 1.409-2.977 2.115-4.461.171-.397.398-.903.905-.623.3.109.604.207.908.305 1.243.401 2.467.795 3.289 1.884z" fill="#0E2E54"/>
    <path d="M272.229 127.778c.78-.425 1.664-.622 2.551-.568-.96.739-1.756.513-2.551.568z" fill="#092A51"/>
    <path d="M298.862 115.911c.013.402-.085.8-.285 1.149-.2.349-.493.635-.847.828.229-.733.615-1.408 1.132-1.977z" fill="#DDDEDE"/>
    <path d="M340.8 179.772c-.815.382-1.705.576-2.606.568.366-.28.789-.476 1.24-.574.45-.098.917-.096 1.366.006z" fill="#4A6D87"/>
    <path fill-rule="evenodd" clip-rule="evenodd" d="M197.204 152.53h-83.376c-27.9355-.045-55.8441-.011-83.7252.103-1.8103 0-1.8103 0-1.8103 1.806v52.938c0 .911 0 1.362.2257 1.586.2214.219.6602.219 1.5297.219H197.417c2.057 0 2.057-.075 2.057-2.051v-52.227c0-2.374 0-2.374-2.27-2.374zM29.3966 206.973c-.0137.353-.0275.705-.0275 1.047.7533-.055 1.5096-.055 2.2629 0h123.675c-1.417-.219-2.28-1.129-3.157-2.054-.247-.261-.496-.523-.758-.771 0-.492-.352-.702-.696-.907-.091-.054-.181-.108-.264-.167-.695-.456-1.267-1.077-1.663-1.808-.396-.73-.604-1.547-.607-2.378-.055-6.721-.055-13.446 0-20.176.062-2.483 1.365-4.125 3.744-4.973 1.755-.569 3.594-.835 5.438-.786 8.784-.062 17.623-.117 26.407 0 3.428.054 6.857.308 8.914 3.727 0 .034.044.047.103.064.037.012.081.025.123.046.625.097.646.509.668.937.005.085.009.17.018.253.021.133.009.281-.004.425-.023.276-.045.536.176.649 1.544.644 1.512 1.981 1.482 3.225-.004.17-.008.338-.008.502.027 2.948.027 5.874.027 8.79 0 2.916 0 5.823.028 8.733.061 3.14-.624 5.766-4.307 6.559.747.022 1.484.027 2.211.031 1.098.007 2.174.013 3.234.079 1.358.054 1.701-.383 1.701-1.751-.062-16.955-.062-33.856 0-50.811 0-1.355-.33-1.697-1.701-1.697-55.099.055-110.2149.055-165.3463 0-1.3028 0-1.6457.342-1.6457 1.642v50.524c0 .342-.0137.694-.0274 1.046z" fill="#23506F"/>
    <path d="M151.419 205.14c-2.66-1.299-3.792-3.42-3.737-6.333.117-6.101.117-12.209 0-18.364-.116-3.961 2.38-6.053 5.89-6.614.976-.142 1.963-.199 2.949-.171h27.881c1.553-.05 3.104.161 4.588.622.882.239 1.693.687 2.365 1.306.671.62 1.181 1.392 1.488 2.251.055.225.055.513.117.738.094.172.132.367.11.561v20.97c-.071.596-.204 1.183-.398 1.751-1.372 3.283-4.306 3.96-7.31 4.015-9.915.116-19.831.055-29.801.055-1.406-.107-2.795-.371-4.142-.787z" fill="#1E4869"/>
    <path d="M192.789 201.857c.507-7.742.054-15.539.226-23.254.289.535.389 1.152.281 1.751v18.993c.132.87-.048 1.759-.507 2.51z" fill="#3B617C"/>
    <path d="M291.498 103.477c-1.022.684-2.208.732-3.347 1.183-.336.116-.685.342-1.015-.055-.226-.342 0-.622.165-.902.165-.281.226-.623.569-.739-.055.397-.171.793-.281 1.299 1.413.062 2.551-.902 3.909-.786z" fill="#1B4466"/>
    <path d="M341.588 168.979c.11.623-.342 1.074-.569 1.642-.171.39-.055.561.288.684-.171.28-.397.622-.795.397-.057-.042-.105-.095-.139-.157-.034-.061-.055-.13-.06-.2-.005-.07.005-.141.03-.207.025-.066.064-.126.114-.175.453-.65.507-1.477 1.131-1.984z" fill="#638097"/>
    <path d="M336 191.584c-.788.115-1.592.035-2.343-.23-.75-.266-1.424-.711-1.963-1.295-.611-.56-.994-1.324-1.078-2.147-.083-.823.139-1.649.625-2.319 1.927-3.051 5.095-4.008 8.27-4.747 1.303-.28 2.66-.561 4.025-.055 1.077.397 1.755 1.02 1.701 2.264-.055 1.245.685 2.654-.398 3.899-1.491 1.774-3.399 3.154-5.554 4.015-1.015.511-2.154.725-3.285.615z" fill="#DDDEDE"/>
    <path d="M128.304 161.422c1.701.397 2.325 1.409 2.153 3.16-.144 1.636-.144 3.281 0 4.917.041.232.035.469-.017.699-.052.229-.15.446-.287.637-.137.191-.312.353-.513.476s-.424.205-.657.24c-1.269.382-2.584.591-3.909.623-11.218.335-22.498.171-33.7163.109-2.7429 0-5.664.171-8.3863-.684-1.1931-.335-1.9268-.903-1.7006-2.257.6858-.684 1.4743-.513 2.2698-.397 1.3513.188 2.716.264 4.08.226h32.2974c1.979-.008 3.953-.216 5.89-.622 1.755-.397 2.057-.848 2.057-2.654v-2.941c-.086-.27-.09-.56-.012-.832.078-.272.235-.516.451-.7z" fill="#20C055"/>
    <path d="M187.406 161.333c1.529.232 2.153 1.019 2.057 2.606-.11 1.692-.11 3.389 0 5.082.061.492-.07.988-.364 1.387-.295.4-.731.671-1.22.76-1.982.623-4.025.513-6.007.568-7.31.055-14.564.226-21.874-.116-.742-.037-1.481-.13-2.208-.281-1.303-.28-2.208-1.019-2.098-2.483.342-.396.795-.287 1.193-.287 7.988.116 15.922 0 23.911.055 1.275-.015 2.547-.146 3.798-.39 1.811-.342 2.38-1.019 2.38-2.886v-2.558c-.043-.26-.027-.526.048-.778.075-.253.206-.485.384-.679z" fill="#20BD55"/>
    <path d="M187.406 161.333c0 1.368-.117 2.736-.062 4.069.172 2.435-.843 2.887-2.941 3.283-1.538.235-3.095.329-4.65.281-7.193 0-14.4 0-21.586-.055-.85 0-1.7-.116-2.496-.171-.562-.171-1.186-.342-1.755-.506-.443-.118-.829-.389-1.089-.765s-.377-.832-.331-1.287c.062-2.093.062-4.24 0-6.326-.038-.447.077-.893.326-1.266s.618-.65 1.046-.786c1.315-.481 2.715-.692 4.114-.623 7.934-.054 15.867 0 23.739 0 1.086.002 2.168.117 3.23.342 1.817.397 2.215.958 2.27 2.825.068.39.123.65.185.985z" fill="#0E4A5F"/>
    <path d="M128.304 161.422c0 1.805-.055 3.556-.055 5.369.043.479-.097.956-.392 1.337-.295.38-.723.636-1.199.715-1.859.528-3.786.777-5.718.738-11.904.055-23.8016 0-35.6988 0-1.3714 0-2.7428-.396-4.08-.225-.912-.513-2.1531-.342-2.8388-1.368-.1097-.561-.336-1.183.6857-.958.7337.335 1.4674.848 2.3794.794 7.8172.957 15.6343.451 23.4585.451 5.89.055 11.787.335 17.678-.226h.281c3.799-.287 4.114-.684 4.114-4.411 0-1.129.391-2.203.226-3.338-.288-.903-1.138-1.012-1.817-1.409-1.186-.684-2.489-.342-3.737-.506-.176-.013-.35-.052-.514-.116-.46-.126-.939-.165-1.413-.117H86.4001c-.4763-.046-.9571-.006-1.4194.117-.1646.054-.336.054-.5075.116-1.248.109-2.6057-.116-3.7988.451-.5623.226-1.1315.561-1.6937.849-.3429.109-.6857.225-.7406-.288-.0549-.513.2811-.848.7406-1.074l.7337-.335c1.1314-.342 2.3245-.287 3.5108-.567.3654-.126.755-.166 1.1383-.117h37.5085c.381-.046.768-.006 1.132.117.061-.055.116-.055.226 0 1.138.28 2.324.171 3.428.567 1.248.164 1.818.903 1.701 2.203-.096.403-.114.821-.055 1.231z" fill="#054758"/>
    <path d="M122.921 157.38c-1.248 0-2.551.054-3.799.054H84.3429c-.3978 0-.7338-.054-1.1315-.054.8931-.241 1.8224-.317 2.7429-.226H120.24c.9-.066 1.805.01 2.681.226zm-43.9131 9.89c-.7405-.281-.624.342-.6857.738-.1848-.146-.3286-.338-.4175-.556-.0889-.218-.1199-.455-.0899-.688v-6.785c0-.794.1166-1.526 1.0766-1.697-.1097.397-.7337.623-.4526 1.136 0 .055.2811 0 .4526-.062.133.134.2369.293.3054.468.0684.176.0998.363.0923.551.0549 1.977.0549 3.954 0 5.992.028.162.0171.328-.0317.485-.0489.157-.1344.3-.2495.418zm47.5411-9.268c-1.167.007-2.327-.185-3.429-.568 1.174-.174 2.374.024 3.429.568zm-43.3511-.568c-1.1371.356-2.3194.547-3.5109.568 1.0724-.579 2.3099-.78 3.5109-.568z" fill="#285372"/>
    <path d="M191.596 177.782c.397.171.116.684.452.903.353.657.492 1.408.398 2.147v17.64c.018.744-.077 1.486-.281 2.202-.686 2.148-2.27 3.276-4.307 3.844-.996.269-2.025.402-3.058.397h-28.56c-1.706.04-3.396-.328-4.93-1.074-.398-.226-.85-.397-1.022-.91.398-.226.453-.615.453-1.074-.11-5.875-.055-11.75-.055-17.632 0-1.471.11-2.934 1.022-4.179 1.131-1.642 2.832-2.319 4.704-2.599 1.574-.245 3.165-.377 4.758-.397h24.419c2.026-.037 4.048.209 6.007.732z" fill="#DDDEDE"/>
    <path d="M191.596 177.782c-.11.171-.227.451-.281.451-10.595-1.58-21.306-.335-31.962-.684-1.696-.04-3.385.229-4.985.794-.989.381-1.836 1.058-2.424 1.939-.589.88-.889 1.921-.86 2.979-.055 6.1 0 12.208-.055 18.309 0 .622.336 1.129.391 1.813-.453-.171-.851-.342-1.241-.513-.557-.403-1.001-.941-1.289-1.564-.289-.623-.412-1.309-.357-1.993-.055-6.384-.055-12.767 0-19.151 0-2.996 2.263-4.972 5.952-5.424 1.135-.162 2.281-.237 3.428-.225h25.584c1.509-.011 3.013.18 4.471.567 1.591.383 2.949 1.122 3.628 2.702z" fill="#FCFCFC"/>
    <path d="M192.164 200.619c0-6.839.055-13.624.055-20.464-.026-.511-.084-1.02-.171-1.525.624.452.624 1.074.686 1.751v18.426c.046.654-.157 1.301-.57 1.812z" fill="#3B617C"/>
    <path fill-rule="evenodd" clip-rule="evenodd" d="M281.115 143.726c.179.01.372.021.576.043.549-.106 1.066-.338 1.509-.677 22.949-13.109 45.927-26.221 68.935-39.335.167-.091.332-.179.495-.267.547-.292 1.075-.575 1.603-.923.369-.229.642-.585.768-1 .126-.415.097-.861-.082-1.257-.26-.814-.882-.8049-1.54-.7952-.072.001-.144.0021-.216.0021-.748.0995-1.457.3918-2.057.8481-20.722 11.778-41.424 23.571-62.105 35.381-.677.393-1.351.785-2.024 1.176-2.139 1.245-4.262 2.48-6.417 3.687-.971.591-.858 1.436-.751 2.246.006.042.012.085.017.127.088.678.578.705 1.289.744zm71.967-41.662c.434-.209.88-.424.973-.967 0-.281-.055-.506-.343-.616-.429-.224-.761-.011-1.096.203-.104.067-.209.133-.317.187l-70.21 40.018c-.132.073-.294.14-.462.209-.631.261-1.356.561-.95 1.317.472.91 1.08.428 1.619.001.166-.131.325-.258.472-.336 18.437-10.511 36.891-21.025 55.365-31.545l14.619-8.303c.105-.059.217-.113.33-.168z" fill="#07254D"/>
    <path fill-rule="evenodd" clip-rule="evenodd" d="M308.076 143.135c.138.003.279.007.42.018.654.09 1.211-.278 1.77-.648.121-.079.241-.159.363-.234 9.312-5.561 18.665-11.162 27.977-16.75 2.489-1.525 4.985-3.05 7.481-4.521.416-.229.728-.608.875-1.059.146-.451.115-.94-.087-1.369-.286-.972-1.218-.82-1.94-.703-.039.007-.078.013-.117.019-.445.114-.867.304-1.248.561-5.189 3.122-10.396 6.232-15.603 9.342-5.822 3.477-11.642 6.953-17.434 10.445-.307.188-.619.375-.934.564-.727.436-1.467.88-2.18 1.358-.905.56-.74 1.518-.569 2.311.139.641.648.653 1.226.666zm-.03-.842c.122.061.26.084.395.067.249-.153.51-.283.782-.39 4.859-2.906 9.718-5.815 14.579-8.725 7.13-4.269 14.264-8.54 21.407-12.806.072-.046.153-.093.238-.141.451-.256.994-.565.613-1.227-.378-.656-.874-.337-1.327-.046-.09.058-.179.115-.264.162-.085.014-.164.052-.227.11-3.475 2.078-6.956 4.156-10.439 6.235-8.269 4.936-16.551 9.88-24.806 14.851-.398.281-.789.561-1.132.848-.06.044-.111.099-.15.162-.039.064-.064.134-.074.208-.01.074-.005.149.014.22.02.072.054.139.101.197.067.119.168.214.29.275z" fill="#08264D"/>
    <path d="M186.439 160.943c0 1.464-.055 2.934.062 4.35.116 1.416-.686 1.977-1.817 2.257-1.406.366-2.854.538-4.307.513h-21.078c-1.207.019-2.41-.133-3.573-.451-.734-1.587-.562-3.222-.226-4.788.226-1.074 1.138-1.58 2.153-1.86 1.506-.357 3.046-.548 4.594-.568h20.908c1.123-.101 2.254.087 3.284.547z" fill="#1EBD53"/>
    <path d="M186.439 160.943c-.96.335-1.927-.062-2.942 0-7.255.055-14.509 0-21.819 0-1.469-.004-2.933.166-4.361.506-.495.065-.944.321-1.251.712-.308.391-.45.887-.395 1.381.055 1.368 0 2.736-.055 4.07-1.927-.288-2.324-.739-2.324-2.661 0-1.409.054-2.825 0-4.234-.062-.523.08-1.049.396-1.471.317-.421.784-.705 1.304-.793 1.27-.362 2.588-.533 3.909-.506h21.943c1.28-.022 2.558.13 3.798.452 1.29.451 1.968 1.183 1.797 2.544z" fill="#FBFCFC"/>
    <path d="M127.399 159.808c0 2.264.055 4.521-.117 6.784-.055 1.02-1.186 1.3-2.057 1.471-1.892.326-3.806.513-5.726.561-10.971.061-21.9426.061-32.914 0-1.8811-.048-3.756-.235-5.6092-.561-.3508-1.656-.3903-3.363-.1165-5.034.1165-1.183 1.1383-1.635 2.2148-1.922 2.0143-.522 4.0905-.769 6.1715-.732 11.0534-.054 22.0454 0 33.0924 0 .856-.009 1.71.066 2.551.226.45.132.929.126 1.376-.015.447-.141.842-.412 1.134-.778z" fill="#20BE55"/>
    <path d="M127.399 159.808c.11 1.19-.288 1.525-1.529 1.368-1.352-.188-2.716-.263-4.08-.226H89.3213c-1.9797-.013-3.9556.175-5.8971.561-1.9269.396-2.208.793-2.2629 2.736-.0617 1.299.2263 2.599-.1714 3.898-.3681.018-.7356-.044-1.0776-.181-.342-.137-.6503-.346-.9041-.612-.1612-2.615-.1818-5.236-.0617-7.852.4525-.287.9668-.568 1.4194-.793 1.3028-.507 2.7428-.397 4.0251-.568.0086.014.0206.026.035.034.0145.008.0307.012.0473.012s.0329-.004.0473-.012c.0144-.008.0265-.02.035-.034.3429-.281.7406-.164 1.0766-.164h34.6218c.343 0 .74-.117 1.076.164.062.061.117.061.227 0 1.371.171 2.743.061 4.025.568.679.253 1.419.424 1.817 1.101z" fill="#FDFDFD"/>
    <path d="M121.371 158.002c-3.908 0-7.824.055-11.657.055H85.1795c-.1715 0-.3977-.055-.5623-.055.3908-.506.96-.28 1.4743-.28H120c.425 0 .994-.171 1.371.28zm-36.9801.055c-1.3239.299-2.6701.489-4.0252.567 1.2343-.848 2.6606-.677 4.0252-.567zm41.2451.567c-1.371-.171-2.66-.396-4.018-.567 1.358-.11 2.777-.281 4.018.567z" fill="#285372"/>
</svg>
