<svg width="56" height="56" xmlns="http://www.w3.org/2000/svg">
    <g fill="none" fill-rule="evenodd">
        <path d="M4 8c-.55228475 0-1 .44771525-1 1v43c0 .5522847.44771525 1 1 1h48c.5522847 0 1-.4477153 1-1V9c0-.55228475-.4477153-1-1-1H4z" fill="#FFF"/>
        <path d="M4 8c-.55228475 0-1 .44771525-1 1v43c0 .5522847.44771525 1 1 1h48c.5522847 0 1-.4477153 1-1V9c0-.55228475-.4477153-1-1-1H4zm0-3h48c2.209139 0 4 1.790861 4 4v43c0 2.209139-1.790861 4-4 4H4c-2.209139 0-4-1.790861-4-4V9c0-2.209139 1.790861-4 4-4zm9-5c.5522847 0 1 .44771525 1 1v12c0 .5522847-.4477153 1-1 1s-1-.4477153-1-1V1c0-.55228475.4477153-1 1-1zm15 0c.5522847 0 1 .44771525 1 1v12c0 .5522847-.4477153 1-1 1s-1-.4477153-1-1V1c0-.55228475.4477153-1 1-1zm15 0c.5522847 0 1 .44771525 1 1v12c0 .5522847-.4477153 1-1 1s-1-.4477153-1-1V1c0-.55228475.4477153-1 1-1z" fill="#003459" fill-rule="nonzero"/>
        <path stroke="#003459" stroke-width="3" fill="#39B6ED" d="M1.5 21.5h53v9h-53z"/>
    </g>
</svg>
