<svg viewBox="0 0 80 49" fill="none" xmlns="http://www.w3.org/2000/svg">
    <path d="M.2 47.4c-.331371.4418-.2418278 1.0686.2 1.4.441828.3314 1.06863.2418 1.4-.2L.2 47.4zM79.7071 8.70711c.3905-.39053.3905-1.02369 0-1.41422L73.3431.928932c-.3905-.390524-1.0236-.390524-1.4142 0-.3905.390528-.3905 1.023688 0 1.414218L77.5858 8l-5.6569 5.6569c-.3905.3905-.3905 1.0236 0 1.4142.3906.3905 1.0237.3905 1.4142 0l6.364-6.36399zM1.8 48.6c6.64527-8.8604 18.3997-18.7751 32.3093-26.4751C48.0174 14.4258 63.9739 9 79 9V7c-15.4739 0-31.7674 5.5742-45.8593 13.3751C19.0503 28.1751 7.05473 38.2604.2 47.4l1.6 1.2z" fill="#003459"/>
</svg>
