<svg viewBox="0 0 320 440" fill="none" xmlns="http://www.w3.org/2000/svg">
    <path opacity=".2" fill-rule="evenodd" clip-rule="evenodd" d="M0 285.125h8.8c9.0667 0 26.6667 0 44.5333-43.021C71.2 199.083 88.8 113.042 106.667 138.854c17.866 25.813 35.466 163.479 53.333 154.875 17.867-8.604 35.467-163.479 53.333-197.8957C231.2 61.4167 248.8 147.458 266.667 156.062c17.866 8.605 35.466-60.2287 44.533-94.6453L320 27v413H0V285.125z" fill="#2FBFFD"/>
    <path opacity=".2" fill-rule="evenodd" clip-rule="evenodd" d="M0 172.084l3.33333 44.653C6.66667 261.389 13.3333 350.695 20 359.997c6.6667 8.373 13.3333-63.258 20-133.958 6.6667-71.63 13.3333-143.2603 20-116.283 6.6667 26.978 13.3333 151.633 20 196.286 6.6667 44.653 13.3333 9.303 20 9.303 6.667 0 13.333 35.35 20 53.025 6.667 17.675 13.333 17.675 20-53.025 6.667-71.631 13.333-214.891 20-277.2189 6.667-62.3277 13.333-44.65267 20 26.9776 6.667 71.6303 13.333 196.2853 20 205.5883 6.667 8.372 13.333-98.608 20-89.305 6.667 8.372 13.333 133.958 20 160.005 6.667 26.978 13.333-44.653 20-106.98 6.667-62.328 13.333-116.283 20-151.6333 6.667-35.35 13.333-53.9552 20-44.6526 6.667 9.3026 13.333 44.6526 16.667 62.3279L320 118.129V440H0V172.084z" fill="#2FBFFD"/>
</svg>
