<svg viewBox="0 0 588 588" fill="none" xmlns="http://www.w3.org/2000/svg">
    <path d="M374.837 221.899c3.585 2.048 7.233 4.107 10.87 6.208 11.744 6.838 23.939 12.94 35.42 20.283.705.494 1.527.796 2.384.875.858.079 1.721-.067 2.505-.424 16.463-6.519 32.934-13.014 49.412-19.484.799-.316 1.546-.757 2.292-1.114 0-1.323-1.051-1.344-1.756-1.66-8.522-3.949-17.063-7.87-25.621-11.764-8.831-4.023-17.673-7.993-26.483-12.058-.607-.327-1.278-.517-1.966-.557-.689-.04-1.377.071-2.018.326-14.824 5.672-29.585 11.491-44.051 18.024-.288.087-.541.265-.719.507-.178.243-.273.537-.269.838z" fill="#F2545B"/>
    <path d="M286.282 237.738c.378-1.376 1.64-1.607 2.712-2.101 3.291-1.365 6.613-2.636 9.862-4.086 2.239-.998 2.292-1.638.21-2.983-5.972-3.855-12.006-7.636-18.02-11.439-12.679-7.993-25.379-15.955-38.027-24.012-.655-.454-1.412-.74-2.204-.833-.792-.094-1.594.009-2.337.298-5.446 1.722-10.945 3.277-16.422 4.905 1.051.746 2.103 1.555 3.154 2.237 8.992 5.679 17.974 11.324 26.946 16.933 1.45.892 2.102 1.754 1.734 3.634-.318 1.381-.312 2.816.018 4.194.33 1.378.976 2.66 1.885 3.747 3.297 4.057 7.862 6.89 12.963 8.046 1.703-3.435 3.512-4.097 6.445-2.406.468.227.957.407 1.461.536.683-1.05 1.272-1.712 2.723-.725 2.119 1.637 4.436 2.999 6.897 4.055z" fill="#F5A623"/>
    <path d="M328.179 218.968c-3.017-2.511-6.055-3.719-8.841-5.252-14.614-8.183-29.291-16.229-43.925-24.348-2.366-1.313-4.658-2.731-6.97-4.128-.521-.392-1.124-.659-1.764-.781-.639-.122-1.299-.096-1.927.077-4.415 1.4-8.827 2.836-13.236 4.307-.271.123-.519.29-.736.493-.116.904.557 1.166 1.051 1.481 18.767 11.334 37.565 22.615 56.278 34.033.847.619 1.857.977 2.905 1.029 1.048.052 2.089-.203 2.993-.735 4.479-2.185 9.094-4.002 14.172-6.176z" fill="#20BF55"/>
    <path d="M398.902 191.931c-.189-.746-.715-.924-1.209-1.155-4.815-2.185-9.64-4.36-14.445-6.586-.53-.267-1.115-.406-1.708-.406-.594 0-1.179.139-1.709.406-12.689 5.787-26.073 9.842-38.899 15.262-1.146.493-2.975.64-3.154 1.943-.189 1.481 1.724 1.639 2.765 2.248 2.817 1.607 5.719 3.056 8.547 4.653.738.447 1.575.706 2.437.754.861.047 1.722-.118 2.504-.481 14.362-5.693 28.754-11.302 43.505-15.934.475-.193.933-.429 1.366-.704z" fill="#39B6ED"/>
    <path d="M.0422743 302.441L33.1592 286.076c15.9277-7.867 31.8659-15.703 47.0262-25.02.3806-.202.7781-.371 1.1879-.504 3.2802-2.689 6.7286-5.179 9.462-8.456 1.1177-2.113 1.7228-4.459 1.7663-6.848.6493-10.641 2.4577-21.179 5.3933-31.428 1.3498-5.073 3.7461-9.809 7.0361-13.903 3.29-4.093 7.4-7.454 12.067-9.867 10.942-5.945 21.025-13.348 29.973-22.006 1.893-1.806 3.788-3.609 5.688-5.409 1.861-1.765 2.828-1.912 5.12-.567 2.292 1.344 4.205 2.657 6.392 3.96.494.294 1.146 1.05 1.629.157.389-.683-.252-1.187-.83-1.544-1.756-1.05-3.522-2.185-5.257-3.298-1.051-.63-1.976-1.303-3.154-2.101.904-1.187 2.177-1.218 3.217-1.565 36.222-11.785 72.444-23.553 108.666-35.303 19.352-6.233 38.665-12.5 57.939-18.802 1.003-.373 2.073-.535 3.142-.477 1.068.058 2.114.334 3.071.813 21.223 9.719 42.481 19.372 63.774 28.959 2.523 1.145 2.471 1.05 4.426-1.051 1.956-2.1 3.259-5.094 5.741-5.546 2.302-.43 4.72 1.86 7.117 2.91.4.168.768.399 1.157.609.389.21.609.21.904.347l76.747 35.892c.799.367 1.588.745 2.387 1.05.142.083.31.112.473.081.162-.03.308-.119.41-.249.07-.082.122-.179.152-.283.029-.104.036-.213.019-.32-.017-.107-.057-.209-.118-.299-.06-.09-.139-.166-.232-.222-1.022-.61-2.075-1.168-3.154-1.67l-71.68-33.518c-1.241-.407-2.398-1.033-3.417-1.849-3.29-.903-6.14-2.773-9.241-4.044.063-1.491 1.22-2.1 1.987-2.983 5.572-6.134 11.197-12.216 16.821-18.339.516-.578 1.756-1.271 1.052-1.996-1.052-1.051-1.672.346-2.261.977-5.698 6.165-11.564 12.216-16.968 18.602-2.828 3.309-6.214 6.071-8.842 9.527-1.051 1.313-1.997 1.229-3.364.609-20.753-9.46-41.514-18.914-62.281-28.36l-35.514-15.9031c-.946-.4306-1.893-1.0504-3.259.2416l30.972 14.1175-.074.767-116.424 37.813c2.67-6.197 2.923-12.363 2.639-18.539-.089-5.522-2.321-10.794-6.224-14.705-2.849-2.805-5.152-2.689-7.202.693-2.828 4.674-6.423 8.792-9.304 13.403-2.027 3.246-4.505 6.189-7.359 8.739-2.587 2.332-5.005 4.863-7.454 7.353-3.309 3.324-6.905 6.35-10.745 9.044-4.962 3.497-9.073 7.846-11.312 13.655-.41.886-1.005 1.674-1.746 2.311-10.679 10.949-22.902 20.28-36.281 27.698-11.323 6.187-17.1893 16.355-19.8492 28.56-2.1026 9.569-3.9214 19.18-4.3945 28.991-.0657.646-.1675 1.288-.3049 1.922-.3293 1.244-1.0209 2.363-1.987 3.214-3.2541 3.596-7.1285 6.577-11.4385 8.803-7.7463 4.882-15.7556 9.336-23.9915 13.339-17.6308 8.845-35.3562 17.5-53.05015586 26.26l.04203016 1.922zM156.691 156.438c2.173-3.705 5.169-6.86 8.757-9.223 3.768-2.609 7.288-5.559 10.514-8.813 2.691-2.71 5.351-5.441 8.158-8.025 2.605-2.324 4.864-5.008 6.708-7.972 2.912-4.863 6.917-8.97 9.546-14.023.107-.188.233-.364.378-.525 1.451-1.796 2.313-1.88 4.079-.483 1.596 1.33 2.86 3.013 3.69 4.916 3.691 7.846 2.955 15.85.715 23.865-.406 1.005-.91 1.969-1.503 2.878-.365.66-.864 1.236-1.465 1.692-.601.456-1.291.781-2.025.955-14.856 4.768-29.68 9.611-44.524 14.4-.457.256-.959.419-1.479.481-.519.061-1.046.019-1.549-.123zM333.062 588c-.231-.746.315-1.208.662-1.723 19.46-29.516 38.405-59.378 58.875-88.232 2.744-3.876 5.593-7.7 8.41-11.555 1.947-2.605 4.292-4.888 6.95-6.764 1.557-1.182 3.422-1.893 5.372-2.048 4.679-.294 7.822-2.815 9.641-7.059.403-.884.731-1.801.978-2.741 2.996-12.92 10.513-22.836 20.774-30.819 6.613-5.126 14.004-8.991 21.521-12.604 5.845-2.815 11.68-5.641 17.473-8.561 2.599-1.111 4.905-2.808 6.739-4.958 1.051-1.407 2.828-1.943 4.415-2.626 5.373-2.3 10.955-4.044 16.506-5.851 6.571-2.153 13.1-4.464 19.734-6.417 3.848-1.124 5.667-3.698 6.539-7.28.879-3.909 1.233-7.918 1.052-11.921-.106-4.108-.421-8.215-.663-12.311 0-.536-.105-1.197-.82-1.124-.715.074-.83.609-.799 1.208.095 1.397.221 2.805.305 4.202.347 6.05.683 12.09-.305 18.119-.662 4.117-2.586 6.701-6.855 7.983-9.63 2.878-19.134 6.176-28.669 9.369-2.566.851-5.047 1.922-7.549 2.962-1.94.706-3.647 1.935-4.931 3.551-1.249 1.355-2.772 2.429-4.468 3.151-5.614 3.035-11.386 5.766-17.158 8.466-7.948 3.718-15.77 7.762-22.719 13.119-10.713 8.193-18.43 18.445-21.636 31.774-1.262 5.252-4.311 8.645-10.093 8.876-1.953.199-3.804.97-5.32 2.216-2.904 2.092-5.465 4.622-7.591 7.5-12.826 17.164-24.695 34.978-36.491 52.845-10.184 15.406-20.323 30.868-30.415 46.385-.568.872-1.514 1.597-1.399 2.815l1.935.053zM331.81 420.705c-8.169 11.365-17.757 21.491-27.576 31.396-19.975 20.136-40.75 39.347-61.566 58.559-21.206 19.579-42.369 39.221-62.912 59.504-5.078 5.011-9.977 10.2-14.929 15.336-.736.756-1.671 1.376-1.934 2.5h2.597c-.431-1.25.767-1.618 1.335-2.227 10.587-11.438 21.878-22.184 33.127-32.95 24.233-23.193 49.171-45.64 73.593-68.654 16.685-15.756 33.317-31.511 48.572-48.706 3.865-4.226 7.381-8.757 10.513-13.55-.241-.42-.241-1.051-.82-1.208zM.0420313 436.744C9.08349 428.593 18.1249 420.446 27.1664 412.302c25.9364-23.245 51.7887-46.585 78.4186-69.042 8.185-7.073 16.775-13.663 25.726-19.737.442-.294 1.052-.462 1.052-1.229-1.504-1.05-2.502.221-3.533.914-6.18 4.159-12.145 8.629-17.872 13.392-24.181 20.073-47.6468 41.039-71.0704 62.026L1.36672 433.162c-.399506.347-.672883.935-1.3457359.862l.0210472 2.72z" fill="#2D5776"/>
    <path d="M559.614 195.081c-.253.41-4.858-2.279-5.257-2.436-.904-.337-1.798-.715-2.681-1.135-6.308-2.973-12.69-5.977-19.061-8.918-.956-.451-2.029-1.428-3.353.21l32.707 15.378c-3.683 1.673-7.448 3.16-11.281 4.454-.736.598-1.661.325-2.481.514-.4 1.051-1.472 1.051-2.313 1.429l-86.851 34.348c-23.213 9.18-46.427 18.357-69.64 27.53-.915.357-2.755.494-2.292 1.723.631 1.67 2.04.189 2.944-.168 15.419-6.008 30.807-12.066 46.164-18.172l116.382-45.996 9.704-3.876v11.018c.105 8.267.2 16.544.326 24.821 0 1.113-.389 2.458 1.251 2.899.767-1.05.484-2.3.473-3.466-.098-10.7-.207-21.404-.326-32.111-.121-.748-.121-1.51 0-2.258.978-2.878-.568-4.485-2.534-6.302-38.822-35.405-77.612-70.884-116.372-106.436-2.204-2.0309-4.758-3.6465-7.538-4.7688-66.507-27.0159-132.993-54.0844-199.458-81.20537-1.336-.5462-2.976-.5252-3.932-1.922211-.295-.420155-.81-.2100765-1.125.115543-.446.47157-.867.965918-1.262 1.481048L200.983 40.3384c-.643.5823-1.113 1.3312-1.356 2.1638l32.591 14.8315c11.123 5.0558 22.243 10.1222 33.359 15.1991.778.3571 1.577.6932 2.376 1.0503.305.1261.652.1786.862-.1785.122-.1803.169-.4013.13-.6155-.04-.2142-.162-.4043-.34-.5294-.841-.4937-1.735-.8824-2.618-1.292-20.172-9.1804-40.343-18.3678-60.515-27.5622-3.616-1.6491-3.911-1.2184-1.104-4.7372 8.979-11.2602 17.947-22.5133 26.904-33.75946.852-1.05039 2.292-1.56507 2.66-3.2562 1.112 1.01627 2.443 1.76376 3.89 2.18481C304.511 30.9935 371.204 58.1355 437.901 85.2634c1.914.7411 3.669 1.839 5.172 3.2352M569.517 246.361c-6.171 1.282-11.975 3.666-17.81 5.956-16.201 6.366-32.381 12.815-48.582 19.18-3.311 1.303-6.728 2.353-10.071 3.624-5.636 2.101-11.66 2.174-17.495 3.277-14.445 2.731-29.006 4.958-43.104 9.128-13.446 3.828-26.18 9.817-37.701 17.731-.799.556-2.555 1.05-1.766 2.226.788 1.177 1.829-.357 2.555-.85 16.39-11.355 34.694-17.857 54.143-21.638 12.406-2.437 24.791-5.063 37.375-6.565 3.333-.399 6.476-1.723 9.641-2.826 16.821-5.892 33.222-13.014 49.833-19.505 6.245-2.437 12.458-4.937 18.84-6.986 4.867-1.554 9.767-1.785 14.582.305 1.76.522 3.39 1.41 4.783 2.605 1.977 1.681 2.156 3.235.715 5.357-1.14 1.581-2.566 2.935-4.205 3.991-6.497 4.412-13.016 8.771-19.523 13.162-2.343 1.707-4.842 3.188-7.465 4.422-13.457 6.029-26.935 12.02-40.434 17.972l-22.93 10.168c-1.167 1.05-2.681 1.281-4.026 1.901-.862.399-1.462.882-1.209 1.943 11.039-1.712 21.436-5.588 31.887-9.327l5.172-1.88c11.565-5.473 22.078-12.605 32.844-19.275.847-.67 1.848-1.117 2.912-1.302 2.103-1.229 4.384-2.322 5.761-4.517.757-1.208 2.219-1.229 3.27-1.964 4.962-3.446 9.998-6.786 14.95-10.242 1.232-.874 2.361-1.885 3.364-3.014 3.249-3.603 2.86-6.796-1.156-9.454-3.915-2.559-8.518-3.863-13.195-3.739-.662.021-1.314.094-1.955.136zm-26.63 39.915c0-.388 0-.588.452-.304l-.505.262c-.168.557-.662.672-1.135.809-.751.816-1.705 1.418-2.765 1.744-12.101 8.119-25.506 13.171-39.709 17.31.146-.439.404-.833.749-1.142.345-.31.764-.524 1.217-.623 3.154-1.397 6.308-2.762 9.462-4.201l27.513-12.069c.915-.732 2-1.22 3.154-1.418.201-.201.454-.342.731-.407.277-.065.566-.052.836.039zm-45.208 19.726c.187-.082.381-.148.579-.199.073 0 .157.105.242.168-.127.105-.253.284-.379.284s-.273-.158-.42-.253h-.022zM331.033 373.185c-.209 10.494 1.122 20.963 3.953 31.071 1.43 4.863 3.07 9.674 4.626 14.505.155.516.381 1.008.673 1.46.105.106.236.183.379.226.143.042.295.047.441.016.124-.08.225-.191.293-.321.068-.131.101-.277.096-.425-.223-1.066-.507-2.118-.852-3.151-2.702-7.983-5.393-15.976-6.602-24.348-.631-4.38-1.377-8.76-.999-13.214-.883-6.649.074-13.14 1.661-19.579 1.226-4.814 3.168-9.417 5.762-13.655 1.629-2.678 3.153-5.43 4.51-8.245 1.756-3.717 2.96-7.669 3.574-11.733-.073-.526-.189-1.051-.221-1.586-.483-10-1.524-19.958-2.849-29.873-.736-5.536-1.661-11.05-2.502-16.575-1.524-6.712-3.711-13.267-4.899-20.063-.969-2.391-1.404-4.965-1.272-7.542-.066-1.358.342-2.697 1.155-3.787.814-1.091 1.981-1.864 3.303-2.189 3.574-1.051 7.191-1.208 10.66.546.257-.032.518.008.754.115.236.108.437.279.581.494v-.063c.317.063.624.166.915.305 9.052 5.619 14.719 13.791 17.757 23.864.068.421.068.85 0 1.271 1.629 2.763 1.976 5.925 2.681 8.96 1.716 8.04 2.795 16.202 3.227 24.411.179 2.689.347 5.378.526 8.067.589 4.307 1.174 8.613 1.756 12.92.515.693.305 2.542 2.05 1.313-2.103-10.599-2.523-21.386-3.512-32.1-.252-2.773-1.156-5.483-.788-8.308-.747-.631-.589-1.46-.505-2.269l-3.374-14.202c-.596-.892-1.014-1.89-1.231-2.941-2.721-7.878-7.656-14.806-14.214-19.957-3.826-3.214-8.668-4.971-13.667-4.958-.391.163-.796.293-1.209.389-6.655.882-9.462 4.548-8.411 11.144.064.431.179.851.274 1.271.736 3.351 1.461 6.691 2.197 10.042.29.307.503.679.622 1.084.118.405.14.833.061 1.248v-.063c1.598 3.004 1.672 6.407 2.461 9.611 1.802 7.783 3.077 15.679 3.816 23.634.862 8.056 1.861 16.092 2.103 24.159.153 2.266-.144 4.54-.873 6.691-1.145 4.062-2.896 7.929-5.194 11.47-5.943 9.231-9.292 19.891-9.693 30.86zM551.686 313.114c-2.103 4.201-5.52 7.142-9.042 9.989-4.365 3.36-9 6.357-13.856 8.96-6.575 3.718-13.135 7.464-19.681 11.239-2.513 1.479-4.907 3.15-7.16 5-.494.399-1.114.892-.484 1.565.474.504 1.052 0 1.43-.263 2.73-2.12 5.599-4.054 8.59-5.788 5.256-2.983 10.439-6.092 15.77-8.98 7.365-3.858 14.292-8.499 20.658-13.844 3.734-3.89 6.399-8.677 7.738-13.897.816-2.669 1.785-5.289 2.902-7.847.126-.798.157-1.649 1.209-2.1 0 .819.157 1.533-.484 2.1-1.451 8.488-2.965 16.964-5.078 25.315-1.363 5.767-3.425 11.348-6.14 16.617-1.64 3.057-3.448 6.071-6.308 8.098-4.037 2.878-7.916 5.935-11.838 8.95-8.21 8.14-15.454 17.121-22.603 26.175-.589.767-1.146 1.555-1.682 2.364-.045.068-.075.144-.09.224-.014.08-.013.162.005.241.018.079.051.154.098.22.047.067.107.123.176.166.122.106.279.165.441.165.163 0 .32-.059.442-.165.599-.62 1.167-1.261 1.714-1.923 4.363-5.409 8.673-10.808 13.089-16.102 2.662-3.256 5.592-6.284 8.757-9.054 2.685-2.964 5.783-5.525 9.2-7.605 4.617-3.064 8.301-7.337 10.65-12.353 3.186-6.744 5.51-13.862 6.917-21.186 1.63-7.71 3.049-15.472 4.553-23.203.074-.205.109-.423.105-.641-.799-3.676 1.314-6.533 2.66-9.611.168-.399.389-.777.557-1.176.263-.62.462-1.334-.358-1.628-.82-.295-.841.441-1.051.913-.82 1.755-1.682 3.498-2.481 5.252-3.171 6.746-5.873 13.702-8.085 20.819-.358 1.02-.772 2.019-1.24 2.994zM176.928 253.956c7.107 4.496 14.224 8.96 21.3 13.497 7.528 4.843 15.002 9.759 22.509 14.643 6.539 4.201 13.1 8.308 19.628 12.499l79.702 51.165c.809.525 1.65 1.05 2.502 1.481.071.042.15.067.232.074.082.007.164-.005.241-.034.077-.029.146-.076.202-.135.057-.06.099-.132.124-.21.074-.273.084-.746-.074-.872-.768-.599-1.568-1.156-2.397-1.67l-140.563-90.217c-.766-.598-1.607-1.093-2.502-1.471-1.009-.326-1.388.263-.904 1.25zM130.501 312.588c-.778 2.101 1.146 1.334 1.903 1.807 2.158-.118 4.322-.093 6.476.073 11.355.452 22.678.872 34.053.567 14.391-.252 28.305-5.194 39.625-14.075 2.102-1.649 4.205-3.34 6.308-5.042.315-.252.599-.714.105-1.05-.129-.085-.275-.14-.428-.161-.152-.022-.308-.01-.455.035-.634.403-1.245.841-1.83 1.313-2.249 1.691-4.478 3.403-6.739 5.073-10.944 8.151-23.308 11.975-36.901 12.321-11.376.305-22.72-.063-34.063-.64-2.65-.137-5.362-.137-8.054-.221zM158.109 242.296c.136 7.353-1.945 14.265-5.142 20.85-1.219 2.521-2.491 5.011-3.742 7.511 3.564-2.857 5.498-6.817 7.296-10.84 2.166-4.801 2.797-9.947 3.154-15.136-.704-1.881-.452-3.845-.4-5.746.474-19.422.358-38.864.516-58.265 0-.756.473-2.101-.684-2.101-1.156 0-.799 1.25-.809 1.996-.211 19.642-.368 39.274-.578 58.916-.016.953.115 1.902.389 2.815zM268.752 236.278c-5.101-1.156-9.666-3.989-12.963-8.046-.909-1.087-1.554-2.37-1.885-3.747-.33-1.378-.336-2.814-.017-4.194.357-1.88-.284-2.742-1.735-3.634-9-5.602-17.978-11.233-26.935-16.891-1.052-.682-2.103-1.491-3.154-2.237-6.245-3.445-12.112-7.5-18.178-11.229-4.205-2.594-8.411-5.252-12.616-7.909-1.051-.63-2.018-1.681-3.448-.903 0 1.229 1.051 1.428 1.692 1.848 10.346 6.471 20.698 12.931 31.057 19.38 7.226 4.531 14.424 9.082 21.594 13.655.904.578 2.029.819 2.692 1.744l.935.703.158-.084.116.137c.378.199.746.41 1.135.588 3.312 1.534 5.477 3.561 5.046 7.773-.273 2.689 1.315 5.126 3.207 7.132.81.851 1.63 1.681 2.45 2.532h-.116c.102-.039.215-.042.32-.01.104.032.195.099.258.188 2.103 1.25 4.205 2.542 6.413 3.729 1.447.726 2.975 1.276 4.553 1.639 1.251.353 2.571.382 3.837.085 1.265-.298 2.434-.913 3.396-1.787 2.102-1.712 2.165-1.649 4.436-.21 6.193 3.918 12.364 7.899 18.577 11.796 9.869 6.197 19.751 12.37 29.648 18.518 1.135-1.197.347-1.702-.704-2.353-4.49-2.731-8.958-5.504-13.363-8.403-2.428-1.565-5.067-2.825-7.191-4.832-4.594-2.29-8.768-5.252-13.11-7.993-2.891-1.796-5.951-3.361-8.547-5.609-2.461-1.056-4.778-2.418-6.897-4.055-1.451-.987-2.04-.357-2.723.725-2.25 2.353-4.742 3.666-7.938 1.954z" fill="#2D5776"/>
    <path d="M5.05719 420.579c1.36673.22 2.17625-.641 3.0804-1.46 7.01241-6.387 13.99321-12.826 21.12121-19.086 5.7543-5.042 11.4806-10.119 17.1788-15.23 6.308-5.683 12.9524-11.051 19.2183-16.807 4.7731-4.369 9.6618-8.613 14.519-12.888 4.4576-3.918 8.1478-8.697 13.1416-11.985 9.8195-6.47 18.1675-14.831 27.9335-21.365 2.765-1.884 5.648-3.589 8.632-5.105 1.051-.514 2.323-.808 2.523-2.268-.757-.473-2.681.283-1.903-1.807-.378-1.05-1.272-.998-2.103-1.05-1.137.081-2.28.004-3.395-.232.115-1.281.914-1.05 1.482-1.05 4.289.189 8.6-.399 12.9.504 1.932.239 3.884.278 5.824.116 7.444 0 14.908.189 22.352 0 8.967-.273 17.799-1.555 25.883-5.809 5.708-3.033 11.115-6.599 16.149-10.651 3.616-2.878 7.002-6.029 10.671-8.834 1.566-1.197.336-2.331.515-3.466-7.506-4.884-14.981-9.8-22.509-14.642-7.075-4.538-14.193-9.002-21.3-13.498-2.407-.084-4.1-1.701-5.993-2.846-3.017-1.828-5.982-3.75-8.915-5.704-.691-.507-1.542-.75-2.397-.683-.305 5.189-.936 10.336-3.154 15.137-1.798 4.022-3.732 7.982-7.296 10.839.049.122.072.253.068.384-.005.131-.037.259-.094.377-.058.118-.139.223-.24.307-.101.084-.218.146-.344.182-.008.162-.075.316-.19.43-.115.115-.268.182-.43.19l.073.683c3.365 0 6.55-1.156 9.872-1.565 4.469-.557 8.821-1.219 13.436-.62 5.018.589 9.989 1.526 14.877 2.805 3.311.892 5.908 3.025 8.337 5.357.239.213.416.486.512.791.096.305.108.63.035.942-.785 4.46-2.201 8.785-4.206 12.846-.925 1.891-2.407 2.332-4.279 2.101-12.721-1.418-25.495-.736-38.226-.515-9.988.179-19.975 1.313-29.437 4.916-.827.248-1.63.572-2.397.966-2.713 1.597-3.459 3.099-2.66 6.187.119.267.182.555.183.848.002.292-.058.581-.175.849-.116.268-.288.508-.503.706-.215.198-.469.349-.746.444-11.975 6.701-23.4867 14.117-34.8831 21.732-12.3742 8.256-24.5907 16.806-36.7967 25.272-9.7143 6.775-20.0804 12.605-30.2258 18.781-1.78722 1.051-3.23807 2.973-5.65613 2.868l-.06308 41.606zM522.702 299.731c1.178 1.397 1.167 3.151 1.535 4.801.61 2.752.378 5.577 1.051 8.308.163.69.119 1.412-.126 2.077s-.68 1.243-1.251 1.663c-3.333 2.899-6.813 5.661-9.872 8.833-4.205 4.38-9.893 6.933-14.151 11.26-1.46 1.288-2.737 2.768-3.795 4.402-2.103 3.697-5.761 5.399-9.136 7.478-3.585 2.217-7.139 4.475-10.797 6.544-2.184 1.169-4.438 2.201-6.75 3.088-1.587.652-2.87 1.681-4.678 2.595.436.351.956.582 1.51.671.553.088 1.119.031 1.644-.167 4.342-1.292 8.862-1.702 13.267-2.689.316-.063.726-.315.926-.2 3.048 1.702 6.739 1.051 9.809 2.889 1.671.977 3.153 1.996 3.879 3.697 1.672 4.202 2.544 8.403-.221 12.605-.418.754-.986 1.414-1.67 1.94-.683.526-1.467.906-2.304 1.117-6.592 1.407-12.048 5.147-17.62 8.602-2.923 1.817-6.193 2.983-9.021 5.105 6.182-.409 12.406-.231 18.809-2.395-.862 2.49-1.535 4.401-2.198 6.303-.365.908-1.07 1.639-1.966 2.037-6.379 3.623-12.473 7.724-18.23 12.269-1.722 1.314-3.623 2.375-5.645 3.151-9.303 3.634-17.565 9.504-24.055 17.09-4.268 4.979-9.252 9.338-12.721 15.031-.673 1.194-1.659 2.183-2.852 2.86-1.192.678-2.547 1.018-3.919.984-4.646-.168-8.347 2.028-11.817 4.622-2.481 1.859-5.004 3.76-6.665 6.523-.725 1.187-1.545 2.279-3.364 1.491-.747-.325-1.64.41-2.282.977-.799.574-1.49 1.285-2.039 2.101-2.608 4.884-7.36 7.426-11.376 10.798-4.576 3.964-8.637 8.484-12.09 13.456-.757 1.046-1.598 2.029-2.513 2.941l-13.793 13.749c-5.593 5.557-10.608 11.617-15.77 17.542-4.468 5.115-8.579 10.504-13.194 15.514-3.228 3.487-6.729 6.722-9.809 10.336-4.973 5.808-10.366 11.249-15.371 17.047-3.795 4.402-7.496 8.887-11.217 13.361-.736.883-1.336 1.881-2.04 2.889.947.429 2.001.568 3.028.399 13.205 0 26.409-.084 39.603.095 1.113.091 2.227-.141 3.211-.668.983-.528 1.792-1.328 2.33-2.305 7.475-11.859 15.371-23.445 22.982-35.219 6.907-10.693 14.277-21.092 21.027-31.88 7.159-11.438 15.612-21.921 23.392-32.898 2.075-2.924 4.739-5.382 7.822-7.216 1.239-.879 2.691-1.412 4.205-1.544 6.15-.189 9-3.424 10.345-8.939 1.809-7.119 5.027-13.805 9.462-19.663 5.057-6.922 11.565-12.09 18.735-16.575 9.094-5.683 19.019-9.716 28.533-14.58 3.922-2.006 7.885-3.949 10.966-7.352 1.524-1.681 3.847-2.301 5.971-3.151 10.587-4.065 21.489-7.175 32.223-10.788 6.235-2.101 8.222-4.412 8.495-10.955.242-5.715.095-11.46 0-17.185-.145-1.391-.42-2.766-.82-4.107-3.189 2.781-6.139 5.824-8.82 9.097-4.437 5.252-8.748 10.692-13.121 16.039-.547.662-1.115 1.302-1.714 1.922-.122.107-.279.165-.441.165-.163 0-.319-.058-.442-.165-.069-.043-.129-.099-.176-.165-.047-.066-.08-.141-.098-.22-.017-.08-.019-.162-.004-.242.014-.079.044-.156.089-.224.536-.808 1.051-1.596 1.682-2.363 7.149-9.054 14.393-18.035 22.604-26.176.063-.646.063-1.297 0-1.943-.789-4.117 1.051-6.764 4.583-8.634 2.032-1.237 3.743-2.936 4.994-4.958 3.44-5.097 6.052-10.705 7.738-16.617.494-1.586 1.262-3.256.683-5.042-6.365 5.353-13.292 10.001-20.658 13.865-5.257 2.889-10.514 5.998-15.77 8.981-2.991 1.734-5.86 3.667-8.59 5.788-.41.315-.956.766-1.429.262-.631-.672 0-1.166.483-1.565 2.254-1.849 4.647-3.521 7.16-5 6.553-3.76 13.113-7.506 19.681-11.239 4.856-2.602 9.491-5.599 13.856-8.96 3.522-2.846 6.971-5.808 9.042-9.989-.925-.483-.967-1.187-.768-2.164.957-4.59 1.809-9.201 2.713-13.802.178-.934.515-1.617-.705-2.384-.851-.525-.263-1.943.137-2.962 1.241-3.204 2.797-6.302 4.331-9.328.669-.979 1.035-2.133 1.052-3.319-1.064.185-2.065.633-2.912 1.303-10.766 6.659-21.29 13.802-32.802 19.274zM569.518 246.362c-.441-1.229-1.514-1.051-2.428-.988-1.724.095-2.103-.756-2.187-2.311-.084-1.554.778-3.256-1.051-4.359-1.64-.441-1.241-1.785-1.251-2.899-.127-8.277-.221-16.554-.326-24.82-1.625-.151-3.255.217-4.658 1.05-2.268 1.248-4.597 2.381-6.981 3.393-10.881 4.401-21.962 8.287-32.791 12.835-10.618 4.454-21.457 8.404-32.139 12.71-4.373 1.775-8.968 3.057-13.026 5.567-.221.662-.746.777-1.346.798-1.412 1.168-3.041 2.046-4.794 2.584-6.308 2.574-12.616 4.979-18.924 7.689-15.023 6.555-30.488 12.143-45.627 18.319-7.591 3.078-15.245 5.998-22.888 8.981-.61.241-1.251.378-1.419 1.134-.368 2.826.536 5.536.788 8.309.989 10.714 1.388 21.501 3.512 32.1.841 1.859 2.765 2.3 4.31 3.151.82.462 1.588 0 1.829-1.145 1.62-7.71 6.161-13.246 12.543-17.699 9.903-6.891 21.121-10.672 32.297-14.706 5.929-2.1 12.164-3.56 17.704-6.817 1.659-.813 3.431-1.372 5.257-1.659 10.702-2.395 21.447-4.643 32.129-7.132 11.953-2.794 23.686-6.439 35.524-9.674 6.573-1.693 13.016-3.852 19.282-6.46 2.796-1.208 3.553-.494 3.868 2.51.121 1.074-.066 2.161-.538 3.133-.473.973-1.212 1.791-2.132 2.361-5.719 4.201-11.291 8.623-17.368 12.373-4.437 2.752-8.821 5.756-12.143 9.968-.557.715-1.051 1.355-.83 2.311 13.492-5.973 26.97-11.964 40.434-17.972 2.623-1.234 5.122-2.715 7.464-4.422-.019-.867.141-1.729.47-2.531.329-.803.821-1.529 1.444-2.133 3.574-3.571 7.002-7.268 10.839-10.588 2.87-2.5 6.308-5.136 5.456-9.863-4.815-2.101-9.714-1.859-14.582-.304-6.381 2.048-12.616 4.548-18.839 6.985-16.611 6.491-32.981 13.655-49.834 19.505-3.154 1.103-6.308 2.427-9.64 2.826-12.616 1.502-24.969 4.128-37.375 6.565-19.397 3.813-37.754 10.283-54.144 21.638-.725.493-1.692 2.101-2.555.851-.862-1.25.968-1.671 1.767-2.227 11.521-7.914 24.254-13.902 37.701-17.731 14.14-4.201 28.701-6.397 43.104-9.128 5.835-1.103 11.859-1.145 17.494-3.277 3.344-1.271 6.76-2.321 10.072-3.624 16.201-6.365 32.381-12.814 48.582-19.18 5.972-2.332 11.775-4.716 17.946-5.997zM418.147 128.56c1.005.816 2.153 1.439 3.385 1.839 23.648 11.113 47.303 22.219 70.965 33.318 1.051.504 2.103 1.05 3.154 1.67.092.055.172.13.232.219.06.089.1.19.118.296.017.106.01.215-.019.318-.03.104-.082.199-.152.28-.101.13-.245.217-.406.247-.161.029-.328-.003-.467-.089-.799-.326-1.577-.704-2.355-1.05l-75.938-35.714c-.294-.136-.609-.231-.904-.346-.378 2.248-2.418 3.224-3.69 4.779-1.272 1.555-1.167 1.922.431 2.678 7.359 3.456 14.603 6.975 22.004 10.231 4.353 1.922 8.569 4.086 12.9 6.04 9.746 4.391 19.324 9.149 28.986 13.718 11.017 5.21 22.053 10.395 33.106 15.556 6.602 3.137 13.236 6.247 19.902 9.328l16.747 7.752c1.713.652 3.263 1.67 4.542 2.983 3.833-1.287 7.598-2.767 11.281-4.433l-32.717-15.388c1.324-1.639 2.397-.662 3.353-.21 6.371 2.941 12.711 5.945 19.061 8.918.883.42 1.777.798 2.681 1.134.198.09.422.105.63.044.209-.062.388-.197.505-.38.12-.182.168-.402.135-.617-.033-.216-.145-.411-.313-.549-1.125-1.05-2.261-1.975-3.396-2.962-.527.123-1.074.122-1.6-.004s-1.015-.373-1.428-.721c-4.069-3.708-8.852-6.481-13.194-9.832-5.961-4.611-11.807-9.348-17.494-14.285-7.486-6.481-15.224-12.657-23.256-18.455-2.252-1.661-4.404-3.453-6.445-5.368-6.655-6.113-13.204-12.363-20.08-18.245-2.776-2.384-5.257-5.073-8.074-7.458-4.206-3.644-8.169-7.667-12.301-11.459-1.493-1.387-3.154-2.5527-4.868-3.8867-4.205 5.3677-7.958 10.9027-12.71 15.7557-3.901 3.981-7.759 8.078-11.323 12.395-.574.495-.929 1.198-.988 1.953zM331.812 420.704c.578.2.578.788.809 1.208 3.291 1.943 5.068 6.397 4.206 10.599-.255.708-.397 1.453-.421 2.205.137 1.503 1.84 2.584 3.049 1.713 4.363-3.152 9.599-5.011 13.236-9.17 4.405-5.032 8.737-10.126 11.565-16.281 1.198-2.616 1.84-5.252.946-8.141-.189-.717-.549-1.378-1.049-1.926-.5-.549-1.124-.969-1.821-1.225-5.703-2.327-11.109-5.32-16.107-8.918-4.133-2.946-7.862-6.421-11.091-10.336-.568-.714-1.051-1.365-2.029-1.365-.379 4.454.368 8.834.999 13.214 1.209 8.403 3.9 16.365 6.602 24.348.344 1.033.629 2.085.852 3.151.005.147-.028.293-.096.424-.069.131-.169.242-.293.322-.146.031-.298.025-.441-.017-.143-.042-.274-.119-.379-.225-.316-.469-.56-.982-.726-1.523-1.556-4.832-3.154-9.642-4.626-14.506-2.83-10.108-4.162-20.576-3.953-31.07-.746-.084-1.051-.504-1.23-1.24-.662-2.815-1.398-5.598-2.292-9.128-.977 6.097-1.14 12.296-.483 18.435.507 5.772 1.441 11.498 2.796 17.132 1.146 4.716 2.681 9.317 4.269 13.886.661 1.861 1.102 3.792 1.314 5.756-1.977-1.691-1.63-3.992-2.797-5.494-3.406 2.49-3.501 3.015-1.367 6.67.238.48.425.984.558 1.502zM390.917 385.622c3.943-4.531 7.273-9.56 9.904-14.958 2.42-4.447 5.318-8.617 8.642-12.436 2.902-3.467 5.761-6.975 8.884-10.252 2.102-2.227 1.493-4.076-1.493-4.916-.612-.212-1.256-.319-1.903-.315-4.542.347-9.052-.368-13.531-.809-3.774-.367-7.517-.494-11.281-.515-1.366 0-1.987.4-1.566 1.954 2.008 7.437 2.26 15.063 2.323 22.71 0 3.214.883 6.386.642 9.642-.179 2.574.21 5.168-.589 7.71-.116.723-.127 1.459-.032 2.185zM342.977 277.768c.841 5.525 1.766 11.039 2.502 16.575 1.324 9.915 2.365 19.873 2.849 29.873 0 .535.147 1.05.221 1.586.423-.042.838-.149 1.23-.315.465-.267.873-.624 1.198-1.051 2.166-3.056 6.708-4.359 6.76-8.97.15-3.865-.082-7.735-.694-11.554-1.756-8.917-5.733-17.247-11.564-24.222-.6-.872-1.283-1.807-2.502-1.922z" fill="#DFDFDF"/>
    <path d="M485.642 310.939c-.252-1.051.347-1.544 1.209-1.943 1.346-.62 2.86-.893 4.027-1.902.082-1.57-.136-3.142-.641-4.632-2.69-.157-5.382.247-7.906 1.187-4.536 1.666-9.158 3.086-13.846 4.254-3.506.77-6.661 2.671-8.979 5.41-.645.722-1.167 1.545-1.545 2.437-1.052 2.615-.179 4.327 2.66 4.779 2.934.589 5.958.567 8.883-.063 1.682-.388 3.259-1.133 4.626-2.185 2.849-2.258 5.909-4.275 8.842-6.439.358-.328.78-.577 1.24-.733.46-.155.947-.213 1.43-.17zM81.3199 259.88c4.2699-2.209 8.1057-5.169 11.3228-8.739.9577-.851 1.6418-1.966 1.966-3.204-2.1026-.315-1.9449-2.962-3.9109-3.739-2.765 6.953-8.6525 10.819-14.8343 14.757 1.8819 1.198 3.8058.358 5.4564.925zM158.11 242.296c-1.173-.247-2.261-.798-3.154-1.597-1.178-.798-1.661 0-2.334.82-1.092-5.622-1.156-11.394-.189-17.038.047-.538.047-1.079 0-1.617v-43.14c0-.914.336-1.922-.368-2.699-.326-.137-.61-.084-.61.126.084 3.981-2.366 6.775-4.489 9.737-1.828 2.8-3.973 5.38-6.392 7.689-1.167 1.05-1.23 1.996-.316 3.613 2.818 4.947 6.235 9.58 8.169 15.042 1.094 3.184 1.042 6.65-.147 9.8-2.04 6.018-4.205 11.985-6.382 17.982-.599 1.681-2.102 2.385-3.49 3.204-4.752 2.794-9.704 5.199-14.645 7.647-.778.378-1.556.756-2.303 1.197-.998.599-.988 1.24-.094 2.017 4.977 4.209 9.335 9.1 12.942 14.527 1.156 1.786 2.975 3.151 4.51 4.653.452.462.957.967 1.682.767 2.121-.613 4.322-.9 6.529-.851.094 0 .189-.347.284-.536-.013-.206.042-.41.156-.582.114-.173.28-.304.475-.373-.002-.082.013-.163.044-.239.031-.076.076-.145.134-.203.058-.058.127-.103.203-.134.076-.031.157-.046.239-.044-.105-.567-.063-1.051.61-1.25 1.251-2.5 2.523-4.989 3.742-7.51 3.249-6.702 5.331-13.561 5.194-21.008zM338.287 266.728v3.361c-1.198.179-1.471-.913-2.502-.934.621 3.833 1.22 7.562 1.83 11.291.868 3.87 1.507 7.788 1.913 11.733.746 5.41 1.472 10.84 1.84 16.281.368 5.441 1.198 10.703.788 16.102-.184 1.714-.572 3.4-1.156 5.021-.231.715-.505 1.418-.673 2.101-.168.683-.252 1.324.505 1.681.254.094.531.11.795.047.264-.064.503-.204.687-.404 1.051-.872 1.892-2.101 3.469-2.196.73-2.151 1.026-4.425.873-6.691-.231-8.109-1.23-16.144-2.103-24.159-.739-7.954-2.014-15.85-3.816-23.633-.778-3.193-.852-6.597-2.45-9.601zM94.9459 251.13c-2.7125 3.246-6.1293 5.735-9.3779 8.403.368.662 1.0513.683 1.6716.777 4.6994.652 9.1571 2.332 13.7834 3.278.83.168 1.324 1.124 2.228.987.652-.861-.126-1.25-.431-1.733-2.228-3.561-4.4783-7.101-6.7072-10.662-.1133-.244-.2752-.464-.4758-.644-.2005-.181-.4357-.319-.6911-.406zM255.82 233.074l2.05-.158c-.82-.851-1.64-1.681-2.449-2.531-1.893-2.007-3.48-4.443-3.207-7.132.431-4.202-1.735-6.24-5.046-7.773-.389-.179-.757-.389-1.136-.589-.121 2.849.101 5.702.663 8.498 1.631 3.413 4.245 6.262 7.506 8.183.69.31 1.258.838 1.619 1.502zM552.602 203.841c.263.326.452.819.788.966 3.028 1.282 5.615 3.509 8.916 4.202v-9.044l-9.704 3.876z" fill="#DFDFDF"/>
    <path d="M329.194 266.886c.631 1.67 2.102 2.363 3.606 2.92 1.146.42 1.661-.315 1.493-1.376-.701-4.454-1.434-8.9-2.198-13.34-.687-3.157-1.015-6.381-.977-9.611.063-1.134.126-2.174 1.335-2.699 1.819-.945 3.715-1.735 5.667-2.364 2.291-.557 4.71-.588 6.697 1.198 4.999-.013 9.841 1.743 13.667 4.957 6.558 5.151 11.493 12.08 14.214 19.958.217 1.05.635 2.049 1.23 2.941 2.387-1.744 5.33-2.174 7.98-3.288 6.444-2.699 12.984-5.157 20.133-7.972-2.103-1.24-3.785-2.28-5.509-3.151-14.067-7.532-28.176-15.01-42.222-22.594-.631-.381-1.349-.593-2.086-.615-.737-.022-1.467.146-2.119.489-7.833 3.603-15.686 7.174-23.519 10.777-5.487 2.507-10.972 5.035-16.453 7.583-.665.363-1.4.581-2.155.641 2.103 2.006 4.762 3.267 7.191 4.832 4.405 2.857 8.873 5.63 13.362 8.403 1.01.609 1.798 1.113.663 2.311zM291.712 175.744c3.564 2.594 7.36 4.317 11.008 6.418 7.548 4.401 15.171 8.676 22.772 12.982 1.871 1.051 3.785 2.101 5.677 3.152.531.269 1.118.409 1.714.409.595 0 1.182-.14 1.713-.409 3.091-1.261 6.172-2.563 9.305-3.719 7.59-2.794 15.202-5.504 22.813-8.266l11.271-4.107c-2.555-1.271-4.574-2.343-6.655-3.299-6.96-3.151-13.951-6.302-20.922-9.453-5.204-2.374-10.408-4.737-15.591-7.153-1.39-.611-2.954-.701-4.405-.252-4.065 1.083-8.038 2.488-11.88 4.201-7.465 3.151-15.213 5.473-22.93 7.889-1.406.219-2.739.77-3.89 1.607zM258.334 233.115c-.063-.089-.154-.155-.258-.188-.104-.032-.216-.029-.319.01.095.356.252.545.577.178zM181.734 144.789c.973.006 1.936-.206 2.817-.62 5.52-1.828 11.008-3.718 16.559-5.452.987-.266 1.9-.754 2.67-1.425.771-.672 1.378-1.51 1.777-2.45 1.329-2.706 2.068-5.664 2.166-8.677.079-3.823-.089-7.647-.505-11.449-1.181 1.798-2.235 3.675-3.154 5.62-.486 1.418-1.333 2.686-2.457 3.678-1.124.993-2.488 1.676-3.956 1.983-4.384 1.114-7.433 4.202-9.883 7.847-2.313 3.476-4.846 6.848-6.076 10.924l.042.021z" fill="#DFDFDF"/>
    <path d="M373.943 269.512l3.375 14.201c6.108-1.838 11.901-4.495 17.873-6.806 24.317-9.506 48.571-19.191 72.846-28.833 1.063-.534 2.238-.808 3.428-.799.252-.609.841-.63 1.345-.798 4.059-2.51 8.653-3.792 13.026-5.567 10.682-4.328 21.521-8.256 32.14-12.71 10.828-4.548 21.909-8.403 32.791-12.835 2.383-1.012 4.713-2.145 6.981-3.393 1.402-.833 3.032-1.201 4.657-1.051v-1.964c-3.301-.704-5.887-2.93-8.915-4.201-.337-.147-.526-.641-.789-.967l-116.382 46.039c-15.378 6.078-30.766 12.135-46.164 18.171-.904.358-2.313 1.839-2.944.169-.463-1.229 1.377-1.366 2.292-1.723 23.199-9.216 46.413-18.403 69.64-27.562l86.756-34.295c.841-.337 1.913-.347 2.313-1.429-.105-1.208-1.156-1.47-2.008-1.87-8.992-4.201-17.995-8.403-27.009-12.604-4.016-1.87-8.025-3.754-12.027-5.651-9.672-4.58-19.323-9.191-28.996-13.75-14.662-6.911-29.332-13.805-44.009-20.682-7.033-3.309-14.087-6.596-21.121-9.916-3.227-1.533-3.217-1.554-5.782 1.051-1.136 1.166-2.271 2.321-3.375 3.519-1.777 1.922-1.945 1.995-4.373.903-2.755-1.24-5.499-2.521-8.243-3.782-10.906-4.999-21.808-9.992-32.707-14.978-7.559-3.466-15.15-6.88-22.688-10.388-.719-.356-1.504-.558-2.306-.594-.802-.036-1.602.094-2.351.384-8.179 2.773-16.401 5.451-24.612 8.13-21.026 6.876-42.053 13.742-63.08 20.598l-60.367 19.684-18.787 6.092c-.61.2-1.304.221-1.788 1.05 1.178 1.618 3.102 2.395 4.752 3.435 16.632 10.504 33.282 20.955 49.949 31.354 9.42 5.917 18.843 11.831 28.27 17.741.384.192.786.347 1.199.463-.562-2.796-.784-5.649-.662-8.498l-.116-.137-.158.084c-.326-.21-1.345.484-.935-.703-.663-.925-1.788-1.166-2.692-1.744-7.17-4.594-14.368-9.145-21.594-13.655-10.345-6.47-20.697-12.93-31.057-19.38-.683-.42-1.682-.619-1.692-1.848 1.43-.778 2.428.273 3.448.903 4.206 2.615 8.411 5.315 12.616 7.909 6.066 3.729 11.933 7.784 18.178 11.229 5.477-1.628 10.976-3.151 16.422-4.905.743-.29 1.545-.392 2.337-.299.792.094 1.549.38 2.204.834 12.616 8.057 25.348 16.019 38.027 24.012 5.982 3.824 12.017 7.605 17.988 11.491 2.103 1.345 2.029 1.986-.21 2.984-3.249 1.449-6.571 2.72-9.862 4.086-1.051.451-2.333.682-2.712 2.1 2.597 2.248 5.656 3.813 8.547 5.609 4.342 2.7 8.516 5.704 13.111 7.994.755-.06 1.489-.278 2.155-.641 5.474-2.542 10.958-5.07 16.453-7.584 7.833-3.602 15.686-7.174 23.518-10.777.653-.342 1.383-.511 2.12-.489.736.022 1.455.234 2.086.615 14.046 7.584 28.154 15.063 42.221 22.594 1.724.914 3.375 1.954 5.509 3.151-7.149 2.815-13.667 5.252-20.133 7.973-2.597 1.082-5.54 1.512-7.927 3.256zm.894-47.614c-.005-.3.088-.592.265-.835.176-.242.426-.421.713-.51 14.466-6.533 29.227-12.352 44.05-18.024.641-.255 1.33-.366 2.018-.326.689.04 1.36.23 1.967.557 8.81 4.065 17.652 8.035 26.483 12.058 8.544 3.901 17.084 7.822 25.621 11.765.683.315 1.777.336 1.756 1.659-.747.357-1.493.799-2.292 1.114-16.464 6.491-32.935 12.986-49.413 19.484-.783.357-1.647.503-2.504.424-.858-.079-1.68-.381-2.385-.875-11.48-7.353-23.644-13.477-35.419-20.283-3.627-2.101-7.275-4.16-10.86-6.208zm-83.119-46.154c1.14-.878 2.474-1.469 3.89-1.723 7.717-2.416 15.466-4.737 22.93-7.888 3.842-1.713 7.815-3.118 11.88-4.202 1.451-.448 3.015-.359 4.405.252 5.183 2.416 10.387 4.78 15.591 7.154 6.971 3.151 13.962 6.302 20.922 9.453 2.103.956 4.1 2.027 6.655 3.298l-11.27 4.107c-7.612 2.763-15.224 5.473-22.814 8.267-3.154 1.155-6.214 2.458-9.305 3.718-.531.27-1.118.41-1.713.41-.596 0-1.183-.14-1.714-.41-1.892-1.05-3.806-2.101-5.677-3.151-7.601-4.307-15.224-8.582-22.772-12.983-3.606-1.985-7.444-3.708-11.008-6.302zm36.461 43.223c-5.078 2.175-9.694 3.992-14.141 6.145-.904.532-1.945.788-2.993.735-1.048-.052-2.058-.41-2.905-1.029-18.713-11.418-37.511-22.699-56.278-34.032-.525-.316-1.198-.578-1.051-1.482.217-.203.465-.37.736-.493 4.409-1.45 8.821-2.885 13.236-4.307.628-.172 1.288-.199 1.927-.077.64.122 1.243.389 1.764.781 2.312 1.397 4.604 2.815 6.97 4.128 14.634 8.119 29.311 16.165 43.925 24.348 2.754 1.565 5.792 2.773 8.81 5.283zm70.723-27.037c-.432.264-.885.489-1.356.673-14.719 4.632-29.143 10.241-43.505 15.934-.782.363-1.643.528-2.504.481-.862-.048-1.699-.307-2.437-.754-2.828-1.597-5.73-3.046-8.547-4.653-1.051-.609-2.954-.767-2.765-2.248.158-1.303 1.987-1.45 3.154-1.943 12.837-5.42 26.22-9.454 38.899-15.262.53-.267 1.115-.406 1.709-.406.593 0 1.178.139 1.708.406 4.805 2.226 9.63 4.401 14.445 6.585.484.263 1.01.442 1.199 1.187z" fill="#BDBDBD"/>
    <path d="M337.64 264.46c-.735-3.351-1.461-6.691-2.197-10.042-.094-.42-.21-.84-.273-1.271-.988-6.597 1.787-10.262 8.411-11.145.413-.096.817-.226 1.209-.388-1.987-1.786-4.405-1.755-6.697-1.198-1.952.629-3.848 1.419-5.667 2.364-1.209.567-1.209 1.617-1.304 2.668-.038 3.23.29 6.454.978 9.611.757 4.446 1.489 8.893 2.197 13.34.168 1.05-.347 1.796-1.493 1.376-1.503-.557-2.975-1.25-3.606-2.921-9.882-6.169-19.765-12.342-29.647-18.518-6.214-3.897-12.385-7.878-18.577-11.796-2.271-1.439-2.345-1.502-4.437.21-.962.874-2.13 1.489-3.396 1.787-1.265.298-2.586.268-3.837-.085-1.578-.363-3.106-.913-4.552-1.639-2.166-1.187-4.279-2.479-6.413-3.729-.326.368-.484.179-.579-.178h.116l-2.05.157c0 5.252 2.944 8.771 7.17 11.439 2.63 1.695 5.454 3.07 8.411 4.097 2.817.966 5.035-.074 7.096-1.807 2.061-1.733 2.187-1.87 4.321-.536 6.476 4.062 12.945 8.141 19.408 12.237 11.396 7.171 22.796 14.335 34.199 21.491.382.194.784.346 1.199.452-.61-3.729-1.209-7.458-1.829-11.292 1.051 0 1.303 1.114 2.502.935v-3.361.063c-.925-.557-.568-1.502-.663-2.321zM147.949 272.632c-.194.07-.361.201-.474.373-.114.172-.169.377-.156.583l.703-.273c-.031-.231-.052-.452-.073-.683zM149.231 270.71c-.672.179-.714.683-.609 1.25.126-.036.243-.098.343-.182.101-.085.183-.189.24-.307.057-.118.089-.247.094-.378.004-.131-.019-.261-.068-.383zM148.589 271.991c-.082-.001-.163.014-.239.044-.075.031-.144.077-.202.134-.058.058-.104.127-.134.203-.031.076-.046.157-.045.239.162-.008.316-.076.43-.19.115-.115.183-.268.19-.43z" fill="#BDBDBD"/>
    <path d="M268.758 236.278c3.154 1.712 5.667.399 7.906-1.87-.504-.129-.993-.309-1.461-.535-2.934-1.692-4.742-1.03-6.445 2.405z" fill="#BDBDBD"/>
    <path d="M312.915 76.6302c7.06 2.8735 15.101-.4909 17.96-7.5147 2.858-7.0238-.548-15.0471-7.608-17.9206s-15.101.4909-17.96 7.5147c-2.858 7.0238.548 15.0471 7.608 17.9206z" fill="#fff" stroke="#003459" stroke-width=".593592"/>
    <path opacity=".5" d="M327.04 61.5988c-.286-.253-.659-.3843-1.04-.3658-.381.0185-.74.1854-.999.4649l-6.737 7.4252c-.13.1424-.23.3097-.294.4919-.064.1822-.091.3755-.078.5683.013.1927.065.3809.152.5531.088.1723.21.325.358.449.289.2453.663.3669 1.04.3386.378-.0284.729-.2046.978-.4902l6.744-7.4326c.244-.2841.367-.6521.344-1.026-.023-.3739-.191-.7241-.468-.9764z" fill="#39B6ED"/>
    <path opacity=".5" d="M319.737 58.6256c.38.0107.741.1711 1.003.4462.262.2751.405.6426.398 1.0224l-.354 10.0258c-.004.1885-.045.3743-.121.5468-.075.1725-.185.3283-.321.4583-.137.13-.297.2318-.473.2994-.176.0675-.364.0996-.552.0944-.379-.0134-.738-.1746-.999-.4491-.262-.2745-.406-.6404-.401-1.0195l.361-10.033c.003-.1877.044-.3727.119-.5445s.184-.3269.32-.4564c.136-.1294.296-.2306.471-.2977.175-.0671.362-.0987.549-.0931zM311.876 55.9827c.762.0195 1.486.3405 2.012.8925.526.552.812 1.2901.795 2.0523l-.305 8.5998c-.01.3798-.17.74-.445 1.002s-.642.4047-1.022.3969c-.382-.0115-.743-.1729-1.007-.4493-.263-.2763-.407-.6453-.401-1.0268l.373-11.4674z" fill="#39B6ED"/>
    <path opacity=".5" d="M320.635 58.9907c-.14-.1269-.303-.225-.48-.2887-.177-.0636-.365-.0917-.553-.0824-.188.0092-.373.0556-.543.1363-.17.0808-.322.1944-.448.3342l-6.745 7.4326c-.129.1417-.229.3081-.293.4893-.064.1812-.091.3735-.078.5653.012.1918.063.3792.149.551.086.1719.206.3246.353.449.285.253.659.3843 1.04.3658.381-.0185.739-.1854.998-.4649l6.737-7.4253c.129-.143.228-.3105.292-.4925.063-.1821.089-.375.076-.5673-.013-.1923-.064-.3802-.151-.5524-.087-.1721-.207-.3252-.354-.45z" fill="#39B6ED"/>
</svg>
