<svg viewBox="0 0 768 440" fill="none" xmlns="http://www.w3.org/2000/svg">
    <path opacity=".2" fill-rule="evenodd" clip-rule="evenodd" d="M0 285.125h21.12c21.76 0 64 0 106.88-43.021 42.88-43.021 85.12-129.062 128-103.25 42.88 25.813 85.12 163.479 128 154.875 42.88-8.604 85.12-163.479 128-197.8957 42.88-34.4166 85.12 51.6247 128 60.2287 42.88 8.605 85.12-60.2287 106.88-94.6453L768 27v413H0V285.125z" fill="#2FBFFD"/>
    <path opacity=".2" fill-rule="evenodd" clip-rule="evenodd" d="M0 172.084l8 44.653c8 44.652 24 133.958 40 143.26 16 8.373 32-63.258 48-133.958 16-71.63 32-143.2603 48-116.283 16 26.978 32 151.633 48 196.286 16 44.653 32 9.303 48 9.303s32 35.35 48 53.025c16 17.675 32 17.675 48-53.025 16-71.631 32-214.891 48-277.2189 16-62.3277 32-44.65267 48 26.9776 16 71.6303 32 196.2853 48 205.5883 16 8.372 32-98.608 48-89.305 16 8.372 32 133.958 48 160.005 16 26.978 32-44.653 48-106.98 16-62.328 32-116.283 48-151.6333 16-35.35 32-53.9552 48-44.6526 16 9.3026 32 44.6526 40 62.3279l8 17.675V440H0V172.084z" fill="#2FBFFD"/>
</svg>
