<svg xmlns="http://www.w3.org/2000/svg" viewBox="0 0 293.53 241.22"><defs><style>.cls-1{fill:none;stroke:#003459;stroke-linecap:round;stroke-linejoin:round;stroke-width:1.22px;}.cls-2{fill:#003459;}</style></defs><g id="Layer_2" data-name="Layer 2"><g id="Design"><path class="cls-1" d="M9.35.61H284.18a8.74,8.74,0,0,1,8.74,8.74V224.91a0,0,0,0,1,0,0H.61a0,0,0,0,1,0,0V9.35A8.74,8.74,0,0,1,9.35.61Z"/><rect class="cls-1" x="198.34" y="24.84" width="94.58" height="166.11"/><rect class="cls-1" x="99.48" y="24.84" width="94.58" height="166.11"/><rect class="cls-1" x="0.61" y="24.84" width="94.58" height="166.11"/><rect class="cls-1" x="207.16" y="82.78" width="4.29" height="45.27" rx="2.02"/><rect class="cls-1" x="144.62" y="141.97" width="4.29" height="60.04" rx="2.14" transform="translate(-25.23 318.76) rotate(-90)"/><rect class="cls-1" x="217.02" y="51.48" width="55.75" height="16.73" rx="8.36"/><path class="cls-1" d="M271.22,122.37a8.48,8.48,0,0,1,0-17h21.7v17h-21.7Z"/><path class="cls-1" d="M152.26,77.35c15.73,0,28.56,16.33,28.56,36.47s-13.69,36.46-28.56,36.46H99.48V77.35h52.78Z"/><circle class="cls-1" cx="271.8" cy="113.9" r="6.78"/><circle class="cls-1" cx="271.8" cy="113.9" r="5.49"/><path class="cls-1" d="M237.92,210.82a12,12,0,1,1,24,0v14.09h-24V210.82Z"/><circle class="cls-1" cx="249.94" cy="211.64" r="9.61"/><circle class="cls-1" cx="249.94" cy="211.64" r="7.78"/><path class="cls-1" d="M134.74,210.82a12,12,0,0,1,24,0v14.09h-24V210.82Z"/><circle class="cls-1" cx="146.77" cy="211.64" r="9.61"/><circle class="cls-1" cx="146.77" cy="211.64" r="7.78"/><path class="cls-1" d="M35.88,210.82a12,12,0,0,1,24,0v14.09h-24V210.82Z"/><circle class="cls-1" cx="47.9" cy="211.64" r="9.61"/><circle class="cls-1" cx="47.9" cy="211.64" r="7.78"/><path class="cls-1" d="M168.41,118a28.58,28.58,0,1,1,.26-5.19"/><circle class="cls-1" cx="140.15" cy="113.9" r="33.13"/><path class="cls-1" d="M165.24,117a25.3,25.3,0,1,1,.19-3.11"/><rect class="cls-1" x="10.3" y="41.61" width="75.48" height="73.35"/><rect class="cls-1" x="21.06" y="84.65" width="21.83" height="8.7"/><rect class="cls-1" x="17.51" y="81.56" width="44.16" height="25.61"/><rect class="cls-1" x="63.74" y="81.56" width="14.55" height="25.61"/><rect class="cls-1" x="20.62" y="95.62" width="2.58" height="2.58"/><rect class="cls-1" x="20.62" y="99.15" width="2.58" height="2.58"/><rect class="cls-1" x="20.62" y="102.63" width="2.58" height="2.58"/><rect class="cls-1" x="25.65" y="95.62" width="2.58" height="2.58"/><rect class="cls-1" x="25.65" y="99.15" width="2.58" height="2.58"/><rect class="cls-1" x="25.65" y="102.63" width="2.58" height="2.58"/><rect class="cls-1" x="30.68" y="95.62" width="2.58" height="2.58"/><rect class="cls-1" x="30.68" y="99.15" width="2.58" height="2.58"/><rect class="cls-1" x="30.68" y="102.63" width="2.58" height="2.58"/><rect class="cls-1" x="35.71" y="95.62" width="2.58" height="2.58"/><rect class="cls-1" x="35.71" y="99.15" width="2.58" height="2.58"/><rect class="cls-1" x="35.71" y="102.63" width="2.58" height="2.58"/><rect class="cls-1" x="40.74" y="95.62" width="2.58" height="2.58"/><rect class="cls-1" x="40.74" y="99.15" width="2.58" height="2.58"/><rect class="cls-1" x="40.74" y="102.63" width="2.58" height="2.58"/><rect class="cls-1" x="45.77" y="95.62" width="2.58" height="2.58"/><rect class="cls-1" x="45.77" y="99.15" width="2.58" height="2.58"/><rect class="cls-1" x="45.77" y="102.63" width="2.58" height="2.58"/><rect class="cls-1" x="50.8" y="95.62" width="2.58" height="2.58"/><rect class="cls-1" x="50.8" y="99.15" width="2.58" height="2.58"/><rect class="cls-1" x="50.8" y="102.63" width="2.58" height="2.58"/><rect class="cls-1" x="55.83" y="95.62" width="2.58" height="2.58"/><rect class="cls-1" x="55.83" y="99.15" width="2.58" height="2.58"/><rect class="cls-1" x="55.83" y="102.63" width="2.58" height="2.58"/><rect class="cls-1" x="73.18" y="84.54" width="2.23" height="2.23" transform="translate(159.95 11.36) rotate(90)"/><rect class="cls-1" x="70.12" y="84.54" width="2.23" height="2.23" transform="translate(156.89 14.42) rotate(90)"/><rect class="cls-1" x="67.11" y="84.54" width="2.23" height="2.23" transform="translate(153.88 17.43) rotate(90)"/><rect class="cls-1" x="73.18" y="88.89" width="2.23" height="2.23" transform="translate(164.31 15.71) rotate(90)"/><rect class="cls-1" x="70.12" y="88.89" width="2.23" height="2.23" transform="translate(161.25 18.77) rotate(90)"/><rect class="cls-1" x="67.11" y="88.89" width="2.23" height="2.23" transform="translate(158.24 21.78) rotate(90)"/><rect class="cls-1" x="73.18" y="93.25" width="2.23" height="2.23" transform="translate(168.66 20.07) rotate(90)"/><rect class="cls-1" x="70.12" y="93.25" width="2.23" height="2.23" transform="translate(165.6 23.12) rotate(90)"/><rect class="cls-1" x="67.11" y="93.25" width="2.23" height="2.23" transform="translate(162.59 26.14) rotate(90)"/><rect class="cls-1" x="73.18" y="97.6" width="2.23" height="2.23" transform="translate(173.02 24.42) rotate(90)"/><rect class="cls-1" x="70.12" y="97.6" width="2.23" height="2.23" transform="translate(169.96 27.48) rotate(90)"/><rect class="cls-1" x="67.11" y="97.6" width="2.23" height="2.23" transform="translate(166.95 30.49) rotate(90)"/><rect class="cls-1" x="73.18" y="101.95" width="2.23" height="2.23" transform="translate(177.37 28.77) rotate(90)"/><rect class="cls-1" x="70.12" y="101.95" width="2.23" height="2.23" transform="translate(174.31 31.83) rotate(90)"/><rect class="cls-1" x="67.11" y="101.95" width="2.23" height="2.23" transform="translate(171.3 34.84) rotate(90)"/><rect class="cls-1" x="65.42" y="48.58" width="13.2" height="13.2" rx="3.51"/><rect class="cls-1" x="68.04" y="51.2" width="7.97" height="7.97" rx="3.98"/><rect class="cls-1" x="71.01" y="51.33" width="2.17" height="7.84"/><rect class="cls-1" x="15.88" y="48.58" width="41.25" height="1.93" rx="0.96"/><rect class="cls-1" x="15.88" y="52.13" width="12.9" height="1.68" rx="0.84"/><rect class="cls-1" x="30.08" y="52.13" width="12.9" height="1.68" rx="0.84"/><rect class="cls-1" x="44.23" y="52.13" width="12.9" height="1.68" rx="0.84"/><rect class="cls-1" x="15.88" y="55.42" width="12.9" height="1.68" rx="0.84"/><rect class="cls-1" x="30.08" y="55.42" width="12.9" height="1.68" rx="0.84"/><rect class="cls-1" x="44.23" y="55.42" width="12.9" height="1.68" rx="0.84"/><rect class="cls-1" x="15.88" y="58.72" width="12.9" height="1.68" rx="0.84"/><rect class="cls-1" x="30.08" y="58.72" width="12.9" height="1.68" rx="0.84"/><rect class="cls-1" x="44.23" y="58.72" width="12.9" height="1.68" rx="0.84"/><rect class="cls-1" x="105.61" y="41.61" width="7.84" height="1.02" rx="0.51"/><rect class="cls-1" x="114.25" y="41.61" width="7.84" height="1.02" rx="0.51"/><rect class="cls-1" x="122.85" y="41.61" width="7.84" height="1.02" rx="0.51"/><rect class="cls-1" x="105.61" y="44.88" width="7.84" height="1.02" rx="0.51"/><rect class="cls-1" x="114.25" y="44.88" width="7.84" height="1.02" rx="0.51"/><rect class="cls-1" x="122.85" y="44.88" width="7.84" height="1.02" rx="0.51"/><rect class="cls-1" x="105.61" y="48.14" width="7.84" height="1.02" rx="0.51"/><rect class="cls-1" x="114.25" y="48.14" width="7.84" height="1.02" rx="0.51"/><rect class="cls-1" x="122.85" y="48.14" width="7.84" height="1.02" rx="0.51"/><rect class="cls-1" x="105.61" y="51.41" width="7.84" height="1.02" rx="0.51"/><rect class="cls-1" x="114.25" y="51.41" width="7.84" height="1.02" rx="0.51"/><rect class="cls-1" x="122.85" y="51.41" width="7.84" height="1.02" rx="0.51"/><rect class="cls-1" x="105.61" y="54.67" width="7.84" height="1.02" rx="0.51"/><rect class="cls-1" x="114.25" y="54.67" width="7.84" height="1.02" rx="0.51"/><rect class="cls-1" x="122.85" y="54.67" width="7.84" height="1.02" rx="0.51"/><rect class="cls-1" x="105.61" y="57.94" width="7.84" height="1.02" rx="0.51"/><rect class="cls-1" x="114.25" y="57.94" width="7.84" height="1.02" rx="0.51"/><rect class="cls-1" x="122.85" y="57.94" width="7.84" height="1.02" rx="0.51"/><rect class="cls-1" x="133.87" y="41.61" width="7.84" height="1.02" rx="0.51"/><rect class="cls-1" x="142.51" y="41.61" width="7.84" height="1.02" rx="0.51"/><rect class="cls-1" x="151.11" y="41.61" width="7.84" height="1.02" rx="0.51"/><rect class="cls-1" x="133.87" y="44.88" width="7.84" height="1.02" rx="0.51"/><rect class="cls-1" x="142.51" y="44.88" width="7.84" height="1.02" rx="0.51"/><rect class="cls-1" x="151.11" y="44.88" width="7.84" height="1.02" rx="0.51"/><rect class="cls-1" x="133.87" y="48.14" width="7.84" height="1.02" rx="0.51"/><rect class="cls-1" x="142.51" y="48.14" width="7.84" height="1.02" rx="0.51"/><rect class="cls-1" x="151.11" y="48.14" width="7.84" height="1.02" rx="0.51"/><rect class="cls-1" x="133.87" y="51.41" width="7.84" height="1.02" rx="0.51"/><rect class="cls-1" x="142.51" y="51.41" width="7.84" height="1.02" rx="0.51"/><rect class="cls-1" x="151.11" y="51.41" width="7.84" height="1.02" rx="0.51"/><rect class="cls-1" x="133.87" y="54.67" width="7.84" height="1.02" rx="0.51"/><rect class="cls-1" x="142.51" y="54.67" width="7.84" height="1.02" rx="0.51"/><rect class="cls-1" x="151.11" y="54.67" width="7.84" height="1.02" rx="0.51"/><rect class="cls-1" x="133.87" y="57.94" width="7.84" height="1.02" rx="0.51"/><rect class="cls-1" x="142.51" y="57.94" width="7.84" height="1.02" rx="0.51"/><rect class="cls-1" x="151.11" y="57.94" width="7.84" height="1.02" rx="0.51"/><rect class="cls-1" x="162.84" y="41.61" width="7.84" height="1.02" rx="0.51"/><rect class="cls-1" x="171.47" y="41.61" width="7.84" height="1.02" rx="0.51"/><rect class="cls-1" x="180.08" y="41.61" width="7.84" height="1.02" rx="0.51"/><rect class="cls-1" x="162.84" y="44.88" width="7.84" height="1.02" rx="0.51"/><rect class="cls-1" x="171.47" y="44.88" width="7.84" height="1.02" rx="0.51"/><rect class="cls-1" x="180.08" y="44.88" width="7.84" height="1.02" rx="0.51"/><rect class="cls-1" x="162.84" y="48.14" width="7.84" height="1.02" rx="0.51"/><rect class="cls-1" x="171.47" y="48.14" width="7.84" height="1.02" rx="0.51"/><rect class="cls-1" x="180.08" y="48.14" width="7.84" height="1.02" rx="0.51"/><rect class="cls-1" x="162.84" y="51.41" width="7.84" height="1.02" rx="0.51"/><rect class="cls-1" x="171.47" y="51.41" width="7.84" height="1.02" rx="0.51"/><rect class="cls-1" x="180.08" y="51.41" width="7.84" height="1.02" rx="0.51"/><rect class="cls-1" x="162.84" y="54.67" width="7.84" height="1.02" rx="0.51"/><rect class="cls-1" x="171.47" y="54.67" width="7.84" height="1.02" rx="0.51"/><rect class="cls-1" x="180.08" y="54.67" width="7.84" height="1.02" rx="0.51"/><rect class="cls-1" x="162.84" y="57.94" width="7.84" height="1.02" rx="0.51"/><rect class="cls-1" x="171.47" y="57.94" width="7.84" height="1.02" rx="0.51"/><rect class="cls-1" x="180.08" y="57.94" width="7.84" height="1.02" rx="0.51"/><rect class="cls-1" x="15.88" y="74.96" width="41.25" height="1.93" rx="0.96" transform="translate(73 151.85) rotate(-180)"/><rect class="cls-1" x="44.23" y="71.66" width="12.9" height="1.68" rx="0.84" transform="translate(101.35 145.01) rotate(180)"/><rect class="cls-1" x="30.02" y="71.66" width="12.9" height="1.68" rx="0.84" transform="translate(72.94 145.01) rotate(-180)"/><rect class="cls-1" x="15.88" y="71.66" width="12.9" height="1.68" rx="0.84" transform="translate(44.65 145.01) rotate(-180)"/><rect class="cls-1" x="44.23" y="68.37" width="12.9" height="1.68" rx="0.84" transform="translate(101.35 138.41) rotate(-180)"/><rect class="cls-1" x="30.02" y="68.37" width="12.9" height="1.68" rx="0.84" transform="translate(72.94 138.41) rotate(180)"/><rect class="cls-1" x="15.88" y="68.37" width="12.9" height="1.68" rx="0.84" transform="translate(44.65 138.41) rotate(180)"/><rect class="cls-1" x="44.23" y="65.07" width="12.9" height="1.68" rx="0.84" transform="translate(101.35 131.82) rotate(-180)"/><rect class="cls-1" x="30.02" y="65.07" width="12.9" height="1.68" rx="0.84" transform="translate(72.94 131.82) rotate(-180)"/><rect class="cls-1" x="15.88" y="65.07" width="12.9" height="1.68" rx="0.84" transform="translate(44.65 131.82) rotate(-180)"/><circle class="cls-1" cx="168.13" cy="115.28" r="2.52"/><path class="cls-1" d="M143.73,114h21.81a0,0,0,0,1,0,0v2.51a0,0,0,0,1,0,0H143.73a1.22,1.22,0,0,1-1.22-1.22v-.06a1.22,1.22,0,0,1,1.22-1.22Z"/><line class="cls-1" x1="155.87" y1="114.03" x2="155.87" y2="116.54"/><polyline class="cls-1" points="292.92 224.91 292.92 240.61 0.61 240.61 0.61 224.91"/><circle class="cls-1" cx="26.94" cy="111.09" r="1.87"/><circle class="cls-1" cx="65.42" cy="111.09" r="1.87"/><circle class="cls-1" cx="226.56" cy="60.41" r="4.91"/><circle class="cls-1" cx="226.56" cy="60.41" r="3.98"/><circle class="cls-1" cx="238.96" cy="60.41" r="4.91"/><circle class="cls-1" cx="238.96" cy="60.41" r="3.98"/><circle class="cls-1" cx="251.36" cy="60.41" r="4.91"/><circle class="cls-1" cx="251.36" cy="60.41" r="3.98"/><circle class="cls-1" cx="263.77" cy="60.41" r="4.91"/><circle class="cls-1" cx="263.77" cy="60.41" r="3.98"/><polygon class="cls-2" points="224.98 62.47 226.41 59.84 227.34 59.84 227.34 60.83 224.98 62.47"/><polygon class="cls-2" points="237.42 62.47 238.84 59.84 239.78 59.84 239.78 60.83 237.42 62.47"/><polygon class="cls-2" points="249.85 62.47 251.28 59.84 252.21 59.84 252.21 60.83 249.85 62.47"/><polygon class="cls-2" points="262.29 62.47 263.72 59.84 264.65 59.84 264.65 60.83 262.29 62.47"/><rect class="cls-1" x="46.43" y="204.19" width="2.78" height="14.98"/><rect class="cls-1" x="145.38" y="204.19" width="2.78" height="14.98"/><rect class="cls-1" x="248.55" y="204.19" width="2.78" height="14.98"/></g></g></svg>