<svg xmlns="http://www.w3.org/2000/svg" viewBox="0 0 353.54 311.94"><defs><style>.cls-1{fill:#fff;}</style></defs><g id="Layer_2" data-name="Layer 2"><g id="Design"><path class="cls-1" d="M255.43,286.33a2.06,2.06,0,0,0-.54-.17H201.64a1.72,1.72,0,0,0-.45.17c0,.28,0,.56,0,.84.16,2.82.28,5.63.5,8.45a11.86,11.86,0,0,1-1.33,7A10.6,10.6,0,0,1,193,308a29.64,29.64,0,0,1-9.49.33c-2.87-.38-5.75-.58-8.63-.8a8.74,8.74,0,0,1-3-.72,11,11,0,0,1-6.24-7.07,12.8,12.8,0,0,1-.57-5.07c.22-2.45.37-4.91.54-7.37,0-.34,0-.69,0-1.09a7.31,7.31,0,0,0-.92-.11c-2.21,0-4.42,0-6.64,0-1,0-1.12.07-1.15,1.07-.1,3.82-.2,7.64-.28,11.46,0,1.06.06,1.14,1.16,1.16.82,0,1.64,0,2.46.05s.92.23.94,1c0,.5,0,1,0,1.5,0,.76-.27,1-1.06,1s-1.85,0-2.78,0-1,0-1.26,1c-.4,1.92-.78,3.85-1.18,5.77a6,6,0,0,1-.38,1.33.85.85,0,0,1-.62.45c-.21,0-.47-.28-.61-.5a2.24,2.24,0,0,1-.16-.72c-.41-2.21-.83-4.42-1.24-6.63-.09-.52-.3-.86-.89-.83a24.67,24.67,0,0,1-5.42-.6c-1.27-.22-1.32-.15-1.78,1.08-.73,1.94-1.44,3.88-2.18,5.81-.31.8-.68,1.14-1.06,1-.58-.23-.53-.78-.54-1.28,0-2.14-.07-4.28-.12-6.43,0-1.09-.12-1.21-1.18-1.4-.74-.13-1.49-.22-2.22-.37-1-.21-1.13-.44-.95-1.4.08-.42.14-.85.23-1.26a1,1,0,0,1,1.24-.86c.85.13,1.69.29,2.54.43.67.11.87,0,1-.63q1-5.31,2-10.62a1.82,1.82,0,0,0-.05-.44,11.61,11.61,0,0,0-1.2-.12l-15.32,0q-35,0-70,.05c-11.68,0-23.36-.11-35-.17h-.33c-1.36,0-1.55-.21-1.56-1.54-.06-8-.15-16-.17-24q-.09-46.23-.15-92.46c0-19.72,0-39.43,0-59.14q0-31.18.08-62.36V45.28a2.94,2.94,0,0,0-.72.19,32.14,32.14,0,0,1-7.59,3.92,11.79,11.79,0,0,1-6.31.67A5.3,5.3,0,0,1,0,45.2a19.17,19.17,0,0,1,1.42-8.37c.47-1.19,1-2.36,1.44-3.57A2.15,2.15,0,0,0,3,32,19.39,19.39,0,0,1,4.25,18.27,24.49,24.49,0,0,1,13.17,8.09,21.19,21.19,0,0,1,26.79,4.51,3.14,3.14,0,0,0,28.89,4,32.5,32.5,0,0,1,36.65.17,4.45,4.45,0,0,1,37.81,0c1.5,0,3,0,4.5,0a2.94,2.94,0,0,1,2.27,1A6.33,6.33,0,0,1,46.4,5.23a17.68,17.68,0,0,1-1.09,6.83c-.17.5-.39,1-.56,1.5-.09.29-.13.6-.22,1,.38,0,.65.12.92.13.54,0,1.08,0,1.61,0H351.45a10.88,10.88,0,0,1,1.28,0,.79.79,0,0,1,.79.85v.75q0,78,0,156.1,0,33.38-.05,66.75c0,15.17-.17,30.35-.26,45.53,0,.21,0,.43,0,.64a.82.82,0,0,1-.9.85l-1.18,0-49.82.07c-2,0-1.91-.13-1.88,1.93a14.73,14.73,0,0,1-5,11.73,24.41,24.41,0,0,1-10.32,5.42,28.51,28.51,0,0,1-12.43.36,19.55,19.55,0,0,1-8.44-3.5,18.9,18.9,0,0,1-6.79-8.23,14.51,14.51,0,0,1-1.07-6.07C255.45,287.41,255.43,286.88,255.43,286.33ZM155,178.48c0-1,.06-1.9.08-2.78,0-1.59.36-1.76-1.71-1.76H104.27c-1.58,0-1.72-.14-1.72-1.71V151c0-1.95,0-1.95,2-1.95H165c.69-.05.8-.16.78-.85s-.11-1.43-.14-2.14c-.06-1.59-.06-1.59-1.62-1.59H104c-1.19,0-1.38-.2-1.4-1.36V121.61c0-2,0-2,2-2h36.53c.29,0,.58,0,.86,0,.68-.05.82-.2.68-.89a22,22,0,0,0-.7-2.91,5.66,5.66,0,0,0-5.81-4.13l-9.43,0q-11.19-.08-22.39-.17c-1.61,0-1.67-.12-1.67-1.74v-26c0-.25,0-.5,0-.75,0-.72.25-.93,1-1a8.23,8.23,0,0,1,.86,0h11.57c2,0,3.93,0,5.89,0,.78,0,1-.23.87-1s-.2-.75-.93-.76c-1.35,0-2.71,0-4.07,0A122.38,122.38,0,0,1,104,80c-1.22-.12-1.34-.22-1.36-1.41v-.33q0-13.17,0-26.35c0-.14,0-.29,0-.43.06-.72.25-.91,1-1l.89-.14c-.13-1.24-.16-1.29-.77-1.44-1.19-.29-1.2-.29-1.2-1.47V20.76c0-1.32.18-1.49,1.48-1.5h71.89c.25,0,.5,0,.75,0,.76.06,1,.29,1,1.08,0,.28,0,.57,0,.85V46.92c0,2,0,2-2,2H132.67c-.21,0-.43,0-.64,0-.66,0-.81.2-.81.85s.13.77.83.82h.43c4.5,0,9-.05,13.5,0q14.25,0,28.49.09c.68,0,1.36.08,2,.13a.93.93,0,0,1,.95,1c0,.32.05.64.05,1,.05,3.29.13,6.57.15,9.85,0,4.93,0,9.86,0,14.79,0,.41.07.82.11,1.3h3c0-.46.08-.91.08-1.36V34.81q0-7.07,0-14.14c0-1.17.21-1.39,1.35-1.41H253c.22,0,.43,0,.65,0,.94,0,1.16.27,1.19,1.25,0,.14,0,.28,0,.43q0,40.44,0,80.89c0,1-.11,2.06-.06,3.08.16,3.21.37,6.42.58,9.63.23,3.45.47,6.91.72,10.36a3.76,3.76,0,0,0,.2.73h.23a22.23,22.23,0,0,1,1-2.07,3.9,3.9,0,0,0,.57-2.23q0-50.15,0-100.28c0-1.7.1-1.8,1.83-1.8H346.5c.25,0,.5,0,.75,0,.78.05,1,.26,1,1.06,0,.25,0,.5,0,.75V260.64c0,.36,0,.71,0,1.07a.75.75,0,0,1-.82.79H299.77c-.45,0-.89.07-1.4.11,0,.46,0,.81,0,1.16.19,4.64.4,9.27.59,13.91.09,2.07.15,4.14.24,6.21,0,.87.15,1,1,1h.53l20.36-.05,29.14,0c.45,0,.9-.05,1.5-.08,0-.48,0-.86,0-1.24q.08-22.08.15-44.14.07-28.23.12-56.46,0-34.67,0-69.32,0-22.33,0-44.68V17.8c0-1.77.18-1.72-1.76-1.72H45.26a5.13,5.13,0,0,0-1,0,.92.92,0,0,0-.63.3c-.5.84-.94,1.72-1.49,2.76.62,0,1,.1,1.44.1H60.33c1.37,0,1.58.2,1.58,1.54V46.19c0,1.28-.22,1.5-1.49,1.51H26.67c-1.44,0-1.61-.18-1.61-1.6s0-3,0-4.5c0-.33-.07-.66-.12-1.1a5,5,0,0,0-.61.32c-1.06.85-2.09,1.72-3.17,2.55A1.85,1.85,0,0,0,20.42,45q0,26.42,0,52.82c0,18-.1,36.07-.11,54.11q0,34.61,0,69.21.06,30.9.24,61.82c0,1.64,0,1.64,1.65,1.65,14.11.08,28.21.2,42.32.21,20.18,0,40.35,0,60.53,0l16.72,0c1.07,0,1.13-.06,1.35-1.07,0-.18.06-.36.1-.53.41-2.17.83-4.35,1.25-6.52.35-1.82.71-3.64,1.06-5.46l1.17-6.32c.16-.86.3-1.73.47-2.71-.55,0-1-.08-1.38-.08-5.25,0-10.5,0-15.75,0q-12.37,0-24.74-.15a12.17,12.17,0,0,1-1.71-.1c-.73-.1-.92-.32-.94-1.06,0-1.21,0-2.42,0-3.64,0-5,0-10.07,0-15.1,0-1.18-.13-2.36-.16-3.54,0-.79.2-1,1-1.09.35,0,.71,0,1.07,0h33.21q6.48,0,13,0c1.19,0,1.32-.14,1.53-1.31.1-.6.23-1.19.35-1.78.29-1.4.19-1.53-1.26-1.53l-46.71-.05h-.75c-1,0-1.17-.19-1.17-1.21,0-1.32,0-2.64,0-4,0-5.25,0-10.5,0-15.75,0-1,.06-1.93.15-2.89.08-.8.38-1,1.18-1.09a4.69,4.69,0,0,1,.53,0l38.57.07c3.29,0,6.57,0,9.86,0,1.12,0,1.2-.06,1.27-1.2q.06-1,.09-2c0-1-.05-1.09-1.06-1.12h-.32c-7.82-.06-15.64-.14-23.46-.18q-12.64,0-25.29,0c-1.43,0-1.54-.09-1.54-1.51,0-3.71.07-7.42,0-11.14,0-3.53-.12-7.06-.21-10.6,0-1.14.15-1.4,1.31-1.43,5.46-.1,10.92-.27,16.39-.27,11.28,0,22.57.11,33.85.17Zm170.78-26.42c-.43-.07-.6-.12-.77-.13h-3.21c-3.21,0-6.43,0-9.64,0a1.68,1.68,0,0,0-1.55.71,3.32,3.32,0,0,1-1.45,1.22,2,2,0,0,0-1.58,2.64.74.74,0,0,1,0,.21,1.77,1.77,0,0,0,.76,1.76,7.24,7.24,0,0,1,1.18,1.23,13.5,13.5,0,0,1,2.92,8.12c.17,2.63.27,5.28.42,7.91.42,7.27.87,14.54,1.28,21.82q.69,12,1.36,24.06c.31,5.45.65,10.91,1,16.36,0,.68.08,1.36.08,2,0,.95-.18,1.15-1.13,1.1s-1.63-.13-2.45-.2-.93,0-1,.86c0,.25,0,.5,0,.75,0,1.68,0,3.36,0,5a4.25,4.25,0,0,1-3.63,4.49,10.43,10.43,0,0,1-3.61.07,4,4,0,0,1-3.49-3.89c0-.42,0-.85,0-1.28q.29-39.65.56-79.28a8.32,8.32,0,0,1,1.23-4.58c.79-1.22,1.64-2.41,2.53-3.57a2.49,2.49,0,0,0,.64-1.74c-.05-1,0-2.07,0-3.11s.15-1.15,1-1.49a13.26,13.26,0,0,0,1.29-.5c.18-.1.29-.33.57-.65-.51,0-.82-.09-1.12-.09H299.7c-1.24,0-1.3.05-1.38,1.34q-.24,4.22-.44,8.45c-.22,4.81-.45,9.63-.64,14.44-.29,7.64-.64,15.27-.8,22.91s0,15.36.32,23c.51,12.67,1,25.33,1.45,38a8.45,8.45,0,0,0,.13.94h48.51V153.56c0-.33,0-.65,0-1a.6.6,0,0,0-.68-.65,16.23,16.23,0,0,0-1.71,0,1.06,1.06,0,0,0-.72.35,5,5,0,0,1-2.6,2,1,1,0,0,0-.76,1.14c0,.57,0,1.15,0,1.72,0,1.78-.27,1.57,1.52,2.31a5.2,5.2,0,0,1,3.36,3.23,7.47,7.47,0,0,1,.23,2.11q0,28.33,0,56.67c0,.47,0,.93,0,1.4,0,1.17-.17,1.33-1.38,1.34h-3c-2.09,0-2.09,0-2.09-2.06V208.41c0-1.4,0-1.41-1.45-1.42h-2.89c-1.43,0-1.61-.18-1.61-1.6V164.57a3,3,0,0,1,1.26-2.48,7.09,7.09,0,0,1,3.21-1.37c1.39-.24,1.4-.27,1.39-1.63s0-2.86,0-4.29c0-1.07.15-1.25,1.17-1.63a9.1,9.1,0,0,0,1.28-.54c.17-.09.25-.34.43-.6a5.82,5.82,0,0,0-.68-.1H328.48a1.4,1.4,0,0,0-1.16.61,6.75,6.75,0,0,1-1.24,1.15,5.78,5.78,0,0,1-1.14.57,1.07,1.07,0,0,0-.75,1.15c0,.89,0,1.79,0,2.68,0,.58.2.88.8.86a1,1,0,0,1,1.06.86c.09.34.2.68.28,1,.7,2.77,1.43,5.53,2.08,8.3a18.43,18.43,0,0,1,.84,4.19q0,30.73,0,61.49c0,.25,0,.5,0,.75a1.37,1.37,0,0,1-.67,1.26,3.3,3.3,0,0,1-.91.55c-.76.21-.86.71-.82,1.38.11,1.82.2,3.64.25,5.46.09,2.82.15,5.64.21,8.46,0,1,0,1.13-1,1.5a13.44,13.44,0,0,1-2,.62,5,5,0,0,1-2.84-.22,2.07,2.07,0,0,1-1.53-2.14c-.06-5.57-.26-11.14-.27-16.71q-.06-30.1,0-60.21A82.32,82.32,0,0,1,321,160.83c.17-1,.42-1.92,1.71-2,0-.37,0-.68,0-1,0-1,0-2.07,0-3.11s.13-1.18,1.13-1.53a10.14,10.14,0,0,0,1.19-.47A4.78,4.78,0,0,0,325.75,152.06Zm-30.53,62c-.22-5.32-.38-10.63-.68-15.94-.2-3.53-.52-7-.94-10.56a146,146,0,0,0-3-16.74,69.64,69.64,0,0,0-3.15-10.11,29.26,29.26,0,0,0-4.09-7.48,10.17,10.17,0,0,0-2.69-2.42,4.23,4.23,0,0,0-3.18-.55,6.52,6.52,0,0,0-3.14,2,19.15,19.15,0,0,0-3.77,5.68,63.4,63.4,0,0,0-3.6,9.94,144.71,144.71,0,0,0-3.09,15,163.25,163.25,0,0,0-1.73,17.36,218.68,218.68,0,0,0,.22,30.61c.31,3.77.59,7.54,1.07,11.29.42,3.29,1.11,6.54,1.64,9.82a80.64,80.64,0,0,0,3.22,12.63,36,36,0,0,0,4.58,9.63,10.28,10.28,0,0,0,3.49,3.26,3.78,3.78,0,0,0,3.79.11,9.17,9.17,0,0,0,2.61-2,24.3,24.3,0,0,0,2.87-4.24,51.69,51.69,0,0,0,3.29-8.12,119.1,119.1,0,0,0,3.81-16.78c.76-4.43,1.19-8.91,1.54-13.4C294.8,226.71,295.13,220.4,295.22,214.08Zm-.12-26.73h.25c0-.38.09-.76.1-1.15.12-3.1.23-6.21.35-9.31.22-5.67.41-11.35.68-17,.41-8.27.89-16.54,1.33-24.81.09-1.64.09-1.64-1.58-1.64H258.09c-.92,0-1,.08-1,1,0,.11,0,.21,0,.32q.42,8.19.83,16.37.51,10.69,1,21.4c.28,6.2.59,12.41.79,18.62.33,10.35.21,20.71-.15,31.06q-.57,16.06-1.18,32.11c-.23,5.86-.55,11.7-.81,17.55-.2,4.71-.36,9.42-.55,14.13-.07,1.58-.09,1.58,1.52,1.58h38.36c1,0,1-.11,1-1.06q-.33-7.44-.67-14.87c-.28-6.39-.58-12.77-.84-19.16-.2-5.14-.34-10.28-.52-15.41a6.29,6.29,0,0,0-.11-.74l-.23,0c-.2,1.62-.37,3.25-.61,4.87-.63,4.27-1.1,8.57-2.11,12.78-.67,2.81-1.33,5.63-2.13,8.4-.63,2.15-1.42,4.26-2.24,6.35a27.63,27.63,0,0,1-3.71,6.73,9.57,9.57,0,0,1-5.06,3.77,4.54,4.54,0,0,1-2.53,0,7.9,7.9,0,0,1-3-1.59,16.71,16.71,0,0,1-3.68-4.56,50.39,50.39,0,0,1-4.81-12.22,106.28,106.28,0,0,1-2.93-13.81c-.51-3.89-1.08-7.78-1.47-11.69-.35-3.55-.56-7.11-.71-10.68a171.85,171.85,0,0,1,0-21.41c.35-4.52.62-9.05,1.07-13.56.35-3.58.84-7.16,1.43-10.71a111.64,111.64,0,0,1,3-13.14A50.88,50.88,0,0,1,270.52,155a16.83,16.83,0,0,1,3.22-4.13c2.93-2.64,6-2.8,9-.32a15.76,15.76,0,0,1,3,3.57,43.78,43.78,0,0,1,4.87,11.26c.63,2,1.16,4.12,1.65,6.2.54,2.29,1,4.6,1.45,6.92s.68,4.8,1,7.2C294.82,186.25,295,186.8,295.1,187.35Zm-39.7-54.61c-1.27.22-1.35.31-1.35,1.44v31.18c0,2,0,2-2,2H204.93a5,5,0,0,0-1.17,0c-.23.06-.54.31-.56.51a6.09,6.09,0,0,0,0,2.55H253c.25,0,.5,0,.75,0,.86,0,1,.23,1.07,1.12,0,.17,0,.35,0,.53v26.14c0,.29,0,.57,0,.86a.83.83,0,0,1-.89.86H238.71a9,9,0,0,0-1.37.13c-.67.1-1.33.25-2,.33-1.35.16-2.7.27-4,.43a2.54,2.54,0,0,0-1.62.78h23.68c1.34,0,1.47.14,1.47,1.47a1.61,1.61,0,0,1,0,.22q0,13.11,0,26.24a2.77,2.77,0,0,1-.05,1,1.1,1.1,0,0,1-.62.63,14,14,0,0,1-2.93.45q-13.66,0-27.32,0a7,7,0,0,1-1.57-.25,2.09,2.09,0,0,0-1.63,0c-.09,1.32,0,1.49,1.28,1.5h31c.36,0,.72,0,1.07,0a.77.77,0,0,1,.8.82c0,.25,0,.5,0,.75v26.35c0,.18,0,.36,0,.54-.05.85-.25,1.05-1.11,1.08-.29,0-.58,0-.86,0h-23a7.42,7.42,0,0,0-1.69.19,6.93,6.93,0,0,1-3.17,0,9.48,9.48,0,0,0-1.91-.22c-3.6,0-7.21,0-10.82,0H200.88c-1,0-1,.06-1,1q.51,10,1,20c.06,1.15.12,1.19,1.26,1.21h51.85c1.59,0,1.59,0,1.66-1.6.22-5,.43-10,.66-15,.25-5.46.54-10.92.74-16.38.38-10.56.68-21.13,1.07-31.69.32-8.78.44-17.56.15-26.35-.21-6.21-.49-12.42-.74-18.62-.18-4.64-.34-9.28-.56-13.92-.24-5.21-.52-10.41-.8-15.62-.21-4-.45-7.91-.68-11.87C255.53,133.41,255.45,133.07,255.4,132.74Zm-82,118.71c.42-.28.67-.41.88-.58,2.8-2.33,5.59-4.67,8.39-7q6.65-5.5,13.3-11a1.68,1.68,0,0,0,.65-1.57q-.81-14.07-1.59-28.13c-.4-7.17-.82-14.33-1.22-21.5-.35-6.13-.68-12.26-1-18.39q-.57-10.44-1.16-20.86c-.2-3.53-.39-7.06-.59-10.59,0-.33-.1-.66-.17-1.08a4.82,4.82,0,0,0-.71.34c-.77.57-1.53,1.17-2.29,1.75l-10.21,7.8c-3,2.3-6,4.65-9,6.89-1.54,1.12-1.32.92-1.24,2.83a1.69,1.69,0,0,1,0,.32c0,.53.26.73.78.81a13.46,13.46,0,0,1,5,2.12,3.94,3.94,0,0,1,1.74,5.33,45.83,45.83,0,0,0-2.07,6.63c-.14.47-.21,1-.34,1.55a9.33,9.33,0,0,0,1,.09l8.46-.42c2.81-.15,5.63-.32,8.45-.46a1.78,1.78,0,0,1,.83.11c.71.32.87,2.79.21,3.19a2.31,2.31,0,0,1-.91.23c-1.22.14-1.22.13-1.14,1.39.11,1.63.23,3.27.3,4.91s0,1.5,1.59,1.56c.7,0,1,.25,1,1a14.27,14.27,0,0,1,.07,1.6c0,.75-.19.94-.95,1-1.11.08-2.21.13-3.32.19-4.85.25-9.7.48-14.55.74-1.67.09-1.74,0-1.81-1.65s-.06-1.65,1.62-1.89c.69-.1.79-.19.77-.89,0-1-.06-2-.11-3s-.12-2.07-.2-3.1c-.07-.75-.21-.87-.92-.88h-1.7a10.31,10.31,0,0,1-1.32,1.91,1.53,1.53,0,0,0-.58,1.37q.53,9.36,1,18.72.45,8.4.88,16.8.51,10.32,1,20.65.48,10,1,20C173.27,250.59,173.32,250.9,173.38,251.45ZM332.88,43.17c0-.52.07-.87.08-1.22,0-.85,0-1.71,0-2.57,0-1.2,0-1.19,1.11-1.61a10.84,10.84,0,0,0,1.54-.73c.16-.09.23-.36.34-.54-.16-.1-.22-.16-.28-.16l-10.28,0a1,1,0,0,0-1,.55,5,5,0,0,1-2.57,2,1.1,1.1,0,0,0-.79,1.23c0,.82,0,1.64,0,2.46,0,1.68,0,1.66,1.61,2.17,2.5.79,3.48,2,3.46,4.54-.07,13.21,0,26.42,0,39.64,0,.21,0,.42,0,.64,0,.93-.23,1.14-1.15,1.16-1.18,0-2.35,0-3.53,0s-1.21.08-1.23,1.21v14.14c0,1.93,0,1.93-2,1.94-.59,0-1.18,0-1.87.06,0,.47,0,.78.08,1.09q.45,3.93.92,7.87c.38,3.29.75,6.59,1.13,9.89s.67,6.32,1.09,9.47a3.62,3.62,0,0,1-4.78,3.79c-.3-.11-.59-.25-.89-.36a.72.72,0,0,0-1,.39,10.16,10.16,0,0,1-1.16,1.79,2,2,0,0,1-3.09.36,9.73,9.73,0,0,1-2.48-2.64,1.55,1.55,0,0,0-1.52-.78c-.72.05-1.43,0-2.15,0-.95,0-1.12-.14-1.21-1.1A35.4,35.4,0,0,1,301,134c.06-5.72.12-11.43.28-17.14.2-7.06.5-14.13.76-21.19.1-2.5.37-5,.3-7.49-.11-3.64-.45-7.27-.7-10.9s-.49-7.05-.74-10.58c-.23-3.24-.49-6.47-.69-9.72a17.26,17.26,0,0,1,0-3.52c.39-2.86.95-5.7,1.42-8.55a3.38,3.38,0,0,1,2.8-3,.92.92,0,0,0,.82-1c0-.64,0-1.29,0-1.93a1,1,0,0,1,.82-1.09,12.18,12.18,0,0,0,1.84-.83c.18-.09.26-.35.49-.66-.49,0-.8-.06-1.11-.06H291.16c-.48,0-.94,0-1.23.47A5.06,5.06,0,0,1,287.11,39c-.44.15-.55.5-.57.93a.77.77,0,0,0,.58.89c.31.1.6.23.9.35a2.15,2.15,0,0,1,1.38,1.24c.33.78.77,1.53,1.13,2.3q3.75,8,7.47,16a3.33,3.33,0,0,1,.21,1.35c0,2.5,0,5-.1,7.49a55.1,55.1,0,0,1-.54,5.75,33.57,33.57,0,0,0-.32,6.41q.27,5.57.51,11.12c.09,2.29.12,4.57.23,6.86.25,5.13.56,10.26.78,15.4.18,4.21.21,8.42.42,12.63a50.27,50.27,0,0,1,.09,6.61c-.33,4.06-.42,8.13-.6,12.2,0,.89.06,1,1,1,1.28,0,2.57,0,3.85,0a3.38,3.38,0,0,0,1.82-.48,4.12,4.12,0,0,1,4.64.1,2.78,2.78,0,0,0,1.4.36c2.93,0,5.86,0,8.79,0a3.35,3.35,0,0,0,1.91-.51,3.91,3.91,0,0,1,4.36,0,3.24,3.24,0,0,0,1.8.49h8.25a3.15,3.15,0,0,0,1.71-.47,4,4,0,0,1,4.55,0,2.4,2.4,0,0,0,1.39.43c.57,0,1.14,0,1.71,0,.95,0,1-.08,1-1.06q0-6.48,0-13a9.5,9.5,0,0,0-.13-1.07c-.86.33-1.57.62-2.3.88a10,10,0,0,1-4.14.92,92.26,92.26,0,0,1-10.58-1.63c-.72-.14-1-.45-.93-1.19.1-2.43.21-4.85.33-7.28.23-4.63.5-9.27.71-13.9q.42-8.84.75-17.66c.15-4,.52-8,.37-12-.13-3.34-.8-6.59-1.25-9.87s-1-6.27-1.54-9.4a16.33,16.33,0,0,1-.14-3.63c.21-3.35.36-6.7.54-10a3.1,3.1,0,0,0-.44-1.93,1.93,1.93,0,0,1,1.36-2.94,3.54,3.54,0,0,1,1.17,0C331.31,42.86,332,43,332.88,43.17ZM230.63,113.42c.13,5.54.26,10.86.39,16.17,0,1.14.27,1.45,1.42,1.58a25.88,25.88,0,0,0,2.78.14c5.53.07,11.07-.15,16.59.43a8.24,8.24,0,0,0,1.92-.07,1.7,1.7,0,0,0,1.56-1.75,18.51,18.51,0,0,0-.22-2.34c-.15-1-.4-2.1-.48-3.16-.46-6.63-.89-13.25-1.33-19.87-.38-5.74-.74-11.47-1.13-17.21-.43-6.37-1.2-12.71-2-19a1.72,1.72,0,0,0-.77-1.44,1,1,0,0,1-.36-.79c0-.43.47-.52.84-.46.56.09,1.11.24,1.67.36.92.18,1.15,0,1.06-.89a10.4,10.4,0,0,0-1.33-4.48A24.59,24.59,0,0,0,246.33,55c-2.42-2.11-5.14-3.84-7.48-6.07a3.23,3.23,0,0,0-3.06-.93,10.46,10.46,0,0,0-6.06,4.64,1,1,0,0,0,.05,1.27,1.35,1.35,0,0,1,.29,1.29,41.29,41.29,0,0,0-1,8.28c-.13,5.06-.12,10.13-.19,15.2a2.79,2.79,0,0,0,.51,1.7c1,1.38,1.82,2.82,2.82,4.17a2.29,2.29,0,0,1,.37,2.18,21.13,21.13,0,0,0-.82,3.65c-.37,3.48-.73,7-.89,10.45C230.67,105.07,230.69,109.36,230.63,113.42ZM104,46.45c1.1-.29,2-.52,2.88-.77A3.22,3.22,0,0,1,110.76,47a1.21,1.21,0,0,0,1.07.58h8.89A1.22,1.22,0,0,0,121.8,47a2.78,2.78,0,0,1,3.34-1.21,24.15,24.15,0,0,0,3.38.49,3,3,0,0,1,2.58,1c.47.6,1.14.39,1.55-.26a5.09,5.09,0,0,1,.81-1c.62-.59,1.26-1.16,1.92-1.7,3.19-2.63,6.49-5.06,10.74-5.68a4.08,4.08,0,0,0,.85-.43,5,5,0,0,1-.55-.28,1.54,1.54,0,0,1-.77-1.64c.16-.68.72-.92,1.34-1.07,1.94-.46,3.86-1,5.82-1.43A16.57,16.57,0,0,1,163.56,35c1.54.75,3.12,1.4,4.66,2.15s3.26,1.6,4.84,2.49c1.12.64,2,1.51,1.33,3l1.84,1.09a7.35,7.35,0,0,0,.1-.86q0-10.56,0-21.11a10.78,10.78,0,0,0-.12-1.12H105.3a2,2,0,0,0-.74,0,1.18,1.18,0,0,0-.55.53,1.81,1.81,0,0,0,0,.74q0,11.67,0,23.35C104,45.65,104,46,104,46.45Zm49.5,74.75v1.11c0,3.36,0,6.71-.06,10.07,0,1.21-.28,1.36-1.52,1.28s-2.42-.08-3.64-.1a1.5,1.5,0,0,0-.47.14c-.26,1.15-.28,1.16-1.41,1.18H134.11a8.24,8.24,0,0,1-.86,0,.64.64,0,0,1-.66-.69c0-1.39,0-2.79,0-4.18a.8.8,0,0,1,.81-.83,8.17,8.17,0,0,1,.86,0h7.17c1,0,1.07-.06,1.13-1,.12-2.1.2-4.21.28-6.31a3.11,3.11,0,0,0-.12-.69,1.53,1.53,0,0,0-.36-.11L105,121a4.67,4.67,0,0,0-.74.09s-.06,0-.09.06l-.18.16v17.36c0,1.14,0,2.28,0,3.42,0,.95.1,1,1.06,1h58.82c.25,0,.5,0,.75,0,.79,0,.92-.18.88-1s-.14-1.85-.2-2.77q-.5-8.72-1-17.43c0-.28-.08-.55-.12-.79A79.86,79.86,0,0,0,153.53,121.2ZM282.21,82.7c-.14-2.9-.41-7.1-.51-11.31a23.94,23.94,0,0,0-1.6-7.49c-.84-2.31-1.73-4.61-2.4-7-.75-2.68-1.29-5.41-1.9-8.13a2.2,2.2,0,0,0-.87-1.42c-.29-.2-.54-.46-.82-.68l-4.05-3.14a.79.79,0,0,0-1.14,0c-.71.58-1.12.41-1.29-.51a1.12,1.12,0,0,0-.58-1c-.86-.36-1.72-.7-2.59-1-.47-.17-.76,0-.82.55s-.14,1-.16,1.49c0,.78,0,1.56-.05,2.34-.1,1-.34,1.89-.42,2.85-.5,5.83-1,11.66-1.47,17.49a128.21,128.21,0,0,0-.86,13.56c0,.43,0,.86,0,1.29-.13,3.56-.28,7.13-.39,10.7a41.74,41.74,0,0,0,1.37,12.19,16.1,16.1,0,0,0,1.61,4.17,8.21,8.21,0,0,0,5.89,3.88c1.86.31,3.76.42,5.64.56a3.65,3.65,0,0,0,1.57-.24c1.62-.64,3.2-1.39,4.82-2a1.82,1.82,0,0,0,1.27-2.05c-.11-3.7-.17-7.41-.2-11.12C282.19,92.51,282.21,88.26,282.21,82.7Zm-127.3,97.16h-.86c-5.89,0-11.78,0-17.67,0-10.39-.1-20.78-.18-31.17.11-1.26,0-1.26,0-1.23,1.27,0,2.39.13,4.78.12,7.17,0,4-.07,8-.1,12,0,1.5,0,1.49,1.54,1.5,8.82,0,17.64,0,26.46,0,7,0,14.07.12,21.1.17,1.2,0,1.26-.06,1.29-1.27q.27-9.84.52-19.7C154.92,180.74,154.91,180.36,154.91,179.86Zm0-29.13,0-.26c-.35,0-.69-.06-1-.06H104.61a.58.58,0,0,0-.64.67c0,.25,0,.5,0,.75V171c0,1.48,0,1.49,1.47,1.49h48.2a3,3,0,0,0,.85,0c.24-.07.57-.23.63-.43s-.19-.52-.38-.63a2.56,2.56,0,0,1-1.25-3.21,12,12,0,0,1,1.17-2.49,2.6,2.6,0,0,0,.18-2.82,3.19,3.19,0,0,1,.19-3.63,2.6,2.6,0,0,0,.08-3,20.3,20.3,0,0,1-1.34-3.14,1.66,1.66,0,0,1,.75-2.13C154.65,150.9,154.81,150.82,155,150.73Zm-25.7,58.52v-.09H105.59c-1.39,0-1.43,0-1.49,1.45s-.11,2.64-.11,4c0,5,.05,10.06.08,15.09,0,1.62-.25,1.62,1.61,1.62l45.94,0c.25,0,.5,0,.75,0,.54,0,.78-.23.85-.74.13-1,.36-2,.4-3,.18-5.57.33-11.13.48-16.7,0-1.64,0-1.65-1.61-1.65ZM221,234.4c0,.4,0,.72,0,1,.21,2.27.46,4.55.64,6.82.1,1.17.1,2.35.13,3.53a1.55,1.55,0,0,1-1.16,1.59,16.82,16.82,0,0,1-4.66,1.14,15.39,15.39,0,0,1-7.05-.83,1.69,1.69,0,0,1-1.22-1.22c-.66-2.77-1.35-5.54-2-8.32-.23-1-.33-2-.54-2.95-.17-.79-.27-.87-1.09-.87-1.64,0-3.28,0-4.93,0a7.64,7.64,0,0,0-.91.12c0,.41,0,.76,0,1.11,0,.93.11,1.86.17,2.78.18,3,.35,5.92.53,8.88.06,1,.13,1,1.1,1l.64,0c2.43,0,4.86,0,7.28.08a14.41,14.41,0,0,1,3.59.52,25.58,25.58,0,0,1,7.63,3.79c1.48,1.06,3,2,4.53,3,1.16.77,2.35,1.5,3.44,2.36a10.43,10.43,0,0,1,2.22,2.28,1.69,1.69,0,0,0,1.61.91c7,0,14,0,21,0,.29,0,.57,0,.86,0a.57.57,0,0,0,.58-.63c0-.21,0-.42,0-.64V235.52c0-1.16,0-1.21-1.21-1.21h-30.1C221.77,234.32,221.43,234.36,221,234.4ZM303.25,20.66h-30c-4.14,0-8.28,0-12.42,0-1.13,0-1.22.08-1.23,1.22,0,3,0,5.92,0,8.89,0,.95.1,1.05,1,1.06,1.61,0,3.21,0,4.82,0a3.21,3.21,0,0,0,1.73-.43,3.37,3.37,0,0,1,3.66,0,3.42,3.42,0,0,0,1.94.46c3.35,0,6.71,0,10.06,0a3.49,3.49,0,0,0,1.84-.43,3.7,3.7,0,0,1,4,.09,2.83,2.83,0,0,0,1.42.32c4.32,0,8.64,0,13,0a3.06,3.06,0,0,0,1.63-.4,3.57,3.57,0,0,1,3.86,0,3.24,3.24,0,0,0,1.73.42q3.6,0,7.18,0a3.43,3.43,0,0,0,1.84-.44,3.57,3.57,0,0,1,3.86.07,2.56,2.56,0,0,0,1.3.35q3.27.06,6.54,0a3.53,3.53,0,0,0,1.51-.42,3.87,3.87,0,0,1,3.88,0,3.42,3.42,0,0,0,1.51.39c2.6,0,5.21,0,7.82,0,1.08,0,1.13-.07,1.14-1.17V22.1c0-1.44,0-1.44-1.5-1.44ZM127.75,238.75v0H105c-1,0-1.09.07-1.09,1q0,9.65,0,19.28c0,.22,0,.43,0,.64,0,.69.15.81.83.86s1.5.08,2.25.08l39.42.09c1,0,1-.09,1.23-1.08q1.28-6.74,2.56-13.46c.42-2.21.79-4.43,1.2-6.64.1-.52-.11-.74-.6-.76-.21,0-.43,0-.64,0Zm90-218.09H183.9c-.25,0-.5,0-.75,0-.83,0-1,.13-1,.93,0,3.11,0,6.21,0,9.32,0,.8.12.89,1,.93h.42c5.86,0,11.72,0,17.57,0a2.73,2.73,0,0,0,1.85-.64,3.77,3.77,0,0,1,4.83.14,1.67,1.67,0,0,0,1.35.49c1.72,0,3.43,0,5.14,0a2.43,2.43,0,0,0,1.66-.58,3.81,3.81,0,0,1,4.92.07,2.13,2.13,0,0,0,1.57.5c4.14,0,8.28,0,12.42,0a2.57,2.57,0,0,0,1.76-.59,3.85,3.85,0,0,1,4.93.09,1.79,1.79,0,0,0,1.35.49c3.11,0,6.22,0,9.32,0,1.13,0,1.19-.09,1.19-1.25,0-2.78,0-5.57,0-8.35,0-1.58,0-1.58-1.61-1.58Zm35.69,168v-.91q0-7.12,0-14.25c0-1.57.3-1.66-1.71-1.66H204.57c-.28,0-.57,0-.85,0-.73,0-.83.15-.92.9,0,.24,0,.49-.05.74-.24,3.14-.46,6.27-.73,9.4-.34,3.95-.72,7.89-1.08,11.84-.08,1,0,1.06.95,1.06h8.89a3.68,3.68,0,0,0,.74-.15c-.2-.39-.37-.69-.52-1-1-2.06-2-4.11-2.89-6.2-.38-.85-.14-1.25.8-1.44,1.88-.38,3.78-.74,5.69-1a6.35,6.35,0,0,1,2,.35,7.29,7.29,0,0,0,1.11.3,8,8,0,0,0,4-.8A17.34,17.34,0,0,1,227.4,184a17.54,17.54,0,0,1,11.43,2.32c.21.13.42.22.68.35a4.15,4.15,0,0,0,.37-.57,3.75,3.75,0,0,1,2-1.84c.85-.37,1.68-.79,2.5-1.23a2.8,2.8,0,0,1,2.76,0,16.86,16.86,0,0,0,2.16.88,3.24,3.24,0,0,1,2.44,2.31,1.63,1.63,0,0,0,.31.56C252.46,187.37,252.89,187.92,253.44,188.64Zm53.82-29.07c-1,1.27-1.92,2.39-2.69,3.61a7.68,7.68,0,0,0-1.31,4.13q-.3,37.33-.62,74.66c0,2,0,3.93,0,5.89a2.7,2.7,0,0,0,1.87,2.72,5.67,5.67,0,0,0,4.58-.28,3.21,3.21,0,0,0,1.19-1.44,3.86,3.86,0,0,0,.29-1.66c0-3,0-6.07-.15-9.1-.41-8.81-.88-17.62-1.33-26.42-.21-4.1-.41-8.21-.63-12.31-.39-7.13-.8-14.25-1.19-21.38a3.54,3.54,0,0,1,0-1.17,1.23,1.23,0,0,1,.63-.74c.41-.15.65.23.76.58a4,4,0,0,1,.1.85c.17,2.88.35,5.77.5,8.66q.69,13.47,1.37,27c.41,8.1.81,16.19,1.25,24.29.12,2.23-.18,1.89,2.2,2.19.88.12,1,0,1-.92-.26-5-.51-10.05-.8-15.08-.5-8.41-1-16.82-1.53-25.23-.4-6.84-.74-13.69-1.11-20.53-.17-3.07-.42-6.13-.52-9.2a15.3,15.3,0,0,0-1.33-6A7.08,7.08,0,0,0,307.26,159.57ZM205.81,36.65l-.08-.29c-.34,0-.69,0-1,0h-21c-1.52,0-1.52,0-1.52,1.54V78.55a.84.84,0,0,0,.66.87,8.85,8.85,0,0,1,3,1.65,1.08,1.08,0,0,0,1.44.06,12.56,12.56,0,0,1,2.37-1.2,11.7,11.7,0,0,1,5.38-.58,13.24,13.24,0,0,0,3.17.1c0-.65,0-1.21,0-1.77q-.39-12.3-.79-24.61a4.88,4.88,0,0,1,.62-2.65c1.48-2.68,2.91-5.4,4.39-8.08.42-.78.93-1.5,1.38-2.26a1.58,1.58,0,0,0,.16-.61c0-.32,0-.64,0-1,0-1,.09-1.08,1-1.42C205.21,37,205.51,36.8,205.81,36.65ZM43.38,46.3c5.24,0,10.49,0,15.74,0,1.17,0,1.26-.07,1.26-1.16q0-11.69,0-23.35c0-1.06-.09-1.13-1.18-1.13-5.57,0-11.14,0-16.71,0a1.76,1.76,0,0,0-1.67.88c-1.33,2-2.7,4-4.11,6a72.15,72.15,0,0,1-9.2,10.4,2.74,2.74,0,0,0-1.08,2.51,13.93,13.93,0,0,1,0,1.71c0,1,0,2,0,3s.11,1.13,1.18,1.15c.18,0,.36,0,.54,0ZM198.57,269.09c-.39.27-.63.41-.85.58L193.3,273l-9.88,7.53c-2.55,1.95-5.09,3.92-7.65,5.86a1.43,1.43,0,0,0-.65,1.35c.18,3,.29,6.07.49,9.1a16.53,16.53,0,0,0,.51,3.37,9.63,9.63,0,0,0,9.39,6.91c1.6,0,3.21-.08,4.81-.17a12.56,12.56,0,0,0,3.78-.7,9.59,9.59,0,0,0,6.2-9.45c-.26-4-.47-8-.7-12.08q-.42-7.38-.87-14.76A8.91,8.91,0,0,0,198.57,269.09Zm-41.18-159h4.82c1.37,0,1.42,0,1.36-1.36-.1-2.28-.18-4.56-.31-6.84s0-2-2.11-2.21a42,42,0,0,1-10.32-2.25,103.39,103.39,0,0,1-10.46-4.87,30.62,30.62,0,0,0-8.82-2.83,21.12,21.12,0,0,0-15.71,3.82,11.15,11.15,0,0,0-4.55,6.16,8,8,0,0,0,1,6.77,1.3,1.3,0,0,0,1,.71c1,.08,1.91.23,2.87.3a1.36,1.36,0,0,0,.88-.25q1.24-1,2.43-2.07a8,8,0,0,1,5.59-2.05,22.89,22.89,0,0,1,6.19,1.11,50.33,50.33,0,0,0,7.36,1.8c1.28.16,2.54.39,3.8.62a19.34,19.34,0,0,0,5.09.49,3.1,3.1,0,0,1,3.14,1.84,1.87,1.87,0,0,0,2,1.13C154.25,110.05,155.82,110.1,157.39,110.1Zm174-3.46h0q-.44,8.72-.85,17.44-.15,3.11-.25,6.21c0,.86,0,.93.82,1.07,2.71.46,5.43.86,8.14,1.3a8.1,8.1,0,0,0,4.4-.59l2.08-.84c.82-.34.89-.46.81-1.38-.16-1.7-.33-3.41-.47-5.12-.21-2.56-.37-5.13-.6-7.69-.51-5.51-1.06-11-1.58-16.52q-.3-3.15-.57-6.29c-.33-3.77-.63-7.55-1-11.32-.07-.86-.2-1-1-1q-3.92,0-7.83,0c-.76,0-.87.11-.91.86-.13,2.07-.26,4.13-.35,6.2Q331.78,97.82,331.38,106.64ZM215.82,158.4l0-.18a1.28,1.28,0,0,1,.37-.14c1.7-.19,3.39-.4,5.1-.53a66.6,66.6,0,0,1,11.12.15,11.09,11.09,0,0,1,3.28.89,1.55,1.55,0,0,1,.55,2.57,3.81,3.81,0,0,1-1.26,1,13.93,13.93,0,0,1-5.39,1.25c-4.42.26-8.84.51-13.26.62-3.92.1-7.85,0-11.78,0-.83,0-.92,0-1,.72-.18,1.1,0,1.31,1.15,1.32h36.19c2.77,0,2.86-.05,4.58-2.23.06-.08.13-.16.19-.25a7.48,7.48,0,0,0,1.41-5.67,7.86,7.86,0,0,0-3.41-5.11,18.39,18.39,0,0,0-7.66-3.13,76.15,76.15,0,0,0-11.56-1.48q-4.61-.17-9.2-.41c-3.11-.16-6.2-.37-9.3-.57-.73,0-.89.05-1,.67q-.25,2.67-.45,5.34c-.06.89,0,1,1,.92,1.71-.11,3.41-.24,5.13-.33a113,113,0,0,1,16.25.36,6,6,0,0,1,.84.17l0,.21H227c-2.28,0-4.56-.11-6.85-.15a123.74,123.74,0,0,0-14.53.76c-1.35.14-1.35.19-1.46,1.49-.16,1.7-.3,3.41-.44,5.12-.07.79,0,.94.85,1,1.11.06,2.21.11,3.32.13,6.79.17,13.56-.19,20.34-.49a35.12,35.12,0,0,0,5.18-.74,5.57,5.57,0,0,0,2-1,.62.62,0,0,0-.07-1.14,3.57,3.57,0,0,0-1.46-.6c-2.73-.3-5.46-.62-8.2-.75a47.45,47.45,0,0,0-8.34.27A12,12,0,0,1,215.82,158.4Zm-15.27,43.08a6.77,6.77,0,0,0,.38-.64c.28-.77.57-1.54.83-2.31.15-.44.37-.81.88-.79s.61.44.71.82c.17.58.29,1.18.48,1.75a49.31,49.31,0,0,1,2.15,6.94,22.88,22.88,0,0,1,.5,6.8c-.18,1.56-.45,3.11-.67,4.66a45.09,45.09,0,0,0,.23,13c.29,2.11.67,4.22,1.11,6.32.53,2.51,1.18,5,1.77,7.49a1.08,1.08,0,0,0,.88,1c1,.21,2,.5,3,.63a15.61,15.61,0,0,0,6.74-.82,1.08,1.08,0,0,0,.84-1.2c0-.64,0-1.28-.08-1.92q-.6-6.08-1.24-12.14a74,74,0,0,1,.24-20.91,12.33,12.33,0,0,0-.75-6.61,3.14,3.14,0,0,0-.59-.86c-.49-.57-1-1.11-1.5-1.67s-.66-1-1.12-1.26a7,7,0,0,1-2.18-2,1.27,1.27,0,0,0-1.11-.52c-.57,0-1.14,0-1.71,0h-8.46c-1.07,0-1.16.08-1.27,1.12-.07.71-.15,1.42-.2,2.13A6.74,6.74,0,0,0,200.55,201.48ZM3.63,27.15c.11.8.18,1.9.4,3a16.52,16.52,0,0,0,2.69,6.36,1.21,1.21,0,0,0,1.55.56l.61-.19A36.48,36.48,0,0,0,17.8,32.3a45.3,45.3,0,0,0,9.36-8.72,30.16,30.16,0,0,0,5.69-10.33,13.27,13.27,0,0,0,.62-4.43,1.21,1.21,0,0,0-.88-1.3c-.84-.28-1.66-.62-2.51-.9-5-1.64-9.84-.74-14.38,1.6a22.88,22.88,0,0,0-8.88,8.31A21.25,21.25,0,0,0,3.63,27.15Zm224.76,76.92a1.58,1.58,0,0,0-.29,0,.75.75,0,0,0-.3.09,3.82,3.82,0,0,1-3.35.64,2.8,2.8,0,0,0-.95,0,12.57,12.57,0,0,1-4.15-.12,3.43,3.43,0,0,0-1.06-.08,3.32,3.32,0,0,1-2.15-.44,2.35,2.35,0,0,0-.92-.22c-1.77-.17-2.31-.77-2.24-2.54a1.49,1.49,0,0,0,0-.42,4.44,4.44,0,0,0-.3-.57h-.25a10,10,0,0,0-.3,1.17c-.15,1.13-.26,2.27-.4,3.4-.37,3-.73,6-1.11,8.92q-.76,6.17-1.55,12.32c-.34,2.69-.69,5.38-1,8.07a6.72,6.72,0,0,0,0,.9c.33,0,.51.09.68.09q6.79,0,13.6,0a3.15,3.15,0,0,0,1.06-.13c1.5-.55,3-1.08,4.47-1.73a2.66,2.66,0,0,0,1.73-2.84c-.27-5-.35-10-.55-15-.14-3.5-.36-7-.55-10.48C228.46,104.78,228.42,104.44,228.39,104.07ZM282,45.58a9.89,9.89,0,0,0-1.19,4,25.43,25.43,0,0,0,.56,8.61,55.36,55.36,0,0,1,1.56,10.15c.67,9.26.76,18.54.72,27.82a25.71,25.71,0,0,0,.26,3.62,2.38,2.38,0,0,0,2.56,2.34,34.9,34.9,0,0,0,4,0,23.48,23.48,0,0,0,3.91-.57,1.89,1.89,0,0,0,1.5-2.51c-.55-3-1.13-6-1.58-9-.65-4.38-1.19-8.77-1.8-13.15-.75-5.48-1.41-11-2.52-16.39-.13-.64.06-1,.5-1.13s.75.16.91.83c.12.52.16,1.06.25,1.59.69,4.22,1.44,8.44,2.06,12.68.7,4.8,1.27,9.62,1.91,14.43a7.07,7.07,0,0,0,.66,2.23c0-2.15,0-4.29-.19-6.42a44,44,0,0,1,.27-10.88,7.74,7.74,0,0,0-.47-4.5c-1.63-3.81-2.67-7.83-3.92-11.77-.74-2.34-1.42-4.7-2.14-7.06a3.66,3.66,0,0,0-.29-.63c-.8.64-1.38.31-2-.28a18.78,18.78,0,0,0-1.76-1.57A20.27,20.27,0,0,0,282,45.58Zm-77.08,82.84a5.37,5.37,0,0,0-.77.08L198.48,130c-1.66.45-3.31.88-5,1.34-1.09.31-1.13.37-1.07,1.48.13,2.57.29,5.14.44,7.7.4,6.66.82,13.32,1.2,20,.46,8,.88,16.1,1.33,24.16q.63,11.39,1.3,22.76c.17,2.93.34,5.85.53,8.77,0,.39.11.77.16,1.15a1,1,0,0,0,.31-.64c.12-1.56.22-3.13.35-4.69q.57-6.88,1.15-13.76c.38-4.59.8-9.17,1.14-13.76.27-3.48.45-7,.68-10.47.07-1.06.19-2.13.32-3.19.09-.77.29-1.54.36-2.31.23-2.49.42-5,.62-7.47q.61-7.64,1.24-15.26c.21-2.45.43-4.9.64-7.36.26-3.09.53-6.18.78-9.28A3.89,3.89,0,0,0,204.92,128.42ZM277.44,132h19.05c.25,0,.5,0,.75,0,.63-.06.83-.25.78-.89s-.16-1.34-.28-2a15.18,15.18,0,0,0-2-5.4,18.55,18.55,0,0,0-8.34-6.79,23.63,23.63,0,0,0-7.54-1.9,24.58,24.58,0,0,0-13.6,2.46,17.21,17.21,0,0,0-7.51,6.92,15.4,15.4,0,0,0-1.75,6.88.62.62,0,0,0,.7.74h19.7ZM213.52,96.64A3.72,3.72,0,0,0,214,97a2.86,2.86,0,0,0,.58.29A15.11,15.11,0,0,0,222,98c.56-.11,1.14-.14,1.69-.27,1.14-.26,2.3-.5,3.41-.85a1.23,1.23,0,0,0,.86-1.52,18.11,18.11,0,0,1-.15-2.45c-.13-4-.23-7.92-.37-11.88a3.18,3.18,0,0,0-.27-1.34,7.54,7.54,0,0,1-.92-3.26,2.45,2.45,0,0,0-1-2.11,1.33,1.33,0,0,1-.62-1.29,2,2,0,0,0-1-1.94,6.09,6.09,0,0,1-2.53-5.8c.15-1.49.41-3,.61-4.45.35-2.64.59-2-1.43-3.5-2.54-1.9-5.21-3.63-7.59-5.75a4.58,4.58,0,0,0-.76-.47,8.85,8.85,0,0,0-2,6.84c.56,3.7,1.18,7.4,1.6,11.12.56,5,1,10,1.41,15,.26,3,.51,5.9.73,8.85C213.76,94.18,214.11,95.42,213.52,96.64Zm-64-35.09c.19-.35.37-.63.51-.93a13.28,13.28,0,0,1,7.77-7.25c2.81-1,5-.82,7.17,1.84a14,14,0,0,1,2.89,5.19,10.08,10.08,0,0,1-1,7.65c-.4.79-.86,1.54-1.25,2.22.71.75,1.34,1.45,2,2.12a2.27,2.27,0,0,0,.66.33,2.76,2.76,0,0,1,1.16,4.12c-.26.39-.58.73-.84,1.12a5,5,0,0,0-.3.68,4.46,4.46,0,0,0,.72.13c2.07,0,4.14,0,6.21,0,1,0,1.07-.13,1.07-1.15,0-5.86,0-11.71,0-17.57,0-2.32-.07-4.64-.14-7,0-.86-.16-1-1-1s-1.57-.11-2.36-.11l-30,0-10.39,0c-1.1,0-1.13,0-1.15,1.15V77.38c0,.22,0,.43,0,.64,0,.54.26.76.8.76,1.57,0,3.14,0,4.71,0,.17,0,.34-.14.63-.27-.3-.22-.49-.37-.69-.49A3.46,3.46,0,0,1,135,75.84a7.32,7.32,0,0,1,.32-5.33,4.57,4.57,0,0,1,4.58-2.9q1,.06,1.92.06a6.05,6.05,0,0,0,.82-.13l-.56-1a6.44,6.44,0,0,1-1-3.77A4.35,4.35,0,0,1,143.62,59a3.81,3.81,0,0,1,4.12.64A16.38,16.38,0,0,1,149.51,61.55Zm15.8,51.81c.48-.31.74-.47,1-.65.4-.31.77-.64,1.16-.95l6.91-5.59c1.94-1.58,3.86-3.17,5.8-4.74q4-3.27,8.1-6.5a1.42,1.42,0,0,0,.6-1.29c-.11-1.56-.16-3.13-.28-4.7a10.09,10.09,0,0,0-.39-2.1A9.9,9.9,0,0,0,178.06,80c-1.57.08-3.13.19-4.7.3a9.88,9.88,0,0,0-8,4.71A8.14,8.14,0,0,0,164,89.79c.06,2.39.21,4.77.35,7.16q.42,7.49.86,15C165.22,112.3,165.26,112.68,165.31,113.36Zm59,108.2.14-.37a3.34,3.34,0,0,1-.55-.33,1.43,1.43,0,0,1,.66-2.58,67.18,67.18,0,0,1,6.56-1.55,16.11,16.11,0,0,1,9,1c2.59,1.11,5.17,2.25,7.7,3.48a30.18,30.18,0,0,1,3.57,2.15,1.69,1.69,0,0,1,.75,2.05,2.91,2.91,0,0,0,0,.49l1.28.55c0-.53,0-.87,0-1.22q0-10.44,0-20.88c0-1.17,0-1.2-1.2-1.21H227.16c-.52,0-1,.18-1.57.24a5.85,5.85,0,0,1-1.25.09c-1.17-.08-2.34-.22-3.51-.31a2.84,2.84,0,0,0-.7.17,2.36,2.36,0,0,0,.07.49,10.12,10.12,0,0,1,.75,4.61c-.15,1.7-.33,3.41-.59,5.1a47.36,47.36,0,0,0-.39,8.33,3.18,3.18,0,0,0,.19.75ZM257.17,289a10.07,10.07,0,0,0,.11,1.34,20.39,20.39,0,0,0,.77,2.67,16,16,0,0,0,6.79,8.4,26.06,26.06,0,0,0,5.27,2.32,20.93,20.93,0,0,0,9.29.9c1.73-.25,3.44-.63,5.13-1.05a18.36,18.36,0,0,0,10.25-6.2,14.07,14.07,0,0,0,3.18-7.48c.09-.77,0-.92-.86-1H258.33C258,288.93,257.64,289,257.17,289ZM303.7,92.61c-.05.48-.1.9-.12,1.32-.2,4.53-.45,9-.59,13.58-.26,8-.46,16-.65,24,0,1.64.07,3.28.17,4.92.06,1.15.1,1.15,1.3,1.16,1.5,0,1.5,0,1.5-1.54V105a7.64,7.64,0,0,1,0-1c.06-.41.34-.7.73-.61a1,1,0,0,1,.61.61,3.12,3.12,0,0,1,.05,1.06q0,15.86,0,31.7a2.88,2.88,0,0,0,.15,1.36,10,10,0,0,0,2.55,3.13.73.73,0,0,0,1.12-.12,4.52,4.52,0,0,0,1.39-3.36q-.43-6.51-.88-13l-1.38-19.33c0-.43-.08-.85-.07-1.28s.2-.78.6-.74.56.35.78.59.08.34.09.52c.17,2.35.34,4.7.49,7,.24,3.67.47,7.34.71,11q.34,5,.7,10c.11,1.6.23,3.2.39,4.8,0,.29.16.72.37.81a7.8,7.8,0,0,0,2.22.72,1.93,1.93,0,0,0,2.08-1.85A5.53,5.53,0,0,0,318,136c-.19-1.77-.38-3.54-.58-5.32-.49-4.5-.94-9-1.48-13.51-.68-5.67-1.41-11.33-2.15-17-.3-2.26-.66-4.52-1-6.77-.15-1-.25-1-1.2-1l-7,0C304.32,92.51,304,92.57,303.7,92.61Zm24,111.66c0-10,0-19.93,0-29.89A2.14,2.14,0,0,0,326.3,172a3.06,3.06,0,0,1-.49-.22,2.42,2.42,0,0,0-2.8.31,9.38,9.38,0,0,1-1,.78,2,2,0,0,0-1.05,2q0,29.57,0,59.13c0,.29,0,.57,0,.86a.76.76,0,0,0,.63.86c1.18.23,2.36.5,3.56.66a4.81,4.81,0,0,0,1.58-.21c.75-.18.94-.44,1-1.19,0-.21,0-.43,0-.64ZM110.77,107c0-.17,0-.24,0-.31a1.51,1.51,0,0,0-.13-.29,8.67,8.67,0,0,1-.51-7.73,14,14,0,0,1,5.94-7A22.83,22.83,0,0,1,122.19,89a1.75,1.75,0,0,0,1.28-1.12A5.45,5.45,0,0,1,126,85.2a11.63,11.63,0,0,1,6.21-1.29,27.15,27.15,0,0,1,8.17,2,32.18,32.18,0,0,0,7.71,2.12,15.11,15.11,0,0,1,4.78,1.09,1,1,0,0,0,.42.09l3.1,0c1.75,0,3.49,0,5.24,0,.83,0,.89,0,1.06-.8A12.15,12.15,0,0,1,164.33,84a2.46,2.46,0,0,0,.18-.73h-1.37q-15.79,0-31.6.07c-8.75,0-17.5,0-26.25,0-1.24,0-1.27,0-1.27,1.26q0,12,0,24.1c0,.34,0,.67.07,1.06a30.09,30.09,0,0,1,3.17-1.75A30.53,30.53,0,0,1,110.77,107Zm12-49c-.25,0-.34,0-.38,0-.24.16-.48.32-.7.49a8,8,0,0,1-5.23,1.57,12,12,0,0,1-8.77-4.1,25.79,25.79,0,0,1-2-3c-.32-.48-.41-1.3-1.24-1.05s-.41,1-.43,1.49c0,1.6,0,3.21,0,4.81V77.49c0,1.09,0,1.11,1,1.2,5.67.51,11.34-.06,17,0,.48,0,.74-.21.74-.7v-.75L122.85,59C122.85,58.66,122.82,58.35,122.8,58ZM30.23,4.91c.1.17.12.26.18.28l.59.22a18.42,18.42,0,0,1,6.28,3.36A3.34,3.34,0,0,1,38.81,11a13.62,13.62,0,0,1-.18,3.19,24.49,24.49,0,0,1-3.08,7.72,56,56,0,0,1-7.26,9.78A36.39,36.39,0,0,1,17.9,40a16.66,16.66,0,0,1-5.12,1.82,4.74,4.74,0,0,1-4.26-1.21,19.15,19.15,0,0,1-3.73-4.53c-.22-.4-.32-1-1-1.09a2.3,2.3,0,0,0-.25.35A27.42,27.42,0,0,0,1.43,43a7,7,0,0,0,.34,3.17,3.31,3.31,0,0,0,2.4,2.37,8.71,8.71,0,0,0,2.44.22A15.78,15.78,0,0,0,12.82,47a48.31,48.31,0,0,0,8.43-5.44,77.24,77.24,0,0,0,10.06-9.58A74.15,74.15,0,0,0,40,20c2.24-3.87,4.22-7.85,4.83-12.37a9.44,9.44,0,0,0-.3-4.13A3.38,3.38,0,0,0,43.1,1.62a5.45,5.45,0,0,0-4.33-.55,27.19,27.19,0,0,0-8,3.34A4.63,4.63,0,0,0,30.23,4.91ZM346.56,113.82l.21,0c0-.64.1-1.28.1-1.91,0-1.82,0-3.64,0-5.46V37.33c0-.91-.11-1-1-1h-7.07a1,1,0,0,0-1,.48,5.28,5.28,0,0,1-2.73,2.13.92.92,0,0,0-.67,1v1.93c0,1.74,0,1.74,1.65,2.16,1.22.32,1.29.4,1.34,1.67a4.71,4.71,0,0,0,.42,2.07c1.65,3.2,3.25,6.42,4.83,9.66a5.11,5.11,0,0,1,.51,1.83c.2,3.46.34,6.92.49,10.38a6.26,6.26,0,0,1-.12,1,10.83,10.83,0,0,0-.2,1.25A160.44,160.44,0,0,0,344.38,90c.43,4.37.81,8.74,1.2,13.11.3,3.35.56,6.69.85,10A6,6,0,0,0,346.56,113.82ZM312.05,70.46H312c0-2.35.07-4.71,0-7.06a90,90,0,0,0-.8-12.06,11,11,0,0,0-3.66-6.72,1.9,1.9,0,0,0-1.59-.71c-.17,0-.38-.15-.55-.27-.64-.43-.82-.43-1.41,0A2.1,2.1,0,0,0,303,45c-.38,2-.88,4-1.15,6a27.66,27.66,0,0,0-.28,5.22c.25,4.81.64,9.61,1,14.42q.54,7.68,1.09,15.37c0,.33.05.65.1,1,.12.71.25.85,1,.85q3,0,6.1,0c.78,0,.91-.17,1-1,0-.28,0-.57,0-.85Q312,78.22,312.05,70.46ZM175.13,285a3.67,3.67,0,0,0,.51-.24l6.2-4.75,8.77-6.69c2.44-1.86,4.87-3.73,7.33-5.57a1.42,1.42,0,0,0,.64-1.45c-.09-.82-.13-1.64-.18-2.46-.15-2.53-.29-5.06-.45-7.59,0-.37-.12-.73-.19-1.19a3.14,3.14,0,0,0-.6.33q-6.09,5.07-12.15,10.17c-3.2,2.68-6.38,5.38-9.6,8a2.07,2.07,0,0,0-.91,1.89c.19,2.92.31,5.85.47,8.77A4.58,4.58,0,0,0,175.13,285Zm-7.92-138.3c.44-.26.72-.39,1-.57l8.26-6.3,7.41-5.63c2-1.56,4.07-3.13,6.12-4.68a1.8,1.8,0,0,0,.78-1.73c-.22-3.42-.39-6.84-.58-10.26A4,4,0,0,0,190,117a6.39,6.39,0,0,0-.68.43l-5.94,4.9q-8,6.66-16.09,13.29a1.72,1.72,0,0,0-.74,1.63c.19,2.81.33,5.62.5,8.44C167.05,145.91,167.13,146.18,167.21,146.69Zm60.06-82.1.26,0a1.26,1.26,0,0,0,.1-.38,58.1,58.1,0,0,1,.92-8.72,1.78,1.78,0,0,0-.15-1,2.19,2.19,0,0,1,.08-2.43c2-3.05,4.54-5.29,8.41-5.47.48,0,.73-.19.74-.68,0-.25,0-.5,0-.75,0-2.18,0-4.35,0-6.53,0-1,.12-1.13,1.05-1.48.32-.12.68-.18.78-.69a6.5,6.5,0,0,0-.66-.08q-8.24,0-16.48,0a1.44,1.44,0,0,0-1,.33,5.92,5.92,0,0,1-2.22,1.44,1,1,0,0,0-.74,1c0,1.6,0,3.21,0,4.82a1.23,1.23,0,0,0,.22.79c.64.55,1.34,1,2,1.53a7.5,7.5,0,0,1,1.2.83,5.71,5.71,0,0,1,1.63,4.17,4.64,4.64,0,0,0,.21,1.79,67.48,67.48,0,0,1,2.71,8.67C226.65,62.71,227,63.64,227.27,64.59Zm-107.65,43,.07.29c.33,0,.67.11,1,.15l5.73.73c.52.07,1,.18,1.14.8.08.38.37.49.72.49s.65,0,1,0a73.82,73.82,0,0,1,8,.22,7,7,0,0,1,5.68,4.18,14.94,14.94,0,0,1,1.24,5.93q0,2.73-.06,5.46c-.07,1.89-.22,3.78-.32,5.67a7.78,7.78,0,0,0,.06.94,3,3,0,0,0,.61,0,33,33,0,0,1,6.73-.35c.79,0,.88-.1.92-1a65.77,65.77,0,0,0-1.27-18,10.66,10.66,0,0,0-1.39-3.46c-.25-.36-.5-.69-1-.55a7.87,7.87,0,0,1-3.61-.12c-.94-.2-1.88-.39-2.82-.61-2.16-.49-4.31-1-6.47-1.48-2.4-.53-4.79-1.11-7.21-1.55a15.71,15.71,0,0,0-5.12-.12A6,6,0,0,0,119.62,107.63Zm54.46,156.11a2.2,2.2,0,0,0,.45-.14l4.39-3.58c3.1-2.57,6.19-5.16,9.29-7.72q4.22-3.48,8.45-6.91a1.67,1.67,0,0,0,.67-1.56c-.19-2.92-.33-5.84-.5-8.76a3.5,3.5,0,0,0-.26-.78c-.41.3-.73.51-1,.76-2.87,2.4-5.72,4.81-8.6,7.2-3.05,2.53-6.12,5-9.17,7.54-1.27,1.05-2.5,2.12-3.77,3.17a1.31,1.31,0,0,0-.51,1.21c.16,2.88.3,5.77.45,8.66A8.2,8.2,0,0,0,174.08,263.74ZM189,96.3c-.5.33-.77.48-1,.68-1,.77-2,1.55-2.92,2.34l-11.28,9.18q-3.76,3.07-7.56,6.12a1.66,1.66,0,0,0-.7,1.56c.19,2.77.32,5.55.49,8.32,0,.33.1.66.18,1.22l1.33-1.07,7.84-6.46q6.81-5.61,13.63-11.2a1.61,1.61,0,0,0,.64-1.48c-.16-2.28-.26-4.56-.4-6.84C189.14,98,189.05,97.28,189,96.3Zm19.14-4.91h0c0-.14,0-.28,0-.42a9.35,9.35,0,0,0-8.13-9.8c-2.08-.26-4.19-.4-6.29-.49a9.73,9.73,0,0,0-5.5,1.45c-.61.37-.67.56-.26,1.08a10.63,10.63,0,0,1,2.16,6.47c.07,2.21.21,4.42.35,6.63.06.91.21,1,1.05.83l8.83-1.63c2.28-.43,4.55-.87,6.83-1.28a.86.86,0,0,0,.83-.91C208,92.67,208.05,92,208.09,91.39ZM141.9,297.82c0,.13.08.44.21.49a3.41,3.41,0,0,0,1.31.29c.17,0,.34-.47.45-.74a5,5,0,0,0,.23-.94l1.71-9,1.56-8.2c.37-2,.73-4,1.11-6,.51-2.66,1-5.32,1.55-8,.38-2,.75-4.07,1.14-6.1.49-2.6,1-5.18,1.5-7.78.41-2.1.78-4.21,1.18-6.31.51-2.66,1-5.32,1.54-8,.35-1.85.65-3.72,1-5.58.66-3.36,1.36-6.71,2-10.07,1-5.26,2-10.52,3-15.78.63-3.33,1.3-6.65,1.93-10q1.53-8.1,3-16.2c.39-2.1.79-4.2,1.17-6.31,0-.23.05-.63-.06-.68a3.34,3.34,0,0,0-1.39-.39c-.44,0-.41.51-.47.85-.68,3.5-1.37,7-2,10.5q-.8,4.16-1.57,8.31c-.34,1.82-.65,3.65-1,5.47-.53,2.77-1.1,5.53-1.63,8.3-.42,2.17-.8,4.35-1.22,6.52-.49,2.59-1,5.18-1.49,7.78-.35,1.85-.66,3.72-1,5.58-.53,2.76-1.1,5.52-1.63,8.29-.41,2.1-.78,4.21-1.18,6.31-.5,2.63-1,5.26-1.52,7.88-.35,1.9-.67,3.8-1,5.69-.52,2.7-1.07,5.39-1.59,8.08-.43,2.21-.82,4.42-1.23,6.63-.35,1.86-.72,3.71-1.06,5.57s-.66,3.73-1,5.58c-.53,2.73-1.09,5.46-1.62,8.19-.42,2.17-.81,4.35-1.21,6.52C142.32,295.64,142.12,296.69,141.9,297.82ZM252.6,146.29c0-1.11,0-2.22,0-3.32a1.36,1.36,0,0,0-.63-1.27c-.65-.44-1.3-.89-1.93-1.35a36.27,36.27,0,0,0-10.81-5.74c-1.7-.53-3.47-.82-5.21-1.21-.32-.07-.65-.1-.83.28a6.79,6.79,0,0,0-.94,4.2,9.19,9.19,0,0,0,1.39,3.57c.69,1,1.43,2,2.14,2.94a5.87,5.87,0,0,1,1.3,3.22,1.06,1.06,0,0,0,.9,1.12,17.55,17.55,0,0,1,7.57,3.82.78.78,0,0,0,1.07.12,15.61,15.61,0,0,1,5-1.8c.83-.21,1-.35,1-1.26C252.61,148.5,252.6,147.4,252.6,146.29Zm86.09-89.43c-.2-.08-.27-.14-.32-.12-.42.08-.83.19-1.24.29-.69.15-1,0-1.22-.69a5,5,0,0,1-.14-1c-.19-1.74-.37-3.48-.57-5.22-.07-.63-.2-1.27-.3-1.9a.83.83,0,0,0-.74-.79l-3.51-.4a.55.55,0,0,0-.67.53c0,.28,0,.56-.05.85-.11,2-.23,4.06-.31,6.1a47,47,0,0,0-.13,5.56c.18,2.27.62,4.52,1,6.77.53,3.32,1.09,6.62,1.64,9.93.16,1,.21,1,1.24,1.05h7.82c.44,0,.81-.11.81-.63,0-1.35,0-2.71-.06-4.07a1.7,1.7,0,0,0-.22-.59c-.83-1.74-1.65-3.48-2.52-5.2a3.82,3.82,0,0,1-.45-1.84c0-2.54,0-5.07,0-7.61C338.74,57.56,338.71,57.18,338.69,56.86ZM152,78.85v-.08h6.42c1,0,2,.19,2.45-1a.31.31,0,0,1,.09-.07,4.45,4.45,0,0,0,1.86-2.89,2.22,2.22,0,0,0-.09-1.44,29.12,29.12,0,0,0-4.39-7.3,6.36,6.36,0,0,0-2.74-2,2,2,0,0,0-2.27.48,3.33,3.33,0,0,0-.92,3.25,10.27,10.27,0,0,0,.57,1.61c.29.65.68,1.26.94,1.92a1,1,0,0,1,0,.86c-.16.17-.57.13-.87.15a.52.52,0,0,1-.29-.12,25.36,25.36,0,0,0-6-2.37,24.31,24.31,0,0,0-7.2-.84,2.55,2.55,0,0,0-2,1,5.47,5.47,0,0,0-1.27,4.17,3.45,3.45,0,0,0,2.31,3.17,16.87,16.87,0,0,0,5,1.2C146.25,78.73,149.11,78.76,152,78.85Zm101.4-17.57c0-.53.07-.83.07-1.14q0-5,0-10,0-6.32,0-12.63c0-1.14-.09-1.23-1.21-1.23-3,0-6,0-9,0a1.75,1.75,0,0,0-1.18.32,5.76,5.76,0,0,1-2.21,1.44,1,1,0,0,0-.73,1.06c0,2.5,0,5,0,7.49a1.47,1.47,0,0,0,.44,1c1.83,1.54,3.67,3.05,5.56,4.51a26.62,26.62,0,0,1,7.57,8.31A8.86,8.86,0,0,0,253.36,61.28ZM207,130.58c-.81.15-.74.65-.78,1.09l-1,12.92c-.08,1,0,1.12,1,1.19,2.92.21,5.83.43,8.76.56,5,.22,10.06.27,15.06.92a9.15,9.15,0,0,0,1.21,0c-.45-.85-.78-1.51-1.15-2.14-.72-1.27-1.51-2.51-2.18-3.81a7,7,0,0,1-.48-5.3,2.84,2.84,0,0,0,0-.58c-.14,0-.21-.09-.27-.08a6,6,0,0,0-.59.22,11.53,11.53,0,0,1-4.32,1.16c-4.89,0-9.78,0-14.67,0-1,0-1.24-.32-1.11-1.34.16-1.21.33-2.41.47-3.61A11.39,11.39,0,0,0,207,130.58ZM167.31,260.65a5.35,5.35,0,0,0,.12-.55q.62-8.64,1.24-17.29c.08-1.07.12-2.14.15-3.21,0-.75-.1-.89-.86-.89-2.92,0-5.85,0-8.77,0-.86,0-1,.14-1,1q-.28,10.05-.56,20.11a4.9,4.9,0,0,0,.1.78Zm-8.76-29.45a6.41,6.41,0,0,0,.72.1l9.09,0c.86,0,.95-.08,1-1,.15-2.06.23-4.13.39-6.19a70.14,70.14,0,0,0,.14-11.32c-.08-.93-.12-1.86-.17-2.78,0-.49-.23-.82-.78-.81l-6.1.1a.74.74,0,0,0-.8.7c-.14.77-.3,1.53-.44,2.3-.54,2.88-1.07,5.75-1.61,8.62-.48,2.56-1,5.11-1.44,7.68A17.6,17.6,0,0,0,158.55,231.2Zm182-70.54c0,.5-.07,1-.07,1.41v60.07a.61.61,0,0,0,.66.67c.68,0,1.36,0,2,0s.78-.15.82-.84c0-.17,0-.35,0-.53V165c0-.35,0-.71,0-1.07A3.64,3.64,0,0,0,340.56,160.66ZM157.27,273.43h0q-.12,5.08-.23,10.17c0,1.08,0,1.15,1.14,1.15h6.32c1.29,0,1.31,0,1.41-1.29,0-.07,0-.14,0-.21q.67-10,1.34-20.08c.07-1,0-1.08-1.05-1.09-2.5,0-5,0-7.5,0-1.09,0-1.1,0-1.14,1.17C157.46,266.66,157.36,270.05,157.27,273.43ZM204.58,81.29c0-.47,0-.71,0-1q-.66-11.28-1.31-22.56a1.68,1.68,0,0,1,.06-.84,1.13,1.13,0,0,1,.68-.54c.18,0,.49.26.61.48a2,2,0,0,1,.16.83c.17,2.81.34,5.63.49,8.44q.42,7.81.83,15.62a2.25,2.25,0,0,0,.66,1.51A11.14,11.14,0,0,1,208,85c.39.62.71,1.29,1.14,2.11a2.1,2.1,0,0,0,.17-.65,19.73,19.73,0,0,0-.2-2c-.34-1.86-.72-3.71-1.06-5.57-.68-3.72-1.3-7.46-2-11.17a2.65,2.65,0,0,1,.52-2.38c.64-.8,1.18-1.67,1.84-2.63a9.64,9.64,0,0,0-1.41-.54,1.19,1.19,0,0,1-1-1.09c0-.28-.1-.56-.14-.84-.49-3.79-1-7.58-1.47-11.36-.19-1.42-.39-2.83-.61-4.24-.05-.33,0-.74-.49-.91a2.15,2.15,0,0,0-.18.24c-1.32,2.49-2.65,5-3.94,7.48a3.12,3.12,0,0,0-.31,1.44q.35,11.51.73,23c0,1,0,1.93.09,2.9,0,.77.18.86.92,1.09,1,.29,1.95.65,2.92,1C203.8,81,204.08,81.09,204.58,81.29Zm114-36.94a3.8,3.8,0,0,0-3.38,3.93c0,3.53.11,7.06.16,10.59l.57,45.71c0,.4,0,.79,0,1.18.07.73.18.82.94.85,1.85.08,1.85.08,1.85-1.74V45.78c0-.33,0-.65,0-1A1.93,1.93,0,0,0,318.62,44.35ZM163.11,70.68a7.18,7.18,0,0,0,1.71-2,9.55,9.55,0,0,0,1.28-9,12.45,12.45,0,0,0-3.23-4.6,3.2,3.2,0,0,0-2.69-.8,7,7,0,0,0-2,.44,11.87,11.87,0,0,0-7.81,10.1,2.14,2.14,0,0,1-.18.82,1,1,0,0,1-.65.43.77.77,0,0,1-.58-.37,3.47,3.47,0,0,1-.25-.92c-.19-.76-.34-1.53-.58-2.27a3.47,3.47,0,0,0-1.77-2.06,2.41,2.41,0,0,0-3.55,1.41,3.69,3.69,0,0,0-.13,2.3,9.49,9.49,0,0,0,1.47,3A2.92,2.92,0,0,0,146,68.3c1.51.4,3,.9,4.49,1.36.25.08.5.13.75.19.05-.17.1-.25.09-.3-.06-.24-.14-.48-.21-.72a5.3,5.3,0,0,1,.29-4.15A3.84,3.84,0,0,1,156,62.82a8.13,8.13,0,0,1,3,2,23.35,23.35,0,0,1,3.42,4.89C162.64,70,162.87,70.32,163.11,70.68Zm120.81,32.37a1.71,1.71,0,0,0-.12.47q0,4.86-.06,9.74c0,.75.14.83.93,1a33,33,0,0,1,3.78,1.15,16.5,16.5,0,0,1,8.31,7.08c.19.31.33.69.84.78,0-.45,0-.83,0-1.22-.23-4.27-.48-8.54-.71-12.82-.11-2-.18-3.92-.28-5.88,0-.33-.09-.66-.13-1A23.42,23.42,0,0,1,283.92,103.05ZM207.61,98.2h0c0-.6.1-1.21.12-1.82s-.14-.81-.82-.7l-.32.08-8.2,1.54c-2.28.42-4.56.83-6.84,1.27-1,.19-1,.22-.91,1.2.12,2.1.27,4.2.39,6.3.06,1,.07,2.07.14,3.1,0,.62.24.74.84.64a4.61,4.61,0,0,0,.73-.19c1.23-.35,2.46-.72,3.7-1.06l9.58-2.65c1-.27,1-.28,1.07-1.31ZM129.85,64.38h0c0-5.17,0-10.35,0-15.53,0-1-.34-1.3-1.27-1.14-.6.1-.7.59-.8,1a20.17,20.17,0,0,1-2.89,6.41,2.93,2.93,0,0,0-.47,1.6c-.06,6.86-.15,13.71-.21,20.57,0,1,0,2,.07,3,0,.74.2.92.89.92,1.32,0,2.64-.08,4-.13a.68.68,0,0,0,.72-.75v-16Zm59.74,44c-.39.28-.62.42-.83.6-1,.85-2.09,1.71-3.14,2.58-3,2.53-6.07,5.08-9.13,7.59s-6.4,5.25-9.62,7.85a1.76,1.76,0,0,0-.75,1.65c.13,1.56.18,3.13.27,4.7a7.86,7.86,0,0,0,.22.95c.57-.44,1-.77,1.45-1.12l9.47-7.86q5.94-4.92,11.88-9.82A1.57,1.57,0,0,0,190,114c-.12-1.57-.19-3.14-.29-4.71A8.79,8.79,0,0,0,189.59,108.33Zm7.72,138.48a7.78,7.78,0,0,0-.77.47q-2.23,1.83-4.46,3.67c-2.75,2.27-5.49,4.55-8.24,6.81q-4.54,3.74-9.1,7.45a1.52,1.52,0,0,0-.65,1.38c.11,1.67.17,3.35.26,5a3,3,0,0,0,.22.71,2.37,2.37,0,0,0,.46-.2c1.4-1.16,2.79-2.32,4.18-3.5L190.66,259c2.16-1.81,4.32-3.62,6.49-5.41a1.44,1.44,0,0,0,.6-1.29c-.1-1.53-.15-3.06-.24-4.59A5,5,0,0,0,197.31,246.81Zm140.8-63V163.58c0-.29,0-.57,0-.86,0-.44-.22-.64-.69-.57a3,3,0,0,0-2.82,3.23v39.39a.7.7,0,0,0,.78.8h1.5c1.14,0,1.22-.09,1.24-1.22V183.81ZM321.17,67.59V87.82c0,.22,0,.43,0,.64,0,.75.15.89.87.92.57,0,1.14,0,1.71,0,.8,0,.89-.13.92-1,0-.17,0-.35,0-.53V49.24c0-.25,0-.5,0-.75a1.8,1.8,0,0,0-1-1.77,6.78,6.78,0,0,0-1.05-.51c-1.25-.5-1.48-.33-1.48,1ZM314,91.73h.23a4.26,4.26,0,0,0,.14-.78c0-.93,0-1.86,0-2.79-.09-8.14-.16-16.28-.26-24.42Q314,56,313.84,48.19a4.5,4.5,0,0,1,2.57-4.45,22.06,22.06,0,0,1,2.36-1c.81-.27.89-.3.9-1.19s0-1.65,0-2.47a1.12,1.12,0,0,1,.89-1.26,11,11,0,0,0,1.75-.78c.17-.09.25-.35.39-.56-.21-.09-.3-.17-.39-.17-3.82,0-7.64,0-11.47,0a1,1,0,0,0-.95.57A3.21,3.21,0,0,1,308,38.56a1.75,1.75,0,0,0-1.35,2.25,1,1,0,0,1,0,.43,1.55,1.55,0,0,0,.83,1.58,11.69,11.69,0,0,1,4.47,6,23.51,23.51,0,0,1,1,5.47c.45,5.38.51,10.77.51,16.16,0,5.68-.07,11.36-.14,17A23.38,23.38,0,0,0,314,91.73Zm-108.11,25a5.2,5.2,0,0,0-.76.07c-.83.2-1.66.43-2.48.65L192.72,120c-.81.22-.87.29-.83,1.1q.2,4.11.42,8.22a5.61,5.61,0,0,0,.2.81c.31,0,.52-.06.72-.11l3.7-1c2.5-.7,5-1.42,7.51-2.09a1.07,1.07,0,0,0,.9-1.12c.17-2.81.4-5.61.59-8.42A3.71,3.71,0,0,0,205.87,116.7Zm-1.67,113a.63.63,0,0,0,.1-.29c0-.28,0-.57-.07-.85a36.37,36.37,0,0,1,.36-11,25.83,25.83,0,0,0,.48-6.91,26.56,26.56,0,0,0-1.69-7.26c-.17-.46-.38-.83-1-.81s-.7.41-.84.81a30.15,30.15,0,0,0-1.81,6.36c-.25,2.31-.48,4.62-.6,6.93-.2,4-.3,8-.45,12,0,.35,0,.69,0,1A19.49,19.49,0,0,0,204.2,229.71ZM35,9.31a2.67,2.67,0,0,0-.15.59,17.57,17.57,0,0,1-1.14,5.32,30.73,30.73,0,0,1-5.57,9.44,45,45,0,0,1-6.66,6.64A38.59,38.59,0,0,1,9.63,38a4.9,4.9,0,0,0-.78.49,16.56,16.56,0,0,1,1.5,1.23,2.07,2.07,0,0,0,1.77.55,13.18,13.18,0,0,0,4.3-1.23,26.57,26.57,0,0,0,6.4-4.24,50.06,50.06,0,0,0,11.34-13.7,24.55,24.55,0,0,0,3-7.84C37.53,11.36,37.26,10.63,35,9.31Zm127.25,89,.15-.31a5.81,5.81,0,0,0-.76-.65c-1.5-.9-3-1.8-4.53-2.64a7.37,7.37,0,0,1-2.84-2.53,3.85,3.85,0,0,0-2-1.81,19.66,19.66,0,0,0-2.58-.69c-1.36-.26-2.79-.29-4.11-.68-2.74-.79-5.43-1.72-8.13-2.65a17.39,17.39,0,0,0-7-1.08,8.11,8.11,0,0,0-4.46,1.64c-.32.25-.72.47-.66,1,.13.06.22.14.31.14a16.26,16.26,0,0,0,1.71,0c4.91-.42,9.37,1.14,13.71,3.16,2.49,1.15,4.89,2.5,7.36,3.68,1.32.63,2.71,1.09,4.09,1.59a38.58,38.58,0,0,0,7,1.59A14.89,14.89,0,0,0,162.24,98.34Zm126-61.75-.09-.21c-.34,0-.67-.06-1-.06H273.63c-.49,0-.95,0-1.22.5a5.33,5.33,0,0,1-2.73,2.13c-.19.07-.46.23-.48.38a6,6,0,0,0-.05,1.79c.06.3.47.58.78.78.66.43,1.41.72,2,1.19,1.46,1.15,2.86,2.37,4.29,3.55a2.58,2.58,0,0,1,.9,1.53q.72,3.35,1.45,6.69a8.77,8.77,0,0,0,1.17,3.25,3.42,3.42,0,0,0,0-1.11,22.23,22.23,0,0,1,.52-11.1,12.08,12.08,0,0,0,.46-2.62c.08-.88,0-1.78.07-2.67,0-.73.3-1,1-.88.42,0,.84.17,1.26.25s.91.18,1.37.24.75-.14.74-.65v-.65a1,1,0,0,1,.75-1,14.31,14.31,0,0,0,1.76-.75C287.9,37,288,36.77,288.22,36.59ZM210,188.19c.57.64,1,1.13,1.4,1.58a33.86,33.86,0,0,1,4.82,6,3,3,0,0,0,.81.82,3.78,3.78,0,0,1,1.47,2.16c.17.66.36,1.31.58,2,.34,1,.39,1,1.43,1,1.31.05,2.62.18,3.94.26a2.1,2.1,0,0,0,.83-.07,17.71,17.71,0,0,0,2-.83c.79-.4.82-.51.6-1.34a12.25,12.25,0,0,0-3.09-5.3,45.49,45.49,0,0,0-8.75-6.81,1.84,1.84,0,0,0-.9-.29A16.66,16.66,0,0,0,210,188.19Zm8.82-151.74a1.07,1.07,0,0,0-.32-.12c-3.14,0-6.28,0-9.42,0a1.27,1.27,0,0,0-.86.34A5.43,5.43,0,0,1,206,38.12a1,1,0,0,0-.68,1.09c0,1.17,0,2.35,0,3.53a4.19,4.19,0,0,0,.17,1c.84,3.1,1.68,6.2,2.54,9.29a7.34,7.34,0,0,0,.51,1.09c.29-.62.46-1,.64-1.37s.37-.77.57-1.16.77-1,.71-1.5-.64-1-1-1.4c-.58-.68-.63-.89-.12-1.59a9.59,9.59,0,0,1,3.94-3.22,3.52,3.52,0,0,1,2.91-.12,3.13,3.13,0,0,0,.67.12c0-.43.06-.77.06-1.12,0-1.43,0-2.86,0-4.29,0-.93.13-1.11,1-1.42C218.3,37,218.69,36.92,218.85,36.45Zm-12.12,70.73-2.89.82-11.64,3.2c-.72.2-.86.39-.82,1.15.08,1.82.17,3.63.28,5.45.05.92.24,1,1.15.75,1.92-.53,3.85-1,5.78-1.55,2.28-.59,4.55-1.19,6.83-1.76a.92.92,0,0,0,.81-.95c.15-2,.33-4,.49-6C206.75,108,206.73,107.71,206.73,107.18ZM156.63,240l-.25,0a1.23,1.23,0,0,0-.13.29c-.44,2.38-.88,4.77-1.3,7.16a21.3,21.3,0,0,0-.47,2.95c-.16,4.32-.28,8.64-.39,13-.19,7.38-.36,14.77-.55,22.16-.11,4.21-.25,8.42-.37,12.63a4.39,4.39,0,0,0,0,1,.71.71,0,0,0,.38.45c1,.37,1.58-.05,1.62-1.08,0-.14,0-.29,0-.43q.38-15,.76-30.09.34-13.44.72-26.87C156.7,240.77,156.65,240.4,156.63,240ZM227.27,74a10.07,10.07,0,0,0-.18-4c-.56-2.21-1.06-4.44-1.68-6.63-.86-3-1.75-6-2.74-9A8.37,8.37,0,0,1,222,51a4.74,4.74,0,0,0-.9-2.6,1.3,1.3,0,0,0-1.19-.77,1.13,1.13,0,0,1-1.11-.69,1.66,1.66,0,0,0-1.26-.87,3.12,3.12,0,0,1-1.35-.59,2,2,0,0,0-2.65-.14,15.34,15.34,0,0,0-2.28,1.75c-.78.7-.74.79,0,1.49a87.62,87.62,0,0,0,9.09,7.12c.83.56,1.62,1.18,2.42,1.77a1.33,1.33,0,0,1,.59,1.38c-.32,2-.54,4.1-.86,6.15a4.94,4.94,0,0,0,2.19,5.19,2.43,2.43,0,0,1,1.32,2.35C226,73.24,226.39,73.76,227.27,74Zm-49.1,232.36a2.34,2.34,0,0,0-.29-.52,10.94,10.94,0,0,1-3.69-8.56c0-1.75-.12-3.5-.21-5.25,0-.85-.15-1-.92-1q-2.73-.07-5.46-.09c-.72,0-.88.15-.94.88-.09,1.11-.1,2.21-.2,3.32a10.32,10.32,0,0,0,.93,5.31,9.43,9.43,0,0,0,6.06,5.49,14.31,14.31,0,0,0,2.86.3C176.87,306.29,177.42,306.31,178.17,306.34ZM157.54,170.11v0c.57,0,1.15,0,1.72,0a.73.73,0,0,0,.8-.55c.09-.27.15-.55.22-.83a44.92,44.92,0,0,0,1.05-7.84,34.29,34.29,0,0,1,.6-3.46l.21-1a2.4,2.4,0,0,0-1.35-2.86c-1.23-.55-2.54-.92-3.82-1.35a3.35,3.35,0,0,0-.84-.13c-.8-.05-1,.23-.83,1a2.74,2.74,0,0,0,.15.51c.35.79.64,1.6,1.05,2.34a3.26,3.26,0,0,1-.07,3.63c-.08.12-.13.26-.2.38a2.14,2.14,0,0,0-.1,2.33c.12.22.15.48.25.7a2.52,2.52,0,0,1,0,2.18c-.33.75-.75,1.46-1.06,2.22a5.73,5.73,0,0,0-.47,1.71c-.06.7.26,1,1,1S157,170.11,157.54,170.11Zm-5.61-58.47a35.9,35.9,0,0,1,1.36,7.22c.06.69.21.76,1.14.76H163c1.16,0,1.18,0,1.11-1.24-.11-1.92-.21-3.85-.32-5.77-.06-1-.1-1.09-1.13-1.1q-4.82,0-9.63,0A10,10,0,0,0,151.93,111.64Zm12.26,58.05a1.08,1.08,0,0,0,1,1.07c1.05.19,2.11.35,3.16.54.72.13.92.11,1.17-.56.67-1.8,1.38-3.6,1.88-5.44.61-2.23,1-4.54,2.1-6.59a3.25,3.25,0,0,0,.15-.4,2.57,2.57,0,0,0-1-3.28,13.25,13.25,0,0,0-3.79-1.91A3.48,3.48,0,0,0,168,153a.5.5,0,0,0-.62.55,5.38,5.38,0,0,0,.15,1.27c.17.65.41,1.29.6,1.94a3.57,3.57,0,0,1,.1,2.61,6.33,6.33,0,0,1-1,1.4,2.31,2.31,0,0,0-.51,2.56,3.06,3.06,0,0,1-.27,2.87c-.41.62-.9,1.19-1.31,1.81S164.52,169.11,164.19,169.69ZM159.88,47.26h13.17a6.29,6.29,0,0,0,1,0,1.11,1.11,0,0,0,1-.84c.22-1.07.12-2.21-1.58-2.2q-13.27,0-26.55,0a2.72,2.72,0,0,0-1.74.68,1.21,1.21,0,0,0-.4,1.35,1.23,1.23,0,0,0,1,1,5.35,5.35,0,0,0,1.06,0ZM117.49,58.67a7.21,7.21,0,0,0,4.73-2.47,18.86,18.86,0,0,0,4-7.23c.49-1.38.44-1.39-1-1.7l-.31-.08c-1.24-.28-1.75,0-2.19,1.21-.57,1.54-1.09,3.1-1.8,4.57a14.89,14.89,0,0,1-2.09,3.21,3.09,3.09,0,0,1-4.87.12,9.63,9.63,0,0,1-2.3-3.31c-.66-1.58-1.29-3.17-1.92-4.76A1.75,1.75,0,0,0,107.38,47c-.34.09-.68.23-1,.29-.61.11-.74.48-.62,1,.18.77.34,1.53.54,2.29C107.53,55.17,111.91,58.58,117.49,58.67ZM250.61,193.74c.63.11.82-.31.86-.74.12-1.24.24-2.48.26-3.73,0-.92-.15-1.07-1.12-1.37a.76.76,0,0,1-.6-1c.15-1-.08-1.31-1-1.64s-1.77-.74-2.66-1.07a1.54,1.54,0,0,0-1-.1A31.52,31.52,0,0,0,242,185.8a1.66,1.66,0,0,0-.35,2.71l.8,1a4.81,4.81,0,0,1,1,3.71,1.65,1.65,0,0,0,1.26,1.95,7,7,0,0,0,3.39.18,1.48,1.48,0,0,0,1.22-.92C249.69,193.63,249.71,193.64,250.61,193.74Zm-95.2,23.65.25,0c.05-.2.11-.39.15-.59.4-2.06.8-4.13,1.21-6.19a33.23,33.23,0,0,0,.69-5.72c.11-5.64.31-11.27.47-16.9q.19-7.44.38-14.87a4.1,4.1,0,0,0,0-.86,1,1,0,0,0-.39-.57c-.89-.42-1.53,0-1.57,1-.1,3-.22,5.92-.29,8.88q-.47,17.38-.89,34.77C155.4,216.69,155.41,217,155.41,217.39ZM228,261.08l.07-.28a4,4,0,0,0-.54-.62c-1.2-.94-2.39-1.92-3.65-2.78-2.44-1.67-4.92-3.3-7.41-4.91a17.7,17.7,0,0,0-6.62-2.61,43.14,43.14,0,0,0-9.5-.31c-.12,0-.22.13-.42.24a3.47,3.47,0,0,0,.58.54c3.15,1.64,6.32,3.13,10,2.87a7.67,7.67,0,0,1,5.21,1.89c1.87,1.44,3.68,2.93,5.55,4.36a6.85,6.85,0,0,0,5.15,1.67C227,261.07,227.49,261.1,228,261.08ZM270.69,36.37c-.5,0-.84,0-1.19,0H261c-1.4,0-1.43,0-1.44,1.44V58.43c0,2.21,0,4.43,0,6.64,0,.48.08,1,.12,1.46.21-.12.29-.25.3-.37.1-1.07.19-2.14.28-3.2q.6-6.68,1.21-13.33c.28-3.06.54-6.12.84-9.17.11-1.12.42-1.31,1.48-1s1.82.65,2.73.95a7.39,7.39,0,0,0,.91.17,5.22,5.22,0,0,0,.11-.66c.08-1.78.08-1.78,1.72-2.39A1.91,1.91,0,0,0,270.69,36.37ZM237.47,229.9h14.46a.69.69,0,0,0,.78-.69c.14-1.33-.33-1.93-1.72-1.92q-13.23,0-26.46,0a3,3,0,0,0-1.91.82c-.43.35-.34.84-.23,1.29s.53.51.93.52h14.15Zm-85.74,62.92h.11l.21-5.45c0-1.22,0-1.24-1.23-1.24h-1.93c-1.24,0-1.3.06-1.53,1.25-.42,2.17-.86,4.33-1.27,6.5-.27,1.43-.48,2.88-.74,4.31-.09.53.07.84.61.9,1.55.2,3.1.44,4.66.56,1,.08,1.1-.06,1.11-1.07C151.75,296.66,151.73,294.74,151.73,292.82ZM173.2,41.68a7.47,7.47,0,0,0-.81-.74c-.95-.57-1.89-1.16-2.88-1.63-2.15-1-4.34-2-6.51-3a15.26,15.26,0,0,0-7-1.52,35.1,35.1,0,0,0-7.86,1.5,3.9,3.9,0,0,0-.78.5c.22.14.3.21.39.25a14.59,14.59,0,0,0,5.62,1.18c1.78,0,3.56-.19,5.34-.35a4.64,4.64,0,0,1,3.05.71c1.5,1,3,1.86,4.6,2.71a9.6,9.6,0,0,0,3.93,1.32A3.47,3.47,0,0,0,173.2,41.68Zm51.85,178,0,.36a15.09,15.09,0,0,0,6.17,1.31c1.67,0,3.34-.22,5-.38a4.69,4.69,0,0,1,3.05.7c1.76,1.08,3.54,2.13,5.38,3.06a11.83,11.83,0,0,0,3,1,3.12,3.12,0,0,0,3-.88,4.53,4.53,0,0,0-1.95-1.55q-4.44-2.08-8.91-4.12a12.85,12.85,0,0,0-6.87-1.2c-2,.23-3.93.68-5.88,1.08A20.38,20.38,0,0,0,225.05,219.67ZM159.68,40a7.59,7.59,0,0,0-2.69-.39c-1,.08-2.07.14-3.1.16-1.57,0-3.14,0-4.71,0a16.22,16.22,0,0,0-5.78,1c-3.33,1.33-6,3.64-8.67,6a2.91,2.91,0,0,0-.37.68c.37,0,.58,0,.79,0a14.4,14.4,0,0,0,4.74-1.25A9.53,9.53,0,0,0,144,43.62a2.55,2.55,0,0,1,1.07-.68,8,8,0,0,1,3.9-.38,15.93,15.93,0,0,0,1.81.21,17.57,17.57,0,0,0,6-.31A4.27,4.27,0,0,0,159.68,40ZM321.1,237.22a5.92,5.92,0,0,0-.1.82q.17,7.11.35,14.23c0,.75.22,1.07,1,1.15a7.15,7.15,0,0,0,2.21-.11c1.35-.3,1.34-.36,1.3-1.72L325.39,239c0-.17,0-.38,0-.52s-.3-.53-.51-.57C323.63,237.63,322.41,237.44,321.1,237.22ZM168.2,179.45l-.22,0a1.69,1.69,0,0,0-.15.37c-.44,2.2-.88,4.4-1.3,6.61-.56,2.91-1.09,5.82-1.64,8.72-.36,1.9-.75,3.78-1.08,5.68-.21,1.22-.11,1.31,1.08,1.32h2.68c1.76,0,1.76,0,1.67-1.77l-.93-20.1C168.29,180,168.24,179.72,168.2,179.45Zm-3.9-7.18a6.11,6.11,0,0,0-.47-.52,2.41,2.41,0,0,1-.7-3,9.91,9.91,0,0,1,1.05-1.84c.33-.51.74-1,1.09-1.45a1.7,1.7,0,0,0,.22-1.64,3.56,3.56,0,0,1,.76-4,2.61,2.61,0,0,0,.19-.27,2.22,2.22,0,0,0,.31-2.31,10.26,10.26,0,0,1-.71-4.82,5.11,5.11,0,0,0,0-1.17c-.07-.68-.16-.79-.87-.8-2.53,0-5.06,0-7.6,0a3.81,3.81,0,0,0-.76.25,33.52,33.52,0,0,1,3.64,1.14c2.48,1.12,3.76,2.43,3.06,5.42-.28,1.21-.51,2.44-.69,3.67s-.14,2.21-.32,3.3c-.34,2.1-.76,4.2-1.16,6.29a1.48,1.48,0,0,1-.74,1.12c-.18.1-.27.37-.39.57a2.06,2.06,0,0,0,.7.31c.93,0,1.86,0,2.79,0A3,3,0,0,0,164.3,172.27Zm108.09-58.63a21.21,21.21,0,0,1-5.73-1.29,10.55,10.55,0,0,1-4.53-3.64c-1.13-1.62-1.57-3.53-2.29-5.36a2.46,2.46,0,0,0-.25,1c0,.75,0,1.5,0,2.25q0,6.1,0,12.21c0,.36-.15.78.37,1.18a18.36,18.36,0,0,1,5.59-4.19A43,43,0,0,1,272.39,113.64Zm-94.72,60.61h0c.06,1.07.11,2.13.19,3.2.07.92.21,1,1.13,1l6-.33c1.08,0,1.16-.12,1.1-1.2-.1-2-.23-3.92-.36-5.87-.05-.77-.15-.87-.92-.83-2.14.11-4.27.23-6.41.37-.76,0-.87.16-.85.91C177.54,172.4,177.62,173.33,177.67,174.25Zm68.26-8.39a5.22,5.22,0,0,0,.82.15c.75,0,1.5,0,2.25,0s1.78,0,2.67,0,.89-.12.93-.95c0-.25,0-.5,0-.75V152.87c0-.5-.24-.78-.73-.62-1.42.44-2.85.9-4.24,1.43-.54.2-.57.49-.31,1,.08.16.2.3.27.46,1.7,3.44,1.65,6.79-1,9.83C246.36,165.24,246.19,165.5,245.93,165.86Zm-4.61,24.56a4.26,4.26,0,0,0-3-2,14.78,14.78,0,0,0-5.74.22c-2.78.66-5.52,1.44-8.27,2.19a4.25,4.25,0,0,0-.76.41l.8.8a20.22,20.22,0,0,1,1.94,2,1.48,1.48,0,0,0,1.86.53c4.16-1.29,8.32-2.54,12.48-3.8A7.54,7.54,0,0,0,241.32,190.42Zm-73.27-110c-.51-.08-.77-.15-1-.16-1,0-2.06,0-3.1,0H132.55a2,2,0,0,0-.74,0,1,1,0,0,0-.56.51c-.2.78.09,1.13.9,1.16.18,0,.36,0,.54,0l21.62,0c3.64,0,7.28,0,10.92,0C166.39,81.88,167.06,81.15,168.05,80.37Zm60,115.68c.44,1.22.79,2.22,1.15,3.22.15.41.36.66.87.52a25.13,25.13,0,0,1,5.39-.71,4.39,4.39,0,0,0,2-.59,13,13,0,0,0,3.82-3.68,3.61,3.61,0,0,0,.73-2.19c0-.55-.18-.69-.74-.61a3,3,0,0,0-.52.13l-10.12,3C229.76,195.42,228.91,195.75,228,196.05ZM173.62,285.7h0c-.1-1.46-.19-2.92-.29-4.38,0-.46-.12-.9-.72-.84l-4.57.53a.74.74,0,0,0-.7.8c-.15,2.24-.33,4.48-.46,6.73-.05.8.08.93.9,1q2.52.09,5,.12c.81,0,.94-.12.9-.93C173.73,287.7,173.68,286.7,173.62,285.7ZM213.35,98.37a3.55,3.55,0,0,0,.35.95,2.71,2.71,0,0,1,.67,2.28c-.07.61.24.89.89.93.35,0,.83-.13,1,0a3.37,3.37,0,0,0,2.7.6,1.31,1.31,0,0,1,.42.11,8.36,8.36,0,0,0,4.33.09,2.41,2.41,0,0,1,1.13.06,1.82,1.82,0,0,0,2.18-.66,4.94,4.94,0,0,1,.77-.87.94.94,0,0,0,.38-.92c0-.71-.05-1.43-.11-2.14a2.54,2.54,0,0,0-.2-.61,37.62,37.62,0,0,1-7.19,1.3A18,18,0,0,1,213.35,98.37ZM152.59,262.22l-.27,0a4.31,4.31,0,0,0-.33.81c-.38,1.88-.74,3.78-1.1,5.67-.52,2.77-1,5.54-1.55,8.31-.43,2.28-.88,4.56-1.29,6.84-.15.82-.05.92.81.94s1.43,0,2.15,0c1,0,1.1-.1,1.13-1.09q.3-10.34.57-20.67A5.34,5.34,0,0,0,152.59,262.22Zm20,6a6.44,6.44,0,0,0-.84.11l-2.56.74c-.88.26-.9.26-1,1.14q-.31,4.2-.62,8.41c-.06.85.09,1,1,.91,1.21-.13,2.41-.26,3.61-.43,1-.15,1.05-.18,1-1.2-.14-3-.3-6-.45-8.95A6.81,6.81,0,0,0,172.61,268.26Zm-8.79-35.59v.05c-1.5,0-3,0-4.49,0-.76,0-.89.12-.93.85-.05.93-.08,1.86-.08,2.78s.14,1,.93,1q4.4,0,8.79,0c.78,0,.93-.16,1-.94s.1-1.78.13-2.67-.07-1-.95-1Zm56.4-5.11.34.16c.25-.22.49-.44.75-.64a7.21,7.21,0,0,1,1.55-1.08,8.19,8.19,0,0,1,3.69-.36c2,.18,4.06.23,6.09.22a5.58,5.58,0,0,0,2.28-.51,7.22,7.22,0,0,0,1.94-1.46c.53-.52.33-1-.43-1.09a7.38,7.38,0,0,0-1.49-.13c-2.67,0-5.35.08-8,.19a32.23,32.23,0,0,0-4,.46,12.47,12.47,0,0,0-2.33.77c-.19.08-.44.34-.44.52C220.11,225.59,220.18,226.58,220.22,227.56Zm19-94.79-.07.25,1.14.5a43.78,43.78,0,0,1,4.49,1.95c2.32,1.31,4.53,2.81,6.79,4.22.25.16.52.3.87.5a5.6,5.6,0,0,0,.12-.76q0-2.56,0-5.13c0-1-.1-1.08-1.09-1.17a112.9,112.9,0,0,0-11.63-.41C239.67,132.72,239.47,132.75,239.26,132.77ZM194.94,34.92h11.24a2.65,2.65,0,0,0,.85,0,1,1,0,0,0,.55-.52c.19-.69-.14-1-.88-1.09h-23a6,6,0,0,0-.74,0c-.58.06-.73.24-.74.83s.14.74.75.79a8.23,8.23,0,0,0,.86,0ZM327.25,170.83a13.65,13.65,0,0,0-.2-1.38c-.69-2.72-1.41-5.44-2.1-8.16-.22-.86-.36-1-1.36-1s-1.11.14-1.22,1c-.41,3.14-.79,6.28-1.17,9.42a3.27,3.27,0,0,0,.09.64,26.1,26.1,0,0,1,2.83-1.23C325.15,169.82,326.1,170.46,327.25,170.83ZM168.47,267.55c.18.09.26.16.31.14,1.06-.27,2.13-.54,3.19-.84.49-.14.57-.55.55-1-.18-2.8-.3-5.61-.5-8.42-.12-1.65.08-1.58-1.76-1.57-1.07,0-1.07,0-1.14,1q-.33,4.85-.64,9.7C168.45,266.92,168.47,267.26,168.47,267.55Zm67.42-80.91c-.23-.22-.3-.33-.38-.36a15.1,15.1,0,0,0-10.37-.27c-1.55.54-3.06,1.16-4.6,1.74-.31.12-.63.22-1.14.39.87.64,1.55,1.19,2.29,1.65a1.26,1.26,0,0,0,.92,0c.93-.23,1.84-.54,2.77-.79,3.2-.83,6.33-2,9.68-2.19A4.75,4.75,0,0,0,235.89,186.64Zm17.53,4.7h-.1a22.87,22.87,0,0,1-.62,2.37c-.16.45-.47,1.05-.84,1.17a11.53,11.53,0,0,0-2.62,1.57,1,1,0,0,1-.3.12,7.9,7.9,0,0,1-5.23-.32,11.4,11.4,0,0,1-1.12-.67l-2.66,2.95c.48.05.71.09.95.09h11.89a.6.6,0,0,0,.65-.68c0-.46,0-.93,0-1.39Zm-21.7-58.2a3.65,3.65,0,0,0-2.3,1.28,8.18,8.18,0,0,0-.59,5.32,16,16,0,0,0,1.63,3.23c.74,1.34,1.41,2.71,2.13,4.06.14.26.37.59.61.65.75.19,1.53.27,2.3.4a1.2,1.2,0,0,0,0-1.29,15.08,15.08,0,0,0-1-1.65,43.42,43.42,0,0,1-2.56-3.69,8,8,0,0,1-.48-7.5A4.86,4.86,0,0,0,231.72,133.14Zm-.15-98.22h8.24c.29,0,.57,0,.86,0a.69.69,0,0,0,.72-.75.77.77,0,0,0-.74-.87,6.26,6.26,0,0,0-.75,0H223.53a6.21,6.21,0,0,0-.75,0c-.54.06-.69.29-.68.88s.2.74.69.74h8.78ZM170.89,233.81l-.23,0c0,.25-.08.49-.09.73-.14,2.1-.26,4.2-.4,6.3q-.4,6-.83,12c-.12,1.69-.15,1.69,1.52,1.66,1,0,1.09-.05,1-1.1q-.42-9.19-.86-18.39A11.16,11.16,0,0,0,170.89,233.81Zm39.29-128.45a1.89,1.89,0,0,0-.36-.09,1.73,1.73,0,0,0-.32,0c-1.05.14-1.07.17-1.19,1.26-.08.78-.17,1.57-.23,2.35q-.65,7.84-1.28,15.69c-.1,1.28-.22,2.56-.29,3.84,0,.19.2.39.31.58.18-.13.46-.23.53-.41a4,4,0,0,0,.18-1.05c.21-1.91.38-3.84.62-5.75.66-5.13,1.35-10.26,2-15.39A7.46,7.46,0,0,0,210.18,105.36Zm80.22-72c-.1,1.45,0,1.59,1.28,1.59h16.5c.36,0,.74,0,.81-.49a1,1,0,0,0-.67-1.09,4.39,4.39,0,0,0-1-.06H291.51C291.16,33.28,290.81,33.31,290.4,33.33ZM162.8,180.12c-.17-.1-.25-.2-.34-.21-.5,0-1,0-1.5,0-1.13,0-1.14,0-1.17,1.12,0,1.89-.1,3.78-.16,5.67-.09,2.85-.19,5.71-.28,8.56a1.78,1.78,0,0,0,.34,1.43C160.75,191,161.78,185.55,162.8,180.12Zm3.2,27.72v-.09h2.67c.84,0,1-.13.93-.92s-.06-1.63-.12-2.45-.17-.82-.83-.83c-1.53,0-3.06,0-4.59,0a.73.73,0,0,0-.83.65c-.19,1-.42,1.94-.6,2.92-.11.58,0,.73.7.75C164.22,207.86,165.11,207.84,166,207.84ZM272.94,33.32c-.21,1.38-.06,1.58,1.07,1.6H287.7a2.59,2.59,0,0,0,.74,0,.72.72,0,0,0,.41-.41.94.94,0,0,0-.8-1.17,4.58,4.58,0,0,0-.74,0H274.05C273.7,33.28,273.35,33.31,272.94,33.32ZM155.14,90.71a5.17,5.17,0,0,0,2,2.46c1.71,1,3.4,1.94,5.11,2.9a3.76,3.76,0,0,0,.71.19c-.12-1.71-.23-3.31-.35-4.9,0-.53-.38-.73-.87-.74-1.7,0-3.41-.06-5.12-.07A13.17,13.17,0,0,0,155.14,90.71Zm-17,42.85h3.2c.93,0,1-.07,1-1q0-.48,0-1c0-1,0-1.1-1.07-1.1H136c-2.2,0-2.05-.33-2,2.19,0,.7.11.81.81.82C135.91,133.57,137.05,133.56,138.18,133.56ZM282.26,41.25c0,.83-.05,1.39-.1,2a1.12,1.12,0,0,0,.7,1.19,29.91,29.91,0,0,1,4.86,3.49,8.12,8.12,0,0,0,.77.46c.07-.47.11-.8.17-1.12s0-.65.22-.79c.66-.53.41-1,.1-1.6s-.42-1-.65-1.47c-.32-.68-.77-.87-1.68-.73a2.46,2.46,0,0,0-.09.39c0,.48-.17.88-.72.88s-.65-.45-.66-.91c0-.14.05-.31,0-.42s-.26-.56-.46-.63C284,41.68,283.22,41.51,282.26,41.25ZM212.28,259c-.32,0-.6-.06-.88-.06h-6.74c-1.39,0-2.78,0-4.17,0-.77,0-.88.15-.86.88s.14.88,1,.89c3.5,0,7,0,10.49,0C212.22,260.72,212.48,260.33,212.28,259ZM318.89,150.52h6.86c.4,0,.82,0,.85-.57a1,1,0,0,0-.77-1,4.66,4.66,0,0,0-.75,0H312.34c-.91,0-1.2.44-.88,1.19.21.48.62.41,1,.42Zm-2-115.6h5.67c.35,0,.86.06.88-.38a2,2,0,0,0-.46-1.12c-.11-.14-.47-.14-.71-.14h-11c-.82,0-1.12.54-.74,1.26.23.45.65.38,1,.38Zm18.55,115.6h4.8c.65,0,1.29,0,1.93,0s.81-.35.63-.93-.43-.67-1.28-.67h-7.8c-1.6,0-3.21,0-4.81,0-.83,0-1.08.39-.84,1.15.16.52.58.45,1,.45ZM206,256.39h5.57c.38,0,.73,0,.8-.47a.71.71,0,0,0-.68-.89c-1.49-.19-3-.44-4.46-.5-2.29-.08-4.57,0-6.86,0-.91,0-1.07.21-1,1.09.08.66.19.76,1,.77Zm-43.27-178,.08.3c.94,0,1.88.08,2.83.07a1,1,0,0,0,.62-.36c.66-.75,1.31-1.51,1.91-2.3a1.22,1.22,0,0,0,0-1.66,1.71,1.71,0,0,0-.72-.43,2,2,0,0,1-1.39-1.2,1.53,1.53,0,0,0-.75-.69c-.67-.3-1.2.15-1.1.88.08.56.23,1.11.31,1.68a3.33,3.33,0,0,1-1.12,3.17Zm129-27.45-.3.1c.08.33.15.67.25,1,.66,2.14,1.33,4.28,2,6.43.78,2.51,1.55,5,2.35,7.54.06.18.26.32.39.48l.23-.07c0-1.59.06-3.19.05-4.78a2.29,2.29,0,0,0-.33-.9q-2.06-4.46-4.13-8.91C292.13,51.48,291.93,51.2,291.77,50.91ZM214.14,255.66l-.31.15v5.31h2.26c.79,0,1.57,0,2.36,0a5.14,5.14,0,0,0,2.29-.18ZM330.75,34.92h5.14c.36,0,.74,0,.83-.48a1,1,0,0,0-.76-1.13,1.12,1.12,0,0,0-.32,0H325.7c-.75,0-.92.29-.8,1s.48.63.94.62ZM214.86,33.27h0c-1.64,0-3.28,0-4.91,0-.76,0-.9.14-.95.72s.12.9.83.91c1.64,0,3.28,0,4.91,0s3.35,0,5,0c.8,0,1.13-.5.88-1.17-.18-.46-.57-.48-1-.48Zm56.43,1.59c.09-1.25-.15-1.58-1.15-1.58-3.18,0-6.35,0-9.53,0a1.72,1.72,0,0,0-.32,0c-.51.08-.69.34-.68.9a.66.66,0,0,0,.73.73h9.85C270.54,34.92,270.89,34.88,271.29,34.86ZM119.55,52.08a28.32,28.32,0,0,0-6.51,0,6.11,6.11,0,0,0,2.66,3.76,1.43,1.43,0,0,0,1.68-.26A10.64,10.64,0,0,0,118.77,54,3,3,0,0,0,119.55,52.08ZM248.07,34.92h1.82c.85,0,1.71,0,2.56,0s1-.22,1-.83-.23-.77-1-.81h-8.33a2.26,2.26,0,0,0-.74,0,.86.86,0,0,0-.5.45c-.25.75,0,1.15.84,1.16Zm92.41,21.61-.23,0c0,.3-.08.6-.08.9,0,2.32.09,4.64,0,7a7.18,7.18,0,0,0,1.15,4,2.33,2.33,0,0,0,.45.42c.06-.2.13-.3.12-.39-.06-3.11-.1-6.21-.22-9.31A6,6,0,0,0,340.48,56.53Zm-36.19,94h2.35c.82,0,1.64,0,2.46,0s.92-.4.7-1.07-.7-.53-1.15-.53h-8.77a1.14,1.14,0,0,0-.53,0c-.22.14-.49.32-.56.54-.21.65.07,1,.79,1C301.15,150.53,302.72,150.51,304.29,150.51ZM159.94,178.34a8.09,8.09,0,0,0,2.77.07.88.88,0,0,0,.55-.56c.22-1,.38-2.1.54-3.15.08-.49-.15-.74-.65-.74-.81,0-1.63,0-2.44,0a.68.68,0,0,0-.77.7C159.93,175.83,159.94,177,159.94,178.34ZM122,109.73c-.39-.08-.79-.2-1.19-.25-2.48-.32-5-.65-7.44-.92a10.84,10.84,0,0,0-5.87.8,3,3,0,0,0-.54.46C108,110.13,121,110.13,122,109.73ZM229.44,95.2l.24,0a1.71,1.71,0,0,0,.09-.3,48.33,48.33,0,0,1,1.43-8.62,1,1,0,0,0,0-.73c-.58-1-1.23-1.88-2-2.94a2.91,2.91,0,0,0-.25.66C229.06,87.27,229,91.25,229.44,95.2ZM211.68,97a3.7,3.7,0,0,0,.75-2.32c-.11-.88-.2-1.77-.27-2.66q-.53-6.18-1.06-12.36a4.34,4.34,0,0,0-.17-.69C210.42,81.23,211.05,95.63,211.68,97ZM253.4,81.53c0-.1,0-.21,0-.31q0-6.25,0-12.52c0-.14,0-.29,0-.43a.68.68,0,0,0-.64-.72c-.37,0-.74,0-1.24,0C252.11,72.31,252.42,77,253.4,81.53ZM120.81,49a3,3,0,0,0-.46-.11h-7.9c-.75,0-.88.25-.63.93a1,1,0,0,0,1.07.68c2.2,0,4.41,0,6.61.06C120.51,50.56,120.74,50.28,120.81,49ZM304.18,89.39a4,4,0,0,0-.12.53c-.07,1,.05,1.2,1.09,1.2,1.92,0,3.85,0,5.78,0,.75,0,.86-.16.88-.88s-.15-1-1-1q-3,0-6,.06A3.16,3.16,0,0,0,304.18,89.39Zm38.27-56.12h0c-1.17,0-2.35,0-3.52,0-.71,0-.86.26-.74.94a.76.76,0,0,0,.9.69h6.84c.77,0,.93-.19.91-.84s-.17-.79-1-.8C344.73,33.26,343.59,33.27,342.45,33.27ZM181.29,169v0l8-.42c.34,0,.85.07.85-.41s-.5-.33-.83-.36h-.11l-15.26.76a3.41,3.41,0,0,0-.85.09c-.16.05-.26.27-.39.41a3.82,3.82,0,0,0,.48.34c.08,0,.21,0,.32,0Zm-5.14,11.8v-.12l13.79-.72c.35,0,.95.13.91-.43s-.61-.36-1-.34l-15.5.78a1.55,1.55,0,0,0-.53,0c-.2.08-.51.23-.53.38-.06.4.29.4.58.41ZM337.32,80.57c1.21,0,2.43,0,3.64,0,.79,0,1-.15,1-.61s-.24-.66-1.09-.68h-7.17c-.21,0-.43,0-.64,0s-.56.25-.49.57a1.08,1.08,0,0,0,.45.63,1.44,1.44,0,0,0,.73.07ZM208.53,103.88c1.62.08,1.82-.08,1.75-1.41q-.21-4.17-.47-8.34a5.32,5.32,0,0,0-.14-.78h-.24C209.13,96.84,208.83,100.32,208.53,103.88Zm-7.11,129.06h2.47c.43,0,.78-.09.78-.64s-.24-1-.81-1c-1.72,0-3.43,0-5.14,0-.51,0-.68.28-.66.76,0,.66.22.88.9.9S200.6,232.94,201.42,232.94ZM159.69,42.62a17.79,17.79,0,0,0,5.87,0l-4.1-2.46Zm49.05,31.29h.19a6.45,6.45,0,0,0,.14-.88,44.25,44.25,0,0,0-.38-8.22c-.64.86-1.36,1.51-1.16,2.65.34,2,.66,3.94,1,5.9A3.19,3.19,0,0,0,208.74,73.91ZM336.86,49.15l-.28.06a8.42,8.42,0,0,0,0,.87c.18,1.44.37,2.89.55,4.33,0,.14,0,.28.07.42a.55.55,0,0,0,.79.47c.52-.17,1-.39,1.63-.62C338.64,52.79,337.87,50.91,336.86,49.15ZM237.21,225.82a45.35,45.35,0,0,0,5.83,0l0-.23-4-2.37Zm-89.36,75.61.05-.38a8,8,0,0,0-1.14-.38c-2.84-.53-5.69-1-8.53-1.53a2,2,0,0,0-.64-.06c-.15,0-.27.17-.41.26.11.16.18.39.33.46a2.58,2.58,0,0,0,.73.16l1.69.3,7.16,1.25A2.85,2.85,0,0,0,147.85,301.43Zm7,.47v.15c1.25,0,2.49,0,3.74,0,.38,0,1,.19,1-.44s-.6-.38-1-.39l-7.8-.12a1.88,1.88,0,0,0-.63.08.4.4,0,0,0-.22.31.41.41,0,0,0,.21.32,2.57,2.57,0,0,0,.73.1C152.23,301.91,153.54,301.9,154.86,301.9ZM335.17,46.23c.14-.08.51-.2.58-.4.12-.43-.25-.6-.62-.69l-.32-.06-3.33-.74c-.45-.09-.91-.17-1.37-.22s-.71.08-.72.46a1.51,1.51,0,0,0,.36.82,1,1,0,0,0,.59.2Zm-57.7,66.88,0,.28c1.43.12,2.86.26,4.29.35a.58.58,0,0,0,.45-.35,3.87,3.87,0,0,0-.13-2.29ZM176.29,174.84h0c-.05-1-.1-1.92-.16-2.88a2.52,2.52,0,0,0-.09-.73c-.07-.17-.26-.29-.4-.44-.13.18-.27.35-.39.54s0,.14,0,.21c.11,2.09.22,4.19.34,6.28,0,.33.07.71.5.66s.36-.46.35-.77C176.4,176.75,176.34,175.8,176.29,174.84Zm11.39,3.09a.65.65,0,0,0,.63-.83c-.12-2.14-.24-4.27-.4-6.4a.66.66,0,0,0-.39-.51c-.38-.05-.4.3-.41.59,0,.07,0,.14,0,.21q.16,3,.34,6.08A5.43,5.43,0,0,0,187.68,177.93ZM207,54.65l-.22.06c0,.06-.09.13-.09.18.24,1.79.45,3.59.74,5.37.1.64.44.77,1.41.72C208.17,58.86,207.71,56.71,207,54.65Zm138.5,95.86c.22,0,.43,0,.65,0,.59,0,.73-.22.71-.82s-.17-.74-.78-.78a9.55,9.55,0,0,0-1.07,0c-.67,0-.8.15-.81.71s.13.84.77.89A4.68,4.68,0,0,0,345.48,150.51Zm-143,102.43-3.17-1.59c-.31,1.57-.12,1.83,1.22,1.85.39,0,.78,0,1.17,0A3.58,3.58,0,0,0,202.5,252.94Zm-59.69,49.45a3.23,3.23,0,0,0-.59-.26c-.73-.16-.92,0-.94.69s0,1.21,0,1.81c0,.15.2.29.4.56Zm11.09,4.13a6,6,0,0,0,.71-2.77c0-.12-.4-.4-.62-.4s-.62.28-.61.4A7.13,7.13,0,0,0,153.9,306.52Zm60.19-111.24a12.32,12.32,0,0,0-2.36-3C211.74,193.28,212.5,194.24,214.09,195.28ZM141.28,47.47c.51,0,.88.09,1.24.08,1,0,1-.25.49-1.24A3.39,3.39,0,0,0,141.28,47.47Z"/><path class="cls-1" d="M100.62,171.13V262c0,1.34-.14,1.44-1.49,1.48-.92,0-1.84.14-2.76.15-.71,0-1.42-.15-2.13-.15h-67c-.43,0-.86,0-1.29,0a.81.81,0,0,1-.82-.82c0-.29,0-.57,0-.86q0-68.3,0-136.58a3.13,3.13,0,0,0-1.06-2.5,7.09,7.09,0,0,1-2.18-7.12,3.59,3.59,0,0,1,2.29-2.75c.94-.35.93-.38.93-1.4V80.64c0-1.77.1-1.87,1.88-1.87H98.71c1.81,0,1.91.1,1.91,1.85ZM74.85,99.05c-.69-.06-1.1-.13-1.51-.13q-11.94,0-23.89,0h-.53a.91.91,0,0,0-1,.65A4.54,4.54,0,0,1,45,102.37a1.37,1.37,0,0,0-.7.72c-.25.75.1,1.14,1,1.22,2.06.2,4.13.34,6.18.6a9.66,9.66,0,0,1,3.8,1.37,3.38,3.38,0,0,1,1.75,2.2,2.72,2.72,0,0,0,1,1.6,8.06,8.06,0,0,1,2.25,3.82,13.81,13.81,0,0,1,.14,7.3c-.38,1.67-.87,3.31-1.33,5a5.51,5.51,0,0,0,0,3c.3,1,.64,2,1,3a9.83,9.83,0,0,1,.54,7.2,29.4,29.4,0,0,1-1.85,4.32,3.7,3.7,0,0,0-.19,3.19c.26.73.59,1.45.87,2.18,1.77,4.59,2.27,9.14-.46,13.57a.89.89,0,0,0,.06,1c.46.81.9,1.62,1.33,2.45a17.66,17.66,0,0,1,1.86,5,7.62,7.62,0,0,1,0,4.13,3.51,3.51,0,0,0,.19,3.4,5.53,5.53,0,0,1,.34.79,15.8,15.8,0,0,1,1.56,7.47,4.2,4.2,0,0,1-.95,2.67,5.21,5.21,0,0,0-1.21,3.22c-.07.53-.14,1.06-.17,1.59a1.38,1.38,0,0,1-1.2,1.42c-1.64.35-3.26.85-4.92,1a66.05,66.05,0,0,1-19-.52c-.85-.15-1.7-.25-2.55-.36-1.17-.15-1.33-.32-1.35-1.47,0-.32,0-.64,0-1a1,1,0,0,0-.74-1,3.37,3.37,0,0,1-1.22-.63A7,7,0,0,1,29,188a13.9,13.9,0,0,1,.79-7.36,1.72,1.72,0,0,0-.17-1.69,7.67,7.67,0,0,1-.94-2.25,13,13,0,0,1-.34-4.68c.22-1.81.49-3.61.85-5.39a2,2,0,0,0-.22-1.51A8.93,8.93,0,0,1,27.68,162a17.84,17.84,0,0,1,.66-8,2.15,2.15,0,0,0-.18-1.91,9,9,0,0,1-1.08-5.89,15.25,15.25,0,0,1,1.36-4.71,1.57,1.57,0,0,0,.06-1.62,9.44,9.44,0,0,1-1-7.14,44,44,0,0,1,1.32-4.51,4.94,4.94,0,0,0,0-2.8L26.64,125c-.23.86-.29,135.3,0,136.46v-16.7c0-.89,0-1.79,0-2.68A2.57,2.57,0,0,1,27,241c.3-.52.74-1,1-1.47a15.12,15.12,0,0,1,2.66-3.47,6.92,6.92,0,0,1,6.9-1.82,47,47,0,0,1,4.5,1.68A11.32,11.32,0,0,0,45,237a74.87,74.87,0,0,0,7.49.11c3.5-.08,7-.3,10.41.82.1,0,.24,0,.58-.09-.72-.6-1.28-1.07-1.86-1.53-2.37-1.89-4.75-3.77-7.11-5.68-.76-.61-.78-.78-.28-1.62q1.26-2.11,2.54-4.21c.92-1.5,1.1-1.53,2.51-.4,2,1.6,4,3.23,6,4.83l15.17,12.06c3.15,2.51,6.32,5,9.47,7.53,2.62,2.09,5.23,4.2,7.87,6.27.33.27.6.74,1.29.6V101c0-.36,0-.72,0-1.07,0-1-.09-1-1.05-1-1.57,0-3.14,0-4.71,0-.94,0-1.69.09-2,1.13a1.44,1.44,0,0,1-.5.69,14.63,14.63,0,0,1-1.79,1.14,1.31,1.31,0,0,0-.89,1.41,10.94,10.94,0,0,1,0,1.81,1.64,1.64,0,0,0,.77,1.55c.85.59,1.66,1.24,2.54,1.78a2.41,2.41,0,0,1,1.28,2.28,79.8,79.8,0,0,0,1,10.11c.1.77.37,1.53.43,2.31.26,3.88.56,7.76.7,11.65q.73,21.32,1.38,42.62c.11,3.62.44,2.58-1.58,6.25a3.22,3.22,0,0,1-3.21,1.84c-1.39,0-2.79-.06-4.18,0a3.44,3.44,0,0,1-2.86-1.17c-.35-.38-.74-.72-1.12-1.07l-.21.1c0,.48,0,1,0,1.44.2,2.71.42,5.41.64,8.12.43,5.52,1,11,1.79,16.5a8.61,8.61,0,0,1,0,2,3.14,3.14,0,0,1-2.58,2.9,7.92,7.92,0,0,1-1.38.2,76.8,76.8,0,0,1-11.55-.35,25.69,25.69,0,0,1-4-.78c-1-.26-1.29-.83-1.2-1.86.07-.71.17-1.42.19-2.13q.36-10,.69-20c.17-5.21.23-10.43.44-15.63a229.65,229.65,0,0,0-.76-35.09,103.71,103.71,0,0,1-.32-18.73c.19-2.64.53-5.26,2.08-7.54a5.21,5.21,0,0,0,.64-1.47,2.13,2.13,0,0,0,0-1.12,2.54,2.54,0,0,1,.31-2.15,5.86,5.86,0,0,1,2.28-2.35,1.26,1.26,0,0,0,.74-1.3c0-.6,0-1.21,0-1.82,0-.81.17-1,.91-1.25a12.16,12.16,0,0,0,1.82-.87C74.26,99.9,74.44,99.54,74.85,99.05Zm-21.71,91.5a2.48,2.48,0,0,0,.47.18,26.78,26.78,0,0,0,6.91-.7,2.62,2.62,0,0,0,1.94-1.82,6.55,6.55,0,0,0,.41-2.29,16.61,16.61,0,0,0-.64-3.78,48.23,48.23,0,0,0-1.9-4.53c-.22-.5-.44-1-.07-1.5a5.66,5.66,0,0,0,.6-4.73,21.48,21.48,0,0,0-3-7,1.88,1.88,0,0,1,0-2.58A7.35,7.35,0,0,0,59.36,158a15.5,15.5,0,0,0-1.29-8.57c-.29-.61-.52-1.25-.76-1.89a5.18,5.18,0,0,1,.35-4.73,17.83,17.83,0,0,0,1-2,9.22,9.22,0,0,0,.68-6.46,27,27,0,0,0-1.15-3.11,8.62,8.62,0,0,1-.28-6.26,29.9,29.9,0,0,0,1.24-4.54c.64-3.67.32-7.13-2.66-9.86a2.57,2.57,0,0,1-.75-1.25,3,3,0,0,0-1.87-2.17,15.14,15.14,0,0,0-5.41-1.21c-1.59-.11-3.2,0-4.8-.08-1.21,0-2.42-.16-3.63-.17a9.09,9.09,0,0,0-7,2.88c-.59.62-1.21,1.22-1.82,1.82a12.43,12.43,0,0,1-4.69,3.09c-.54.19-1.07.4-1.61.56a2.13,2.13,0,0,0-1.65,1.91,9.23,9.23,0,0,0,.07,3c.59,2.3,2.36,3.68,4.31,4.79.71.41,1.22,0,1.34-.8A6.06,6.06,0,0,0,29,122c0-1.21,0-2.43.15-3.64a10.78,10.78,0,0,1,.55-2.71,7.34,7.34,0,0,1,5-4.47,25.26,25.26,0,0,1,11.88-.43c.1,0,.25,0,.3.09.17.24.42.49.43.75s-.37.43-.6.45a7.93,7.93,0,0,1-1.28-.08c-1.92-.1-3.84-.26-5.76-.26a12.75,12.75,0,0,0-4.52.8c-3.08,1.15-4.7,3.11-4.47,6.46.07,1.06,0,2.14-.07,3.21a41.29,41.29,0,0,0-.06,4.16,4.65,4.65,0,0,1-.43,2.37,15.33,15.33,0,0,0-1.44,6.1,7.11,7.11,0,0,0,1.18,4.58,1.55,1.55,0,0,1,.13,1.94,12.21,12.21,0,0,0-1.45,7.44,6.26,6.26,0,0,0,.87,2.6,2.74,2.74,0,0,1,.31,2.7,17,17,0,0,0-.76,7.18,5.68,5.68,0,0,0,1.25,3.25,2.06,2.06,0,0,1,.43,2.17,23,23,0,0,0-1,5.57c-.17,2.44.07,4.8,1.67,6.8.33.4.19.76,0,1.19a14.2,14.2,0,0,0-1.06,7,11.64,11.64,0,0,0,.73,2.33c.48,1.19,1.6,1.55,2.69,1.92a29.73,29.73,0,0,0,6.94,1.23,21.86,21.86,0,0,0,6.4-.33,10.19,10.19,0,0,0,3.82-1.58,1.79,1.79,0,0,0,.89-1.15,21.59,21.59,0,0,0,.07-8.4,6.07,6.07,0,0,1-.12-1.7,28.6,28.6,0,0,0-1.38-11.51,7,7,0,0,1-.29-3.34c.24-2.12.42-4.26.48-6.39a10.72,10.72,0,0,0-1.39-5.87,1.34,1.34,0,0,1-.12-1.23,9.1,9.1,0,0,0,.29-1,11.25,11.25,0,0,0-.83-8.12,2.2,2.2,0,0,1-.13-1.93,20.54,20.54,0,0,0,1.12-8.11,10,10,0,0,0-.63-2.69,1.68,1.68,0,0,1,.1-1.5,9.91,9.91,0,0,0,1.09-6.53c-.27-1.46-.78-2.88-1.19-4.32,0-.17-.21-.35-.18-.49a1.47,1.47,0,0,1,.38-.79c.28-.22.61,0,.81.26a3.82,3.82,0,0,1,.36.66c1.68,3.75,2.15,7.53.25,11.35a1.65,1.65,0,0,0-.09,1.34,10.59,10.59,0,0,1,.5,2.07,21.15,21.15,0,0,1-1.11,9,1.6,1.6,0,0,0,.1,1.32,11.62,11.62,0,0,1,.69,9.34,1.38,1.38,0,0,0,.13,1.22,10.29,10.29,0,0,1,1.2,4.18,35.33,35.33,0,0,1-.41,9.07,3.07,3.07,0,0,0,0,1.35A31.86,31.86,0,0,1,53.2,177c0,1.78-.29,3.57.34,5.31a1.12,1.12,0,0,1,0,.32,23,23,0,0,1-.34,7A7,7,0,0,0,53.14,190.55ZM62.8,80.22h-35c-1.29,0-1.33,0-1.34,1.32q0,5.83,0,11.67c0,1.14.09,1.22,1.21,1.24H69.53a7.2,7.2,0,0,0,1.79-.23,5.45,5.45,0,0,1,2.75,0,6.36,6.36,0,0,0,1.68.23c3.11,0,6.21,0,9.32,0a8.38,8.38,0,0,0,1.79-.24,5,5,0,0,1,2.64,0,5.69,5.69,0,0,0,1.36.23q3.58,0,7.17,0c1,0,1.09-.08,1.09-1.12q0-6,0-12c0-1-.07-1.09-1.08-1.11-.18,0-.36,0-.54,0ZM69.88,108c-.48.5-.78.89-.46,1.49a1.84,1.84,0,0,1,0,1.75c-.32.68-.69,1.33-1,2a16.36,16.36,0,0,0-1.17,3,39.88,39.88,0,0,0-.81,7.87,147.83,147.83,0,0,0,.82,17.85A156.84,156.84,0,0,1,68,161.18c-.18,8.11-.4,16.21-.56,24.32-.18,8.42-.27,16.85-.91,25.26-.1,1.29,0,1.48,1.29,1.72a4.51,4.51,0,0,0,.53.08,75.9,75.9,0,0,0,12.61.59,13.87,13.87,0,0,0,1.81-.18A1.37,1.37,0,0,0,84,211.82a9.14,9.14,0,0,0,.08-2.22c-.18-1.88-.47-3.75-.67-5.63s-.4-4-.58-6c-.24-2.63-.49-5.26-.7-7.89q-.33-4.23-.62-8.44c-.25-3.71-.52-7.41-.7-11.12-.38-8.13-.67-16.27-1.07-24.4-.28-5.82-.41-11.63-.16-17.46.07-1.56,0-3.14-.07-4.71a3.57,3.57,0,0,0-.41-1.41q-1.35-2.55-2.79-5.06a64.73,64.73,0,0,0-5.69-8.67C70.4,108.57,70.17,108.31,69.88,108ZM83.93,147h.19q0,12.32,0,24.64c0,3.07.1,6.14.1,9.21a2.54,2.54,0,0,0,1,2.14c.25.19.45.47.71.64a1.75,1.75,0,0,0,.87.36c1.78,0,3.56,0,5.35,0a1.3,1.3,0,0,0,1.19-.78c.46-.88,1-1.75,1.38-2.66a3.2,3.2,0,0,0,.25-1.34c0-1.28-.1-2.56-.15-3.85-.4-12.49-.73-25-1.22-37.46-.22-5.73,0-11.5-1.17-17.18-.41-2.09-.62-4.23-.9-6.35a1.15,1.15,0,0,0-.77-1c-1.77-.67-3.52-1.37-5.28-2.07a.78.78,0,0,0-1,.23,2.51,2.51,0,0,0-.58,1.88Q83.94,130.22,83.93,147Zm-25.68,78.4a5.42,5.42,0,0,0-.56.63c-.56.91-1.1,1.84-1.65,2.76s-.46.87.23,1.42l9.45,7.55,8,6.32,8,6.41,7.11,5.67c2.1,1.67,4.19,3.34,6.29,5a10.5,10.5,0,0,0,1,.58c.82-1.3,1.58-2.5,2.33-3.71.26-.4,0-.66-.29-.89l-7.95-6.35-9.73-7.72L69.06,234c-2.36-1.89-4.72-3.81-7.09-5.7C60.77,227.37,59.56,226.44,58.25,225.43Zm-14.15,36a5.14,5.14,0,0,0,.08-.57q0-8.94,0-17.88c0-.89-.07-.94-1-.95H37c-1.16,0-1.2.05-1.2,1.22,0,5.71,0,11.42,0,17.13,0,.35,0,.7.07,1A48.51,48.51,0,0,0,44.1,261.43Zm26.42.05V244.57A2.47,2.47,0,0,0,68,242c-1.61,0-3.21,0-4.82,0-.93,0-1,.11-1,1.07q0,8.72,0,17.45c0,.94.09,1,1.06,1h6.43A9,9,0,0,0,70.52,261.48ZM49,251.81h0c0,2.92,0,5.85,0,8.77,0,.86.08,1,.74,1,2.25,0,4.49,0,6.74,0,.69,0,.8-.14.85-.81,0-.21,0-.43,0-.64V243.64c0-.25,0-.5,0-.74-.05-.69-.17-.85-.82-.86-2.25,0-4.49,0-6.74,0-.55,0-.77.28-.77.79,0,.25,0,.5,0,.75ZM90.16,99.28,90,99a4.53,4.53,0,0,0-.71-.11H77.21a1,1,0,0,0-1.09.67,3.89,3.89,0,0,1-2,2c-1.66.77-1.4.5-1.46,2.41a1.14,1.14,0,0,0,.69,1.19,4.87,4.87,0,0,1,2,2,3.75,3.75,0,0,0,1.09,1.12,4.45,4.45,0,0,1,2,3.57,1.36,1.36,0,0,0,.64,1.14,5.18,5.18,0,0,1,2.28,4.48,2.23,2.23,0,0,0,1,1.79c0-.46.07-.77.07-1.07,0-1.54.06-3.07,0-4.6a4.06,4.06,0,0,1,1-3.17A6.24,6.24,0,0,0,85,105.75c0-1.11.21-1.25,1.35-1.14.06,0,.13-.06.31-.15,0-.65,0-1.35,0-2.06,0-1,.14-1.14,1-1.48a10.13,10.13,0,0,0,1.72-.84A3.74,3.74,0,0,0,90.16,99.28ZM26.52,111.84a7.94,7.94,0,0,0,1.07-.42,13.71,13.71,0,0,0,1.64-1.19c1.26-1.16,2.46-2.39,3.73-3.53a8.75,8.75,0,0,1,5.09-2.28c1.1-.09,2.21-.17,3.31-.2,1.49,0,1.49,0,1.51-1.45,0-1,.09-1.1,1-1.48a13.78,13.78,0,0,0,2-1c.35-.22.74-.61.48-1.05-.12-.21-.62-.28-.94-.28q-8.84,0-17.67,0c-1.23,0-1.3.07-1.3,1.25,0,3.46,0,6.93,0,10.39C26.45,110.91,26.48,111.25,26.52,111.84ZM79.33,250.42l-.28.09c-.07,1.26,0,2.52,0,3.78s0,2.56,0,3.84,0,2.54,0,3.81a3.41,3.41,0,0,0,.55.11H93.07a1.09,1.09,0,0,0,.3-.07s.06-.05.08-.07a1.89,1.89,0,0,0,.09-.19Zm3-79.08.31,0c0-1.17.06-2.33.06-3.5q0-12-.11-24c0-6.78,0-13.56,0-20.34,0-.33.16-.72-.28-1a8,8,0,0,1-.64.84,2.35,2.35,0,0,0-.65,2c.07,1,0,1.93,0,2.89-.06,2.93-.26,5.86-.18,8.78.15,5.64.45,11.27.69,16.9q.33,7.86.67,15.73C82.21,170.15,82.29,170.75,82.34,171.34Zm-21.5,20.14-1.2.15c-.88.13-1.76.31-2.64.37-1.53.1-3.07.11-4.6.2a3.6,3.6,0,0,0-1.44.29,16.18,16.18,0,0,1-7.53,1.72,34,34,0,0,1-7.86-.78c-.34-.07-.68-.09-1-.13-.28,1.06-.2,1.19.66,1.31l1.59.21c1.76.24,3.53.51,5.3.73a59.26,59.26,0,0,0,12.49,0c1.73-.16,3.43-.61,5.15-.94a1,1,0,0,0,.83-.86C60.68,193.05,60.74,192.38,60.84,191.48Zm-13.91,48.7.06-.31a4.65,4.65,0,0,0-.52-.34c-2.71-1.24-5.41-2.53-8.16-3.68a5.52,5.52,0,0,0-4.67-.11,9.2,9.2,0,0,0-3.84,3.6c-.07.09,0,.26-.05.53C35.51,240,41.22,240.09,46.93,240.18ZM31,251.82v-8.25c0-.29,0-.57,0-.86a.62.62,0,0,0-.66-.67h-.75c-1.21,0-1.28.07-1.28,1.27,0,3,0,6.07,0,9.1,0,2.68,0,5.36,0,8,0,1.07.08,1.13,1.17,1.15h.32c1.17,0,1.21,0,1.22-1.2Zm16.75-156c.19,1.49.38,1.67,1.62,1.67H73.82a4.87,4.87,0,0,0,.54,0c.58-.06.76-.37.43-.85-.21-.31-.55-.71-.85-.73-1.08-.07-2.21-.35-3.24.27a.67.67,0,0,1-.88,0,2,2,0,0,0-1.52-.34H47.71ZM34.32,261.44V243.31a2.68,2.68,0,0,0,0-.75.79.79,0,0,0-.36-.47,1,1,0,0,0-1.49,1q0,8.76,0,17.53c0,.91.15,1,1.08,1A7.1,7.1,0,0,0,34.32,261.44Zm26.37,0V260.2q0-6.78,0-13.57c0-1.25,0-2.5,0-3.75,0-.75-.14-.84-.9-.85s-.91.11-1,.8c0,.28,0,.57,0,.85v9.73c0,2.35,0,4.71,0,7.06,0,1,.14,1.16,1.19,1.1A6.16,6.16,0,0,0,60.69,261.44ZM70.92,106.9l.41.56c1.34,1.89,2.76,3.73,4,5.69,1.6,2.53,3,5.15,4.56,7.73a9,9,0,0,0,.73.9,1.12,1.12,0,0,0,.45-1.33,3.35,3.35,0,0,0-.55-1.14,2,2,0,0,1-.5-1.67,3.38,3.38,0,0,0-1.28-3.12,10.52,10.52,0,0,0-.93-.72,1.2,1.2,0,0,1-.63-1.25,3.08,3.08,0,0,0-1.65-3.12,4,4,0,0,1-1.24-1.29A7.08,7.08,0,0,0,73,106.61C72.32,106.06,71.74,106.17,70.92,106.9ZM47.47,251.81v-8.24c0-.28,0-.57,0-.86a.62.62,0,0,0-.66-.67c-.9,0-1.21.05-1.21,1,0,5.85,0,11.7,0,17.55,0,.86.17,1,1,1s.88-.14.89-1C47.48,257.66,47.47,254.73,47.47,251.81ZM46.54,97.43a4.32,4.32,0,0,0-.41-.82,2.54,2.54,0,0,0-3-.47c-.26.13-.5.29-.74.43a.67.67,0,0,1-1-.15c-.37-.58-.91-.58-1.5-.58H27.81c-.22,0-.43,0-.65,0-.56.07-.73.27-.72.84s.18.74.77.81a4.64,4.64,0,0,0,.53,0H45.39C45.7,97.52,46,97.47,46.54,97.43ZM75.39,247.51c0,.47-.08.84-.08,1.21,0,3.74,0,7.49,0,11.23,0,1.7.06,1.76,1.74,1.62a2.6,2.6,0,0,0,.49-.17,2,2,0,0,0,.09-.44q0-5.62,0-11.23a1.19,1.19,0,0,0-.22-.79A6.09,6.09,0,0,0,75.39,247.51ZM72,244.76c0,.56-.06.9-.06,1.25v14.24a4.7,4.7,0,0,0,0,.75c0,.16.14.41.24.43a3.78,3.78,0,0,0,1.25.07c.45-.08.39-.53.4-.88,0-.15,0-.29,0-.43,0-4.29,0-8.57,0-12.85C73.93,246,73.23,245.43,72,244.76ZM76.25,95.93c.15,1.46.24,1.58,1.27,1.58,4,0,8,0,12,0a6.43,6.43,0,0,0,.92-.14c-.07-.79-.37-1.37-1-1.45a6.88,6.88,0,0,0-2.64,0c-.71.19-1.26.5-1.94,0-.18-.14-.55-.08-.83-.08H77.35C77,95.85,76.66,95.9,76.25,95.93Zm-27.5,142.7-.1.29a6,6,0,0,0,3,1.3c4,.12,7.91.2,11.86.28a5.59,5.59,0,0,0,.89-.21c-.48-.29-.73-.47-1-.6a11.27,11.27,0,0,0-4.95-1.16C55.22,238.46,52,238.58,48.75,238.63Zm37.7-131.75c-.09.78-.18,1.47-.26,2.17,0,.39.22.57.52.72l3.62,1.79a3.77,3.77,0,0,0,.77.19c.24-1.19.21-1.66-.32-2.06-1.27-1-2.59-1.85-3.9-2.77C86.81,106.87,86.68,106.9,86.45,106.88ZM91.6,96c.11.38.2.61.25.85a.81.81,0,0,0,.93.67c1.84,0,3.69,0,5.53,0,.66,0,.81-.21.8-.85s-.15-.8-.94-.81H92.42C92.19,95.86,92,95.94,91.6,96Zm6.17,165.83c.51.3,1,.39,1.22,0a1.43,1.43,0,0,0-.17-1.66Z"/><path class="cls-1" d="M62.94,49.07H98.82c1.76,0,1.8,0,1.8,1.79q0,12.22,0,24.43c0,2.15,0,2.15-2.11,2.15H27c-1.9,0-1.92,0-1.92-1.91V51c0-1.92,0-1.93,1.89-1.93Zm36.12,1.45c-.51,0-1-.07-1.42-.07H27.4c-.85,0-.93.1-1,.91V69.78c0,1.78,0,3.57,0,5.35a2,2,0,0,0,.35.82s.36,0,.36-.07a2.13,2.13,0,0,0,0-.8,2.74,2.74,0,0,1,.82-3,3.45,3.45,0,0,1,2.66-.9q7.44,0,14.88,0c.41,0,.82,0,1.22-.07,0-.21,0-.3,0-.34-.27-.32-.57-.63-.84-1-1.4-1.65-.94-2.9,1.18-3.31a24.35,24.35,0,0,1,6-.22c2.64.13,5.28.18,7.92.27A1.09,1.09,0,0,0,62,66a17.17,17.17,0,0,1,5.15-5.07,19.64,19.64,0,0,1,9.14-3.37,18.51,18.51,0,0,1,7.77,1.16c3.41,1.14,6.78,2.42,10.2,3.54a22.91,22.91,0,0,0,4,.74c.75.1.84-.06.88-.83,0-.11,0-.21,0-.32V51.57C99.12,51.25,99.08,50.94,99.06,50.52ZM63.34,66.42c.54.24.84.4,1.16.52,1,.39,2.1.72,3.1,1.17a33.12,33.12,0,0,1,6.68,4c1.06.83,2.21,1.56,3.32,2.34a2.92,2.92,0,0,0,1.71.48H98c1.11,0,1.16,0,1.16-1.13q0-4.12,0-8.25c0-1.11,0-1.15-1.12-1.21a25.51,25.51,0,0,1-7.16-1.68C87.4,61.46,84.08,60,80.5,59.21a13.59,13.59,0,0,0-5-.16,19,19,0,0,0-10,5C64.77,64.71,64.16,65.5,63.34,66.42Zm-17,9.45H56.61c1.89,0,3.78,0,5.67,0A2.07,2.07,0,0,0,64,75.16a1.24,1.24,0,0,0-.18-1.88,3.19,3.19,0,0,0-2.17-.73c-3.53,0-7.06,0-10.59,0H30.93a6.34,6.34,0,0,0-1.07.06,1.5,1.5,0,0,0-1.36,1.53,1.61,1.61,0,0,0,1.36,1.67,6.23,6.23,0,0,0,1.06,0ZM76.39,76l.09-.25a9.2,9.2,0,0,0-.72-.68c-.85-.65-1.72-1.27-2.57-1.92-4.26-3.27-8.92-5.42-14.44-5.34-2.32,0-4.63-.18-7-.2-1.46,0-2.91.11-4.37.21a3.75,3.75,0,0,0-.87.3,3.45,3.45,0,0,0,1.85,2,8.44,8.44,0,0,0,4.42,1c2.46-.06,4.91-.2,7.37-.29,1.9-.08,3.72.11,5.09,1.65a1.74,1.74,0,0,0,.26.19A23.54,23.54,0,0,0,75.17,76,8.32,8.32,0,0,0,76.39,76Zm-8.13-.07a4.21,4.21,0,0,0-2.49-1.22l-.39,1.24A7.74,7.74,0,0,0,68.26,75.92Z"/><path class="cls-1" d="M82.1,19.26H99c1.43,0,1.6.16,1.6,1.6V46.13a6.27,6.27,0,0,1,0,.75.85.85,0,0,1-.85.8c-.29,0-.57,0-.86,0H64.62c-.88,0-1.14-.3-1.19-1.16,0-.18,0-.35,0-.53V20.83c0-1.36.21-1.57,1.54-1.57H82.1ZM98.79,44.34H99c0-.41.11-.82.11-1.23,0-.92,0-1.85,0-2.78V21.9c0-1.21,0-1.24-1.17-1.24q-15.9,0-31.81,0c-1.14,0-1.24.09-1.24,1.2q0,7.66,0,15.32a6.14,6.14,0,0,0,.14.87,2.56,2.56,0,0,0,.45-.32,4.8,4.8,0,0,1,4.45-2c4.49.17,9,.24,13.49.32,2.25,0,4.5,0,6.74,0a5.59,5.59,0,0,1,2.6.26c.78.35,1.61.6,2.41.88a3.7,3.7,0,0,1,2.76,3c.08.49.19,1,.29,1.46C98.42,42.49,98.6,43.41,98.79,44.34Zm-17.51-6.9c-5-.14-8.47-.24-11.93-.32a2.72,2.72,0,0,0-2.88,2.07c-.08.24-.18.47-.24.71a9.35,9.35,0,0,0-.38,4.75c.1.43.2.84.75.89,1.78.16,3.56.35,5.33.49a3,3,0,0,0,3.42-2.13,3.87,3.87,0,0,1,1.1-1.53,2.09,2.09,0,0,1,3.42.86c.19.43.33.87.48,1.31a1.56,1.56,0,0,0,1.18,1.13,10.71,10.71,0,0,0,1.57.26c1.43.07,2.86.17,4.28.1a22.56,22.56,0,0,0,3.47-.54,1.18,1.18,0,0,0,1-1.19,22,22,0,0,0-.65-6c-.22-.83-.28-.82-1.12-.82Zm11.56.6c0,.35.06.69.1,1,.12,1.09.27,2.19.37,3.28,0,.6,0,1.21,0,1.82a.8.8,0,0,0,.75.88c.77.15,1.53.33,2.3.48.29.06.6.06,1,.1a3,3,0,0,0,0-.62q-.5-2.57-1-5.13a1.72,1.72,0,0,0-.35-.65A5.37,5.37,0,0,0,92.84,38Zm-13.4,8.2c-.39-1-.67-1.82-1-2.61a.63.63,0,0,0-1-.2A5,5,0,0,0,76,46.24Z"/><path class="cls-1" d="M267.62,188l-1.95,0c-1,0-1.27-.27-1.29-1.26,0-.65,0-1.29,0-1.93,0-.87.3-1.1,1.19-1.15h24.52c1.76,0,1.83.06,1.82,1.79,0,.53,0,1.07,0,1.6s-.28.89-.93.94c-.43,0-.86,0-1.28,0-1.19,0-1.22,0-1.22,1.19v7.39c0,.57,0,1.14,0,1.71,0,.81.11.9.95.93.5,0,1,0,1.5,0,.72.05,1,.29,1,1s0,1.58,0,2.36-.3.92-1,1c-.25,0-.5,0-.75,0h-24c-.1,0-.21,0-.32,0-1.27,0-1.48-.22-1.49-1.51,0-.61,0-1.21,0-1.82s.32-1,1-1,1.15,0,1.72,0,.73-.2.73-.7c0-3.36,0-6.71,0-10.06C267.8,188.3,267.72,188.2,267.62,188Zm10.45,11.18H283c.9,0,1-.08,1-1q0-4.65,0-9.3c0-.84-.07-.92-.91-.92-3.25,0-6.49,0-9.73,0-.91,0-1,.06-1,1v9.19c0,1,.07,1,1,1Zm.07-12.6h10.92c.24,0,.5,0,.74,0,.61-.05.77-.23.76-.79s-.18-.72-.79-.77c-.21,0-.42,0-.64,0H266.45c-.49,0-.67.34-.67.79a.66.66,0,0,0,.7.76h11.66Zm0,15.56h9c.86,0,1.71,0,2.57,0,.69,0,.88-.21.87-.79s-.19-.71-.91-.75H267.26a8,8,0,0,0-.85,0,.64.64,0,0,0-.63.72c0,.46.17.76.67.79.28,0,.57,0,.85,0Zm-8.86-8.67c0,1.6,0,3.21,0,4.82,0,.73.21.91.87.88s.75-.16.75-.89c0-2.5,0-5,0-7.5v-2.14c0-.45-.22-.64-.66-.67-.74,0-1,.12-1,.89C269.25,190.38,269.26,191.91,269.26,193.45Zm17.7-5.38c-1.28-.18-1.47-.11-1.47.7,0,3.18,0,6.35,0,9.53,0,.72.33.94,1,.85s.54-.57.54-1v-9.32C287.05,188.61,287,188.37,287,188.07Z"/><path class="cls-1" d="M267.74,233c0-.49.07-.84.08-1.18V223c0-1.07,0-1.1-1.06-1.12-.47,0-.93,0-1.4,0-.62-.05-.92-.31-1-.93a22.43,22.43,0,0,1,0-2.46c0-.68.34-.93,1-1,.21,0,.43,0,.64,0h24.2a6.23,6.23,0,0,1,.75,0c.65.07.89.3.92,1q.06,1.23,0,2.46c0,.68-.3.92-1,1-.5,0-1,0-1.5,0-.81,0-.9.12-.91,1,0,1.78,0,3.57,0,5.35,0,1.33,0,2.65,0,4,0,.77.11.86.87.89.53,0,1.07,0,1.6,0,.7,0,.93.24,1,.89,0,.86,0,1.72,0,2.57a.87.87,0,0,1-.88.9,6.1,6.1,0,0,1-.74,0H266a4.71,4.71,0,0,1-.75,0,.86.86,0,0,1-.83-.84,23.78,23.78,0,0,1,0-2.67c0-.61.33-.82,1-.85S266.91,233,267.74,233Zm10.43-11.19c-1.6,0-3.21,0-4.81,0-.95,0-1,.06-1,.94q0,4.65,0,9.3c0,.84.09.93.93.93H283c.9,0,1-.07,1-1q0-4.6,0-9.2c0-.91-.06-1-1-1C281.38,221.83,279.78,221.84,278.17,221.84Zm0-1.39h5.46c2,0,4.06,0,6.1,0,.69,0,.85-.18.85-.8s-.15-.77-.84-.81c-.21,0-.42,0-.64,0H266.6c-.5,0-.81.19-.83.74s.18.82.82.88c.21,0,.42,0,.64,0Zm.15,14h-11c-.25,0-.5,0-.75,0-.6.05-.78.24-.76.79s.2.73.79.79c.24,0,.5,0,.74,0H289a8.17,8.17,0,0,0,.86,0c.54-.06.69-.28.69-.86a.63.63,0,0,0-.72-.72H278.3Zm-9-6.91h0c0,1.6,0,3.21,0,4.82,0,.56.23.7.84.69.45,0,.77-.14.77-.66V222.5a.58.58,0,0,0-.58-.63c-.76-.11-1,.11-1,.91C269.25,224.35,269.26,225.92,269.26,227.5ZM287,222a3.79,3.79,0,0,0-.52-.11c-.82,0-.94.1-1,.9,0,.21,0,.42,0,.64V232c0,.47,0,1,.63,1s.93-.11.94-1c0-3.08,0-6.15,0-9.22C287.05,222.54,287,222.3,287,222Z"/><path class="cls-1" d="M183.35,218.1l-8.78.43c-1.08,0-1.32-.2-1.37-1.28l0-1c0-1.08.1-1.19,1.21-1.3s1.21-.17,1.15-1.29c-.09-1.82-.18-3.64-.29-5.46-.07-1.11-.12-1.15-1.19-1.13-1.22,0-1.36-.1-1.49-1.28,0-.28-.06-.57-.08-.85-.06-1.08.16-1.34,1.23-1.41,2.21-.14,4.42-.29,6.63-.4l11.13-.51h.75a.8.8,0,0,1,.87.76,13.9,13.9,0,0,1,.11,1.71c0,.66-.29.95-1,1l-.21,0c-1.36.12-1.35.12-1.26,1.45.12,1.75.22,3.49.32,5.24.06,1.12.1,1.17,1.17,1.12,1.24-.05,1.44.12,1.51,1.34,0,.32,0,.64,0,1,0,1-.12,1.14-1.06,1.21-1.82.13-3.64.23-5.46.34l-4,.19Zm4-3.85a2.28,2.28,0,0,0,.11-.47c-.11-2.2-.22-4.41-.35-6.61,0-.64-.19-.75-.92-.72-2.13.09-4.27.19-6.4.31-.72,0-.84.16-.81.94q.12,3.09.29,6.18c0,.74.17.86.93.83,1.56-.07,3.13-.19,4.69-.29Zm-12.65,2.55c.23.41.62.29.95.27q7.76-.37,15.51-.78c.38,0,1.06.14,1.05-.41,0-.71-.72-.38-1.11-.36-3.78.17-7.56.38-11.33.57l-4.28.22C175.14,216.33,174.71,216.27,174.68,216.8Zm17-12.39c-.35-.54-.82-.35-1.21-.33l-15.4.8a2.28,2.28,0,0,0-.64.06c-.13.05-.23.22-.35.33.14.13.26.33.42.38a2,2,0,0,0,.64,0c1.07-.07,2.14-.15,3.2-.2l12.2-.58C191,204.84,191.45,205,191.72,204.41Zm-3,5.68h.14c0,1,0,2.07,0,3.1,0,.36-.07.93.48.89s.39-.6.37-1c-.1-2-.23-4-.35-6a1.86,1.86,0,0,0-.11-.52c-.06-.1-.23-.24-.32-.22a.59.59,0,0,0-.38.28,2.28,2.28,0,0,0,0,.74C188.57,208.31,188.65,209.2,188.71,210.09ZM177.21,207l-.37,0a3.58,3.58,0,0,0-.14.77q.13,3,.29,6.06a1.76,1.76,0,0,0,.14.61.4.4,0,0,0,.34.18.48.48,0,0,0,.3-.24.84.84,0,0,0,0-.42c-.11-2.05-.21-4.11-.34-6.16A3.79,3.79,0,0,0,177.21,207Z"/><path class="cls-1" d="M234.41,92.44q-.12-12-.23-24a6.94,6.94,0,0,1,.59-3.44,3.3,3.3,0,0,1,1.59-1.52,1.89,1.89,0,0,1,1.13-.1c.45.11.51.6.17.93a1.34,1.34,0,0,1-.45.29,2.5,2.5,0,0,0-1.48,2.19,11.29,11.29,0,0,0-.08,1.93q.25,23.77.52,47.56c0,1.29.14,1.4,1.45,1.61a39.72,39.72,0,0,0,10.78-.16l.53-.09c.94-.19,1-.25,1-1.19s-.07-1.93-.11-2.89c-.26-6.31-.5-12.63-.8-18.94-.25-5.1-.58-10.2-.88-15.29,0-.54-.12-1.07-.17-1.6a1.58,1.58,0,0,1,0-.74,1.38,1.38,0,0,1,.6-.64.56.56,0,0,1,.75.42,6.5,6.5,0,0,1,.25,1.36c.2,3.61.4,7.21.58,10.81q.62,12.94,1.21,25.89c.05,1,.08,1.93.08,2.89,0,.77-.15.94-.9,1.07a40.36,40.36,0,0,1-13.11.46l-.32,0c-2.11-.35-2.29-.56-2.32-2.67l-.33-24.1Z"/><path class="cls-1" d="M266.46,63.23c0,.77.08,1.55,0,2.32-.41,7.48-.85,15-1.26,22.45-.1,1.74-.12,3.49-.12,5.24,0,2.87,2.62,5.17,4.63,5.86a10.7,10.7,0,0,0,7.83-.47,3.51,3.51,0,0,0,2.25-3.26,59.09,59.09,0,0,0,0-6.52c-.23-3-.69-5.95-1.1-8.92-.35-2.54-.77-5.08-1.16-7.62-.09-.56-.21-1.12-.29-1.69,0-.37,0-.74-.07-1.11l.22-.06a1.64,1.64,0,0,1,.21.39c.79,3.87,1.6,7.75,2.36,11.63a57.14,57.14,0,0,1,1.2,11.8,27.25,27.25,0,0,1-.36,3.61,3.11,3.11,0,0,1-1.52,2.23,1.61,1.61,0,0,0-.82,1.79c.12,1,.13,1.92.17,2.89s-.15,1.29-1.12,1.5a15.23,15.23,0,0,1-3.06.48c-2.1,0-4.2-.08-6.3-.23-1.42-.1-1.79-.55-1.86-2s-.09-2.93-.19-4.39a1.88,1.88,0,0,0-.39-1.05A9.07,9.07,0,0,1,263.66,91c.68-7.54,1.3-15.08,2-22.62.15-1.7.37-3.39.56-5.09ZM277.27,104c0-1-.07-1.72-.13-2.5-.07-1-.26-1.1-1.21-.85a11.21,11.21,0,0,1-7.23-.39c-.28-.11-.58-.16-1-.27,0,1.17,0,2.19,0,3.21,0,.86.11,1,1,1,1.85.11,3.7.21,5.55.2A22.53,22.53,0,0,0,277.27,104Z"/><path class="cls-1" d="M275,50.69a116.27,116.27,0,0,1-11-4.91l0-.27a2.46,2.46,0,0,1,.76,0,36.62,36.62,0,0,1,4,1.12,20.17,20.17,0,0,1,5.58,3.12,7.88,7.88,0,0,1,.77.76Z"/><path class="cls-1" d="M140.18,193.75h-6.31c-1.17,0-1.29-.13-1.3-1.29v-3.1c0-1.22.16-1.37,1.35-1.38h6.74c1.93,0,3.86,0,5.78,0,1.11,0,1.31.2,1.32,1.31s0,2.21,0,3.32c0,.93-.2,1.12-1.15,1.12C144.47,193.76,142.33,193.75,140.18,193.75ZM134,192.32c.58,0,1,.06,1.35.06h9.21c2,0,1.8.08,1.8-1.8,0-1.14-.08-1.21-1.22-1.22h-10a1.45,1.45,0,0,0-.63,0c-.21.12-.5.35-.52.55C133.93,190.7,134,191.44,134,192.32Z"/><path class="cls-1" d="M140.17,164.35c-2.1,0-4.21,0-6.31,0-1.15,0-1.28-.14-1.28-1.31s0-2.21,0-3.32c0-.93.21-1.13,1.14-1.14,1.68,0,3.36,0,5,0h7.6c1.24,0,1.41.19,1.41,1.44q0,1.5,0,3c0,1.2-.15,1.33-1.38,1.34C144.31,164.36,142.24,164.35,140.17,164.35Zm-.08-1.39h.64c1.57,0,3.14,0,4.71,0,.78,0,.86-.11.88-.86,0-.46,0-.93,0-1.39a.67.67,0,0,0-.74-.73H136c-2.14,0-2-.26-2,2,0,.89.07.95,1,1Z"/><path class="cls-1" d="M140.08,223.23h-6.21c-1.15,0-1.28-.15-1.29-1.32s0-2.28,0-3.42c0-.9.18-1.08,1.07-1.09h13c.95,0,1.13.19,1.15,1.14,0,1.14,0,2.28,0,3.42s-.2,1.26-1.26,1.27C144.36,223.24,142.22,223.22,140.08,223.23Zm6.23-4.33a7.59,7.59,0,0,0-.89-.13c-1.14,0-2.28,0-3.42,0-2.35,0-4.71,0-7.06,0-.92,0-1,.07-1,1,0,.32,0,.65,0,1,0,1.08.05,1.13,1.16,1.13h10.58a.57.57,0,0,0,.62-.6C146.32,220.48,146.31,219.74,146.31,218.9Z"/><path class="cls-1" d="M140.13,246.86c2.11,0,4.21,0,6.32,0,1.18,0,1.3.13,1.31,1.27s0,2.07,0,3.1-.21,1.38-1.38,1.38H135.15c-.53,0-1.07,0-1.6,0-.72,0-1-.27-1-1,0-1.25,0-2.5,0-3.74,0-.85.16-1,1-1C135.78,246.84,138,246.86,140.13,246.86ZM134,248.32V250c0,1.15.06,1.21,1.2,1.21h9.31c1.95,0,1.88.11,1.87-1.87,0-1.08-.05-1.12-1.17-1.13H135.1C134.76,248.23,134.42,248.28,134,248.32Z"/><path class="cls-1" d="M230.39,154.73h-1v-.12a2.2,2.2,0,0,1,.36,0h.7Z"/><path class="cls-1" d="M308.66,65A24.91,24.91,0,0,1,308,71.5a9.94,9.94,0,0,1-.87,2.17,1.2,1.2,0,0,1-2.17.07,3.14,3.14,0,0,1-.55-1.15c-.42-1.8-.86-3.61-1.15-5.44a40.59,40.59,0,0,1-.57-8.1,13.2,13.2,0,0,1,.84-4.39,6.84,6.84,0,0,1,.42-.86c.59-1.1,1.36-1.32,2.37-.22A6.84,6.84,0,0,1,307.56,56,31.83,31.83,0,0,1,308.66,65Zm-2.77,7.43.27,0a5.89,5.89,0,0,0,.43-1,18.31,18.31,0,0,0,.46-2.73A47,47,0,0,0,306.64,58a18.27,18.27,0,0,0-.91-2.83c-.08-.21-.36-.36-.7-.68a16.19,16.19,0,0,0-.59,2c-.77,5.05-.05,10,1.11,14.92C305.63,71.78,305.78,72.09,305.89,72.41Z"/><path class="cls-1" d="M79.46,174.84a14.83,14.83,0,0,1-1.31,7.24c-.5,1.19-1,1.44-2.24,1.31-1.81-.18-3.62-.35-5.43-.56-1.11-.12-1.26-.3-1.28-1.41q-.47-22.48-.9-45c-.1-5-.1-10-.17-15a3.4,3.4,0,0,1,2.22-3.34,3.27,3.27,0,0,1,4.42,1.16,10.29,10.29,0,0,1,1.94,5.35c.37,8,.84,16,1.27,24q.55,10.38,1.11,20.75C79.18,171,79.31,172.6,79.46,174.84ZM70,150.77h0q.24,14.73.5,29.44c0,1.21,0,1.23,1.27,1.35s2.41.21,3.62.36,1.37,0,1.73-1.07a16.25,16.25,0,0,0,.83-6c-.45-7.48-.83-15-1.25-22.45-.28-5-.58-10-.85-15-.25-4.45-.51-8.91-.71-13.36a7.54,7.54,0,0,0-1.81-4.26,1.46,1.46,0,0,0-.73-.58,2.31,2.31,0,0,0-3.05,2.1c.06.88,0,1.78,0,2.67Q69.82,137.39,70,150.77Z"/><path class="cls-1" d="M85.51,128c.09-3,.16-5.42.24-7.88a2.69,2.69,0,0,1,1.15-2.29,1.47,1.47,0,0,1,1.79,0,4,4,0,0,1,2,2.93c.32,2.51.65,5,.75,7.55a85.39,85.39,0,0,1-.75,15.49,15.35,15.35,0,0,1-.47,1.86A1.46,1.46,0,0,1,90,146c-.35.61-.76,1.21-1.53,1.17s-1.15-.69-1.34-1.36a14.07,14.07,0,0,1-.52-2.4c-.27-2.41-.53-4.82-.7-7.24C85.73,133.26,85.63,130.37,85.51,128Zm2.93,17,.32.05a9.53,9.53,0,0,0,.41-1.28c.18-1.05.36-2.11.45-3.17a87.55,87.55,0,0,0,.24-14.75c-.13-1.57-.33-3.13-.61-4.67a4.88,4.88,0,0,0-.83-1.81c-.4-.56-.87-.46-1.09.21a6.93,6.93,0,0,0-.23,1.58,124.15,124.15,0,0,0,.9,21.46C88.1,143.42,88.29,144.21,88.44,145Z"/></g></g></svg>