<svg xmlns="http://www.w3.org/2000/svg" viewBox="0 0 326.34 229.29"><defs><style>.cls-1{fill:#fff;}</style></defs><g id="Layer_2" data-name="Layer 2"><g id="Design"><path class="cls-1" d="M325.93,229.29H262.79l-.23-.64a14.89,14.89,0,0,1-.82-3.81A19.52,19.52,0,1,1,292.6,203.4a17,17,0,0,1,13,8.38,15.08,15.08,0,0,1,20.78,14,14.61,14.61,0,0,1-.25,2.76Zm-61.76-1.93h60.15a14.08,14.08,0,0,0,.09-1.61,13.17,13.17,0,0,0-18.86-11.86l-.85.41-.43-.84a15,15,0,0,0-12.45-8.18l-.67,0-.19-.64a17.59,17.59,0,1,0-27.68,19l.34.27,0,.44A13.08,13.08,0,0,0,264.17,227.36Z"/><path class="cls-1" d="M31.52,170.76a14.32,14.32,0,0,1-12-6.58l-.81,0a14.29,14.29,0,0,1-12.93-20.4,14.28,14.28,0,0,1,8.85-25.73,14.29,14.29,0,0,1,26.52-4.17,14.29,14.29,0,0,1,10.73,24.42,13.94,13.94,0,0,1,2.91,4.54,14.32,14.32,0,0,1-8,18.57,14.5,14.5,0,0,1-2.12.65,14.24,14.24,0,0,1-13.11,8.67ZM20,162.21a1,1,0,0,1,.83.48A12.33,12.33,0,0,0,36.08,168a12.22,12.22,0,0,0,7-7,1,1,0,0,1,.73-.6,12.23,12.23,0,0,0,2.28-.66A12.38,12.38,0,0,0,53,143.58,12.2,12.2,0,0,0,49.79,139a1,1,0,0,1-.31-.73,1,1,0,0,1,.34-.72,12.36,12.36,0,0,0-8-21.74c-.38,0-.76,0-1.13,0a1,1,0,0,1-1-.53,12.46,12.46,0,0,0-11.08-6.87,12.39,12.39,0,0,0-12.24,10.73,1,1,0,0,1-1,.84A12.32,12.32,0,0,0,3,127.47a12.36,12.36,0,0,0,4.57,15.22A1,1,0,0,1,7.84,144a12.35,12.35,0,0,0,10.84,18.31q.62,0,1.23-.06Z"/><path class="cls-1" d="M31.25,162.81a.94.94,0,0,1-.58-.19,1,1,0,0,1-.19-1.36l7-9.21A1,1,0,0,1,39,153.22l-7,9.21A1,1,0,0,1,31.25,162.81Z"/><path class="cls-1" d="M31.25,154.94a1,1,0,0,1-.62-.23L27,151.62a1,1,0,0,1,1.25-1.48l3.67,3.09a1,1,0,0,1-.62,1.71Z"/><path class="cls-1" d="M32.21,202.74V148.22a1,1,0,1,0-1.93,0v54.69A13.71,13.71,0,0,1,32.21,202.74Z"/><path class="cls-1" d="M251.65,102.23,231.31,80.1V52.6h20.34ZM233.24,79.35l16.48,17.93V54.53H233.24Z"/><path class="cls-1" d="M289.4,178.24H273.93v-5.07l-47.17-51.84L179.6,173.17v5.07H164.12l62.64-69.57Zm-13.54-1.93h9.2l-58.3-64.75-58.3,64.75h9.21v-3.89l.25-.28,48.84-53.68,49.1,54Z"/><path class="cls-1" d="M196.42,131.77,117.83,46.29l-66,71.76a12.74,12.74,0,0,1,1.28,1.46l64.7-70.37L192,129.84H179.6v-5L117.83,58.39,56.06,124.88v3c0,.25,0,.51,0,.76v1.25H56a16,16,0,0,1-.36,1.93H58v-6.13l59.84-64.41,59.84,64.41v6.13Z"/><path class="cls-1" d="M262.56,228.65c-.15-.42-.28-.86-.39-1.29H179.6V178.24h-1.93v51h85.12Z"/><path class="cls-1" d="M274.15,190.26c.56,0,1.12,0,1.68.07V178.24h-1.9v-5.07l0,0v17.12Z"/><polygon class="cls-1" points="177.67 129.84 177.67 163.2 179.6 161.05 179.6 131.77 196.43 131.77 124.7 53.76 160.28 14.94 273.9 138.53 273.9 161.02 275.83 163.17 275.83 137.78 160.99 12.86 160.28 12.08 122.07 53.76 192.02 129.84 177.67 129.84"/><path class="cls-1" d="M293.28,144.66H273.9v-6.13L160.28,14.94,123.39,55.18l-6.87-7.47L160.29,0Zm-17.45-1.93h13.05L160.29,2.86,119.14,47.71l4.25,4.62,36.89-40.25,115.55,125.7Z"/><path class="cls-1" d="M242.59,229.29h-34v-62.1h34Zm-32-1.93h30.09V169.13H210.57Z"/><path class="cls-1" d="M106.94,155.34H78.35V109.15h28.59Zm-26.66-1.93H105V111.08H80.28Z"/><path class="cls-1" d="M157.57,155.34H129V109.15h28.6Zm-26.67-1.93h24.74V111.08H130.9Z"/><path class="cls-1" d="M161.82,229.29H62.89V163.46h98.93Zm-97-1.93h95.07v-62H64.82Z"/><path class="cls-1" d="M160.86,229.29h-97a1,1,0,0,1,0-1.93h97a1,1,0,0,1,0,1.93Z"/><path class="cls-1" d="M160.86,213.31h-97a1,1,0,0,1,0-1.93h97a1,1,0,0,1,0,1.93Z"/><path class="cls-1" d="M160.86,197.34h-97a1,1,0,0,1,0-1.93h97a1,1,0,0,1,0,1.93Z"/><path class="cls-1" d="M160.86,181.37h-97a1,1,0,0,1,0-1.94h97a1,1,0,0,1,0,1.94Z"/><path class="cls-1" d="M160.86,165.39h-97a1,1,0,0,1,0-1.93h97a1,1,0,0,1,0,1.93Z"/><path class="cls-1" d="M205.69,100.72H172.45a1,1,0,0,1-1-1V68.84a1,1,0,0,1,1-1h33.24a1,1,0,0,1,1,1V99.76A1,1,0,0,1,205.69,100.72Zm-32.27-1.93h31.3v-29h-31.3Z"/><path class="cls-1" d="M173.42,50H146v-1c0-8,6.15-14.5,13.72-14.5s13.72,6.5,13.72,14.5ZM147.94,48.1h23.51c-.47-6.48-5.56-11.6-11.75-11.6S148.41,41.62,147.94,48.1Z"/><rect class="cls-1" x="79.31" y="132.93" width="26.67" height="1.93"/><rect class="cls-1" x="129.94" y="132.93" width="26.67" height="1.93"/><rect class="cls-1" x="172.45" y="83.33" width="33.24" height="1.93"/><path class="cls-1" d="M253.29,45.68H228.54a1,1,0,0,1-.86-.53,1,1,0,0,1,.07-1l3.48-4.94a1,1,0,0,1,.79-.41H249.8a1,1,0,0,1,.79.41L254,44a1,1,0,0,1,.28.68A1,1,0,0,1,253.29,45.68ZM230.4,43.74h21l-2.11-3H232.52Z"/><path class="cls-1" d="M234.72,54.53a1,1,0,0,1-1-1V44.71a1,1,0,1,1,1.93,0v8.85A1,1,0,0,1,234.72,54.53Z"/><path class="cls-1" d="M247.22,54.53a1,1,0,0,1-1-1V44.71a1,1,0,1,1,1.94,0v8.85A1,1,0,0,1,247.22,54.53Z"/><path class="cls-1" d="M117.83,58.39,56.06,124.88v96.66a11.72,11.72,0,0,1,1.93.71V125.64l59.84-64.41,59.84,64.41V163.2l1.93-2.15V124.88Z"/><path class="cls-1" d="M177.67,227.36H63.58l.22.38a1,1,0,0,1-.77,1.55H179.6v-51h-1.93Z"/><path class="cls-1" d="M63,229.29H6.49a1,1,0,0,1-1-.86,11.59,11.59,0,0,1-.06-1.22,12.58,12.58,0,0,1,14.31-12.44,12.56,12.56,0,0,1,25.11.53v.16a12.65,12.65,0,0,1,6.56,5.69c.41,0,.83-.06,1.27-.06a12.51,12.51,0,0,1,11.08,6.65,1,1,0,0,1-.77,1.55ZM7.41,227.36H61.28A10.57,10.57,0,0,0,52.72,223a10.09,10.09,0,0,0-1.67.13,1,1,0,0,1-1-.54,10.73,10.73,0,0,0-6.42-5.55,1,1,0,0,1-.68-1c0-.24,0-.5,0-.75a10.63,10.63,0,1,0-21.25,0c0,.2,0,.41,0,.6a1,1,0,0,1-.35.79,1,1,0,0,1-.85.19,10.11,10.11,0,0,0-2.49-.3A10.64,10.64,0,0,0,7.41,227.21Z"/></g></g></svg>