<svg xmlns="http://www.w3.org/2000/svg" viewBox="0 0 57.44 119.81"><defs><style>.cls-1{fill:#003459;}</style></defs><g id="Layer_2" data-name="Layer 2"><g id="Design"><path class="cls-1" d="M52.19,115.2c1.14.35,2.28.67,3.43,1l.41-1.41c-1.13-.29-2.25-.6-3.36-1Zm-6.67-2.42q1.63.69,3.3,1.29l.56-1.37q-1.64-.6-3.24-1.26Zm-6.4-3c1,.55,2.1,1.08,3.16,1.58L43,110c-1-.5-2.08-1-3.1-1.55ZM16.84,1.39l1.2.92c.39-.46.78-.91,1.19-1.36L18.06,0C17.65.46,17.24.92,16.84,1.39ZM33.05,106.2c1,.64,2,1.25,3,1.85l.82-1.25c-1-.58-2-1.19-2.93-1.81ZM12.62,6.89l1.28.8c.65-.93,1.31-1.84,2-2.74l-1.24-.86C14,5,13.28,5.94,12.62,6.89Zm14.74,95.22c.91.72,1.85,1.42,2.8,2.1l.93-1.17c-.94-.66-1.85-1.35-2.75-2.06ZM9,12.76l1.36.68q.81-1.47,1.71-2.91l-1.32-.74C10.12,10.76,9.54,11.76,9,12.76Zm13.1,84.78q1.26,1.2,2.58,2.34l1-1.08c-.86-.75-1.71-1.52-2.53-2.3ZM5.94,18.93l1.42.56Q8,17.95,8.77,16.43l-1.39-.62Q6.63,17.36,5.94,18.93ZM17.26,92.54c.76.87,1.54,1.72,2.35,2.55l1.13-1c-.78-.82-1.55-1.65-2.3-2.51ZM3.51,25.34,5,25.77c.35-1.06.72-2.12,1.11-3.17l-1.44-.49C4.24,23.18,3.86,24.26,3.51,25.34Zm9.43,61.79c.67.93,1.37,1.85,2.09,2.75L16.26,89c-.71-.88-1.39-1.78-2.05-2.69ZM1.71,31.93l1.5.3c.25-1.09.52-2.17.81-3.25l-1.49-.36C2.23,29.71,2,30.82,1.71,31.93ZM9.17,81.36c.58,1,1.18,2,1.81,2.93l1.31-.78c-.62-.94-1.21-1.9-1.78-2.87ZM.54,38.64l1.53.17c.13-1.1.3-2.2.49-3.3L1,35.27C.85,36.39.68,37.52.54,38.64ZM6,75.27c.48,1,1,2.07,1.51,3.08l1.38-.65c-.52-1-1-2-1.48-3ZM0,45.43l1.53,0c0-1.11.09-2.23.18-3.34L.19,42C.11,43.16.05,44.3,0,45.43ZM3.46,68.91c.37,1.08.76,2.15,1.19,3.21l1.43-.52c-.41-1-.79-2.08-1.15-3.14ZM.15,52.23l1.54-.1q-.12-1.66-.15-3.33L0,48.84Q0,50.54.15,52.23ZM1.62,62.34c.25,1.11.53,2.21.84,3.31l1.48-.38Q3.49,63.65,3.13,62Zm-.78-4.1L1,59l1.52-.25L2.36,58c-.14-.85-.26-1.7-.36-2.56l-1.53.17C.58,56.5.7,57.37.84,58.24Z"/><polygon class="cls-1" points="49.17 119.81 48.48 118.5 55.27 115.25 51.4 109.05 52.73 108.3 57.44 115.86 49.17 119.81"/></g></g></svg>