<svg xmlns="http://www.w3.org/2000/svg" xmlns:xlink="http://www.w3.org/1999/xlink" viewBox="0 0 326.54 200.37"><defs><style>.cls-1,.cls-2,.cls-6{fill:none;}.cls-2{clip-rule:evenodd;}.cls-3{fill:#dbf2fd;}.cls-4{fill:#eee;}.cls-5{fill:#39b5ec;}.cls-6{stroke:#003459;stroke-linecap:round;stroke-linejoin:round;stroke-width:1.01px;}.cls-7{fill:#003459;}.cls-8{font-size:7.35px;letter-spacing:0.24em;}.cls-12,.cls-8,.cls-9{fill:#202020;}.cls-8,.cls-9{font-family:Montserrat-Medium, Montserrat;font-weight:500;}.cls-9{font-size:2.53px;letter-spacing:0.24em;}.cls-10{clip-path:url(#clip-path);}.cls-11{clip-path:url(#clip-path-2);}.cls-13{clip-path:url(#clip-path-3);}.cls-14{opacity:0.5;}.cls-15{fill:#3eb4e8;}.cls-16{clip-path:url(#clip-path-5);}.cls-17{clip-path:url(#clip-path-7);}.cls-18{clip-path:url(#clip-path-9);}</style><clipPath id="clip-path"><circle class="cls-1" cx="230.51" cy="147.11" r="10.38"/></clipPath><clipPath id="clip-path-2"><rect class="cls-1" x="165.64" y="99.64" width="129.74" height="108.11"/></clipPath><clipPath id="clip-path-3"><path class="cls-2" d="M235.89,143.1h0a1.09,1.09,0,0,0-1.39.65l-2.45,6.74a1.07,1.07,0,0,0,.64,1.39,1.09,1.09,0,0,0,1.39-.65l2.45-6.74A1.08,1.08,0,0,0,235.89,143.1Z"/></clipPath><clipPath id="clip-path-5"><path class="cls-2" d="M230.2,143.1h0a1.09,1.09,0,0,1,1.39.65l2.45,6.74a1.07,1.07,0,0,1-.64,1.39,1.09,1.09,0,0,1-1.39-.65l-2.45-6.74A1.08,1.08,0,0,1,230.2,143.1Z"/></clipPath><clipPath id="clip-path-7"><path class="cls-2" d="M224.2,143.47h0a2.15,2.15,0,0,1,2.77,1.29l2.09,5.73a1.08,1.08,0,1,1-2,.74Z"/></clipPath><clipPath id="clip-path-9"><path class="cls-2" d="M230.91,143.1h0a1.09,1.09,0,0,0-1.39.65l-2.46,6.74a1.09,1.09,0,1,0,2,.74l2.45-6.74A1.08,1.08,0,0,0,230.91,143.1Z"/></clipPath></defs><g id="Layer_2" data-name="Layer 2"><g id="Design"><path class="cls-3" d="M260.32,108.35a24.23,24.23,0,0,0-13.83-6.91c-3.39-.46-6.84-.2-10.26-.28-6.17-.14-12.31-1.41-18.48-1.07S205,102.75,201.8,108Z"/><path class="cls-4" d="M319.29,108.86c-1.47-4.53-6.47-6.81-11.07-8a61.57,61.57,0,0,0-25.7-1.18c-9.25,1.55-17.42,5.22-26.79,5.08l4.59,3.62Z"/><path class="cls-5" d="M232.55,100.92c6.55-3.8,13.9-6.81,21.46-6.37,3.27.2,6.46,1,9.69,1.53,5.4.84,10.89.77,16.33,1.18,2,.14,4.15.46,5.41,2a73.34,73.34,0,0,0-9.83,1.92c-5.72,1.48-19.88,3.57-19.88,3.57s-4.59-2.86-7.52-3.26S232.55,100.92,232.55,100.92Z"/><rect class="cls-6" x="0.5" y="0.5" width="129.79" height="186.17" rx="12.42"/><line class="cls-6" x1="0.5" y1="16.99" x2="130.29" y2="16.99"/><line class="cls-6" x1="0.5" y1="19.65" x2="130.29" y2="19.65"/><line class="cls-6" x1="0.5" y1="39.33" x2="130.29" y2="39.33"/><line class="cls-6" x1="0.5" y1="45.18" x2="130.29" y2="45.18"/><line class="cls-6" x1="34.28" y1="19.65" x2="34.28" y2="39.33"/><line class="cls-6" x1="43.06" y1="19.65" x2="43.06" y2="39.33"/><line class="cls-6" x1="87.47" y1="19.51" x2="87.47" y2="39.19"/><line class="cls-6" x1="96.25" y1="19.51" x2="96.25" y2="39.19"/><rect class="cls-6" x="48.74" y="23.64" width="19.34" height="9.04"/><rect class="cls-6" x="107.86" y="22.06" width="11.09" height="14.58"/><rect class="cls-6" x="71.58" y="23.64" width="11.72" height="13"/><line class="cls-6" x1="75.35" y1="23.64" x2="75.35" y2="36.64"/><line class="cls-6" x1="79.92" y1="23.64" x2="79.92" y2="36.64"/><line class="cls-6" x1="83.3" y1="27.77" x2="71.58" y2="27.77"/><line class="cls-6" x1="83.3" y1="32.52" x2="71.58" y2="32.52"/><circle class="cls-6" cx="16.14" cy="29.49" r="6.05"/><circle class="cls-6" cx="16.14" cy="29.49" r="3.79"/><line class="cls-6" x1="22.18" y1="45.18" x2="22.18" y2="186.67"/><line class="cls-6" x1="107.86" y1="45.18" x2="107.86" y2="186.67"/><line class="cls-6" x1="22.18" y1="134.01" x2="107.86" y2="134.01"/><line class="cls-6" x1="22.18" y1="131.71" x2="107.86" y2="131.71"/><path class="cls-6" d="M32.75,81V67.8A11.63,11.63,0,0,1,44.38,56.18H85.66A11.63,11.63,0,0,1,97.29,67.8v41.29a11.63,11.63,0,0,1-11.63,11.62H44.38a11.63,11.63,0,0,1-11.63-11.62V95.89"/><circle class="cls-6" cx="65.02" cy="88.45" r="25.86"/><circle class="cls-6" cx="65.02" cy="88.45" r="22.91"/><rect class="cls-6" x="30.82" y="81" width="5.32" height="14.89"/><path class="cls-7" d="M210.13,187.07h-67.7a10.35,10.35,0,0,1-10.34-10.34V10.44A10.35,10.35,0,0,1,142.43.1H244.79a10.35,10.35,0,0,1,10.34,10.34V66.68h-.8V10.44A9.54,9.54,0,0,0,244.79.91H142.43a9.54,9.54,0,0,0-9.54,9.53V176.73a9.55,9.55,0,0,0,9.54,9.54h67.7"/><line class="cls-6" x1="132.49" y1="39.33" x2="254.73" y2="39.33"/><line class="cls-6" x1="132.49" y1="45.18" x2="254.73" y2="45.18"/><rect class="cls-6" x="144.11" y="14.04" width="20.45" height="3.78"/><rect class="cls-6" x="178.7" y="22.51" width="29.82" height="5.52" rx="2.76"/><rect class="cls-6" x="140.82" y="11.48" width="26.71" height="21.17"/><circle class="cls-6" cx="239.84" cy="26.73" r="6.05"/><circle class="cls-6" cx="239.84" cy="26.73" r="3.79"/><line class="cls-6" x1="132.49" y1="144.86" x2="200.47" y2="144.86"/><line class="cls-6" x1="132.49" y1="142.56" x2="200.47" y2="142.56"/><rect class="cls-6" x="142.98" y="19.81" width="2.92" height="2.92"/><rect class="cls-6" x="142.98" y="23.81" width="2.92" height="2.92"/><rect class="cls-6" x="142.98" y="27.74" width="2.92" height="2.92"/><rect class="cls-6" x="162.33" y="23.81" width="2.92" height="2.92"/><rect class="cls-6" x="162.33" y="27.74" width="2.92" height="2.92"/><rect class="cls-6" x="148.22" y="27.74" width="2.92" height="2.92"/><rect class="cls-6" x="157.33" y="27.74" width="2.92" height="2.92"/><rect class="cls-6" x="148.22" y="19.81" width="2.92" height="2.92"/><rect class="cls-6" x="157.33" y="19.81" width="2.92" height="2.92"/><path class="cls-1" d="M253.92,67.08l-31.27.09a39.26,39.26,0,0,1,9.55,33.64A12.89,12.89,0,0,1,234,99.7a9.25,9.25,0,0,1,2.32-.8c5.56-2.78,11.58-4.71,17.74-4.35.85,0,1.69.15,2.53.27V69.7A2.63,2.63,0,0,0,253.92,67.08Z"/><path class="cls-1" d="M221.56,67.18h-.23v-.24l-.53-.54A38.45,38.45,0,1,0,193.61,132a39.06,39.06,0,0,0,6-.47l-.26-4.59a34.6,34.6,0,0,1-5.78.49,33.84,33.84,0,1,1,33.19-27l4.58.44a39.13,39.13,0,0,0,.68-7.28A38.17,38.17,0,0,0,221.56,67.18Z"/><path class="cls-1" d="M214.29,72.9a29.25,29.25,0,1,0-22,49.91v-6.16a8.11,8.11,0,0,1,8.11-8.11h1.14a3.2,3.2,0,0,1,.34-.53h-.06c3.24-5.26,9.78-7.59,15.95-7.92,1.47-.08,2.93-.07,4.39,0a29.33,29.33,0,0,0-7.85-27.18Z"/><path class="cls-1" d="M217,70.2a33.08,33.08,0,1,0-23.39,56.46,33.19,33.19,0,0,0,5.74-.49l0-.57a11,11,0,0,1-.4-1.86h-6.64v-.13a30.05,30.05,0,1,1,31.4-30,30.81,30.81,0,0,1-.71,6.53c1,.06,2,.14,3,.23a33.7,33.7,0,0,0,.69-6.76A32.85,32.85,0,0,0,217,70.2Z"/><path class="cls-7" d="M217.57,69.63a33.88,33.88,0,1,0-24,57.84,34.6,34.6,0,0,0,5.78-.49l0-.81a33.09,33.09,0,0,1-38.82-32.58,33.08,33.08,0,0,1,66.16,0,33.7,33.7,0,0,1-.69,6.76l.8.08a34,34,0,0,0-9.23-30.8Z"/><path class="cls-7" d="M193.61,132A38.45,38.45,0,1,1,220.8,66.4l.53.54v-.57h.57l-.53-.54a39.26,39.26,0,1,0-27.76,67,39.7,39.7,0,0,0,6.09-.46l0-.81A39.06,39.06,0,0,1,193.61,132Z"/><path class="cls-7" d="M222.65,67.17h-1.09a38.17,38.17,0,0,1,10.5,26.41,39.13,39.13,0,0,1-.68,7.28l.67.06.15-.12a39.26,39.26,0,0,0-9.55-33.64Z"/><path class="cls-7" d="M214.86,72.33a30.06,30.06,0,1,0-22.59,51.28v-.8a29.21,29.21,0,1,1,29.87-22.73l.82,0a30.81,30.81,0,0,0,.71-6.53A29.87,29.87,0,0,0,214.86,72.33Z"/><path class="cls-7" d="M221.33,66.94v.24h1.32l31.27-.09a2.63,2.63,0,0,1,2.62,2.62V94.82c.27,0,.53.07.8.12V69.7a3.42,3.42,0,0,0-3.42-3.42l-32,.09h-.57Z"/><path class="cls-6" d="M319.06,124.33l-2.95,52.31a10.49,10.49,0,0,1-10.49,10.49H212.69a10.49,10.49,0,0,1-10.49-10.49l-3-52.31"/><path class="cls-6" d="M202.41,108.54H315.89A10.14,10.14,0,0,1,326,118.68v5.06a0,0,0,0,1,0,0H192.27a0,0,0,0,1,0,0v-5.06A10.14,10.14,0,0,1,202.41,108.54Z"/><circle class="cls-6" cx="213.69" cy="193.83" r="6.03"/><text class="cls-8" transform="translate(245.21 149.92)">WASHMIX</text><text class="cls-9" transform="translate(295.55 150.27)">®</text><g class="cls-10"><g class="cls-11"><path class="cls-12" d="M230.51,158.35a11.25,11.25,0,1,1,11.24-11.24A11.26,11.26,0,0,1,230.51,158.35Zm0-20.76a9.52,9.52,0,1,0,9.51,9.52A9.53,9.53,0,0,0,230.51,137.59Z"/></g></g><g class="cls-13"><g class="cls-11"><g class="cls-14"><rect class="cls-15" x="229.08" y="145.87" width="10.42" height="3.24" transform="matrix(0.34, -0.94, 0.94, 0.34, 15.56, 317.21)"/></g></g></g><g class="cls-16"><g class="cls-11"><g class="cls-14"><rect class="cls-15" x="230.18" y="142.28" width="3.24" height="10.42" transform="translate(-36.47 88.17) rotate(-20)"/></g></g></g><g class="cls-17"><g class="cls-11"><g class="cls-14"><rect class="cls-15" x="225.2" y="142.28" width="3.24" height="10.42" transform="translate(-36.77 86.47) rotate(-20)"/></g></g></g><g class="cls-18"><g class="cls-11"><g class="cls-14"><rect class="cls-15" x="224.1" y="145.87" width="10.42" height="3.24" transform="translate(12.28 312.52) rotate(-70)"/></g></g></g><path class="cls-6" d="M213.24,187.8h1.34a1,1,0,0,1,1,1v4.91a1.86,1.86,0,0,1-1.86,1.86h0a1.86,1.86,0,0,1-1.86-1.86v-4.47a1.42,1.42,0,0,1,1.42-1.42Z"/><path class="cls-6" d="M215.7,191.2a3.46,3.46,0,0,1,1.31,2.63,3.32,3.32,0,1,1-5.67-2.35,4.63,4.63,0,0,1,.48-.4"/><circle class="cls-6" cx="304.14" cy="193.83" r="6.03"/><path class="cls-6" d="M303.69,187.8H305a1,1,0,0,1,1,1v4.91a1.86,1.86,0,0,1-1.86,1.86h0a1.86,1.86,0,0,1-1.86-1.86v-4.47a1.42,1.42,0,0,1,1.42-1.42Z"/><path class="cls-6" d="M306.15,191.2a3.46,3.46,0,0,1,1.31,2.63,3.32,3.32,0,1,1-5.67-2.35,3.88,3.88,0,0,1,.49-.4"/><path class="cls-6" d="M201.8,108c3.24-5.26,9.78-7.59,15.95-7.92s12.31.93,18.48,1.07c3.42.08,6.87-.18,10.26.28a24.23,24.23,0,0,1,13.83,6.91"/><path class="cls-6" d="M255.73,104.73c9.37.14,17.54-3.53,26.79-5.08a61.57,61.57,0,0,1,25.7,1.18c4.6,1.22,9.6,3.5,11.07,8"/><path class="cls-6" d="M232.55,100.92c6.55-3.8,13.9-6.81,21.46-6.37,3.27.2,6.46,1,9.69,1.53,5.4.84,10.89.77,16.33,1.18,2,.14,4.15.46,5.41,2"/></g></g></svg>