<svg xmlns="http://www.w3.org/2000/svg" viewBox="0 0 348.59 122.14"><defs><style>.cls-1{fill:#fff;}.cls-2{fill:#39b6ed;}</style></defs><g id="Layer_2" data-name="Layer 2"><g id="Design"><path class="cls-1" d="M23,114.62c-2,2-3.69,3.85-5.07,5.44l-.9-.72c1.4-1.61,3.14-3.48,5.12-5.5Zm22-20.35c-3.71,3.17-7.56,6.59-11.23,10l-.81-.81c3.68-3.39,7.55-6.82,11.26-10ZM62.82,80.51a63.22,63.22,0,0,0-6.12,4.26L56,83.89a65.77,65.77,0,0,1,6.25-4.35Zm5.76-4a67.59,67.59,0,0,0-5.7,4l-.73-.88q2.82-2.17,5.8-4ZM94.47,66.24a90.29,90.29,0,0,0-13.42,4l-.44-1a92.71,92.71,0,0,1,13.6-4.09Zm28-3.16c-4.83.14-9.53.43-14.1.92l-.13-1.12c4.6-.5,9.34-.79,14.2-.93Zm28.28.55c-4.81-.26-9.53-.46-14.15-.56l0-1.13c4.64.11,9.37.31,14.18.56ZM179,65.51l-14.14-1,.08-1.12,14.14,1Zm28.3,1.7c-4.77-.21-9.49-.47-14.16-.75l.08-1.13c4.66.29,9.38.55,14.14.75Zm28.38.42c-4.76.09-9.5.09-14.19,0l0-1.13q7,.12,14.15,0ZM257,66.57q-3.54.3-7.08.51L249.83,66q3.51-.22,7-.52Zm7-.78c-2.28.31-4.62.57-7,.78l-.1-1.13c2.39-.2,4.72-.46,7-.76Zm27.23-7.13a102.34,102.34,0,0,1-13.38,4.44l-.3-1.09a99.91,99.91,0,0,0,13.22-4.39Zm23.69-14.75a76,76,0,0,1-11.18,8.39l-.63-.95a74.8,74.8,0,0,0,11-8.26Zm16-22.32a58.52,58.52,0,0,1-6.76,12l-1-.64a57.61,57.61,0,0,0,6.64-11.78ZM333.8,1.4a22.73,22.73,0,0,1,.48,6.9l-1.17-.08a21.68,21.68,0,0,0-.45-6.56ZM62.52,80l.36.44,0,0,0,0ZM256.93,66l-.05-.57Z"/><path class="cls-2" d="M35.67,120.91c-.38.41-.74.82-1.1,1.23l-1.35-1.08c.37-.42.75-.85,1.14-1.27Zm4.73-4.7c-.84.77-1.64,1.53-2.42,2.3l-1.26-1.18c.79-.78,1.62-1.57,2.47-2.35Zm5.08-4.4c-.87.72-1.73,1.44-2.57,2.17l-1.18-1.26q1.27-1.11,2.61-2.19Zm5.3-4.16c-.9.68-1.79,1.36-2.68,2.06L47,108.4c.9-.71,1.8-1.4,2.7-2.08Zm5.45-4c-.91.64-1.82,1.3-2.74,2l-1.06-1.35c.92-.67,1.85-1.34,2.76-2Zm5.59-3.82c-.92.61-1.86,1.24-2.81,1.89l-1-1.38,2.83-1.9Zm5.69-3.66L64.65,98l-1-1.41,2.89-1.82Zm4.34-2.61-1.45.85L69.48,93,71,92.13Zm1.49-1.11c-.47.34-.93.69-1.39,1l-1.1-1.32c.47-.36.94-.72,1.42-1.07Zm5.76-3.81c-1,.59-2,1.2-2.94,1.84l-1-1.4c1-.65,2-1.28,3-1.88Zm6.14-3.24c-1,.5-2.09,1-3.11,1.55l-.85-1.48c1-.56,2.11-1.08,3.19-1.59Zm6.43-2.67c-1.1.4-2.18.82-3.25,1.27l-.69-1.56c1.09-.45,2.19-.88,3.31-1.29Zm6.65-2.13c-1.13.31-2.24.64-3.35,1L94.42,80c1.12-.36,2.26-.7,3.41-1ZM105.13,79c-1.15.24-2.29.5-3.42.77l-.43-1.64c1.15-.28,2.31-.54,3.49-.78Zm6.92-1.2c-1.17.16-2.32.35-3.47.55l-.31-1.67c1.16-.2,2.33-.39,3.52-.56Zm7-.84c-1.18.11-2.34.24-3.5.37l-.22-1.68c1.18-.14,2.36-.26,3.55-.37Zm7-.52c-1.18.06-2.36.14-3.52.22L122.41,75c1.18-.09,2.37-.17,3.56-.23Zm7.05-.26c-1.19,0-2.36.06-3.53.1l-.07-1.69c1.18,0,2.37-.08,3.56-.1Zm7.06-.05h-3.53V74.41h3.55Zm7.06.13-3.52-.09,0-1.69,3.54.08Zm7.08.25-3.54-.14.07-1.69,3.55.14Zm7.07.36-3.55-.19.1-1.69,3.55.19Zm7.06.43-3.54-.22.11-1.69,3.55.22Zm7.07.47L172,77.5l.12-1.69,3.54.25Zm7.06.5L179,78l.13-1.69,3.54.26Zm7.07.5-3.54-.25.13-1.68,3.54.25Zm7.07.49L193.19,79l.12-1.69,3.53.24Zm7.08.44-3.54-.22.12-1.68,3.53.21Zm7.08.4-3.54-.19.1-1.69,3.54.19Zm7.09.32-3.54-.15.08-1.69,3.53.15Zm7.1.24-3.55-.1.06-1.7,3.54.11Zm7.1.15-3.55-.06,0-1.69,3.53.06Zm7.1,0h-3.55v-1.7c1.17,0,2.35,0,3.53,0Zm7.1-.1c-1.18,0-2.37.05-3.55.06l0-1.69,3.53-.06Zm7.1-.24-3.54.14-.07-1.69,3.53-.14Zm7.1-.39c-1.18.08-2.37.15-3.55.21l-.1-1.69c1.18-.06,2.35-.13,3.53-.21Zm5.32-.4-1.78.14L264,78.14l1.77-.15Zm1.77-.17-1.77.17L265.74,78l1.74-.16Zm7-.93c-1.15.19-2.32.37-3.5.53l-.24-1.68c1.16-.15,2.3-.33,3.43-.52Zm6.88-1.4c-1.13.27-2.28.52-3.44.76l-.36-1.66c1.14-.23,2.26-.48,3.37-.74Zm6.75-1.89c-1.1.35-2.22.69-3.35,1l-.49-1.62c1.11-.31,2.21-.64,3.29-1Zm6.61-2.39c-1.08.44-2.17.86-3.28,1.26L291,72.57c1.09-.39,2.16-.8,3.22-1.23ZM301.26,70c-1,.52-2.09,1-3.17,1.5L297.35,70c1-.47,2.08-1,3.1-1.47Zm6.13-3.35c-1,.6-2,1.17-3,1.74l-.87-1.48c1-.55,2-1.11,3-1.69Zm5.83-3.8c-.94.66-1.9,1.32-2.88,2l-1-1.4c1-.63,1.9-1.27,2.83-1.92Zm5.5-4.24c-.88.73-1.78,1.46-2.7,2.17l-1.1-1.32c.9-.7,1.79-1.41,2.65-2.13ZM323.86,54c-.82.8-1.66,1.58-2.52,2.36l-1.2-1.23c.85-.77,1.67-1.54,2.47-2.32Zm4.77-5c-.75.85-1.53,1.7-2.33,2.54L325,50.41c.79-.83,1.55-1.66,2.29-2.5ZM333,43.68q-1,1.37-2.13,2.7l-1.38-1.05c.72-.87,1.42-1.76,2.09-2.65Zm3.93-5.62c-.61.95-1.25,1.9-1.91,2.85L333.55,40c.65-.93,1.28-1.86,1.88-2.79Zm3.5-5.89c-.54,1-1.1,2-1.69,3l-1.53-.84c.58-1,1.13-2,1.66-2.92Zm3-6.14c-.45,1-.93,2.06-1.44,3.1l-1.59-.73c.51-1,1-2,1.42-3Zm2.47-6.36c-.35,1-.74,2.12-1.16,3.21l-1.65-.6c.42-1.06.79-2.1,1.14-3.13Zm1.81-6.6q-.33,1.62-.81,3.33l-1.7-.44c.31-1.11.57-2.19.79-3.23Zm.89-6.8c0,1.08-.14,2.22-.3,3.43l-1.74-.22c.15-1.16.25-2.25.28-3.26Zm-.45-5.22a14.74,14.74,0,0,1,.32,1.75l-1.75.2a13.22,13.22,0,0,0-.28-1.56ZM71.4,92.85l.55.66,0,0-.05,0Zm194.41-14-.07-.85Z"/><path class="cls-2" d="M2.41,119.32a15.31,15.31,0,0,0-.79,1.56L0,120.22a17.31,17.31,0,0,1,.87-1.71Zm4.1-6c-.78,1-1.5,2-2.16,3l-1.46-.94c.67-1,1.41-2,2.2-3Zm4.62-5.73c-.8.94-1.58,1.89-2.35,2.84l-1.39-1c.78-1,1.57-1.92,2.37-2.87ZM16,102c-.78.87-1.61,1.8-2.45,2.77l-1.34-1.09c.84-1,1.67-1.91,2.47-2.79Zm3.76-4.07c-.39.41-.81.85-1.26,1.34l-1.31-1.13,1.28-1.36Zm1.13-1.27c-.38.42-.75.83-1.1,1.24l-1.35-1.08c.36-.43.74-.85,1.13-1.28ZM25.6,92c-.84.77-1.65,1.54-2.42,2.31L21.92,93.1c.79-.78,1.61-1.57,2.47-2.35Zm5.08-4.39q-1.32,1.08-2.58,2.16l-1.17-1.26q1.28-1.1,2.61-2.19ZM36,83.42c-.89.67-1.79,1.36-2.67,2l-1.11-1.31q1.34-1.05,2.7-2.07Zm5.46-4c-.91.64-1.83,1.3-2.75,2l-1.06-1.35c.93-.68,1.85-1.34,2.77-2ZM47,75.62l-2.8,1.89-1-1.38c1-.66,1.9-1.29,2.83-1.9ZM52.71,72c-.91.56-1.86,1.17-2.86,1.81l-1-1.41c1-.65,2-1.26,2.89-1.82Zm4.34-2.62-1.45.86-.93-1.44,1.47-.87Zm1.48-1.1c-.46.34-.92.68-1.38,1L56.05,68c.47-.36.94-.72,1.42-1.07Zm5.77-3.81c-1,.59-2,1.2-2.94,1.84l-1-1.4c1-.65,2-1.28,3-1.88Zm6.13-3.24c-1,.49-2.08,1-3.1,1.55l-.85-1.49c1-.55,2.11-1.08,3.18-1.58Zm6.43-2.67q-1.64.6-3.24,1.26l-.7-1.55c1.1-.45,2.2-.89,3.32-1.29Zm6.66-2.14c-1.13.32-2.25.65-3.35,1l-.56-1.6q1.69-.54,3.42-1Zm6.81-1.64c-1.15.24-2.29.49-3.43.76l-.42-1.64c1.15-.27,2.31-.53,3.48-.77Zm6.91-1.21c-1.16.17-2.31.36-3.46.55l-.31-1.66c1.16-.2,2.33-.39,3.51-.56Zm7-.83c-1.18.11-2.35.23-3.5.37l-.22-1.68c1.17-.14,2.35-.26,3.54-.38Zm7-.52c-1.18.06-2.36.13-3.53.22l-.13-1.69c1.18-.08,2.37-.16,3.56-.22Zm7-.26c-1.18,0-2.36,0-3.52.1l-.07-1.69c1.18,0,2.36-.08,3.56-.11Zm7.06-.05h-3.52V50.18h3.54Zm7.07.12-3.52-.08,0-1.69,3.54.08Zm7.07.26L136,52.11l.06-1.7,3.55.15Zm7.07.36L143,52.42l.09-1.69,3.56.19Zm7.07.43-3.54-.23.11-1.69,3.55.23Zm7.06.47-3.54-.24.13-1.69,3.54.24Zm7.07.5-3.54-.25.13-1.69,3.54.25Zm7.07.5-3.54-.25.13-1.69,3.53.25Zm7.07.48c-1.18-.08-2.36-.15-3.54-.24l.13-1.68,3.53.23Zm7.08.45-3.54-.22.11-1.69,3.53.22Zm7.08.39-3.54-.19.1-1.68,3.53.18Zm7.09.33L199.63,56l.08-1.69,3.53.15Zm7.09.24-3.54-.11.06-1.69,3.53.11Zm7.1.14-3.54,0,0-1.7,3.53.06Zm7.11,0h-3.55V54.88h3.54Zm7.1-.1-3.55.07,0-1.69,3.54-.07Zm7.1-.23-3.55.13-.06-1.69,3.53-.13Zm7.1-.39-3.55.21-.1-1.69,3.53-.21Zm5.32-.41-1.78.15-.14-1.69,1.76-.14Zm1.81-.16-1.81.16-.16-1.68,1.8-.16Zm7.1-.82q-1.75.24-3.57.45l-.21-1.68c1.2-.14,2.38-.28,3.53-.44Zm7-1.14c-1.15.22-2.31.42-3.51.61l-.29-1.66c1.18-.19,2.33-.4,3.46-.61Zm7-1.52q-1.69.42-3.48.81L270.17,51c1.17-.25,2.31-.52,3.43-.8Zm6.86-1.94c-1.11.36-2.25.7-3.41,1l-.5-1.62c1.15-.33,2.27-.66,3.36-1Zm6.74-2.44c-1.08.44-2.19.87-3.34,1.29l-.62-1.59q1.68-.61,3.27-1.26Zm6.47-3c-1,.55-2.09,1.07-3.2,1.59l-.76-1.53c1.08-.5,2.12-1,3.12-1.54Zm6.12-3.65c-1,.65-2,1.29-3,1.91l-.93-1.44c1-.6,2-1.23,2.92-1.86Zm5.62-4.37c-.87.77-1.78,1.53-2.73,2.27L302,37.34c.93-.73,1.81-1.46,2.64-2.2Zm4.91-5.12c-.73.9-1.52,1.78-2.36,2.66l-1.29-1.15c.81-.85,1.57-1.7,2.27-2.56Zm4-5.81c-.56,1-1.19,2-1.87,3l-1.46-.93c.65-.95,1.25-1.91,1.79-2.86ZM317.64,19q-.56,1.62-1.29,3.27l-1.61-.68q.7-1.56,1.23-3.12Zm1.63-6.82c-.16,1.13-.37,2.28-.65,3.44l-1.71-.38c.26-1.11.47-2.21.61-3.28Zm.25-7a31.38,31.38,0,0,1,.05,3.51l-1.75-.06c0-1.15,0-2.27-.05-3.34ZM318.73,0c.13.56.26,1.13.37,1.72l-1.74.3c-.1-.56-.21-1.11-.34-1.63ZM19.1,97.37l.67.54h0l0,0ZM56.6,68.62l.55.66,0,0-.05,0ZM251,54.6l-.08-.84Z"/><path class="cls-2" d="M135.05,74v-4h53.89v4a6.18,6.18,0,0,1-.55,1.29A4.17,4.17,0,0,1,184.8,77c-5.58,0-11.17,0-16.76,0h-.66c.15.8.23,1.5.42,2.18a3.84,3.84,0,0,0,3.73,3c.62,0,1.25,0,1.87,0a4.78,4.78,0,0,1,1.56.34,2.53,2.53,0,0,1-.53,4.69,5.27,5.27,0,0,1-1.25.14q-11.19,0-22.38,0c-.24,0-.47,0-.71,0a2.56,2.56,0,0,1-.1-5.1c.77-.07,1.55-.06,2.32-.06,2.83,0,4.3-2.58,4.16-5.17H141.25c-.88,0-1.76,0-2.64,0a3.53,3.53,0,0,1-3.22-2A8.13,8.13,0,0,1,135.05,74Zm30.54,3h-7.14c-.35,1.8-.64,3.61-1.91,5.12h10.93A7.9,7.9,0,0,1,165.59,77ZM162,71.8h-2.52c-.64,0-1,.34-1,.87a.88.88,0,0,0,1,.84h5.11a.88.88,0,0,0,1-.85c0-.52-.38-.86-1-.86Z"/><path class="cls-2" d="M188.94,40.24V68.36h-3.65V42c0-1-.26-1.26-1.26-1.26H140c-1.13,0-1.37.24-1.37,1.36V68.36h-3.55V40.24c.39-2.1,2.23-3,4.23-3,15.15,0,30.31,0,45.47,0a5.4,5.4,0,0,1,1.45.12A3.7,3.7,0,0,1,188.94,40.24Z"/><path class="cls-2" d="M183.53,42.47V68.31H140.47V42.47Zm-7.82,18.12c.4-.36.75-.66,1.07-1,.69-.69.52-1.38-.41-1.66-.76-.23-1.51-.46-2.28-.64-.38-.09-.46-.28-.46-.64,0-3.77,0-7.55,0-11.32,0-.88-.28-1.17-1.13-1.17H147.9c-1,0-1.2.26-1.2,1.2V56.25c0,1.65,0,3.31,0,5,0,.74.29,1,1,1.08h20.1c.37,0,.54.09.63.45.17.67.36,1.34.59,2,.41,1.14,1.21,1.35,1.93.49.22-.25.49-.47.71-.72s.37-.21.58,0l1.61,1.61a1.07,1.07,0,0,0,1.77,0l2-1.87c.37-.35.79-.72.51-1.3a2.75,2.75,0,0,0-.61-.72C177,61.72,176.38,61.2,175.71,60.59Z"/><path class="cls-2" d="M148.56,50.23h23.21v6.39l-3.58-1c-.47-.13-1-.36-1.38,0s-.22.93-.08,1.42c.35,1.15.69,2.31,1,3.49H148.56Zm6.3,3.44c-1.15,0-2.3,0-3.44,0-.76,0-1.06.32-1.07,1.09q0,1.52,0,3c0,.72.33,1.05,1.06,1.05h6.82c.74,0,1.05-.31,1.06-1q0-1.52,0-3c0-.81-.29-1.09-1.1-1.1C157.08,53.66,156,53.67,154.86,53.67Z"/><path class="cls-2" d="M148.54,48.43V45.94h23.24v2.49Z"/><path class="cls-2" d="M174.57,59.37c-.18.16-.38.29-.54.46a1,1,0,0,0,0,1.55c.57.57,1.17,1.11,1.76,1.66l.32.35c-.38.33-.74.68-1.15,1-.09.07-.37,0-.48-.1-.45-.41-.87-.85-1.3-1.28-.91-.91-1.47-.91-2.39,0l-.26.25-1.82-5.68,5.81,1.69Z"/><path class="cls-2" d="M152.11,55.42h5.32v1.66h-5.32Z"/></g></g></svg>