<svg xmlns="http://www.w3.org/2000/svg" viewBox="0 0 348.59 146.76"><defs><style>.cls-1{fill:#fff;}.cls-2{fill:#39b6ed;}.cls-3{fill:#ffb8b8;}.cls-4{fill:none;stroke:#41b6e8;stroke-linecap:round;stroke-linejoin:round;stroke-width:0.6px;}</style></defs><g id="Layer_2" data-name="Layer 2"><g id="Design"><path class="cls-1" d="M23,139.24c-2,2-3.69,3.85-5.07,5.44l-.9-.72c1.4-1.61,3.14-3.48,5.12-5.5Zm22-20.35c-3.71,3.17-7.56,6.59-11.23,10L33,128c3.68-3.39,7.55-6.81,11.26-10Zm17.76-13.76a65.08,65.08,0,0,0-6.12,4.26l-.73-.88a65.77,65.77,0,0,1,6.25-4.35Zm5.76-4q-2.92,1.83-5.7,4l-.73-.88q2.82-2.17,5.8-4ZM94.47,90.86a91.49,91.49,0,0,0-13.42,4l-.44-1.05a92.71,92.71,0,0,1,13.6-4.09Zm28-3.16c-4.83.14-9.53.43-14.1.92l-.13-1.12c4.6-.49,9.34-.79,14.2-.93Zm28.28.55q-7.22-.39-14.15-.56l0-1.13c4.64.11,9.37.31,14.18.57ZM179,90.13l-14.14-1L165,88l14.14,1Zm28.3,1.7c-4.77-.21-9.49-.47-14.16-.75l.08-1.13c4.66.29,9.38.55,14.14.75Zm28.38.43c-4.76.08-9.5.08-14.19,0l0-1.13c4.68.08,9.4.09,14.15,0ZM257,91.19q-3.54.3-7.08.51l-.07-1.12q3.51-.22,7-.51Zm7-.78c-2.28.32-4.62.58-7,.78l-.1-1.12c2.39-.21,4.72-.46,7-.77Zm27.23-7.13a100.87,100.87,0,0,1-13.38,4.44l-.3-1.09a101.4,101.4,0,0,0,13.22-4.38Zm23.69-14.75a76,76,0,0,1-11.18,8.39l-.63-1a74.1,74.1,0,0,0,11-8.26Zm16-22.32a58.58,58.58,0,0,1-6.76,12l-1-.65a57.81,57.81,0,0,0,6.64-11.77ZM333.8,26a22.73,22.73,0,0,1,.48,6.9l-1.17-.08a21.68,21.68,0,0,0-.45-6.56ZM62.52,104.64l.36.44,0,0,0,0Zm194.41-14-.05-.56Z"/><path class="cls-2" d="M35.67,145.53c-.38.41-.74.82-1.1,1.23l-1.35-1.08c.37-.42.75-.85,1.14-1.27Zm4.73-4.7c-.84.77-1.64,1.54-2.42,2.3L36.72,142c.79-.78,1.62-1.56,2.47-2.35Zm5.08-4.39c-.87.71-1.73,1.44-2.57,2.16l-1.18-1.26c.85-.73,1.72-1.47,2.61-2.19Zm5.3-4.17c-.9.68-1.79,1.37-2.68,2.06L47,133c.9-.7,1.8-1.4,2.7-2.08Zm5.45-4c-.91.64-1.82,1.29-2.74,2l-1.06-1.35,2.76-2Zm5.59-3.82c-.92.6-1.86,1.23-2.81,1.89L58,125c1-.66,1.91-1.3,2.83-1.91Zm5.69-3.67-2.86,1.81-1-1.4c1-.65,2-1.26,2.89-1.83Zm4.34-2.61-1.45.85-.92-1.44,1.47-.86Zm1.49-1.11c-.47.34-.93.69-1.39,1l-1.1-1.32c.47-.36.94-.72,1.42-1.07Zm5.76-3.8q-1.48.87-2.94,1.83l-1-1.39c1-.66,2-1.29,3-1.89Zm6.14-3.24c-1,.49-2.09,1-3.11,1.54l-.85-1.48c1-.55,2.11-1.08,3.19-1.58Zm6.43-2.68c-1.1.4-2.18.83-3.25,1.27l-.69-1.55c1.09-.46,2.19-.89,3.31-1.3Zm6.65-2.13c-1.13.31-2.24.65-3.35,1l-.55-1.61c1.12-.36,2.26-.7,3.41-1Zm6.81-1.64c-1.15.23-2.29.49-3.42.76l-.43-1.64c1.15-.28,2.31-.54,3.49-.78Zm6.92-1.21c-1.17.17-2.32.35-3.47.55l-.31-1.66c1.16-.21,2.33-.39,3.52-.57Zm7-.84c-1.18.11-2.34.24-3.5.38l-.22-1.68c1.18-.14,2.36-.27,3.55-.38Zm7-.52c-1.18.06-2.36.14-3.52.23l-.14-1.69c1.18-.09,2.37-.16,3.56-.23Zm7.05-.26-3.53.1-.07-1.69c1.18,0,2.37-.08,3.56-.1Zm7.06,0h-3.53V99c1.18,0,2.36,0,3.55,0Zm7.06.13c-1.18,0-2.35-.06-3.52-.08l0-1.69c1.18,0,2.36,0,3.54.08Zm7.08.25-3.54-.14.07-1.69,3.55.14Zm7.07.36-3.55-.19.1-1.69,3.55.19Zm7.06.43-3.54-.22L165,100l3.55.22Zm7.07.48-3.54-.25.12-1.68,3.54.24Zm7.06.49-3.54-.25.13-1.68,3.54.25Zm7.07.51-3.54-.25.13-1.69,3.54.25Zm7.07.48-3.53-.24.12-1.69,3.53.24Zm7.08.45-3.54-.22.12-1.69,3.53.22Zm7.08.39-3.54-.19.1-1.69L211,103ZM218,105l-3.54-.16.08-1.69,3.53.15Zm7.1.24-3.55-.11.06-1.69,3.54.11Zm7.1.14c-1.19,0-2.37,0-3.55-.06l0-1.69,3.53.06Zm7.1,0h-3.55v-1.69h3.53Zm7.1-.1-3.55.07,0-1.7,3.53-.06Zm7.1-.24-3.54.14-.07-1.69,3.53-.14Zm7.1-.39-3.55.22-.1-1.69,3.53-.22Zm5.32-.4-1.78.14-.14-1.68,1.77-.15Zm1.77-.16-1.77.16-.15-1.69,1.74-.16Zm7-.94c-1.15.19-2.32.37-3.5.53l-.24-1.68c1.16-.15,2.3-.33,3.43-.52Zm6.88-1.4c-1.13.27-2.28.53-3.44.76l-.36-1.65c1.14-.24,2.26-.49,3.37-.75Zm6.75-1.89c-1.1.35-2.22.69-3.35,1l-.49-1.62c1.11-.31,2.21-.64,3.29-1Zm6.61-2.38c-1.08.43-2.17.85-3.28,1.25L291,97.2c1.09-.4,2.16-.81,3.22-1.23Zm6.38-2.87c-1,.51-2.09,1-3.17,1.49l-.74-1.53c1-.47,2.08-1,3.1-1.47Zm6.13-3.35c-1,.59-2,1.17-3,1.73l-.87-1.47c1-.55,2-1.12,3-1.7Zm5.83-3.81c-.94.67-1.9,1.32-2.88,2l-1-1.4c1-.63,1.9-1.27,2.83-1.92Zm5.5-4.24c-.88.74-1.78,1.46-2.7,2.17l-1.1-1.32c.9-.7,1.79-1.41,2.65-2.13Zm5.14-4.63c-.82.8-1.66,1.59-2.52,2.36l-1.2-1.23c.85-.76,1.67-1.54,2.47-2.32Zm4.77-5c-.75.85-1.53,1.7-2.33,2.54L325,75c.79-.83,1.55-1.66,2.29-2.5ZM333,68.3q-1,1.36-2.13,2.7l-1.38-1c.72-.88,1.42-1.77,2.09-2.65Zm3.93-5.61c-.61.94-1.25,1.89-1.91,2.84l-1.46-1c.65-.93,1.28-1.86,1.88-2.79Zm3.5-5.9c-.54,1-1.1,2-1.69,3l-1.53-.84c.58-1,1.13-2,1.66-2.92Zm3-6.14c-.45,1-.93,2.06-1.44,3.1L340.39,53c.51-1,1-2,1.42-3Zm2.47-6.36c-.35,1.05-.74,2.12-1.16,3.21l-1.65-.59c.42-1.07.79-2.11,1.14-3.14Zm1.81-6.6q-.33,1.62-.81,3.33l-1.7-.43c.31-1.12.57-2.19.79-3.24Zm.89-6.8c0,1.08-.14,2.22-.3,3.43l-1.74-.22c.15-1.15.25-2.25.28-3.26Zm-.45-5.22a14.91,14.91,0,0,1,.32,1.76l-1.75.19a12.68,12.68,0,0,0-.28-1.55ZM71.4,117.47l.55.66,0,0-.05,0Zm194.41-14-.07-.85Z"/><path class="cls-2" d="M2.41,143.94a16.42,16.42,0,0,0-.79,1.56L0,144.84a18.48,18.48,0,0,1,.87-1.71Zm4.1-6c-.78,1-1.5,2-2.16,2.95L2.89,140c.67-1,1.41-2,2.2-3Zm4.62-5.74c-.8.94-1.58,1.9-2.35,2.84l-1.39-1c.78-1,1.57-1.93,2.37-2.88ZM16,126.63c-.78.88-1.61,1.8-2.45,2.77l-1.34-1.09c.84-1,1.67-1.91,2.47-2.79Zm3.76-4.07-1.26,1.34-1.31-1.13c.46-.49.88-.94,1.28-1.35Zm1.13-1.27c-.38.42-.75.83-1.1,1.24l-1.35-1.08c.36-.43.74-.85,1.13-1.28Zm4.73-4.69c-.84.76-1.65,1.53-2.42,2.3l-1.26-1.18c.79-.78,1.61-1.57,2.47-2.35Zm5.08-4.4c-.88.72-1.74,1.44-2.58,2.17l-1.17-1.26q1.28-1.11,2.61-2.19ZM36,108c-.89.68-1.79,1.36-2.67,2.06l-1.11-1.31c.89-.71,1.79-1.4,2.7-2.08Zm5.46-4c-.91.64-1.83,1.3-2.75,2l-1.06-1.35c.93-.67,1.85-1.34,2.77-2ZM47,100.24l-2.8,1.89-1-1.38c1-.65,1.9-1.29,2.83-1.9Zm5.7-3.66c-.91.56-1.86,1.17-2.86,1.81l-1-1.41,2.89-1.82ZM57.05,94c-.45.26-.94.54-1.45.85l-.93-1.44,1.47-.86Zm1.48-1.11-1.38,1-1.1-1.32c.47-.36.94-.72,1.42-1.07Zm5.77-3.81c-1,.59-2,1.2-2.94,1.84l-1-1.4c1-.65,2-1.28,3-1.88Zm6.13-3.24c-1,.49-2.08,1-3.1,1.55l-.85-1.48c1-.56,2.11-1.08,3.18-1.59Zm6.43-2.67c-1.09.4-2.17.82-3.24,1.27l-.7-1.56c1.1-.45,2.2-.88,3.32-1.29ZM83.52,81c-1.13.32-2.25.65-3.35,1l-.56-1.61q1.69-.54,3.42-1Zm6.81-1.64c-1.15.24-2.29.49-3.43.77l-.42-1.65c1.15-.27,2.31-.53,3.48-.77Zm6.91-1.21c-1.16.17-2.31.36-3.46.56L93.47,77c1.16-.2,2.33-.39,3.51-.56Zm7-.83c-1.18.11-2.35.24-3.5.37L100.52,76c1.17-.14,2.35-.26,3.54-.38Zm7-.52c-1.18.06-2.36.14-3.53.22l-.13-1.68c1.18-.09,2.37-.17,3.56-.23Zm7-.26c-1.18,0-2.36.06-3.52.1L114.72,75c1.18,0,2.36-.08,3.56-.1Zm7.06-.05h-3.52V74.8h3.54Zm7.07.12-3.52-.08,0-1.69,3.54.08Zm7.07.26L136,76.73,136,75l3.55.14Zm7.07.36L143,77l.09-1.69,3.56.19Zm7.07.43-3.54-.22.11-1.69,3.55.22Zm7.06.47-3.54-.24.13-1.69,3.54.25Zm7.07.5-3.54-.25.13-1.69,3.54.25Zm7.07.5-3.54-.25.13-1.68,3.53.24Zm7.07.48-3.54-.23.13-1.69,3.53.24Zm7.08.45-3.54-.22.11-1.68,3.53.21Zm7.08.4-3.54-.19.1-1.69,3.53.19Zm7.09.32-3.54-.15.08-1.69,3.53.15Zm7.09.24-3.54-.11.06-1.69,3.53.11Zm7.1.15-3.54-.06,0-1.69,3.53,0Zm7.11,0h-3.55V79.5q1.77,0,3.54,0Zm7.1-.1-3.55.06,0-1.69,3.54-.06Zm7.1-.24-3.55.14-.06-1.69,3.53-.14Zm7.1-.39-3.55.21-.1-1.69,3.53-.21Zm5.32-.4-1.78.14-.14-1.69,1.76-.14Zm1.81-.17-1.81.17-.16-1.69,1.8-.16Zm7.1-.82c-1.17.16-2.36.32-3.57.45l-.21-1.68c1.2-.13,2.38-.28,3.53-.44Zm7-1.14c-1.15.22-2.31.42-3.51.62l-.29-1.67c1.18-.19,2.33-.39,3.46-.61Zm7-1.52c-1.13.29-2.29.55-3.48.81l-.38-1.65c1.17-.25,2.31-.52,3.43-.79Zm6.86-1.93c-1.11.35-2.25.69-3.41,1l-.5-1.62c1.15-.32,2.27-.66,3.36-1ZM287.63,72c-1.08.44-2.19.87-3.34,1.29l-.62-1.59q1.68-.6,3.27-1.26Zm6.47-3c-1,.54-2.09,1.07-3.2,1.58l-.76-1.53c1.08-.5,2.12-1,3.12-1.54Zm6.12-3.66c-1,.65-2,1.29-3,1.91l-.93-1.44c1-.6,2-1.22,2.92-1.86ZM305.84,61c-.87.77-1.78,1.53-2.73,2.27L302,62c.93-.72,1.81-1.46,2.64-2.2Zm4.91-5.12c-.73.9-1.52,1.78-2.36,2.66l-1.29-1.15c.81-.84,1.57-1.7,2.27-2.56Zm4-5.81c-.56,1-1.19,2-1.87,3l-1.46-.94c.65-.95,1.25-1.91,1.79-2.86Zm2.89-6.42q-.56,1.64-1.29,3.27l-1.61-.68q.7-1.56,1.23-3.12Zm1.63-6.82c-.16,1.13-.37,2.28-.65,3.45l-1.71-.38c.26-1.12.47-2.21.61-3.29Zm.25-7a31.3,31.3,0,0,1,.05,3.51l-1.75-.07c0-1.15,0-2.26-.05-3.34Zm-.79-5.22c.13.56.26,1.13.37,1.73l-1.74.29c-.1-.56-.21-1.1-.34-1.62ZM19.1,122l.67.54h0l0,0ZM56.6,93.24l.55.66,0,0-.05,0ZM251,79.22l-.08-.84Z"/><path class="cls-3" d="M100.08,39.91a2.15,2.15,0,0,1,0-1,2.22,2.22,0,0,1,.41-.93,2.29,2.29,0,0,1,.78-.67,2.4,2.4,0,0,1,1-.29L116,20.42l3.41,3.06L104.88,39.32a2.3,2.3,0,0,1-.6,1.57,2.44,2.44,0,0,1-1.53.78,2.54,2.54,0,0,1-1.68-.39,2.37,2.37,0,0,1-1-1.37Z"/><path class="cls-2" d="M113.39,23.05l4.35,3.21a1.14,1.14,0,0,0,.42.19,1,1,0,0,0,.46,0,1.11,1.11,0,0,0,.43-.19,1,1,0,0,0,.3-.33L122,21.33a2.81,2.81,0,0,0,.58-2.14,2.93,2.93,0,0,0-1.16-1.92,3.15,3.15,0,0,0-2.23-.57,3.07,3.07,0,0,0-2,1.12l-3.92,3.65a.94.94,0,0,0-.25.37,1,1,0,0,0-.08.44.94.94,0,0,0,.13.43,1,1,0,0,0,.3.34Z"/><ellipse class="cls-3" cx="120.7" cy="7.7" rx="5.54" ry="5.33"/><polygon class="cls-3" points="108.88 76.88 106.11 76.88 106.38 71.89 110.46 71.89 108.88 76.88"/><path class="cls-2" d="M109.58,76h-5.44a3.53,3.53,0,0,0-1.33.25,3.47,3.47,0,0,0-1.12.72,3.25,3.25,0,0,0-1,2.37v.11h8.91Z"/><polygon class="cls-3" points="138.36 73.11 136 74.51 133.51 70.13 136.35 68.42 138.36 73.11"/><path class="cls-2" d="M138.48,72l-4.63,2.76h0a3.35,3.35,0,0,0-1,.88,3.17,3.17,0,0,0-.56,1.19,3,3,0,0,0-.05,1.3,3.2,3.2,0,0,0,.47,1.22l.06.1,7.58-4.52Z"/><path class="cls-2" d="M109.08,75.41a1.06,1.06,0,0,0,.57-.17,1,1,0,0,0,.38-.46l10-23a.33.33,0,0,1,.1-.14.36.36,0,0,1,.17-.07.52.52,0,0,1,.18,0,.31.31,0,0,1,.14.11l13.74,20.84a1,1,0,0,0,.57.4,1.05,1.05,0,0,0,.7-.06l1.88-.84a1,1,0,0,0,.52-.55.91.91,0,0,0,0-.74L126.75,46.59c.25-.58,2.65-6.49-1-9.41l0,0-10-4.29-.25,7.38-10,33.26a1.2,1.2,0,0,0,0,.38,1,1,0,0,0,.13.37.89.89,0,0,0,.26.29,1,1,0,0,0,.36.17l2.61.66A1.09,1.09,0,0,0,109.08,75.41Z"/><path class="cls-2" d="M115.55,22.08a8.35,8.35,0,0,1,1.64-3.63,9.25,9.25,0,0,0,.75-.79,5.5,5.5,0,0,1,1.79-1.42c-.25-.13-.4-.3-.4-.47,0-.48,1.11-.87,2.48-.87s2.48.39,2.48.87a.47.47,0,0,1,0,.16.45.45,0,0,1-.11.13,5.23,5.23,0,0,1,2.25,1.68,5,5,0,0,1,1,2.56c.32,3.3.41,7.52-.71,10.19a9.51,9.51,0,0,0-.21,6.94.87.87,0,0,1,0,.48,1,1,0,0,1-.26.42.87.87,0,0,1-.45.22.89.89,0,0,1-.51,0l-9.91-3.84a1,1,0,0,1-.41-.32.84.84,0,0,1-.15-.49V28A23.78,23.78,0,0,1,115.55,22.08Z"/><path class="cls-3" d="M134.51,46.14a2.46,2.46,0,0,1-.94-.44,2.38,2.38,0,0,1-.67-.78,2.27,2.27,0,0,1-.26-1,2.24,2.24,0,0,1,.19-1l-7.75-19.69,3.93-1,7.17,19.49A2.38,2.38,0,0,1,137.35,43a2.29,2.29,0,0,1,0,1.67,2.34,2.34,0,0,1-1.13,1.25,2.56,2.56,0,0,1-1.72.22Z"/><path class="cls-2" d="M125.11,27l5-2.23a1.13,1.13,0,0,0,.37-.28,1.07,1.07,0,0,0,.22-.39.94.94,0,0,0,0-.44,1.08,1.08,0,0,0-.16-.42l-3-4.39a3,3,0,0,0-1.71-1.49,3.15,3.15,0,0,0-2.3.11A2.93,2.93,0,0,0,122,19.1a2.77,2.77,0,0,0,.1,2.22l1.56,5a1.09,1.09,0,0,0,.22.39,1.12,1.12,0,0,0,.38.26,1.13,1.13,0,0,0,.45.09A1,1,0,0,0,125.11,27Z"/><path class="cls-2" d="M115.61,6.39a1.27,1.27,0,0,1-.72-.13c-.41-.25-.37-.84-.23-1.29a6.59,6.59,0,0,1,1.81-2.85,7,7,0,0,1,3-1.66,2.1,2.1,0,0,1,2.24.46,5.86,5.86,0,0,1,7.37.87,7.31,7.31,0,0,1,1.73,3.55c.47,2.23,2.5,6.84,1.38,8.84-.75,1.34-4.19.3-5.64.88a5.07,5.07,0,0,1-2.31.37,5,5,0,0,1-2.21-.72,3.54,3.54,0,0,1-1.39-1.78,3.38,3.38,0,0,1,0-2.22,11.69,11.69,0,0,1,.87-1.54,2.39,2.39,0,0,0,.39-1.68C121.67,6.6,117.3,6.36,115.61,6.39Z"/><path class="cls-1" d="M100.65,44.09s-2.11,1.43-1.94,5.11.2,4,.2,4l1.56-.33-.9,1.41,2.81,6.19,2.81-6.19L104.34,53l1.51.17s.78-7-1.52-9.12l-2,8.89Z"/><path class="cls-1" d="M95.72,39.82s-.86,2.1-2.2,2.17c0,0,2,.67,2.2,2.35,0,0,.31-1.91,1.69-2.26C97.41,42.08,95.77,41.08,95.72,39.82Z"/><path class="cls-1" d="M91.72,38.13s-.21,1.84-1.56,2A2.87,2.87,0,0,1,91.71,42s.47-2,1.56-1.86A2.25,2.25,0,0,1,91.72,38.13Z"/><path class="cls-4" d="M97.74,43.69a17.32,17.32,0,0,1,4.72-.66,15.39,15.39,0,0,1,7.8,1.9,7.1,7.1,0,0,1,3,3.52c.62,1.63.6,25.73.51,25.73H91.13V50.92a6.62,6.62,0,0,1,3.22-5.71"/><path class="cls-4" d="M100.65,44.09l-5.31,3.25V71.07a1.29,1.29,0,0,0,1.29,1.29h2.29a2.91,2.91,0,0,0,2.56-1.53l1-1.24V53.51Z"/><path class="cls-4" d="M104.33,44.09l5.3,3.25V71.07a1.29,1.29,0,0,1-1.29,1.29h-2.29a2.93,2.93,0,0,1-2.56-1.53l-1-1.24V53.51Z"/><path class="cls-4" d="M100.11,44.47s-2,1.54-1.2,8.74l1.56-.33-.9,1.41,2.81,6.19"/><path class="cls-4" d="M104.66,44.47s2,1.54,1.19,8.74l-1.55-.33.89,1.41-2.8,6.19"/><path class="cls-4" d="M95.34,47.34a6.41,6.41,0,0,0-2.19,2.49c-.37,1.24,0,18.68,0,18.68a1.65,1.65,0,0,0,2.19,0"/><path class="cls-4" d="M109.63,47.34a6.33,6.33,0,0,1,2.19,2.49c.38,1.24,0,18.68,0,18.68a1.65,1.65,0,0,1-2.19,0"/><polyline class="cls-4" points="100.81 44.09 102.39 43.25 104.16 44.09"/><path class="cls-4" d="M101.16,40.68s-.14-1.32.92-1.4,1.43.37,1.23,1.4c-.16.82-.9.53-.9,1.32,0,.46,0,.6,0,1.25"/><path class="cls-4" d="M95.67,44.72A2.69,2.69,0,0,0,93.52,42a2.69,2.69,0,0,0,2.14-2.73h0A2.59,2.59,0,0,0,97.78,42a2.73,2.73,0,0,0-2.1,2.73Z"/><path class="cls-4" d="M91.72,42.11a2,2,0,0,0-1.56-2,2,2,0,0,0,1.56-2h0a1.9,1.9,0,0,0,1.54,2,2,2,0,0,0-1.54,2Z"/></g></g></svg>