<svg xmlns="http://www.w3.org/2000/svg" viewBox="0 0 271.51 268.17"><defs><style>.cls-1,.cls-2{fill:none;stroke:#003459;stroke-linecap:round;stroke-linejoin:round;}.cls-1{stroke-width:1.22px;}.cls-2{stroke-width:0.61px;}.cls-3{fill:#f5a623;}</style></defs><g id="Layer_2" data-name="Layer 2"><g id="Design"><path class="cls-1" d="M32.58,119v.51c0,1.49,2.46,1.9,4.71,2.57,4.89,1.45,16,2.94,16,2.94a19.86,19.86,0,0,0,3.44.27l178.72-.13a3,3,0,0,0,3-3v-5.46H163.08V119Z"/><polyline class="cls-1" points="164.49 260.02 164.49 125.16 220.49 125.16 220.49 238 218.56 238 218.68 258.88 220.49 258.88 220.49 265.09 186.5 265.09"/><path class="cls-1" d="M128.26,199.56a2.18,2.18,0,0,1-2.15,1.59c-12.57-.28-91.73-2-120.93-2.5-4.54-.07-6.29-3.36-2.5-5.84L20,181.5c4.44-3.12,7.81-2.76,10.41-2.76l100.26-.24c2.25,0,3.27,1.38,2.56,3.52Z"/><polyline class="cls-1" points="93.56 241.01 96.48 236.13 154.05 236.13"/><path class="cls-1" d="M157.9,236.13h6.59V260H84.89a1.53,1.53,0,0,1-1.31-2.32l8.32-13.9"/><path class="cls-1" d="M220.49,260h48.88a1.53,1.53,0,0,0,1.31-2.32l-11.95-20a3.27,3.27,0,0,0-2.81-1.59H220.49"/><path class="cls-1" d="M83.35,260l-.54.78a3.31,3.31,0,0,0,.5,4.39l.94.83A4.22,4.22,0,0,0,87,267.09l95.54.47a1,1,0,0,0,1-1V261a1,1,0,0,0-1-1h-18.1"/><polyline class="cls-1" points="183.56 265.63 185.73 265.63 185.73 249.58 181.63 249.58 181.63 260.02"/><line class="cls-2" x1="3.62" y1="196.36" x2="124.91" y2="197.57"/><path class="cls-1" d="M142.46,195.12l-.49-2.87a2.36,2.36,0,0,1,2-2.73l13.51-1.71a1.65,1.65,0,0,1,1.83,1.41l.76,5.9"/><path class="cls-1" d="M153.67,208.18l-7.62.66a1.31,1.31,0,0,1-1.44-1.09l-1.24-7.37"/><path class="cls-1" d="M161,200.38l.66,5.43a1.33,1.33,0,0,1-1.17,1.5l-3.54.24"/><path class="cls-2" d="M142,192.25c0-1.74-.26-4,.82-5.07a10.61,10.61,0,0,1,5.18-2.61,15.39,15.39,0,0,1,2.42-.45.91.91,0,0,1,.69.14c.13.11.19.27.31.38a1,1,0,0,0,1,.06,25.58,25.58,0,0,1,7.2-.65c-.26.94-.4,2.17-.8,3.75"/><line class="cls-1" x1="149.97" y1="188.76" x2="151.39" y2="184.64"/><path class="cls-1" d="M128.94,197.17l30.67.43c1,0,1.95,0,2.92-.1L181.19,196v3.22l-18.84,1.52c-.9.07-1.81.1-2.72.09l-31.55-.44"/><path class="cls-1" d="M129.52,195.12l29.77.64c1,0,2.05,0,3.08-.08l18.33-1,.49,1.35"/><path class="cls-2" d="M133.46,180.21l18.92.38a11.53,11.53,0,0,1,1.76.17l10.35,1.78"/><path class="cls-2" d="M133.46,179l18.92.39a11.52,11.52,0,0,1,1.76.16l10.35,1.78"/><path class="cls-2" d="M133.46,181.7l18.92.39a11.53,11.53,0,0,1,1.76.17L164.49,184"/><path class="cls-1" d="M220.49,265.09h48.74a1.68,1.68,0,0,0,1.68-1.67v-4.54"/><path class="cls-1" d="M164.35,243.74a7,7,0,0,1-5.18-1.61,20.08,20.08,0,0,1-3.7-4.15c-3.11-4.22-6.26-9-5.9-14.21.22-3.15,1.7-6.05,2.82-9,1.06-2.76,1.8-5.88.89-8.66a.94.94,0,0,1,.49-1.16,2.2,2.2,0,0,1,2.47.41,4.65,4.65,0,0,1,.61,3.23,35.64,35.64,0,0,1-1.81,8.9c-1,3-2.51,6.1-2.1,9.28.31,2.4,1.67,4.53,3,6.56,2,3,4.38,6.36,8,6.92"/><path class="cls-1" d="M158,207.55v7.51a1.33,1.33,0,0,0,1.34,1.33h5.12"/><path class="cls-1" d="M159.3,185.12s-1.93-2.64-1.81-18.21"/><path class="cls-1" d="M162.37,195.68s-2.27-9-2.27-28.77"/><path class="cls-1" d="M162.37,166.91h-7v-1.69l1.59-.48v-6.63s2.6-.73.55-3c0,0,2.61-1.57,0-3.13a2.19,2.19,0,0,0,0-3.5,3.54,3.54,0,0,0-2.86-.61,10.64,10.64,0,0,1-1-3.62c-.16-2,.2-3.38-1.13-4.35a8.12,8.12,0,0,0-3.57-.75c-.69,0-.64-.51-.78-1.19-.17-.84-.23-1.84.33-2,1-.36,9.58-.85,12.23,0s3.74,4,3.74,4"/><polyline class="cls-1" points="148.07 136.5 140.72 136.62 140.72 138.07 148.31 138.56"/><path class="cls-1" d="M163,166.91v-2.29l-1.38-.72S163,151.83,163,150a6.31,6.31,0,0,1,1.45-3.5"/><rect class="cls-1" x="175.41" y="141.02" width="8.22" height="8.22"/><rect class="cls-2" x="176.72" y="142.33" width="5.6" height="5.6"/><rect class="cls-1" x="189.94" y="141.02" width="8.22" height="8.22"/><rect class="cls-2" x="191.25" y="142.33" width="5.6" height="5.6"/><path class="cls-1" d="M220.49,195.12s4.16-2.49,4.16-6.36"/><path class="cls-1" d="M224.65,171.5H248s4.88,1.45,4.88-9.05-3.44-11.28-5.79-11.28h-8.63v-1.26a3.39,3.39,0,0,0-3.39-3.39H224.83"/><path class="cls-1" d="M224.65,149.12v-4c0-1.71-.5-6.94-3.72-6.94"/><path class="cls-1" d="M224.65,188.4V151.1"/><line class="cls-1" x1="238.47" y1="151.17" x2="238.47" y2="171.57"/><path class="cls-2" d="M220.93,150.5s3.62-1.88,6.84-1.26,5.87,2.06,6.52,6.49c0,0-.48,1.69-2,.46,0,0,.11-5-4.32-5-5.06,0-7.44,1.65-7.44,1.65"/><path class="cls-1" d="M221.71,138.19s2,.64,1.86-.88a23.67,23.67,0,0,1,0-2.9h-3.08v3.38"/><path class="cls-1" d="M223.57,134.41h1.06a.57.57,0,0,0,.56-.49l.33-2.17a6.25,6.25,0,0,0,4.75-6.46"/><polyline class="cls-1" points="223.57 137.87 226.92 137.87 226.92 131.4"/><polyline class="cls-1" points="229.22 129.85 229.22 139.72 223.57 139.72"/><path class="cls-2" d="M224.45,143s4.77.8,6.74.08a8.1,8.1,0,0,0,5.39-8c0-4-.23-10-.23-10"/><path class="cls-2" d="M224.67,144.63s4.33,1.2,7.63-.16,6-5.55,6-9.33c0-4-.23-11.35-.23-11.35"/><path class="cls-1" d="M145.44,113.21S39.58,114.9,35.72,115.5s-3.14,3.5-3.14,3.5"/><path class="cls-1" d="M163.08,116.11v-3.72a1.34,1.34,0,0,1,1.35-1.35h43.51"/><path class="cls-1" d="M148.07,99.09h12.68a0,0,0,0,1,0,0V114.9a1.8,1.8,0,0,1-1.8,1.8h-9.07a1.8,1.8,0,0,1-1.8-1.8V99.09A0,0,0,0,1,148.07,99.09Z"/><path class="cls-1" d="M94.37,88v4.68a1.57,1.57,0,0,0,1.5,1.57L142,96.43s3.14,1.21,3.75,2.66h17.29l1.49-2.77a4.42,4.42,0,0,0,.52-2.08V91.49a4.09,4.09,0,0,0-1.64-3.29h0a4.13,4.13,0,0,0-2.44-.83l-65.46-.58A1.17,1.17,0,0,0,94.37,88Z"/><line class="cls-1" x1="94.37" y1="89.54" x2="164.97" y2="90.48"/><line class="cls-2" x1="144.19" y1="97.52" x2="163.92" y2="97.52"/><rect class="cls-1" x="165.09" y="91.49" width="64.12" height="4.7"/><path class="cls-1" d="M173.16,82.68h49.76a3.48,3.48,0,0,1,3.48,3.48v5.34a0,0,0,0,1,0,0H169.68a0,0,0,0,1,0,0V86.15A3.48,3.48,0,0,1,173.16,82.68Z"/><path class="cls-1" d="M213.55,113.21H208.9v-3.76a1.76,1.76,0,0,1,1.54-1.75l4.34-.57a26.14,26.14,0,0,1,6.73,0l4.34.57"/><path class="cls-1" d="M232,114.59H213.55v-3.76a1.77,1.77,0,0,1,1.53-1.75l4.35-.57a26.14,26.14,0,0,1,6.73,0l4.34.57a1.77,1.77,0,0,1,1.54,1.75Z"/><polyline class="cls-1" points="208.9 109.44 208.9 101.44 213.55 101.44"/><path class="cls-1" d="M213.55,107.29c.29,0,0-11.1,0-11.1"/><path class="cls-1" d="M215.56,107c.29,0,0-10,0-10"/><polyline class="cls-1" points="215.69 101.44 220.49 101.44 220.49 107.02"/><path class="cls-1" d="M232.44,112.85a25.76,25.76,0,0,1,4.91.72c1.2.56,1.12,1,1.12,3.14"/><path class="cls-2" d="M232,110.1a32.45,32.45,0,0,0,.21-8.52,27.43,27.43,0,0,0-2.88-8"/><path class="cls-2" d="M229.86,93.84c.16.28,4.84,7.1,6.36,19.37"/><path class="cls-2" d="M237.35,113.57s-.73-4.82-1.89-10C233.77,96,226.4,86.3,226.4,86.3"/><path class="cls-2" d="M233,112.78a41.93,41.93,0,0,0,.65-10.71"/><path class="cls-2" d="M222.3,82.35a26.6,26.6,0,0,1-6.67-7.08"/><path class="cls-2" d="M215.5,78.07a14.65,14.65,0,0,0,5,4.89"/><path class="cls-1" d="M119.71,4.91c10.69-.23,21.65,0,32.43,0,17.18-.37,34.35-.19,51.52.36a10.77,10.77,0,0,1,9,6.21,12.14,12.14,0,0,1,.91,3.66c.18,22.47,0,44.76,0,67.25"/><path class="cls-1" d="M91.75,5c8.14.46,16.18-.27,24.4,0"/><path class="cls-1" d="M87.59,3C73.21,3,58.78,3,44.35,3V4.87c14.43,0,28.68,0,43.09.08"/><path class="cls-1" d="M115.89,3c-8.15,0-16.18,0-24.38,0"/><path class="cls-1" d="M215.63,82.35c-.27-23.77.28-47.7-.46-71.46-1.09-4.56-5.48-7.3-9.86-7.85-28.5,0-57.19,0-85.72,0"/><line class="cls-1" x1="174.34" y1="5.87" x2="174.34" y2="82.35"/><line class="cls-1" x1="176.47" y1="82.35" x2="176.47" y2="5.87"/><line class="cls-1" x1="48.69" y1="2.96" x2="48.69" y2="4.95"/><path class="cls-2" d="M90.77,67.53c-.32-4.66-.52-9.34-.61-14-.15-7.75-1.32-15.74,4.38-21.9,1-1.1,4.06-3.73,2.41-5L95.71,26c2.11.87-1.41,3.89-2.42,5C87.6,37.1,88.76,45.1,88.92,52.85c.09,4.67.29,10,.61,14.68"/><rect class="cls-2" x="88.99" y="67.79" width="2.52" height="1.77"/><rect class="cls-2" x="87.56" y="69.56" width="5.39" height="13.84" rx="2.6"/><rect class="cls-1" x="88.14" y="0.61" width="2.9" height="9.05"/><rect class="cls-1" x="88.99" y="9.66" width="2.9" height="20.28"/><path class="cls-2" d="M84.7,5.34a22.41,22.41,0,0,0-10.82,7.53,15.26,15.26,0,0,0-3.14,6.56,9.41,9.41,0,0,0,1.34,7,9.74,9.74,0,0,0,6.17,3.75c3.68.74,7-1,10.39-2.05"/><path class="cls-2" d="M83.21,5a20.43,20.43,0,0,0-10.27,7.31A20.05,20.05,0,0,0,69.61,19a10.79,10.79,0,0,0,1.58,8.18c2.17,2.72,6,4,9,4.26s6-1.39,8.83-2.27"/><path class="cls-2" d="M91.88,27.31A11.57,11.57,0,0,1,95.69,26"/><path class="cls-2" d="M92.09,28.54a17,17,0,0,1,4.08-1.3"/><path class="cls-2" d="M89.12,83.4a5.35,5.35,0,0,0,.52,1.45H91l.47-1.45"/><path class="cls-2" d="M87.56,71.9H86.05l-1.38,4.46a1.85,1.85,0,0,0-.07.62v5.7h.88l.8-6.09a1.57,1.57,0,0,1,.15-.61l1.13-2"/><path class="cls-2" d="M118.89,67.53c-.32-4.66-.52-9.34-.61-14-.15-7.75-1.32-15.74,4.38-21.9,1-1.1,4.06-3.73,2.41-5L123.83,26c2.11.87-1.41,3.89-2.42,5-5.69,6.16-4.53,14.16-4.37,21.91.09,4.67.29,10,.61,14.68"/><rect class="cls-2" x="117.11" y="67.79" width="2.52" height="1.77"/><rect class="cls-2" x="115.68" y="69.56" width="5.39" height="13.84" rx="2.6"/><rect class="cls-1" x="116.26" y="0.61" width="2.9" height="9.05"/><rect class="cls-1" x="117.11" y="9.66" width="2.9" height="20.28"/><path class="cls-2" d="M112.82,5.34A22.41,22.41,0,0,0,102,12.87a15.26,15.26,0,0,0-3.14,6.56,9.41,9.41,0,0,0,1.34,7,9.74,9.74,0,0,0,6.17,3.75c3.68.74,7-1,10.39-2.05"/><path class="cls-2" d="M111.33,5a20.43,20.43,0,0,0-10.27,7.31A20.05,20.05,0,0,0,97.73,19a10.79,10.79,0,0,0,1.58,8.18c2.17,2.72,6,4,9,4.26s6-1.39,8.83-2.27"/><path class="cls-2" d="M120,27.31A11.57,11.57,0,0,1,123.81,26"/><path class="cls-2" d="M120.21,28.54a17,17,0,0,1,4.08-1.3"/><path class="cls-2" d="M117.24,83.4a5.35,5.35,0,0,0,.52,1.45h1.4l.47-1.45"/><path class="cls-2" d="M115.68,71.9h-1.51l-1.38,4.46a1.85,1.85,0,0,0-.07.62v5.7h.88l.8-6.09a1.57,1.57,0,0,1,.15-.61l1.13-2"/><path class="cls-1" d="M222,193.93h2.56a2.17,2.17,0,0,1,2.14,1.77l.66,3.44h1.11v-4.87a3.11,3.11,0,0,0-.77-2.05l-.68-.78a2.19,2.19,0,0,0-1.65-.75h-1.09"/><path class="cls-1" d="M26.11,199l70.72,47.77s1.78.07,1.42-1.53L30.26,199"/><line class="cls-1" x1="82.38" y1="263.79" x2="183.68" y2="263.79"/><line class="cls-1" x1="176.47" y1="96.19" x2="176.47" y2="111.17"/><line class="cls-1" x1="174.34" y1="96.19" x2="174.34" y2="111.17"/><polyline class="cls-1" points="213.55 97.52 201.59 97.52 201.59 99.09 213.68 99.09"/><polyline class="cls-1" points="215.69 97.52 222.03 97.52 222.03 99.09 216.19 99.09"/><path class="cls-2" d="M201,97.46c-6.44,2.45-13.31,6.83-15.58,13.7"/><path class="cls-2" d="M201.74,98.59c-6.44,2.45-12.41,5.92-14.67,12.8"/><path class="cls-2" d="M198.08,100.05a13.69,13.69,0,0,0-1.32,10.58c0,.08,0,.19,0,.22s0-.16,0-.08"/><path class="cls-2" d="M199.15,99.58a29.27,29.27,0,0,0-1.66,5.55,10.06,10.06,0,0,0,.56,5.7"/><polyline class="cls-1" points="145.44 99.58 145.44 113.21 148.56 116.23"/><path class="cls-3" d="M124.91,114.59s-2.19-1.94-7.68-1.81c-6,.15-49.17-.33-56.48,0-3.73.17-12.22.45-16.48.8a22,22,0,0,0-5,.5,1,1,0,0,0-.29,1.74c1.63,1,3.14,2,4.9,3.1a10.28,10.28,0,0,1,2.52,2,9.4,9.4,0,0,1,1.69,4.38,101.11,101.11,0,0,1,1.25,14.86l.61,17.8a44.42,44.42,0,0,1-.4,6.52q6.62,1.26,13.31,1.87c6.74.61,13.58.73,20.2-.67a27.59,27.59,0,0,1,5.24-.88,33.25,33.25,0,0,1,4.43.45,29.57,29.57,0,0,0,18.65-4,258,258,0,0,0-4.67-38c-.61-3.16-1.35-6.47-3.49-8.88,2.8.09,5.48,0,8.13.92a9.71,9.71,0,0,1,6.14,5.35,14.16,14.16,0,0,1,.68,4.21c.57,9.74-.66,19.51-.62,29.27a42.15,42.15,0,0,0,8.83.68l3.76-30.11C130.87,118.76,128,118.23,124.91,114.59Z"/><path class="cls-3" d="M45.33,124.35c0,8.61-4.33,34.44-5.76,39.47a.69.69,0,0,1-.22.41.73.73,0,0,1-.44.09c-1.93,0-5.34.81-7.09,0a1.2,1.2,0,0,1-.55-.41,20.28,20.28,0,0,1-.1-3c0-7.85.35-12.13.69-19.22.37-7.51.88-13,1.26-20.49a61.06,61.06,0,0,0,6.07,2A61.69,61.69,0,0,0,45.33,124.35Z"/><path class="cls-1" d="M124.91,114.59s-2.19-1.94-7.68-1.81c-6,.15-49.17-.33-56.48,0-3.73.17-12.22.45-16.48.8a22,22,0,0,0-5,.5,1,1,0,0,0-.29,1.74c1.63,1,3.14,2,4.9,3.1a10.28,10.28,0,0,1,2.52,2,9.4,9.4,0,0,1,1.69,4.38,101.11,101.11,0,0,1,1.25,14.86l.61,17.8a44.42,44.42,0,0,1-.4,6.52q6.62,1.26,13.31,1.87c6.74.61,13.58.73,20.2-.67a27.59,27.59,0,0,1,5.24-.88,33.25,33.25,0,0,1,4.43.45,29.57,29.57,0,0,0,18.65-4,258,258,0,0,0-4.67-38c-.61-3.16-1.35-6.47-3.49-8.88,2.8.09,5.48,0,8.13.92a9.71,9.71,0,0,1,6.14,5.35,14.16,14.16,0,0,1,.68,4.21c.57,9.74-.66,19.51-.62,29.27a42.15,42.15,0,0,0,8.83.68l3.76-30.11C130.87,118.76,128,118.23,124.91,114.59Z"/><path class="cls-1" d="M33.05,120.57c-.39,7.5-.82,13.58-1.19,21.09-.34,7.09-.72,11.37-.69,19.22a20.28,20.28,0,0,0,.1,3,1.2,1.2,0,0,0,.55.41c1.75.81,5.16,0,7.09,0a.73.73,0,0,0,.44-.09.69.69,0,0,0,.22-.41c1.43-5,5.76-31.42,5.76-40"/><path class="cls-2" d="M70.88,112.65c3,2.6,4.47,6.58,5.11,10.5s.59,7.94,1.18,11.87c.76,5,2.55,9.81,3.28,14.82a69.46,69.46,0,0,1,.54,7l.38,8.83"/><path class="cls-2" d="M74.1,112.65c3,2.6,4.48,6.58,5.12,10.5s.58,7.94,1.18,11.87c.75,5,2.55,9.81,3.28,14.82.33,2.34.43,4.7.54,7l.38,8.83"/><path class="cls-2" d="M82.75,112.83C83.84,114.65,84,117,86.08,118a21.86,21.86,0,0,0,5.62,1.71c1.23.22,3.09-1.58,4.06-2.21a1.15,1.15,0,0,0,.4-.39,1.06,1.06,0,0,0,0-.56,9.54,9.54,0,0,0-1.78-4"/><path class="cls-2" d="M31.19,161.3a28.16,28.16,0,0,0,8.44.49"/><path class="cls-2" d="M117.6,151.38c3,.4,6,.75,9,1"/></g></g></svg>