<svg xmlns="http://www.w3.org/2000/svg" viewBox="0 0 295.09 257.03"><defs><style>.cls-1{fill:#f5a623;}.cls-2{fill:#dbf2fd;}.cls-3{fill:none;stroke:#003459;stroke-linecap:round;stroke-linejoin:round;stroke-width:1.25px;}.cls-4{fill:#003459;}.cls-5{fill:#fff;}</style></defs><g id="Layer_2" data-name="Layer 2"><g id="Design"><path class="cls-1" d="M130.74,16.31s-2.84,7.49-2.9,7.6-26.07,6.49-28.36,7.21c-6.58,2.1-16.29,9.43-19.42,11.32S21.39,71.85,21.39,71.85l-7.9,3,3.33,8.77,10.24-3.21a12.8,12.8,0,0,0,7.29-1c3.7-1.73,16.42-2.22,25.43-4.44s26.79-4,33.82-9.26c0,0,2.59-.74,3.34,1.23s2.94,49.54,2.94,49.54,11.75-.53,15,.46,3.56,3,3.56,3V131h3.28v-8.19a40.68,40.68,0,0,1,2.38-13.35c1.68-4.89,8.76-10.85,8.76-10.85V36.25a5.46,5.46,0,0,1,.92-3.53h5.18V29.77s-4.33.3-6.1.3-1.25-2.41-1.25-4.09a2.83,2.83,0,0,1,1.25-2.4h5.5V19.14L135.57,19l-.41-6.18S131.08,13.48,130.74,16.31Z"/><line class="cls-2" x1="21.39" y1="71.85" x2="24.8" y2="81.08"/><path class="cls-1" d="M146.23,15.27s3.23,8.53,3.29,8.64,26.07,6.49,28.35,7.21c6.59,2.1,16.3,9.43,19.43,11.32S256,71.85,256,71.85l7.9,3-3.33,8.77-10.25-3.21a12.77,12.77,0,0,1-7.28-1c-3.7-1.73-16.42-2.22-25.43-4.44s-26.79-4-33.83-9.26c0,0-2.59-.74-3.33,1.23s-3,60.65-3,60.65h-.94s.08-4.72,0-7.81a4,4,0,0,0-2.27-3.89h-16c-3.8,0-3.5,2.86-3.5,2.86L154.63,131h-3.5V96.63c0-2.62-1.59-2.37-1.59-2.37H145.2V35.68c0-3-.81-2.81-.81-2.81l-5.47-.15V29.77a42.28,42.28,0,0,0,6.28,0c1.61-.29,1.26-2.11,1.26-3.79a2.83,2.83,0,0,0-1.26-2.4h-5.49V19.14h2.41v-6.3s3.28.17,4.11,2.43"/><line class="cls-2" x1="255.97" y1="71.85" x2="252.56" y2="81.08"/><polyline class="cls-3" points="138.32 19.14 135.59 19.14 135.59 6.55 142.24 6.55 142.24 19.14 139.71 19.14"/><path class="cls-3" d="M283,230.21a29.35,29.35,0,0,1-18,6.11,30.42,30.42,0,0,1-18.29-6.27"/><path class="cls-3" d="M261.37,177.63a31.21,31.21,0,0,1,3.64-.22,29.45,29.45,0,0,1,22.13,48.89"/><path class="cls-3" d="M237.53,196.69a28.59,28.59,0,0,1,18.21-17.79"/><path class="cls-3" d="M243.1,226.53a30.52,30.52,0,0,1-7.55-19.66,30.06,30.06,0,0,1,.37-4.68"/><path class="cls-3" d="M235.2,201.6v-1.72a.32.32,0,0,0-.33-.32l-197.07.12V159.5H8.18v80.36"/><polyline class="cls-3" points="162.24 239.86 235.2 239.74 235.2 206.17"/><polyline class="cls-3" points="37.8 159.5 43.36 157.28 43.36 190.98 37.8 199.68"/><polyline class="cls-3" points="43.36 190.98 225.57 190.98 235.2 199.68"/><polyline class="cls-3" points="8.18 161.35 4.47 161.35 4.47 233.94 8.18 233.94"/><polyline class="cls-3" points="8.18 159.5 8.18 149.13 56.32 146.17 56.32 178.48 43.36 180.24"/><path class="cls-3" d="M8.18,149.13,2.94,114.46a4.26,4.26,0,0,1,4-4.88l38.61-2.43a4.24,4.24,0,0,1,4.45,3.5l6.37,35.52"/><polygon class="cls-3" points="45.95 133.33 42.18 114.41 11.85 116.32 14.91 135.25 45.95 133.33"/><polygon class="cls-3" points="42.59 131.29 39.56 116.91 15.21 118.36 17.67 132.74 42.59 131.29"/><polygon class="cls-3" points="30.15 139.75 30.52 142.96 35.03 142.77 34.59 139.56 30.15 139.75"/><polyline class="cls-3" points="44.92 138.92 43.67 138.99 44.23 142.56 51.75 142.05 50.79 138.49 49.73 138.54"/><ellipse class="cls-3" cx="47.27" cy="137.96" rx="2.35" ry="1.42"/><path class="cls-3" d="M44.92,138v1.55a1,1,0,0,0,.56.93,3.88,3.88,0,0,0,1.79.42,3.09,3.09,0,0,0,1.93-.66,1,1,0,0,0,.41-.83V138"/><path class="cls-3" d="M10.4,159.5V149.13L4.47,110.52"/><path class="cls-3" d="M91.23,153.56H180a1.74,1.74,0,0,1,1.74,1.74V191a0,0,0,0,1,0,0H89.48a0,0,0,0,1,0,0V155.31A1.74,1.74,0,0,1,91.23,153.56Z"/><line class="cls-3" x1="99.48" y1="153.56" x2="99.48" y2="190.98"/><line class="cls-3" x1="116.89" y1="153.56" x2="116.89" y2="190.98"/><line class="cls-3" x1="172.07" y1="153.56" x2="172.07" y2="190.98"/><line class="cls-3" x1="154.66" y1="153.56" x2="154.66" y2="190.98"/><path class="cls-3" d="M147.33,96.63h0a1.42,1.42,0,0,1,1.42,1.42v38.21a0,0,0,0,1,0,0H124.06a0,0,0,0,1,0,0V119.91a23.27,23.27,0,0,1,23.27-23.27Z"/><path class="cls-3" d="M149.44,94.26h0a1.69,1.69,0,0,1,1.69,1.69v42.7a0,0,0,0,1,0,0H121.68a0,0,0,0,1,0,0V122A27.76,27.76,0,0,1,149.44,94.26Z"/><line class="cls-3" x1="138.64" y1="138.64" x2="136.61" y2="153.56"/><line class="cls-3" x1="141.95" y1="138.64" x2="139.91" y2="153.56"/><line class="cls-3" x1="108.72" y1="153.56" x2="126.32" y2="138.64"/><line class="cls-3" x1="114.02" y1="153.56" x2="131.61" y2="138.64"/><path class="cls-3" d="M132.82,98.64V34.17a1.45,1.45,0,0,1,1.45-1.45h9.48a1.45,1.45,0,0,1,1.45,1.45V94.26"/><rect class="cls-3" x="134.69" y="77.28" width="8.64" height="8.64" rx="1.9"/><line class="cls-3" x1="137.78" y1="85.92" x2="137.78" y2="96.16"/><line class="cls-3" x1="140.25" y1="85.92" x2="140.25" y2="95.06"/><line class="cls-3" x1="132.82" y1="75.68" x2="145.2" y2="75.68"/><circle class="cls-3" cx="139.01" cy="65.68" r="1.23"/><circle class="cls-3" cx="139.01" cy="43.68" r="1.23"/><rect class="cls-3" x="8.18" y="239.86" width="102.74" height="12.1"/><path class="cls-3" d="M110.92,199.68h50.83a0,0,0,0,1,0,0v54a2.68,2.68,0,0,1-2.68,2.68H113.59a2.68,2.68,0,0,1-2.68-2.68v-54a0,0,0,0,1,0,0Z"/><path class="cls-3" d="M161.75,252h79.59a4.23,4.23,0,0,0,2.68-1l.93-.77"/><path class="cls-4" d="M161.75,250.23c0-.47,103.33,0,113.72,0a.83.83,0,0,0,.83-.84v-1.65a.83.83,0,0,0-.83-.84H168.78v-3.21a3.6,3.6,0,0,0-1.19-2.68l-1.28-1.15h-4.56Z"/><circle class="cls-5" cx="272.83" cy="248.46" r="0.74"/><circle class="cls-5" cx="263.7" cy="248.46" r="0.74"/><circle class="cls-5" cx="254.56" cy="248.46" r="0.74"/><circle class="cls-5" cx="245.43" cy="248.46" r="0.74"/><circle class="cls-5" cx="236.29" cy="248.46" r="0.74"/><circle class="cls-5" cx="227.16" cy="248.46" r="0.74"/><circle class="cls-5" cx="218.02" cy="248.46" r="0.74"/><circle class="cls-5" cx="208.89" cy="248.46" r="0.74"/><circle class="cls-5" cx="199.75" cy="248.46" r="0.74"/><circle class="cls-5" cx="190.62" cy="248.46" r="0.74"/><circle class="cls-5" cx="181.48" cy="248.46" r="0.74"/><circle class="cls-5" cx="172.35" cy="248.46" r="0.74"/><path class="cls-4" d="M161.75,206.87c0-.47,103.33-.05,113.72,0a.82.82,0,0,0,.83-.83v-1.66a.84.84,0,0,0-.83-.84l-113.72-.12Z"/><circle class="cls-5" cx="272.83" cy="205.1" r="0.74"/><circle class="cls-5" cx="263.7" cy="205.1" r="0.74"/><circle class="cls-5" cx="254.56" cy="205.1" r="0.74"/><circle class="cls-5" cx="245.43" cy="205.1" r="0.74"/><circle class="cls-5" cx="236.29" cy="205.1" r="0.74"/><circle class="cls-5" cx="227.16" cy="205.1" r="0.74"/><circle class="cls-5" cx="218.02" cy="205.1" r="0.74"/><circle class="cls-5" cx="208.89" cy="205.1" r="0.74"/><circle class="cls-5" cx="199.75" cy="205.1" r="0.74"/><circle class="cls-5" cx="190.62" cy="205.1" r="0.74"/><circle class="cls-5" cx="181.48" cy="205.1" r="0.74"/><circle class="cls-5" cx="172.35" cy="205.1" r="0.74"/><polyline class="cls-3" points="168.78 243.69 293.46 243.69 293.46 249.2 276.3 249.2"/><polyline class="cls-3" points="161.75 201.6 293.46 201.6 293.46 206.17 275.32 206.17"/><rect class="cls-3" x="161.75" y="226.53" width="129.56" height="3.52" rx="1.76"/><polyline class="cls-3" points="261.37 188.63 280.87 188.63 280.87 201.43"/><polyline class="cls-3" points="247.29 195.03 247.29 188.63 256.19 188.63"/><polyline class="cls-3" points="280.87 206.29 280.87 223.94 247.29 223.94 247.29 206.29"/><path class="cls-3" d="M259.83,193a15.08,15.08,0,0,1,4.61-.69,13.69,13.69,0,0,1,13.1,9.09"/><path class="cls-3" d="M251.24,201.43a14.27,14.27,0,0,1,2-3.52"/><path class="cls-3" d="M278.39,206.29a14,14,0,1,1-27.9,0"/><path class="cls-3" d="M275.39,206.29a11,11,0,0,1-21.91,0"/><path class="cls-3" d="M254.53,201.6a11,11,0,0,1,19.73-.17"/><path class="cls-3" d="M232.1,196.88s26.43.76,25-13.31S243,164.5,233.71,163.2s-42.35-1.85-42.35-1.85l-9.14.74"/><path class="cls-3" d="M177.42,153.56v-2.95l9.63,1.48,4.31,1.47,28.3,2.05c5,.37,30,2.22,38.31,15.37a25.51,25.51,0,0,1,3.78,16c-.85,7.45-5.77,10.11-12.25,12.48a32.24,32.24,0,0,1-14.3,2.19"/><path class="cls-3" d="M139.71,23.58h4.35a2.41,2.41,0,0,1,2.4,2.4v1.68a2.41,2.41,0,0,1-2.4,2.41H134a2.4,2.4,0,0,1-2.4-2.41V26a2.4,2.4,0,0,1,2.4-2.4h4.35"/><rect class="cls-3" x="138.32" y="14.74" width="1.39" height="13.24"/><path class="cls-3" d="M135.16,12.84s-3.37.37-4,2.43,1.07,4.29,4,5.76a2.81,2.81,0,0,1,1.32,2.55"/><path class="cls-3" d="M131.13,15.27s-3.23,8.53-3.29,8.64-26.07,6.49-28.36,7.21c-6.58,2.1-16.29,9.43-19.42,11.32S21.39,71.85,21.39,71.85l-7.9,3,3.33,8.77,10.24-3.21a12.8,12.8,0,0,0,7.29-1c3.7-1.73,16.42-2.22,25.43-4.44s26.79-4,33.82-9.26c0,0,2.59-.74,3.34,1.23s2.94,49.54,2.94,49.54"/><path class="cls-3" d="M96.52,66.86a125.59,125.59,0,0,0,6.3-27.19c.36-3.07.6-6.24-.27-9.2"/><line class="cls-3" x1="21.39" y1="71.85" x2="24.8" y2="81.08"/><path class="cls-3" d="M142.19,12.84s3.38.37,4,2.43-1.08,4.29-4,5.76a2.79,2.79,0,0,0-1.31,2.55"/><path class="cls-3" d="M146.23,15.27s3.23,8.53,3.29,8.64,26.07,6.49,28.35,7.21c6.59,2.1,16.3,9.43,19.43,11.32S256,71.85,256,71.85l7.9,3-3.33,8.77-10.25-3.21a12.77,12.77,0,0,1-7.28-1c-3.7-1.73-16.42-2.22-25.43-4.44s-26.79-4-33.83-9.26c0,0-2.59-.74-3.33,1.23s-3,60.65-3,60.65"/><path class="cls-3" d="M180.83,66.86a125.57,125.57,0,0,1-6.29-27.19c-.36-3.07-.6-6.24.27-9.2"/><line class="cls-3" x1="255.97" y1="71.85" x2="252.56" y2="81.08"/><line class="cls-3" x1="93.6" y1="149.13" x2="93.6" y2="153.56"/><path class="cls-3" d="M110.72,132.74H101.3a2.8,2.8,0,0,1-2.81-2.8v-8a2.81,2.81,0,0,1,2.81-2.81h12.35a2.8,2.8,0,0,1,2.8,2.81v8a2.8,2.8,0,0,1-2.8,2.8"/><path class="cls-3" d="M111,135H100.11a3.56,3.56,0,0,1-3.56-3.56V120.47a3.56,3.56,0,0,1,3.56-3.56h14.73a3.57,3.57,0,0,1,3.56,3.56V131.4a3.56,3.56,0,0,1-3.56,3.56h-1.49"/><path class="cls-3" d="M110.92,126.53v14H86.4V143h26.95V126.53a.58.58,0,0,0-.59-.59h-1.25A.58.58,0,0,0,110.92,126.53Z"/><rect class="cls-3" x="100.93" y="121.35" width="13.09" height="1.48"/><rect class="cls-3" x="100.93" y="124.09" width="13.09" height="1.48"/><rect class="cls-3" x="100.93" y="126.82" width="9.99" height="1.48"/><rect class="cls-3" x="100.93" y="129.55" width="9.99" height="1.48"/><rect class="cls-3" x="89.48" y="142.96" width="6.17" height="6.17"/><line class="cls-3" x1="110.92" y1="142.96" x2="110.92" y2="151.7"/><path class="cls-3" d="M162.31,131.69h9.43a2.8,2.8,0,0,0,2.8-2.8v-8a2.81,2.81,0,0,0-2.8-2.81H159.38a2.8,2.8,0,0,0-2.8,2.81v8a2.8,2.8,0,0,0,2.8,2.8"/><path class="cls-3" d="M162.06,133.91h10.86a3.56,3.56,0,0,0,3.56-3.56V119.42a3.56,3.56,0,0,0-3.56-3.56H158.2a3.57,3.57,0,0,0-3.57,3.56v10.93a3.56,3.56,0,0,0,3.57,3.56h1.48"/><path class="cls-3" d="M162.12,125.48v14h24.51v2.44H159.68V125.48a.58.58,0,0,1,.59-.59h1.25A.59.59,0,0,1,162.12,125.48Z"/><rect class="cls-3" x="159.02" y="120.31" width="13.09" height="1.48" transform="translate(331.12 242.09) rotate(-180)"/><rect class="cls-3" x="159.02" y="123.04" width="13.09" height="1.48" transform="translate(331.12 247.56) rotate(-180)"/><rect class="cls-3" x="162.12" y="125.77" width="9.99" height="1.48" transform="translate(334.22 253.02) rotate(-180)"/><rect class="cls-3" x="162.12" y="128.5" width="9.99" height="1.48" transform="translate(334.22 258.48) rotate(-180)"/><rect class="cls-3" x="177.38" y="141.91" width="6.17" height="6.17" transform="translate(360.92 289.99) rotate(-180)"/><line class="cls-3" x1="162.12" y1="141.91" x2="162.12" y2="153.56"/><line class="cls-3" x1="180.46" y1="148.08" x2="180.46" y2="150.61"/><line class="cls-3" x1="210.26" y1="161.83" x2="203.47" y2="190.98"/><path class="cls-3" d="M199,191c.51-1.48,7.42-29.63,7.42-29.63"/><line class="cls-3" x1="231.81" y1="77.28" x2="211.84" y2="155.04"/><line class="cls-3" x1="207.74" y1="155.04" x2="229.15" y2="77.28"/><polyline class="cls-3" points="233.64 60.76 239.32 41.11 241 42.44 235.55 61.71"/><polygon class="cls-3" points="241 42.44 233.64 37.66 241 30.07 243.96 32.72 241 42.44"/><path class="cls-3" d="M226.88,40.45l-6.46-7.64a1.23,1.23,0,0,1,.11-1.71l3.08-2.79a1.23,1.23,0,0,1,1.75.1l6.45,7.31"/><path class="cls-3" d="M244.07,23.85l-6.46-7.64a1.23,1.23,0,0,1,.11-1.71l3.08-2.79a1.23,1.23,0,0,1,1.75.1L249,19.12"/><polyline class="cls-3" points="244.83 31.86 253.22 38.15 252.56 39.63 243.96 32.72 272.11 4.82 268.4 0.62 226.19 41.11 229.15 43.68 235.2 39.88"/><polyline class="cls-3" points="245.98 32.72 249.15 30.07 252.56 32.72 250.22 35.9"/><polyline class="cls-3" points="251.49 36.25 253.59 34.22 255.32 35.24 253.22 38.15"/><path class="cls-3" d="M246.74,67.27s3.38-9.86,7.52-10.6,7.48,2.56,7.85,5l-3.21,2s-.62-.89-1.48-2-2.23-.35-4,2.36a22.45,22.45,0,0,0-2.55,5.24"/><path class="cls-3" d="M259.81,63.14s2.42,7.35,2.3,10.44"/><path class="cls-3" d="M261,63.14s2.43,8.36,2.3,11.45"/><path class="cls-3" d="M215.82,155s27.77-17.76,37.89-40.23,8.88-36.64,8.88-36.64"/><path class="cls-3" d="M218.06,155.49S243.83,138,254.91,116a80.57,80.57,0,0,0,8.6-40.23"/><path class="cls-3" d="M262.34,84.94c-3.54,6.32-7.18,12.52-10.55,18.93-3.7,7-7.74,14.1-12.74,20.27-5.14,6.35-11,12-16.68,17.91-3.33,3.45-6.63,6.92-9.88,10.45"/><path class="cls-3" d="M261.89,88.07c-3.54,6.32-6.73,11.72-10.1,18.13-3.7,7-7.74,14.1-12.74,20.27-5.14,6.35-11,12-16.68,17.91-3.33,3.45-6.63,6.92-9.88,10.45"/><path class="cls-3" d="M205.53,165s-14.48,11.85-18.9,26"/><path class="cls-3" d="M188.41,191s5.84-13.29,16.38-22.94"/><path class="cls-3" d="M195.71,178.48s-3.31,7.07,0,12.5"/><path class="cls-3" d="M198.72,174.52s-4.7,11-1.39,16.46"/><line class="cls-3" x1="40.92" y1="77.28" x2="69.91" y2="190.98"/><line class="cls-3" x1="74.01" y1="190.98" x2="43.58" y2="77.28"/><polyline class="cls-3" points="39.71 62.97 33.41 41.11 31.73 42.44 37.8 63.92"/><polygon class="cls-3" points="31.73 42.44 39.09 37.66 31.73 30.07 28.77 32.72 31.73 42.44"/><path class="cls-3" d="M45.85,40.45l6.46-7.64a1.23,1.23,0,0,0-.11-1.71l-3.08-2.79a1.23,1.23,0,0,0-1.75.1l-6.45,7.31"/><path class="cls-3" d="M28.66,23.85l6.46-7.64A1.23,1.23,0,0,0,35,14.5l-3.08-2.79a1.23,1.23,0,0,0-1.75.1l-6.45,7.31"/><polyline class="cls-3" points="27.9 31.86 19.51 38.15 20.17 39.63 28.77 32.72 0.62 4.82 4.33 0.62 46.55 41.11 43.58 43.68 37.53 39.88"/><polyline class="cls-3" points="26.75 32.72 23.58 30.07 20.17 32.72 22.51 35.9"/><polyline class="cls-3" points="21.24 36.25 19.14 34.22 17.41 35.24 19.51 38.15"/><path class="cls-3" d="M26.85,69.14s-4.24-11.73-8.38-12.47-7.48,2.56-7.85,5l3.21,2s.62-.89,1.48-2,2.23-.35,4,2.36a56.24,56.24,0,0,1,3.42,6.26"/><path class="cls-3" d="M17.31,109.11c-2.38-5.29-5.94-11.73-7.33-17.4-1.81-7.37-.41-15.17,1.23-22.44.47-2.07,1-4.12,1.71-6.13"/><path class="cls-3" d="M15.21,109.11c-3.33-6.64-7.23-13.6-7.77-21C6.7,77.9,10.81,65.84,11.78,62.43"/><path class="cls-3" d="M9.15,83.08c3.53,6.32,11.36,19,14.74,25.43"/><path class="cls-3" d="M9.16,85.77c3.54,6.32,9.72,16.34,13.09,22.74"/><path class="cls-3" d="M67.2,165s14.48,11.85,18.9,26"/><path class="cls-3" d="M84.32,191S78.48,177.69,67.94,168"/><path class="cls-3" d="M77,178.48s3.31,7.07,0,12.5"/><path class="cls-3" d="M74,174.52s4.7,11,1.39,16.46"/><polyline class="cls-3" points="25.34 81.08 26.08 83.95 30.15 83.95 29.61 80.51"/><line class="cls-3" x1="56.32" y1="155.67" x2="62.93" y2="163.59"/><line class="cls-3" x1="56.32" y1="158.76" x2="63.48" y2="165.73"/><path class="cls-3" d="M26.85,84s2.19,18.1,6.51,23.79"/><path class="cls-3" d="M28.9,84c.26.74,1.21,14.91,7.19,23.79"/><line class="cls-3" x1="151.13" y1="131.03" x2="154.63" y2="131.03"/><line class="cls-3" x1="119.31" y1="131.03" x2="121.06" y2="131.03"/></g></g></svg>