<svg xmlns="http://www.w3.org/2000/svg" xmlns:xlink="http://www.w3.org/1999/xlink" viewBox="0 0 475.73 341.32"><defs><style>.cls-1,.cls-2{fill:none;}.cls-1,.cls-3{clip-rule:evenodd;}.cls-21,.cls-24,.cls-3,.cls-4{fill:#fff;}.cls-5{opacity:0.55;}.cls-6{fill:#dbf2fc;}.cls-7{fill:#003459;}.cls-11,.cls-8{fill:#39b6ed;}.cls-9{clip-path:url(#clip-path);}.cls-10{clip-path:url(#clip-path-2);}.cls-11,.cls-24{opacity:0.5;}.cls-12{clip-path:url(#clip-path-3);}.cls-13{clip-path:url(#clip-path-5);}.cls-14{clip-path:url(#clip-path-7);}.cls-15{fill:#757575;}.cls-16{clip-path:url(#clip-path-9);}.cls-17{clip-path:url(#clip-path-10);}.cls-18{clip-path:url(#clip-path-11);}.cls-19{clip-path:url(#clip-path-12);}.cls-20{opacity:0.5;}.cls-21{fill-rule:evenodd;}.cls-22{clip-path:url(#clip-path-13);}.cls-23{clip-path:url(#clip-path-14);}.cls-25{clip-path:url(#clip-path-15);}.cls-26{clip-path:url(#clip-path-17);}.cls-27{clip-path:url(#clip-path-19);}</style><clipPath id="clip-path"><path class="cls-1" d="M157.91,260.49h0a1.24,1.24,0,0,0-1.59.74L153.5,269a1.24,1.24,0,0,0,2.34.85l2.82-7.75A1.24,1.24,0,0,0,157.91,260.49Z"/></clipPath><clipPath id="clip-path-2"><rect class="cls-2" x="107.41" y="203.01" width="148.98" height="124.15"/></clipPath><clipPath id="clip-path-3"><path class="cls-1" d="M151.38,260.49h0a1.25,1.25,0,0,1,1.6.74L155.8,269a1.24,1.24,0,0,1-2.34.85l-2.82-7.75A1.24,1.24,0,0,1,151.38,260.49Z"/></clipPath><clipPath id="clip-path-5"><path class="cls-1" d="M144.5,260.91h0a2.48,2.48,0,0,1,3.18,1.49l2.39,6.58a1.23,1.23,0,0,1-.74,1.59,1.25,1.25,0,0,1-1.59-.74Z"/></clipPath><clipPath id="clip-path-7"><path class="cls-1" d="M152.19,260.49h0a1.24,1.24,0,0,0-1.59.74L147.78,269a1.24,1.24,0,0,0,2.34.85l2.82-7.75A1.24,1.24,0,0,0,152.19,260.49Z"/></clipPath><clipPath id="clip-path-9"><path class="cls-2" d="M323.86,167.18l0,.29c1.26,20.24,4.12,70.25,3.55,100.74-3.2,2.5-14.46,12.66-15.17,32H240.77c-2.47-35.19-.41-124.48.13-133.06a6.29,6.29,0,0,1,1.93-4.56,7.54,7.54,0,0,1,5-1.45h69.19a7.39,7.39,0,0,1,4.87,1.46A6.25,6.25,0,0,1,323.86,167.18Z"/></clipPath><clipPath id="clip-path-10"><path class="cls-2" d="M327.8,168.88c43.24-2,61-.75,61.22-.74s7.4.59,9,6.45c1.84,6.75,7.16,48.82,8.62,60.56H330.93C330.2,210.07,328.68,183.27,327.8,168.88Z"/></clipPath><clipPath id="clip-path-11"><path class="cls-2" d="M127,220.72c.52-.45,51.93-44.67,56.14-47.82,3.5-2.63,6-2.33,6.07-2.33a1.73,1.73,0,0,0,.32,0h47.45c-.69,19.31-2.26,98.28.06,130.43L133.21,302.1c-.85-4.57-1.47-9.29-1.89-14h99.31a1.44,1.44,0,0,0,1.44-1.43V286a1.45,1.45,0,0,0-1.44-1.44H131a278.19,278.19,0,0,1,.45-41.72H158a6.69,6.69,0,0,0,4.77-2l7.4-7.4a2.94,2.94,0,0,1,2.07-.86h55.35a6.76,6.76,0,0,0,6.75-6.75V182.33a6.75,6.75,0,0,0-6.75-6.74H190a6.68,6.68,0,0,0-4.4,1.63l-64.13,52C121.25,225.09,126.8,220.83,127,220.72Z"/></clipPath><clipPath id="clip-path-12"><path class="cls-2" d="M425.73,304.12c-.64,1.59-2.13,5.33-9.27,5.87-6.49.48-25.44,0-32-.14a29.4,29.4,0,1,0-57.58.36H112a29.41,29.41,0,1,0-57.52-.07c-17.53-.52-44.28-2.37-48.62-5.49a1.37,1.37,0,0,0-.2-.13c-.22-.24-1.58-2-2-8.92-.65-11.78-.08-16.88,0-17.4C4,277,8.38,272.62,11,271.31a1.89,1.89,0,0,0,.73-.67l3.07.21h.3a4.34,4.34,0,0,0,4.31-4l.78-9.54a4.33,4.33,0,0,0-4.31-4.68h-2c.11-.22.22-.45.34-.65,2.55-4.24,34.32-15.43,54.76-20.1,16.53-3.78,32-7.35,35.56-8.17l12.2,10.93a6.74,6.74,0,0,0,6.6,8.12h3.9c-.67,7.75-2.61,35.56,1.69,59.35l-3.76,0a1.91,1.91,0,0,0,0,3.82h0l6-.06h0l182.54-1.88a1.53,1.53,0,0,0,.37-.08,2.09,2.09,0,0,0,.36-.08,1.43,1.43,0,0,0,.3-.2,1.05,1.05,0,0,0,.51-.51,1.65,1.65,0,0,0,.2-.31,2.12,2.12,0,0,0,.08-.38,1.81,1.81,0,0,0,.07-.35c0-21.33,13.76-31,14.34-31.39a1.87,1.87,0,0,0,.84-1.54c.19-9,.07-19.66-.22-30.85h76.07a1.89,1.89,0,0,0,1.84,1.51l.23,0a1.92,1.92,0,0,0,1.67-2.13c-.28-2.28-6.9-56.06-9.11-64.15-2.33-8.51-12-9.22-12.42-9.25-.18,0-18.2-1.26-61.89.75a9.31,9.31,0,0,0-3-5.39,11.1,11.1,0,0,0-7.5-2.34H247.64a11.21,11.21,0,0,0-7.69,2.33,9.83,9.83,0,0,0-3.26,7.09H189.18c-.92-.1-4.42-.23-8.8,3.06s-54.22,46.16-56.24,47.9c-.37.28-7.73,5.9-6.9,12.27l-9.26-8.3C119.41,213,175.55,170,181.43,165c.73-.6,1.43-1.22,2.12-1.82,5.41-4.72,10.07-8.79,26.17-8.79H380.85c.63,0,15.47,1,19.82,13.55,4.8,13.86,13.91,63.11,15,111.9a1.91,1.91,0,0,0,1.62,1.84c3.87.6,7.9,1.93,8.42,2.71C426.36,286.61,426.39,302.1,425.73,304.12Z"/></clipPath><clipPath id="clip-path-13"><path class="cls-3" d="M307,227.06h0a2.13,2.13,0,0,0-2.73,1.27l-4.83,13.28a2.13,2.13,0,1,0,4,1.45l4.83-13.27A2.13,2.13,0,0,0,307,227.06Z"/></clipPath><clipPath id="clip-path-14"><rect class="cls-4" x="220.41" y="128.56" width="255.32" height="212.76"/></clipPath><clipPath id="clip-path-15"><path class="cls-3" d="M295.77,227.06h0a2.13,2.13,0,0,1,2.72,1.27l4.84,13.28a2.13,2.13,0,1,1-4,1.45l-4.83-13.27A2.12,2.12,0,0,1,295.77,227.06Z"/></clipPath><clipPath id="clip-path-17"><path class="cls-3" d="M284,227.79h0a4.26,4.26,0,0,1,5.46,2.54l4.1,11.28a2.13,2.13,0,1,1-4,1.45Z"/></clipPath><clipPath id="clip-path-19"><path class="cls-3" d="M297.15,227.06h0a2.13,2.13,0,0,0-2.72,1.27l-4.84,13.28a2.13,2.13,0,1,0,4,1.45l4.83-13.27A2.12,2.12,0,0,0,297.15,227.06Z"/></clipPath></defs><g id="Layer_2" data-name="Layer 2"><g id="Design"><g class="cls-5"><path class="cls-4" d="M331.29,21.13a9,9,0,0,0-11.94,4.62l-.07.17a9,9,0,0,0,4.64,11.88,66.6,66.6,0,1,1-58.37,2l-7.09,23.41a8.55,8.55,0,0,0,5.71,10.66l.17.05A8.53,8.53,0,0,0,275,68.2l14.26-47.08a5.22,5.22,0,0,0-3.48-6.5L238.69.37A8.55,8.55,0,0,0,228,6.07l-.05.17a8.54,8.54,0,0,0,5.7,10.66l23,7a84.83,84.83,0,1,0,74.62-2.73Z"/></g><path class="cls-6" d="M171.26,90.47c1.38,4.58.72,59.9,0,96.42-1.13.84-4.16,2.51-8.35-.11V80.18C165.69,82.47,170.08,86.54,171.26,90.47Z"/><path class="cls-6" d="M159.73,77.89V201a5.13,5.13,0,0,1-5.13,5.13h-12a13.74,13.74,0,0,1-12-7.16.79.79,0,0,0-.16-.23l-4.89-6V144.85l14-30.88a1.55,1.55,0,0,0-.1-1.49l-2.66-4.19,4.45.95a1.56,1.56,0,0,0,1.24-.26,1.52,1.52,0,0,0,.64-1.09c2.81-24-.48-36.35-3.4-42.25Z"/><polygon class="cls-6" points="131.76 61.31 123.99 101.08 116.22 61.3 123.52 57.44 131.76 61.31"/><path class="cls-6" d="M107.47,112.48a1.58,1.58,0,0,0-.11,1.49L122,146.3a1.46,1.46,0,0,0,.39.52v45.9l-4.88,6a.76.76,0,0,0-.15.23,13.74,13.74,0,0,1-12,7.16h-12A5.13,5.13,0,0,1,88.27,201V77.89l18.5-11.34c-2.8,6.23-5.65,18.48-3,41.34a1.52,1.52,0,0,0,.64,1.09,1.56,1.56,0,0,0,1.24.26l4.45-.95Z"/><path class="cls-6" d="M85.13,80.18v106.6c-4.2,2.62-7.23.95-8.34.11-.79-36.52-1.43-91.84-.05-96.42C77.92,86.54,82.31,82.47,85.13,80.18Z"/><path class="cls-7" d="M76.87,47.54c8.51-1.59,9.75-9.46,9.89-12.79a1.59,1.59,0,0,1,1.57-1.5A1.67,1.67,0,0,1,90,34.8c0,4.85,1.78,11,9.75,12.75a1.57,1.57,0,0,1-.09,3.08c-7.86,1.3-9.38,9.43-9.68,12.85a1.56,1.56,0,0,1-1.55,1.44,1.62,1.62,0,0,1-1.62-1.46c-.2-2.75-1.5-11.77-9.87-12.82a1.57,1.57,0,0,1-.07-3.1Z"/><path class="cls-7" d="M76.1,40.87c-5.46.89-6.51,6.59-6.72,9a1.57,1.57,0,0,1-1.57,1.44,1.62,1.62,0,0,1-1.6-1.46c-.12-1.91-1-8.23-6.82-9A1.58,1.58,0,0,1,58,39.36a1.54,1.54,0,0,1,1.28-1.58c5.92-1.1,6.78-6.62,6.87-8.93a1.59,1.59,0,0,1,1.57-1.5A1.65,1.65,0,0,1,69.4,28.9c0,3.37,1.24,7.66,6.78,8.9a1.53,1.53,0,0,1,1.22,1.56A1.57,1.57,0,0,1,76.1,40.87Z"/><path class="cls-7" d="M171.21,186.89c.77-36.52,1.43-91.84,0-96.42-1.18-3.93-5.57-8-8.4-10.29v106.6C167.05,189.4,170.08,187.73,171.21,186.89ZM154.6,206.14a5.13,5.13,0,0,0,5.13-5.13V77.89l-20-12.25c2.92,5.9,6.21,18.21,3.4,42.25a1.52,1.52,0,0,1-.64,1.09,1.56,1.56,0,0,1-1.24.26l-4.45-.95,2.66,4.19a1.55,1.55,0,0,1,.1,1.49l-14,30.88v47.87l4.89,6a.79.79,0,0,1,.16.23,13.74,13.74,0,0,0,12,7.16ZM131.76,61.31l-8.24-3.87-7.29,3.86L124,101.08ZM88.27,201a5.13,5.13,0,0,0,5.13,5.13h12a13.74,13.74,0,0,0,12-7.16.76.76,0,0,1,.15-.23l4.88-6v-45.9a1.46,1.46,0,0,1-.39-.52L107.36,114a1.58,1.58,0,0,1,.11-1.49l2.65-4.19-4.45.95a1.56,1.56,0,0,1-1.24-.26,1.52,1.52,0,0,1-.64-1.09c-2.67-22.86.18-35.11,3-41.34L88.27,77.89ZM76.79,186.89c1.11.84,4.14,2.51,8.34-.11V80.18c-2.82,2.29-7.21,6.36-8.39,10.29C75.36,95.05,76,150.37,76.79,186.89ZM73.73,89.58c2.1-7,11.67-13.59,12.08-13.87h0s0,0,0,0l27.7-17a1.52,1.52,0,0,1,1.18-.19l4.31-2.28a88,88,0,0,0-19.4,3.24,1.57,1.57,0,0,1-2-1.07,1.6,1.6,0,0,1,1.09-1.95A91.86,91.86,0,0,1,121.92,53c0-.47,0-.9,0-1.27,0-.8,0-1.53,0-2.59a5.05,5.05,0,0,1,2.84-4.77,3.23,3.23,0,0,0,1.92-2.45c.26-1.41.4-3.32-.52-4.38s-2.82-1.14-4.27-1a3.08,3.08,0,0,0-2.26,1,7,7,0,0,0-1.11,4.52,1.57,1.57,0,0,1-3.12.32c0-.43-.35-4.26,1.83-6.84a6.23,6.23,0,0,1,4.44-2.17c3.12-.22,5.41.49,6.84,2.1s1.84,4,1.24,7.05A6.34,6.34,0,0,1,126.53,47c-1,.62-1.38.86-1.38,2.1s0,1.86-.06,2.68c0,.36,0,.74,0,1.15,9.63.1,26.63,1.66,40.38,10.14,7.89,4.88,13.42,11.33,16.41,19.17,1.45,3.8,2.4,27.58,2.82,70.69,0,.64.61,63.82-.3,65.14a1.59,1.59,0,0,1-1.3.69H64.69a1.58,1.58,0,0,1-1.57-1.57V95.71c0-12.78,6.06-23.54,17.5-31.12a1.56,1.56,0,1,1,1.74,2.6c-10.69,7.09-16.1,16.68-16.1,28.52v120h115.3c.11-13.37.32-124.48-2.65-132.26-2.73-7.17-7.83-13.1-15.14-17.62-9-5.57-21.77-9-35.5-9.58l5,2.33a1.51,1.51,0,0,1,1.19.18l27.71,17,0,0h0c.41.28,10,6.9,12.08,13.87,2,6.54.26,88.73.06,98.08a1.57,1.57,0,0,1-.45,1.06,9.47,9.47,0,0,1-6.59,2.59,10.67,10.67,0,0,1-4.43-1V201a8.27,8.27,0,0,1-8.26,8.26h-12a16.85,16.85,0,0,1-14.7-8.66L124,195.77l-3.92,4.84a16.86,16.86,0,0,1-14.7,8.66h-12A8.28,8.28,0,0,1,85.13,201V190.32a10.72,10.72,0,0,1-4.42,1,9.47,9.47,0,0,1-6.59-2.59,1.57,1.57,0,0,1-.45-1.06C73.46,178.31,71.75,96.12,73.73,89.58Z"/><path class="cls-7" d="M429.75,283.29c.84,2.71,1,19.64-.05,22.25-.75,1.86-3,7.55-12.53,8.25-2.26.18-5.92.23-10,.23-8.79,0-19.58-.28-23.38-.38a29.35,29.35,0,0,1-55.41.38H111.31A29.34,29.34,0,0,1,56,314c-8.43-.23-44.77-1.49-51.8-6.12C2.84,307.17.8,304.63.3,295.8a123.69,123.69,0,0,1,0-18.09c.37-2.88,5.35-7.27,8.27-9.16C8.46,265,8.38,255,11.34,250.06c4-6.75,41.91-18.4,57.19-21.87l35.93-8.25c5.15-4,68.82-52.72,75-57.84.7-.57,1.37-1.17,2.06-1.76,5.48-4.79,11.13-9.74,28.67-9.74H381.37c.84,0,18.13,1.07,23.34,16.12,4.53,13.11,13.85,60.51,15.13,111.49C423.72,278.94,428.87,280.45,429.75,283.29Zm-4,20.82c.67-2,.63-17.5,0-19.69-.52-.79-4.55-2.1-8.43-2.71a1.91,1.91,0,0,1-1.62-1.84c-.94-43.79-8.39-87.94-13.35-106.56-.58-2.12-1.11-3.91-1.61-5.35-4.35-12.56-19.19-13.5-19.82-13.54H209.72c-16.1,0-20.76,4.09-26.17,8.81-.69.59-1.39,1.2-2.12,1.81-5.88,4.91-62,47.92-73.44,56.67l9.25,8.29c-.83-6.36,6.53-12,6.89-12.26,2-1.74,51.93-44.68,56.25-47.9s7.87-3.16,8.81-3.06h47.5a9.92,9.92,0,0,1,3.26-7.09,11.2,11.2,0,0,1,7.68-2.33l68.84,0s.21,0,.55,0a10.91,10.91,0,0,1,6.94,2.37,9.17,9.17,0,0,1,3,5.39c43.71-2,61.72-.76,61.89-.75.4,0,10.1.75,12.43,9.25,2.22,8.1,8.83,61.87,9.11,64.16a1.91,1.91,0,0,1-1.66,2.12,1.1,1.1,0,0,1-.25,0,1.9,1.9,0,0,1-1.83-1.51H330.58c.31,11.19.43,21.91.23,30.84a1.88,1.88,0,0,1-.84,1.55c-.57.4-14.34,10.05-14.34,31.38a2,2,0,0,1-.08.37,1.59,1.59,0,0,1-.07.38,2.2,2.2,0,0,1-.19.3c-.08.1-.14.21-.21.31s-.21.13-.31.21a1.61,1.61,0,0,1-.31.19.89.89,0,0,1-.34.08,1.69,1.69,0,0,1-.38.07L131.2,305.94l-6,.06h0a1.91,1.91,0,0,1,0-3.82l3.75,0c-4.3-23.8-2.35-51.61-1.69-59.34h-3.89a6.7,6.7,0,0,1-6.32-4.38,6.84,6.84,0,0,1-.29-3.76l-12.21-10.92c-3.53.82-19,4.39-35.56,8.17-20.44,4.66-52.2,15.85-54.76,20.09-.12.22-.21.44-.33.65h2a4.32,4.32,0,0,1,3.17,1.4,4.41,4.41,0,0,1,1.15,3.28l-.79,9.55a4.34,4.34,0,0,1-4.31,4H14.8l-3.07-.21a2.24,2.24,0,0,1-.73.67c-2.62,1.29-7,5.63-7.32,6.87-.05.54-.63,5.64,0,17.4.39,6.94,1.74,8.69,2,8.92.08,0,.13.1.21.14,4.34,3.13,31.08,5,48.61,5.5a29.05,29.05,0,0,1-.63-6.06A29.4,29.4,0,1,1,112,310.2H326.82A29.4,29.4,0,1,1,385,304.09a28.61,28.61,0,0,1-.57,5.75c6.61.19,25.56.63,32,.15C423.6,309.46,425.09,305.71,425.72,304.11Zm-94.79-69h75.71c-1.45-11.73-6.76-53.79-8.61-60.55-1.61-5.86-8.71-6.44-9-6.45s-18-1.25-61.21.74C328.67,183.26,330.2,210.06,330.93,235.14Zm50.65,68.95a25.59,25.59,0,1,0-50.36,6.23c.32,1,.64,2.27.93,2.92a25.56,25.56,0,0,0,49.43-9.15ZM327.43,268.2c.58-30.48-2.29-80.49-3.55-100.73l0-.29a6.31,6.31,0,0,0-1.93-4.56,7.36,7.36,0,0,0-4.87-1.46H247.88a7.56,7.56,0,0,0-5,1.46,6.24,6.24,0,0,0-2,4.56c-.53,8.58-2.58,97.87-.11,133.05h71.49C313,280.87,324.22,270.7,327.43,268.2ZM133.2,302.1,237,301c-.3-4.32-.55-9.48-.74-15.25-.54-17.07-.57-39.31-.38-60,.23-24.2.74-46.21,1.07-55.22H189.47a1.54,1.54,0,0,1-.3,0c-.08,0-2.58-.29-6.08,2.33-4.2,3.15-55.62,47.39-56.13,47.83-.16.11-5.71,4.37-5.5,8.5l64.13-52a6.63,6.63,0,0,1,4.4-1.65h37.57a6.78,6.78,0,0,1,6.76,6.75V225.8a6.78,6.78,0,0,1-6.76,6.76H172.21a3,3,0,0,0-2.07.84l-7.41,7.41a6.69,6.69,0,0,1-4.77,2H131.48a278,278,0,0,0-.45,41.71h99.6a1.45,1.45,0,0,1,1.44,1.44v.7a1.43,1.43,0,0,1-1.44,1.44H131.31C131.75,292.8,132.36,297.54,133.2,302.1Zm97.3-76.3V182.33a2.94,2.94,0,0,0-2.94-2.93H190a3,3,0,0,0-1.93.73L121.74,233.9s0,.07-.09.09a1.9,1.9,0,0,1-.38,1.82,1.66,1.66,0,0,1-.46.34,4.05,4.05,0,0,0,.19.92,2.85,2.85,0,0,0,2.75,1.91H158a3,3,0,0,0,2.08-.86l7.39-7.41a6.71,6.71,0,0,1,4.78-2h55.35A2.94,2.94,0,0,0,230.5,225.8ZM109.27,304.09a25.59,25.59,0,1,0-25.59,25.58A25.62,25.62,0,0,0,109.27,304.09ZM18.7,257.18a2.48,2.48,0,0,0-.63-1.83,2.4,2.4,0,0,0-1.78-.79H13.58c-1.24,4.36-1.28,10.93-1.15,14.18l2.91.21a2.44,2.44,0,0,0,2.57-2.22Z"/><path class="cls-6" d="M425.69,284.42c.66,2.19.7,17.68,0,19.69-.63,1.6-2.12,5.35-9.26,5.88-6.49.48-25.44,0-32-.15a28.61,28.61,0,0,0,.57-5.75,29.41,29.41,0,1,0-58.16,6.11H125.2V306l6-.06,182.54-1.89a1.69,1.69,0,0,0,.38-.07.89.89,0,0,0,.34-.08,1.61,1.61,0,0,0,.31-.19c.1-.08.21-.13.31-.21s.13-.21.21-.31a2.2,2.2,0,0,0,.19-.3,1.59,1.59,0,0,0,.07-.38,2,2,0,0,0,.08-.37c0-21.33,13.77-31,14.34-31.38a1.88,1.88,0,0,0,.84-1.55c.2-8.93.08-19.65-.23-30.84h76.08a1.9,1.9,0,0,0,1.83,1.51,1.1,1.1,0,0,0,.25,0,1.91,1.91,0,0,0,1.66-2.12c-.28-2.29-6.89-56.06-9.11-64.16l1-.27c5,18.62,12.41,62.77,13.35,106.56a1.91,1.91,0,0,0,1.62,1.84C421.14,282.32,425.17,283.63,425.69,284.42Z"/><path class="cls-6" d="M406.64,235.14H330.93c-.73-25.08-2.26-51.88-3.13-66.26,43.24-2,61-.74,61.21-.74s7.41.59,9,6.45C399.88,181.35,405.19,223.41,406.64,235.14Z"/><path class="cls-6" d="M402.29,173.31l-1,.27c-2.33-8.5-12-9.23-12.43-9.25-.17,0-18.18-1.26-61.89.75a9.17,9.17,0,0,0-3-5.39,10.91,10.91,0,0,0-6.94-2.37v-2.9h63.84c.63,0,15.47,1,19.82,13.54C401.18,169.4,401.71,171.19,402.29,173.31Z"/><path class="cls-8" d="M356,278.5a25.59,25.59,0,1,1-23.86,34.74c-.29-.65-.61-1.93-.93-2.92A25.45,25.45,0,0,1,356,278.5Zm16.21,25.59A16.22,16.22,0,1,0,356,320.31,16.23,16.23,0,0,0,372.22,304.09Z"/><path class="cls-7" d="M356,287.88a16.22,16.22,0,1,1-16.22,16.21A16.23,16.23,0,0,1,356,287.88Zm12.39,16.21A12.4,12.4,0,1,0,356,316.49,12.39,12.39,0,0,0,368.4,304.09Z"/><circle class="cls-6" cx="356.01" cy="304.09" r="12.4"/><path class="cls-6" d="M323.88,167.47c1.26,20.24,4.13,70.25,3.55,100.73-3.21,2.5-14.46,12.67-15.16,32H240.78c-2.47-35.18-.42-124.47.11-133a6.24,6.24,0,0,1,2-4.56,7.56,7.56,0,0,1,5-1.46h69.18a7.36,7.36,0,0,1,4.87,1.46,6.31,6.31,0,0,1,1.93,4.56Z"/><path class="cls-6" d="M317,154.42v2.9c-.34,0-.55,0-.55,0l-68.84,0a11.2,11.2,0,0,0-7.68,2.33,9.92,9.92,0,0,0-3.26,7.09h-47.5c-.94-.1-4.44-.23-8.81,3.06s-54.23,46.16-56.25,47.9c-.36.29-7.72,5.9-6.89,12.26L108,221.71C119.41,213,175.55,170,181.43,165c.73-.61,1.43-1.22,2.12-1.81,5.41-4.72,10.07-8.81,26.17-8.81Z"/><path class="cls-6" d="M237,301,133.2,302.1c-.84-4.56-1.45-9.3-1.89-14h99.32a1.43,1.43,0,0,0,1.44-1.44V286l4.18-.16C236.44,291.56,236.69,296.72,237,301Z"/><path class="cls-6" d="M189.47,170.6h47.47c-.33,9-.84,31-1.07,55.22l-1.55,0V182.33a6.78,6.78,0,0,0-6.76-6.75H190a6.63,6.63,0,0,0-4.4,1.65l-64.13,52c-.21-4.13,5.34-8.39,5.5-8.5.51-.44,51.93-44.68,56.13-47.83,3.5-2.62,6-2.33,6.08-2.33A1.54,1.54,0,0,0,189.47,170.6Z"/><path class="cls-6" d="M236.25,285.79l-4.18.16a1.45,1.45,0,0,0-1.44-1.44H131a278,278,0,0,1,.45-41.71H158a6.69,6.69,0,0,0,4.77-2l7.41-7.41a3,3,0,0,1,2.07-.84h55.35a6.78,6.78,0,0,0,6.76-6.76l1.55,0C235.68,246.48,235.71,268.72,236.25,285.79Z"/><path class="cls-6" d="M230.5,182.33V225.8a2.94,2.94,0,0,1-2.94,2.94H172.21a6.71,6.71,0,0,0-4.78,2L160,238.12A3,3,0,0,1,158,239H123.75a2.85,2.85,0,0,1-2.75-1.91,4.05,4.05,0,0,1-.19-.92,1.66,1.66,0,0,0,.46-.34,1.9,1.9,0,0,0,.38-1.82s0-.05.09-.09l66.32-53.77a3,3,0,0,1,1.93-.73h37.57A2.94,2.94,0,0,1,230.5,182.33Z"/><path class="cls-6" d="M128.91,302.14l-3.75,0a1.91,1.91,0,0,0,0,3.82h0v4.2H112a29.39,29.39,0,1,0-57.51-.05c-17.53-.54-44.27-2.37-48.61-5.5-.08,0-.13-.1-.21-.14-.23-.23-1.58-2-2-8.92-.65-11.76-.07-16.86,0-17.4C4,277,8.38,272.61,11,271.32a2.24,2.24,0,0,0,.73-.67l3.07.21h.29a4.34,4.34,0,0,0,4.31-4l.79-9.55A4.41,4.41,0,0,0,19,254.05a4.32,4.32,0,0,0-3.17-1.4h-2c.12-.21.21-.43.33-.65,2.56-4.24,34.32-15.43,54.76-20.09,16.54-3.78,32-7.35,35.56-8.17l12.21,10.92a6.84,6.84,0,0,0,.29,3.76,6.7,6.7,0,0,0,6.32,4.38h3.89C126.56,250.53,124.61,278.34,128.91,302.14Z"/><path class="cls-8" d="M83.68,278.5A25.59,25.59,0,1,1,58.1,304.09,25.62,25.62,0,0,1,83.68,278.5Zm16.21,25.59a16.22,16.22,0,1,0-16.21,16.22A16.23,16.23,0,0,0,99.89,304.09Z"/><path class="cls-7" d="M83.68,287.88a16.22,16.22,0,1,1-16.22,16.21A16.23,16.23,0,0,1,83.68,287.88Zm12.39,16.21a12.4,12.4,0,1,0-12.39,12.4A12.4,12.4,0,0,0,96.07,304.09Z"/><circle class="cls-6" cx="83.68" cy="304.09" r="12.4"/><path class="cls-8" d="M18.07,255.35a2.48,2.48,0,0,1,.63,1.83l-.79,9.55A2.44,2.44,0,0,1,15.34,269l-2.91-.21c-.13-3.25-.09-9.82,1.15-14.18h2.71A2.4,2.4,0,0,1,18.07,255.35Z"/><g class="cls-9"><g class="cls-10"><rect class="cls-11" x="150.1" y="263.67" width="11.97" height="3.72" transform="matrix(0.34, -0.94, 0.94, 0.34, -146.82, 321.38)"/></g></g><g class="cls-12"><g class="cls-10"><rect class="cls-11" x="151.36" y="259.54" width="3.72" height="11.97" transform="translate(-81.57 68.42) rotate(-20)"/></g></g><g class="cls-13"><g class="cls-10"><rect class="cls-11" x="145.64" y="259.54" width="3.72" height="11.97" transform="translate(-81.92 66.46) rotate(-20)"/></g></g><g class="cls-14"><g class="cls-10"><rect class="cls-11" x="144.37" y="263.67" width="11.97" height="3.72" transform="matrix(0.34, -0.94, 0.94, 0.34, -150.58, 316)"/></g></g><path class="cls-15" d="M177.86,262.4l-2,5.91H175l-1.61-4.72-1.61,4.72h-.9l-2-5.91h.87l1.6,4.81L173,262.4h.77l1.63,4.83,1.63-4.83Z"/><path class="cls-15" d="M184.33,266.84h-3.14l-.65,1.47h-.87l2.68-5.91h.83l2.69,5.91H185Zm-.29-.68-1.28-2.89-1.27,2.89Z"/><path class="cls-15" d="M188.15,267.64l.31-.66a3,3,0,0,0,1.95.68c1,0,1.46-.39,1.46-.91,0-1.44-3.58-.53-3.58-2.72,0-.92.71-1.69,2.26-1.69a3.44,3.44,0,0,1,1.9.52l-.28.68a3,3,0,0,0-1.62-.49c-1,0-1.43.43-1.43.94,0,1.45,3.58.54,3.58,2.71,0,.9-.73,1.68-2.29,1.68A3.5,3.5,0,0,1,188.15,267.64Z"/><path class="cls-15" d="M201,262.4v5.91h-.85v-2.63h-3.39v2.63h-.85V262.4h.85V265h3.39V262.4Z"/><path class="cls-15" d="M210.23,268.31V264l-2.13,3.59h-.39L205.56,264v4.28h-.81V262.4h.7l2.46,4.16,2.43-4.16H211v5.91Z"/><path class="cls-15" d="M214.8,262.4h.84v5.91h-.84Z"/><path class="cls-15" d="M222.55,268.31l-1.78-2.44L219,268.31h-1l2.22-3-2.09-2.88h1l1.66,2.28,1.64-2.28h.92l-2.09,2.86,2.24,3.05Z"/><path class="cls-15" d="M225.48,267.07a.62.62,0,0,0-.62.62.62.62,0,1,0,1.24,0A.62.62,0,0,0,225.48,267.07Zm.35,1a.5.5,0,0,1-.85-.35.51.51,0,0,1,.15-.35.51.51,0,0,1,.7,0,.51.51,0,0,1,.15.35A.49.49,0,0,1,225.83,268Z"/><circle class="cls-2" cx="225.48" cy="267.69" r="0.62"/><circle class="cls-2" cx="225.48" cy="267.69" r="0.62"/><path class="cls-15" d="M225.42,267.74v.2h-.12v-.53h.16a.25.25,0,0,1,.16,0,.17.17,0,0,1,0,.12.11.11,0,0,1,0,.08.11.11,0,0,1-.07.06,2.34,2.34,0,0,0,.16.23h-.13l-.12-.2Zm0-.09h0l.08,0a.06.06,0,0,0,0-.06.05.05,0,0,0,0-.05l-.08,0h0Z"/><path class="cls-15" d="M163.63,260.06a12.92,12.92,0,0,0-24.81,5,12.72,12.72,0,0,0,1,5A12.94,12.94,0,0,0,151.73,278a12.73,12.73,0,0,0,5-1,12.91,12.91,0,0,0,6.87-16.92Zm-1.83,9.28a11,11,0,0,1-4,4.81,11,11,0,0,1-10.36,1,11,11,0,0,1-4.81-4,11.19,11.19,0,0,1-1.37-2.85A10.92,10.92,0,0,1,145.63,256a10.81,10.81,0,0,1,6.1-1.87,10.89,10.89,0,0,1,9.06,4.82,10.81,10.81,0,0,1,1.87,6.11A10.94,10.94,0,0,1,161.8,269.34Z"/><g class="cls-16"><polygon class="cls-8" points="303.04 310.2 373.27 154.42 296.04 154.42 219.87 310.2 303.04 310.2"/></g><g class="cls-17"><polygon class="cls-8" points="303.04 310.2 373.27 154.42 296.04 154.42 219.87 310.2 303.04 310.2"/></g><g class="cls-18"><polygon class="cls-8" points="303.04 310.2 373.27 154.42 296.04 154.42 219.87 310.2 303.04 310.2"/></g><g class="cls-19"><polygon class="cls-8" points="303.04 310.2 373.27 154.42 296.04 154.42 219.87 310.2 303.04 310.2"/></g><g class="cls-20"><path class="cls-21" d="M307,227.06h0a2.13,2.13,0,0,0-2.73,1.27l-4.83,13.28a2.13,2.13,0,1,0,4,1.45l4.83-13.27A2.13,2.13,0,0,0,307,227.06Z"/><g class="cls-22"><rect class="cls-4" x="220.41" y="128.56" width="255.32" height="212.76"/><g class="cls-23"><rect class="cls-24" x="293.56" y="232.51" width="20.51" height="6.38" transform="translate(-21.58 440.58) rotate(-70)"/></g></g></g><g class="cls-20"><path class="cls-21" d="M295.77,227.06h0a2.13,2.13,0,0,1,2.72,1.27l4.84,13.28a2.13,2.13,0,1,1-4,1.45l-4.83-13.27A2.12,2.12,0,0,1,295.77,227.06Z"/><g class="cls-25"><rect class="cls-4" x="220.41" y="128.56" width="255.32" height="212.76"/><g class="cls-23"><rect class="cls-24" x="295.72" y="225.44" width="6.38" height="20.51" transform="translate(-62.59 116.45) rotate(-20)"/></g></g></g><g class="cls-20"><path class="cls-21" d="M284,227.79h0a4.26,4.26,0,0,1,5.46,2.54l4.1,11.28a2.13,2.13,0,1,1-4,1.45Z"/><g class="cls-26"><rect class="cls-4" x="220.41" y="128.56" width="255.32" height="212.76"/><g class="cls-23"><rect class="cls-24" x="285.92" y="225.44" width="6.38" height="20.51" transform="translate(-63.18 113.09) rotate(-20)"/></g></g></g><g class="cls-20"><path class="cls-21" d="M297.15,227.06h0a2.13,2.13,0,0,0-2.72,1.27l-4.84,13.28a2.13,2.13,0,1,0,4,1.45l4.83-13.27A2.12,2.12,0,0,0,297.15,227.06Z"/><g class="cls-27"><rect class="cls-4" x="220.41" y="128.56" width="255.32" height="212.76"/><g class="cls-23"><rect class="cls-24" x="283.75" y="232.51" width="20.51" height="6.38" transform="translate(-28.03 431.36) rotate(-70)"/></g></g></g><path class="cls-4" d="M316.76,226.33a22.26,22.26,0,0,0-8-9.73,22.14,22.14,0,0,0-21-2,22.31,22.31,0,0,0-9.73,8,22.11,22.11,0,1,0,38.74,3.76Zm-3.14,15.9a18.85,18.85,0,0,1-6.78,8.24,18.76,18.76,0,0,1-17.76,1.73,18.87,18.87,0,0,1-8.24-6.79,18.31,18.31,0,0,1-2.35-4.9,18.74,18.74,0,0,1,25.17-22.82,18.79,18.79,0,0,1,10.59,11.68,18.84,18.84,0,0,1-.63,12.86Z"/></g></g></svg>