<svg xmlns="http://www.w3.org/2000/svg" viewBox="0 0 83.85 91.7"><defs><style>.cls-1{fill:none;stroke:#003459;stroke-linecap:round;stroke-linejoin:round;stroke-width:1.44px;}</style></defs><g id="Layer_2" data-name="Layer 2"><g id="Design"><path class="cls-1" d="M26.23,32.11c-6.5,0-11.77-7-11.77-15.69S19.73.72,26.23.72c4.36,0,8.16,3.16,10.2,7.85"/><path class="cls-1" d="M22.3,37.31a7.85,7.85,0,1,0,2-12"/><path class="cls-1" d="M43.89,16.39l12.53,2.37a5.89,5.89,0,0,1,4.27,3.32L82.76,69.4a4,4,0,0,1-1.89,5.24L63.51,82.73"/><path class="cls-1" d="M22.3,16.27l4.75-3.41a2,2,0,0,1,2.28,0L53.2,30a5.93,5.93,0,0,1,2.46,4.81V87a3.94,3.94,0,0,1-3.92,4H4.64A3.94,3.94,0,0,1,.72,87V34.82A5.91,5.91,0,0,1,3.19,30l11.89-8.55"/><path class="cls-1" d="M28.19,63.78c-3.46,0-6.37-1.81-6.37-3.94s2.91-3.94,6.37-3.94,6.38,1.8,6.38,3.94a1.84,1.84,0,0,0,3.68,0c0-3.8-3.49-6.85-8.22-7.49v-2a1.84,1.84,0,1,0-3.68,0v2c-4.73.64-8.21,3.69-8.21,7.49,0,4.27,4.41,7.62,10.05,7.62,3.46,0,6.38,1.8,6.38,3.94s-2.92,3.94-6.38,3.94-6.37-1.81-6.37-3.94a1.84,1.84,0,0,0-3.68,0c0,3.79,3.48,6.84,8.21,7.48v2a1.84,1.84,0,1,0,3.68,0v-2c4.73-.64,8.22-3.69,8.22-7.48C38.25,67.12,33.83,63.78,28.19,63.78Z"/></g></g></svg>