<svg xmlns="http://www.w3.org/2000/svg" viewBox="0 0 111.74 75.52"><defs><style>.cls-1{fill:none;stroke:#003459;stroke-linecap:round;stroke-linejoin:round;stroke-width:1.44px;}</style></defs><g id="Layer_2" data-name="Layer 2"><g id="Design"><path class="cls-1" d="M7.56,27.79c-.22-3.06-1.68-8-6.84-8.69,5.6-1.05,6.71-6.09,6.82-8.69H7.6c0,2.55.82,7.39,6.69,8.69-5.07.83-6.44,5.69-6.7,8.69Z"/><path class="cls-1" d="M19.28,13.4c-.16-2.23-1.22-5.86-5-6.34,4.09-.76,4.89-4.44,5-6.34h0c0,1.86.6,5.39,4.88,6.34-3.7.61-4.7,4.15-4.89,6.34Z"/><path class="cls-1" d="M104.18,27.79c.22-3.06,1.68-8,6.84-8.69-5.6-1.05-6.71-6.09-6.82-8.69h-.06c0,2.55-.82,7.39-6.69,8.69,5.07.83,6.44,5.69,6.7,8.69Z"/><path class="cls-1" d="M92.46,13.4c.16-2.23,1.22-5.86,5-6.34-4.09-.76-4.89-4.44-5-6.34h0c0,1.86-.6,5.39-4.88,6.34,3.7.61,4.7,4.15,4.88,6.34Z"/><path class="cls-1" d="M34.8,19.37H27.15a10.64,10.64,0,0,0-8.67,4.49L2.53,51.05a7.35,7.35,0,0,0,6,11.6H97.65A7.36,7.36,0,0,0,104.24,52l-10-26.75a10.64,10.64,0,0,0-9.52-5.9h-9.8"/><path class="cls-1" d="M2.53,63.2a7.35,7.35,0,0,0,6,11.6H97.65a7.36,7.36,0,0,0,6.59-10.63"/><path class="cls-1" d="M34,29.28l3.83,5.5a4.33,4.33,0,0,0,6.27.9l10.67-8.62S40.2,21.65,46,19.12a52,52,0,0,1,9.37-3.25s-11.28-1-18.91,3A7.18,7.18,0,0,0,34,29.28Z"/><path class="cls-1" d="M76.79,29.28,73,34.78a4.33,4.33,0,0,1-6.27.9L56,27.06s14.52-5.41,8.75-7.94a51.89,51.89,0,0,0-9.38-3.25s11.29-1,18.92,3A7.18,7.18,0,0,1,76.79,29.28Z"/><line class="cls-1" x1="43.23" y1="55.44" x2="96.25" y2="55.44"/><line class="cls-1" x1="36.45" y1="55.44" x2="29.27" y2="55.44"/></g></g></svg>