<svg xmlns="http://www.w3.org/2000/svg" xmlns:xlink="http://www.w3.org/1999/xlink" viewBox="0 0 166.25 70.62"><defs><style>.cls-1,.cls-2,.cls-3,.cls-5{fill:none;}.cls-1{clip-rule:evenodd;}.cls-3,.cls-5{stroke:#003459;stroke-width:1.44px;}.cls-3{stroke-linecap:round;stroke-linejoin:round;}.cls-4{fill:#003459;}.cls-5{stroke-miterlimit:10;}.cls-6{clip-path:url(#clip-path);}.cls-7{clip-path:url(#clip-path-2);}.cls-8{fill:#39b6ed;opacity:0.5;}.cls-9{clip-path:url(#clip-path-3);}.cls-10{clip-path:url(#clip-path-5);}.cls-11{clip-path:url(#clip-path-7);}.cls-12{fill:#757575;}</style><clipPath id="clip-path"><path class="cls-1" d="M114.37,28.92h0a.94.94,0,0,0-1.21.56L111,35.36a1,1,0,0,0,.57,1.2.93.93,0,0,0,1.2-.56l2.14-5.88A.93.93,0,0,0,114.37,28.92Z"/></clipPath><clipPath id="clip-path-2"><rect class="cls-2" x="76.07" y="-14.67" width="112.99" height="94.16"/></clipPath><clipPath id="clip-path-3"><path class="cls-1" d="M109.42,28.92h0a.94.94,0,0,1,1.21.56l2.13,5.88A.94.94,0,0,1,111,36l-2.13-5.88A.93.93,0,0,1,109.42,28.92Z"/></clipPath><clipPath id="clip-path-5"><path class="cls-1" d="M104.19,29.24h0a1.89,1.89,0,0,1,2.42,1.13l1.81,5a.94.94,0,0,1-1.76.64Z"/></clipPath><clipPath id="clip-path-7"><path class="cls-1" d="M110,28.92h0a.94.94,0,0,0-1.21.56l-2.13,5.88a.94.94,0,0,0,1.77.64l2.13-5.88A.93.93,0,0,0,110,28.92Z"/></clipPath></defs><g id="Layer_2" data-name="Layer 2"><g id="Design"><circle class="cls-3" cx="32.31" cy="59.27" r="10.62"/><line class="cls-3" x1="127.71" y1="62.38" x2="42.56" y2="62.38"/><path class="cls-3" d="M22.15,62.38S4.58,62,2,60.09c0,0-.93-.31-1.14-4.05a45.7,45.7,0,0,1,0-6.87C.94,48.34,3,46.47,4.06,46c0,0-.31-5.09.94-7.17s14.34-6.45,21.62-8.11l14-3.22S67.27,7.07,69.76,5,73.86.72,81.17.72h66.15s6.44.32,8.31,5.73S161,30.77,161.45,49.9c0,0,3.54.55,3.85,1.56a35.37,35.37,0,0,1,0,8.1c-.31.78-1.09,2.5-4.21,2.73s-13.35-.08-13.35-.08"/><circle class="cls-3" cx="32.31" cy="59.27" r="5.53"/><circle class="cls-3" cx="137.51" cy="59.27" r="10.62"/><circle class="cls-3" cx="137.51" cy="59.27" r="5.53"/><path class="cls-3" d="M50.1,34.86s-1.45,13.47.73,24.39"/><path class="cls-3" d="M87.89,30.9H66.51a1.88,1.88,0,0,0-1.32.55l-2.86,2.86a1.88,1.88,0,0,1-1.32.55H47.79a1.87,1.87,0,0,1-1.24-3.27l25.6-20.75a1.87,1.87,0,0,1,1.23-.47H87.89a1.87,1.87,0,0,1,1.87,1.87V29A1.87,1.87,0,0,1,87.89,30.9Z"/><path class="cls-3" d="M92.31,58.53c-1-13.21-.21-48.86,0-52.19a3.07,3.07,0,0,1,3.43-3H122.4a3.07,3.07,0,0,1,3.43,3c.21,3.33,1.65,26.28,1.38,39.45,0,0-5.87,4-5.87,12.74Z"/><line class="cls-3" x1="48.5" y1="59.27" x2="121.34" y2="58.53"/><rect class="cls-4" x="127.24" y="32.64" width="30.87" height="1.25" rx="0.5"/><rect class="cls-4" x="49.79" y="51.71" width="39.84" height="1.38" rx="0.55"/><path class="cls-3" d="M157.62,32.64s-3.06-20.48-3.91-23.59c-.77-2.81-4.15-3-4.15-3s-6.21-.51-23.73.32"/><path class="cls-3" d="M92.28,7H73.18a4.15,4.15,0,0,0-2.91,1C68.61,9.25,48.54,26.51,48.54,26.51s-3.57,2.67-2,5.08"/><line class="cls-3" x1="40.75" y1="27.44" x2="46.28" y2="32.41"/><path class="cls-5" d="M4.66,39.78H6.28a1.29,1.29,0,0,1,1.29,1.41l-.3,3.68a1.3,1.3,0,0,1-1.38,1.2L4.16,46A18.65,18.65,0,0,1,4.66,39.78Z"/><g class="cls-6"><g class="cls-7"><rect class="cls-8" x="108.44" y="31.33" width="9.08" height="2.82" transform="matrix(0.34, -0.94, 0.94, 0.34, 43.57, 127.71)"/></g></g><g class="cls-9"><g class="cls-7"><rect class="cls-8" x="109.4" y="28.2" width="2.82" height="9.08" transform="translate(-4.52 39.87) rotate(-20)"/></g></g><g class="cls-10"><g class="cls-7"><rect class="cls-8" x="105.06" y="28.2" width="2.82" height="9.08" transform="translate(-4.78 38.39) rotate(-20)"/></g></g><g class="cls-11"><g class="cls-7"><rect class="cls-8" x="104.1" y="31.33" width="9.08" height="2.82" transform="translate(40.72 123.63) rotate(-70)"/></g></g><path class="cls-12" d="M118.71,28.59a9.88,9.88,0,0,0-3.55-4.3,9.73,9.73,0,0,0-5.48-1.68,9.79,9.79,0,0,0-5.47,17.91,9.72,9.72,0,0,0,5.47,1.68,9.75,9.75,0,0,0,8.12-4.32,9.72,9.72,0,0,0,1.68-5.47A9.94,9.94,0,0,0,118.71,28.59Zm-1.39,7a8.37,8.37,0,0,1-3,3.65,8.51,8.51,0,0,1-2.17,1,8.39,8.39,0,0,1-2.47.37,8.23,8.23,0,0,1-3.22-.65,8.26,8.26,0,0,1-5.06-7.63,8.24,8.24,0,0,1,.65-3.23,8.26,8.26,0,0,1,7.63-5.06,8.24,8.24,0,0,1,3.23.65A8.26,8.26,0,0,1,118,32.41,8.23,8.23,0,0,1,117.32,35.63Z"/></g></g></svg>