<svg xmlns="http://www.w3.org/2000/svg" viewBox="0 0 106.33 86.77"><defs><style>.cls-1{fill:none;stroke:#003459;stroke-linecap:round;stroke-linejoin:round;stroke-width:1.44px;}</style></defs><g id="Layer_2" data-name="Layer 2"><g id="Design"><path class="cls-1" d="M5.08,54.89H73.61A4.36,4.36,0,0,1,78,59.26v5.29a0,0,0,0,1,0,0H.72a0,0,0,0,1,0,0V59.26A4.36,4.36,0,0,1,5.08,54.89Z"/><path class="cls-1" d="M59.79,86.05H18.9c-7,0-12.74-3.88-12.74-8.66l-2-12.84H74.49l-2,12.84C72.53,82.17,66.83,86.05,59.79,86.05Z"/><path class="cls-1" d="M10.15,46.52c3-6.73,13.43-4.53,13.44,2.86"/><path class="cls-1" d="M30.17,48.81c1.36-6.16,10.92-6.76,13.33-1.05"/><path class="cls-1" d="M50.87,47.46c1.6-5.64,9.7-6.78,12.76-1.73"/><path class="cls-1" d="M62.22,50.59a5.9,5.9,0,1,1,9.93,4.3"/><path class="cls-1" d="M41.9,52.12a5.22,5.22,0,0,1,10.44,0"/><path class="cls-1" d="M24.17,47C28,46.42,31.49,48.7,32,52.1"/><path class="cls-1" d="M4.89,54.56c-1-6.59,7.33-10.7,12-5.93"/><path class="cls-1" d="M63.85,40.33c0-1.57.4-5.44,1.17-6.81l9.26-14.16h20.8l9.46,14.22a9.38,9.38,0,0,1,1.07,4.34v36.4a9.28,9.28,0,0,1-9.28,9.28H74.67"/><rect class="cls-1" x="72.3" y="12.53" width="24.25" height="6.83" rx="3.41"/><path class="cls-1" d="M92.84,12.53H75.62l.56-8A4,4,0,0,1,80.32.72h7.82a4,4,0,0,1,4.14,3.81Z"/><path class="cls-1" d="M99.85,48.23c.16-1,.12-5.35.07-8.46a7.41,7.41,0,0,0-2.4-5.33l-4.4-4.07V41.6a6,6,0,0,0,3.93,5.61Z"/><path class="cls-1" d="M52.94,22.83c-6.65,3.22-15.68,9.51-15.68,20.85"/><path class="cls-1" d="M41,32.14c-1.72-2.21-1.52-6.35,1.34-9.31,3.58-3.71,13-5.07,17.3-5.21,0,5.91-1.59,18.85-17.77,17.72"/><path class="cls-1" d="M38,38.27c-2.08-5.52-6.17-8.66-8.74-10.72"/><path class="cls-1" d="M36.6,31.08c-.92-8.53-9.59-9.81-12.48-9.81,0,3.2.42,9.23,4.11,13a6.78,6.78,0,0,0,8.41,1.15"/></g></g></svg>