<svg xmlns="http://www.w3.org/2000/svg" xmlns:xlink="http://www.w3.org/1999/xlink" viewBox="0 0 139.72 83.26"><defs><style>.cls-1,.cls-2,.cls-3,.cls-4{fill:none;}.cls-1{clip-rule:evenodd;}.cls-3,.cls-4{stroke:#003459;stroke-linecap:round;stroke-linejoin:round;}.cls-3{stroke-width:1.2px;}.cls-5{clip-path:url(#clip-path);}.cls-6{clip-path:url(#clip-path-2);}.cls-7{fill:#39b6ed;opacity:0.5;}.cls-8{clip-path:url(#clip-path-3);}.cls-9{clip-path:url(#clip-path-5);}.cls-10{clip-path:url(#clip-path-7);}.cls-11{fill:#757575;}</style><clipPath id="clip-path"><path class="cls-1" d="M131.88,58.67h0a1.44,1.44,0,0,0-1.85.86l-3.28,9a1.44,1.44,0,1,0,2.71,1l3.29-9A1.45,1.45,0,0,0,131.88,58.67Z"/></clipPath><clipPath id="clip-path-2"><rect class="cls-2" x="73.1" y="-8.24" width="173.42" height="144.52"/></clipPath><clipPath id="clip-path-3"><path class="cls-1" d="M124.28,58.67h0a1.44,1.44,0,0,1,1.85.86l3.29,9a1.45,1.45,0,0,1-2.72,1l-3.28-9A1.44,1.44,0,0,1,124.28,58.67Z"/></clipPath><clipPath id="clip-path-5"><path class="cls-1" d="M116.26,59.16h0A2.9,2.9,0,0,1,120,60.89l2.79,7.66a1.45,1.45,0,0,1-2.72,1Z"/></clipPath><clipPath id="clip-path-7"><path class="cls-1" d="M125.22,58.67h0a1.44,1.44,0,0,0-1.85.86l-3.28,9a1.44,1.44,0,0,0,2.71,1l3.29-9A1.45,1.45,0,0,0,125.22,58.67Z"/></clipPath></defs><g id="Layer_2" data-name="Layer 2"><g id="Design"><polyline class="cls-3" points="24.04 0.6 12.32 0.6 0.6 82.66 121.12 82.66"/><polyline class="cls-3" points="49.83 82.66 38.11 0.6 24.04 0.6"/><polyline class="cls-3" points="43.27 36.7 73.28 21.7 73.28 45.15"/><polyline class="cls-3" points="73.28 35.77 101.41 21.7 101.41 45.15"/><polyline class="cls-3" points="101.41 35.77 129.54 21.7 129.54 46.32"/><path class="cls-4" d="M57.11,56.78h0c-.14-.4,0-.71.34-.69l3,.13a1.08,1.08,0,0,1,.84.74h0c.14.39,0,.7-.33.69l-3-.13A1.11,1.11,0,0,1,57.11,56.78Z"/><path class="cls-4" d="M85.24,56.78h0c-.14-.4,0-.71.34-.69l3,.13a1.1,1.1,0,0,1,.84.74h0c.14.39,0,.7-.34.69l-3-.13A1.12,1.12,0,0,1,85.24,56.78Z"/><g class="cls-5"><g class="cls-6"><rect class="cls-7" x="122.78" y="62.37" width="13.93" height="4.34" transform="translate(24.73 164.39) rotate(-70)"/></g></g><g class="cls-8"><g class="cls-6"><rect class="cls-7" x="124.25" y="57.57" width="4.34" height="13.93" transform="translate(-14.45 47.13) rotate(-20)"/></g></g><g class="cls-9"><g class="cls-6"><rect class="cls-7" x="117.59" y="57.57" width="4.34" height="13.93" transform="translate(-14.85 44.85) rotate(-20)"/></g></g><g class="cls-10"><g class="cls-6"><rect class="cls-7" x="116.12" y="62.37" width="13.93" height="4.34" transform="translate(20.34 158.13) rotate(-70)"/></g></g><path class="cls-11" d="M138.54,58.17A15.06,15.06,0,1,0,139.72,64,15.06,15.06,0,0,0,138.54,58.17ZM136.41,69a12.82,12.82,0,0,1-4.61,5.6,12.49,12.49,0,0,1-3.33,1.6,12.72,12.72,0,0,1-10.89-22.69,12.34,12.34,0,0,1,3.33-1.6,12.72,12.72,0,0,1,3.78-.58,12.71,12.71,0,0,1,10.55,5.61,13.29,13.29,0,0,1,1.6,3.33,12.78,12.78,0,0,1-.43,8.73Z"/></g></g></svg>