<svg xmlns="http://www.w3.org/2000/svg" viewBox="0 0 78.74 78.74"><defs><style>.cls-1{fill:none;stroke:#003459;stroke-linecap:round;stroke-linejoin:round;stroke-width:1.44px;}</style></defs><g id="Layer_2" data-name="Layer 2"><g id="Design"><path class="cls-1" d="M.72,52.09l9.55-3.45a3.35,3.35,0,0,1,4.29,2L21.88,69a3.39,3.39,0,0,1-2,4.36L6.91,78"/><path class="cls-1" d="M27.14,70.13l13.4,3.56a13.7,13.7,0,0,0,9-.68l25.6-11.16a4.84,4.84,0,0,0,2.31-6.78h0a4.89,4.89,0,0,0-6.14-2.13l-13,4.65"/><path class="cls-1" d="M19.81,48.64,21,48a17.07,17.07,0,0,1,13.83-.84L50,52.81a5.43,5.43,0,0,1,3.27,6.81h0a5.48,5.48,0,0,1-6.92,3.44l-10.1-3.34"/><path class="cls-1" d="M26.46,41.05a4.59,4.59,0,0,0-.36-.41l-7.29-7.15a4.29,4.29,0,0,1,2.35-7.3l10.07-1.47a4.26,4.26,0,0,0,3.2-2.34l4.5-9.19a4.23,4.23,0,0,1,7.61,0L51,22.38a4.24,4.24,0,0,0,3.2,2.34L64.3,26.19a4.29,4.29,0,0,1,2.36,7.3l-7.29,7.15a4.29,4.29,0,0,0-1.22,3.79l1.14,6.71"/><line class="cls-1" x1="42.73" y1="0.72" x2="42.73" y2="4.08"/><line class="cls-1" x1="67.69" y1="11.06" x2="65.31" y2="13.43"/><line class="cls-1" x1="78.02" y1="36.01" x2="74.66" y2="36.01"/><line class="cls-1" x1="7.44" y1="36.01" x2="10.8" y2="36.01"/><line class="cls-1" x1="17.78" y1="11.06" x2="20.16" y2="13.43"/></g></g></svg>