<svg version="1.1" id="Layer_1" xmlns="http://www.w3.org/2000/svg" x="0" y="0" viewBox="0 0 265 255" xml:space="preserve">
  <style>
    .st3,.st5,.st8{fill-rule:evenodd;clip-rule:evenodd}.st3{fill:#f2545b;stroke:#cb494f}.st5,.st8{stroke:#003459}.st5{stroke-width:2;fill:#fafafa}.st8{fill:#eee}
  </style>
	<circle cx="222.5" cy="183" r="12"/>
	<circle cx="222.5" cy="183" r="12" fill="#1ba449" stroke="#20bf55" stroke-width="6" stroke-linecap="round" stroke-linejoin="round"/>
	<path d="M222.5 195v20" fill="none" stroke="#f5a623" stroke-width="2" stroke-linecap="round" stroke-linejoin="round"/>
	<path d="M117 200.5h1v6h-1v-6z" fill-rule="evenodd" clip-rule="evenodd" fill="#d8d8d8" stroke="#20bf55"/>
	<circle class="st3" cx="117" cy="201.5" r="1.5"/>
	<circle class="st3" cx="119" cy="199.5" r="1.5"/>
	<circle class="st3" cx="118" cy="201.5" r="1.5"/>
	<circle class="st3" cx="115" cy="199.5" r="1.5"/>
	<circle class="st3" cx="116" cy="201.5" r="1.5"/>
	<circle class="st3" cx="117" cy="199.5" r="1.5"/>
	<circle class="st3" cx="117" cy="197.5" r="1.5"/>
	<path d="M112.6 207h8.7c.6 0 1 .4 1 1v.1l-.8 6c-.1.5-.5.9-1 .9h-7.2c-.5 0-.9-.4-1-.9l-.8-6c-.1-.5.3-1 .9-1.1h.2z" fill-rule="evenodd" clip-rule="evenodd" fill="#c88a23"/>
	<path class="st5" d="M128.5 151h68c1.1 0 2 .9 2 2v61c0 1.1-.9 2-2 2h-68c-1.1 0-2-.9-2-2v-61c0-1.1.9-2 2-2z"/>
	<path d="M170.5 165h18c1.1 0 2 .9 2 2v47c0 1.1-.9 2-2 2h-18c-1.1 0-2-.9-2-2v-47c0-1.1.9-2 2-2z" fill-rule="evenodd" clip-rule="evenodd" fill="#fff" stroke="#003459" stroke-width="2"/>
	<circle cx="186" cy="194.5" r="1.5" fill-rule="evenodd" clip-rule="evenodd" fill="#f5a623" stroke="#c88a23"/>
	<path class="st8" d="M171 168.5v21h17v-21h-17z"/>
	<path d="M130.9 122H194c.9 0 1.6.6 1.9 1.4l8.7 26c.3 1-.2 2.2-1.3 2.5-.2.1-.4.1-.6.1h-80.5c-1.1 0-2-.9-2-2 0-.2 0-.4.1-.6l8.7-26c.3-.8 1.1-1.4 1.9-1.4z"/>
	<path d="M130.9 123c-.4 0-.8.3-.9.7l-8.7 26c0 .1-.1.2-.1.3 0 .6.4 1 1 1h80.5c.1 0 .2 0 .3-.1.5-.2.8-.7.6-1.3l-8.7-26c-.1-.4-.5-.7-.9-.7h-63.1v.1h0z" fill-rule="evenodd" clip-rule="evenodd" fill="#f5a623" stroke="#003459" stroke-width="2"/>
	<path d="M136.1 165c-.7 0-.9 0-1.1.1-.2.1-.3.2-.3.3-.1.2-.1.4-.1 1.1v24.9c0 .7 0 .9.1 1.1.1.2.2.3.3.3.2.1.4.1 1.1.1H157c.7 0 .9 0 1.1-.1.2-.1.3-.2.3-.3.1-.2.1-.4.1-1.1v-24.9c0-.7 0-.9-.1-1.1-.1-.2-.2-.3-.3-.3-.2-.1-.4-.1-1.1-.1h-20.9z" fill-rule="evenodd" clip-rule="evenodd" fill="#c88a23" stroke="#003459" stroke-width="2"/>
	<path class="st8" d="M138 168.5v21h17v-21h-17z"/>
	<path d="M138.5 178h16v2h-16v-2z" fill-rule="evenodd" clip-rule="evenodd" fill="#757575"/>
	<path class="st5" d="M17.5 218v6c0 1.7 1.3 3 3 3h71c1.7 0 3-1.3 3-3v-6h-77z"/>
	<circle class="st5" cx="80.5" cy="226" r="8"/>
	<circle class="st5" cx="30.5" cy="226" r="8"/>
	<path class="st5" d="M94.5 218v-15.6c0-.6-.3-1.2-.7-1.5l-5.9-5c-.2-.2-.4-.4-.5-.7l-7-14.5c-.5-1-1.6-1.7-2.7-1.7H19.5c-2.8 0-5 2.2-5 5v31c0 1.7 1.3 3 3 3h77z"/>
	<path d="M61.5 180h3v37h-3v-37zm-55 15h12v2h-12v-2zm4 8h8v2h-8v-2z" fill-rule="evenodd" clip-rule="evenodd" fill="#39b6ed"/>
</svg>
