<svg width="54" height="60" xmlns="http://www.w3.org/2000/svg">
    <g fill="none" fill-rule="evenodd">
        <rect stroke="#003459" stroke-width="3" fill="#FFF" x="1.5" y="9.5" width="51" height="49" rx="4"/>
        <rect stroke="#003459" stroke-width="3" fill="#FFF" x="16.5" y="1.5" width="21" height="7" rx="2"/>
        <path fill="#003459" d="M25 9h4v49h-4z"/>
        <rect stroke="#003459" stroke-width="2" fill="#39B6ED" x="35" y="24" width="10" height="4" rx="1"/>
        <path d="M15.9525036 2.29546016c-.2293886-.14222091-.5302487-.07672078-.6797531.14798872l-4.8873072 7.34577094c-.003524.00534592-.003524.00534592-.0069561.01075123-.1470245.23374865-.0767207.54242615.1570279.68945065l11.1232557 6.9963667a.50001347.50001347 0 00.0686559.0360774c.2536736.1091069.5477653-.0080876.6568722-.2617612l3.5571645-8.27040748c.0977955-.22737458.014516-.49208199-.1958468-.62250691l-9.793113-6.07173005zM38.0474964 2.29546016c.2293886-.14222091.5302487-.07672078.6797531.14798872l4.8873072 7.34577094c.003524.00534592.003524.00534592.0069561.01075123.1470245.23374865.0767207.54242615-.1570279.68945065l-11.1232557 6.9963667a.50001347.50001347 0 01-.0686559.0360774c-.2536736.1091069-.5477653-.0080876-.6568722-.2617612l-3.5571645-8.27040748c-.0977955-.22737458-.014516-.49208199.1958468-.62250691l9.793113-6.07173005z" stroke="#003459" stroke-width="3" fill="#FFF"/>
    </g>
</svg>
