<svg viewBox="0 0 1440 440" fill="none" xmlns="http://www.w3.org/2000/svg">
    <path opacity=".2" fill-rule="evenodd" clip-rule="evenodd" d="M0 285.125h39.6c40.8 0 120 0 200.4-43.021s159.6-129.062 240-103.25c80.4 25.813 159.6 163.479 240 154.875 80.4-8.604 159.6-163.479 240-197.8957 80.4-34.4166 159.6 51.6247 240 60.2287 80.4 8.605 159.6-60.2287 200.4-94.6453L1440 27v413H0V285.125z" fill="#2FBFFD"/>
    <path opacity=".2" fill-rule="evenodd" clip-rule="evenodd" d="M0 172.084l15 44.653c15 44.652 45 133.958 75 143.26 30 8.373 60-63.258 90-133.958 30-71.63 60-143.2603 90-116.283 30 26.978 60 151.633 90 196.286 30 44.653 60 9.303 90 9.303s60 35.35 90 53.025c30 17.675 60 17.675 90-53.025 30-71.631 60-214.891 90-277.2189 30-62.3277 60-44.65267 90 26.9776 30 71.6303 60 196.2853 90 205.5883 30 8.372 60-98.608 90-89.305 30 8.372 60 133.958 90 160.005 30 26.978 60-44.653 90-106.98 30-62.328 60-116.283 90-151.6333 30-35.35 60-53.9552 90-44.6526 30 9.3026 60 44.6526 75 62.3279l15 17.675V440H0V172.084z" fill="#2FBFFD"/>
</svg>
